<?xml version="1.0" standalone="no"?>
<!DOCTYPE svg PUBLIC "-//W3C//DTD SVG 1.1//EN" "http://www.w3.org/Graphics/SVG/1.1/DTD/svg11.dtd" >
<svg xmlns="http://www.w3.org/2000/svg" xmlns:xlink="http://www.w3.org/1999/xlink" version="1.1">
<metadata>
Created by FontForge 20170731 at Thu Apr 16 09:54:37 2020
 By Aleksey,,,
Copyright (c) 2020 by Alfredo Marco Pradil. All rights reserved.
</metadata>
<defs>
<font id="OpenSauceOne-Italic" horiz-adv-x="0" >
  <font-face 
    font-family="Open Sauce One"
    font-weight="400"
    font-style="italic"
    font-stretch="normal"
    units-per-em="1000"
    panose-1="0 0 5 0 0 0 0 0 0 0"
    ascent="763"
    descent="-237"
    x-height="553"
    cap-height="763"
    bbox="-758 -237 1266 1028"
    underline-thickness="50"
    underline-position="-150"
    slope="-10"
    unicode-range="U+0020-FB02"
  />
<missing-glyph horiz-adv-x="618" 
d="M490 0h-460l98 553h460zM161 513l-84 -473h380l84 473h-380z" />
    <glyph glyph-name="fi" unicode="fi" horiz-adv-x="580" 
d="M69 0l85 478h-92l13 75h92l10 60q14 74 56.5 112t113.5 38h71l-13 -75h-52q-40 0 -62.5 -21t-30.5 -65l-8 -49h129l-13 -75h-129l-85 -478h-85zM460 0h-85l98 553h85zM493.5 662.5q-15.5 14.5 -15.5 36.5q0 29 23.5 51.5t53.5 22.5q24 0 39.5 -15t15.5 -37
q0 -29 -23.5 -51t-53.5 -22q-24 0 -39.5 14.5z" />
    <glyph glyph-name="fl" unicode="fl" horiz-adv-x="630" 
d="M69 0l85 478h-92l13 75h92l10 60q14 74 56.5 112t113.5 38h71l-13 -75h-52q-40 0 -62.5 -21t-30.5 -65l-8 -49h129l-13 -75h-129l-85 -478h-85zM504 0q-55 0 -83 20t-28 71q0 18 5 48l110 624h85l-108 -611q-4 -19 -4 -37q0 -21 12 -30.5t44 -9.5h27l-13 -75h-47z" />
    <glyph glyph-name="s_a_u_c_e_l_o_g_o.liga" unicode="saucelogo" horiz-adv-x="921" 
d="M39 0q-9 0 -7 10l131 743q2 10 11 10h744q10 0 8 -10l-131 -743q-1 -4 -4 -7t-8 -3h-744zM223 94q14 12 22 23.5t18 30.5q22 37 47 69.5t80 81.5l30 26q4 4 8 4t9 -3q6 -4 16 -6q10 -4 7 -13l-6 -36q-8 -43 -17.5 -66t-23.5 -48q-14 -21 -17 -37q-2 -14 7 -25t23 -11
q15 0 28 11t15 25q1 4 1 12q0 7 -4 25q-7 28 -7 51q0 32 6 63l6 36q3 10 13 13q14 5 16 6q5 3 8 3q5 0 9 -4l21 -26q39 -48 53 -80.5t22 -70.5q3 -19 6.5 -30.5t13.5 -23.5q14 -15 37 -15q26 0 44 15q21 18 24 42q1 4 1 12q0 18 -10 28q-9 12 -19.5 18t-29.5 12
q-35 14 -64.5 33t-68.5 67l-21 26q-3 3 -3 9q1 1 2 2.5l3 4.5q8 12 10 18q5 11 14 11h36q45 0 68.5 -6t42.5 -16q2 -1 12 -5.5t23 -4.5q16 0 29.5 13t13.5 29q0 13 -8.5 22.5t-21.5 9.5t-25 -4.5t-14 -5.5q-22 -10 -48 -16t-71 -6h-36q-8 0 -10 11q-2 10 -4 15l-2 8q3 6 6 8
l30 26q57 48 94.5 68.5t74.5 31.5q20 6 32.5 12t25.5 18q26 21 26 50q0 18 -11 32q-13 16 -38 16t-43 -15q-13 -11 -21.5 -23t-18.5 -32q-19 -37 -44.5 -70t-82.5 -81l-30 -24q-3 -4 -9 -4q-4 0 -7 2q-4 3 -16 7q-10 4 -7 13l6 36q8 43 17.5 66t23.5 48q14 21 17 37
q2 14 -7 25t-23 11q-15 0 -28 -11t-15 -25q-1 -4 -1 -12q0 -7 4 -25q7 -28 7 -51q0 -32 -6 -63l-6 -36q-3 -10 -13 -13q-2 -1 -7.5 -2.5t-10.5 -4.5q-3 -2 -8 -2t-9 4l-20 24q-41 48 -54.5 81t-20.5 71q-3 19 -6.5 30.5t-13.5 23.5q-13 16 -37 16q-22 0 -43 -16
q-21 -18 -24 -42q-1 -4 -1 -13q0 -16 9 -28q10 -12 20.5 -18t27.5 -12q33 -13 63 -33t70 -67l22 -25q3 -3 3 -8q-3 -6 -5 -8t-10 -16q-5 -11 -14 -11h-36q-44 0 -68 6t-43 16q-2 1 -12 5.5t-23 4.5q-16 0 -29.5 -14t-13.5 -30q0 -13 8.5 -21.5t21.5 -8.5t25 4.5t14 5.5
q22 10 48 16t71 6h36q8 0 10 -11q2 -12 5 -17q1 -2 1 -5q0 -5 -6 -11l-31 -27q-56 -49 -93 -68.5t-76 -31.5q-21 -7 -33.5 -13t-25.5 -17q-11 -9 -17.5 -22.5t-6.5 -27.5q0 -18 10 -31q13 -16 39 -16q25 0 43 15zM437 340q-13 13 -13 32q0 25 20 44.5t44 19.5q20 0 33 -13
t13 -32q0 -25 -20 -44.5t-45 -19.5q-19 0 -32 13zM506 354l-5 6q-13 -13 -29 -13q-12 0 -20 8t-8 20q0 16 13 28.5t28 12.5q16 0 24 -13l6 6q-7 15 -29 15q-19 0 -35 -15.5t-16 -33.5q0 -15 10 -25.5t26 -10.5q22 0 35 15z" />
    <glyph glyph-name=".notdef" horiz-adv-x="618" 
d="M490 0h-460l98 553h460zM161 513l-84 -473h380l84 473h-380z" />
    <glyph glyph-name=".null" 
 />
    <glyph glyph-name="nonmarkingreturn" horiz-adv-x="333" 
 />
    <glyph glyph-name="space" unicode=" " horiz-adv-x="280" 
 />
    <glyph glyph-name="exclam" unicode="!" horiz-adv-x="253" 
d="M80 218l4 27q19 134 37 240l49 278h85l-49 -278q-12 -73 -38 -196q-10 -40 -15 -71h-73zM40 4q-14 14 -14 35q0 28 21.5 48.5t49.5 20.5q21 0 35 -14t14 -34q0 -27 -21.5 -48.5t-48.5 -21.5q-22 0 -36 14z" />
    <glyph glyph-name="quotedbl" unicode="&#x22;" horiz-adv-x="355" 
d="M172 510h-85l45 253h85zM349 510h-85l45 253h85z" />
    <glyph glyph-name="numbersign" unicode="#" horiz-adv-x="751" 
d="M154 0h-67l90 230h-133l10 60h146l74 197h-139l11 62h153l85 214h67l-85 -217h181l83 217h67l-85 -217h135l-11 -59h-148l-77 -197h144l-10 -60h-156l-89 -230h-67l90 230h-182zM341 487l-74 -197h180l74 197h-180z" />
    <glyph glyph-name="dollar" unicode="$" horiz-adv-x="673" 
d="M393 435q71 -16 115.5 -33t75.5 -51.5t31 -93.5q0 -80 -38.5 -139.5t-106.5 -92.5t-155 -35l-16 -90h-42l16 91q-110 6 -174.5 63.5t-64.5 176.5h93q0 -74 45 -111.5t116 -45.5l50 286l-4 1q-69 15 -112 30t-72.5 46.5t-29.5 85.5q0 74 38.5 131t105 88t146.5 31l16 90
h42l-16 -92q89 -10 143 -64t54 -154h-89q-2 61 -35.5 93.5t-87.5 41.5zM250 483q35 -23 102 -39l44 247h-1q-80 0 -130 -38t-50 -103q0 -44 35 -67zM329 72q87 2 139 44t52 117q0 50 -37 76t-105 42z" />
    <glyph glyph-name="percent" unicode="%" horiz-adv-x="788" 
d="M138 462q-33 38 -33 97q0 55 24.5 104.5t66.5 79.5t93 30q55 0 88 -38t33 -98q0 -53 -24 -102.5t-65.5 -80t-90.5 -30.5q-59 0 -92 38zM163 0h-82l580 763h82zM290 512q23 18 37 48t14 65t-17 57.5t-47 22.5q-45 0 -73.5 -41t-28.5 -93q0 -35 17 -56t50 -21q25 0 48 18z
M447.5 28q-32.5 38 -32.5 98q0 54 24.5 103t66.5 79t92 30q55 0 88 -38t33 -99q0 -54 -24.5 -102.5t-66 -78.5t-89.5 -30q-59 0 -91.5 38zM599 76q23 18 37 48t14 66t-16.5 57.5t-47.5 21.5q-45 0 -73 -40t-28 -94q0 -35 16.5 -56t49.5 -21q25 0 48 18z" />
    <glyph glyph-name="ampersand" unicode="&#x26;" horiz-adv-x="727" 
d="M94.5 31q-58.5 41 -58.5 114q0 85 58.5 146t162.5 114q-34 43 -49 76t-15 69q0 63 32 114t87 80t121 29q72 0 117.5 -38t45.5 -103q0 -80 -58.5 -140t-151.5 -101l127 -199q35 43 55 86t37 98h84q-47 -156 -134 -250l80 -126h-111l-43 70q-36 -38 -102.5 -59t-132.5 -21
q-93 0 -151.5 41zM425.5 493q35.5 23 60 54.5t24.5 70.5q0 32 -25 56t-66 24q-36 0 -68 -16.5t-51.5 -47t-19.5 -70.5q0 -28 13 -53.5t43 -68.5q54 28 89.5 51zM357.5 82q48.5 17 87.5 46l-142 222q-58 -29 -94 -53t-61 -57.5t-25 -76.5q0 -46 38 -72t100 -26q48 0 96.5 17z
" />
    <glyph glyph-name="quotesingle" unicode="'" horiz-adv-x="177" 
d="M172 510h-85l45 253h85z" />
    <glyph glyph-name="parenleft" unicode="(" horiz-adv-x="297" 
d="M110 -111q-52 139 -52 294q0 92 18 197q26 144 77.5 264.5t129.5 227.5h95q-88 -118 -140 -236t-77 -256q-16 -92 -16 -181q0 -161 59 -310h-94z" />
    <glyph glyph-name="parenright" unicode=")" horiz-adv-x="297" 
d="M-43 -111q87 117 139.5 237t75.5 254q17 91 17 182q0 156 -60 310h95q52 -140 52 -293q0 -95 -19 -199q-48 -274 -206 -491h-94z" />
    <glyph glyph-name="asterisk" unicode="*" horiz-adv-x="415" 
d="M114 487q31 29 58.5 51.5t68.5 50.5l-2 13q-14 -1 -37 -1q-46 0 -106 10l42 78q34 -17 56 -31.5t49 -39.5l13 8q-5 57 -5 85q0 18 2 52h82q-21 -70 -54 -137l9 -8q37 25 64.5 38.5t70.5 32.5l12 -79q-58 -9 -110 -9q-24 0 -38 1l-6 -13q33 -27 52 -49t41 -53l-77 -47
q-22 74 -32 139h-14q-19 -40 -36 -68t-45 -71z" />
    <glyph glyph-name="plus" unicode="+" horiz-adv-x="636" 
d="M315 60h-71l42 242h-242l13 71h242l43 242h71l-43 -242h242l-13 -71h-242z" />
    <glyph glyph-name="comma" unicode="," horiz-adv-x="270" 
d="M-8 -126q55 8 86 45t31 93q-16 -22 -49 -22q-18 0 -30 11.5t-12 31.5q0 32 21 53.5t54 21.5t51 -22.5t18 -61.5q0 -49 -23 -91.5t-63.5 -70.5t-91.5 -33z" />
    <glyph glyph-name="hyphen" unicode="-" horiz-adv-x="344" 
d="M324 297h-296l13 74h296z" />
    <glyph glyph-name="period" unicode="." horiz-adv-x="238" 
d="M33.5 4q-14.5 14 -14.5 35q0 27 22 48t50 21q21 0 34.5 -14t13.5 -34q0 -27 -21.5 -48.5t-47.5 -21.5q-22 0 -36.5 14z" />
    <glyph glyph-name="slash" unicode="/" horiz-adv-x="454" 
d="M8 -111h-79l500 874h79z" />
    <glyph glyph-name="zero" unicode="0" horiz-adv-x="660" 
d="M128 55.5q-54 64.5 -54 190.5q0 63 13 137q34 193 120 291.5t209 98.5q100 0 154 -64t54 -190q0 -59 -14 -140q-34 -192 -119 -290t-208 -98q-101 0 -155 64.5zM433 150.5q58 76.5 85 229.5q13 76 13 125q0 93 -34 139t-97 46q-80 0 -137.5 -77.5t-83.5 -230.5
q-13 -78 -13 -126q0 -91 33 -136.5t96 -45.5q80 0 138 76.5z" />
    <glyph glyph-name="one" unicode="1" horiz-adv-x="432" 
d="M325 646q-50 -52 -112 -87t-131 -51l16 90q72 14 140.5 63t109.5 102h90l-135 -763h-92z" />
    <glyph glyph-name="two" unicode="2" horiz-adv-x="646" 
d="M7 0l17 94l277 200q69 50 113 90.5t71.5 89t27.5 107.5q0 52 -30 80t-89 28q-75 0 -125 -45.5t-72 -135.5h-92q26 121 106.5 192t195.5 71q92 0 145.5 -47t53.5 -128q0 -105 -70.5 -195.5t-187.5 -175.5l-196 -142h405l-15 -83h-535z" />
    <glyph glyph-name="three" unicode="3" horiz-adv-x="659" 
d="M109.5 45.5q-63.5 54.5 -63.5 148.5q0 24 2 36h92l-1 -18q0 -66 40 -102t124 -36q56 0 100 22.5t69 62.5t25 90q0 60 -48.5 86.5t-125.5 26.5h-47l15 83h45q49 0 89 19t63.5 53.5t23.5 78.5t-30 68.5t-83 24.5q-66 0 -113.5 -38t-67.5 -110h-92q15 66 57 119t101.5 82.5
t124.5 29.5q92 0 144 -44t52 -117q0 -45 -20.5 -88.5t-55 -73.5t-74.5 -38q56 -10 95 -50t39 -105q0 -74 -41.5 -134.5t-111 -95.5t-148.5 -35q-115 0 -178.5 54.5z" />
    <glyph glyph-name="four" unicode="4" horiz-adv-x="654" 
d="M443 0h-92l32 182h-354l16 91l440 490h93l-88 -498h116l-15 -83h-116zM464 637l-330 -372h264z" />
    <glyph glyph-name="five" unicode="5" horiz-adv-x="651" 
d="M154.5 19.5q-50.5 28.5 -75.5 80.5t-20 119h93q-3 -68 36.5 -106.5t106.5 -38.5q58 0 104.5 32t72.5 84.5t26 111.5q0 62 -37.5 97.5t-103.5 35.5q-48 0 -93 -25t-74 -68h-101l150 421h400l-15 -83h-331l-82 -232q41 33 87 51.5t92 18.5q92 0 147 -55t55 -146
q0 -85 -43 -160.5t-116 -120.5t-159 -45q-69 0 -119.5 28.5z" />
    <glyph glyph-name="six" unicode="6" horiz-adv-x="656" 
d="M124.5 56q-54.5 66 -54.5 183q0 51 11 115q33 190 122.5 304.5t230.5 114.5q100 0 152.5 -55.5t53.5 -150.5h-87q-6 61 -38.5 92t-95.5 31q-94 0 -155.5 -77t-85.5 -220q77 104 209 104q95 0 148.5 -54t53.5 -143q0 -23 -5 -53q-13 -72 -54.5 -131t-103.5 -92.5
t-133 -33.5q-114 0 -168.5 66zM428 122q51 49 63 121q4 19 4 41q0 59 -33.5 94.5t-94.5 35.5q-49 0 -92.5 -22t-73 -61t-38.5 -88q-3 -16 -3 -33q0 -61 40 -99t107 -38q70 0 121 49z" />
    <glyph glyph-name="seven" unicode="7" horiz-adv-x="611" 
d="M167 0h-111l476 680h-425l15 83h532l-14 -79z" />
    <glyph glyph-name="eight" unicode="8" horiz-adv-x="652" 
d="M111 42.5q-60 52.5 -60 139.5q0 84 50.5 150t131.5 85q-43 13 -66 47t-23 77q0 64 37.5 117t100 84t132.5 31q89 0 143.5 -46t54.5 -121q0 -66 -40 -119.5t-103 -69.5q55 -15 84.5 -55.5t29.5 -95.5q0 -77 -41.5 -140.5t-112.5 -99.5t-154 -36q-104 0 -164 52.5z
M473.5 487.5q44.5 39.5 44.5 103.5q0 45 -31.5 72t-87.5 27q-46 0 -83 -19t-58.5 -53t-21.5 -76q0 -45 31 -69.5t89 -24.5q73 0 117.5 39.5zM393.5 97q45.5 24 71 66t25.5 94q0 56 -38.5 88.5t-107.5 32.5q-58 0 -103.5 -23.5t-71 -65.5t-25.5 -95q0 -58 40 -89.5t106 -31.5
q58 0 103.5 24z" />
    <glyph glyph-name="nine" unicode="9" horiz-adv-x="656" 
d="M106.5 45.5q-52.5 55.5 -53.5 150.5h87q6 -61 38.5 -92t95.5 -31q94 0 155.5 77t85.5 220q-77 -104 -209 -104q-95 0 -148.5 54t-53.5 143q0 23 5 53q13 72 54.5 131t103.5 92.5t133 33.5q114 0 168.5 -66t54.5 -183q0 -51 -11 -115q-33 -190 -122.5 -304.5
t-230.5 -114.5q-100 0 -152.5 55.5zM418.5 371q43.5 22 73 61t38.5 88q3 17 3 33q0 61 -40 99t-107 38q-70 0 -121 -49t-63 -121q-4 -19 -4 -41q0 -59 33.5 -94.5t94.5 -35.5q49 0 92.5 22z" />
    <glyph glyph-name="colon" unicode=":" horiz-adv-x="203" 
d="M89 422q-14 14 -14 35q0 27 22 48.5t49 21.5q21 0 35 -14.5t14 -35.5q0 -27 -21.5 -48t-48.5 -21q-22 0 -36 14zM15 4q-14 14 -14 35q0 28 21.5 48.5t49.5 20.5q21 0 35 -14t14 -34q0 -27 -21.5 -48.5t-48.5 -21.5q-22 0 -36 14z" />
    <glyph glyph-name="semicolon" unicode=";" horiz-adv-x="271" 
d="M107 422.5q-14 14.5 -14 35.5q0 26 22 47.5t49 21.5q21 0 35 -14.5t14 -35.5q0 -27 -22 -48t-48 -21q-22 0 -36 14.5zM-7 -126q55 8 86 46t31 92q-16 -22 -49 -22q-18 0 -30 11.5t-12 31.5q0 32 21 53.5t54 21.5t51 -22.5t18 -61.5q0 -49 -23 -91.5t-63.5 -70.5
t-91.5 -33z" />
    <glyph glyph-name="less" unicode="&#x3c;" horiz-adv-x="559" 
d="M63 383l498 175l-14 -79l-414 -144l364 -143l-13 -70l-436 176z" />
    <glyph glyph-name="equal" unicode="=" horiz-adv-x="506" 
d="M494 416h-433l14 80h433zM454 194h-433l15 80h433z" />
    <glyph glyph-name="greater" unicode="&#x3e;" horiz-adv-x="559" 
d="M519 297l-498 -175l14 79l414 144l-364 143l13 70l436 -176z" />
    <glyph glyph-name="question" unicode="?" horiz-adv-x="547" 
d="M224 244q10 58 32 96.5t48 60.5t65 48q54 35 79.5 67.5t25.5 85.5q0 47 -33 71.5t-92 24.5q-71 0 -117.5 -38t-63.5 -105h-78q24 101 96.5 159t170.5 58q88 0 142 -42t54 -119q0 -72 -30.5 -117t-95.5 -87q-35 -23 -57.5 -41.5t-40.5 -48.5t-25 -73l-5 -28h-80zM183 4
q-14 14 -14 35q0 27 21.5 48t48.5 21q22 0 36 -14t14 -34q0 -29 -22 -49.5t-49 -20.5q-21 0 -35 14z" />
    <glyph glyph-name="at" unicode="@" horiz-adv-x="1051" 
d="M230 -142.5q-90 46.5 -139.5 131t-49.5 195.5q0 47 9 96q24 139 105.5 252t202.5 177.5t261 64.5q118 0 207.5 -47.5t138.5 -133.5t49 -198q0 -45 -9 -95q-17 -95 -60.5 -172t-108.5 -122t-141 -45q-55 0 -81 30.5t-26 97.5q0 28 2 44q-77 -110 -186 -110q-69 0 -109 40
t-40 114q0 22 5 54q15 84 64.5 163t122 129t152.5 50q47 0 76 -21t44 -70l24 63h74l-38 -99q-49 -126 -75.5 -199.5t-35.5 -117.5q-5 -23 -5 -38q0 -58 55 -58q49 0 93 35t75 95.5t44 134.5q8 46 8 84q0 95 -40.5 166.5t-115.5 110.5t-175 39q-119 0 -221.5 -54.5
t-171 -149.5t-89.5 -214q-8 -46 -8 -83q0 -94 41 -164t116.5 -108t177.5 -38q72 0 140 23l-14 -79q-64 -20 -140 -20q-118 0 -208 46.5zM530.5 138.5q53.5 40.5 90.5 104t48 127.5q4 20 4 40q0 87 -85 87q-60 0 -114 -39t-91 -101t-48 -127q-4 -21 -4 -42q0 -46 23 -68
t64 -22q59 0 112.5 40.5z" />
    <glyph glyph-name="A" unicode="A" horiz-adv-x="694" 
d="M631 0h-88l-34 187h-346l-100 -187h-98l416 763h104zM421 669l-214 -400h287z" />
    <glyph glyph-name="B" unicode="B" horiz-adv-x="690" 
d="M30 0l135 763h287q124 0 174 -56q31 -35 31 -92q0 -52 -21 -100t-58.5 -79.5t-84.5 -35.5q68 -5 103.5 -42t35.5 -99q0 -55 -22.5 -106t-63.5 -86q-44 -36 -102 -51.5t-115 -15.5h-299zM393 432q76 0 121.5 42t45.5 110q0 35 -20 57q-33 39 -123 39h-175l-44 -248h195z
M334 83q40 0 78.5 7t70.5 33q28 22 42.5 57.5t14.5 71.5q0 63 -42.5 80.5t-96.5 17.5h-217l-47 -267h197z" />
    <glyph glyph-name="C" unicode="C" horiz-adv-x="748" 
d="M188 29q-65 39 -96.5 106t-31.5 152q0 132 54.5 243.5t152.5 177t223 65.5q83 0 143 -28t91.5 -78t31.5 -115h-100q-3 64 -52 101.5t-131 37.5q-96 0 -169 -54t-112 -144.5t-39 -194.5t54 -165t157 -61q84 0 145.5 40.5t89.5 118.5h100q-38 -112 -130 -176.5t-218 -64.5
q-98 0 -163 39z" />
    <glyph glyph-name="D" unicode="D" horiz-adv-x="732" 
d="M30 0l135 763h210q163 0 248 -74t85 -214q0 -142 -57.5 -249.5t-163.5 -166.5t-248 -59h-209zM253 83q177 0 269.5 100.5t92.5 278.5q0 218 -256 218h-117l-105 -597h116z" />
    <glyph glyph-name="E" unicode="E" horiz-adv-x="616" 
d="M523 0h-493l135 763h493l-15 -83h-401l-45 -256h354l-14 -82h-354l-46 -259h401z" />
    <glyph glyph-name="F" unicode="F" horiz-adv-x="601" 
d="M122 0h-92l135 763h493l-15 -83h-401l-45 -256h354l-14 -82h-354z" />
    <glyph glyph-name="G" unicode="G" horiz-adv-x="807" 
d="M190 30q-67 40 -98.5 108t-31.5 154q0 130 56.5 240.5t156.5 175.5t224 65t196 -59.5t87 -160.5h-103q-15 64 -65.5 101t-131.5 37q-95 0 -169.5 -53t-115.5 -140.5t-41 -189.5q0 -105 55.5 -170.5t163.5 -65.5q112 0 190 65.5t98 179.5h-183l15 82h273l-71 -399h-84
l19 109q-49 -58 -122 -88.5t-149 -30.5q-102 0 -169 40z" />
    <glyph glyph-name="H" unicode="H" horiz-adv-x="725" 
d="M122 0h-92l135 763h92l-60 -338h382l60 338h92l-135 -763h-92l61 343h-382z" />
    <glyph glyph-name="I" unicode="I" horiz-adv-x="251" 
d="M122 0h-92l135 763h92z" />
    <glyph glyph-name="J" unicode="J" horiz-adv-x="383" 
d="M-33 0l15 83h96q52 0 81.5 24.5t39.5 77.5l102 578h92l-102 -579q-16 -93 -66.5 -138.5t-161.5 -45.5h-96z" />
    <glyph glyph-name="K" unicode="K" horiz-adv-x="632" 
d="M122 0h-92l135 763h92l-62 -346l379 346h125l-411 -372l281 -391h-115l-265 375z" />
    <glyph glyph-name="L" unicode="L" horiz-adv-x="528" 
d="M464 0h-434l135 763h92l-120 -680h342z" />
    <glyph glyph-name="M" unicode="M" horiz-adv-x="899" 
d="M122 0h-92l135 763h160l90 -649l320 649h171l-135 -763h-92l125 708l-358 -708h-91l-109 703z" />
    <glyph glyph-name="N" unicode="N" horiz-adv-x="727" 
d="M122 0h-92l135 763h134l224 -671l119 671h91l-135 -763h-134l-224 669z" />
    <glyph glyph-name="O" unicode="O" horiz-adv-x="811" 
d="M189 29q-66 39 -97.5 106.5t-31.5 153.5q0 131 55 242t154 176.5t223 65.5q147 0 221 -83t74 -217q0 -131 -55.5 -241.5t-154.5 -176t-224 -65.5q-98 0 -164 39zM539 126.5q74 53.5 114.5 142.5t40.5 192q0 105 -55.5 167t-161.5 62q-96 0 -170 -53.5t-114 -143
t-40 -191.5q0 -105 55.5 -167t159.5 -62q97 0 171 53.5z" />
    <glyph glyph-name="P" unicode="P" horiz-adv-x="640" 
d="M30 0l135 763h284q98 0 153 -42.5t55 -124.5q0 -80 -36.5 -142.5t-101.5 -97t-148 -34.5h-192l-57 -322h-92zM363 404q88 0 144.5 45.5t56.5 121.5q0 52 -37 80.5t-105 28.5h-180l-49 -276h170z" />
    <glyph glyph-name="Q" unicode="Q" horiz-adv-x="812" 
d="M737 243q-50 -106 -138 -172l73 -158h-101l-55 110q-77 -33 -163 -33q-98 0 -164 39t-97.5 106.5t-31.5 153.5q0 131 55 242t154 176.5t223 65.5q147 0 221 -83t74 -217q0 -124 -50 -230zM208.5 135q55.5 -62 159.5 -62q97 0 171 53.5t114.5 142.5t40.5 192
q0 105 -55.5 167t-161.5 62q-96 0 -170 -53.5t-114 -143t-40 -191.5q0 -105 55.5 -167z" />
    <glyph glyph-name="R" unicode="R" horiz-adv-x="660" 
d="M609 435q-48 -68 -130 -96l87 -339h-93l-81 323q-7 -1 -21 -1h-192l-57 -322h-92l135 763h284q98 0 153 -42.5t55 -124.5q0 -93 -48 -161zM363 404q88 0 144.5 45.5t56.5 121.5q0 52 -37 80.5t-105 28.5h-180l-49 -276h170z" />
    <glyph glyph-name="S" unicode="S" horiz-adv-x="673" 
d="M108.5 49.5q-74.5 59.5 -74.5 181.5h93q3 -84 58.5 -121.5t137.5 -37.5q89 0 143 42.5t54 118.5q0 41 -25 65.5t-62.5 37t-98.5 25.5q-69 15 -112 30t-72.5 46.5t-29.5 85.5q0 74 38.5 131t105 88t147.5 31q105 0 171.5 -54.5t66.5 -165.5h-89q-3 73 -49 105.5t-116 32.5
q-80 0 -130 -38t-50 -103q0 -35 23 -56.5t57 -33t93 -24.5q73 -16 118.5 -32.5t77 -51.5t31.5 -95q0 -81 -40 -141.5t-110.5 -93t-160.5 -32.5q-121 0 -195.5 59.5z" />
    <glyph glyph-name="T" unicode="T" horiz-adv-x="637" 
d="M315 0h-92l120 680h-258l15 83h609l-15 -83h-259z" />
    <glyph glyph-name="U" unicode="U" horiz-adv-x="711" 
d="M123 43q-60 53 -60 151q0 26 7 70l88 499h92l-88 -499q-5 -30 -5 -52q0 -68 40 -104t122 -36q97 0 153 50t72 142l88 499h92l-88 -499q-23 -130 -107 -202t-225 -72q-121 0 -181 53z" />
    <glyph glyph-name="V" unicode="V" horiz-adv-x="694" 
d="M350 0h-104l-146 763h91l122 -669l358 669h95z" />
    <glyph glyph-name="W" unicode="W" horiz-adv-x="1074" 
d="M301 0h-104l-91 763h89l78 -631l299 631h88l77 -632l300 632h103l-361 -763h-104l-79 613z" />
    <glyph glyph-name="X" unicode="X" horiz-adv-x="684" 
d="M83 0h-116l332 384l-193 379h103l156 -315l268 315h117l-327 -379l196 -384h-102l-161 314z" />
    <glyph glyph-name="Y" unicode="Y" horiz-adv-x="674" 
d="M337 0h-96l52 292l-203 471h100l158 -380l295 380h112l-366 -471z" />
    <glyph glyph-name="Z" unicode="Z" horiz-adv-x="634" 
d="M552 0h-572l12 67l557 613h-425l15 83h549l-12 -69l-553 -611h444z" />
    <glyph glyph-name="bracketleft" unicode="[" horiz-adv-x="342" 
d="M248 -110h-219l173 982h219l-13 -73h-134l-147 -836h134z" />
    <glyph glyph-name="backslash" unicode="\" horiz-adv-x="454" 
d="M389 -111h-69l-202 874h69z" />
    <glyph glyph-name="bracketright" unicode="]" horiz-adv-x="342" 
d="M177 -110h-219l13 73h134l147 836h-134l13 73h219z" />
    <glyph glyph-name="asciicircum" unicode="^" horiz-adv-x="538" 
d="M134 296h-80l258 467h85l93 -467h-69l-74 390z" />
    <glyph glyph-name="underscore" unicode="_" horiz-adv-x="411" 
d="M365 -64h-439l11 64h439z" />
    <glyph glyph-name="grave" unicode="`" horiz-adv-x="249" 
d="M294 611h-78l-116 152h104z" />
    <glyph glyph-name="a" unicode="a" horiz-adv-x="576" 
d="M63 23q-41 33 -41 92q0 82 57.5 131t155.5 67l204 38q4 17 4 36q0 38 -20 63q-32 38 -96 38q-51 0 -93.5 -27.5t-60.5 -73.5h-85q29 83 100 129.5t154 46.5q49 0 88 -14.5t63 -42.5q34 -39 34 -108q0 -32 -7 -72l-58 -326h-85l16 87q-39 -44 -79 -65q-57 -32 -137 -32
q-73 0 -114 33zM292 84q62 29 92.5 77t43.5 121l-186 -36q-63 -12 -97.5 -38.5t-34.5 -73.5q0 -32 24 -50.5t67 -18.5q52 0 91 19z" />
    <glyph glyph-name="b" unicode="b" horiz-adv-x="634" 
d="M192.5 11.5q-36.5 21.5 -69.5 74.5l-15 -86h-85l135 763h85l-52 -296q51 54 96 75t102 21q94 0 147.5 -59t53.5 -158q0 -93 -38.5 -175t-107.5 -131.5t-157 -49.5q-58 0 -94.5 21.5zM402 103q48 38 75 99.5t27 126.5q0 72 -36 115.5t-101 43.5q-62 0 -112 -38t-78 -98.5
t-28 -125.5q0 -72 39.5 -116.5t104.5 -44.5q61 0 109 38z" />
    <glyph glyph-name="c" unicode="c" horiz-adv-x="602" 
d="M147 18.5q-50 28.5 -77 80t-27 118.5q0 92 43 171.5t117.5 127t163.5 47.5q92 0 148 -47.5t61 -128.5h-91q-7 46 -43 73.5t-89 27.5q-62 0 -113.5 -36.5t-81 -95.5t-29.5 -125q0 -75 41 -120.5t109 -45.5q57 0 104 31t70 82h91q-33 -88 -109 -138t-170 -50
q-68 0 -118 28.5z" />
    <glyph glyph-name="d" unicode="d" horiz-adv-x="634" 
d="M97.5 48.5q-53.5 58.5 -53.5 157.5q0 93 38.5 175.5t107.5 132t157 49.5q57 0 94.5 -21t69.5 -75l52 296h85l-135 -763h-85l15 86q-50 -53 -95 -74.5t-103 -21.5q-94 0 -147.5 58.5zM377.5 102q50.5 37 79 97.5t28.5 126.5q0 73 -39 117.5t-105 44.5q-61 0 -109 -38.5
t-75 -99.5t-27 -127q0 -71 36 -114.5t101 -43.5q60 0 110.5 37z" />
    <glyph glyph-name="e" unicode="e" horiz-adv-x="629" 
d="M147.5 18.5q-50.5 28.5 -77.5 79.5t-27 117q0 91 43 171t117 128.5t163 48.5q63 0 113.5 -25t80.5 -73t30 -116q-1 -32 -11 -89h-450q-1 -8 -1 -25q0 -47 18.5 -85.5t53 -61.5t79.5 -23q60 0 108.5 32t76.5 81h91q-43 -84 -117 -136t-172 -52q-68 0 -118.5 28.5zM501 335
q1 7 1 23q0 59 -42 94.5t-106 35.5q-55 0 -101 -25.5t-77 -73.5q-15 -24 -26 -54h351z" />
    <glyph glyph-name="f" unicode="f" horiz-adv-x="353" 
d="M69 0l85 478h-92l13 75h92l10 60q14 74 56.5 112t113.5 38h71l-13 -75h-52q-40 0 -62.5 -21t-30.5 -65l-8 -49h129l-13 -75h-129l-85 -478h-85z" />
    <glyph glyph-name="g" unicode="g" horiz-adv-x="635" 
d="M71.5 -179q-60.5 41 -60.5 134h87q9 -100 142 -100q165 0 191 148l14 83q-51 -54 -96 -75t-102 -21q-94 0 -147.5 58.5t-53.5 156.5q0 93 38.5 175.5t107.5 132.5t156 50q58 0 95 -21.5t70 -74.5l15 86h85l-94 -534q-23 -128 -99 -183.5t-193 -55.5q-95 0 -155.5 41z
M380.5 103q49.5 38 78 98.5t28.5 124.5q0 73 -39 117.5t-105 44.5q-61 0 -109 -38t-75 -99.5t-27 -126.5q0 -72 36 -115.5t101 -43.5q62 0 111.5 38z" />
    <glyph glyph-name="h" unicode="h" horiz-adv-x="577" 
d="M23 0l135 763h85l-52 -296q50 52 92 74t89 22q77 0 116.5 -38.5t39.5 -112.5q0 -37 -8 -79l-59 -333h-85l59 333q6 33 6 59q0 50 -23 73t-73 23q-87 0 -130.5 -65.5t-64.5 -186.5l-42 -236h-85z" />
    <glyph glyph-name="i" unicode="i" horiz-adv-x="227" 
d="M107 0h-85l98 553h85zM140.5 662.5q-15.5 14.5 -15.5 36.5q0 29 23.5 51.5t53.5 22.5q24 0 39.5 -15t15.5 -37q0 -29 -23.5 -51t-53.5 -22q-24 0 -39.5 14.5z" />
    <glyph glyph-name="j" unicode="j" horiz-adv-x="228" 
d="M-144 -210l14 78h52q38 0 61.5 18t31.5 66l106 601h85l-108 -612q-13 -75 -56 -113t-114 -38h-72zM140.5 662.5q-15.5 14.5 -15.5 36.5q0 29 23.5 51.5t53.5 22.5q24 0 39.5 -15t15.5 -37q0 -29 -23.5 -51t-53.5 -22q-24 0 -39.5 14.5z" />
    <glyph glyph-name="k" unicode="k" horiz-adv-x="554" 
d="M108 0h-85l135 763h85l-76 -431l282 221h128l-324 -253l233 -300h-108l-219 289z" />
    <glyph glyph-name="l" unicode="l" horiz-adv-x="277" 
d="M151 0q-55 0 -83 20t-28 71q0 18 5 48l110 624h85l-108 -611q-4 -19 -4 -37q0 -21 12 -30.5t44 -9.5h27l-13 -75h-47z" />
    <glyph glyph-name="m" unicode="m" horiz-adv-x="899" 
d="M22 0l98 553h85l-15 -86q50 53 92 74.5t89 21.5q56 0 93.5 -26t40.5 -76q71 102 194 102q77 0 115 -37.5t38 -107.5q0 -32 -5 -58l-64 -360h-85l60 340q4 23 4 46q0 50 -23 76t-67 26q-78 0 -121 -64t-62 -174l-44 -250h-85l60 340q4 21 4 43q0 50 -24 77.5t-67 27.5
q-75 0 -119 -65t-63 -173l-44 -250h-85z" />
    <glyph glyph-name="n" unicode="n" horiz-adv-x="576" 
d="M22 0l98 553h85l-15 -86q50 53 92 74.5t89 21.5q77 0 116.5 -38.5t39.5 -112.5q0 -37 -8 -79l-59 -333h-85l59 333q6 33 6 59q0 50 -23 73t-73 23q-87 0 -130.5 -65.5t-64.5 -186.5l-42 -236h-85z" />
    <glyph glyph-name="o" unicode="o" horiz-adv-x="639" 
d="M148.5 18.5q-50.5 28.5 -78 80t-27.5 119.5q0 92 43.5 171t118.5 126.5t164 47.5q68 0 119.5 -28.5t79 -79.5t27.5 -117q0 -91 -43.5 -171.5t-119 -128.5t-165.5 -48q-68 0 -118.5 28.5zM395 101.5q52 36.5 82.5 96.5t30.5 125q0 73 -42 119t-111 46q-62 0 -114 -36
t-82 -95t-30 -125q0 -75 42 -121t110 -46q62 0 114 36.5z" />
    <glyph glyph-name="p" unicode="p" horiz-adv-x="633" 
d="M-15 -210l135 763h85l-15 -86q50 53 95 74.5t103 21.5q94 0 147.5 -58.5t53.5 -157.5q0 -93 -38.5 -175.5t-107.5 -132t-157 -49.5q-57 0 -94.5 21t-69.5 75l-52 -296h-85zM401 103.5q48 38.5 75 99.5t27 127q0 71 -36 114.5t-101 43.5q-60 0 -110.5 -37t-79 -97.5
t-28.5 -126.5q0 -73 39 -117.5t105 -44.5q61 0 109 38.5z" />
    <glyph glyph-name="q" unicode="q" horiz-adv-x="634" 
d="M533 -210q-64 0 -93.5 21.5t-29.5 69.5q0 12 4 40l29 165q-51 -54 -96 -75t-102 -21q-94 0 -147.5 59t-53.5 158q0 93 38.5 175t107.5 131.5t157 49.5q58 0 94.5 -21.5t69.5 -74.5l15 86h85l-113 -639q-1 -5 -1 -12q0 -18 12 -26t38 -8h49l-14 -78h-49zM378.5 103
q49.5 38 78 98.5t28.5 124.5q0 73 -39 117.5t-105 44.5q-61 0 -109 -38t-75 -99.5t-27 -126.5q0 -72 36 -115.5t101 -43.5q62 0 111.5 38z" />
    <glyph glyph-name="r" unicode="r" horiz-adv-x="363" 
d="M22 0l98 553h85l-14 -76q46 46 93 66t104 20h4l-15 -85h-29q-67 0 -115 -40q-57 -48 -74 -147l-52 -291h-85z" />
    <glyph glyph-name="s" unicode="s" horiz-adv-x="557" 
d="M82.5 40q-56.5 50 -56.5 138h89q2 -53 37 -83t106 -30q62 0 102.5 26t40.5 73q0 38 -35.5 56t-103.5 31q-56 11 -91.5 23t-60 37t-24.5 67q0 55 31.5 97t84.5 65t116 23q90 0 141 -46.5t51 -129.5h-79q-3 51 -36.5 76t-90.5 25q-59 0 -94.5 -24t-35.5 -65
q0 -33 32.5 -47.5t97.5 -27.5q57 -10 95 -23t64 -39.5t26 -71.5q0 -61 -32.5 -106.5t-88.5 -69.5t-125 -24q-104 0 -160.5 50z" />
    <glyph glyph-name="t" unicode="t" horiz-adv-x="361" 
d="M198 0q-55 0 -83 20t-28 71q0 18 5 48l60 339h-89l13 75h89l37 210h85l-37 -210h124l-13 -75h-124l-57 -322q-5 -23 -5 -38q0 -22 12.5 -32.5t43.5 -10.5h57l-13 -75h-77z" />
    <glyph glyph-name="u" unicode="u" horiz-adv-x="578" 
d="M60 77q-9 26 -9 62q0 31 8 81l59 333h85l-59 -333q-6 -34 -6 -60q0 -41 16 -64q22 -31 80 -31q62 0 108 41q32 29 52 77.5t35 133.5l42 236h85l-98 -553h-85l15 86q-49 -51 -91 -73.5t-90 -22.5q-117 0 -147 87z" />
    <glyph glyph-name="v" unicode="v" horiz-adv-x="519" 
d="M245 0h-70l-106 553h88l73 -409l219 409h99z" />
    <glyph glyph-name="w" unicode="w" horiz-adv-x="820" 
d="M217 0h-79l-64 553h88l43 -415l212 415h77l66 -415l190 415h94l-262 -553h-79l-65 433z" />
    <glyph glyph-name="x" unicode="x" horiz-adv-x="550" 
d="M77 0h-106l248 277l-150 276h96l114 -217l193 217h107l-251 -276l153 -277h-97l-115 217z" />
    <glyph glyph-name="y" unicode="y" horiz-adv-x="549" 
d="M-15 -210l14 78h52q25 0 39 3.5t26 15.5t26 39l45 82l-120 545h89l92 -429l232 429h97l-362 -664q-32 -59 -64 -79t-84 -20h-82z" />
    <glyph glyph-name="z" unicode="z" horiz-adv-x="533" 
d="M445 0h-460l13 72l432 406h-341l13 75h444l-14 -80l-424 -398h350z" />
    <glyph glyph-name="braceleft" unicode="{" horiz-adv-x="317" 
d="M154 -110q-49 0 -74 26.5t-25 75.5q0 22 4 42l39 217q2 16 2 21q0 29 -14.5 45t-40.5 24l14 80q35 10 56 30.5t28 59.5l39 217q11 68 48.5 106t96.5 38h69l-12 -70h-38q-64 0 -78 -77l-38 -216q-10 -52 -34 -83t-63 -45q55 -23 55 -91q0 -16 -3 -37l-38 -216
q-3 -13 -3 -26q0 -51 53 -51h38l-12 -70h-69z" />
    <glyph glyph-name="bar" unicode="|" horiz-adv-x="329" 
d="M139 -110h-85l173 982h85z" />
    <glyph glyph-name="braceright" unicode="}" horiz-adv-x="317" 
d="M-42 -110l12 70h38q64 0 78 77l38 216q17 99 96 128q-55 23 -55 89q0 20 4 39l38 216q3 14 3 26q0 51 -53 51h-38l12 70h69q49 0 74 -27t25 -76q0 -11 -4 -41l-39 -217q-2 -16 -2 -23q0 -27 14 -43t40 -24l-14 -80q-34 -10 -55.5 -30.5t-27.5 -59.5l-39 -217
q-12 -68 -49.5 -106t-95.5 -38h-69z" />
    <glyph glyph-name="asciitilde" unicode="~" horiz-adv-x="527" 
d="M243 226q-18 13 -36 38q-11 16 -20 23.5t-21 7.5q-19 0 -33 -20t-22 -58h-67q15 71 52 111t87 40q30 0 47 -13t35 -37q13 -17 21.5 -24.5t21.5 -7.5q16 0 29 19.5t22 57.5h69q-18 -76 -50 -113t-84 -37q-33 0 -51 13z" />
    <glyph glyph-name="uni00A0" unicode="&#xa0;" horiz-adv-x="240" 
 />
    <glyph glyph-name="exclamdown" unicode="&#xa1;" horiz-adv-x="331" 
d="M166 459q-14 14 -14 34q0 27 21.5 48.5t48.5 21.5q22 0 36 -14t14 -35q0 -28 -21.5 -48.5t-49.5 -20.5q-21 0 -35 14zM92 68q12 73 38 196q10 40 15 71h73l-4 -27q-19 -134 -37 -240l-49 -278h-85z" />
    <glyph glyph-name="cent" unicode="&#xa2;" horiz-adv-x="602" 
d="M293 66q53 4 96 34t64 78h91q-32 -84 -103 -133.5t-161 -54.5l-16 -90h-42l16 91q-90 9 -142.5 70t-52.5 156q0 87 38.5 163.5t106.5 125t150 56.5l19 105h42l-18 -104q87 -4 138.5 -51t56.5 -125h-91q-7 43 -38.5 70t-79.5 30zM162 120q33 -44 89 -53l74 419
q-55 -8 -100 -45.5t-70.5 -93t-25.5 -116.5q0 -67 33 -111z" />
    <glyph glyph-name="sterling" unicode="&#xa3;" horiz-adv-x="623" 
d="M25 96q80 10 128.5 52t48.5 110q0 49 -27 126h-94l10 56h83q-10 31 -10 66q0 73 37 134.5t100 97t137 35.5q81 0 134.5 -48.5t53.5 -143.5h-83q0 57 -34.5 87t-82.5 30q-54 0 -95 -28.5t-63.5 -78t-22.5 -110.5q0 -19 5 -41h221l-10 -56h-205q24 -73 24 -123
q0 -61 -31.5 -104t-97.5 -82h378l-13 -75h-508z" />
    <glyph glyph-name="currency" unicode="&#xa4;" horiz-adv-x="731" 
d="M112 72l-44 49l83 71q-29 50 -29 108q0 51 21.5 101t59.5 90l-57 70l59 50l58 -70q36 25 77.5 38t82.5 13q81 0 139 -49l80 68l44 -51l-82 -70q29 -49 29 -107q0 -50 -22 -100.5t-60 -91.5l55 -68l-62 -49l-53 66q-76 -50 -158 -50q-83 0 -141 50zM416.5 175
q35.5 13 64.5 38q37 31 57.5 73.5t20.5 85.5q0 56 -34 96q-21 26 -51.5 39t-65.5 13q-36 0 -71 -13.5t-65 -39.5q-35 -29 -55 -72t-20 -88q0 -55 31 -93q21 -26 52 -39t66 -13t70.5 13z" />
    <glyph glyph-name="yen" unicode="&#xa5;" horiz-adv-x="674" 
d="M650 763h105l-339 -436h143l-10 -58h-164l-10 -56h164l-10 -58h-164l-28 -155h-96l28 155h-166l10 58h166l10 56h-166l10 58h145l-188 436h107l158 -380z" />
    <glyph glyph-name="brokenbar" unicode="&#xa6;" horiz-adv-x="329" 
d="M237 447h-85l75 425h85zM139 -110h-85l74 421h85z" />
    <glyph glyph-name="section" unicode="&#xa7;" horiz-adv-x="698" 
d="M84 -184q-74 53 -75 157h94q9 -65 58 -99t121 -34q85 0 139 41t54 111q0 38 -23.5 61.5t-58 35.5t-93.5 26l-28 7q-83 19 -130.5 51.5t-47.5 99.5q0 58 28 98t83 74q-33 23 -48 47.5t-15 55.5q0 68 40 119t107 78.5t145 27.5q98 0 156.5 -47.5t67.5 -139.5h-89
q-12 53 -52 81t-102 28q-76 0 -125.5 -35.5t-49.5 -96.5q0 -34 23 -55t57 -32t90 -23q65 -14 108 -30.5t73 -50t30 -89.5q0 -58 -25 -101.5t-74 -76.5q27 -22 39 -45.5t12 -52.5q0 -74 -40 -129.5t-108.5 -85t-153.5 -29.5q-113 0 -187 53zM523 264q0 39 -24 62.5
t-59.5 35.5t-96.5 25l-23 5q-23 5 -40 11q-41 -14 -64.5 -43t-23.5 -68q0 -34 23 -55t56 -32t89 -23q62 -12 105 -29q58 41 58 111z" />
    <glyph glyph-name="dieresis" unicode="&#xa8;" horiz-adv-x="358" 
d="M104.5 662.5q-15.5 14.5 -15.5 36.5q0 29 23.5 51.5t53.5 22.5q24 0 39.5 -15t15.5 -37q0 -29 -23.5 -51t-53.5 -22q-24 0 -39.5 14.5zM304.5 662.5q-15.5 14.5 -15.5 36.5q0 29 23.5 51.5t53.5 22.5q24 0 39.5 -15t15.5 -37q0 -29 -23.5 -51t-53.5 -22q-24 0 -39.5 14.5
z" />
    <glyph glyph-name="copyright" unicode="&#xa9;" horiz-adv-x="903" 
d="M232 33q-75 42 -117 115t-42 164q0 118 65.5 224.5t173 171t226.5 64.5q95 0 170 -42t117 -115.5t42 -164.5q0 -118 -66 -224t-173.5 -170.5t-226.5 -64.5q-94 0 -169 42zM599.5 117q87.5 53 140.5 139.5t53 181.5q0 74 -34 133.5t-95 93.5t-139 34q-97 0 -184.5 -52
t-140.5 -138.5t-53 -182.5q0 -74 34 -134t95 -94t138 -34q98 0 185.5 53zM332 180q-43 24 -67 66t-24 95q0 69 37.5 130.5t99.5 99t131 37.5q47 0 87.5 -19t66.5 -53l-62 -51q-36 50 -104 50q-47 0 -89 -24.5t-67.5 -66.5t-25.5 -91q0 -54 36 -89t92 -35q68 0 121 50l44 -51
q-38 -35 -84.5 -53.5t-93.5 -18.5q-55 0 -98 24z" />
    <glyph glyph-name="ordfeminine" unicode="&#xaa;" horiz-adv-x="437" 
d="M109.5 395.5q-28.5 23.5 -28.5 64.5q0 57 40.5 91t109.5 47l142 27q3 14 3 25q0 27 -14 44q-22 27 -67 27q-36 0 -65.5 -19.5t-42.5 -51.5h-59q20 58 69.5 90.5t107.5 32.5q35 0 62.5 -10t43.5 -30q24 -27 24 -75q0 -21 -5 -51l-41 -228h-59l11 61q-27 -30 -55 -46
q-40 -22 -96 -22q-52 0 -80.5 23.5zM270 438q43 21 64.5 54t31.5 84l-131 -25q-92 -17 -92 -78q0 -22 17 -35t47 -13q37 0 63 13z" />
    <glyph glyph-name="guillemotleft" unicode="&#xab;" horiz-adv-x="572" 
d="M218 165l-13 -75l-184 186l250 186l-14 -75l-149 -112zM484 165l-13 -75l-184 186l250 186l-14 -75l-149 -112z" />
    <glyph glyph-name="uni00AD" unicode="&#xad;" horiz-adv-x="373" 
d="M377 302h-373l12 64h373z" />
    <glyph glyph-name="registered" unicode="&#xae;" horiz-adv-x="495" 
d="M174.5 388.5q-38.5 21.5 -60 59.5t-21.5 86q0 62 34 117t90 88.5t118 33.5q50 0 88.5 -21.5t60 -59.5t21.5 -86q0 -62 -34 -117t-90 -88.5t-118 -33.5q-50 0 -88.5 21.5zM369.5 427q47.5 29 76 76t28.5 98q0 60 -41 100.5t-104 40.5q-53 0 -100 -28.5t-76 -75.5t-29 -99
q0 -61 40.5 -101t103.5 -40q54 0 101.5 29zM199 451l41 236h97q30 0 47.5 -13t17.5 -38q0 -28 -14 -50.5t-38 -27.5l26 -107h-42l-22 97h-57l-17 -97h-39zM304 582q29 0 43.5 11t14.5 32q0 13 -9.5 20.5t-26.5 7.5h-53l-12 -71h43z" />
    <glyph glyph-name="macron" unicode="&#xaf;" horiz-adv-x="324" 
d="M378 660h-296l7 43h296z" />
    <glyph glyph-name="degree" unicode="&#xb0;" horiz-adv-x="478" 
d="M177.5 498q-37.5 37 -37.5 93q0 48 27 90t70 67t89 25q57 0 94 -36.5t37 -92.5q0 -48 -26.5 -90t-69.5 -67.5t-90 -25.5q-56 0 -93.5 37zM334 542.5q25 14.5 40 39t15 51.5q0 32 -21 52.5t-54 20.5q-27 0 -51.5 -14.5t-39.5 -39t-15 -51.5q0 -31 20.5 -52t53.5 -21
q27 0 52 14.5z" />
    <glyph glyph-name="plusminus" unicode="&#xb1;" horiz-adv-x="695" 
d="M362 158h-71l29 162h-242l12 71h242l29 162h71l-29 -162h242l-12 -71h-242zM576 0h-555l13 71h555z" />
    <glyph glyph-name="acute" unicode="&#xb4;" horiz-adv-x="249" 
d="M151 611h-78l144 152h104z" />
    <glyph glyph-name="paragraph" unicode="&#xb6;" horiz-adv-x="629" 
d="M304 335q-58 3 -105.5 25.5t-75.5 62t-28 91.5q0 69 40 126.5t105.5 90t139.5 32.5h86l-154 -873h-86zM482 -110h-86l154 873h86z" />
    <glyph glyph-name="periodcentered" unicode="&#xb7;" horiz-adv-x="327" 
d="M126 340q-17 17 -17 43q0 35 26.5 61t60.5 26q28 0 45.5 -17.5t17.5 -43.5q0 -34 -27.5 -60t-61.5 -26q-27 0 -44 17z" />
    <glyph glyph-name="cedilla" unicode="&#xb8;" horiz-adv-x="243" 
d="M-71 -207l6 37q45 -18 85 -18q38 0 61 16.5t23 45.5q0 30 -34.5 41t-101.5 9l86 90h54q-3 -3 -23 -22t-56 -42l6 -9q24 3 39 3q35 0 59.5 -17t24.5 -47q0 -47 -40.5 -73.5t-99.5 -26.5q-46 0 -89 13z" />
    <glyph glyph-name="ordmasculine" unicode="&#xba;" horiz-adv-x="477" 
d="M139.5 415.5q-42.5 43.5 -42.5 116.5q0 64 30.5 119.5t82.5 88.5t115 33q73 0 116 -43.5t43 -113.5q0 -64 -30.5 -120t-83.5 -90t-116 -34q-72 0 -114.5 43.5zM343.5 450.5q36.5 25.5 58 67t21.5 87.5q0 51 -29.5 83.5t-77.5 32.5q-43 0 -79.5 -25.5t-58 -67t-21.5 -87.5
q0 -52 29.5 -84t77.5 -32q43 0 79.5 25.5z" />
    <glyph glyph-name="guillemotright" unicode="&#xbb;" horiz-adv-x="572" 
d="M285 276l-250 -186l13 75l150 110l-111 112l14 75zM551 276l-250 -186l13 75l150 110l-111 112l14 75z" />
    <glyph glyph-name="questiondown" unicode="&#xbf;" horiz-adv-x="529" 
d="M260 459q-14 14 -14 34q0 29 22 49.5t49 20.5q21 0 35 -14t14 -35q0 -27 -21.5 -48t-48.5 -21q-22 0 -36 14zM36 -177q-54 42 -54 119q0 72 30.5 117t95.5 87q35 23 57.5 41.5t40.5 48.5t25 73l5 28h80l-5 -28q-10 -58 -32 -96.5t-48 -60.5t-65 -48q-54 -35 -79.5 -67.5
t-25.5 -85.5q0 -47 33 -71.5t92 -24.5q71 0 117.5 38t63.5 105h78q-24 -101 -96.5 -159t-170.5 -58q-88 0 -142 42z" />
    <glyph glyph-name="Agrave" unicode="&#xc0;" horiz-adv-x="694" 
d="M631 0h-88l-34 187h-346l-100 -187h-98l416 763h104zM421 669l-214 -400h287zM489 821h-78l-116 152h104z" />
    <glyph glyph-name="Aacute" unicode="&#xc1;" horiz-adv-x="694" 
d="M631 0h-88l-34 187h-346l-100 -187h-98l416 763h104zM421 669l-214 -400h287zM475 821h-78l144 152h104z" />
    <glyph glyph-name="Acircumflex" unicode="&#xc2;" horiz-adv-x="694" 
d="M631 0h-88l-34 187h-346l-100 -187h-98l416 763h104zM421 669l-214 -400h287zM373 828h-98l192 170h14l132 -170h-98l-55 87z" />
    <glyph glyph-name="Atilde" unicode="&#xc3;" horiz-adv-x="694" 
d="M631 0h-88l-34 187h-346l-100 -187h-98l416 763h104zM421 669l-214 -400h287zM462 836q-18 13 -36 38q-10 15 -19 23t-21 8q-37 0 -56 -78h-67q16 71 53 111t87 40q30 0 46.5 -13t34.5 -37q13 -17 21.5 -24.5t21.5 -7.5q16 0 29.5 19t22.5 58h69q-18 -76 -50.5 -113
t-84.5 -37q-33 0 -51 13z" />
    <glyph glyph-name="Adieresis" unicode="&#xc4;" horiz-adv-x="694" 
d="M631 0h-88l-34 187h-346l-100 -187h-98l416 763h104zM421 669l-214 -400h287zM305 824.5q-14 13.5 -14 34.5q0 27 22 47t49 20q21 0 34.5 -14t13.5 -34q0 -26 -21.5 -46.5t-47.5 -20.5q-22 0 -36 13.5zM505 824.5q-14 13.5 -14 34.5q0 27 22 47t49 20q21 0 34.5 -14
t13.5 -34q0 -26 -21.5 -46.5t-47.5 -20.5q-22 0 -36 13.5z" />
    <glyph glyph-name="Aring" unicode="&#xc5;" horiz-adv-x="694" 
d="M359 723q-18 13 -27.5 33t-9.5 43q0 37 20 69.5t52.5 51.5t68.5 19q43 0 72 -27.5t29 -69.5q0 -36 -19.5 -68t-51.5 -51l138 -723h-93l-34 187h-346l-100 -187h-93zM481 784.5q20 20.5 20 49.5q0 19 -12.5 31.5t-35.5 12.5q-27 0 -47 -19.5t-20 -46.5q0 -21 13.5 -34.5
t33.5 -13.5q28 0 48 20.5zM417 671l-213 -402h284z" />
    <glyph glyph-name="AE" unicode="&#xc6;" horiz-adv-x="1072" 
d="M63 0h-98l416 763h482l16 -83h-377l49 -256h377l15 -82h-376l49 -259h377l16 -83h-470l-30 187h-346zM422 672l-213 -403h284z" />
    <glyph glyph-name="Ccedilla" unicode="&#xc7;" horiz-adv-x="748" 
d="M509.5 112.5q61.5 40.5 89.5 118.5h100q-38 -112 -130 -176.5t-218 -64.5h-15q-27 -23 -54 -40l6 -9q24 3 39 3q35 0 59.5 -17t24.5 -47q0 -47 -40.5 -73.5t-99.5 -26.5q-46 0 -89 13l6 37q45 -18 85 -18q38 0 61 16.5t23 45.5q0 30 -34.5 41t-101.5 9l67 71
q-114 17 -171 96.5t-57 195.5q0 132 54.5 243.5t152.5 177t223 65.5q83 0 143 -28t91.5 -78t31.5 -115h-100q-3 64 -52 101.5t-131 37.5q-96 0 -169 -54t-112 -144.5t-39 -194.5t54 -165t157 -61q84 0 145.5 40.5z" />
    <glyph glyph-name="Egrave" unicode="&#xc8;" horiz-adv-x="616" 
d="M523 0h-493l135 763h493l-15 -83h-401l-45 -256h354l-14 -82h-354l-46 -259h401zM468 821h-78l-116 152h104z" />
    <glyph glyph-name="Eacute" unicode="&#xc9;" horiz-adv-x="616" 
d="M523 0h-493l135 763h493l-15 -83h-401l-45 -256h354l-14 -82h-354l-46 -259h401zM454 821h-78l144 152h104z" />
    <glyph glyph-name="Ecircumflex" unicode="&#xca;" horiz-adv-x="616" 
d="M523 0h-493l135 763h493l-15 -83h-401l-45 -256h354l-14 -82h-354l-46 -259h401zM352 828h-98l192 170h14l132 -170h-98l-55 87z" />
    <glyph glyph-name="Edieresis" unicode="&#xcb;" horiz-adv-x="616" 
d="M523 0h-493l135 763h493l-15 -83h-401l-45 -256h354l-14 -82h-354l-46 -259h401zM284 824.5q-14 13.5 -14 34.5q0 27 22 47t49 20q21 0 34.5 -14t13.5 -34q0 -26 -21.5 -46.5t-47.5 -20.5q-22 0 -36 13.5zM484 824.5q-14 13.5 -14 34.5q0 27 22 47t49 20q21 0 34.5 -14
t13.5 -34q0 -26 -21.5 -46.5t-47.5 -20.5q-22 0 -36 13.5z" />
    <glyph glyph-name="Igrave" unicode="&#xcc;" horiz-adv-x="251" 
d="M122 0h-92l135 763h92zM267 821h-78l-116 152h104z" />
    <glyph glyph-name="Iacute" unicode="&#xcd;" horiz-adv-x="251" 
d="M122 0h-92l135 763h92zM253 821h-78l144 152h104z" />
    <glyph glyph-name="Icircumflex" unicode="&#xce;" horiz-adv-x="251" 
d="M122 0h-92l135 763h92zM151 828h-98l192 170h14l132 -170h-98l-55 87z" />
    <glyph glyph-name="Idieresis" unicode="&#xcf;" horiz-adv-x="251" 
d="M122 0h-92l135 763h92zM83 824.5q-14 13.5 -14 34.5q0 27 22 47t49 20q21 0 34.5 -14t13.5 -34q0 -26 -21.5 -46.5t-47.5 -20.5q-22 0 -36 13.5zM283 824.5q-14 13.5 -14 34.5q0 27 22 47t49 20q21 0 34.5 -14t13.5 -34q0 -26 -21.5 -46.5t-47.5 -20.5q-22 0 -36 13.5z
" />
    <glyph glyph-name="Eth" unicode="&#xd0;" horiz-adv-x="732" 
d="M375 763q163 0 248 -74t85 -214q0 -142 -57.5 -249.5t-163.5 -166.5t-248 -59h-209l61 346h-71l12 71h72l61 346h210zM253 83q177 0 269.5 100.5t92.5 278.5q0 218 -256 218h-117l-46 -263h245l-12 -71h-246l-46 -263h116z" />
    <glyph glyph-name="Ntilde" unicode="&#xd1;" horiz-adv-x="727" 
d="M122 0h-92l135 763h134l224 -671l119 671h91l-135 -763h-134l-224 669zM478 836q-18 13 -36 38q-10 15 -19 23t-21 8q-37 0 -56 -78h-67q16 71 53 111t87 40q30 0 46.5 -13t34.5 -37q13 -17 21.5 -24.5t21.5 -7.5q16 0 29.5 19t22.5 58h69q-18 -76 -50.5 -113t-84.5 -37
q-33 0 -51 13z" />
    <glyph glyph-name="Ograve" unicode="&#xd2;" horiz-adv-x="811" 
d="M189 29q-66 39 -97.5 106.5t-31.5 153.5q0 131 55 242t154 176.5t223 65.5q147 0 221 -83t74 -217q0 -131 -55.5 -241.5t-154.5 -176t-224 -65.5q-98 0 -164 39zM539 126.5q74 53.5 114.5 142.5t40.5 192q0 105 -55.5 167t-161.5 62q-96 0 -170 -53.5t-114 -143
t-40 -191.5q0 -105 55.5 -167t159.5 -62q97 0 171 53.5zM547 821h-78l-116 152h104z" />
    <glyph glyph-name="Oacute" unicode="&#xd3;" horiz-adv-x="811" 
d="M189 29q-66 39 -97.5 106.5t-31.5 153.5q0 131 55 242t154 176.5t223 65.5q147 0 221 -83t74 -217q0 -131 -55.5 -241.5t-154.5 -176t-224 -65.5q-98 0 -164 39zM539 126.5q74 53.5 114.5 142.5t40.5 192q0 105 -55.5 167t-161.5 62q-96 0 -170 -53.5t-114 -143
t-40 -191.5q0 -105 55.5 -167t159.5 -62q97 0 171 53.5zM533 821h-78l144 152h104z" />
    <glyph glyph-name="Ocircumflex" unicode="&#xd4;" horiz-adv-x="811" 
d="M189 29q-66 39 -97.5 106.5t-31.5 153.5q0 131 55 242t154 176.5t223 65.5q147 0 221 -83t74 -217q0 -131 -55.5 -241.5t-154.5 -176t-224 -65.5q-98 0 -164 39zM539 126.5q74 53.5 114.5 142.5t40.5 192q0 105 -55.5 167t-161.5 62q-96 0 -170 -53.5t-114 -143
t-40 -191.5q0 -105 55.5 -167t159.5 -62q97 0 171 53.5zM431 828h-98l192 170h14l132 -170h-98l-55 87z" />
    <glyph glyph-name="Otilde" unicode="&#xd5;" horiz-adv-x="811" 
d="M189 29q-66 39 -97.5 106.5t-31.5 153.5q0 131 55 242t154 176.5t223 65.5q147 0 221 -83t74 -217q0 -131 -55.5 -241.5t-154.5 -176t-224 -65.5q-98 0 -164 39zM539 126.5q74 53.5 114.5 142.5t40.5 192q0 105 -55.5 167t-161.5 62q-96 0 -170 -53.5t-114 -143
t-40 -191.5q0 -105 55.5 -167t159.5 -62q97 0 171 53.5zM520 836q-18 13 -36 38q-10 15 -19 23t-21 8q-37 0 -56 -78h-67q16 71 53 111t87 40q30 0 46.5 -13t34.5 -37q13 -17 21.5 -24.5t21.5 -7.5q16 0 29.5 19t22.5 58h69q-18 -76 -50.5 -113t-84.5 -37q-33 0 -51 13z" />
    <glyph glyph-name="Odieresis" unicode="&#xd6;" horiz-adv-x="811" 
d="M189 29q-66 39 -97.5 106.5t-31.5 153.5q0 131 55 242t154 176.5t223 65.5q147 0 221 -83t74 -217q0 -131 -55.5 -241.5t-154.5 -176t-224 -65.5q-98 0 -164 39zM539 126.5q74 53.5 114.5 142.5t40.5 192q0 105 -55.5 167t-161.5 62q-96 0 -170 -53.5t-114 -143
t-40 -191.5q0 -105 55.5 -167t159.5 -62q97 0 171 53.5zM363 824.5q-14 13.5 -14 34.5q0 27 22 47t49 20q21 0 34.5 -14t13.5 -34q0 -26 -21.5 -46.5t-47.5 -20.5q-22 0 -36 13.5zM563 824.5q-14 13.5 -14 34.5q0 27 22 47t49 20q21 0 34.5 -14t13.5 -34q0 -26 -21.5 -46.5
t-47.5 -20.5q-22 0 -36 13.5z" />
    <glyph glyph-name="multiply" unicode="&#xd7;" horiz-adv-x="567" 
d="M286 287l-202 -171l-41 50l201 172l-141 171l59 50l142 -171l201 171l41 -50l-201 -171l141 -172l-59 -50z" />
    <glyph glyph-name="Oslash" unicode="&#xd8;" horiz-adv-x="811" 
d="M832 690l-76 -64q31 -66 31 -153q0 -131 -55.5 -241.5t-154.5 -176t-224 -65.5q-79 0 -137 25.5t-94 71.5l-70 -59l-37 45l76 64q-31 66 -31 152q0 131 55 242t154 176.5t223 65.5q155 0 233 -97l70 60zM168 203l483 410q-57 77 -174 77q-96 0 -170 -53.5t-114 -143
t-40 -191.5q0 -55 15 -99zM679 560l-483 -410q57 -77 172 -77q97 0 171 53.5t114.5 142.5t40.5 192q0 56 -15 99z" />
    <glyph glyph-name="Ugrave" unicode="&#xd9;" horiz-adv-x="711" 
d="M123 43q-60 53 -60 151q0 26 7 70l88 499h92l-88 -499q-5 -30 -5 -52q0 -68 40 -104t122 -36q97 0 153 50t72 142l88 499h92l-88 -499q-23 -130 -107 -202t-225 -72q-121 0 -181 53zM497 821h-78l-116 152h104z" />
    <glyph glyph-name="Uacute" unicode="&#xda;" horiz-adv-x="711" 
d="M123 43q-60 53 -60 151q0 26 7 70l88 499h92l-88 -499q-5 -30 -5 -52q0 -68 40 -104t122 -36q97 0 153 50t72 142l88 499h92l-88 -499q-23 -130 -107 -202t-225 -72q-121 0 -181 53zM483 821h-78l144 152h104z" />
    <glyph glyph-name="Ucircumflex" unicode="&#xdb;" horiz-adv-x="711" 
d="M123 43q-60 53 -60 151q0 26 7 70l88 499h92l-88 -499q-5 -30 -5 -52q0 -68 40 -104t122 -36q97 0 153 50t72 142l88 499h92l-88 -499q-23 -130 -107 -202t-225 -72q-121 0 -181 53zM381 828h-98l192 170h14l132 -170h-98l-55 87z" />
    <glyph glyph-name="Udieresis" unicode="&#xdc;" horiz-adv-x="711" 
d="M123 43q-60 53 -60 151q0 26 7 70l88 499h92l-88 -499q-5 -30 -5 -52q0 -68 40 -104t122 -36q97 0 153 50t72 142l88 499h92l-88 -499q-23 -130 -107 -202t-225 -72q-121 0 -181 53zM313 824.5q-14 13.5 -14 34.5q0 27 22 47t49 20q21 0 34.5 -14t13.5 -34
q0 -26 -21.5 -46.5t-47.5 -20.5q-22 0 -36 13.5zM513 824.5q-14 13.5 -14 34.5q0 27 22 47t49 20q21 0 34.5 -14t13.5 -34q0 -26 -21.5 -46.5t-47.5 -20.5q-22 0 -36 13.5z" />
    <glyph glyph-name="Yacute" unicode="&#xdd;" horiz-adv-x="674" 
d="M337 0h-96l52 292l-203 471h100l158 -380l295 380h112l-366 -471zM465 821h-78l144 152h104z" />
    <glyph glyph-name="Thorn" unicode="&#xde;" horiz-adv-x="641" 
d="M30 0l135 763h91l-19 -108h192q99 0 154 -42.5t55 -124.5q0 -79 -36.5 -139.5t-101.5 -94t-148 -33.5h-192l-39 -221h-91zM356 302q86 0 137.5 44t51.5 119q0 52 -36.5 79.5t-104.5 27.5h-182l-48 -270h182z" />
    <glyph glyph-name="germandbls" unicode="&#xdf;" horiz-adv-x="674" 
d="M118 493q23 134 105 207t213 73q66 0 115.5 -20t77 -56.5t27.5 -84.5q0 -69 -37.5 -123t-103.5 -76q116 -27 116 -143q0 -83 -38.5 -144t-107.5 -93.5t-157 -32.5h-81l13 75h72q97 0 155 47t58 130q0 54 -36 83t-104 29h-94l14 75h78q72 0 118 43t46 109q0 49 -39 78
t-106 29q-84 0 -142 -50.5t-77 -154.5l-87 -493h-85z" />
    <glyph glyph-name="agrave" unicode="&#xe0;" horiz-adv-x="576" 
d="M63 23q-41 33 -41 92q0 82 57.5 131t155.5 67l204 38q4 17 4 36q0 38 -20 63q-32 38 -96 38q-51 0 -93.5 -27.5t-60.5 -73.5h-85q29 83 100 129.5t154 46.5q49 0 88 -14.5t63 -42.5q34 -39 34 -108q0 -32 -7 -72l-58 -326h-85l16 87q-39 -44 -79 -65q-57 -32 -137 -32
q-73 0 -114 33zM292 84q62 29 92.5 77t43.5 121l-186 -36q-63 -12 -97.5 -38.5t-34.5 -73.5q0 -32 24 -50.5t67 -18.5q52 0 91 19zM400 611h-78l-116 152h104z" />
    <glyph glyph-name="aacute" unicode="&#xe1;" horiz-adv-x="576" 
d="M63 23q-41 33 -41 92q0 82 57.5 131t155.5 67l204 38q4 17 4 36q0 38 -20 63q-32 38 -96 38q-51 0 -93.5 -27.5t-60.5 -73.5h-85q29 83 100 129.5t154 46.5q49 0 88 -14.5t63 -42.5q34 -39 34 -108q0 -32 -7 -72l-58 -326h-85l16 87q-39 -44 -79 -65q-57 -32 -137 -32
q-73 0 -114 33zM292 84q62 29 92.5 77t43.5 121l-186 -36q-63 -12 -97.5 -38.5t-34.5 -73.5q0 -32 24 -50.5t67 -18.5q52 0 91 19zM386 611h-78l144 152h104z" />
    <glyph glyph-name="acircumflex" unicode="&#xe2;" horiz-adv-x="576" 
d="M63 23q-41 33 -41 92q0 82 57.5 131t155.5 67l204 38q4 17 4 36q0 38 -20 63q-32 38 -96 38q-51 0 -93.5 -27.5t-60.5 -73.5h-85q29 83 100 129.5t154 46.5q49 0 88 -14.5t63 -42.5q34 -39 34 -108q0 -32 -7 -72l-58 -326h-85l16 87q-39 -44 -79 -65q-57 -32 -137 -32
q-73 0 -114 33zM292 84q62 29 92.5 77t43.5 121l-186 -36q-63 -12 -97.5 -38.5t-34.5 -73.5q0 -32 24 -50.5t67 -18.5q52 0 91 19zM284 618h-98l192 170h14l132 -170h-98l-55 87z" />
    <glyph glyph-name="atilde" unicode="&#xe3;" horiz-adv-x="576" 
d="M63 23q-41 33 -41 92q0 82 57.5 131t155.5 67l204 38q4 17 4 36q0 38 -20 63q-32 38 -96 38q-51 0 -93.5 -27.5t-60.5 -73.5h-85q29 83 100 129.5t154 46.5q49 0 88 -14.5t63 -42.5q34 -39 34 -108q0 -32 -7 -72l-58 -326h-85l16 87q-39 -44 -79 -65q-57 -32 -137 -32
q-73 0 -114 33zM292 84q62 29 92.5 77t43.5 121l-186 -36q-63 -12 -97.5 -38.5t-34.5 -73.5q0 -32 24 -50.5t67 -18.5q52 0 91 19zM373 626q-18 13 -36 38q-10 15 -19 23t-21 8q-37 0 -56 -78h-67q16 71 53 111t87 40q30 0 46.5 -13t34.5 -37q13 -17 21.5 -24.5t21.5 -7.5
q16 0 29.5 19t22.5 58h69q-18 -76 -50.5 -113t-84.5 -37q-33 0 -51 13z" />
    <glyph glyph-name="adieresis" unicode="&#xe4;" horiz-adv-x="576" 
d="M63 23q-41 33 -41 92q0 82 57.5 131t155.5 67l204 38q4 17 4 36q0 38 -20 63q-32 38 -96 38q-51 0 -93.5 -27.5t-60.5 -73.5h-85q29 83 100 129.5t154 46.5q49 0 88 -14.5t63 -42.5q34 -39 34 -108q0 -32 -7 -72l-58 -326h-85l16 87q-39 -44 -79 -65q-57 -32 -137 -32
q-73 0 -114 33zM292 84q62 29 92.5 77t43.5 121l-186 -36q-63 -12 -97.5 -38.5t-34.5 -73.5q0 -32 24 -50.5t67 -18.5q52 0 91 19zM221.5 662.5q-15.5 14.5 -15.5 36.5q0 29 23.5 51.5t53.5 22.5q24 0 39.5 -15t15.5 -37q0 -29 -23.5 -51t-53.5 -22q-24 0 -39.5 14.5z
M421.5 662.5q-15.5 14.5 -15.5 36.5q0 29 23.5 51.5t53.5 22.5q24 0 39.5 -15t15.5 -37q0 -29 -23.5 -51t-53.5 -22q-24 0 -39.5 14.5z" />
    <glyph glyph-name="aring" unicode="&#xe5;" horiz-adv-x="576" 
d="M63 23q-41 33 -41 92q0 82 57.5 131t155.5 67l204 38q4 17 4 36q0 38 -20 63q-32 38 -96 38q-51 0 -93.5 -27.5t-60.5 -73.5h-85q29 83 100 129.5t154 46.5q49 0 88 -14.5t63 -42.5q34 -39 34 -108q0 -32 -7 -72l-58 -326h-85l16 87q-39 -44 -79 -65q-57 -32 -137 -32
q-73 0 -114 33zM292 84q62 29 92.5 77t43.5 121l-186 -36q-63 -12 -97.5 -38.5t-34.5 -73.5q0 -32 24 -50.5t67 -18.5q52 0 91 19zM276.5 609q-27.5 28 -27.5 70q0 37 20 69t52 51t68 19q44 0 73 -28t29 -71q0 -36 -20 -67.5t-53.5 -51t-69.5 -19.5q-44 0 -71.5 28z
M406.5 663q20.5 20 20.5 49q0 20 -13 32.5t-35 12.5q-27 0 -47 -19.5t-20 -46.5q0 -21 13.5 -34.5t33.5 -13.5q27 0 47.5 20z" />
    <glyph glyph-name="ae" unicode="&#xe6;" horiz-adv-x="1009" 
d="M509 260q-1 -8 -1 -25q0 -47 18.5 -85.5t53 -61.5t79.5 -23q60 0 108.5 32t76.5 81h91q-43 -84 -117 -136t-172 -52q-75 0 -128.5 35t-77.5 95h-10q-49 -72 -113 -101t-140 -29q-73 0 -114 33t-41 92q0 82 57.5 131t155.5 67l204 38q4 17 4 36q0 38 -20 63q-32 38 -96 38
q-51 0 -93.5 -27.5t-60.5 -73.5h-85q29 83 100 129.5t154 46.5q49 0 88 -14.5t63 -42.5q17 -20 25 -46q45 48 103.5 75.5t124.5 27.5q63 0 113.5 -25t80.5 -73t30 -116q-1 -32 -11 -89h-450zM530 335h351q1 7 1 23q0 59 -42 94.5t-106 35.5q-55 0 -101 -25.5t-77 -73.5
q-15 -24 -26 -54zM384.5 161q30.5 48 43.5 121l-186 -36q-63 -12 -97.5 -38.5t-34.5 -73.5q0 -32 24 -50.5t67 -18.5q52 0 91 19q62 29 92.5 77z" />
    <glyph glyph-name="ccedilla" unicode="&#xe7;" horiz-adv-x="602" 
d="M383 96q47 31 70 82h91q-33 -88 -109 -138t-170 -50q-23 -21 -53 -40l6 -9q24 3 39 3q35 0 59.5 -17t24.5 -47q0 -47 -40.5 -73.5t-99.5 -26.5q-46 0 -89 13l6 37q45 -18 85 -18q38 0 61 16.5t23 45.5q0 30 -34.5 41t-101.5 9l67 70q-82 14 -128.5 74t-46.5 149
q0 92 43 171.5t117.5 127t163.5 47.5q92 0 148 -47.5t61 -128.5h-91q-7 46 -43 73.5t-89 27.5q-62 0 -113.5 -36.5t-81 -95.5t-29.5 -125q0 -75 41 -120.5t109 -45.5q57 0 104 31z" />
    <glyph glyph-name="egrave" unicode="&#xe8;" horiz-adv-x="629" 
d="M147.5 18.5q-50.5 28.5 -77.5 79.5t-27 117q0 91 43 171t117 128.5t163 48.5q63 0 113.5 -25t80.5 -73t30 -116q-1 -32 -11 -89h-450q-1 -8 -1 -25q0 -47 18.5 -85.5t53 -61.5t79.5 -23q60 0 108.5 32t76.5 81h91q-43 -84 -117 -136t-172 -52q-68 0 -118.5 28.5zM501 335
q1 7 1 23q0 59 -42 94.5t-106 35.5q-55 0 -101 -25.5t-77 -73.5q-15 -24 -26 -54h351zM419 611h-78l-116 152h104z" />
    <glyph glyph-name="eacute" unicode="&#xe9;" horiz-adv-x="629" 
d="M147.5 18.5q-50.5 28.5 -77.5 79.5t-27 117q0 91 43 171t117 128.5t163 48.5q63 0 113.5 -25t80.5 -73t30 -116q-1 -32 -11 -89h-450q-1 -8 -1 -25q0 -47 18.5 -85.5t53 -61.5t79.5 -23q60 0 108.5 32t76.5 81h91q-43 -84 -117 -136t-172 -52q-68 0 -118.5 28.5zM501 335
q1 7 1 23q0 59 -42 94.5t-106 35.5q-55 0 -101 -25.5t-77 -73.5q-15 -24 -26 -54h351zM405 611h-78l144 152h104z" />
    <glyph glyph-name="ecircumflex" unicode="&#xea;" horiz-adv-x="629" 
d="M147.5 18.5q-50.5 28.5 -77.5 79.5t-27 117q0 91 43 171t117 128.5t163 48.5q63 0 113.5 -25t80.5 -73t30 -116q-1 -32 -11 -89h-450q-1 -8 -1 -25q0 -47 18.5 -85.5t53 -61.5t79.5 -23q60 0 108.5 32t76.5 81h91q-43 -84 -117 -136t-172 -52q-68 0 -118.5 28.5zM501 335
q1 7 1 23q0 59 -42 94.5t-106 35.5q-55 0 -101 -25.5t-77 -73.5q-15 -24 -26 -54h351zM303 618h-98l192 170h14l132 -170h-98l-55 87z" />
    <glyph glyph-name="edieresis" unicode="&#xeb;" horiz-adv-x="629" 
d="M147.5 18.5q-50.5 28.5 -77.5 79.5t-27 117q0 91 43 171t117 128.5t163 48.5q63 0 113.5 -25t80.5 -73t30 -116q-1 -32 -11 -89h-450q-1 -8 -1 -25q0 -47 18.5 -85.5t53 -61.5t79.5 -23q60 0 108.5 32t76.5 81h91q-43 -84 -117 -136t-172 -52q-68 0 -118.5 28.5zM501 335
q1 7 1 23q0 59 -42 94.5t-106 35.5q-55 0 -101 -25.5t-77 -73.5q-15 -24 -26 -54h351zM240.5 662.5q-15.5 14.5 -15.5 36.5q0 29 23.5 51.5t53.5 22.5q24 0 39.5 -15t15.5 -37q0 -29 -23.5 -51t-53.5 -22q-24 0 -39.5 14.5zM440.5 662.5q-15.5 14.5 -15.5 36.5
q0 29 23.5 51.5t53.5 22.5q24 0 39.5 -15t15.5 -37q0 -29 -23.5 -51t-53.5 -22q-24 0 -39.5 14.5z" />
    <glyph glyph-name="igrave" unicode="&#xec;" horiz-adv-x="227" 
d="M107 0h-85l98 553h85zM219 611h-78l-116 152h104z" />
    <glyph glyph-name="iacute" unicode="&#xed;" horiz-adv-x="227" 
d="M107 0h-85l98 553h85zM205 611h-78l144 152h104z" />
    <glyph glyph-name="icircumflex" unicode="&#xee;" horiz-adv-x="227" 
d="M107 0h-85l98 553h85zM103 618h-98l192 170h14l132 -170h-98l-55 87z" />
    <glyph glyph-name="idieresis" unicode="&#xef;" horiz-adv-x="227" 
d="M107 0h-85l98 553h85zM40.5 662.5q-15.5 14.5 -15.5 36.5q0 29 23.5 51.5t53.5 22.5q24 0 39.5 -15t15.5 -37q0 -29 -23.5 -51t-53.5 -22q-24 0 -39.5 14.5zM240.5 662.5q-15.5 14.5 -15.5 36.5q0 29 23.5 51.5t53.5 22.5q24 0 39.5 -15t15.5 -37q0 -29 -23.5 -51
t-53.5 -22q-24 0 -39.5 14.5z" />
    <glyph glyph-name="eth" unicode="&#xf0;" horiz-adv-x="605" 
d="M118.5 16.5q-46.5 25.5 -71.5 72t-25 105.5q0 82 37.5 150t103.5 108t148 40q58 0 104 -25t76 -73q9 56 9 105q0 85 -28 133l-168 -87l-22 55l145 76q-35 21 -78 21q-52 0 -96 -25l-33 67q61 33 142 33q94 0 149 -52l83 43l22 -55l-68 -36q35 -66 35 -168
q0 -137 -41 -254t-121.5 -188t-193.5 -71q-62 0 -108.5 25.5zM345 96q48 30 76 79.5t28 104.5q0 60 -39.5 98.5t-103.5 38.5q-55 0 -100.5 -28.5t-71 -76t-25.5 -101.5q0 -63 35.5 -104t96.5 -41q56 0 104 30z" />
    <glyph glyph-name="ntilde" unicode="&#xf1;" horiz-adv-x="576" 
d="M22 0l98 553h85l-15 -86q50 53 92 74.5t89 21.5q77 0 116.5 -38.5t39.5 -112.5q0 -37 -8 -79l-59 -333h-85l59 333q6 33 6 59q0 50 -23 73t-73 23q-87 0 -130.5 -65.5t-64.5 -186.5l-42 -236h-85zM367 626q-18 13 -36 38q-10 15 -19 23t-21 8q-37 0 -56 -78h-67
q16 71 53 111t87 40q30 0 46.5 -13t34.5 -37q13 -17 21.5 -24.5t21.5 -7.5q16 0 29.5 19t22.5 58h69q-18 -76 -50.5 -113t-84.5 -37q-33 0 -51 13z" />
    <glyph glyph-name="ograve" unicode="&#xf2;" horiz-adv-x="639" 
d="M148.5 18.5q-50.5 28.5 -78 80t-27.5 119.5q0 92 43.5 171t118.5 126.5t164 47.5q68 0 119.5 -28.5t79 -79.5t27.5 -117q0 -91 -43.5 -171.5t-119 -128.5t-165.5 -48q-68 0 -118.5 28.5zM395 101.5q52 36.5 82.5 96.5t30.5 125q0 73 -42 119t-111 46q-62 0 -114 -36
t-82 -95t-30 -125q0 -75 42 -121t110 -46q62 0 114 36.5zM424 611h-78l-116 152h104z" />
    <glyph glyph-name="oacute" unicode="&#xf3;" horiz-adv-x="639" 
d="M148.5 18.5q-50.5 28.5 -78 80t-27.5 119.5q0 92 43.5 171t118.5 126.5t164 47.5q68 0 119.5 -28.5t79 -79.5t27.5 -117q0 -91 -43.5 -171.5t-119 -128.5t-165.5 -48q-68 0 -118.5 28.5zM395 101.5q52 36.5 82.5 96.5t30.5 125q0 73 -42 119t-111 46q-62 0 -114 -36
t-82 -95t-30 -125q0 -75 42 -121t110 -46q62 0 114 36.5zM410 611h-78l144 152h104z" />
    <glyph glyph-name="ocircumflex" unicode="&#xf4;" horiz-adv-x="639" 
d="M148.5 18.5q-50.5 28.5 -78 80t-27.5 119.5q0 92 43.5 171t118.5 126.5t164 47.5q68 0 119.5 -28.5t79 -79.5t27.5 -117q0 -91 -43.5 -171.5t-119 -128.5t-165.5 -48q-68 0 -118.5 28.5zM395 101.5q52 36.5 82.5 96.5t30.5 125q0 73 -42 119t-111 46q-62 0 -114 -36
t-82 -95t-30 -125q0 -75 42 -121t110 -46q62 0 114 36.5zM308 618h-98l192 170h14l132 -170h-98l-55 87z" />
    <glyph glyph-name="otilde" unicode="&#xf5;" horiz-adv-x="639" 
d="M148.5 18.5q-50.5 28.5 -78 80t-27.5 119.5q0 92 43.5 171t118.5 126.5t164 47.5q68 0 119.5 -28.5t79 -79.5t27.5 -117q0 -91 -43.5 -171.5t-119 -128.5t-165.5 -48q-68 0 -118.5 28.5zM395 101.5q52 36.5 82.5 96.5t30.5 125q0 73 -42 119t-111 46q-62 0 -114 -36
t-82 -95t-30 -125q0 -75 42 -121t110 -46q62 0 114 36.5zM397 626q-18 13 -36 38q-10 15 -19 23t-21 8q-37 0 -56 -78h-67q16 71 53 111t87 40q30 0 46.5 -13t34.5 -37q13 -17 21.5 -24.5t21.5 -7.5q16 0 29.5 19t22.5 58h69q-18 -76 -50.5 -113t-84.5 -37q-33 0 -51 13z
" />
    <glyph glyph-name="odieresis" unicode="&#xf6;" horiz-adv-x="639" 
d="M148.5 18.5q-50.5 28.5 -78 80t-27.5 119.5q0 92 43.5 171t118.5 126.5t164 47.5q68 0 119.5 -28.5t79 -79.5t27.5 -117q0 -91 -43.5 -171.5t-119 -128.5t-165.5 -48q-68 0 -118.5 28.5zM395 101.5q52 36.5 82.5 96.5t30.5 125q0 73 -42 119t-111 46q-62 0 -114 -36
t-82 -95t-30 -125q0 -75 42 -121t110 -46q62 0 114 36.5zM245.5 662.5q-15.5 14.5 -15.5 36.5q0 29 23.5 51.5t53.5 22.5q24 0 39.5 -15t15.5 -37q0 -29 -23.5 -51t-53.5 -22q-24 0 -39.5 14.5zM445.5 662.5q-15.5 14.5 -15.5 36.5q0 29 23.5 51.5t53.5 22.5q24 0 39.5 -15
t15.5 -37q0 -29 -23.5 -51t-53.5 -22q-24 0 -39.5 14.5z" />
    <glyph glyph-name="divide" unicode="&#xf7;" horiz-adv-x="470" 
d="M319 465h-102l23 127h102zM448 304h-416l12 71h416zM251 76h-102l22 129h102z" />
    <glyph glyph-name="oslash" unicode="&#xf8;" horiz-adv-x="639" 
d="M618 492l-48 -41q25 -50 25 -113q0 -91 -43.5 -171.5t-119 -128.5t-165.5 -48q-104 0 -165 64l-46 -39l-37 45l50 42q-26 50 -26 116q0 92 43.5 171t118.5 126.5t164 47.5q52 0 94 -16.5t72 -47.5l46 39zM140 163l327 278q-42 47 -112 47q-62 0 -114 -36t-82 -95
t-30 -125q0 -36 11 -69zM497 389l-327 -277q42 -47 111 -47q62 0 114 36.5t82.5 96.5t30.5 125q0 35 -11 66z" />
    <glyph glyph-name="ugrave" unicode="&#xf9;" horiz-adv-x="578" 
d="M60 77q-9 26 -9 62q0 31 8 81l59 333h85l-59 -333q-6 -34 -6 -60q0 -41 16 -64q22 -31 80 -31q62 0 108 41q32 29 52 77.5t35 133.5l42 236h85l-98 -553h-85l15 86q-49 -51 -91 -73.5t-90 -22.5q-117 0 -147 87zM394 611h-78l-116 152h104z" />
    <glyph glyph-name="uacute" unicode="&#xfa;" horiz-adv-x="578" 
d="M60 77q-9 26 -9 62q0 31 8 81l59 333h85l-59 -333q-6 -34 -6 -60q0 -41 16 -64q22 -31 80 -31q62 0 108 41q32 29 52 77.5t35 133.5l42 236h85l-98 -553h-85l15 86q-49 -51 -91 -73.5t-90 -22.5q-117 0 -147 87zM380 611h-78l144 152h104z" />
    <glyph glyph-name="ucircumflex" unicode="&#xfb;" horiz-adv-x="578" 
d="M60 77q-9 26 -9 62q0 31 8 81l59 333h85l-59 -333q-6 -34 -6 -60q0 -41 16 -64q22 -31 80 -31q62 0 108 41q32 29 52 77.5t35 133.5l42 236h85l-98 -553h-85l15 86q-49 -51 -91 -73.5t-90 -22.5q-117 0 -147 87zM278 618h-98l192 170h14l132 -170h-98l-55 87z" />
    <glyph glyph-name="udieresis" unicode="&#xfc;" horiz-adv-x="578" 
d="M60 77q-9 26 -9 62q0 31 8 81l59 333h85l-59 -333q-6 -34 -6 -60q0 -41 16 -64q22 -31 80 -31q62 0 108 41q32 29 52 77.5t35 133.5l42 236h85l-98 -553h-85l15 86q-49 -51 -91 -73.5t-90 -22.5q-117 0 -147 87zM215.5 662.5q-15.5 14.5 -15.5 36.5q0 29 23.5 51.5
t53.5 22.5q24 0 39.5 -15t15.5 -37q0 -29 -23.5 -51t-53.5 -22q-24 0 -39.5 14.5zM415.5 662.5q-15.5 14.5 -15.5 36.5q0 29 23.5 51.5t53.5 22.5q24 0 39.5 -15t15.5 -37q0 -29 -23.5 -51t-53.5 -22q-24 0 -39.5 14.5z" />
    <glyph glyph-name="yacute" unicode="&#xfd;" horiz-adv-x="549" 
d="M-15 -210l14 78h52q25 0 39 3.5t26 15.5t26 39l45 82l-120 545h89l92 -429l232 429h97l-362 -664q-32 -59 -64 -79t-84 -20h-82zM365 611h-78l144 152h104z" />
    <glyph glyph-name="thorn" unicode="&#xfe;" horiz-adv-x="633" 
d="M-15 -210l172 973h85l-52 -296q50 53 95 74.5t103 21.5q94 0 147.5 -58.5t53.5 -157.5q0 -93 -38.5 -175.5t-107.5 -132t-157 -49.5q-57 0 -94.5 21t-69.5 75l-52 -296h-85zM401 103.5q48 38.5 75 99.5t27 127q0 71 -36 114.5t-101 43.5q-60 0 -110.5 -37t-79 -97.5
t-28.5 -126.5q0 -73 39 -117.5t105 -44.5q61 0 109 38.5z" />
    <glyph glyph-name="ydieresis" unicode="&#xff;" horiz-adv-x="549" 
d="M-15 -210l14 78h52q25 0 39 3.5t26 15.5t26 39l45 82l-120 545h89l92 -429l232 429h97l-362 -664q-32 -59 -64 -79t-84 -20h-82zM200.5 662.5q-15.5 14.5 -15.5 36.5q0 29 23.5 51.5t53.5 22.5q24 0 39.5 -15t15.5 -37q0 -29 -23.5 -51t-53.5 -22q-24 0 -39.5 14.5z
M400.5 662.5q-15.5 14.5 -15.5 36.5q0 29 23.5 51.5t53.5 22.5q24 0 39.5 -15t15.5 -37q0 -29 -23.5 -51t-53.5 -22q-24 0 -39.5 14.5z" />
    <glyph glyph-name="Amacron" unicode="&#x100;" horiz-adv-x="694" 
d="M631 0h-88l-34 187h-346l-100 -187h-98l416 763h104zM421 669l-214 -400h287zM600 870h-296l7 43h296z" />
    <glyph glyph-name="amacron" unicode="&#x101;" horiz-adv-x="576" 
d="M63 23q-41 33 -41 92q0 82 57.5 131t155.5 67l204 38q4 17 4 36q0 38 -20 63q-32 38 -96 38q-51 0 -93.5 -27.5t-60.5 -73.5h-85q29 83 100 129.5t154 46.5q49 0 88 -14.5t63 -42.5q34 -39 34 -108q0 -32 -7 -72l-58 -326h-85l16 87q-39 -44 -79 -65q-57 -32 -137 -32
q-73 0 -114 33zM292 84q62 29 92.5 77t43.5 121l-186 -36q-63 -12 -97.5 -38.5t-34.5 -73.5q0 -32 24 -50.5t67 -18.5q52 0 91 19zM511 660h-296l7 43h296z" />
    <glyph glyph-name="Abreve" unicode="&#x102;" horiz-adv-x="694" 
d="M631 0h-88l-34 187h-346l-100 -187h-98l416 763h104zM421 669l-214 -400h287zM336.5 850.5q-35.5 32.5 -35.5 91.5q0 9 2 27h62q-4 -44 20 -67t69 -23q44 0 75.5 23t43.5 67h64q-17 -71 -67.5 -111t-126.5 -40q-71 0 -106.5 32.5z" />
    <glyph glyph-name="abreve" unicode="&#x103;" horiz-adv-x="576" 
d="M63 23q-41 33 -41 92q0 82 57.5 131t155.5 67l204 38q4 17 4 36q0 38 -20 63q-32 38 -96 38q-51 0 -93.5 -27.5t-60.5 -73.5h-85q29 83 100 129.5t154 46.5q49 0 88 -14.5t63 -42.5q34 -39 34 -108q0 -32 -7 -72l-58 -326h-85l16 87q-39 -44 -79 -65q-57 -32 -137 -32
q-73 0 -114 33zM292 84q62 29 92.5 77t43.5 121l-186 -36q-63 -12 -97.5 -38.5t-34.5 -73.5q0 -32 24 -50.5t67 -18.5q52 0 91 19zM247.5 640.5q-35.5 32.5 -35.5 91.5q0 9 2 27h62q-4 -44 20 -67t69 -23q44 0 75.5 23t43.5 67h64q-17 -71 -67.5 -111t-126.5 -40
q-71 0 -106.5 32.5z" />
    <glyph glyph-name="Aogonek" unicode="&#x104;" horiz-adv-x="694" 
d="M631 0h-88l-34 187h-346l-100 -187h-98l416 763h104zM421 669l-214 -400h287zM476.5 -200q-23.5 20 -23.5 54q0 45 30.5 76t95.5 55l2 15h50q-56 -40 -83 -67t-27 -59q0 -18 11.5 -28.5t33.5 -10.5q19 0 37 6l-9 -54q-29 -7 -53 -7q-41 0 -64.5 20z" />
    <glyph glyph-name="aogonek" unicode="&#x105;" horiz-adv-x="576" 
d="M527 398q0 -32 -7 -72l-58 -326q-56 -40 -83 -67t-27 -59q0 -18 11.5 -28.5t33.5 -10.5q19 0 37 6l-9 -54q-29 -7 -53 -7q-41 0 -64.5 20t-23.5 54q0 45 30.5 76t95.5 55l2 15h-35l16 87q-39 -44 -79 -65q-57 -32 -137 -32q-73 0 -114 33t-41 92q0 82 57.5 131t155.5 67
l204 38q4 17 4 36q0 38 -20 63q-32 38 -96 38q-51 0 -93.5 -27.5t-60.5 -73.5h-85q29 83 100 129.5t154 46.5q49 0 88 -14.5t63 -42.5q34 -39 34 -108zM384.5 161q30.5 48 43.5 121l-186 -36q-63 -12 -97.5 -38.5t-34.5 -73.5q0 -32 24 -50.5t67 -18.5q52 0 91 19
q62 29 92.5 77z" />
    <glyph glyph-name="Cacute" unicode="&#x106;" horiz-adv-x="748" 
d="M188 29q-65 39 -96.5 106t-31.5 152q0 132 54.5 243.5t152.5 177t223 65.5q83 0 143 -28t91.5 -78t31.5 -115h-100q-3 64 -52 101.5t-131 37.5q-96 0 -169 -54t-112 -144.5t-39 -194.5t54 -165t157 -61q84 0 145.5 40.5t89.5 118.5h100q-38 -112 -130 -176.5t-218 -64.5
q-98 0 -163 39zM500 821h-78l144 152h104z" />
    <glyph glyph-name="cacute" unicode="&#x107;" horiz-adv-x="602" 
d="M147 18.5q-50 28.5 -77 80t-27 118.5q0 92 43 171.5t117.5 127t163.5 47.5q92 0 148 -47.5t61 -128.5h-91q-7 46 -43 73.5t-89 27.5q-62 0 -113.5 -36.5t-81 -95.5t-29.5 -125q0 -75 41 -120.5t109 -45.5q57 0 104 31t70 82h91q-33 -88 -109 -138t-170 -50
q-68 0 -118 28.5zM393 611h-78l144 152h104z" />
    <glyph glyph-name="Cdotaccent" unicode="&#x10a;" horiz-adv-x="748" 
d="M188 29q-65 39 -96.5 106t-31.5 152q0 132 54.5 243.5t152.5 177t223 65.5q83 0 143 -28t91.5 -78t31.5 -115h-100q-3 64 -52 101.5t-131 37.5q-96 0 -169 -54t-112 -144.5t-39 -194.5t54 -165t157 -61q84 0 145.5 40.5t89.5 118.5h100q-38 -112 -130 -176.5t-218 -64.5
q-98 0 -163 39zM430 824.5q-14 13.5 -14 34.5q0 27 22 47t49 20q21 0 34.5 -14t13.5 -34q0 -26 -21.5 -46.5t-47.5 -20.5q-22 0 -36 13.5z" />
    <glyph glyph-name="cdotaccent" unicode="&#x10b;" horiz-adv-x="602" 
d="M147 18.5q-50 28.5 -77 80t-27 118.5q0 92 43 171.5t117.5 127t163.5 47.5q92 0 148 -47.5t61 -128.5h-91q-7 46 -43 73.5t-89 27.5q-62 0 -113.5 -36.5t-81 -95.5t-29.5 -125q0 -75 41 -120.5t109 -45.5q57 0 104 31t70 82h91q-33 -88 -109 -138t-170 -50
q-68 0 -118 28.5zM328.5 662.5q-15.5 14.5 -15.5 36.5q0 29 23.5 51.5t53.5 22.5q24 0 39.5 -15t15.5 -37q0 -29 -23.5 -51t-53.5 -22q-24 0 -39.5 14.5z" />
    <glyph glyph-name="Ccaron" unicode="&#x10c;" horiz-adv-x="748" 
d="M188 29q-65 39 -96.5 106t-31.5 152q0 132 54.5 243.5t152.5 177t223 65.5q83 0 143 -28t91.5 -78t31.5 -115h-100q-3 64 -52 101.5t-131 37.5q-96 0 -169 -54t-112 -144.5t-39 -194.5t54 -165t157 -61q84 0 145.5 40.5t89.5 118.5h100q-38 -112 -130 -176.5t-218 -64.5
q-98 0 -163 39zM472 804h-14l-132 170h98l55 -87l87 87h98z" />
    <glyph glyph-name="ccaron" unicode="&#x10d;" horiz-adv-x="602" 
d="M147 18.5q-50 28.5 -77 80t-27 118.5q0 92 43 171.5t117.5 127t163.5 47.5q92 0 148 -47.5t61 -128.5h-91q-7 46 -43 73.5t-89 27.5q-62 0 -113.5 -36.5t-81 -95.5t-29.5 -125q0 -75 41 -120.5t109 -45.5q57 0 104 31t70 82h91q-33 -88 -109 -138t-170 -50
q-68 0 -118 28.5zM365 594h-14l-132 170h98l55 -87l87 87h98z" />
    <glyph glyph-name="Dcaron" unicode="&#x10e;" horiz-adv-x="732" 
d="M30 0l135 763h210q163 0 248 -74t85 -214q0 -142 -57.5 -249.5t-163.5 -166.5t-248 -59h-209zM253 83q177 0 269.5 100.5t92.5 278.5q0 218 -256 218h-117l-105 -597h116zM456 804h-14l-132 170h98l55 -87l87 87h98z" />
    <glyph glyph-name="dcaron" unicode="&#x10f;" horiz-adv-x="634" 
d="M97.5 48.5q-53.5 58.5 -53.5 157.5q0 93 38.5 175.5t107.5 132t157 49.5q57 0 94.5 -21t69.5 -75l52 296h85l-135 -763h-85l15 86q-50 -53 -95 -74.5t-103 -21.5q-94 0 -147.5 58.5zM377.5 102q50.5 37 79 97.5t28.5 126.5q0 73 -39 117.5t-105 44.5q-61 0 -109 -38.5
t-75 -99.5t-27 -127q0 -71 36 -114.5t101 -43.5q60 0 110.5 37zM701 539q47 7 77 35.5t38 72.5q3 15 3 30q-18 -22 -49 -22q-19 0 -31 12t-12 33q0 31 22 52t54 21q33 0 50.5 -22t17.5 -61q0 -15 -3 -33q-11 -61 -55.5 -108t-119.5 -55z" />
    <glyph glyph-name="Dcroat" unicode="&#x110;" horiz-adv-x="732" 
d="M375 763q163 0 248 -74t85 -214q0 -142 -57.5 -249.5t-163.5 -166.5t-248 -59h-209l61 346h-71l12 71h72l61 346h210zM253 83q177 0 269.5 100.5t92.5 278.5q0 218 -256 218h-117l-46 -263h245l-12 -71h-246l-46 -263h116z" />
    <glyph glyph-name="Emacron" unicode="&#x112;" horiz-adv-x="616" 
d="M523 0h-493l135 763h493l-15 -83h-401l-45 -256h354l-14 -82h-354l-46 -259h401zM579 870h-296l7 43h296z" />
    <glyph glyph-name="emacron" unicode="&#x113;" horiz-adv-x="629" 
d="M147.5 18.5q-50.5 28.5 -77.5 79.5t-27 117q0 91 43 171t117 128.5t163 48.5q63 0 113.5 -25t80.5 -73t30 -116q-1 -32 -11 -89h-450q-1 -8 -1 -25q0 -47 18.5 -85.5t53 -61.5t79.5 -23q60 0 108.5 32t76.5 81h91q-43 -84 -117 -136t-172 -52q-68 0 -118.5 28.5zM501 335
q1 7 1 23q0 59 -42 94.5t-106 35.5q-55 0 -101 -25.5t-77 -73.5q-15 -24 -26 -54h351zM530 660h-296l7 43h296z" />
    <glyph glyph-name="Edotaccent" unicode="&#x116;" horiz-adv-x="616" 
d="M523 0h-493l135 763h493l-15 -83h-401l-45 -256h354l-14 -82h-354l-46 -259h401zM384 824.5q-14 13.5 -14 34.5q0 27 22 47t49 20q21 0 34.5 -14t13.5 -34q0 -26 -21.5 -46.5t-47.5 -20.5q-22 0 -36 13.5z" />
    <glyph glyph-name="edotaccent" unicode="&#x117;" horiz-adv-x="629" 
d="M147.5 18.5q-50.5 28.5 -77.5 79.5t-27 117q0 91 43 171t117 128.5t163 48.5q63 0 113.5 -25t80.5 -73t30 -116q-1 -32 -11 -89h-450q-1 -8 -1 -25q0 -47 18.5 -85.5t53 -61.5t79.5 -23q60 0 108.5 32t76.5 81h91q-43 -84 -117 -136t-172 -52q-68 0 -118.5 28.5zM501 335
q1 7 1 23q0 59 -42 94.5t-106 35.5q-55 0 -101 -25.5t-77 -73.5q-15 -24 -26 -54h351zM340.5 662.5q-15.5 14.5 -15.5 36.5q0 29 23.5 51.5t53.5 22.5q24 0 39.5 -15t15.5 -37q0 -29 -23.5 -51t-53.5 -22q-24 0 -39.5 14.5z" />
    <glyph glyph-name="Eogonek" unicode="&#x118;" horiz-adv-x="616" 
d="M523 0h-493l135 763h493l-15 -83h-401l-45 -256h354l-14 -82h-354l-46 -259h401zM368.5 -200q-23.5 20 -23.5 54q0 45 30.5 76t95.5 55l2 15h50q-56 -40 -83 -67t-27 -59q0 -18 11.5 -28.5t33.5 -10.5q19 0 37 6l-9 -54q-29 -7 -53 -7q-41 0 -64.5 20z" />
    <glyph glyph-name="eogonek" unicode="&#x119;" horiz-adv-x="629" 
d="M129 260q-1 -8 -1 -25q0 -47 18.5 -85.5t53 -61.5t79.5 -23q60 0 108.5 32t76.5 81h91q-45 -90 -123 -140q-52 -37 -77 -63.5t-25 -56.5q0 -18 11.5 -28.5t33.5 -10.5q19 0 37 6l-9 -54q-29 -7 -53 -7q-41 0 -64.5 20t-23.5 54q0 59 55 96q-21 -4 -51 -4
q-68 0 -118.5 28.5t-77.5 79.5t-27 117q0 91 43 171t117 128.5t163 48.5q63 0 113.5 -25t80.5 -73t30 -116q-1 -32 -11 -89h-450zM150 335h351q1 7 1 23q0 59 -42 94.5t-106 35.5q-55 0 -101 -25.5t-77 -73.5q-15 -24 -26 -54z" />
    <glyph glyph-name="Ecaron" unicode="&#x11a;" horiz-adv-x="616" 
d="M523 0h-493l135 763h493l-15 -83h-401l-45 -256h354l-14 -82h-354l-46 -259h401zM426 804h-14l-132 170h98l55 -87l87 87h98z" />
    <glyph glyph-name="ecaron" unicode="&#x11b;" horiz-adv-x="629" 
d="M147.5 18.5q-50.5 28.5 -77.5 79.5t-27 117q0 91 43 171t117 128.5t163 48.5q63 0 113.5 -25t80.5 -73t30 -116q-1 -32 -11 -89h-450q-1 -8 -1 -25q0 -47 18.5 -85.5t53 -61.5t79.5 -23q60 0 108.5 32t76.5 81h91q-43 -84 -117 -136t-172 -52q-68 0 -118.5 28.5zM501 335
q1 7 1 23q0 59 -42 94.5t-106 35.5q-55 0 -101 -25.5t-77 -73.5q-15 -24 -26 -54h351zM377 594h-14l-132 170h98l55 -87l87 87h98z" />
    <glyph glyph-name="Gbreve" unicode="&#x11e;" horiz-adv-x="807" 
d="M190 30q-67 40 -98.5 108t-31.5 154q0 130 56.5 240.5t156.5 175.5t224 65t196 -59.5t87 -160.5h-103q-15 64 -65.5 101t-131.5 37q-95 0 -169.5 -53t-115.5 -140.5t-41 -189.5q0 -105 55.5 -170.5t163.5 -65.5q112 0 190 65.5t98 179.5h-183l15 82h273l-71 -399h-84
l19 109q-49 -58 -122 -88.5t-149 -30.5q-102 0 -169 40zM393.5 850.5q-35.5 32.5 -35.5 91.5q0 9 2 27h62q-4 -44 20 -67t69 -23q44 0 75.5 23t43.5 67h64q-17 -71 -67.5 -111t-126.5 -40q-71 0 -106.5 32.5z" />
    <glyph glyph-name="gbreve" unicode="&#x11f;" horiz-adv-x="635" 
d="M71.5 -179q-60.5 41 -60.5 134h87q9 -100 142 -100q165 0 191 148l14 83q-51 -54 -96 -75t-102 -21q-94 0 -147.5 58.5t-53.5 156.5q0 93 38.5 175.5t107.5 132.5t156 50q58 0 95 -21.5t70 -74.5l15 86h85l-94 -534q-23 -128 -99 -183.5t-193 -55.5q-95 0 -155.5 41z
M380.5 103q49.5 38 78 98.5t28.5 124.5q0 73 -39 117.5t-105 44.5q-61 0 -109 -38t-75 -99.5t-27 -126.5q0 -72 36 -115.5t101 -43.5q62 0 111.5 38zM270.5 640.5q-35.5 32.5 -35.5 91.5q0 9 2 27h62q-4 -44 20 -67t69 -23q44 0 75.5 23t43.5 67h64q-17 -71 -67.5 -111
t-126.5 -40q-71 0 -106.5 32.5z" />
    <glyph glyph-name="Gdotaccent" unicode="&#x120;" horiz-adv-x="807" 
d="M190 30q-67 40 -98.5 108t-31.5 154q0 130 56.5 240.5t156.5 175.5t224 65t196 -59.5t87 -160.5h-103q-15 64 -65.5 101t-131.5 37q-95 0 -169.5 -53t-115.5 -140.5t-41 -189.5q0 -105 55.5 -170.5t163.5 -65.5q112 0 190 65.5t98 179.5h-183l15 82h273l-71 -399h-84
l19 109q-49 -58 -122 -88.5t-149 -30.5q-102 0 -169 40zM462 824.5q-14 13.5 -14 34.5q0 27 22 47t49 20q21 0 34.5 -14t13.5 -34q0 -26 -21.5 -46.5t-47.5 -20.5q-22 0 -36 13.5z" />
    <glyph glyph-name="gdotaccent" unicode="&#x121;" horiz-adv-x="635" 
d="M71.5 -179q-60.5 41 -60.5 134h87q9 -100 142 -100q165 0 191 148l14 83q-51 -54 -96 -75t-102 -21q-94 0 -147.5 58.5t-53.5 156.5q0 93 38.5 175.5t107.5 132.5t156 50q58 0 95 -21.5t70 -74.5l15 86h85l-94 -534q-23 -128 -99 -183.5t-193 -55.5q-95 0 -155.5 41z
M380.5 103q49.5 38 78 98.5t28.5 124.5q0 73 -39 117.5t-105 44.5q-61 0 -109 -38t-75 -99.5t-27 -126.5q0 -72 36 -115.5t101 -43.5q62 0 111.5 38zM344.5 662.5q-15.5 14.5 -15.5 36.5q0 29 23.5 51.5t53.5 22.5q24 0 39.5 -15t15.5 -37q0 -29 -23.5 -51t-53.5 -22
q-24 0 -39.5 14.5z" />
    <glyph glyph-name="uni0122" unicode="&#x122;" horiz-adv-x="807" 
d="M190 30q-67 40 -98.5 108t-31.5 154q0 130 56.5 240.5t156.5 175.5t224 65t196 -59.5t87 -160.5h-103q-15 64 -65.5 101t-131.5 37q-95 0 -169.5 -53t-115.5 -140.5t-41 -189.5q0 -105 55.5 -170.5t163.5 -65.5q112 0 190 65.5t98 179.5h-183l15 82h273l-71 -399h-84
l19 109q-49 -58 -122 -88.5t-149 -30.5q-102 0 -169 40zM275 -181q37 0 58.5 11t25.5 31q0 1 0.5 3.5t-0.5 6.5h-10q-1 -8 -9.5 -13t-19.5 -5q-18 0 -27.5 13t-6.5 33q5 22 21.5 35.5t38.5 13.5q27 0 42.5 -15t15.5 -41q0 -48 -34.5 -75t-99.5 -27z" />
    <glyph glyph-name="uni0123" unicode="&#x123;" horiz-adv-x="635" 
d="M71.5 -179q-60.5 41 -60.5 134h87q9 -100 142 -100q165 0 191 148l14 83q-51 -54 -96 -75t-102 -21q-94 0 -147.5 58.5t-53.5 156.5q0 93 38.5 175.5t107.5 132.5t156 50q58 0 95 -21.5t70 -74.5l15 86h85l-94 -534q-23 -128 -99 -183.5t-193 -55.5q-95 0 -155.5 41z
M380.5 103q49.5 38 78 98.5t28.5 124.5q0 73 -39 117.5t-105 44.5q-61 0 -109 -38t-75 -99.5t-27 -126.5q0 -72 36 -115.5t101 -43.5q62 0 111.5 38zM358.5 615.5q-14.5 16.5 -14.5 45.5q0 30 15.5 60t47 52t77.5 26l-6 -32q-38 -4 -62 -25t-29 -52q-1 -8 -1 -22
q13 16 39 16q15 0 25 -8.5t10 -23.5q0 -22 -17 -37.5t-43 -15.5q-27 0 -41.5 16.5z" />
    <glyph glyph-name="Imacron" unicode="&#x12a;" horiz-adv-x="251" 
d="M122 0h-92l135 763h92zM378 870h-296l7 43h296z" />
    <glyph glyph-name="imacron" unicode="&#x12b;" horiz-adv-x="227" 
d="M107 0h-85l98 553h85zM330 660h-296l7 43h296z" />
    <glyph glyph-name="Iogonek" unicode="&#x12e;" horiz-adv-x="251" 
d="M122 0h-92l135 763h92zM-32.5 -200q-23.5 20 -23.5 54q0 45 30.5 76t95.5 55l2 15h50q-56 -40 -83 -67t-27 -59q0 -18 11.5 -28.5t33.5 -10.5q19 0 37 6l-9 -54q-29 -7 -53 -7q-41 0 -64.5 20z" />
    <glyph glyph-name="iogonek" unicode="&#x12f;" horiz-adv-x="227" 
d="M107 0h-85l98 553h85zM140.5 662.5q-15.5 14.5 -15.5 36.5q0 29 23.5 51.5t53.5 22.5q24 0 39.5 -15t15.5 -37q0 -29 -23.5 -51t-53.5 -22q-24 0 -39.5 14.5zM-47.5 -200q-23.5 20 -23.5 54q0 45 30.5 76t95.5 55l2 15h50q-56 -40 -83 -67t-27 -59q0 -18 11.5 -28.5
t33.5 -10.5q19 0 37 6l-9 -54q-29 -7 -53 -7q-41 0 -64.5 20z" />
    <glyph glyph-name="Idotaccent" unicode="&#x130;" horiz-adv-x="251" 
d="M122 0h-92l135 763h92zM183 824.5q-14 13.5 -14 34.5q0 27 22 47t49 20q21 0 34.5 -14t13.5 -34q0 -26 -21.5 -46.5t-47.5 -20.5q-22 0 -36 13.5z" />
    <glyph glyph-name="dotlessi" unicode="&#x131;" horiz-adv-x="227" 
d="M107 0h-85l98 553h85z" />
    <glyph glyph-name="uni0136" unicode="&#x136;" horiz-adv-x="632" 
d="M122 0h-92l135 763h92l-62 -346l379 346h125l-411 -372l281 -391h-115l-265 375zM187 -181q37 0 58.5 11t25.5 31q0 1 0.5 3.5t-0.5 6.5h-10q-1 -8 -9.5 -13t-19.5 -5q-18 0 -27.5 13t-6.5 33q5 22 21.5 35.5t38.5 13.5q27 0 42.5 -15t15.5 -41q0 -48 -34.5 -75
t-99.5 -27z" />
    <glyph glyph-name="uni0137" unicode="&#x137;" horiz-adv-x="554" 
d="M108 0h-85l135 763h85l-76 -431l282 221h128l-324 -253l233 -300h-108l-219 289zM143 -181q37 0 58.5 11t25.5 31q0 1 0.5 3.5t-0.5 6.5h-10q-1 -8 -9.5 -13t-19.5 -5q-18 0 -27.5 13t-6.5 33q5 22 21.5 35.5t38.5 13.5q27 0 42.5 -15t15.5 -41q0 -48 -34.5 -75
t-99.5 -27z" />
    <glyph glyph-name="kgreenlandic" unicode="&#x138;" horiz-adv-x="554" 
d="M108 0h-85l98 553h85l-39 -221l282 221h128l-324 -253l233 -300h-108l-219 289z" />
    <glyph glyph-name="Lacute" unicode="&#x139;" horiz-adv-x="528" 
d="M464 0h-434l135 763h92l-120 -680h342zM253 821h-78l144 152h104z" />
    <glyph glyph-name="lacute" unicode="&#x13a;" horiz-adv-x="277" 
d="M151 0q-55 0 -83 20t-28 71q0 18 5 48l110 624h85l-108 -611q-4 -19 -4 -37q0 -21 12 -30.5t44 -9.5h27l-13 -75h-47zM240 821h-78l144 152h104z" />
    <glyph glyph-name="uni013B" unicode="&#x13b;" horiz-adv-x="528" 
d="M464 0h-434l135 763h92l-120 -680h342zM167 -181q37 0 58.5 11t25.5 31q0 1 0.5 3.5t-0.5 6.5h-10q-1 -8 -9.5 -13t-19.5 -5q-18 0 -27.5 13t-6.5 33q5 22 21.5 35.5t38.5 13.5q27 0 42.5 -15t15.5 -41q0 -48 -34.5 -75t-99.5 -27z" />
    <glyph glyph-name="uni013C" unicode="&#x13c;" horiz-adv-x="277" 
d="M151 0q-55 0 -83 20t-28 71q0 18 5 48l110 624h85l-108 -611q-4 -19 -4 -37q0 -21 12 -30.5t44 -9.5h27l-13 -75h-47zM-3 -181q37 0 58.5 11t25.5 31q0 1 0.5 3.5t-0.5 6.5h-10q-1 -8 -9.5 -13t-19.5 -5q-18 0 -27.5 13t-6.5 33q5 22 21.5 35.5t38.5 13.5q27 0 42.5 -15
t15.5 -41q0 -48 -34.5 -75t-99.5 -27z" />
    <glyph glyph-name="Lcaron" unicode="&#x13d;" horiz-adv-x="528" 
d="M464 0h-434l135 763h92l-120 -680h342zM423 539q47 7 77 35.5t38 72.5q3 15 3 30q-18 -22 -49 -22q-19 0 -31 12t-12 33q0 31 22 52t54 21q33 0 50.5 -22t17.5 -61q0 -15 -3 -33q-11 -61 -55.5 -108t-119.5 -55z" />
    <glyph glyph-name="lcaron" unicode="&#x13e;" horiz-adv-x="277" 
d="M151 0q-55 0 -83 20t-28 71q0 18 5 48l110 624h85l-108 -611q-4 -19 -4 -37q0 -21 12 -30.5t44 -9.5h27l-13 -75h-47zM277 539q47 7 77 35.5t38 72.5q3 15 3 30q-18 -22 -49 -22q-19 0 -31 12t-12 33q0 31 22 52t54 21q33 0 50.5 -22t17.5 -61q0 -15 -3 -33
q-11 -61 -55.5 -108t-119.5 -55z" />
    <glyph glyph-name="Lslash" unicode="&#x141;" horiz-adv-x="568" 
d="M499 0h-434l60 340l-82 -37l13 78l83 39l61 343h92l-52 -296l217 103l-14 -78l-217 -103l-54 -306h342z" />
    <glyph glyph-name="lslash" unicode="&#x142;" horiz-adv-x="277" 
d="M188 468l-56 -316q-4 -19 -4 -37q0 -21 12 -30.5t44 -9.5h27l-13 -75h-47q-55 0 -83 20t-28 71q0 18 5 48l50 285l-58 -28l11 60l58 27l49 280h85l-42 -236l90 43l-11 -60z" />
    <glyph glyph-name="Nacute" unicode="&#x143;" horiz-adv-x="727" 
d="M122 0h-92l135 763h134l224 -671l119 671h91l-135 -763h-134l-224 669zM491 821h-78l144 152h104z" />
    <glyph glyph-name="nacute" unicode="&#x144;" horiz-adv-x="576" 
d="M22 0l98 553h85l-15 -86q50 53 92 74.5t89 21.5q77 0 116.5 -38.5t39.5 -112.5q0 -37 -8 -79l-59 -333h-85l59 333q6 33 6 59q0 50 -23 73t-73 23q-87 0 -130.5 -65.5t-64.5 -186.5l-42 -236h-85zM380 611h-78l144 152h104z" />
    <glyph glyph-name="uni0145" unicode="&#x145;" horiz-adv-x="727" 
d="M122 0h-92l135 763h134l224 -671l119 671h91l-135 -763h-134l-224 669zM234 -181q37 0 58.5 11t25.5 31q0 1 0.5 3.5t-0.5 6.5h-10q-1 -8 -9.5 -13t-19.5 -5q-18 0 -27.5 13t-6.5 33q5 22 21.5 35.5t38.5 13.5q27 0 42.5 -15t15.5 -41q0 -48 -34.5 -75t-99.5 -27z" />
    <glyph glyph-name="uni0146" unicode="&#x146;" horiz-adv-x="576" 
d="M22 0l98 553h85l-15 -86q50 53 92 74.5t89 21.5q77 0 116.5 -38.5t39.5 -112.5q0 -37 -8 -79l-59 -333h-85l59 333q6 33 6 59q0 50 -23 73t-73 23q-87 0 -130.5 -65.5t-64.5 -186.5l-42 -236h-85zM160 -181q37 0 58.5 11t25.5 31q0 1 0.5 3.5t-0.5 6.5h-10
q-1 -8 -9.5 -13t-19.5 -5q-18 0 -27.5 13t-6.5 33q5 22 21.5 35.5t38.5 13.5q27 0 42.5 -15t15.5 -41q0 -48 -34.5 -75t-99.5 -27z" />
    <glyph glyph-name="Ncaron" unicode="&#x147;" horiz-adv-x="727" 
d="M122 0h-92l135 763h134l224 -671l119 671h91l-135 -763h-134l-224 669zM463 804h-14l-132 170h98l55 -87l87 87h98z" />
    <glyph glyph-name="ncaron" unicode="&#x148;" horiz-adv-x="576" 
d="M22 0l98 553h85l-15 -86q50 53 92 74.5t89 21.5q77 0 116.5 -38.5t39.5 -112.5q0 -37 -8 -79l-59 -333h-85l59 333q6 33 6 59q0 50 -23 73t-73 23q-87 0 -130.5 -65.5t-64.5 -186.5l-42 -236h-85zM352 594h-14l-132 170h98l55 -87l87 87h98z" />
    <glyph glyph-name="Omacron" unicode="&#x14c;" horiz-adv-x="811" 
d="M189 29q-66 39 -97.5 106.5t-31.5 153.5q0 131 55 242t154 176.5t223 65.5q147 0 221 -83t74 -217q0 -131 -55.5 -241.5t-154.5 -176t-224 -65.5q-98 0 -164 39zM539 126.5q74 53.5 114.5 142.5t40.5 192q0 105 -55.5 167t-161.5 62q-96 0 -170 -53.5t-114 -143
t-40 -191.5q0 -105 55.5 -167t159.5 -62q97 0 171 53.5zM658 870h-296l7 43h296z" />
    <glyph glyph-name="omacron" unicode="&#x14d;" horiz-adv-x="639" 
d="M148.5 18.5q-50.5 28.5 -78 80t-27.5 119.5q0 92 43.5 171t118.5 126.5t164 47.5q68 0 119.5 -28.5t79 -79.5t27.5 -117q0 -91 -43.5 -171.5t-119 -128.5t-165.5 -48q-68 0 -118.5 28.5zM395 101.5q52 36.5 82.5 96.5t30.5 125q0 73 -42 119t-111 46q-62 0 -114 -36
t-82 -95t-30 -125q0 -75 42 -121t110 -46q62 0 114 36.5zM535 660h-296l7 43h296z" />
    <glyph glyph-name="Ohungarumlaut" unicode="&#x150;" horiz-adv-x="811" 
d="M189 29q-66 39 -97.5 106.5t-31.5 153.5q0 131 55 242t154 176.5t223 65.5q147 0 221 -83t74 -217q0 -131 -55.5 -241.5t-154.5 -176t-224 -65.5q-98 0 -164 39zM539 126.5q74 53.5 114.5 142.5t40.5 192q0 105 -55.5 167t-161.5 62q-96 0 -170 -53.5t-114 -143
t-40 -191.5q0 -105 55.5 -167t159.5 -62q97 0 171 53.5zM449 821h-78l143 152h105zM632 821h-79l145 152h110z" />
    <glyph glyph-name="ohungarumlaut" unicode="&#x151;" horiz-adv-x="639" 
d="M148.5 18.5q-50.5 28.5 -78 80t-27.5 119.5q0 92 43.5 171t118.5 126.5t164 47.5q68 0 119.5 -28.5t79 -79.5t27.5 -117q0 -91 -43.5 -171.5t-119 -128.5t-165.5 -48q-68 0 -118.5 28.5zM395 101.5q52 36.5 82.5 96.5t30.5 125q0 73 -42 119t-111 46q-62 0 -114 -36
t-82 -95t-30 -125q0 -75 42 -121t110 -46q62 0 114 36.5zM326 611h-78l143 152h105zM509 611h-79l145 152h110z" />
    <glyph glyph-name="OE" unicode="&#x152;" horiz-adv-x="1204" 
d="M189 29q-66 39 -97.5 106.5t-31.5 153.5q0 131 55 242t154 176.5t223 65.5q82 0 140.5 -30.5t99.5 -96.5l21 117h493l-15 -83h-401l-45 -256h354l-14 -82h-354l-46 -259h401l-15 -83h-493l21 117q-68 -66 -137.5 -96.5t-148.5 -30.5q-98 0 -164 39zM539 126.5
q74 53.5 114.5 142.5t40.5 192q0 105 -55.5 167t-161.5 62q-96 0 -170 -53.5t-114 -143t-40 -191.5q0 -105 55.5 -167t159.5 -62q97 0 171 53.5z" />
    <glyph glyph-name="oe" unicode="&#x153;" horiz-adv-x="1087" 
d="M937.5 538q50.5 -25 80.5 -73t30 -116q0 -27 -6 -59l-5 -30h-450q-1 -5 -1 -20q0 -21 2 -35q10 -64 49.5 -102t99.5 -38t108.5 32t76.5 81h91q-43 -84 -117 -136t-172 -52q-74 0 -127.5 33.5t-77.5 93.5q-46 -59 -111.5 -93t-140.5 -34q-68 0 -118.5 28.5t-78 80
t-27.5 119.5q0 92 43.5 171t118.5 126.5t164 47.5q75 0 129 -33.5t78 -92.5q46 59 110 92.5t138 33.5q63 0 113.5 -25zM395 101.5q52 36.5 82.5 96.5t30.5 125q0 73 -42 119t-111 46q-62 0 -114 -36t-82 -95t-30 -125q0 -75 42 -121t110 -46q62 0 114 36.5zM959 335
q2 37 -2 54q-13 47 -52 73t-93 26q-55 0 -101 -25.5t-77 -73.5q-15 -24 -26 -54h351z" />
    <glyph glyph-name="Racute" unicode="&#x154;" horiz-adv-x="660" 
d="M609 435q-48 -68 -130 -96l87 -339h-93l-81 323q-7 -1 -21 -1h-192l-57 -322h-92l135 763h284q98 0 153 -42.5t55 -124.5q0 -93 -48 -161zM363 404q88 0 144.5 45.5t56.5 121.5q0 52 -37 80.5t-105 28.5h-180l-49 -276h170zM449 821h-78l144 152h104z" />
    <glyph glyph-name="racute" unicode="&#x155;" horiz-adv-x="363" 
d="M22 0l98 553h85l-14 -76q46 46 93 66t104 20h4l-15 -85h-29q-67 0 -115 -40q-57 -48 -74 -147l-52 -291h-85zM273 611h-78l144 152h104z" />
    <glyph glyph-name="uni0156" unicode="&#x156;" horiz-adv-x="660" 
d="M609 435q-48 -68 -130 -96l87 -339h-93l-81 323q-7 -1 -21 -1h-192l-57 -322h-92l135 763h284q98 0 153 -42.5t55 -124.5q0 -93 -48 -161zM363 404q88 0 144.5 45.5t56.5 121.5q0 52 -37 80.5t-105 28.5h-180l-49 -276h170zM215 -181q37 0 58.5 11t25.5 31q0 1 0.5 3.5
t-0.5 6.5h-10q-1 -8 -9.5 -13t-19.5 -5q-18 0 -27.5 13t-6.5 33q5 22 21.5 35.5t38.5 13.5q27 0 42.5 -15t15.5 -41q0 -48 -34.5 -75t-99.5 -27z" />
    <glyph glyph-name="uni0157" unicode="&#x157;" horiz-adv-x="363" 
d="M22 0l98 553h85l-14 -76q46 46 93 66t104 20h4l-15 -85h-29q-67 0 -115 -40q-57 -48 -74 -147l-52 -291h-85zM-15 -181q37 0 58.5 11t25.5 31q0 1 0.5 3.5t-0.5 6.5h-10q-1 -8 -9.5 -13t-19.5 -5q-18 0 -27.5 13t-6.5 33q5 22 21.5 35.5t38.5 13.5q27 0 42.5 -15
t15.5 -41q0 -48 -34.5 -75t-99.5 -27z" />
    <glyph glyph-name="Rcaron" unicode="&#x158;" horiz-adv-x="660" 
d="M609 435q-48 -68 -130 -96l87 -339h-93l-81 323q-7 -1 -21 -1h-192l-57 -322h-92l135 763h284q98 0 153 -42.5t55 -124.5q0 -93 -48 -161zM363 404q88 0 144.5 45.5t56.5 121.5q0 52 -37 80.5t-105 28.5h-180l-49 -276h170zM421 804h-14l-132 170h98l55 -87l87 87h98z
" />
    <glyph glyph-name="rcaron" unicode="&#x159;" horiz-adv-x="363" 
d="M22 0l98 553h85l-14 -76q46 46 93 66t104 20h4l-15 -85h-29q-67 0 -115 -40q-57 -48 -74 -147l-52 -291h-85zM245 594h-14l-132 170h98l55 -87l87 87h98z" />
    <glyph glyph-name="Sacute" unicode="&#x15a;" horiz-adv-x="673" 
d="M108.5 49.5q-74.5 59.5 -74.5 181.5h93q3 -84 58.5 -121.5t137.5 -37.5q89 0 143 42.5t54 118.5q0 41 -25 65.5t-62.5 37t-98.5 25.5q-69 15 -112 30t-72.5 46.5t-29.5 85.5q0 74 38.5 131t105 88t147.5 31q105 0 171.5 -54.5t66.5 -165.5h-89q-3 73 -49 105.5t-116 32.5
q-80 0 -130 -38t-50 -103q0 -35 23 -56.5t57 -33t93 -24.5q73 -16 118.5 -32.5t77 -51.5t31.5 -95q0 -81 -40 -141.5t-110.5 -93t-160.5 -32.5q-121 0 -195.5 59.5zM464 821h-78l144 152h104z" />
    <glyph glyph-name="sacute" unicode="&#x15b;" horiz-adv-x="557" 
d="M82.5 40q-56.5 50 -56.5 138h89q2 -53 37 -83t106 -30q62 0 102.5 26t40.5 73q0 38 -35.5 56t-103.5 31q-56 11 -91.5 23t-60 37t-24.5 67q0 55 31.5 97t84.5 65t116 23q90 0 141 -46.5t51 -129.5h-79q-3 51 -36.5 76t-90.5 25q-59 0 -94.5 -24t-35.5 -65
q0 -33 32.5 -47.5t97.5 -27.5q57 -10 95 -23t64 -39.5t26 -71.5q0 -61 -32.5 -106.5t-88.5 -69.5t-125 -24q-104 0 -160.5 50zM370 611h-78l144 152h104z" />
    <glyph glyph-name="Scedilla" unicode="&#x15e;" horiz-adv-x="673" 
d="M506.5 403.5q45.5 -16.5 77 -51.5t31.5 -95q0 -81 -40 -141.5t-110.5 -93t-160.5 -32.5h-5q-23 -21 -53 -40l6 -9q24 3 39 3q35 0 59.5 -17t24.5 -47q0 -47 -40.5 -73.5t-99.5 -26.5q-46 0 -89 13l6 37q45 -18 85 -18q38 0 61 16.5t23 45.5q0 30 -34.5 41t-101.5 9l66 69
q-99 12 -158 71t-59 167h93q3 -84 58.5 -121.5t137.5 -37.5q89 0 143 42.5t54 118.5q0 41 -25 65.5t-62.5 37t-98.5 25.5q-69 15 -112 30t-72.5 46.5t-29.5 85.5q0 74 38.5 131t105 88t147.5 31q105 0 171.5 -54.5t66.5 -165.5h-89q-3 73 -49 105.5t-116 32.5
q-80 0 -130 -38t-50 -103q0 -35 23 -56.5t57 -33t93 -24.5q73 -16 118.5 -32.5z" />
    <glyph glyph-name="scedilla" unicode="&#x15f;" horiz-adv-x="557" 
d="M399 301q38 -13 64 -39.5t26 -71.5q0 -61 -32.5 -106.5t-88.5 -69.5t-125 -24h-1q-23 -21 -53 -40l6 -9q24 3 39 3q35 0 59.5 -17t24.5 -47q0 -47 -40.5 -73.5t-99.5 -26.5q-46 0 -89 13l6 37q45 -18 85 -18q38 0 61 16.5t23 45.5q0 30 -34.5 41t-101.5 9l66 69
q-81 11 -124.5 59.5t-43.5 125.5h89q2 -53 37 -83t106 -30q62 0 102.5 26t40.5 73q0 38 -35.5 56t-103.5 31q-56 11 -91.5 23t-60 37t-24.5 67q0 55 31.5 97t84.5 65t116 23q90 0 141 -46.5t51 -129.5h-79q-3 51 -36.5 76t-90.5 25q-59 0 -94.5 -24t-35.5 -65
q0 -33 32.5 -47.5t97.5 -27.5q57 -10 95 -23z" />
    <glyph glyph-name="Scaron" unicode="&#x160;" horiz-adv-x="673" 
d="M108.5 49.5q-74.5 59.5 -74.5 181.5h93q3 -84 58.5 -121.5t137.5 -37.5q89 0 143 42.5t54 118.5q0 41 -25 65.5t-62.5 37t-98.5 25.5q-69 15 -112 30t-72.5 46.5t-29.5 85.5q0 74 38.5 131t105 88t147.5 31q105 0 171.5 -54.5t66.5 -165.5h-89q-3 73 -49 105.5t-116 32.5
q-80 0 -130 -38t-50 -103q0 -35 23 -56.5t57 -33t93 -24.5q73 -16 118.5 -32.5t77 -51.5t31.5 -95q0 -81 -40 -141.5t-110.5 -93t-160.5 -32.5q-121 0 -195.5 59.5zM436 804h-14l-132 170h98l55 -87l87 87h98z" />
    <glyph glyph-name="scaron" unicode="&#x161;" horiz-adv-x="557" 
d="M82.5 40q-56.5 50 -56.5 138h89q2 -53 37 -83t106 -30q62 0 102.5 26t40.5 73q0 38 -35.5 56t-103.5 31q-56 11 -91.5 23t-60 37t-24.5 67q0 55 31.5 97t84.5 65t116 23q90 0 141 -46.5t51 -129.5h-79q-3 51 -36.5 76t-90.5 25q-59 0 -94.5 -24t-35.5 -65
q0 -33 32.5 -47.5t97.5 -27.5q57 -10 95 -23t64 -39.5t26 -71.5q0 -61 -32.5 -106.5t-88.5 -69.5t-125 -24q-104 0 -160.5 50zM342 594h-14l-132 170h98l55 -87l87 87h98z" />
    <glyph glyph-name="uni0162" unicode="&#x162;" horiz-adv-x="637" 
d="M100 763h609l-15 -83h-259l-120 -680h-22q-34 -31 -64 -50l6 -9q24 3 39 3q35 0 59.5 -17t24.5 -47q0 -47 -40.5 -73.5t-99.5 -26.5q-46 0 -89 13l6 37q45 -18 85 -18q38 0 61 16.5t23 45.5q0 30 -34.5 41t-101.5 9l73 76h-18l120 680h-258z" />
    <glyph glyph-name="uni0163" unicode="&#x163;" horiz-adv-x="361" 
d="M237 478l-57 -322q-5 -23 -5 -38q0 -22 12.5 -32.5t43.5 -10.5h57l-13 -75h-77q-12 0 -18 1q-26 -26 -65 -51l6 -9q24 3 39 3q35 0 59.5 -17t24.5 -47q0 -47 -40.5 -73.5t-99.5 -26.5q-46 0 -89 13l6 37q45 -18 85 -18q38 0 61 16.5t23 45.5q0 30 -34.5 41t-101.5 9
l81 85q-24 9 -36 28.5t-12 53.5q0 18 5 48l60 339h-89l13 75h89l37 210h85l-37 -210h124l-13 -75h-124z" />
    <glyph glyph-name="Tcaron" unicode="&#x164;" horiz-adv-x="637" 
d="M315 0h-92l120 680h-258l15 83h609l-15 -83h-259zM419 804h-14l-132 170h98l55 -87l87 87h98z" />
    <glyph glyph-name="tcaron" unicode="&#x165;" horiz-adv-x="361" 
d="M198 0q-55 0 -83 20t-28 71q0 18 5 48l60 339h-89l13 75h89l37 210h85l-37 -210h124l-13 -75h-124l-57 -322q-5 -23 -5 -38q0 -22 12.5 -32.5t43.5 -10.5h57l-13 -75h-77zM348 676q47 7 77 35.5t38 72.5q3 15 3 30q-18 -22 -49 -22q-19 0 -31 12t-12 33q0 31 22 52t54 21
q33 0 50.5 -22t17.5 -61q0 -15 -3 -33q-11 -61 -55.5 -108t-119.5 -55z" />
    <glyph glyph-name="Umacron" unicode="&#x16a;" horiz-adv-x="711" 
d="M123 43q-60 53 -60 151q0 26 7 70l88 499h92l-88 -499q-5 -30 -5 -52q0 -68 40 -104t122 -36q97 0 153 50t72 142l88 499h92l-88 -499q-23 -130 -107 -202t-225 -72q-121 0 -181 53zM608 870h-296l7 43h296z" />
    <glyph glyph-name="umacron" unicode="&#x16b;" horiz-adv-x="578" 
d="M60 77q-9 26 -9 62q0 31 8 81l59 333h85l-59 -333q-6 -34 -6 -60q0 -41 16 -64q22 -31 80 -31q62 0 108 41q32 29 52 77.5t35 133.5l42 236h85l-98 -553h-85l15 86q-49 -51 -91 -73.5t-90 -22.5q-117 0 -147 87zM505 660h-296l7 43h296z" />
    <glyph glyph-name="Uring" unicode="&#x16e;" horiz-adv-x="711" 
d="M123 43q-60 53 -60 151q0 26 7 70l88 499h92l-88 -499q-5 -30 -5 -52q0 -68 40 -104t122 -36q97 0 153 50t72 142l88 499h92l-88 -499q-23 -130 -107 -202t-225 -72q-121 0 -181 53zM373.5 819q-27.5 28 -27.5 70q0 37 20 69t52 51t68 19q44 0 73 -28t29 -71
q0 -36 -20 -67.5t-53.5 -51t-69.5 -19.5q-44 0 -71.5 28zM503.5 873q20.5 20 20.5 49q0 20 -13 32.5t-35 12.5q-27 0 -47 -19.5t-20 -46.5q0 -21 13.5 -34.5t33.5 -13.5q27 0 47.5 20z" />
    <glyph glyph-name="uring" unicode="&#x16f;" horiz-adv-x="578" 
d="M60 77q-9 26 -9 62q0 31 8 81l59 333h85l-59 -333q-6 -34 -6 -60q0 -41 16 -64q22 -31 80 -31q62 0 108 41q32 29 52 77.5t35 133.5l42 236h85l-98 -553h-85l15 86q-49 -51 -91 -73.5t-90 -22.5q-117 0 -147 87zM270.5 609q-27.5 28 -27.5 70q0 37 20 69t52 51t68 19
q44 0 73 -28t29 -71q0 -36 -20 -67.5t-53.5 -51t-69.5 -19.5q-44 0 -71.5 28zM400.5 663q20.5 20 20.5 49q0 20 -13 32.5t-35 12.5q-27 0 -47 -19.5t-20 -46.5q0 -21 13.5 -34.5t33.5 -13.5q27 0 47.5 20z" />
    <glyph glyph-name="Uhungarumlaut" unicode="&#x170;" horiz-adv-x="711" 
d="M123 43q-60 53 -60 151q0 26 7 70l88 499h92l-88 -499q-5 -30 -5 -52q0 -68 40 -104t122 -36q97 0 153 50t72 142l88 499h92l-88 -499q-23 -130 -107 -202t-225 -72q-121 0 -181 53zM399 821h-78l143 152h105zM582 821h-79l145 152h110z" />
    <glyph glyph-name="uhungarumlaut" unicode="&#x171;" horiz-adv-x="578" 
d="M60 77q-9 26 -9 62q0 31 8 81l59 333h85l-59 -333q-6 -34 -6 -60q0 -41 16 -64q22 -31 80 -31q62 0 108 41q32 29 52 77.5t35 133.5l42 236h85l-98 -553h-85l15 86q-49 -51 -91 -73.5t-90 -22.5q-117 0 -147 87zM296 611h-78l143 152h105zM479 611h-79l145 152h110z" />
    <glyph glyph-name="Uogonek" unicode="&#x172;" horiz-adv-x="711" 
d="M632 763h92l-88 -499q-20 -110 -83 -179t-168 -88q-54 -38 -80 -65t-26 -58q0 -18 11.5 -28.5t33.5 -10.5q19 0 37 6l-9 -54q-29 -7 -53 -7q-41 0 -64.5 20t-23.5 54q0 45 30.5 76t95.5 55l1 6q-11 -1 -34 -1q-121 0 -181 53t-60 151q0 26 7 70l88 499h92l-88 -499
q-5 -30 -5 -52q0 -68 40 -104t122 -36q97 0 153 50t72 142z" />
    <glyph glyph-name="uogonek" unicode="&#x173;" horiz-adv-x="578" 
d="M458 0q-56 -40 -83 -67t-27 -59q0 -18 11.5 -28.5t33.5 -10.5q19 0 37 6l-9 -54q-29 -7 -53 -7q-41 0 -64.5 20t-23.5 54q0 45 30.5 76t95.5 55l2 15h-35l15 86q-49 -51 -91 -73.5t-90 -22.5q-117 0 -147 87q-9 26 -9 62q0 31 8 81l59 333h85l-59 -333q-6 -34 -6 -60
q0 -41 16 -64q22 -31 80 -31q62 0 108 41q32 29 52 77.5t35 133.5l42 236h85z" />
    <glyph glyph-name="Wcircumflex" unicode="&#x174;" horiz-adv-x="1074" 
d="M301 0h-104l-91 763h89l78 -631l299 631h88l77 -632l300 632h103l-361 -763h-104l-79 613zM562 828h-98l192 170h14l132 -170h-98l-55 87z" />
    <glyph glyph-name="wcircumflex" unicode="&#x175;" horiz-adv-x="820" 
d="M217 0h-79l-64 553h88l43 -415l212 415h77l66 -415l190 415h94l-262 -553h-79l-65 433zM399 618h-98l192 170h14l132 -170h-98l-55 87z" />
    <glyph glyph-name="Ycircumflex" unicode="&#x176;" horiz-adv-x="674" 
d="M337 0h-96l52 292l-203 471h100l158 -380l295 380h112l-366 -471zM363 828h-98l192 170h14l132 -170h-98l-55 87z" />
    <glyph glyph-name="ycircumflex" unicode="&#x177;" horiz-adv-x="549" 
d="M-15 -210l14 78h52q25 0 39 3.5t26 15.5t26 39l45 82l-120 545h89l92 -429l232 429h97l-362 -664q-32 -59 -64 -79t-84 -20h-82zM263 618h-98l192 170h14l132 -170h-98l-55 87z" />
    <glyph glyph-name="Ydieresis" unicode="&#x178;" horiz-adv-x="674" 
d="M337 0h-96l52 292l-203 471h100l158 -380l295 380h112l-366 -471zM295 824.5q-14 13.5 -14 34.5q0 27 22 47t49 20q21 0 34.5 -14t13.5 -34q0 -26 -21.5 -46.5t-47.5 -20.5q-22 0 -36 13.5zM495 824.5q-14 13.5 -14 34.5q0 27 22 47t49 20q21 0 34.5 -14t13.5 -34
q0 -26 -21.5 -46.5t-47.5 -20.5q-22 0 -36 13.5z" />
    <glyph glyph-name="Zacute" unicode="&#x179;" horiz-adv-x="634" 
d="M552 0h-572l12 67l557 613h-425l15 83h549l-12 -69l-553 -611h444zM446 821h-78l144 152h104z" />
    <glyph glyph-name="zacute" unicode="&#x17a;" horiz-adv-x="533" 
d="M445 0h-460l13 72l432 406h-341l13 75h444l-14 -80l-424 -398h350zM359 611h-78l144 152h104z" />
    <glyph glyph-name="Zdotaccent" unicode="&#x17b;" horiz-adv-x="634" 
d="M552 0h-572l12 67l557 613h-425l15 83h549l-12 -69l-553 -611h444zM376 824.5q-14 13.5 -14 34.5q0 27 22 47t49 20q21 0 34.5 -14t13.5 -34q0 -26 -21.5 -46.5t-47.5 -20.5q-22 0 -36 13.5z" />
    <glyph glyph-name="zdotaccent" unicode="&#x17c;" horiz-adv-x="533" 
d="M445 0h-460l13 72l432 406h-341l13 75h444l-14 -80l-424 -398h350zM294.5 662.5q-15.5 14.5 -15.5 36.5q0 29 23.5 51.5t53.5 22.5q24 0 39.5 -15t15.5 -37q0 -29 -23.5 -51t-53.5 -22q-24 0 -39.5 14.5z" />
    <glyph glyph-name="Zcaron" unicode="&#x17d;" horiz-adv-x="634" 
d="M552 0h-572l12 67l557 613h-425l15 83h549l-12 -69l-553 -611h444zM418 804h-14l-132 170h98l55 -87l87 87h98z" />
    <glyph glyph-name="zcaron" unicode="&#x17e;" horiz-adv-x="533" 
d="M445 0h-460l13 72l432 406h-341l13 75h444l-14 -80l-424 -398h350zM331 594h-14l-132 170h98l55 -87l87 87h98z" />
    <glyph glyph-name="florin" unicode="&#x192;" horiz-adv-x="454" 
d="M-23 -210l13 75h48q37 0 60.5 21t32.5 71l92 521h-124l13 75h124l11 63q26 147 165 147h70l-13 -75h-51q-38 0 -58.5 -18t-29.5 -67l-9 -50h124l-13 -75h-124l-96 -541q-13 -73 -55.5 -110t-112.5 -37h-67z" />
    <glyph glyph-name="AEacute" unicode="&#x1fc;" horiz-adv-x="1072" 
d="M63 0h-98l416 763h482l16 -83h-377l49 -256h377l15 -82h-376l49 -259h377l16 -83h-470l-30 187h-346zM422 672l-213 -403h284zM664 821h-78l144 152h104z" />
    <glyph glyph-name="aeacute" unicode="&#x1fd;" horiz-adv-x="1009" 
d="M509 260q-1 -8 -1 -25q0 -47 18.5 -85.5t53 -61.5t79.5 -23q60 0 108.5 32t76.5 81h91q-43 -84 -117 -136t-172 -52q-75 0 -128.5 35t-77.5 95h-10q-49 -72 -113 -101t-140 -29q-73 0 -114 33t-41 92q0 82 57.5 131t155.5 67l204 38q4 17 4 36q0 38 -20 63q-32 38 -96 38
q-51 0 -93.5 -27.5t-60.5 -73.5h-85q29 83 100 129.5t154 46.5q49 0 88 -14.5t63 -42.5q17 -20 25 -46q45 48 103.5 75.5t124.5 27.5q63 0 113.5 -25t80.5 -73t30 -116q-1 -32 -11 -89h-450zM530 335h351q1 7 1 23q0 59 -42 94.5t-106 35.5q-55 0 -101 -25.5t-77 -73.5
q-15 -24 -26 -54zM384.5 161q30.5 48 43.5 121l-186 -36q-63 -12 -97.5 -38.5t-34.5 -73.5q0 -32 24 -50.5t67 -18.5q52 0 91 19q62 29 92.5 77zM596 611h-78l144 152h104z" />
    <glyph glyph-name="Oslashacute" unicode="&#x1fe;" horiz-adv-x="811" 
d="M832 690l-76 -64q31 -66 31 -153q0 -131 -55.5 -241.5t-154.5 -176t-224 -65.5q-79 0 -137 25.5t-94 71.5l-70 -59l-37 45l76 64q-31 66 -31 152q0 131 55 242t154 176.5t223 65.5q155 0 233 -97l70 60zM168 203l483 410q-57 77 -174 77q-96 0 -170 -53.5t-114 -143
t-40 -191.5q0 -55 15 -99zM679 560l-483 -410q57 -77 172 -77q97 0 171 53.5t114.5 142.5t40.5 192q0 56 -15 99zM533 821h-78l144 152h104z" />
    <glyph glyph-name="oslashacute" unicode="&#x1ff;" horiz-adv-x="639" 
d="M618 492l-48 -41q25 -50 25 -113q0 -91 -43.5 -171.5t-119 -128.5t-165.5 -48q-104 0 -165 64l-46 -39l-37 45l50 42q-26 50 -26 116q0 92 43.5 171t118.5 126.5t164 47.5q52 0 94 -16.5t72 -47.5l46 39zM140 163l327 278q-42 47 -112 47q-62 0 -114 -36t-82 -95
t-30 -125q0 -36 11 -69zM497 389l-327 -277q42 -47 111 -47q62 0 114 36.5t82.5 96.5t30.5 125q0 35 -11 66zM410 611h-78l144 152h104z" />
    <glyph glyph-name="uni0218" unicode="&#x218;" horiz-adv-x="673" 
d="M108.5 49.5q-74.5 59.5 -74.5 181.5h93q3 -84 58.5 -121.5t137.5 -37.5q89 0 143 42.5t54 118.5q0 41 -25 65.5t-62.5 37t-98.5 25.5q-69 15 -112 30t-72.5 46.5t-29.5 85.5q0 74 38.5 131t105 88t147.5 31q105 0 171.5 -54.5t66.5 -165.5h-89q-3 73 -49 105.5t-116 32.5
q-80 0 -130 -38t-50 -103q0 -35 23 -56.5t57 -33t93 -24.5q73 -16 118.5 -32.5t77 -51.5t31.5 -95q0 -81 -40 -141.5t-110.5 -93t-160.5 -32.5q-121 0 -195.5 59.5zM207 -181q37 0 58.5 11t25.5 31q0 1 0.5 3.5t-0.5 6.5h-10q-1 -8 -9.5 -13t-19.5 -5q-18 0 -27.5 13
t-6.5 33q5 22 21.5 35.5t38.5 13.5q27 0 42.5 -15t15.5 -41q0 -48 -34.5 -75t-99.5 -27z" />
    <glyph glyph-name="uni0219" unicode="&#x219;" horiz-adv-x="557" 
d="M82.5 40q-56.5 50 -56.5 138h89q2 -53 37 -83t106 -30q62 0 102.5 26t40.5 73q0 38 -35.5 56t-103.5 31q-56 11 -91.5 23t-60 37t-24.5 67q0 55 31.5 97t84.5 65t116 23q90 0 141 -46.5t51 -129.5h-79q-3 51 -36.5 76t-90.5 25q-59 0 -94.5 -24t-35.5 -65
q0 -33 32.5 -47.5t97.5 -27.5q57 -10 95 -23t64 -39.5t26 -71.5q0 -61 -32.5 -106.5t-88.5 -69.5t-125 -24q-104 0 -160.5 50zM150 -181q37 0 58.5 11t25.5 31q0 1 0.5 3.5t-0.5 6.5h-10q-1 -8 -9.5 -13t-19.5 -5q-18 0 -27.5 13t-6.5 33q5 22 21.5 35.5t38.5 13.5
q27 0 42.5 -15t15.5 -41q0 -48 -34.5 -75t-99.5 -27z" />
    <glyph glyph-name="uni021A" unicode="&#x21a;" horiz-adv-x="637" 
d="M315 0h-92l120 680h-258l15 83h609l-15 -83h-259zM190 -181q37 0 58.5 11t25.5 31q0 1 0.5 3.5t-0.5 6.5h-10q-1 -8 -9.5 -13t-19.5 -5q-18 0 -27.5 13t-6.5 33q5 22 21.5 35.5t38.5 13.5q27 0 42.5 -15t15.5 -41q0 -48 -34.5 -75t-99.5 -27z" />
    <glyph glyph-name="uni021B" unicode="&#x21b;" horiz-adv-x="361" 
d="M198 0q-55 0 -83 20t-28 71q0 18 5 48l60 339h-89l13 75h89l37 210h85l-37 -210h124l-13 -75h-124l-57 -322q-5 -23 -5 -38q0 -22 12.5 -32.5t43.5 -10.5h57l-13 -75h-77zM76 -181q37 0 58.5 11t25.5 31q0 1 0.5 3.5t-0.5 6.5h-10q-1 -8 -9.5 -13t-19.5 -5
q-18 0 -27.5 13t-6.5 33q5 22 21.5 35.5t38.5 13.5q27 0 42.5 -15t15.5 -41q0 -48 -34.5 -75t-99.5 -27z" />
    <glyph glyph-name="uni0237" unicode="&#x237;" horiz-adv-x="228" 
d="M-144 -210l14 78h52q38 0 61.5 18t31.5 66l106 601h85l-108 -612q-13 -75 -56 -113t-114 -38h-72z" />
    <glyph glyph-name="circumflex" unicode="&#x2c6;" horiz-adv-x="366" 
d="M172 618h-98l192 170h14l132 -170h-98l-55 87z" />
    <glyph glyph-name="caron" unicode="&#x2c7;" horiz-adv-x="366" 
d="M246 594h-14l-132 170h98l55 -87l87 87h98z" />
    <glyph glyph-name="breve" unicode="&#x2d8;" horiz-adv-x="362" 
d="M133.5 644.5q-35.5 32.5 -35.5 91.5q0 9 2 27h62q-4 -44 20 -67t69 -23q44 0 75.5 23t43.5 67h64q-17 -71 -67.5 -111t-126.5 -40q-71 0 -106.5 32.5z" />
    <glyph glyph-name="dotaccent" unicode="&#x2d9;" horiz-adv-x="158" 
d="M104.5 662.5q-15.5 14.5 -15.5 36.5q0 29 23.5 51.5t53.5 22.5q24 0 39.5 -15t15.5 -37q0 -29 -23.5 -51t-53.5 -22q-24 0 -39.5 14.5z" />
    <glyph glyph-name="ring" unicode="&#x2da;" horiz-adv-x="267" 
d="M114.5 609q-27.5 28 -27.5 70q0 37 20 69t52 51t68 19q44 0 73 -28t29 -71q0 -36 -20 -67.5t-53.5 -51t-69.5 -19.5q-44 0 -71.5 28zM244.5 663q20.5 20 20.5 49q0 20 -13 32.5t-35 12.5q-27 0 -47 -19.5t-20 -46.5q0 -21 13.5 -34.5t33.5 -13.5q27 0 47.5 20z" />
    <glyph glyph-name="ogonek" unicode="&#x2db;" horiz-adv-x="182" 
d="M-35.5 -200q-23.5 20 -23.5 54q0 45 30.5 76t95.5 55l2 15h50q-56 -40 -83 -67t-27 -59q0 -18 11.5 -28.5t33.5 -10.5q19 0 37 6l-9 -54q-29 -7 -53 -7q-41 0 -64.5 20z" />
    <glyph glyph-name="tilde" unicode="&#x2dc;" horiz-adv-x="387" 
d="M273 626q-18 13 -36 38q-10 15 -19 23t-21 8q-37 0 -56 -78h-67q16 71 53 111t87 40q30 0 46.5 -13t34.5 -37q13 -17 21.5 -24.5t21.5 -7.5q16 0 29.5 19t22.5 58h69q-18 -76 -50.5 -113t-84.5 -37q-33 0 -51 13z" />
    <glyph glyph-name="hungarumlaut" unicode="&#x2dd;" horiz-adv-x="438" 
d="M151 611h-78l143 152h105zM334 611h-79l145 152h110z" />
    <glyph glyph-name="gravecomb" unicode="&#x300;" 
d="M45 611h-78l-116 152h104z" />
    <glyph glyph-name="acutecomb" unicode="&#x301;" 
d="M-98 611h-78l144 152h104z" />
    <glyph glyph-name="uni0302" unicode="&#x302;" 
d="M-194 618h-98l192 170h14l132 -170h-98l-55 87z" />
    <glyph glyph-name="tildecomb" unicode="&#x303;" 
d="M-114 626q-18 13 -36 38q-10 15 -19 23t-21 8q-37 0 -56 -78h-67q16 71 53 111t87 40q30 0 46.5 -13t34.5 -37q13 -17 21.5 -24.5t21.5 -7.5q16 0 29.5 19t22.5 58h69q-18 -76 -50.5 -113t-84.5 -37q-33 0 -51 13z" />
    <glyph glyph-name="uni0304" unicode="&#x304;" 
d="M54 660h-296l7 43h296z" />
    <glyph glyph-name="uni0306" unicode="&#x306;" 
d="M-228.5 644.5q-35.5 32.5 -35.5 91.5q0 9 2 27h62q-4 -44 20 -67t69 -23q44 0 75.5 23t43.5 67h64q-17 -71 -67.5 -111t-126.5 -40q-71 0 -106.5 32.5z" />
    <glyph glyph-name="uni0307" unicode="&#x307;" 
d="M-53.5 662.5q-15.5 14.5 -15.5 36.5q0 29 23.5 51.5t53.5 22.5q24 0 39.5 -15t15.5 -37q0 -29 -23.5 -51t-53.5 -22q-24 0 -39.5 14.5z" />
    <glyph glyph-name="uni0308" unicode="&#x308;" 
d="M-253.5 662.5q-15.5 14.5 -15.5 36.5q0 29 23.5 51.5t53.5 22.5q24 0 39.5 -15t15.5 -37q0 -29 -23.5 -51t-53.5 -22q-24 0 -39.5 14.5zM-53.5 662.5q-15.5 14.5 -15.5 36.5q0 29 23.5 51.5t53.5 22.5q24 0 39.5 -15t15.5 -37q0 -29 -23.5 -51t-53.5 -22
q-24 0 -39.5 14.5z" />
    <glyph glyph-name="uni030A" unicode="&#x30a;" 
d="M-152.5 609q-27.5 28 -27.5 70q0 37 20 69t52 51t68 19q44 0 73 -28t29 -71q0 -36 -20 -67.5t-53.5 -51t-69.5 -19.5q-44 0 -71.5 28zM-22.5 663q20.5 20 20.5 49q0 20 -13 32.5t-35 12.5q-27 0 -47 -19.5t-20 -46.5q0 -21 13.5 -34.5t33.5 -13.5q27 0 47.5 20z" />
    <glyph glyph-name="uni030B" unicode="&#x30b;" 
d="M-287 611h-78l143 152h105zM-104 611h-79l145 152h110z" />
    <glyph glyph-name="uni030C" unicode="&#x30c;" 
d="M-120 594h-14l-132 170h98l55 -87l87 87h98z" />
    <glyph glyph-name="uni030F" unicode="&#x30f;" 
d="M-141 599h-58l-109 164h80zM43 599h-59l-104 164h75z" />
    <glyph glyph-name="uni0312" unicode="&#x312;" 
d="M-50.5 615.5q-14.5 16.5 -14.5 45.5q0 30 15.5 60t47 52t77.5 26l-6 -32q-38 -4 -62 -25t-29 -52q-1 -8 -1 -22q13 16 39 16q15 0 25 -8.5t10 -23.5q0 -22 -17 -37.5t-43 -15.5q-27 0 -41.5 16.5z" />
    <glyph glyph-name="uni031B" unicode="&#x31b;" 
d="M-107 592q95 0 115 113l10 58h54l-10 -53q-13 -78 -57.5 -121.5t-120.5 -43.5z" />
    <glyph glyph-name="uni0326" unicode="&#x326;" 
d="M-213 -181q37 0 58.5 11t25.5 31q0 1 0.5 3.5t-0.5 6.5h-10q-1 -8 -9.5 -13t-19.5 -5q-18 0 -27.5 13t-6.5 33q5 22 21.5 35.5t38.5 13.5q27 0 42.5 -15t15.5 -41q0 -48 -34.5 -75t-99.5 -27z" />
    <glyph glyph-name="uni0327" unicode="&#x327;" 
d="M-314 -207l6 37q45 -18 85 -18q38 0 61 16.5t23 45.5q0 30 -34.5 41t-101.5 9l86 90h54q-3 -3 -23 -22t-56 -42l6 -9q24 3 39 3q35 0 59.5 -17t24.5 -47q0 -47 -40.5 -73.5t-99.5 -26.5q-46 0 -89 13z" />
    <glyph glyph-name="uni0328" unicode="&#x328;" 
d="M-217.5 -200q-23.5 20 -23.5 54q0 45 30.5 76t95.5 55l2 15h50q-56 -40 -83 -67t-27 -59q0 -18 11.5 -28.5t33.5 -10.5q19 0 37 6l-9 -54q-29 -7 -53 -7q-41 0 -64.5 20z" />
    <glyph glyph-name="uni0337" unicode="&#x337;" 
d="M6 391l-240 -114l11 60l240 114z" />
    <glyph glyph-name="uni0338" unicode="&#x338;" 
d="M26 505l-562 -477l-37 45l562 478z" />
    <glyph glyph-name="uni0394" unicode="&#x394;" horiz-adv-x="694" 
d="M631 0h-666l416 763h104zM416 670l-314 -585h421z" />
    <glyph glyph-name="pi" unicode="&#x3c0;" horiz-adv-x="576" 
d="M49 0l85 478h-77l13 75h524l-13 -75h-102l-56 -315q-6 -31 -6 -50q0 -23 11.5 -30.5t40.5 -7.5h40l-13 -75h-56q-56 0 -83.5 20t-27.5 71q0 22 4 45l61 342h-175l-85 -478h-85z" />
    <glyph glyph-name="Wgrave" unicode="&#x1e80;" horiz-adv-x="1074" 
d="M301 0h-104l-91 763h89l78 -631l299 631h88l77 -632l300 632h103l-361 -763h-104l-79 613zM678 821h-78l-116 152h104z" />
    <glyph glyph-name="wgrave" unicode="&#x1e81;" horiz-adv-x="820" 
d="M217 0h-79l-64 553h88l43 -415l212 415h77l66 -415l190 415h94l-262 -553h-79l-65 433zM515 611h-78l-116 152h104z" />
    <glyph glyph-name="Wacute" unicode="&#x1e82;" horiz-adv-x="1074" 
d="M301 0h-104l-91 763h89l78 -631l299 631h88l77 -632l300 632h103l-361 -763h-104l-79 613zM664 821h-78l144 152h104z" />
    <glyph glyph-name="wacute" unicode="&#x1e83;" horiz-adv-x="820" 
d="M217 0h-79l-64 553h88l43 -415l212 415h77l66 -415l190 415h94l-262 -553h-79l-65 433zM501 611h-78l144 152h104z" />
    <glyph glyph-name="Wdieresis" unicode="&#x1e84;" horiz-adv-x="1074" 
d="M301 0h-104l-91 763h89l78 -631l299 631h88l77 -632l300 632h103l-361 -763h-104l-79 613zM494 824.5q-14 13.5 -14 34.5q0 27 22 47t49 20q21 0 34.5 -14t13.5 -34q0 -26 -21.5 -46.5t-47.5 -20.5q-22 0 -36 13.5zM694 824.5q-14 13.5 -14 34.5q0 27 22 47t49 20
q21 0 34.5 -14t13.5 -34q0 -26 -21.5 -46.5t-47.5 -20.5q-22 0 -36 13.5z" />
    <glyph glyph-name="wdieresis" unicode="&#x1e85;" horiz-adv-x="820" 
d="M217 0h-79l-64 553h88l43 -415l212 415h77l66 -415l190 415h94l-262 -553h-79l-65 433zM336.5 662.5q-15.5 14.5 -15.5 36.5q0 29 23.5 51.5t53.5 22.5q24 0 39.5 -15t15.5 -37q0 -29 -23.5 -51t-53.5 -22q-24 0 -39.5 14.5zM536.5 662.5q-15.5 14.5 -15.5 36.5
q0 29 23.5 51.5t53.5 22.5q24 0 39.5 -15t15.5 -37q0 -29 -23.5 -51t-53.5 -22q-24 0 -39.5 14.5z" />
    <glyph glyph-name="uni1E9E" unicode="&#x1e9e;" horiz-adv-x="691" 
d="M120 507q26 149 123 215q73 51 182 51q76 0 126.5 -24t96.5 -74l-13 -75l-196 -166q33 0 56 -4q68 -13 103 -54t35 -108q0 -85 -39 -145.5t-107.5 -91.5t-157.5 -31h-107l15 83h97q97 0 151.5 42t54.5 132q0 66 -42 84.5t-95 18.5h-48l21 121l185 155q-25 27 -64 40.5
t-87 13.5q-75 0 -122 -36q-28 -21 -47 -56t-29 -91l-90 -507h-92z" />
    <glyph glyph-name="Ygrave" unicode="&#x1ef2;" horiz-adv-x="674" 
d="M337 0h-96l52 292l-203 471h100l158 -380l295 380h112l-366 -471zM479 821h-78l-116 152h104z" />
    <glyph glyph-name="ygrave" unicode="&#x1ef3;" horiz-adv-x="549" 
d="M-15 -210l14 78h52q25 0 39 3.5t26 15.5t26 39l45 82l-120 545h89l92 -429l232 429h97l-362 -664q-32 -59 -64 -79t-84 -20h-82zM379 611h-78l-116 152h104z" />
    <glyph glyph-name="endash" unicode="&#x2013;" horiz-adv-x="545" 
d="M527 302h-501l12 64h501z" />
    <glyph glyph-name="emdash" unicode="&#x2014;" horiz-adv-x="1106" 
d="M1110 302h-1106l12 64h1106z" />
    <glyph glyph-name="uni2015" unicode="&#x2015;" horiz-adv-x="795" 
d="M731 310h-655l9 54h655z" />
    <glyph glyph-name="quoteleft" unicode="&#x2018;" horiz-adv-x="288" 
d="M138.5 515q-17.5 22 -17.5 60q0 50 22.5 93t63 71t91.5 33l-8 -45q-54 -8 -86 -45.5t-31 -92.5q18 22 49 22q19 0 31 -12t12 -33q0 -31 -22 -52t-54 -21q-33 0 -50.5 22z" />
    <glyph glyph-name="quoteright" unicode="&#x2019;" horiz-adv-x="289" 
d="M123 539q56 8 87.5 46.5t30.5 91.5q-18 -22 -49 -22q-19 0 -31 12t-12 33q0 31 22 52t54 21q33 0 50.5 -22t17.5 -61q0 -50 -22.5 -92.5t-63.5 -70.5t-92 -33z" />
    <glyph glyph-name="quotesinglbase" unicode="&#x201a;" horiz-adv-x="270" 
d="M-7 -126q56 8 87.5 46.5t29.5 91.5q-16 -22 -49 -22q-18 0 -30 11.5t-12 31.5q0 32 21 53.5t54 21.5t51 -22.5t18 -61.5q0 -49 -23 -91.5t-63.5 -70.5t-91.5 -33z" />
    <glyph glyph-name="quotedblleft" unicode="&#x201c;" horiz-adv-x="486" 
d="M139 514.5q-18 22.5 -18 61.5q0 49 23 91.5t63.5 70.5t91.5 33l-8 -45q-54 -7 -85.5 -45t-31.5 -93q18 22 49 22q19 0 31 -12t12 -33q0 -31 -22 -52t-54 -21q-33 0 -51 22.5zM336 514.5q-18 22.5 -18 61.5q0 49 23 91.5t63.5 70.5t91.5 33l-8 -45q-54 -7 -85.5 -45
t-31.5 -93q18 22 49 22q19 0 31 -12t12 -33q0 -31 -22 -52t-54 -21q-33 0 -51 22.5z" />
    <glyph glyph-name="quotedblright" unicode="&#x201d;" horiz-adv-x="486" 
d="M123 539q56 8 87.5 46.5t30.5 91.5q-18 -22 -49 -22q-19 0 -31 12t-12 33q0 31 22 52t54 21q33 0 50.5 -22t17.5 -61q0 -50 -22.5 -92.5t-63.5 -70.5t-92 -33zM320 539q56 8 87.5 46.5t30.5 91.5q-18 -22 -49 -22q-19 0 -31 12t-12 33q0 31 22 52t54 21q33 0 50.5 -22
t17.5 -61q0 -50 -22.5 -92.5t-63.5 -70.5t-92 -33z" />
    <glyph glyph-name="quotedblbase" unicode="&#x201e;" horiz-adv-x="467" 
d="M-8 -126q55 8 86 46t31 92q-16 -22 -49 -22q-18 0 -30 11.5t-12 31.5q0 32 21 53.5t54 21.5t51 -22.5t18 -61.5q0 -49 -23 -91.5t-63.5 -70.5t-91.5 -33zM189 -126q55 8 86 46t31 92q-16 -22 -49 -22q-18 0 -30 11.5t-12 31.5q0 32 21 53.5t54 21.5t51 -22.5t18 -61.5
q0 -49 -23 -91.5t-63.5 -70.5t-91.5 -33z" />
    <glyph glyph-name="dagger" unicode="&#x2020;" horiz-adv-x="633" 
d="M266 -210h-71l117 660h-242l12 71h242l43 242h71l-43 -242h242l-12 -71h-242z" />
    <glyph glyph-name="bullet" unicode="&#x2022;" horiz-adv-x="415" 
d="M104.5 162.5q-30.5 30.5 -30.5 75.5q0 39 22 74t57.5 55.5t73.5 20.5q47 0 77.5 -30t30.5 -75q0 -40 -21.5 -74.5t-57 -55.5t-74.5 -21q-47 0 -77.5 30.5z" />
    <glyph glyph-name="uni2023" unicode="&#x2023;" horiz-adv-x="428" 
d="M394 273l-312 -163l57 325z" />
    <glyph glyph-name="ellipsis" unicode="&#x2026;" horiz-adv-x="684" 
d="M33.5 4q-14.5 14 -14.5 35q0 27 22 48t50 21q21 0 34.5 -14t13.5 -35q0 -27 -22 -48t-47 -21q-22 0 -36.5 14zM256 4q-14 14 -14 35q0 27 21.5 48t49.5 21q22 0 36 -14t14 -35q0 -27 -22.5 -48t-48.5 -21q-22 0 -36 14zM479 4q-14 14 -14 34q0 28 21.5 49t49.5 21
q21 0 35 -14.5t14 -34.5q0 -27 -22 -48t-48 -21q-22 0 -36 14z" />
    <glyph glyph-name="perthousand" unicode="&#x2030;" horiz-adv-x="1132" 
d="M138 462q-33 38 -33 97q0 55 24.5 104.5t66.5 79.5t93 30q55 0 88 -38t33 -98q0 -53 -24 -102.5t-65.5 -80t-90.5 -30.5q-59 0 -92 38zM163 0h-82l580 763h82zM290 512q23 18 37 48t14 65t-17 57.5t-47 22.5q-45 0 -73.5 -41t-28.5 -93q0 -35 17 -56t50 -21q25 0 48 18z
M447.5 28q-32.5 38 -32.5 98q0 54 24.5 103t66.5 79t92 30q55 0 88 -38t33 -99q0 -54 -24.5 -102.5t-66 -78.5t-89.5 -30q-59 0 -91.5 38zM791.5 28q-32.5 38 -32.5 98q0 54 24.5 103t66.5 79t92 30q55 0 88 -38t33 -99q0 -54 -24.5 -102.5t-66 -78.5t-89.5 -30
q-59 0 -91.5 38zM599 76q23 18 37 48t14 66t-16.5 57.5t-47.5 21.5q-45 0 -73 -40t-28 -94q0 -35 16.5 -56t49.5 -21q25 0 48 18zM943 76q23 18 37 48t14 66t-16.5 57.5t-47.5 21.5q-45 0 -73 -40t-28 -94q0 -35 16.5 -56t49.5 -21q25 0 48 18z" />
    <glyph glyph-name="guilsinglleft" unicode="&#x2039;" horiz-adv-x="306" 
d="M218 165l-13 -75l-184 186l250 186l-14 -75l-149 -112z" />
    <glyph glyph-name="guilsinglright" unicode="&#x203a;" horiz-adv-x="306" 
d="M285 276l-250 -186l13 75l150 110l-111 112l14 75z" />
    <glyph glyph-name="fraction" unicode="&#x2044;" horiz-adv-x="154" 
d="M-161 0h-50l563 763h50z" />
    <glyph glyph-name="Euro" unicode="&#x20ac;" horiz-adv-x="633" 
d="M639 767l-15 -86q-33 9 -72 9q-95 0 -168.5 -53t-114.5 -141h279l-11 -60h-290q-15 -49 -18 -103h290l-11 -60h-279q8 -93 62.5 -146.5t151.5 -53.5q40 0 76 9l-15 -86q-36 -6 -76 -6q-141 0 -214.5 78.5t-78.5 204.5h-83l11 60h74q3 51 17 103h-73l11 60h82
q51 125 155 201t238 76q39 0 72 -6z" />
    <glyph glyph-name="uni2116" unicode="&#x2116;" horiz-adv-x="1265" 
d="M855.5 348q-50.5 52 -50.5 137q0 77 36 143t98.5 105.5t137.5 39.5q86 0 137.5 -52t51.5 -136q0 -76 -36.5 -142.5t-99.5 -106.5t-138 -40q-86 0 -136.5 52zM122 0h-92l135 763h134l224 -671l119 671h91l-135 -763h-134l-224 669zM1098 389q44 31 69.5 80.5t25.5 103.5
q0 61 -34.5 99.5t-92.5 38.5q-52 0 -95.5 -30.5t-68.5 -80t-25 -104.5q0 -62 35 -100t91 -38q51 0 95 31zM1165 127h-401l11 64h401z" />
    <glyph glyph-name="trademark" unicode="&#x2122;" horiz-adv-x="816" 
d="M220 381h-46l60 340h-129l8 42h305l-8 -42h-130zM443 381h-46l68 382h82l45 -325l160 325h83l-68 -382h-46l63 354l-179 -354h-46l-54 352z" />
    <glyph glyph-name="minus" unicode="&#x2212;" horiz-adv-x="635" 
d="M527 304h-409l12 71h409z" />
    <glyph glyph-name="lozenge" unicode="&#x25ca;" horiz-adv-x="623" 
d="M327 0h-129l-135 382l270 381h129l135 -382zM154 383l115 -349l239 349l-116 346z" />
    <glyph glyph-name="uniF8FF" unicode="&#xf8ff;" horiz-adv-x="921" 
d="M39 0q-9 0 -7 10l131 743q2 10 11 10h744q10 0 8 -10l-131 -743q-1 -4 -4 -7t-8 -3h-744zM223 94q13 11 22.5 25t17.5 28q19 36 45 69.5t82 82.5l29 26q5 4 9 4q5 0 8 -3q7 -4 16 -6q9 -3 8 -13l-6 -36q-8 -43 -17.5 -66t-23.5 -48q-14 -21 -17 -37q-2 -14 7 -25t23 -11
q15 0 28 11t15 25q1 4 1 12q0 7 -4 25q-7 28 -7 51q0 32 6 63l6 36q1 9 12 13q13 4 16 6q6 3 9 3q5 0 8 -4l22 -26q40 -48 54 -81.5t20 -69.5q4 -20 8 -31.5t13 -22.5q14 -15 37 -15q26 0 44 15q25 22 25 53q0 19 -10 29q-9 12 -19.5 18t-29.5 12q-35 14 -64.5 33t-68.5 67
l-21 26q-3 3 -3 9l4 7q8 12 11 18q5 11 13 11h36q45 0 68.5 -6t42.5 -16q3 -1 13 -5.5t23 -4.5q16 0 29.5 13.5t13.5 30.5q0 12 -8.5 21t-21.5 9t-25 -4.5t-14 -5.5q-22 -10 -48 -16t-71 -6h-36q-8 0 -10 11q-2 10 -4 15q-2 3 -2 8q3 6 6 8l30 26q57 48 94.5 68.5t74.5 31.5
q4 2 16.5 6.5t22.5 10t19 13.5q25 23 25 52q0 19 -10 30q-13 16 -39 16q-24 0 -42 -15q-13 -11 -21 -22.5t-20 -32.5q-19 -37 -44.5 -70t-82.5 -81l-29 -24q-3 -4 -9 -4q-4 0 -7 2q-6 4 -16 7q-9 3 -8 13l7 36q7 44 17 68t24 45q2 3 8 14.5t8 23.5q3 14 -6 25t-23 11
q-15 0 -28 -11t-16 -25q-1 -4 -1 -11q0 -8 4 -26q8 -24 8 -53q0 -22 -6 -61l-7 -36q-1 -9 -12 -13q-2 -1 -7.5 -2.5t-10.5 -4.5q-3 -2 -8 -2q-6 0 -9 4l-21 24q-40 48 -54.5 82.5t-19.5 69.5q-3 19 -7 31t-13 23q-13 16 -37 16q-22 0 -43 -16q-26 -23 -26 -52q0 -20 10 -31
q9 -11 19.5 -17t28.5 -13q33 -13 63 -33t70 -67l22 -25q3 -5 2 -8q0 -4 -4 -8q-2 -2 -10 -16q-5 -11 -14 -11h-36q-44 0 -68 6t-43 16q-2 1 -12 5.5t-23 4.5q-16 0 -29.5 -13t-13.5 -29q0 -14 8.5 -23t21.5 -9q12 0 23.5 4.5t15.5 5.5q22 10 47.5 16t70.5 6h36q9 0 11 -11
q2 -12 5 -17v-5q0 -6 -5 -11l-31 -27q-56 -49 -93 -68.5t-76 -31.5q-21 -7 -33.5 -13t-25.5 -17q-11 -9 -17.5 -23t-6.5 -28q0 -17 10 -30q13 -16 39 -16q25 0 43 15zM436.5 340.5q-13.5 13.5 -13.5 32.5q0 24 20.5 43.5t44.5 19.5q20 0 32.5 -13t12.5 -32
q0 -25 -19.5 -44.5t-44.5 -19.5q-19 0 -32.5 13.5zM505 354l-5 6q-11 -13 -28 -13q-12 0 -20 8.5t-8 21.5q0 15 12.5 27t27.5 12t25 -13l6 6q-7 15 -29 15q-19 0 -35.5 -15t-16.5 -34q0 -15 10.5 -25.5t26.5 -10.5q22 0 34 15z" />
    <glyph glyph-name="i.loclTRK" horiz-adv-x="227" 
d="M107 0h-85l98 553h85zM140.5 662.5q-15.5 14.5 -15.5 36.5q0 29 23.5 51.5t53.5 22.5q24 0 39.5 -15t15.5 -37q0 -29 -23.5 -51t-53.5 -22q-24 0 -39.5 14.5z" />
    <glyph glyph-name="uni030C.alt" 
d="M-114 539q47 7 77 35.5t38 72.5q3 15 3 30q-18 -22 -49 -22q-19 0 -31 12t-12 33q0 31 22 52t54 21q33 0 50.5 -22t17.5 -61q0 -15 -3 -33q-11 -61 -55.5 -108t-119.5 -55z" />
    <glyph glyph-name="uni0308.case" 
d="M-214 824.5q-14 13.5 -14 34.5q0 27 22 47t49 20q21 0 34.5 -14t13.5 -34q0 -26 -21.5 -46.5t-47.5 -20.5q-22 0 -36 13.5zM-14 824.5q-14 13.5 -14 34.5q0 27 22 47t49 20q21 0 34.5 -14t13.5 -34q0 -26 -21.5 -46.5t-47.5 -20.5q-22 0 -36 13.5z" />
    <glyph glyph-name="uni0307.case" 
d="M-14 824.5q-14 13.5 -14 34.5q0 27 22 47t49 20q21 0 34.5 -14t13.5 -34q0 -26 -21.5 -46.5t-47.5 -20.5q-22 0 -36 13.5z" />
    <glyph glyph-name="uni0328.case" 
d="M-217.5 -200q-23.5 20 -23.5 54q0 45 30.5 76t95.5 55l2 15h50q-56 -40 -83 -67t-27 -59q0 -18 11.5 -28.5t33.5 -10.5q19 0 37 6l-9 -54q-29 -7 -53 -7q-41 0 -64.5 20z" />
    <glyph glyph-name="uni0335.case" 
d="M-9 304h-409l12 71h409z" />
    <glyph glyph-name="uni0337.case" 
d="M13 427l-401 -190l12 69l401 189z" />
    <glyph glyph-name="uni0338.case" 
d="M59 690l-780 -662l-37 45l780 663z" />
    <glyph glyph-name="base_No" horiz-adv-x="495" 
d="M446 0h-481v77h481v-77z" />
    </font>
</defs>
</svg>
