<?xml version="1.0" standalone="no"?>
<!DOCTYPE svg PUBLIC "-//W3C//DTD SVG 1.1//EN" "http://www.w3.org/Graphics/SVG/1.1/DTD/svg11.dtd" >
<svg xmlns="http://www.w3.org/2000/svg" xmlns:xlink="http://www.w3.org/1999/xlink" version="1.1">
<metadata>
Created by FontForge 20170731 at Thu Apr 16 09:52:33 2020
 By Aleksey,,,
Copyright (c) 2020 by Alfredo Marco Pradil. All rights reserved.
</metadata>
<defs>
<font id="OpenSauceOne-Light" horiz-adv-x="0" >
  <font-face 
    font-family="Open Sauce One Light"
    font-weight="300"
    font-stretch="normal"
    units-per-em="1000"
    panose-1="0 0 4 0 0 0 0 0 0 0"
    ascent="763"
    descent="-237"
    x-height="549"
    cap-height="763"
    bbox="-694 -237 1179 1019"
    underline-thickness="50"
    underline-position="-150"
    unicode-range="U+0020-FB02"
  />
<missing-glyph horiz-adv-x="618" 
d="M539 0h-460v549h460v-549zM119 509v-469h380v469h-380z" />
    <glyph glyph-name="fi" unicode="fi" horiz-adv-x="552" 
d="M118 0v491h-92v58h92v62q0 152 138 152h66v-58h-52q-43 0 -65 -18.5t-22 -68.5v-69h139v-58h-139v-491h-65zM480 0h-65v549h65v-549zM413.5 690.5q-14.5 14.5 -14.5 34.5t14.5 34t34.5 14t34.5 -14t14.5 -34t-14.5 -34.5t-34.5 -14.5t-34.5 14.5z" />
    <glyph glyph-name="fl" unicode="fl" horiz-adv-x="606" 
d="M118 0v491h-92v58h92v62q0 152 138 152h66v-58h-52q-43 0 -65 -18.5t-22 -68.5v-69h139v-58h-139v-491h-65zM526 0q-59 0 -86.5 28t-27.5 100v635h65v-625q0 -44 11.5 -62t51.5 -18h36v-58h-50z" />
    <glyph glyph-name="s_a_u_c_e_l_o_g_o.liga" unicode="saucelogo" horiz-adv-x="921" 
d="M88 0q-9 0 -9 10v743q0 10 9 10h744q10 0 10 -10v-743q0 -10 -10 -10h-744zM255 94q11 11 17 22.5t14 31.5q13 36 33 69t67 82l25 26q4 4 8 4t9 -3q7 -4 17 -6q10 -3 10 -13v-36q0 -43 -5.5 -67t-15.5 -47q-10 -20 -10 -37q0 -14 11 -25t25 -11q15 0 26 11t11 25
q0 17 -10 37q-10 23 -15.5 47t-5.5 67v36q0 10 10 13q13 4 15 6q5 3 8 3q5 0 9 -4l26 -26q48 -48 68 -81.5t33 -69.5q6 -19 12 -30.5t18 -23.5q17 -15 40 -15q26 0 41 15q17 17 17 42t-16 40q-12 12 -23.5 18t-30.5 12q-37 13 -70 32.5t-81 67.5l-26 26q-4 4 -4 9q0 3 3 7
q6 12 7 18q3 11 12 11h36q44 0 68.5 -6t46.5 -16q2 -1 13 -5.5t24 -4.5q14 0 25 11t11 26q0 14 -11 25.5t-25 11.5q-13 0 -24 -4.5t-13 -5.5q-22 -10 -46.5 -16t-68.5 -6h-36q-9 0 -12 11q-4 10 -7 15t-3 8q0 4 4 8l26 26q48 48 82 68.5t69 31.5q4 2 16 6.5t21 10t16 13.5
q17 19 17 41q0 24 -17 41q-16 16 -41 16t-40 -15q-11 -11 -17 -22.5t-14 -32.5q-13 -37 -32.5 -70t-67.5 -81l-25 -24q-3 -4 -9 -4q-4 0 -7 2q-5 3 -17 7q-10 3 -10 13v36q0 43 5.5 67t15.5 47q10 20 10 37q0 14 -11 25t-25 11q-15 0 -26 -11t-11 -25q0 -17 10 -37
q10 -23 15.5 -47t5.5 -67v-36q0 -10 -10 -13q-2 -1 -7.5 -2.5t-9.5 -4.5q-3 -2 -7 -2q-6 0 -10 4l-25 24q-49 49 -69.5 83t-31.5 69q-7 19 -13 31t-17 23q-16 16 -40 16q-22 0 -40 -16q-17 -17 -17 -42t16 -41q11 -11 22.5 -17t30.5 -13q36 -13 69 -33t82 -67l26 -25
q4 -4 4 -8q0 -3 -3 -8q-2 -3 -7 -16q-3 -11 -12 -11h-36q-44 0 -68.5 6t-46.5 16q-2 1 -13 5.5t-24 4.5q-14 0 -25 -11.5t-11 -25.5q0 -15 11 -26t25 -11q13 0 24 4.5t13 5.5q22 10 46.5 16t68.5 6h36q9 0 12 -11q5 -12 8 -17q2 -6 2 -7q0 -5 -4 -9l-26 -27
q-48 -49 -81.5 -68.5t-69.5 -31.5q-20 -7 -31.5 -13t-22.5 -17q-16 -15 -16 -40q0 -24 16 -41q16 -16 42 -16q25 0 40 15zM422 343.5q-16 16.5 -16 38.5t16 38t38 16t38 -16t16 -38q0 -23 -16 -39t-38 -16t-38 16.5zM492 354l-6 6q-10 -13 -26 -13q-14 0 -24 10.5t-10 24.5
t10.5 24t23.5 10q16 0 27 -13l5 6q-10 15 -32 15q-17 0 -30 -12.5t-13 -29.5t13 -30t30 -13q22 0 32 15z" />
    <glyph glyph-name=".notdef" horiz-adv-x="618" 
d="M539 0h-460v549h460v-549zM119 509v-469h380v469h-380z" />
    <glyph glyph-name=".null" 
 />
    <glyph glyph-name="nonmarkingreturn" horiz-adv-x="333" 
 />
    <glyph glyph-name="space" unicode=" " horiz-adv-x="280" 
 />
    <glyph glyph-name="exclam" unicode="!" horiz-adv-x="235" 
d="M90 213q0 26 -2 86q-3 150 -3 174v290h65v-290q0 -94 -4 -218l-1 -42h-55zM82 5q-15 15 -15 36q0 20 15 34.5t36 14.5q20 0 34.5 -14.5t14.5 -34.5q0 -21 -14.5 -36t-34.5 -15q-21 0 -36 15z" />
    <glyph glyph-name="quotedbl" unicode="&#x22;" horiz-adv-x="305" 
d="M91 521h-45v242h45v-242zM258 521h-46v242h46v-242z" />
    <glyph glyph-name="numbersign" unicode="#" horiz-adv-x="745" 
d="M191 0h-52l49 233h-136v46h146l45 220h-144v47h154l47 217h51l-47 -219h200l46 219h51l-47 -219h139v-45h-149l-46 -220h149v-46h-158l-48 -233h-52l49 233h-201zM294 499l-45 -220h200l45 220h-200z" />
    <glyph glyph-name="dollar" unicode="$" horiz-adv-x="653" 
d="M539.5 54q-64.5 -60 -184.5 -64v-90h-42v91q-107 6 -180.5 61.5t-89.5 163.5h70q14 -78 68.5 -117t131.5 -46v320q-78 17 -126 35t-81 57t-33 107q0 59 31 104t85.5 70t123.5 27v90h42v-91q91 -8 149.5 -60t74.5 -150h-66q-25 132 -158 147v-279q79 -18 129.5 -38
t85 -62.5t34.5 -116.5q0 -99 -64.5 -159zM185.5 487q43.5 -29 127.5 -48v272q-76 -2 -123.5 -38t-47.5 -96q0 -61 43.5 -90zM355 52q85 3 132.5 44.5t47.5 113.5q0 48 -23.5 78t-61.5 46.5t-95 29.5v-312z" />
    <glyph glyph-name="percent" unicode="%" horiz-adv-x="784" 
d="M119 452.5q-33 24.5 -50 64t-17 84.5q0 44 16.5 83.5t49 64t77.5 24.5q41 0 74 -22.5t51.5 -62t18.5 -87.5q0 -49 -18.5 -88.5t-50.5 -62t-72 -22.5q-46 0 -79 24.5zM210 0h-63l432 763h62zM262 514.5q25 33.5 25 86.5q0 50 -25 85t-67 35q-44 0 -67.5 -36t-23.5 -84
q0 -50 24 -85t70 -35q39 0 64 33.5zM512 14.5q-33 24.5 -50 64t-17 83.5t16.5 83.5t49 64t77.5 24.5q41 0 73.5 -22.5t51.5 -62t19 -88.5t-18.5 -88t-50.5 -61t-72 -22q-46 0 -79 24.5zM654.5 75.5q25.5 33.5 25.5 85.5q0 51 -24.5 86t-67.5 35q-44 0 -67 -35t-23 -85
t23.5 -85t69.5 -35q38 0 63.5 33.5z" />
    <glyph glyph-name="ampersand" unicode="&#x26;" horiz-adv-x="708" 
d="M121.5 39.5q-65.5 49.5 -65.5 137.5q0 75 47 126t144 100q-57 59 -81 100t-24 91q0 54 26 94.5t71 62.5t100 22q51 0 93.5 -21.5t67 -61t24.5 -90.5q0 -61 -52 -117.5t-133 -97.5l185 -222q24 36 41 80t24 130h65q-14 -147 -91 -254l98 -119h-83l-59 73
q-46 -42 -105.5 -62.5t-123.5 -20.5q-103 0 -168.5 49.5zM387.5 480.5q30.5 22.5 51 51.5t20.5 65q0 50 -33.5 84t-86.5 34q-57 0 -94.5 -33.5t-37.5 -84.5q0 -40 22.5 -76.5t73.5 -94.5q54 32 84.5 54.5zM481 119l-199 241q-78 -40 -119.5 -80t-41.5 -100q0 -63 46.5 -97.5
t123.5 -34.5q111 0 190 71z" />
    <glyph glyph-name="quotesingle" unicode="'" horiz-adv-x="137" 
d="M91 521h-45v242h45v-242z" />
    <glyph glyph-name="parenleft" unicode="(" horiz-adv-x="274" 
d="M186 -112q-63 111 -94.5 231t-31.5 261q0 142 31.5 261.5t94.5 230.5h58q-70 -119 -102 -238.5t-32 -253.5t32 -253.5t102 -238.5h-58z" />
    <glyph glyph-name="parenright" unicode=")" horiz-adv-x="274" 
d="M30 -112q70 119 102 238.5t32 253.5t-32 253.5t-102 238.5h58q63 -111 94.5 -230.5t31.5 -261.5q0 -141 -31.5 -261t-94.5 -231h-58z" />
    <glyph glyph-name="asterisk" unicode="*" horiz-adv-x="409" 
d="M80 488q56 65 105 107l-4 13q-14 -1 -38 -1q-47 0 -103 9l23 71q65 -30 121 -62l11 8q-10 33 -15 58t-12 72h73q-7 -47 -12 -72t-15 -58l11 -8q56 32 121 62l23 -71q-56 -9 -103 -9q-24 0 -38 1l-4 -13q49 -42 105 -107l-61 -42q-37 78 -57 141h-14q-23 -69 -59 -141z
" />
    <glyph glyph-name="plus" unicode="+" horiz-adv-x="634" 
d="M346 62h-58v247h-248v58h248v247h58v-247h247v-58h-247v-247z" />
    <glyph glyph-name="comma" unicode="," horiz-adv-x="313" 
d="M93 -135q45 8 68 38t23 76q0 14 -2 29q-16 -18 -39 -18q-24 0 -38.5 13.5t-14.5 35.5q0 23 15 37t40 14q36 0 57 -28.5t21 -77.5q0 -57 -31.5 -101t-98.5 -54v36z" />
    <glyph glyph-name="hyphen" unicode="-" horiz-adv-x="336" 
d="M312 310h-288v56h288v-56z" />
    <glyph glyph-name="period" unicode="." horiz-adv-x="280" 
d="M105 5q-15 15 -15 36q0 20 15.5 34.5t36.5 14.5q19 0 33.5 -14.5t14.5 -34.5q0 -21 -14 -36t-34 -15q-22 0 -37 15z" />
    <glyph glyph-name="slash" unicode="/" horiz-adv-x="437" 
d="M402 763l-342 -874h-60l343 874h59z" />
    <glyph glyph-name="zero" unicode="0" horiz-adv-x="651" 
d="M136.5 90q-68.5 100 -68.5 293t67.5 291.5t190.5 98.5q122 0 189.5 -99t67.5 -291q0 -193 -68 -293t-189 -100t-189.5 100zM465.5 129.5q48.5 77.5 48.5 252.5q0 174 -48 251.5t-140 77.5q-93 0 -141 -77.5t-48 -251.5q0 -175 48.5 -252.5t140.5 -77.5q91 0 139.5 77.5z
" />
    <glyph glyph-name="one" unicode="1" horiz-adv-x="424" 
d="M275 676q-36 -43 -100 -78t-134 -47v66q82 16 141 55t95 91h67v-763h-69v676z" />
    <glyph glyph-name="two" unicode="2" horiz-adv-x="642" 
d="M56 0v68l246 200q92 74 138 139.5t46 142.5q0 72 -43.5 116.5t-115.5 44.5q-86 0 -130.5 -50t-48.5 -147h-69q3 123 69 191t178 68q66 0 118 -28t81.5 -78.5t29.5 -115.5q0 -91 -54 -168t-157 -162l-193 -159h436v-62h-531z" />
    <glyph glyph-name="three" unicode="3" horiz-adv-x="648" 
d="M186.5 19.5q-59.5 29.5 -93.5 82.5t-36 123h69q5 -80 56.5 -126.5t141.5 -46.5q89 0 140.5 44.5t51.5 120.5q0 83 -63 118.5t-156 35.5h-45v62h43q74 0 128.5 31.5t54.5 106.5q0 62 -45 101t-116 39t-117.5 -38.5t-51.5 -108.5h-69q2 61 33.5 108.5t85 74t119.5 26.5
q64 0 117 -25.5t83 -70t30 -100.5q0 -46 -20 -83.5t-51 -59.5t-62 -26q42 -4 81.5 -28t64.5 -66.5t25 -98.5q0 -66 -33 -117t-92 -79.5t-136 -28.5q-78 0 -137.5 29.5z" />
    <glyph glyph-name="four" unicode="4" horiz-adv-x="650" 
d="M485 0h-69v183h-370v73l364 507h75v-518h119v-62h-119v-183zM416 671l-303 -426h303v426z" />
    <glyph glyph-name="five" unicode="5" horiz-adv-x="641" 
d="M146 51.5q-67 61.5 -86 165.5h69q13 -78 61.5 -121.5t126.5 -43.5q91 0 142 58t51 154q0 81 -48 133t-135 52q-52 0 -96.5 -26t-72.5 -73h-82l74 413h393v-62h-337l-48 -271q33 39 80 60t102 21q72 0 126.5 -32.5t83.5 -89t29 -124.5q0 -81 -31.5 -143.5t-90.5 -97
t-138 -34.5q-106 0 -173 61.5z" />
    <glyph glyph-name="six" unicode="6" horiz-adv-x="644" 
d="M132 94q-65 104 -65 276q0 178 65 290.5t202 112.5q102 0 165 -53t78 -145h-69q-30 136 -174 136q-198 0 -198 -340q71 116 206 116q70 0 123.5 -31t82.5 -86.5t29 -125.5q0 -71 -30.5 -129t-85.5 -91.5t-126 -33.5q-138 0 -203 104zM426.5 77.5q39.5 25.5 60.5 69.5
t21 98q0 52 -21 95t-59.5 68.5t-88.5 25.5q-53 0 -97 -25.5t-69 -69t-25 -94.5q0 -56 24.5 -100t67 -68.5t94.5 -24.5q53 0 92.5 25.5z" />
    <glyph glyph-name="seven" unicode="7" horiz-adv-x="614" 
d="M202 0h-77l374 701h-463v62h535v-63z" />
    <glyph glyph-name="eight" unicode="8" horiz-adv-x="630" 
d="M184 18.5q-57 28.5 -88.5 80t-31.5 118.5q0 68 40.5 124t113.5 75q-58 14 -90.5 61.5t-32.5 107.5q0 55 28 97.5t78.5 66.5t116.5 24q64 0 113 -24.5t76 -68.5t27 -101q0 -55 -30.5 -101t-88.5 -62q72 -20 111.5 -76t39.5 -123t-31 -118.5t-88 -80t-131 -28.5
q-75 0 -132 28.5zM426 476q39 36 39 98q0 63 -39.5 100t-107.5 37q-72 0 -113 -36t-41 -96q0 -64 41 -101.5t113 -37.5q69 0 108 36zM449 97.5q48 45.5 48 122.5t-48 121.5t-132 44.5q-85 0 -134.5 -44.5t-49.5 -121.5t49.5 -122.5t134.5 -45.5q84 0 132 45.5z" />
    <glyph glyph-name="nine" unicode="9" horiz-adv-x="644" 
d="M512 669q65 -104 65 -276q0 -178 -65 -290.5t-202 -112.5q-102 0 -165 53t-78 145h69q30 -136 174 -136q198 0 198 340q-71 -116 -206 -116q-70 0 -123.5 31t-82.5 86.5t-29 125.5q0 71 30.5 129t85.5 91.5t126 33.5q138 0 203 -104zM217.5 685.5
q-39.5 -25.5 -60.5 -69.5t-21 -98q0 -52 21 -95t59.5 -68.5t88.5 -25.5q53 0 97 25.5t69 69t25 94.5q0 56 -24.5 100t-67 68.5t-94.5 24.5q-53 0 -92.5 -25.5z" />
    <glyph glyph-name="colon" unicode=":" horiz-adv-x="185" 
d="M57 441q-15 15 -15 36q0 20 15 35t36 15q20 0 34.5 -15t14.5 -35t-14.5 -35.5t-34.5 -15.5q-21 0 -36 15zM57 5q-15 15 -15 36q0 20 15 34.5t36 14.5q20 0 34.5 -14.5t14.5 -34.5q0 -21 -14.5 -36t-34.5 -15q-21 0 -36 15z" />
    <glyph glyph-name="semicolon" unicode=";" horiz-adv-x="313" 
d="M105.5 441q-15.5 15 -15.5 36q0 20 15 35t36 15q20 0 34.5 -15t14.5 -35q0 -21 -14.5 -36t-34.5 -15t-35.5 15zM93 -135q45 8 68 38t23 76q0 14 -2 29q-16 -18 -39 -18q-24 0 -38.5 13.5t-14.5 35.5q0 23 15 37t40 14q36 0 57 -28.5t21 -77.5q0 -57 -31.5 -101t-98.5 -54
v36z" />
    <glyph glyph-name="less" unicode="&#x3c;" horiz-adv-x="559" 
d="M511 187v-64l-467 177v74l467 178v-64l-403 -151z" />
    <glyph glyph-name="equal" unicode="=" horiz-adv-x="499" 
d="M462 418h-426v65h426v-65zM462 204h-426v66h426v-66z" />
    <glyph glyph-name="greater" unicode="&#x3e;" horiz-adv-x="559" 
d="M515 300l-467 -177v64l403 150l-403 151v64l467 -178v-74z" />
    <glyph glyph-name="question" unicode="?" horiz-adv-x="538" 
d="M235 239q0 57 15.5 95t37.5 60.5t57 48.5q28 21 45 37t28 39.5t11 57.5q0 66 -43 103t-118 37t-120 -42t-49 -112h-57q4 96 65 153t157 57q100 0 162 -52.5t62 -146.5q0 -42 -13 -71.5t-31 -48t-50 -43.5q-32 -24 -51.5 -44t-33 -51.5t-13.5 -76.5v-28h-61v28zM230 5
q-15 15 -15 36q0 20 15 34.5t35 14.5t35 -14.5t15 -34.5q0 -21 -14.5 -36t-35.5 -15q-20 0 -35 15z" />
    <glyph glyph-name="at" unicode="@" horiz-adv-x="1055" 
d="M281.5 -132q-107.5 59 -169.5 165.5t-62 245.5q0 141 62 254.5t172 178t250 64.5q134 0 241.5 -61t168.5 -169t61 -245q0 -93 -29 -169.5t-85.5 -122t-134.5 -45.5q-59 0 -90 37t-31 101q0 22 5 52q-29 -68 -80.5 -98t-111.5 -30q-79 0 -126 52.5t-47 146.5
q0 82 34.5 162t97.5 131.5t144 51.5q105 0 145 -107l14 78h57l-7 -35q-64 -292 -70 -376l-1 -20q0 -92 75 -92q57 0 98.5 38t63.5 102.5t22 141.5q0 122 -53 217t-147 148t-213 53q-124 0 -221.5 -57t-152 -157t-54.5 -225q0 -124 53.5 -217.5t148.5 -144t214 -50.5
q39 0 72.5 6t70.5 18v-60q-74 -22 -143 -22q-134 0 -241.5 59zM563.5 127q50.5 44 77.5 112t27 135q0 70 -30 104t-85 34q-67 0 -117 -43t-77 -109.5t-27 -134.5q0 -71 30.5 -106.5t85.5 -35.5q65 0 115.5 44z" />
    <glyph glyph-name="A" unicode="A" horiz-adv-x="688" 
d="M87 0h-71l288 763h80l288 -763h-71l-77 206h-360zM344 692l-158 -424h316z" />
    <glyph glyph-name="B" unicode="B" horiz-adv-x="677" 
d="M79 0v763h280q135 0 191 -68q38 -45 38 -122q0 -70 -34 -119t-88 -55q74 -6 117 -56.5t43 -131.5q0 -95 -60 -150q-36 -32 -87 -46.5t-108 -14.5h-292zM369 423q69 0 109.5 37.5t40.5 101.5t-38 99q-44 40 -136 40h-197v-278h221zM364 62q104 0 152 46q41 39 41 107
q0 84 -50.5 115t-115.5 31h-243v-299h216z" />
    <glyph glyph-name="C" unicode="C" horiz-adv-x="733" 
d="M204 43.5q-78 53.5 -116 142.5t-38 196t38 196t116 142t191 53q80 0 142.5 -27t102 -75t51.5 -110h-73q-15 69 -75.5 109.5t-149.5 40.5t-150.5 -42.5t-92.5 -117t-31 -169.5t31 -170t92.5 -117.5t150.5 -42.5q90 0 149.5 43t75.5 121h73q-19 -104 -97 -165t-199 -61
q-113 0 -191 53.5z" />
    <glyph glyph-name="D" unicode="D" horiz-adv-x="723" 
d="M79 0v763h204q188 0 288.5 -100t100.5 -285q0 -181 -101 -279.5t-289 -98.5h-203zM282 62q149 0 235.5 73.5t86.5 242.5q0 166 -84 244.5t-237 78.5h-135v-639h134z" />
    <glyph glyph-name="E" unicode="E" horiz-adv-x="609" 
d="M565 0h-486v763h486v-62h-417v-287h366v-62h-366v-290h417v-62z" />
    <glyph glyph-name="F" unicode="F" horiz-adv-x="594" 
d="M148 0h-69v763h486v-62h-417v-287h366v-61h-366v-353z" />
    <glyph glyph-name="G" unicode="G" horiz-adv-x="783" 
d="M206 44q-79 54 -117.5 143t-38.5 194q0 106 38.5 195t117.5 143t194 54q123 0 202.5 -58t105.5 -153h-77q-20 69 -80 109t-152 40q-93 0 -156 -45t-93.5 -119.5t-30.5 -163.5q0 -92 31.5 -167t95 -119.5t154.5 -44.5q77 0 134 35t87 98t30 145h-187v62h256v-392h-64v141
q-25 -76 -95.5 -113.5t-159.5 -37.5q-116 0 -195 54z" />
    <glyph glyph-name="H" unicode="H" horiz-adv-x="703" 
d="M148 0h-69v763h69v-347h406v347h69v-763h-69v354h-406v-354z" />
    <glyph glyph-name="I" unicode="I" horiz-adv-x="228" 
d="M148 0h-69v763h69v-763z" />
    <glyph glyph-name="J" unicode="J" horiz-adv-x="371" 
d="M16 0v62h96q59 0 86.5 28t27.5 86v587h69v-588q0 -87 -40 -131t-143 -44h-96z" />
    <glyph glyph-name="K" unicode="K" horiz-adv-x="612" 
d="M148 0h-69v763h69v-353l342 353h87l-352 -366l374 -397h-96l-355 380v-380z" />
    <glyph glyph-name="L" unicode="L" horiz-adv-x="513" 
d="M498 0h-419v763h69v-701h350v-62z" />
    <glyph glyph-name="M" unicode="M" horiz-adv-x="876" 
d="M148 0h-69v763h111l248 -693l248 693h111v-763h-69v690l-247 -690h-86l-247 692v-692z" />
    <glyph glyph-name="N" unicode="N" horiz-adv-x="704" 
d="M148 0h-69v763h106l371 -700v700h68v-763h-106l-370 697v-697z" />
    <glyph glyph-name="O" unicode="O" horiz-adv-x="794" 
d="M206 43q-78 53 -117 142.5t-39 196.5t39 196t117 142t191 53t191 -53t117 -142t39 -196t-39 -196.5t-117 -142.5t-191 -53t-191 53zM548.5 95q62.5 43 94.5 117.5t32 169.5t-32 169.5t-94.5 117t-151.5 42.5t-151.5 -42.5t-94.5 -117t-32 -169.5t32 -169.5t94.5 -117.5
t151.5 -43t151.5 43z" />
    <glyph glyph-name="P" unicode="P" horiz-adv-x="620" 
d="M79 0v763h264q113 0 177.5 -55.5t64.5 -159.5q0 -102 -64.5 -159t-177.5 -57h-195v-332h-69zM334 392q88 0 135.5 40t47.5 114t-48 114.5t-135 40.5h-186v-309h186z" />
    <glyph glyph-name="Q" unicode="Q" horiz-adv-x="794" 
d="M712.5 202q-31.5 -83 -93.5 -136l97 -153h-79l-74 115q-73 -38 -166 -38q-113 0 -191 53t-117 142.5t-39 196.5t39 196t117 142t191 53t191 -53t117 -142t39 -196q0 -97 -31.5 -180zM151 212.5q32 -74.5 94.5 -117.5t151.5 -43t151.5 43t94.5 117.5t32 169.5t-32 169.5
t-94.5 117t-151.5 42.5t-151.5 -42.5t-94.5 -117t-32 -169.5t32 -169.5z" />
    <glyph glyph-name="R" unicode="R" horiz-adv-x="639" 
d="M592 0h-76l-144 333q-9 -1 -29 -1h-195v-332h-69v763h264q113 0 177.5 -55.5t64.5 -159.5q0 -77 -38 -129.5t-107 -73.5zM334 392q88 0 135.5 40t47.5 114t-48 114.5t-135 40.5h-186v-309h186z" />
    <glyph glyph-name="S" unicode="S" horiz-adv-x="653" 
d="M142 46q-81 56 -99 170h70q15 -87 79.5 -125.5t151.5 -38.5q91 0 141 42t50 116q0 54 -29 85t-72 46t-116 31q-81 17 -129.5 35t-82 57.5t-33.5 107.5q0 60 32 106t88.5 70.5t127.5 24.5q105 0 173 -51.5t85 -159.5h-66q-29 149 -193 149q-79 0 -128.5 -36.5t-49.5 -97.5
q0 -47 27 -74.5t67 -41.5t109 -29q83 -18 135 -37.5t88 -63t36 -118.5q0 -102 -69 -162.5t-196 -60.5q-116 0 -197 56z" />
    <glyph glyph-name="T" unicode="T" horiz-adv-x="634" 
d="M351 0h-69v701h-268v62h606v-62h-269v-701z" />
    <glyph glyph-name="U" unicode="U" horiz-adv-x="689" 
d="M139.5 63q-67.5 73 -67.5 207v493h69v-493q0 -218 203 -218t203 218v493h69v-493q0 -134 -67.5 -207t-204.5 -73t-204.5 73z" />
    <glyph glyph-name="V" unicode="V" horiz-adv-x="688" 
d="M384 0h-80l-288 763h71l257 -694l257 694h71z" />
    <glyph glyph-name="W" unicode="W" horiz-adv-x="1081" 
d="M333 0h-81l-230 763h73l202 -665l211 665h65l210 -664l204 664h72l-231 -763h-80l-207 650z" />
    <glyph glyph-name="X" unicode="X" horiz-adv-x="667" 
d="M101 0h-82l268 385l-263 378h82l227 -331l226 331h83l-263 -378l268 -385h-82l-233 334z" />
    <glyph glyph-name="Y" unicode="Y" horiz-adv-x="662" 
d="M367 0h-72v292l-287 471h80l243 -404l243 404h80l-287 -471v-292z" />
    <glyph glyph-name="Z" unicode="Z" horiz-adv-x="638" 
d="M604 0h-575v54l492 647h-468v62h553v-55l-492 -646h490v-62z" />
    <glyph glyph-name="bracketleft" unicode="[" horiz-adv-x="324" 
d="M295 -110h-197v982h197v-44h-145v-894h145v-44z" />
    <glyph glyph-name="backslash" unicode="\" horiz-adv-x="437" 
d="M437 -111h-60l-342 874h59z" />
    <glyph glyph-name="bracketright" unicode="]" horiz-adv-x="324" 
d="M226 872v-982h-197v44h145v894h-145v44h197z" />
    <glyph glyph-name="asciicircum" unicode="^" horiz-adv-x="543" 
d="M121 296h-64l177 467h74l178 -467h-64l-151 403z" />
    <glyph glyph-name="underscore" unicode="_" horiz-adv-x="403" 
d="M417 -49h-431v49h431v-49z" />
    <glyph glyph-name="grave" unicode="`" horiz-adv-x="225" 
d="M92 763l117 -154h-57l-136 154h76z" />
    <glyph glyph-name="a" unicode="a" horiz-adv-x="561" 
d="M100 31q-52 41 -52 115q0 73 59 115q26 18 57.5 28.5t70.5 18.5l196 39q-3 76 -37 114q-36 40 -112 40q-56 0 -97.5 -31t-51.5 -81h-65q12 79 72.5 124.5t142.5 45.5q103 0 157 -57q56 -59 56 -174v-328h-65v103q-27 -51 -76 -80q-55 -33 -120 -33q-83 0 -135 41zM324 70
q58 28 82.5 84.5t24.5 137.5l-195 -41q-64 -14 -92 -37q-31 -26 -31 -68q0 -46 33 -72t84 -26q50 0 94 22z" />
    <glyph glyph-name="b" unicode="b" horiz-adv-x="623" 
d="M223.5 19q-49.5 29 -86.5 83v-102h-65v763h65v-316q37 55 87 83.5t109 28.5q71 0 125.5 -36.5t84.5 -101t30 -147.5q0 -82 -30 -146.5t-85 -101t-125 -36.5q-60 0 -109.5 29zM423 77.5q41 29.5 63 81t22 115.5q0 65 -22 116.5t-63 81t-96 29.5t-98.5 -29.5t-68.5 -81.5
t-25 -116t25 -115.5t68.5 -81t98.5 -29.5t96 29.5z" />
    <glyph glyph-name="c" unicode="c" horiz-adv-x="591" 
d="M175 27q-60 37 -93.5 102.5t-33.5 147.5q0 80 33.5 144t93.5 101t135 37q89 0 152 -46t82 -124h-70q-15 51 -59.5 81.5t-104.5 30.5q-56 0 -101 -29t-70.5 -80t-25.5 -115q0 -66 25.5 -118t70.5 -81.5t101 -29.5q64 0 109.5 34.5t57.5 90.5h71q-17 -84 -82 -133.5
t-156 -49.5q-75 0 -135 37z" />
    <glyph glyph-name="d" unicode="d" horiz-adv-x="623" 
d="M165 26.5q-55 36.5 -85 101t-30 146.5q0 83 30 147.5t84.5 101t125.5 36.5q59 0 109 -28.5t87 -83.5v316h65v-763h-65v102q-37 -54 -86.5 -83t-109.5 -29q-70 0 -125 36.5zM394.5 77.5q43.5 29.5 68.5 81t25 115.5t-25 116t-68.5 81.5t-98.5 29.5t-96 -29.5t-63 -81
t-22 -116.5q0 -64 22 -115.5t63 -81t96 -29.5t98.5 29.5z" />
    <glyph glyph-name="e" unicode="e" horiz-adv-x="617" 
d="M175 27q-60 37 -93.5 102t-33.5 145q0 77 32 142t91.5 104t137.5 39q74 0 130.5 -33.5t89.5 -92.5t40 -136q1 -11 1 -34h-458q3 -39 16 -76q23 -65 71 -102t111 -37q65 0 112 35t67 90h69q-25 -81 -89 -132t-159 -51q-75 0 -135 37zM507 316q-7 42 -18 68
q-24 55 -71.5 86t-107.5 31t-105.5 -29.5t-68.5 -83.5q-15 -32 -20 -72h391z" />
    <glyph glyph-name="f" unicode="f" horiz-adv-x="343" 
d="M118 0v491h-92v58h92v62q0 152 138 152h66v-58h-52q-43 0 -65 -18.5t-22 -68.5v-69h139v-58h-139v-491h-65z" />
    <glyph glyph-name="g" unicode="g" horiz-adv-x="622" 
d="M66 -56h65q17 -56 58.5 -83t117.5 -27q93 0 136 41t43 121v106q-37 -55 -87 -83.5t-109 -28.5q-70 0 -125 36.5t-85 101.5t-30 148q0 82 30 146.5t85 100.5t125 36q60 0 109.5 -29t86.5 -83v102h65v-542q0 -121 -62.5 -176t-180.5 -55q-198 0 -242 168zM394.5 77.5
q43.5 29.5 68.5 81t25 115.5t-25 116t-68.5 81.5t-98.5 29.5q-56 0 -97 -29.5t-62.5 -81t-21.5 -116.5q0 -64 22 -115.5t63 -81t96 -29.5t98.5 29.5z" />
    <glyph glyph-name="h" unicode="h" horiz-adv-x="559" 
d="M72 0v763h65v-306q33 53 77.5 77.5t102.5 24.5q50 0 88 -22.5t60 -61.5q18 -31 22.5 -64t4.5 -74v-337h-65v340q0 71 -24 110q-32 51 -100 51q-63 0 -105 -45q-30 -34 -45.5 -90.5t-15.5 -148.5v-217h-65z" />
    <glyph glyph-name="i" unicode="i" horiz-adv-x="209" 
d="M137 0h-65v549h65v-549zM70.5 690.5q-14.5 14.5 -14.5 34.5t14.5 34t34.5 14t34.5 -14t14.5 -34t-14.5 -34.5t-34.5 -14.5t-34.5 14.5z" />
    <glyph glyph-name="j" unicode="j" horiz-adv-x="209" 
d="M-68 -214v59h52q44 0 66 24t22 80v600h65v-610q0 -153 -138 -153h-67zM70.5 690.5q-14.5 14.5 -14.5 34.5t14.5 34t34.5 14t34.5 -14t14.5 -34t-14.5 -34.5t-34.5 -14.5t-34.5 14.5z" />
    <glyph glyph-name="k" unicode="k" horiz-adv-x="536" 
d="M137 0h-65v763h65v-439l265 225h92l-287 -241l313 -308h-90l-293 292v-292z" />
    <glyph glyph-name="l" unicode="l" horiz-adv-x="263" 
d="M183 0q-59 0 -86.5 28t-27.5 100v635h65v-625q0 -44 11.5 -62t51.5 -18h36v-58h-50z" />
    <glyph glyph-name="m" unicode="m" horiz-adv-x="889" 
d="M71 0v549h65v-82q21 40 64 66t100 26q60 0 103.5 -29t59.5 -86q25 58 73 86.5t107 28.5q90 0 134.5 -52t44.5 -150v-357h-65v341q0 73 -29 116.5t-90 43.5q-77 0 -117 -61q-20 -31 -30.5 -76.5t-10.5 -112.5v-251h-65v341q0 73 -31 116.5t-90 43.5q-74 0 -117 -62
q-21 -30 -31 -75t-10 -113v-251h-65z" />
    <glyph glyph-name="n" unicode="n" horiz-adv-x="558" 
d="M71 0v549h65v-92q33 53 77.5 77.5t102.5 24.5q50 0 88 -22.5t60 -61.5q18 -31 22.5 -64t4.5 -74v-337h-65v340q0 71 -24 110q-31 51 -100 51q-63 0 -105 -45q-30 -34 -45.5 -90.5t-15.5 -148.5v-217h-65z" />
    <glyph glyph-name="o" unicode="o" horiz-adv-x="625" 
d="M176 27q-60 37 -94 102.5t-34 147.5q0 80 34 144t94 101t135 37t135.5 -37t95 -101t34.5 -144q0 -81 -34 -146.5t-94.5 -103t-136.5 -37.5q-75 0 -135 37zM413 78q46 30 72 82t26 117q0 63 -26 114t-71.5 80.5t-102.5 29.5q-56 0 -101.5 -29t-71 -80.5t-25.5 -114.5
q0 -65 26 -117.5t71 -82t101 -29.5t102 30z" />
    <glyph glyph-name="p" unicode="p" horiz-adv-x="623" 
d="M458 522.5q55 -36.5 85 -101t30 -146.5q0 -83 -30 -147.5t-84.5 -101t-125.5 -36.5q-59 0 -109 28.5t-87 83.5v-316h-65v763h65v-102q37 54 86.5 83t109.5 29q70 0 125 -36.5zM228.5 471.5q-43.5 -29.5 -68.5 -81t-25 -115.5t25 -116t68.5 -81.5t98.5 -29.5t96 29.5
t63 81t22 116.5q0 64 -22 115.5t-63 81t-96 29.5t-98.5 -29.5z" />
    <glyph glyph-name="q" unicode="q" horiz-adv-x="623" 
d="M625 -214q-70 0 -104.5 34t-34.5 109v173q-37 -55 -87 -83.5t-109 -28.5q-71 0 -125.5 36.5t-84.5 101t-30 147.5q0 82 30 146.5t85 101t125 36.5q60 0 109.5 -29t86.5 -83v102h65v-610q0 -56 17.5 -75t60.5 -19h36v-59h-40zM394.5 77.5q43.5 29.5 68.5 81t25 116.5
q0 64 -25 115.5t-68.5 81t-98.5 29.5t-96 -29.5t-63 -81t-22 -115.5q0 -65 22 -116.5t63 -81t96 -29.5t98.5 29.5z" />
    <glyph glyph-name="r" unicode="r" horiz-adv-x="345" 
d="M323 559v-64h-25q-79 0 -117 -48q-24 -30 -34.5 -73t-10.5 -106v-268h-65v549h65v-82q54 92 169 92h18z" />
    <glyph glyph-name="s" unicode="s" horiz-adv-x="543" 
d="M118.5 38.5q-62.5 48.5 -73.5 134.5h66q8 -59 52.5 -92t124.5 -33q65 0 102.5 26t37.5 73q0 37 -22.5 58.5t-55.5 32t-89 21.5q-63 13 -102 26t-66 42t-27 79q0 72 54.5 112.5t140.5 40.5q88 0 144.5 -46t69.5 -124h-65q-9 54 -48 83t-101 29q-61 0 -95.5 -23.5
t-34.5 -64.5q0 -31 20.5 -50t51 -28.5t83.5 -19.5q67 -14 108 -28t70 -46t29 -88q0 -75 -54.5 -119t-153.5 -44q-104 0 -166.5 48.5z" />
    <glyph glyph-name="t" unicode="t" horiz-adv-x="346" 
d="M239 0q-65 0 -94 29.5t-29 108.5v353h-89v58h89v214h65v-214h129v-58h-129v-340q0 -36 4.5 -54.5t20 -28.5t48.5 -10h55v-58h-70z" />
    <glyph glyph-name="u" unicode="u" horiz-adv-x="558" 
d="M155.5 12q-38.5 22 -61.5 62q-27 47 -27 138v337h65v-340q0 -71 24 -110q32 -51 100 -51q31 0 58 11.5t47 33.5q31 34 46 92t15 147v217h65v-549h-65v92q-33 -52 -77 -77t-103 -25q-48 0 -86.5 22z" />
    <glyph glyph-name="v" unicode="v" horiz-adv-x="506" 
d="M280 0h-54l-203 549h71l160 -461l159 461h70z" />
    <glyph glyph-name="w" unicode="w" horiz-adv-x="805" 
d="M245 0h-60l-158 549h68l123 -450l154 450h60l154 -451l124 451h68l-159 -549h-61l-155 463z" />
    <glyph glyph-name="x" unicode="x" horiz-adv-x="541" 
d="M101 0h-78l204 276l-204 273h77l169 -231l168 231h79l-205 -273l206 -276h-79l-169 232z" />
    <glyph glyph-name="y" unicode="y" horiz-adv-x="542" 
d="M67 -214v59h60q35 0 51.5 11t29.5 43l40 106l-228 544h72l189 -461l166 461h72l-248 -672q-21 -55 -50.5 -73t-63.5 -18h-90z" />
    <glyph glyph-name="z" unicode="z" horiz-adv-x="521" 
d="M481 0h-447v59l375 432h-356v58h432v-64l-369 -427h365v-58z" />
    <glyph glyph-name="braceleft" unicode="{" horiz-adv-x="301" 
d="M216 -110q-55 0 -84.5 34.5t-29.5 97.5v253q0 61 -64 80v52q64 19 64 80v253q0 63 29.5 97.5t84.5 34.5h56v-42h-38q-38 0 -58 -23t-20 -68v-253q0 -83 -67 -105q67 -22 67 -105v-253q0 -45 20 -68t58 -23h38v-42h-56z" />
    <glyph glyph-name="bar" unicode="|" horiz-adv-x="311" 
d="M188 -110h-65v982h65v-982z" />
    <glyph glyph-name="braceright" unicode="}" horiz-adv-x="301" 
d="M29 -110v42h38q38 0 58 23t20 68v253q0 83 67 105q-67 22 -67 105v253q0 45 -20 68t-58 23h-38v42h56q55 0 84.5 -34.5t29.5 -97.5v-253q0 -61 64 -80v-52q-64 -19 -64 -80v-253q0 -63 -29.5 -97.5t-84.5 -34.5h-56z" />
    <glyph glyph-name="asciitilde" unicode="~" horiz-adv-x="520" 
d="M253.5 236q-19.5 14 -40.5 40q-16 20 -27 29t-27 9q-46 0 -52 -84h-50q3 66 31 102t74 36q29 0 48 -13.5t39 -38.5q16 -20 28.5 -30t29.5 -10q20 0 33 23t15 64h53q-5 -71 -29.5 -106t-72.5 -35q-33 0 -52.5 14z" />
    <glyph glyph-name="uni00A0" unicode="&#xa0;" horiz-adv-x="240" 
 />
    <glyph glyph-name="exclamdown" unicode="&#xa1;" horiz-adv-x="316" 
d="M207 548q15 -15 15 -36q0 -20 -15 -34.5t-36 -14.5q-20 0 -34.5 14.5t-14.5 34.5q0 21 14.5 36t34.5 15q21 0 36 -15zM199 340q0 -26 2 -86q3 -150 3 -174v-290h-65v290q0 94 4 218l1 42h55z" />
    <glyph glyph-name="cent" unicode="&#xa2;" horiz-adv-x="591" 
d="M548 173q-16 -79 -75 -128t-142 -54v-91h-42v91q-70 5 -125 43t-85.5 101.5t-30.5 141.5q0 76 30.5 138.5t85.5 100t125 42.5v109h42v-109q81 -5 138 -50.5t75 -118.5h-70q-13 46 -51.5 76t-91.5 35v-451q56 6 95.5 39.5t50.5 84.5h71zM135.5 165q22.5 -50 62.5 -80.5
t91 -35.5v451q-51 -5 -91 -35t-62.5 -79t-22.5 -109q0 -62 22.5 -112z" />
    <glyph glyph-name="sterling" unicode="&#xa3;" horiz-adv-x="611" 
d="M57 77q74 11 114 50.5t40 94.5q0 39 -14 79t-41 89h-94v43h87q-24 55 -24 108q0 69 27 121.5t77 81.5t118 29q85 0 142.5 -47t70.5 -137h-64q-11 62 -50 94t-97 32q-79 0 -119 -49t-40 -127q0 -48 22 -106h222v-43h-208q21 -33 35.5 -78.5t14.5 -92.5q0 -55 -29 -98.5
t-75 -62.5h384v-58h-499v77z" />
    <glyph glyph-name="currency" unicode="&#xa4;" horiz-adv-x="728" 
d="M144 77l-46 43l70 70q-25 31 -39 71t-14 82q0 85 53 150l-69 69l43 45l70 -69q32 26 71.5 39.5t81.5 13.5t80.5 -13.5t69.5 -38.5l69 68l47 -44l-70 -70q53 -67 53 -151q0 -44 -15 -84.5t-39 -68.5l67 -67l-45 -45l-67 68q-30 -25 -70 -38.5t-81 -13.5t-82.5 13.5
t-69.5 38.5zM435 168.5q34 13.5 61 40.5q54 54 54 132q0 37 -14 71.5t-42 61.5q-53 53 -131 53q-37 0 -71 -13.5t-60 -40.5q-53 -53 -53 -131q0 -79 53 -132q55 -55 132 -55q37 0 71 13.5z" />
    <glyph glyph-name="yen" unicode="&#xa5;" horiz-adv-x="662" 
d="M574 763h80l-266 -436h156v-58h-177v-56h177v-58h-177v-155h-72v155h-177v58h177v56h-177v58h156l-266 436h80l243 -404z" />
    <glyph glyph-name="brokenbar" unicode="&#xa6;" horiz-adv-x="311" 
d="M188 450h-65v422h65v-422zM188 -110h-65v417h65v-417z" />
    <glyph glyph-name="section" unicode="&#xa7;" horiz-adv-x="714" 
d="M179 -186q-80 51 -102 148h72q21 -67 80 -104t137 -37q85 0 133.5 37.5t48.5 105.5q0 57 -31.5 89t-73.5 45t-126 31q-63 14 -107 33t-72.5 56t-28.5 97q0 44 21.5 79t67.5 56q-89 33 -89 134q0 58 31 100.5t86.5 65.5t127.5 23q93 0 157.5 -45.5t89.5 -130.5h-66
q-24 57 -71.5 87t-113.5 30q-78 0 -123.5 -34.5t-45.5 -92.5q0 -47 26.5 -74.5t66 -41t102.5 -25.5q76 -16 125 -35t84 -60.5t35 -113.5q0 -99 -75 -137q75 -34 75 -134q0 -94 -66.5 -148.5t-185.5 -54.5q-109 0 -189 51zM537 180.5q11 22.5 11 53.5q0 54 -28 85t-69 45.5
t-111 29.5l-22 5l-20 5q-29 5 -50 13q-67 -31 -67 -100q0 -46 26 -73.5t65.5 -41t102.5 -26.5q85 -18 129 -37q22 19 33 41.5z" />
    <glyph glyph-name="dieresis" unicode="&#xa8;" horiz-adv-x="322" 
d="M30.5 690.5q-14.5 14.5 -14.5 34.5t14.5 34t34.5 14t34.5 -14t14.5 -34t-14.5 -34.5t-34.5 -14.5t-34.5 14.5zM222.5 690.5q-14.5 14.5 -14.5 34.5t14.5 34t34.5 14t34.5 -14t14.5 -34t-14.5 -34.5t-34.5 -14.5t-34.5 14.5z" />
    <glyph glyph-name="copyright" unicode="&#xa9;" horiz-adv-x="895" 
d="M252.5 45.5q-88.5 51.5 -140.5 140t-52 194.5q0 108 51.5 197.5t140 141.5t195.5 52t195.5 -52t140 -141.5t51.5 -197.5q0 -106 -52 -194.5t-140.5 -140t-194.5 -51.5t-194.5 51.5zM612 97.5q75 43.5 118.5 118.5t43.5 164q0 92 -43.5 167.5t-118 119.5t-165.5 44
t-165.5 -44t-118 -119.5t-43.5 -167.5q0 -89 43.5 -164t118.5 -118.5t165 -43.5t165 43.5zM326 173.5q-54 31.5 -85.5 86.5t-31.5 120t31.5 120t85.5 86.5t119 31.5q51 0 100 -23t84 -63l-45 -38q-27 30 -64.5 47t-75.5 17q-48 0 -89 -23.5t-64.5 -64.5t-23.5 -90t23.5 -90
t64.5 -64.5t89 -23.5q38 0 75.5 17t64.5 47l45 -38q-35 -40 -84 -63t-100 -23q-65 0 -119 31.5z" />
    <glyph glyph-name="ordfeminine" unicode="&#xaa;" horiz-adv-x="426" 
d="M84.5 404q-36.5 29 -36.5 80q0 52 41 81q18 13 39.5 19.5t50.5 13.5l137 27q-3 55 -26 80q-25 28 -79 28q-39 0 -68 -21.5t-36 -57.5h-45q9 56 50.5 87.5t99.5 31.5q73 0 110 -40q39 -40 39 -121v-230h-45v72q-20 -36 -53 -56q-38 -23 -84 -23q-58 0 -94.5 29zM241 431
q75 36 75 155l-137 -28q-44 -10 -64 -26q-22 -19 -22 -48q0 -32 23 -50t59 -18q35 0 66 15z" />
    <glyph glyph-name="guillemotleft" unicode="&#xab;" horiz-adv-x="574" 
d="M241 157v-65l-212 184l212 184v-65l-137 -118zM508 157v-65l-212 184l212 184v-65l-137 -118z" />
    <glyph glyph-name="uni00AD" unicode="&#xad;" horiz-adv-x="365" 
d="M365 314h-365v49h365v-49z" />
    <glyph glyph-name="registered" unicode="&#xae;" horiz-adv-x="507" 
d="M150.5 394q-46.5 27 -73.5 73.5t-27 102.5q0 55 27 101.5t73.5 74t102.5 27.5t102.5 -27.5t73.5 -74t27 -101.5q0 -56 -27 -102.5t-73.5 -73.5t-102.5 -27t-102.5 27zM342 416q41 24 65 64.5t24 89.5q0 48 -24 89t-65 65t-89 24t-89 -24t-65 -65t-24 -89q0 -49 24 -89.5
t65 -64.5t89 -24t89 24zM187 451v236h84q35 0 55 -17.5t20 -49.5q0 -24 -13 -41.5t-32 -19.5l47 -108h-26l-43 101h-68v-101h-24zM268 573q26 0 40 12t14 34t-14 34t-40 12h-57v-92h57z" />
    <glyph glyph-name="macron" unicode="&#xaf;" horiz-adv-x="326" 
d="M310 671h-294v34h294v-34z" />
    <glyph glyph-name="degree" unicode="&#xb0;" horiz-adv-x="481" 
d="M162.5 484q-35.5 21 -56.5 56.5t-21 77.5t21 77.5t56.5 56.5t77.5 21t78 -21t57 -56.5t21 -77.5t-21 -77.5t-57 -56.5t-78 -21t-77.5 21zM313 545.5q30 30.5 30 72.5q0 43 -30 73t-73 30q-42 0 -72 -30t-30 -73q0 -42 30 -72.5t72 -30.5q43 0 73 30.5z" />
    <glyph glyph-name="plusminus" unicode="&#xb1;" horiz-adv-x="697" 
d="M378 157h-58v167h-248v58h248v167h58v-167h247v-58h-247v-167zM625 0h-553v58h553v-58z" />
    <glyph glyph-name="acute" unicode="&#xb4;" horiz-adv-x="225" 
d="M73 609h-57l117 154h76z" />
    <glyph glyph-name="paragraph" unicode="&#xb6;" horiz-adv-x="604" 
d="M302 336q-65 2 -120.5 28.5t-89.5 74.5t-34 111q0 65 34 113.5t90 74t120 25.5h64v-873h-64v446zM525 -110h-64v873h64v-873z" />
    <glyph glyph-name="periodcentered" unicode="&#xb7;" horiz-adv-x="325" 
d="M111.5 345.5q-20.5 20.5 -20.5 49.5q0 30 20.5 50.5t50.5 20.5t51 -20.5t21 -50.5q0 -29 -21.5 -49.5t-50.5 -20.5q-30 0 -50.5 20.5z" />
    <glyph glyph-name="cedilla" unicode="&#xb8;" horiz-adv-x="242" 
d="M16 -210v30q46 -19 88 -19q38 0 59.5 15t21.5 43q0 30 -24 43.5t-69 18.5q-28 2 -57 2l66 89h42q-30 -38 -69 -68l7 -9q13 3 31 3q16 0 33 -3q35 -6 58 -24.5t23 -50.5q0 -41 -32.5 -62.5t-86.5 -21.5q-43 0 -91 14z" />
    <glyph glyph-name="ordmasculine" unicode="&#xba;" horiz-adv-x="466" 
d="M137 401q-42 26 -65.5 72t-23.5 103q0 56 23.5 101t65.5 70.5t95 25.5t95 -25.5t66 -70.5t24 -101q0 -57 -23.5 -103t-66 -72t-95.5 -26t-95 26zM303 437q32 21 50.5 57.5t18.5 81.5q0 44 -18.5 80t-50.5 56.5t-71 20.5t-71 -20.5t-50 -56.5t-18 -80q0 -46 18 -82.5
t50 -57t71 -20.5t71 21z" />
    <glyph glyph-name="guillemotright" unicode="&#xbb;" horiz-adv-x="574" 
d="M278 276l-212 -184v65l137 120l-137 118v65zM545 276l-212 -184v65l137 120l-137 118v65z" />
    <glyph glyph-name="questiondown" unicode="&#xbf;" horiz-adv-x="546" 
d="M313 544q15 -15 15 -36q0 -20 -15 -34.5t-35 -14.5t-35 14.5t-15 34.5q0 22 15 36.5t35 14.5t35 -15zM308 310q0 -57 -15.5 -95t-37.5 -60.5t-57 -48.5q-28 -21 -45 -37t-28 -39.5t-11 -57.5q0 -66 43 -103t118 -37t120 42t49 112h57q-4 -96 -65 -153t-157 -57
q-100 0 -162 52.5t-62 146.5q0 42 13 71.5t31 48t50 43.5q32 24 51.5 44t33 51.5t13.5 76.5v28h61v-28z" />
    <glyph glyph-name="Agrave" unicode="&#xc0;" horiz-adv-x="688" 
d="M87 0h-71l288 763h80l288 -763h-71l-77 206h-360zM344 692l-158 -424h316zM261 977l117 -154h-57l-136 154h76z" />
    <glyph glyph-name="Aacute" unicode="&#xc1;" horiz-adv-x="688" 
d="M87 0h-71l288 763h80l288 -763h-71l-77 206h-360zM344 692l-158 -424h316zM367 823h-57l117 154h76z" />
    <glyph glyph-name="Acircumflex" unicode="&#xc2;" horiz-adv-x="688" 
d="M87 0h-71l288 763h80l288 -763h-71l-77 206h-360zM344 692l-158 -424h316zM252 833h-72l157 161h14l157 -161h-72l-92 99z" />
    <glyph glyph-name="Atilde" unicode="&#xc3;" horiz-adv-x="688" 
d="M87 0h-71l288 763h80l288 -763h-71l-77 206h-360zM344 692l-158 -424h316zM367.5 850q-19.5 14 -40.5 40q-16 20 -27 29t-27 9q-46 0 -52 -84h-50q3 66 31 102t74 36q29 0 48 -13.5t39 -38.5q16 -20 28.5 -30t29.5 -10q20 0 33 23t15 64h53q-5 -71 -29.5 -106t-72.5 -35
q-33 0 -52.5 14z" />
    <glyph glyph-name="Adieresis" unicode="&#xc4;" horiz-adv-x="688" 
d="M87 0h-71l288 763h80l288 -763h-71l-77 206h-360zM344 692l-158 -424h316zM213.5 826.5q-14.5 14.5 -14.5 34.5t14.5 34t34.5 14t34.5 -14t14.5 -34t-14.5 -34.5t-34.5 -14.5t-34.5 14.5zM405.5 826.5q-14.5 14.5 -14.5 34.5t14.5 34t34.5 14t34.5 -14t14.5 -34
t-14.5 -34.5t-34.5 -14.5t-34.5 14.5z" />
    <glyph glyph-name="Aring" unicode="&#xc5;" horiz-adv-x="688" 
d="M291 729q-26 17 -41 42.5t-15 54.5q0 45 31.5 76.5t77.5 31.5q44 0 76.5 -31.5t32.5 -76.5q0 -31 -15.5 -56t-41.5 -40l276 -730h-71l-77 206h-360l-77 -206h-71zM388.5 782.5q17.5 18.5 17.5 45.5q0 25 -17 42.5t-44 17.5q-26 0 -44 -17.5t-18 -42.5q0 -27 18 -45.5
t44 -18.5t43.5 18.5zM344 694l-158 -427h316z" />
    <glyph glyph-name="AE" unicode="&#xc6;" horiz-adv-x="1061" 
d="M87 0h-71l288 763h454l24 -62h-374l108 -287h373l22 -61h-372l110 -291h372l24 -62h-448l-73 206h-360zM344 693l-158 -426h316z" />
    <glyph glyph-name="Ccedilla" unicode="&#xc7;" horiz-adv-x="733" 
d="M542.5 95q59.5 43 75.5 121h73q-19 -103 -94.5 -163.5t-192.5 -62.5q-28 -28 -51 -46l7 -9q15 3 31 3q17 0 33 -3q35 -6 58 -24.5t23 -50.5q0 -41 -32.5 -62.5t-86.5 -21.5q-43 0 -91 14v30q46 -19 88 -19q38 0 59.5 15t21.5 43q0 30 -24 43.5t-69 18.5q-28 2 -57 2
l50 68q-103 7 -173.5 61.5t-105.5 141t-35 188.5q0 107 38 196t116 142t191 53q80 0 142.5 -27t102 -75t51.5 -110h-73q-15 69 -75.5 109.5t-149.5 40.5t-150.5 -42.5t-92.5 -117t-31 -169.5t31 -170t92.5 -117.5t150.5 -42.5q90 0 149.5 43z" />
    <glyph glyph-name="Egrave" unicode="&#xc8;" horiz-adv-x="609" 
d="M565 0h-486v763h486v-62h-417v-287h366v-62h-366v-290h417v-62zM239 977l117 -154h-57l-136 154h76z" />
    <glyph glyph-name="Eacute" unicode="&#xc9;" horiz-adv-x="609" 
d="M565 0h-486v763h486v-62h-417v-287h366v-62h-366v-290h417v-62zM345 823h-57l117 154h76z" />
    <glyph glyph-name="Ecircumflex" unicode="&#xca;" horiz-adv-x="609" 
d="M565 0h-486v763h486v-62h-417v-287h366v-62h-366v-290h417v-62zM230 833h-72l157 161h14l157 -161h-72l-92 99z" />
    <glyph glyph-name="Edieresis" unicode="&#xcb;" horiz-adv-x="609" 
d="M565 0h-486v763h486v-62h-417v-287h366v-62h-366v-290h417v-62zM191.5 826.5q-14.5 14.5 -14.5 34.5t14.5 34t34.5 14t34.5 -14t14.5 -34t-14.5 -34.5t-34.5 -14.5t-34.5 14.5zM383.5 826.5q-14.5 14.5 -14.5 34.5t14.5 34t34.5 14t34.5 -14t14.5 -34t-14.5 -34.5
t-34.5 -14.5t-34.5 14.5z" />
    <glyph glyph-name="Igrave" unicode="&#xcc;" horiz-adv-x="228" 
d="M148 0h-69v763h69v-763zM31 977l117 -154h-57l-136 154h76z" />
    <glyph glyph-name="Iacute" unicode="&#xcd;" horiz-adv-x="228" 
d="M148 0h-69v763h69v-763zM137 823h-57l117 154h76z" />
    <glyph glyph-name="Icircumflex" unicode="&#xce;" horiz-adv-x="228" 
d="M148 0h-69v763h69v-763zM22 833h-72l157 161h14l157 -161h-72l-92 99z" />
    <glyph glyph-name="Idieresis" unicode="&#xcf;" horiz-adv-x="228" 
d="M148 0h-69v763h69v-763zM-16.5 826.5q-14.5 14.5 -14.5 34.5t14.5 34t34.5 14t34.5 -14t14.5 -34t-14.5 -34.5t-34.5 -14.5t-34.5 14.5zM175.5 826.5q-14.5 14.5 -14.5 34.5t14.5 34t34.5 14t34.5 -14t14.5 -34t-14.5 -34.5t-34.5 -14.5t-34.5 14.5z" />
    <glyph glyph-name="Eth" unicode="&#xd0;" horiz-adv-x="723" 
d="M283 763q188 0 288.5 -100t100.5 -285q0 -181 -101 -279.5t-289 -98.5h-203v353h-63v57h63v353h204zM282 62q149 0 235.5 73.5t86.5 242.5q0 166 -84 244.5t-237 78.5h-135v-291h259v-57h-259v-291h134z" />
    <glyph glyph-name="Ntilde" unicode="&#xd1;" horiz-adv-x="704" 
d="M148 0h-69v763h106l371 -700v700h68v-763h-106l-370 697v-697zM375.5 850q-19.5 14 -40.5 40q-16 20 -27 29t-27 9q-46 0 -52 -84h-50q3 66 31 102t74 36q29 0 48 -13.5t39 -38.5q16 -20 28.5 -30t29.5 -10q20 0 33 23t15 64h53q-5 -71 -29.5 -106t-72.5 -35
q-33 0 -52.5 14z" />
    <glyph glyph-name="Ograve" unicode="&#xd2;" horiz-adv-x="794" 
d="M206 43q-78 53 -117 142.5t-39 196.5t39 196t117 142t191 53t191 -53t117 -142t39 -196t-39 -196.5t-117 -142.5t-191 -53t-191 53zM548.5 95q62.5 43 94.5 117.5t32 169.5t-32 169.5t-94.5 117t-151.5 42.5t-151.5 -42.5t-94.5 -117t-32 -169.5t32 -169.5t94.5 -117.5
t151.5 -43t151.5 43zM315 977l117 -154h-57l-136 154h76z" />
    <glyph glyph-name="Oacute" unicode="&#xd3;" horiz-adv-x="794" 
d="M206 43q-78 53 -117 142.5t-39 196.5t39 196t117 142t191 53t191 -53t117 -142t39 -196t-39 -196.5t-117 -142.5t-191 -53t-191 53zM548.5 95q62.5 43 94.5 117.5t32 169.5t-32 169.5t-94.5 117t-151.5 42.5t-151.5 -42.5t-94.5 -117t-32 -169.5t32 -169.5t94.5 -117.5
t151.5 -43t151.5 43zM421 823h-57l117 154h76z" />
    <glyph glyph-name="Ocircumflex" unicode="&#xd4;" horiz-adv-x="794" 
d="M206 43q-78 53 -117 142.5t-39 196.5t39 196t117 142t191 53t191 -53t117 -142t39 -196t-39 -196.5t-117 -142.5t-191 -53t-191 53zM548.5 95q62.5 43 94.5 117.5t32 169.5t-32 169.5t-94.5 117t-151.5 42.5t-151.5 -42.5t-94.5 -117t-32 -169.5t32 -169.5t94.5 -117.5
t151.5 -43t151.5 43zM306 833h-72l157 161h14l157 -161h-72l-92 99z" />
    <glyph glyph-name="Otilde" unicode="&#xd5;" horiz-adv-x="794" 
d="M206 43q-78 53 -117 142.5t-39 196.5t39 196t117 142t191 53t191 -53t117 -142t39 -196t-39 -196.5t-117 -142.5t-191 -53t-191 53zM548.5 95q62.5 43 94.5 117.5t32 169.5t-32 169.5t-94.5 117t-151.5 42.5t-151.5 -42.5t-94.5 -117t-32 -169.5t32 -169.5t94.5 -117.5
t151.5 -43t151.5 43zM421.5 850q-19.5 14 -40.5 40q-16 20 -27 29t-27 9q-46 0 -52 -84h-50q3 66 31 102t74 36q29 0 48 -13.5t39 -38.5q16 -20 28.5 -30t29.5 -10q20 0 33 23t15 64h53q-5 -71 -29.5 -106t-72.5 -35q-33 0 -52.5 14z" />
    <glyph glyph-name="Odieresis" unicode="&#xd6;" horiz-adv-x="794" 
d="M206 43q-78 53 -117 142.5t-39 196.5t39 196t117 142t191 53t191 -53t117 -142t39 -196t-39 -196.5t-117 -142.5t-191 -53t-191 53zM548.5 95q62.5 43 94.5 117.5t32 169.5t-32 169.5t-94.5 117t-151.5 42.5t-151.5 -42.5t-94.5 -117t-32 -169.5t32 -169.5t94.5 -117.5
t151.5 -43t151.5 43zM267.5 826.5q-14.5 14.5 -14.5 34.5t14.5 34t34.5 14t34.5 -14t14.5 -34t-14.5 -34.5t-34.5 -14.5t-34.5 14.5zM459.5 826.5q-14.5 14.5 -14.5 34.5t14.5 34t34.5 14t34.5 -14t14.5 -34t-14.5 -34.5t-34.5 -14.5t-34.5 14.5z" />
    <glyph glyph-name="multiply" unicode="&#xd7;" horiz-adv-x="567" 
d="M284 297l-175 -175l-41 41l175 175l-176 175l41 41l176 -175l175 174l41 -41l-175 -174l175 -175l-41 -41z" />
    <glyph glyph-name="Oslash" unicode="&#xd8;" horiz-adv-x="794" 
d="M744 692l-65 -65q32 -50 48.5 -112.5t16.5 -132.5q0 -107 -39 -196.5t-117 -142.5t-191 -53q-80 0 -143.5 27.5t-107.5 77.5l-59 -59l-35 35l64 64q-66 103 -66 247q0 107 39 196t117 142t191 53q157 0 252 -105l60 60zM165 184l436 436q-35 44 -87 67.5t-117 23.5
q-89 0 -151.5 -42.5t-94.5 -117t-32 -169.5q0 -118 46 -198zM630 578l-437 -436q76 -90 204 -90q89 0 151.5 43t94.5 117.5t32 169.5q0 115 -45 196z" />
    <glyph glyph-name="Ugrave" unicode="&#xd9;" horiz-adv-x="689" 
d="M139.5 63q-67.5 73 -67.5 207v493h69v-493q0 -218 203 -218t203 218v493h69v-493q0 -134 -67.5 -207t-204.5 -73t-204.5 73zM262 977l117 -154h-57l-136 154h76z" />
    <glyph glyph-name="Uacute" unicode="&#xda;" horiz-adv-x="689" 
d="M139.5 63q-67.5 73 -67.5 207v493h69v-493q0 -218 203 -218t203 218v493h69v-493q0 -134 -67.5 -207t-204.5 -73t-204.5 73zM368 823h-57l117 154h76z" />
    <glyph glyph-name="Ucircumflex" unicode="&#xdb;" horiz-adv-x="689" 
d="M139.5 63q-67.5 73 -67.5 207v493h69v-493q0 -218 203 -218t203 218v493h69v-493q0 -134 -67.5 -207t-204.5 -73t-204.5 73zM253 833h-72l157 161h14l157 -161h-72l-92 99z" />
    <glyph glyph-name="Udieresis" unicode="&#xdc;" horiz-adv-x="689" 
d="M139.5 63q-67.5 73 -67.5 207v493h69v-493q0 -218 203 -218t203 218v493h69v-493q0 -134 -67.5 -207t-204.5 -73t-204.5 73zM214.5 826.5q-14.5 14.5 -14.5 34.5t14.5 34t34.5 14t34.5 -14t14.5 -34t-14.5 -34.5t-34.5 -14.5t-34.5 14.5zM406.5 826.5
q-14.5 14.5 -14.5 34.5t14.5 34t34.5 14t34.5 -14t14.5 -34t-14.5 -34.5t-34.5 -14.5t-34.5 14.5z" />
    <glyph glyph-name="Yacute" unicode="&#xdd;" horiz-adv-x="662" 
d="M367 0h-72v292l-287 471h80l243 -404l243 404h80l-287 -471v-292zM354 823h-57l117 154h76z" />
    <glyph glyph-name="Thorn" unicode="&#xde;" horiz-adv-x="628" 
d="M79 0v763h68v-110h195q113 0 178 -55t65 -158q0 -101 -65 -157.5t-178 -56.5h-195v-226h-68zM335 287q87 0 134.5 39t47.5 112t-48 113t-134 40h-188v-304h188z" />
    <glyph glyph-name="germandbls" unicode="&#xdf;" horiz-adv-x="665" 
d="M81 482q0 139 64.5 215t200.5 76q110 0 175.5 -54.5t65.5 -146.5q0 -57 -26.5 -99t-73.5 -60q68 -15 103 -65t35 -133q0 -100 -67 -157.5t-185 -57.5h-104v58h97q92 0 143 41.5t51 115.5t-45 117t-122 43h-124v58h107q68 0 107 37t39 102q0 68 -46 105.5t-130 37.5
q-96 0 -148 -58t-52 -175v-482h-65v482z" />
    <glyph glyph-name="agrave" unicode="&#xe0;" horiz-adv-x="561" 
d="M100 31q-52 41 -52 115q0 73 59 115q26 18 57.5 28.5t70.5 18.5l196 39q-3 76 -37 114q-36 40 -112 40q-56 0 -97.5 -31t-51.5 -81h-65q12 79 72.5 124.5t142.5 45.5q103 0 157 -57q56 -59 56 -174v-328h-65v103q-27 -51 -76 -80q-55 -33 -120 -33q-83 0 -135 41zM324 70
q58 28 82.5 84.5t24.5 137.5l-195 -41q-64 -14 -92 -37q-31 -26 -31 -68q0 -46 33 -72t84 -26q50 0 94 22zM205 763l117 -154h-57l-136 154h76z" />
    <glyph glyph-name="aacute" unicode="&#xe1;" horiz-adv-x="561" 
d="M100 31q-52 41 -52 115q0 73 59 115q26 18 57.5 28.5t70.5 18.5l196 39q-3 76 -37 114q-36 40 -112 40q-56 0 -97.5 -31t-51.5 -81h-65q12 79 72.5 124.5t142.5 45.5q103 0 157 -57q56 -59 56 -174v-328h-65v103q-27 -51 -76 -80q-55 -33 -120 -33q-83 0 -135 41zM324 70
q58 28 82.5 84.5t24.5 137.5l-195 -41q-64 -14 -92 -37q-31 -26 -31 -68q0 -46 33 -72t84 -26q50 0 94 22zM311 609h-57l117 154h76z" />
    <glyph glyph-name="acircumflex" unicode="&#xe2;" horiz-adv-x="561" 
d="M100 31q-52 41 -52 115q0 73 59 115q26 18 57.5 28.5t70.5 18.5l196 39q-3 76 -37 114q-36 40 -112 40q-56 0 -97.5 -31t-51.5 -81h-65q12 79 72.5 124.5t142.5 45.5q103 0 157 -57q56 -59 56 -174v-328h-65v103q-27 -51 -76 -80q-55 -33 -120 -33q-83 0 -135 41zM324 70
q58 28 82.5 84.5t24.5 137.5l-195 -41q-64 -14 -92 -37q-31 -26 -31 -68q0 -46 33 -72t84 -26q50 0 94 22zM196 619h-72l157 161h14l157 -161h-72l-92 99z" />
    <glyph glyph-name="atilde" unicode="&#xe3;" horiz-adv-x="561" 
d="M100 31q-52 41 -52 115q0 73 59 115q26 18 57.5 28.5t70.5 18.5l196 39q-3 76 -37 114q-36 40 -112 40q-56 0 -97.5 -31t-51.5 -81h-65q12 79 72.5 124.5t142.5 45.5q103 0 157 -57q56 -59 56 -174v-328h-65v103q-27 -51 -76 -80q-55 -33 -120 -33q-83 0 -135 41zM324 70
q58 28 82.5 84.5t24.5 137.5l-195 -41q-64 -14 -92 -37q-31 -26 -31 -68q0 -46 33 -72t84 -26q50 0 94 22zM311.5 636q-19.5 14 -40.5 40q-16 20 -27 29t-27 9q-46 0 -52 -84h-50q3 66 31 102t74 36q29 0 48 -13.5t39 -38.5q16 -20 28.5 -30t29.5 -10q20 0 33 23t15 64h53
q-5 -71 -29.5 -106t-72.5 -35q-33 0 -52.5 14z" />
    <glyph glyph-name="adieresis" unicode="&#xe4;" horiz-adv-x="561" 
d="M100 31q-52 41 -52 115q0 73 59 115q26 18 57.5 28.5t70.5 18.5l196 39q-3 76 -37 114q-36 40 -112 40q-56 0 -97.5 -31t-51.5 -81h-65q12 79 72.5 124.5t142.5 45.5q103 0 157 -57q56 -59 56 -174v-328h-65v103q-27 -51 -76 -80q-55 -33 -120 -33q-83 0 -135 41zM324 70
q58 28 82.5 84.5t24.5 137.5l-195 -41q-64 -14 -92 -37q-31 -26 -31 -68q0 -46 33 -72t84 -26q50 0 94 22zM157.5 690.5q-14.5 14.5 -14.5 34.5t14.5 34t34.5 14t34.5 -14t14.5 -34t-14.5 -34.5t-34.5 -14.5t-34.5 14.5zM349.5 690.5q-14.5 14.5 -14.5 34.5t14.5 34t34.5 14
t34.5 -14t14.5 -34t-14.5 -34.5t-34.5 -14.5t-34.5 14.5z" />
    <glyph glyph-name="aring" unicode="&#xe5;" horiz-adv-x="561" 
d="M100 31q-52 41 -52 115q0 73 59 115q26 18 57.5 28.5t70.5 18.5l196 39q-3 76 -37 114q-36 40 -112 40q-56 0 -97.5 -31t-51.5 -81h-65q12 79 72.5 124.5t142.5 45.5q103 0 157 -57q56 -59 56 -174v-328h-65v103q-27 -51 -76 -80q-55 -33 -120 -33q-83 0 -135 41zM324 70
q58 28 82.5 84.5t24.5 137.5l-195 -41q-64 -14 -92 -37q-31 -26 -31 -68q0 -46 33 -72t84 -26q50 0 94 22zM211 620q-32 32 -32 77t31.5 76.5t77.5 31.5q44 0 76.5 -31.5t32.5 -76.5t-32 -77t-77 -32t-77 32zM331.5 653.5q17.5 18.5 17.5 45.5q0 25 -17 42.5t-44 17.5
q-26 0 -44 -17.5t-18 -42.5q0 -27 18 -45.5t44 -18.5t43.5 18.5z" />
    <glyph glyph-name="ae" unicode="&#xe6;" horiz-adv-x="1000" 
d="M805 83q47 35 67 90h69q-25 -81 -89 -132t-159 -51q-80 0 -142 41.5t-93 111.5h-7q-36 -82 -98 -120q-53 -33 -118 -33q-83 0 -135 41t-52 115q0 73 59 115q26 18 57.5 28.5t70.5 18.5l196 39q-3 76 -37 114q-36 40 -112 40q-56 0 -97.5 -31t-51.5 -81h-65
q12 79 72.5 124.5t142.5 45.5q103 0 157 -57q23 -25 37 -60q35 54 90 85.5t125 31.5q74 0 130.5 -33.5t89.5 -92.5t40 -136q1 -11 1 -34h-457v-11q3 -31 15 -65q23 -65 71 -102t111 -37q65 0 112 35zM499 316h391q-7 42 -18 68q-24 55 -71.5 86t-107.5 31t-105.5 -29.5
t-68.5 -83.5q-15 -32 -20 -72zM406.5 154.5q24.5 56.5 24.5 137.5l-195 -41q-64 -14 -92 -37q-31 -26 -31 -68q0 -46 33 -72t84 -26q50 0 94 22q58 28 82.5 84.5z" />
    <glyph glyph-name="ccedilla" unicode="&#xe7;" horiz-adv-x="591" 
d="M273 -56l7 -9q15 3 31 3q17 0 33 -3q35 -6 58 -24.5t23 -50.5q0 -41 -32.5 -62.5t-86.5 -21.5q-43 0 -91 14v30q46 -19 88 -19q38 0 59.5 15t21.5 43q0 30 -24 43.5t-69 18.5q-28 2 -57 2l51 68q-69 6 -123 44.5t-84 101t-30 140.5q0 80 33.5 144t93.5 101t135 37
q89 0 152 -46t82 -124h-70q-15 51 -59.5 81.5t-104.5 30.5q-56 0 -101 -29t-70.5 -80t-25.5 -115q0 -66 25.5 -118t70.5 -81.5t101 -29.5q64 0 109.5 34.5t57.5 90.5h71q-16 -81 -77 -130t-147 -53q-20 -22 -51 -46z" />
    <glyph glyph-name="egrave" unicode="&#xe8;" horiz-adv-x="617" 
d="M175 27q-60 37 -93.5 102t-33.5 145q0 77 32 142t91.5 104t137.5 39q74 0 130.5 -33.5t89.5 -92.5t40 -136q1 -11 1 -34h-458q3 -39 16 -76q23 -65 71 -102t111 -37q65 0 112 35t67 90h69q-25 -81 -89 -132t-159 -51q-75 0 -135 37zM507 316q-7 42 -18 68
q-24 55 -71.5 86t-107.5 31t-105.5 -29.5t-68.5 -83.5q-15 -32 -20 -72h391zM225 763l117 -154h-57l-136 154h76z" />
    <glyph glyph-name="eacute" unicode="&#xe9;" horiz-adv-x="617" 
d="M175 27q-60 37 -93.5 102t-33.5 145q0 77 32 142t91.5 104t137.5 39q74 0 130.5 -33.5t89.5 -92.5t40 -136q1 -11 1 -34h-458q3 -39 16 -76q23 -65 71 -102t111 -37q65 0 112 35t67 90h69q-25 -81 -89 -132t-159 -51q-75 0 -135 37zM507 316q-7 42 -18 68
q-24 55 -71.5 86t-107.5 31t-105.5 -29.5t-68.5 -83.5q-15 -32 -20 -72h391zM331 609h-57l117 154h76z" />
    <glyph glyph-name="ecircumflex" unicode="&#xea;" horiz-adv-x="617" 
d="M175 27q-60 37 -93.5 102t-33.5 145q0 77 32 142t91.5 104t137.5 39q74 0 130.5 -33.5t89.5 -92.5t40 -136q1 -11 1 -34h-458q3 -39 16 -76q23 -65 71 -102t111 -37q65 0 112 35t67 90h69q-25 -81 -89 -132t-159 -51q-75 0 -135 37zM507 316q-7 42 -18 68
q-24 55 -71.5 86t-107.5 31t-105.5 -29.5t-68.5 -83.5q-15 -32 -20 -72h391zM216 619h-72l157 161h14l157 -161h-72l-92 99z" />
    <glyph glyph-name="edieresis" unicode="&#xeb;" horiz-adv-x="617" 
d="M175 27q-60 37 -93.5 102t-33.5 145q0 77 32 142t91.5 104t137.5 39q74 0 130.5 -33.5t89.5 -92.5t40 -136q1 -11 1 -34h-458q3 -39 16 -76q23 -65 71 -102t111 -37q65 0 112 35t67 90h69q-25 -81 -89 -132t-159 -51q-75 0 -135 37zM507 316q-7 42 -18 68
q-24 55 -71.5 86t-107.5 31t-105.5 -29.5t-68.5 -83.5q-15 -32 -20 -72h391zM177.5 690.5q-14.5 14.5 -14.5 34.5t14.5 34t34.5 14t34.5 -14t14.5 -34t-14.5 -34.5t-34.5 -14.5t-34.5 14.5zM369.5 690.5q-14.5 14.5 -14.5 34.5t14.5 34t34.5 14t34.5 -14t14.5 -34
t-14.5 -34.5t-34.5 -14.5t-34.5 14.5z" />
    <glyph glyph-name="igrave" unicode="&#xec;" horiz-adv-x="209" 
d="M137 0h-65v549h65v-549zM22 763l117 -154h-57l-136 154h76z" />
    <glyph glyph-name="iacute" unicode="&#xed;" horiz-adv-x="209" 
d="M137 0h-65v549h65v-549zM128 609h-57l117 154h76z" />
    <glyph glyph-name="icircumflex" unicode="&#xee;" horiz-adv-x="209" 
d="M137 0h-65v549h65v-549zM13 619h-72l157 161h14l157 -161h-72l-92 99z" />
    <glyph glyph-name="idieresis" unicode="&#xef;" horiz-adv-x="209" 
d="M137 0h-65v549h65v-549zM-25.5 690.5q-14.5 14.5 -14.5 34.5t14.5 34t34.5 14t34.5 -14t14.5 -34t-14.5 -34.5t-34.5 -14.5t-34.5 14.5zM166.5 690.5q-14.5 14.5 -14.5 34.5t14.5 34t34.5 14t34.5 -14t14.5 -34t-14.5 -34.5t-34.5 -14.5t-34.5 14.5z" />
    <glyph glyph-name="eth" unicode="&#xf0;" horiz-adv-x="600" 
d="M150 23.5q-54 33.5 -84 91.5t-30 129q0 70 29 125.5t82.5 86.5t123.5 31q72 0 128.5 -33t83.5 -83q3 74 -15 153t-53 122l-163 -93l-23 40l150 85q-46 35 -107 35q-62 0 -110 -31l-32 50q58 39 142 39q98 0 165 -59l75 44l23 -40l-68 -39q40 -55 59.5 -134t19.5 -173
q0 -172 -65.5 -276t-207.5 -104q-69 0 -123 33.5zM372 73.5q44 25.5 68.5 70t24.5 101.5q0 51 -25 93t-68.5 66.5t-97.5 24.5q-50 0 -89.5 -24t-61.5 -66t-22 -94q0 -54 22 -99t61 -71.5t90 -26.5q54 0 98 25.5z" />
    <glyph glyph-name="ntilde" unicode="&#xf1;" horiz-adv-x="558" 
d="M71 0v549h65v-92q33 53 77.5 77.5t102.5 24.5q50 0 88 -22.5t60 -61.5q18 -31 22.5 -64t4.5 -74v-337h-65v340q0 71 -24 110q-31 51 -100 51q-63 0 -105 -45q-30 -34 -45.5 -90.5t-15.5 -148.5v-217h-65zM304.5 636q-19.5 14 -40.5 40q-16 20 -27 29t-27 9q-46 0 -52 -84
h-50q3 66 31 102t74 36q29 0 48 -13.5t39 -38.5q16 -20 28.5 -30t29.5 -10q20 0 33 23t15 64h53q-5 -71 -29.5 -106t-72.5 -35q-33 0 -52.5 14z" />
    <glyph glyph-name="ograve" unicode="&#xf2;" horiz-adv-x="625" 
d="M176 27q-60 37 -94 102.5t-34 147.5q0 80 34 144t94 101t135 37t135.5 -37t95 -101t34.5 -144q0 -81 -34 -146.5t-94.5 -103t-136.5 -37.5q-75 0 -135 37zM413 78q46 30 72 82t26 117q0 63 -26 114t-71.5 80.5t-102.5 29.5q-56 0 -101.5 -29t-71 -80.5t-25.5 -114.5
q0 -65 26 -117.5t71 -82t101 -29.5t102 30zM229 763l117 -154h-57l-136 154h76z" />
    <glyph glyph-name="oacute" unicode="&#xf3;" horiz-adv-x="625" 
d="M176 27q-60 37 -94 102.5t-34 147.5q0 80 34 144t94 101t135 37t135.5 -37t95 -101t34.5 -144q0 -81 -34 -146.5t-94.5 -103t-136.5 -37.5q-75 0 -135 37zM413 78q46 30 72 82t26 117q0 63 -26 114t-71.5 80.5t-102.5 29.5q-56 0 -101.5 -29t-71 -80.5t-25.5 -114.5
q0 -65 26 -117.5t71 -82t101 -29.5t102 30zM335 609h-57l117 154h76z" />
    <glyph glyph-name="ocircumflex" unicode="&#xf4;" horiz-adv-x="625" 
d="M176 27q-60 37 -94 102.5t-34 147.5q0 80 34 144t94 101t135 37t135.5 -37t95 -101t34.5 -144q0 -81 -34 -146.5t-94.5 -103t-136.5 -37.5q-75 0 -135 37zM413 78q46 30 72 82t26 117q0 63 -26 114t-71.5 80.5t-102.5 29.5q-56 0 -101.5 -29t-71 -80.5t-25.5 -114.5
q0 -65 26 -117.5t71 -82t101 -29.5t102 30zM220 619h-72l157 161h14l157 -161h-72l-92 99z" />
    <glyph glyph-name="otilde" unicode="&#xf5;" horiz-adv-x="625" 
d="M176 27q-60 37 -94 102.5t-34 147.5q0 80 34 144t94 101t135 37t135.5 -37t95 -101t34.5 -144q0 -81 -34 -146.5t-94.5 -103t-136.5 -37.5q-75 0 -135 37zM413 78q46 30 72 82t26 117q0 63 -26 114t-71.5 80.5t-102.5 29.5q-56 0 -101.5 -29t-71 -80.5t-25.5 -114.5
q0 -65 26 -117.5t71 -82t101 -29.5t102 30zM335.5 636q-19.5 14 -40.5 40q-16 20 -27 29t-27 9q-46 0 -52 -84h-50q3 66 31 102t74 36q29 0 48 -13.5t39 -38.5q16 -20 28.5 -30t29.5 -10q20 0 33 23t15 64h53q-5 -71 -29.5 -106t-72.5 -35q-33 0 -52.5 14z" />
    <glyph glyph-name="odieresis" unicode="&#xf6;" horiz-adv-x="625" 
d="M176 27q-60 37 -94 102.5t-34 147.5q0 80 34 144t94 101t135 37t135.5 -37t95 -101t34.5 -144q0 -81 -34 -146.5t-94.5 -103t-136.5 -37.5q-75 0 -135 37zM413 78q46 30 72 82t26 117q0 63 -26 114t-71.5 80.5t-102.5 29.5q-56 0 -101.5 -29t-71 -80.5t-25.5 -114.5
q0 -65 26 -117.5t71 -82t101 -29.5t102 30zM181.5 690.5q-14.5 14.5 -14.5 34.5t14.5 34t34.5 14t34.5 -14t14.5 -34t-14.5 -34.5t-34.5 -14.5t-34.5 14.5zM373.5 690.5q-14.5 14.5 -14.5 34.5t14.5 34t34.5 14t34.5 -14t14.5 -34t-14.5 -34.5t-34.5 -14.5t-34.5 14.5z" />
    <glyph glyph-name="divide" unicode="&#xf7;" horiz-adv-x="450" 
d="M266 472h-82v120h82v-120zM423 311h-396v57h396v-57zM266 76h-82v122h82v-122z" />
    <glyph glyph-name="oslash" unicode="&#xf8;" horiz-adv-x="625" 
d="M523 451q53 -75 53 -174q0 -81 -34 -146.5t-94.5 -103t-136.5 -37.5q-52 0 -98 18t-80 52l-49 -48l-35 35l51 51q-52 76 -52 179q0 80 34 144t94 101t135 37q52 0 98 -18t82 -52l49 49l35 -36zM147 145l300 300q-27 27 -61.5 41.5t-74.5 14.5q-56 0 -101.5 -29t-71 -80.5
t-25.5 -114.5q0 -76 34 -132zM413 78q46 30 72 82t26 117q0 72 -34 128l-300 -300q55 -57 134 -57q56 0 102 30z" />
    <glyph glyph-name="ugrave" unicode="&#xf9;" horiz-adv-x="558" 
d="M155.5 12q-38.5 22 -61.5 62q-27 47 -27 138v337h65v-340q0 -71 24 -110q32 -51 100 -51q31 0 58 11.5t47 33.5q31 34 46 92t15 147v217h65v-549h-65v92q-33 -52 -77 -77t-103 -25q-48 0 -86.5 22zM196 763l117 -154h-57l-136 154h76z" />
    <glyph glyph-name="uacute" unicode="&#xfa;" horiz-adv-x="558" 
d="M155.5 12q-38.5 22 -61.5 62q-27 47 -27 138v337h65v-340q0 -71 24 -110q32 -51 100 -51q31 0 58 11.5t47 33.5q31 34 46 92t15 147v217h65v-549h-65v92q-33 -52 -77 -77t-103 -25q-48 0 -86.5 22zM302 609h-57l117 154h76z" />
    <glyph glyph-name="ucircumflex" unicode="&#xfb;" horiz-adv-x="558" 
d="M155.5 12q-38.5 22 -61.5 62q-27 47 -27 138v337h65v-340q0 -71 24 -110q32 -51 100 -51q31 0 58 11.5t47 33.5q31 34 46 92t15 147v217h65v-549h-65v92q-33 -52 -77 -77t-103 -25q-48 0 -86.5 22zM187 619h-72l157 161h14l157 -161h-72l-92 99z" />
    <glyph glyph-name="udieresis" unicode="&#xfc;" horiz-adv-x="558" 
d="M155.5 12q-38.5 22 -61.5 62q-27 47 -27 138v337h65v-340q0 -71 24 -110q32 -51 100 -51q31 0 58 11.5t47 33.5q31 34 46 92t15 147v217h65v-549h-65v92q-33 -52 -77 -77t-103 -25q-48 0 -86.5 22zM148.5 690.5q-14.5 14.5 -14.5 34.5t14.5 34t34.5 14t34.5 -14t14.5 -34
t-14.5 -34.5t-34.5 -14.5t-34.5 14.5zM340.5 690.5q-14.5 14.5 -14.5 34.5t14.5 34t34.5 14t34.5 -14t14.5 -34t-14.5 -34.5t-34.5 -14.5t-34.5 14.5z" />
    <glyph glyph-name="yacute" unicode="&#xfd;" horiz-adv-x="542" 
d="M67 -214v59h60q35 0 51.5 11t29.5 43l40 106l-228 544h72l189 -461l166 461h72l-248 -672q-21 -55 -50.5 -73t-63.5 -18h-90zM294 609h-57l117 154h76z" />
    <glyph glyph-name="thorn" unicode="&#xfe;" horiz-adv-x="623" 
d="M72 -214v977h65v-316q37 54 86.5 83t109.5 29q70 0 125 -36.5t85 -101t30 -146.5q0 -83 -30 -147.5t-84.5 -101t-125.5 -36.5q-59 0 -109 28.5t-87 83.5v-316h-65zM423 77.5q41 29.5 63 81t22 116.5q0 64 -22 115.5t-63 81t-96 29.5t-98.5 -29.5t-68.5 -81t-25 -115.5
t25 -116t68.5 -81.5t98.5 -29.5t96 29.5z" />
    <glyph glyph-name="ydieresis" unicode="&#xff;" horiz-adv-x="542" 
d="M67 -214v59h60q35 0 51.5 11t29.5 43l40 106l-228 544h72l189 -461l166 461h72l-248 -672q-21 -55 -50.5 -73t-63.5 -18h-90zM140.5 690.5q-14.5 14.5 -14.5 34.5t14.5 34t34.5 14t34.5 -14t14.5 -34t-14.5 -34.5t-34.5 -14.5t-34.5 14.5zM332.5 690.5
q-14.5 14.5 -14.5 34.5t14.5 34t34.5 14t34.5 -14t14.5 -34t-14.5 -34.5t-34.5 -14.5t-34.5 14.5z" />
    <glyph glyph-name="Amacron" unicode="&#x100;" horiz-adv-x="688" 
d="M87 0h-71l288 763h80l288 -763h-71l-77 206h-360zM344 692l-158 -424h316zM491 885h-294v34h294v-34z" />
    <glyph glyph-name="amacron" unicode="&#x101;" horiz-adv-x="561" 
d="M100 31q-52 41 -52 115q0 73 59 115q26 18 57.5 28.5t70.5 18.5l196 39q-3 76 -37 114q-36 40 -112 40q-56 0 -97.5 -31t-51.5 -81h-65q12 79 72.5 124.5t142.5 45.5q103 0 157 -57q56 -59 56 -174v-328h-65v103q-27 -51 -76 -80q-55 -33 -120 -33q-83 0 -135 41zM324 70
q58 28 82.5 84.5t24.5 137.5l-195 -41q-64 -14 -92 -37q-31 -26 -31 -68q0 -46 33 -72t84 -26q50 0 94 22zM435 671h-294v34h294v-34z" />
    <glyph glyph-name="Abreve" unicode="&#x102;" horiz-adv-x="688" 
d="M87 0h-71l288 763h80l288 -763h-71l-77 206h-360zM344 692l-158 -424h316zM225.5 864.5q-41.5 38.5 -46.5 109.5h48q4 -48 34.5 -75t82.5 -27t81.5 27t33.5 75h49q-4 -71 -46 -109.5t-118 -38.5q-77 0 -118.5 38.5z" />
    <glyph glyph-name="abreve" unicode="&#x103;" horiz-adv-x="561" 
d="M100 31q-52 41 -52 115q0 73 59 115q26 18 57.5 28.5t70.5 18.5l196 39q-3 76 -37 114q-36 40 -112 40q-56 0 -97.5 -31t-51.5 -81h-65q12 79 72.5 124.5t142.5 45.5q103 0 157 -57q56 -59 56 -174v-328h-65v103q-27 -51 -76 -80q-55 -33 -120 -33q-83 0 -135 41zM324 70
q58 28 82.5 84.5t24.5 137.5l-195 -41q-64 -14 -92 -37q-31 -26 -31 -68q0 -46 33 -72t84 -26q50 0 94 22zM169.5 650.5q-41.5 38.5 -46.5 109.5h48q4 -48 34.5 -75t82.5 -27t81.5 27t33.5 75h49q-4 -71 -46 -109.5t-118 -38.5q-77 0 -118.5 38.5z" />
    <glyph glyph-name="Aogonek" unicode="&#x104;" horiz-adv-x="688" 
d="M87 0h-71l288 763h80l288 -763h-71l-77 206h-360zM344 692l-158 -424h316zM558 -201.5q-27 22.5 -27 64.5q0 41 25 70.5t79 55.5v11h37q-51 -48 -70.5 -73.5t-19.5 -53.5q0 -26 15 -40.5t43 -14.5q16 0 32 4v-41q-20 -5 -43 -5q-44 0 -71 22.5z" />
    <glyph glyph-name="aogonek" unicode="&#x105;" horiz-adv-x="561" 
d="M496 0q-51 -48 -70.5 -73.5t-19.5 -53.5q0 -26 15 -40.5t43 -14.5q16 0 32 4v-41q-20 -5 -43 -5q-44 0 -71 22.5t-27 64.5q0 41 25 70.5t79 55.5v11h-28v103q-27 -51 -76 -80q-55 -33 -120 -33q-83 0 -135 41t-52 115q0 73 59 115q26 18 57.5 28.5t70.5 18.5l196 39
q-3 76 -37 114q-36 40 -112 40q-56 0 -97.5 -31t-51.5 -81h-65q12 79 72.5 124.5t142.5 45.5q103 0 157 -57q56 -59 56 -174v-328zM406.5 154.5q24.5 56.5 24.5 137.5l-195 -41q-64 -14 -92 -37q-31 -26 -31 -68q0 -46 33 -72t84 -26q50 0 94 22q58 28 82.5 84.5z" />
    <glyph glyph-name="Cacute" unicode="&#x106;" horiz-adv-x="733" 
d="M204 43.5q-78 53.5 -116 142.5t-38 196t38 196t116 142t191 53q80 0 142.5 -27t102 -75t51.5 -110h-73q-15 69 -75.5 109.5t-149.5 40.5t-150.5 -42.5t-92.5 -117t-31 -169.5t31 -170t92.5 -117.5t150.5 -42.5q90 0 149.5 43t75.5 121h73q-19 -104 -97 -165t-199 -61
q-113 0 -191 53.5zM417 823h-57l117 154h76z" />
    <glyph glyph-name="cacute" unicode="&#x107;" horiz-adv-x="591" 
d="M175 27q-60 37 -93.5 102.5t-33.5 147.5q0 80 33.5 144t93.5 101t135 37q89 0 152 -46t82 -124h-70q-15 51 -59.5 81.5t-104.5 30.5q-56 0 -101 -29t-70.5 -80t-25.5 -115q0 -66 25.5 -118t70.5 -81.5t101 -29.5q64 0 109.5 34.5t57.5 90.5h71q-17 -84 -82 -133.5
t-156 -49.5q-75 0 -135 37zM337 609h-57l117 154h76z" />
    <glyph glyph-name="Cdotaccent" unicode="&#x10a;" horiz-adv-x="733" 
d="M204 43.5q-78 53.5 -116 142.5t-38 196t38 196t116 142t191 53q80 0 142.5 -27t102 -75t51.5 -110h-73q-15 69 -75.5 109.5t-149.5 40.5t-150.5 -42.5t-92.5 -117t-31 -169.5t31 -170t92.5 -117.5t150.5 -42.5q90 0 149.5 43t75.5 121h73q-19 -104 -97 -165t-199 -61
q-113 0 -191 53.5zM359.5 826.5q-14.5 14.5 -14.5 34.5t14.5 34t34.5 14t34.5 -14t14.5 -34t-14.5 -34.5t-34.5 -14.5t-34.5 14.5z" />
    <glyph glyph-name="cdotaccent" unicode="&#x10b;" horiz-adv-x="591" 
d="M175 27q-60 37 -93.5 102.5t-33.5 147.5q0 80 33.5 144t93.5 101t135 37q89 0 152 -46t82 -124h-70q-15 51 -59.5 81.5t-104.5 30.5q-56 0 -101 -29t-70.5 -80t-25.5 -115q0 -66 25.5 -118t70.5 -81.5t101 -29.5q64 0 109.5 34.5t57.5 90.5h71q-17 -84 -82 -133.5
t-156 -49.5q-75 0 -135 37zM279.5 690.5q-14.5 14.5 -14.5 34.5t14.5 34t34.5 14t34.5 -14t14.5 -34t-14.5 -34.5t-34.5 -14.5t-34.5 14.5z" />
    <glyph glyph-name="Ccaron" unicode="&#x10c;" horiz-adv-x="733" 
d="M204 43.5q-78 53.5 -116 142.5t-38 196t38 196t116 142t191 53q80 0 142.5 -27t102 -75t51.5 -110h-73q-15 69 -75.5 109.5t-149.5 40.5t-150.5 -42.5t-92.5 -117t-31 -169.5t31 -170t92.5 -117.5t150.5 -42.5q90 0 149.5 43t75.5 121h73q-19 -104 -97 -165t-199 -61
q-113 0 -191 53.5zM401 816h-14l-157 161h72l92 -98l92 98h72z" />
    <glyph glyph-name="ccaron" unicode="&#x10d;" horiz-adv-x="591" 
d="M175 27q-60 37 -93.5 102.5t-33.5 147.5q0 80 33.5 144t93.5 101t135 37q89 0 152 -46t82 -124h-70q-15 51 -59.5 81.5t-104.5 30.5q-56 0 -101 -29t-70.5 -80t-25.5 -115q0 -66 25.5 -118t70.5 -81.5t101 -29.5q64 0 109.5 34.5t57.5 90.5h71q-17 -84 -82 -133.5
t-156 -49.5q-75 0 -135 37zM321 602h-14l-157 161h72l92 -98l92 98h72z" />
    <glyph glyph-name="Dcaron" unicode="&#x10e;" horiz-adv-x="723" 
d="M79 0v763h204q188 0 288.5 -100t100.5 -285q0 -181 -101 -279.5t-289 -98.5h-203zM282 62q149 0 235.5 73.5t86.5 242.5q0 166 -84 244.5t-237 78.5h-135v-639h134zM359 816h-14l-157 161h72l92 -98l92 98h72z" />
    <glyph glyph-name="dcaron" unicode="&#x10f;" horiz-adv-x="623" 
d="M165 26.5q-55 36.5 -85 101t-30 146.5q0 83 30 147.5t84.5 101t125.5 36.5q59 0 109 -28.5t87 -83.5v316h65v-763h-65v102q-37 -54 -86.5 -83t-109.5 -29q-70 0 -125 36.5zM394.5 77.5q43.5 29.5 68.5 81t25 115.5t-25 116t-68.5 81.5t-98.5 29.5t-96 -29.5t-63 -81
t-22 -116.5q0 -64 22 -115.5t63 -81t96 -29.5t98.5 29.5zM643 548q45 8 68 38t23 76q0 14 -2 29q-16 -18 -39 -18q-24 0 -38.5 13.5t-14.5 35.5q0 23 15 37t40 14q36 0 57 -28.5t21 -77.5q0 -57 -31.5 -101t-98.5 -54v36z" />
    <glyph glyph-name="Dcroat" unicode="&#x110;" horiz-adv-x="723" 
d="M283 763q188 0 288.5 -100t100.5 -285q0 -181 -101 -279.5t-289 -98.5h-203v353h-63v57h63v353h204zM282 62q149 0 235.5 73.5t86.5 242.5q0 166 -84 244.5t-237 78.5h-135v-291h259v-57h-259v-291h134z" />
    <glyph glyph-name="Emacron" unicode="&#x112;" horiz-adv-x="609" 
d="M565 0h-486v763h486v-62h-417v-287h366v-62h-366v-290h417v-62zM469 885h-294v34h294v-34z" />
    <glyph glyph-name="emacron" unicode="&#x113;" horiz-adv-x="617" 
d="M175 27q-60 37 -93.5 102t-33.5 145q0 77 32 142t91.5 104t137.5 39q74 0 130.5 -33.5t89.5 -92.5t40 -136q1 -11 1 -34h-458q3 -39 16 -76q23 -65 71 -102t111 -37q65 0 112 35t67 90h69q-25 -81 -89 -132t-159 -51q-75 0 -135 37zM507 316q-7 42 -18 68
q-24 55 -71.5 86t-107.5 31t-105.5 -29.5t-68.5 -83.5q-15 -32 -20 -72h391zM455 671h-294v34h294v-34z" />
    <glyph glyph-name="Edotaccent" unicode="&#x116;" horiz-adv-x="609" 
d="M565 0h-486v763h486v-62h-417v-287h366v-62h-366v-290h417v-62zM287.5 826.5q-14.5 14.5 -14.5 34.5t14.5 34t34.5 14t34.5 -14t14.5 -34t-14.5 -34.5t-34.5 -14.5t-34.5 14.5z" />
    <glyph glyph-name="edotaccent" unicode="&#x117;" horiz-adv-x="617" 
d="M175 27q-60 37 -93.5 102t-33.5 145q0 77 32 142t91.5 104t137.5 39q74 0 130.5 -33.5t89.5 -92.5t40 -136q1 -11 1 -34h-458q3 -39 16 -76q23 -65 71 -102t111 -37q65 0 112 35t67 90h69q-25 -81 -89 -132t-159 -51q-75 0 -135 37zM507 316q-7 42 -18 68
q-24 55 -71.5 86t-107.5 31t-105.5 -29.5t-68.5 -83.5q-15 -32 -20 -72h391zM273.5 690.5q-14.5 14.5 -14.5 34.5t14.5 34t34.5 14t34.5 -14t14.5 -34t-14.5 -34.5t-34.5 -14.5t-34.5 14.5z" />
    <glyph glyph-name="Eogonek" unicode="&#x118;" horiz-adv-x="609" 
d="M565 0h-486v763h486v-62h-417v-287h366v-62h-366v-290h417v-62zM451 -201.5q-27 22.5 -27 64.5q0 41 25 70.5t79 55.5v11h37q-51 -48 -70.5 -73.5t-19.5 -53.5q0 -26 15 -40.5t43 -14.5q16 0 32 4v-41q-20 -5 -43 -5q-44 0 -71 22.5z" />
    <glyph glyph-name="eogonek" unicode="&#x119;" horiz-adv-x="617" 
d="M422 83q47 35 67 90h69q-25 -82 -88 -131q-50 -46 -69 -71.5t-19 -53.5q0 -26 15 -40.5t43 -14.5q16 0 32 4v-41q-20 -5 -43 -5q-44 0 -71 22.5t-27 64.5q0 54 46 91q-34 -8 -67 -8q-75 0 -135 37t-93.5 102t-33.5 145q0 77 32 142t91.5 104t137.5 39q74 0 130.5 -33.5
t89.5 -92.5t40 -136q1 -11 1 -34h-458q3 -39 16 -76q23 -65 71 -102t111 -37q65 0 112 35zM116 316h391q-7 42 -18 68q-24 55 -71.5 86t-107.5 31t-105.5 -29.5t-68.5 -83.5q-15 -32 -20 -72z" />
    <glyph glyph-name="Ecaron" unicode="&#x11a;" horiz-adv-x="609" 
d="M565 0h-486v763h486v-62h-417v-287h366v-62h-366v-290h417v-62zM329 816h-14l-157 161h72l92 -98l92 98h72z" />
    <glyph glyph-name="ecaron" unicode="&#x11b;" horiz-adv-x="617" 
d="M175 27q-60 37 -93.5 102t-33.5 145q0 77 32 142t91.5 104t137.5 39q74 0 130.5 -33.5t89.5 -92.5t40 -136q1 -11 1 -34h-458q3 -39 16 -76q23 -65 71 -102t111 -37q65 0 112 35t67 90h69q-25 -81 -89 -132t-159 -51q-75 0 -135 37zM507 316q-7 42 -18 68
q-24 55 -71.5 86t-107.5 31t-105.5 -29.5t-68.5 -83.5q-15 -32 -20 -72h391zM315 602h-14l-157 161h72l92 -98l92 98h72z" />
    <glyph glyph-name="Gbreve" unicode="&#x11e;" horiz-adv-x="783" 
d="M206 44q-79 54 -117.5 143t-38.5 194q0 106 38.5 195t117.5 143t194 54q123 0 202.5 -58t105.5 -153h-77q-20 69 -80 109t-152 40q-93 0 -156 -45t-93.5 -119.5t-30.5 -163.5q0 -92 31.5 -167t95 -119.5t154.5 -44.5q77 0 134 35t87 98t30 145h-187v62h256v-392h-64v141
q-25 -76 -95.5 -113.5t-159.5 -37.5q-116 0 -195 54zM281.5 864.5q-41.5 38.5 -46.5 109.5h48q4 -48 34.5 -75t82.5 -27t81.5 27t33.5 75h49q-4 -71 -46 -109.5t-118 -38.5q-77 0 -118.5 38.5z" />
    <glyph glyph-name="gbreve" unicode="&#x11f;" horiz-adv-x="622" 
d="M66 -56h65q17 -56 58.5 -83t117.5 -27q93 0 136 41t43 121v106q-37 -55 -87 -83.5t-109 -28.5q-70 0 -125 36.5t-85 101.5t-30 148q0 82 30 146.5t85 100.5t125 36q60 0 109.5 -29t86.5 -83v102h65v-542q0 -121 -62.5 -176t-180.5 -55q-198 0 -242 168zM394.5 77.5
q43.5 29.5 68.5 81t25 115.5t-25 116t-68.5 81.5t-98.5 29.5q-56 0 -97 -29.5t-62.5 -81t-21.5 -116.5q0 -64 22 -115.5t63 -81t96 -29.5t98.5 29.5zM203.5 650.5q-41.5 38.5 -46.5 109.5h48q4 -48 34.5 -75t82.5 -27t81.5 27t33.5 75h49q-4 -71 -46 -109.5t-118 -38.5
q-77 0 -118.5 38.5z" />
    <glyph glyph-name="Gdotaccent" unicode="&#x120;" horiz-adv-x="783" 
d="M206 44q-79 54 -117.5 143t-38.5 194q0 106 38.5 195t117.5 143t194 54q123 0 202.5 -58t105.5 -153h-77q-20 69 -80 109t-152 40q-93 0 -156 -45t-93.5 -119.5t-30.5 -163.5q0 -92 31.5 -167t95 -119.5t154.5 -44.5q77 0 134 35t87 98t30 145h-187v62h256v-392h-64v141
q-25 -76 -95.5 -113.5t-159.5 -37.5q-116 0 -195 54zM365.5 826.5q-14.5 14.5 -14.5 34.5t14.5 34t34.5 14t34.5 -14t14.5 -34t-14.5 -34.5t-34.5 -14.5t-34.5 14.5z" />
    <glyph glyph-name="gdotaccent" unicode="&#x121;" horiz-adv-x="622" 
d="M66 -56h65q17 -56 58.5 -83t117.5 -27q93 0 136 41t43 121v106q-37 -55 -87 -83.5t-109 -28.5q-70 0 -125 36.5t-85 101.5t-30 148q0 82 30 146.5t85 100.5t125 36q60 0 109.5 -29t86.5 -83v102h65v-542q0 -121 -62.5 -176t-180.5 -55q-198 0 -242 168zM394.5 77.5
q43.5 29.5 68.5 81t25 115.5t-25 116t-68.5 81.5t-98.5 29.5q-56 0 -97 -29.5t-62.5 -81t-21.5 -116.5q0 -64 22 -115.5t63 -81t96 -29.5t98.5 29.5zM287.5 690.5q-14.5 14.5 -14.5 34.5t14.5 34t34.5 14t34.5 -14t14.5 -34t-14.5 -34.5t-34.5 -14.5t-34.5 14.5z" />
    <glyph glyph-name="uni0122" unicode="&#x122;" horiz-adv-x="783" 
d="M206 44q-79 54 -117.5 143t-38.5 194q0 106 38.5 195t117.5 143t194 54q123 0 202.5 -58t105.5 -153h-77q-20 69 -80 109t-152 40q-93 0 -156 -45t-93.5 -119.5t-30.5 -163.5q0 -92 31.5 -167t95 -119.5t154.5 -44.5q77 0 134 35t87 98t30 145h-187v62h256v-392h-64v141
q-25 -76 -95.5 -113.5t-159.5 -37.5q-116 0 -195 54zM350 -192q35 0 54.5 12t19.5 34q0 11 -4 24h-9q-8 -15 -25 -15t-28 11t-11 29t12 29t32 11q29 0 45.5 -23t16.5 -61q0 -33 -24.5 -53t-78.5 -20v22z" />
    <glyph glyph-name="uni0123" unicode="&#x123;" horiz-adv-x="622" 
d="M66 -56h65q17 -56 58.5 -83t117.5 -27q93 0 136 41t43 121v106q-37 -55 -87 -83.5t-109 -28.5q-70 0 -125 36.5t-85 101.5t-30 148q0 82 30 146.5t85 100.5t125 36q60 0 109.5 -29t86.5 -83v102h65v-542q0 -121 -62.5 -176t-180.5 -55q-198 0 -242 168zM394.5 77.5
q43.5 29.5 68.5 81t25 115.5t-25 116t-68.5 81.5t-98.5 29.5q-56 0 -97 -29.5t-62.5 -81t-21.5 -116.5q0 -64 22 -115.5t63 -81t96 -29.5t98.5 29.5zM304 603.5q-17 20.5 -17 55.5q0 40 25.5 71.5t79.5 39.5v-26q-36 -6 -54.5 -27.5t-18.5 -54.5l1 -20q13 12 32 12
t30.5 -9.5t11.5 -25.5t-12 -26t-32 -10q-29 0 -46 20.5z" />
    <glyph glyph-name="Imacron" unicode="&#x12a;" horiz-adv-x="228" 
d="M148 0h-69v763h69v-763zM261 885h-294v34h294v-34z" />
    <glyph glyph-name="imacron" unicode="&#x12b;" horiz-adv-x="209" 
d="M137 0h-65v549h65v-549zM252 671h-294v34h294v-34z" />
    <glyph glyph-name="Iogonek" unicode="&#x12e;" horiz-adv-x="228" 
d="M148 0h-69v763h69v-763zM34 -201.5q-27 22.5 -27 64.5q0 41 25 70.5t79 55.5v11h37q-51 -48 -70.5 -73.5t-19.5 -53.5q0 -26 15 -40.5t43 -14.5q16 0 32 4v-41q-20 -5 -43 -5q-44 0 -71 22.5z" />
    <glyph glyph-name="iogonek" unicode="&#x12f;" horiz-adv-x="209" 
d="M137 0h-65v549h65v-549zM70.5 690.5q-14.5 14.5 -14.5 34.5t14.5 34t34.5 14t34.5 -14t14.5 -34t-14.5 -34.5t-34.5 -14.5t-34.5 14.5zM23 -201.5q-27 22.5 -27 64.5q0 41 25 70.5t79 55.5v11h37q-51 -48 -70.5 -73.5t-19.5 -53.5q0 -26 15 -40.5t43 -14.5q16 0 32 4v-41
q-20 -5 -43 -5q-44 0 -71 22.5z" />
    <glyph glyph-name="Idotaccent" unicode="&#x130;" horiz-adv-x="228" 
d="M148 0h-69v763h69v-763zM79.5 826.5q-14.5 14.5 -14.5 34.5t14.5 34t34.5 14t34.5 -14t14.5 -34t-14.5 -34.5t-34.5 -14.5t-34.5 14.5z" />
    <glyph glyph-name="dotlessi" unicode="&#x131;" horiz-adv-x="209" 
d="M137 0h-65v549h65v-549z" />
    <glyph glyph-name="uni0136" unicode="&#x136;" horiz-adv-x="612" 
d="M148 0h-69v763h69v-353l342 353h87l-352 -366l374 -397h-96l-355 380v-380zM249 -192q35 0 54.5 12t19.5 34q0 11 -4 24h-9q-8 -15 -25 -15t-28 11t-11 29t12 29t32 11q29 0 45.5 -23t16.5 -61q0 -33 -24.5 -53t-78.5 -20v22z" />
    <glyph glyph-name="uni0137" unicode="&#x137;" horiz-adv-x="536" 
d="M137 0h-65v763h65v-439l265 225h92l-287 -241l313 -308h-90l-293 292v-292zM206 -192q35 0 54.5 12t19.5 34q0 11 -4 24h-9q-8 -15 -25 -15t-28 11t-11 29t12 29t32 11q29 0 45.5 -23t16.5 -61q0 -33 -24.5 -53t-78.5 -20v22z" />
    <glyph glyph-name="kgreenlandic" unicode="&#x138;" horiz-adv-x="536" 
d="M137 0h-65v549h65v-225l265 225h92l-287 -241l313 -308h-90l-293 292v-292z" />
    <glyph glyph-name="Lacute" unicode="&#x139;" horiz-adv-x="513" 
d="M498 0h-419v763h69v-701h350v-62zM137 823h-57l117 154h76z" />
    <glyph glyph-name="lacute" unicode="&#x13a;" horiz-adv-x="263" 
d="M183 0q-59 0 -86.5 28t-27.5 100v635h65v-625q0 -44 11.5 -62t51.5 -18h36v-58h-50zM125 823h-57l117 154h76z" />
    <glyph glyph-name="uni013B" unicode="&#x13b;" horiz-adv-x="513" 
d="M498 0h-419v763h69v-701h350v-62zM239 -192q35 0 54.5 12t19.5 34q0 11 -4 24h-9q-8 -15 -25 -15t-28 11t-11 29t12 29t32 11q29 0 45.5 -23t16.5 -61q0 -33 -24.5 -53t-78.5 -20v22z" />
    <glyph glyph-name="uni013C" unicode="&#x13c;" horiz-adv-x="263" 
d="M183 0q-59 0 -86.5 28t-27.5 100v635h65v-625q0 -44 11.5 -62t51.5 -18h36v-58h-50zM68 -192q35 0 54.5 12t19.5 34q0 11 -4 24h-9q-8 -15 -25 -15t-28 11t-11 29t12 29t32 11q29 0 45.5 -23t16.5 -61q0 -33 -24.5 -53t-78.5 -20v22z" />
    <glyph glyph-name="Lcaron" unicode="&#x13d;" horiz-adv-x="513" 
d="M498 0h-419v763h69v-701h350v-62zM359 548q45 8 68 38t23 76q0 14 -2 29q-16 -18 -39 -18q-24 0 -38.5 13.5t-14.5 35.5q0 23 15 37t40 14q36 0 57 -28.5t21 -77.5q0 -57 -31.5 -101t-98.5 -54v36z" />
    <glyph glyph-name="lcaron" unicode="&#x13e;" horiz-adv-x="263" 
d="M183 0q-59 0 -86.5 28t-27.5 100v635h65v-625q0 -44 11.5 -62t51.5 -18h36v-58h-50zM211 548q45 8 68 38t23 76q0 14 -2 29q-16 -18 -39 -18q-24 0 -38.5 13.5t-14.5 35.5q0 23 15 37t40 14q36 0 57 -28.5t21 -77.5q0 -57 -31.5 -101t-98.5 -54v36z" />
    <glyph glyph-name="Lslash" unicode="&#x141;" horiz-adv-x="560" 
d="M532 0h-419v353l-73 -38v63l73 38v347h69v-312l217 112v-62l-217 -113v-326h350v-62z" />
    <glyph glyph-name="lslash" unicode="&#x142;" horiz-adv-x="263" 
d="M233 58v-58h-50q-59 0 -86.5 28t-27.5 100v311l-57 -30v46l57 30v278h65v-245l90 47v-46l-90 -47v-334q0 -44 11.5 -62t51.5 -18h36z" />
    <glyph glyph-name="Nacute" unicode="&#x143;" horiz-adv-x="704" 
d="M148 0h-69v763h106l371 -700v700h68v-763h-106l-370 697v-697zM375 823h-57l117 154h76z" />
    <glyph glyph-name="nacute" unicode="&#x144;" horiz-adv-x="558" 
d="M71 0v549h65v-92q33 53 77.5 77.5t102.5 24.5q50 0 88 -22.5t60 -61.5q18 -31 22.5 -64t4.5 -74v-337h-65v340q0 71 -24 110q-31 51 -100 51q-63 0 -105 -45q-30 -34 -45.5 -90.5t-15.5 -148.5v-217h-65zM304 609h-57l117 154h76z" />
    <glyph glyph-name="uni0145" unicode="&#x145;" horiz-adv-x="704" 
d="M148 0h-69v763h106l371 -700v700h68v-763h-106l-370 697v-697zM302 -192q35 0 54.5 12t19.5 34q0 11 -4 24h-9q-8 -15 -25 -15t-28 11t-11 29t12 29t32 11q29 0 45.5 -23t16.5 -61q0 -33 -24.5 -53t-78.5 -20v22z" />
    <glyph glyph-name="uni0146" unicode="&#x146;" horiz-adv-x="558" 
d="M71 0v549h65v-92q33 53 77.5 77.5t102.5 24.5q50 0 88 -22.5t60 -61.5q18 -31 22.5 -64t4.5 -74v-337h-65v340q0 71 -24 110q-31 51 -100 51q-63 0 -105 -45q-30 -34 -45.5 -90.5t-15.5 -148.5v-217h-65zM231 -192q35 0 54.5 12t19.5 34q0 11 -4 24h-9q-8 -15 -25 -15
t-28 11t-11 29t12 29t32 11q29 0 45.5 -23t16.5 -61q0 -33 -24.5 -53t-78.5 -20v22z" />
    <glyph glyph-name="Ncaron" unicode="&#x147;" horiz-adv-x="704" 
d="M148 0h-69v763h106l371 -700v700h68v-763h-106l-370 697v-697zM359 816h-14l-157 161h72l92 -98l92 98h72z" />
    <glyph glyph-name="ncaron" unicode="&#x148;" horiz-adv-x="558" 
d="M71 0v549h65v-92q33 53 77.5 77.5t102.5 24.5q50 0 88 -22.5t60 -61.5q18 -31 22.5 -64t4.5 -74v-337h-65v340q0 71 -24 110q-31 51 -100 51q-63 0 -105 -45q-30 -34 -45.5 -90.5t-15.5 -148.5v-217h-65zM288 602h-14l-157 161h72l92 -98l92 98h72z" />
    <glyph glyph-name="Omacron" unicode="&#x14c;" horiz-adv-x="794" 
d="M206 43q-78 53 -117 142.5t-39 196.5t39 196t117 142t191 53t191 -53t117 -142t39 -196t-39 -196.5t-117 -142.5t-191 -53t-191 53zM548.5 95q62.5 43 94.5 117.5t32 169.5t-32 169.5t-94.5 117t-151.5 42.5t-151.5 -42.5t-94.5 -117t-32 -169.5t32 -169.5t94.5 -117.5
t151.5 -43t151.5 43zM545 885h-294v34h294v-34z" />
    <glyph glyph-name="omacron" unicode="&#x14d;" horiz-adv-x="625" 
d="M176 27q-60 37 -94 102.5t-34 147.5q0 80 34 144t94 101t135 37t135.5 -37t95 -101t34.5 -144q0 -81 -34 -146.5t-94.5 -103t-136.5 -37.5q-75 0 -135 37zM413 78q46 30 72 82t26 117q0 63 -26 114t-71.5 80.5t-102.5 29.5q-56 0 -101.5 -29t-71 -80.5t-25.5 -114.5
q0 -65 26 -117.5t71 -82t101 -29.5t102 30zM459 671h-294v34h294v-34z" />
    <glyph glyph-name="Ohungarumlaut" unicode="&#x150;" horiz-adv-x="794" 
d="M206 43q-78 53 -117 142.5t-39 196.5t39 196t117 142t191 53t191 -53t117 -142t39 -196t-39 -196.5t-117 -142.5t-191 -53t-191 53zM548.5 95q62.5 43 94.5 117.5t32 169.5t-32 169.5t-94.5 117t-151.5 42.5t-151.5 -42.5t-94.5 -117t-32 -169.5t32 -169.5t94.5 -117.5
t151.5 -43t151.5 43zM338 823h-57l118 154h75zM515 823h-58l119 154h78z" />
    <glyph glyph-name="ohungarumlaut" unicode="&#x151;" horiz-adv-x="625" 
d="M176 27q-60 37 -94 102.5t-34 147.5q0 80 34 144t94 101t135 37t135.5 -37t95 -101t34.5 -144q0 -81 -34 -146.5t-94.5 -103t-136.5 -37.5q-75 0 -135 37zM413 78q46 30 72 82t26 117q0 63 -26 114t-71.5 80.5t-102.5 29.5q-56 0 -101.5 -29t-71 -80.5t-25.5 -114.5
q0 -65 26 -117.5t71 -82t101 -29.5t102 30zM252 609h-57l118 154h75zM429 609h-58l119 154h78z" />
    <glyph glyph-name="OE" unicode="&#x152;" horiz-adv-x="1206" 
d="M206 43q-78 53 -117 142.5t-39 196.5t39 196t117 142t191 53q95 0 165 -39t114 -112v141h486v-62h-417v-287h366v-61h-366v-291h417v-62h-486v142q-44 -74 -113.5 -113t-165.5 -39q-113 0 -191 53zM548.5 95q62.5 43 94.5 117.5t32 169.5t-32 169.5t-94.5 117
t-151.5 42.5t-151.5 -42.5t-94.5 -117t-32 -169.5t32 -169.5t94.5 -117.5t151.5 -43t151.5 43z" />
    <glyph glyph-name="oe" unicode="&#x153;" horiz-adv-x="1082" 
d="M887 83q47 35 67 90h69q-25 -81 -89 -132t-159 -51q-77 0 -137.5 39t-93.5 105q-33 -66 -94.5 -105t-138.5 -39q-75 0 -135 37t-94 102.5t-34 147.5q0 80 34 144t94 101t135 37q77 0 138.5 -38.5t95.5 -105.5q32 66 91 105t138 39q74 0 130.5 -33.5t89.5 -92.5t40 -136
q1 -11 1 -34h-458q3 -39 16 -76q23 -65 71 -102t111 -37q65 0 112 35zM413 78q46 30 72 82t26 117q0 63 -26 114t-71.5 80.5t-102.5 29.5q-56 0 -101.5 -29t-71 -80.5t-25.5 -114.5q0 -65 26 -117.5t71 -82t101 -29.5t102 30zM581 316h391q-7 42 -18 68q-24 55 -71.5 86
t-107.5 31t-105.5 -29.5t-68.5 -83.5q-15 -32 -20 -72z" />
    <glyph glyph-name="Racute" unicode="&#x154;" horiz-adv-x="639" 
d="M592 0h-76l-144 333q-9 -1 -29 -1h-195v-332h-69v763h264q113 0 177.5 -55.5t64.5 -159.5q0 -77 -38 -129.5t-107 -73.5zM334 392q88 0 135.5 40t47.5 114t-48 114.5t-135 40.5h-186v-309h186zM333 823h-57l117 154h76z" />
    <glyph glyph-name="racute" unicode="&#x155;" horiz-adv-x="345" 
d="M323 559v-64h-25q-79 0 -117 -48q-24 -30 -34.5 -73t-10.5 -106v-268h-65v549h65v-82q54 92 169 92h18zM182 609h-57l117 154h76z" />
    <glyph glyph-name="uni0156" unicode="&#x156;" horiz-adv-x="639" 
d="M592 0h-76l-144 333q-9 -1 -29 -1h-195v-332h-69v763h264q113 0 177.5 -55.5t64.5 -159.5q0 -77 -38 -129.5t-107 -73.5zM334 392q88 0 135.5 40t47.5 114t-48 114.5t-135 40.5h-186v-309h186zM283 -192q35 0 54.5 12t19.5 34q0 11 -4 24h-9q-8 -15 -25 -15t-28 11
t-11 29t12 29t32 11q29 0 45.5 -23t16.5 -61q0 -33 -24.5 -53t-78.5 -20v22z" />
    <glyph glyph-name="uni0157" unicode="&#x157;" horiz-adv-x="345" 
d="M323 559v-64h-25q-79 0 -117 -48q-24 -30 -34.5 -73t-10.5 -106v-268h-65v549h65v-82q54 92 169 92h18zM54 -192q35 0 54.5 12t19.5 34q0 11 -4 24h-9q-8 -15 -25 -15t-28 11t-11 29t12 29t32 11q29 0 45.5 -23t16.5 -61q0 -33 -24.5 -53t-78.5 -20v22z" />
    <glyph glyph-name="Rcaron" unicode="&#x158;" horiz-adv-x="639" 
d="M592 0h-76l-144 333q-9 -1 -29 -1h-195v-332h-69v763h264q113 0 177.5 -55.5t64.5 -159.5q0 -77 -38 -129.5t-107 -73.5zM334 392q88 0 135.5 40t47.5 114t-48 114.5t-135 40.5h-186v-309h186zM317 816h-14l-157 161h72l92 -98l92 98h72z" />
    <glyph glyph-name="rcaron" unicode="&#x159;" horiz-adv-x="345" 
d="M323 559v-64h-25q-79 0 -117 -48q-24 -30 -34.5 -73t-10.5 -106v-268h-65v549h65v-82q54 92 169 92h18zM166 602h-14l-157 161h72l92 -98l92 98h72z" />
    <glyph glyph-name="Sacute" unicode="&#x15a;" horiz-adv-x="653" 
d="M142 46q-81 56 -99 170h70q15 -87 79.5 -125.5t151.5 -38.5q91 0 141 42t50 116q0 54 -29 85t-72 46t-116 31q-81 17 -129.5 35t-82 57.5t-33.5 107.5q0 60 32 106t88.5 70.5t127.5 24.5q105 0 173 -51.5t85 -159.5h-66q-29 149 -193 149q-79 0 -128.5 -36.5t-49.5 -97.5
q0 -47 27 -74.5t67 -41.5t109 -29q83 -18 135 -37.5t88 -63t36 -118.5q0 -102 -69 -162.5t-196 -60.5q-116 0 -197 56zM349 823h-57l117 154h76z" />
    <glyph glyph-name="sacute" unicode="&#x15b;" horiz-adv-x="543" 
d="M118.5 38.5q-62.5 48.5 -73.5 134.5h66q8 -59 52.5 -92t124.5 -33q65 0 102.5 26t37.5 73q0 37 -22.5 58.5t-55.5 32t-89 21.5q-63 13 -102 26t-66 42t-27 79q0 72 54.5 112.5t140.5 40.5q88 0 144.5 -46t69.5 -124h-65q-9 54 -48 83t-101 29q-61 0 -95.5 -23.5
t-34.5 -64.5q0 -31 20.5 -50t51 -28.5t83.5 -19.5q67 -14 108 -28t70 -46t29 -88q0 -75 -54.5 -119t-153.5 -44q-104 0 -166.5 48.5zM294 609h-57l117 154h76z" />
    <glyph glyph-name="Scedilla" unicode="&#x15e;" horiz-adv-x="653" 
d="M285 -56l7 -9q15 3 31 3q17 0 33 -3q35 -6 58 -24.5t23 -50.5q0 -41 -32.5 -62.5t-86.5 -21.5q-43 0 -91 14v30q46 -19 88 -19q38 0 59.5 15t21.5 43q0 30 -24 43.5t-69 18.5q-28 2 -57 2l51 69q-101 10 -169.5 65t-84.5 159h70q15 -87 79.5 -125.5t151.5 -38.5
q91 0 141 42t50 116q0 54 -29 85t-72 46t-116 31q-81 17 -129.5 35t-82 57.5t-33.5 107.5q0 60 32 106t88.5 70.5t127.5 24.5q105 0 173 -51.5t85 -159.5h-66q-29 149 -193 149q-79 0 -128.5 -36.5t-49.5 -97.5q0 -47 27 -74.5t67 -41.5t109 -29q83 -18 135 -37.5t88 -63
t36 -118.5q0 -102 -69 -162.5t-196 -60.5h-4q-23 -25 -50 -46z" />
    <glyph glyph-name="scedilla" unicode="&#x15f;" horiz-adv-x="543" 
d="M230 -56l7 -9q15 3 31 3q17 0 33 -3q35 -6 58 -24.5t23 -50.5q0 -41 -32.5 -62.5t-86.5 -21.5q-43 0 -91 14v30q46 -19 88 -19q38 0 59.5 15t21.5 43q0 30 -24 43.5t-69 18.5q-28 2 -57 2l51 69q-85 10 -136 57t-61 124h66q8 -59 52.5 -92t124.5 -33q65 0 102.5 26
t37.5 73q0 37 -22.5 58.5t-55.5 32t-89 21.5q-63 13 -102 26t-66 42t-27 79q0 72 54.5 112.5t140.5 40.5q88 0 144.5 -46t69.5 -124h-65q-9 54 -48 83t-101 29q-61 0 -95.5 -23.5t-34.5 -64.5q0 -31 20.5 -50t51 -28.5t83.5 -19.5q67 -14 108 -28t70 -46t29 -88
q0 -75 -54.5 -119t-153.5 -44h-5q-23 -25 -50 -46z" />
    <glyph glyph-name="Scaron" unicode="&#x160;" horiz-adv-x="653" 
d="M142 46q-81 56 -99 170h70q15 -87 79.5 -125.5t151.5 -38.5q91 0 141 42t50 116q0 54 -29 85t-72 46t-116 31q-81 17 -129.5 35t-82 57.5t-33.5 107.5q0 60 32 106t88.5 70.5t127.5 24.5q105 0 173 -51.5t85 -159.5h-66q-29 149 -193 149q-79 0 -128.5 -36.5t-49.5 -97.5
q0 -47 27 -74.5t67 -41.5t109 -29q83 -18 135 -37.5t88 -63t36 -118.5q0 -102 -69 -162.5t-196 -60.5q-116 0 -197 56zM333 816h-14l-157 161h72l92 -98l92 98h72z" />
    <glyph glyph-name="scaron" unicode="&#x161;" horiz-adv-x="543" 
d="M118.5 38.5q-62.5 48.5 -73.5 134.5h66q8 -59 52.5 -92t124.5 -33q65 0 102.5 26t37.5 73q0 37 -22.5 58.5t-55.5 32t-89 21.5q-63 13 -102 26t-66 42t-27 79q0 72 54.5 112.5t140.5 40.5q88 0 144.5 -46t69.5 -124h-65q-9 54 -48 83t-101 29q-61 0 -95.5 -23.5
t-34.5 -64.5q0 -31 20.5 -50t51 -28.5t83.5 -19.5q67 -14 108 -28t70 -46t29 -88q0 -75 -54.5 -119t-153.5 -44q-104 0 -166.5 48.5zM278 602h-14l-157 161h72l92 -98l92 98h72z" />
    <glyph glyph-name="uni0162" unicode="&#x162;" horiz-adv-x="634" 
d="M335 0q-29 -33 -59 -56l7 -9q15 3 31 3q17 0 33 -3q35 -6 58 -24.5t23 -50.5q0 -41 -32.5 -62.5t-86.5 -21.5q-43 0 -91 14v30q46 -19 88 -19q38 0 59.5 15t21.5 43q0 30 -24 43.5t-69 18.5q-28 2 -57 2l57 77h-12v701h-268v62h606v-62h-269v-701h-16z" />
    <glyph glyph-name="uni0163" unicode="&#x163;" horiz-adv-x="346" 
d="M310 491h-129v-340q0 -36 4.5 -54.5t20 -28.5t48.5 -10h55v-58h-70q-16 0 -24 1q-22 -27 -60 -57l7 -9q15 3 31 3q17 0 33 -3q35 -6 58 -24.5t23 -50.5q0 -41 -32.5 -62.5t-86.5 -21.5q-43 0 -91 14v30q46 -19 88 -19q38 0 59.5 15t21.5 43q0 30 -24 43.5t-69 18.5
q-28 2 -57 2l63 85q-32 11 -47.5 41.5t-15.5 88.5v353h-89v58h89v214h65v-214h129v-58z" />
    <glyph glyph-name="Tcaron" unicode="&#x164;" horiz-adv-x="634" 
d="M351 0h-69v701h-268v62h606v-62h-269v-701zM324 816h-14l-157 161h72l92 -98l92 98h72z" />
    <glyph glyph-name="tcaron" unicode="&#x165;" horiz-adv-x="346" 
d="M239 0q-65 0 -94 29.5t-29 108.5v353h-89v58h89v214h65v-214h129v-58h-129v-340q0 -36 4.5 -54.5t20 -28.5t48.5 -10h55v-58h-70zM261 678q45 8 68 38t23 76q0 14 -2 29q-16 -18 -39 -18q-24 0 -38.5 13.5t-14.5 35.5q0 23 15 37t40 14q36 0 57 -28.5t21 -77.5
q0 -57 -31.5 -101t-98.5 -54v36z" />
    <glyph glyph-name="Umacron" unicode="&#x16a;" horiz-adv-x="689" 
d="M139.5 63q-67.5 73 -67.5 207v493h69v-493q0 -218 203 -218t203 218v493h69v-493q0 -134 -67.5 -207t-204.5 -73t-204.5 73zM492 885h-294v34h294v-34z" />
    <glyph glyph-name="umacron" unicode="&#x16b;" horiz-adv-x="558" 
d="M155.5 12q-38.5 22 -61.5 62q-27 47 -27 138v337h65v-340q0 -71 24 -110q32 -51 100 -51q31 0 58 11.5t47 33.5q31 34 46 92t15 147v217h65v-549h-65v92q-33 -52 -77 -77t-103 -25q-48 0 -86.5 22zM426 671h-294v34h294v-34z" />
    <glyph glyph-name="Uring" unicode="&#x16e;" horiz-adv-x="689" 
d="M139.5 63q-67.5 73 -67.5 207v493h69v-493q0 -218 203 -218t203 218v493h69v-493q0 -134 -67.5 -207t-204.5 -73t-204.5 73zM268 834q-32 32 -32 77t31.5 76.5t77.5 31.5q44 0 76.5 -31.5t32.5 -76.5t-32 -77t-77 -32t-77 32zM388.5 867.5q17.5 18.5 17.5 45.5
q0 25 -17 42.5t-44 17.5q-26 0 -44 -17.5t-18 -42.5q0 -27 18 -45.5t44 -18.5t43.5 18.5z" />
    <glyph glyph-name="uring" unicode="&#x16f;" horiz-adv-x="558" 
d="M155.5 12q-38.5 22 -61.5 62q-27 47 -27 138v337h65v-340q0 -71 24 -110q32 -51 100 -51q31 0 58 11.5t47 33.5q31 34 46 92t15 147v217h65v-549h-65v92q-33 -52 -77 -77t-103 -25q-48 0 -86.5 22zM202 620q-32 32 -32 77t31.5 76.5t77.5 31.5q44 0 76.5 -31.5
t32.5 -76.5t-32 -77t-77 -32t-77 32zM322.5 653.5q17.5 18.5 17.5 45.5q0 25 -17 42.5t-44 17.5q-26 0 -44 -17.5t-18 -42.5q0 -27 18 -45.5t44 -18.5t43.5 18.5z" />
    <glyph glyph-name="Uhungarumlaut" unicode="&#x170;" horiz-adv-x="689" 
d="M139.5 63q-67.5 73 -67.5 207v493h69v-493q0 -218 203 -218t203 218v493h69v-493q0 -134 -67.5 -207t-204.5 -73t-204.5 73zM285 823h-57l118 154h75zM462 823h-58l119 154h78z" />
    <glyph glyph-name="uhungarumlaut" unicode="&#x171;" horiz-adv-x="558" 
d="M155.5 12q-38.5 22 -61.5 62q-27 47 -27 138v337h65v-340q0 -71 24 -110q32 -51 100 -51q31 0 58 11.5t47 33.5q31 34 46 92t15 147v217h65v-549h-65v92q-33 -52 -77 -77t-103 -25q-48 0 -86.5 22zM219 609h-57l118 154h75zM396 609h-58l119 154h78z" />
    <glyph glyph-name="Uogonek" unicode="&#x172;" horiz-adv-x="689" 
d="M547 763h69v-493q0 -111 -46.5 -180.5t-141.5 -90.5q-51 -48 -69.5 -73t-18.5 -53q0 -26 15 -40.5t43 -14.5q16 0 32 4v-41q-20 -5 -43 -5q-44 0 -71 22.5t-27 64.5q0 41 25 70.5t79 55.5v4q-22 -3 -49 -3q-137 0 -204.5 73t-67.5 207v493h69v-493q0 -218 203 -218
t203 218v493z" />
    <glyph glyph-name="uogonek" unicode="&#x173;" horiz-adv-x="558" 
d="M487 0q-51 -48 -70.5 -73.5t-19.5 -53.5q0 -26 15 -40.5t43 -14.5q16 0 32 4v-41q-20 -5 -43 -5q-44 0 -71 22.5t-27 64.5q0 41 25 70.5t79 55.5v11h-28v92q-33 -52 -77 -77t-103 -25q-48 0 -86.5 22t-61.5 62q-27 47 -27 138v337h65v-340q0 -71 24 -110q32 -51 100 -51
q31 0 58 11.5t47 33.5q31 34 46 92t15 147v217h65v-549z" />
    <glyph glyph-name="Wcircumflex" unicode="&#x174;" horiz-adv-x="1081" 
d="M333 0h-81l-230 763h73l202 -665l211 665h65l210 -664l204 664h72l-231 -763h-80l-207 650zM449 833h-72l157 161h14l157 -161h-72l-92 99z" />
    <glyph glyph-name="wcircumflex" unicode="&#x175;" horiz-adv-x="805" 
d="M245 0h-60l-158 549h68l123 -450l154 450h60l154 -451l124 451h68l-159 -549h-61l-155 463zM310 619h-72l157 161h14l157 -161h-72l-92 99z" />
    <glyph glyph-name="Ycircumflex" unicode="&#x176;" horiz-adv-x="662" 
d="M367 0h-72v292l-287 471h80l243 -404l243 404h80l-287 -471v-292zM239 833h-72l157 161h14l157 -161h-72l-92 99z" />
    <glyph glyph-name="ycircumflex" unicode="&#x177;" horiz-adv-x="542" 
d="M67 -214v59h60q35 0 51.5 11t29.5 43l40 106l-228 544h72l189 -461l166 461h72l-248 -672q-21 -55 -50.5 -73t-63.5 -18h-90zM179 619h-72l157 161h14l157 -161h-72l-92 99z" />
    <glyph glyph-name="Ydieresis" unicode="&#x178;" horiz-adv-x="662" 
d="M367 0h-72v292l-287 471h80l243 -404l243 404h80l-287 -471v-292zM200.5 826.5q-14.5 14.5 -14.5 34.5t14.5 34t34.5 14t34.5 -14t14.5 -34t-14.5 -34.5t-34.5 -14.5t-34.5 14.5zM392.5 826.5q-14.5 14.5 -14.5 34.5t14.5 34t34.5 14t34.5 -14t14.5 -34t-14.5 -34.5
t-34.5 -14.5t-34.5 14.5z" />
    <glyph glyph-name="Zacute" unicode="&#x179;" horiz-adv-x="638" 
d="M604 0h-575v54l492 647h-468v62h553v-55l-492 -646h490v-62zM343 823h-57l117 154h76z" />
    <glyph glyph-name="zacute" unicode="&#x17a;" horiz-adv-x="521" 
d="M481 0h-447v59l375 432h-356v58h432v-64l-369 -427h365v-58zM285 609h-57l117 154h76z" />
    <glyph glyph-name="Zdotaccent" unicode="&#x17b;" horiz-adv-x="638" 
d="M604 0h-575v54l492 647h-468v62h553v-55l-492 -646h490v-62zM285.5 826.5q-14.5 14.5 -14.5 34.5t14.5 34t34.5 14t34.5 -14t14.5 -34t-14.5 -34.5t-34.5 -14.5t-34.5 14.5z" />
    <glyph glyph-name="zdotaccent" unicode="&#x17c;" horiz-adv-x="521" 
d="M481 0h-447v59l375 432h-356v58h432v-64l-369 -427h365v-58zM227.5 690.5q-14.5 14.5 -14.5 34.5t14.5 34t34.5 14t34.5 -14t14.5 -34t-14.5 -34.5t-34.5 -14.5t-34.5 14.5z" />
    <glyph glyph-name="Zcaron" unicode="&#x17d;" horiz-adv-x="638" 
d="M604 0h-575v54l492 647h-468v62h553v-55l-492 -646h490v-62zM327 816h-14l-157 161h72l92 -98l92 98h72z" />
    <glyph glyph-name="zcaron" unicode="&#x17e;" horiz-adv-x="521" 
d="M481 0h-447v59l375 432h-356v58h432v-64l-369 -427h365v-58zM269 602h-14l-157 161h72l92 -98l92 98h72z" />
    <glyph glyph-name="florin" unicode="&#x192;" horiz-adv-x="468" 
d="M64 -214v58h52q43 0 64 25.5t21 82.5v539h-137v58h137v64q0 150 138 150h65v-58h-52q-44 0 -65 -22.5t-21 -78.5v-55h138v-58h-138v-555q0 -150 -136 -150h-66z" />
    <glyph glyph-name="AEacute" unicode="&#x1fc;" horiz-adv-x="1061" 
d="M87 0h-71l288 763h454l24 -62h-374l108 -287h373l22 -61h-372l110 -291h372l24 -62h-448l-73 206h-360zM344 693l-158 -426h316zM554 823h-57l117 154h76z" />
    <glyph glyph-name="aeacute" unicode="&#x1fd;" horiz-adv-x="1000" 
d="M805 83q47 35 67 90h69q-25 -81 -89 -132t-159 -51q-80 0 -142 41.5t-93 111.5h-7q-36 -82 -98 -120q-53 -33 -118 -33q-83 0 -135 41t-52 115q0 73 59 115q26 18 57.5 28.5t70.5 18.5l196 39q-3 76 -37 114q-36 40 -112 40q-56 0 -97.5 -31t-51.5 -81h-65
q12 79 72.5 124.5t142.5 45.5q103 0 157 -57q23 -25 37 -60q35 54 90 85.5t125 31.5q74 0 130.5 -33.5t89.5 -92.5t40 -136q1 -11 1 -34h-457v-11q3 -31 15 -65q23 -65 71 -102t111 -37q65 0 112 35zM499 316h391q-7 42 -18 68q-24 55 -71.5 86t-107.5 31t-105.5 -29.5
t-68.5 -83.5q-15 -32 -20 -72zM406.5 154.5q24.5 56.5 24.5 137.5l-195 -41q-64 -14 -92 -37q-31 -26 -31 -68q0 -46 33 -72t84 -26q50 0 94 22q58 28 82.5 84.5zM523 609h-57l117 154h76z" />
    <glyph glyph-name="Oslashacute" unicode="&#x1fe;" horiz-adv-x="794" 
d="M744 692l-65 -65q32 -50 48.5 -112.5t16.5 -132.5q0 -107 -39 -196.5t-117 -142.5t-191 -53q-80 0 -143.5 27.5t-107.5 77.5l-59 -59l-35 35l64 64q-66 103 -66 247q0 107 39 196t117 142t191 53q157 0 252 -105l60 60zM165 184l436 436q-35 44 -87 67.5t-117 23.5
q-89 0 -151.5 -42.5t-94.5 -117t-32 -169.5q0 -118 46 -198zM630 578l-437 -436q76 -90 204 -90q89 0 151.5 43t94.5 117.5t32 169.5q0 115 -45 196zM421 823h-57l117 154h76z" />
    <glyph glyph-name="oslashacute" unicode="&#x1ff;" horiz-adv-x="625" 
d="M523 451q53 -75 53 -174q0 -81 -34 -146.5t-94.5 -103t-136.5 -37.5q-52 0 -98 18t-80 52l-49 -48l-35 35l51 51q-52 76 -52 179q0 80 34 144t94 101t135 37q52 0 98 -18t82 -52l49 49l35 -36zM147 145l300 300q-27 27 -61.5 41.5t-74.5 14.5q-56 0 -101.5 -29t-71 -80.5
t-25.5 -114.5q0 -76 34 -132zM413 78q46 30 72 82t26 117q0 72 -34 128l-300 -300q55 -57 134 -57q56 0 102 30zM335 609h-57l117 154h76z" />
    <glyph glyph-name="uni0218" unicode="&#x218;" horiz-adv-x="653" 
d="M142 46q-81 56 -99 170h70q15 -87 79.5 -125.5t151.5 -38.5q91 0 141 42t50 116q0 54 -29 85t-72 46t-116 31q-81 17 -129.5 35t-82 57.5t-33.5 107.5q0 60 32 106t88.5 70.5t127.5 24.5q105 0 173 -51.5t85 -159.5h-66q-29 149 -193 149q-79 0 -128.5 -36.5t-49.5 -97.5
q0 -47 27 -74.5t67 -41.5t109 -29q83 -18 135 -37.5t88 -63t36 -118.5q0 -102 -69 -162.5t-196 -60.5q-116 0 -197 56zM276 -192q35 0 54.5 12t19.5 34q0 11 -4 24h-9q-8 -15 -25 -15t-28 11t-11 29t12 29t32 11q29 0 45.5 -23t16.5 -61q0 -33 -24.5 -53t-78.5 -20v22z" />
    <glyph glyph-name="uni0219" unicode="&#x219;" horiz-adv-x="543" 
d="M118.5 38.5q-62.5 48.5 -73.5 134.5h66q8 -59 52.5 -92t124.5 -33q65 0 102.5 26t37.5 73q0 37 -22.5 58.5t-55.5 32t-89 21.5q-63 13 -102 26t-66 42t-27 79q0 72 54.5 112.5t140.5 40.5q88 0 144.5 -46t69.5 -124h-65q-9 54 -48 83t-101 29q-61 0 -95.5 -23.5
t-34.5 -64.5q0 -31 20.5 -50t51 -28.5t83.5 -19.5q67 -14 108 -28t70 -46t29 -88q0 -75 -54.5 -119t-153.5 -44q-104 0 -166.5 48.5zM221 -192q35 0 54.5 12t19.5 34q0 11 -4 24h-9q-8 -15 -25 -15t-28 11t-11 29t12 29t32 11q29 0 45.5 -23t16.5 -61q0 -33 -24.5 -53
t-78.5 -20v22z" />
    <glyph glyph-name="uni021A" unicode="&#x21a;" horiz-adv-x="634" 
d="M351 0h-69v701h-268v62h606v-62h-269v-701zM267 -192q35 0 54.5 12t19.5 34q0 11 -4 24h-9q-8 -15 -25 -15t-28 11t-11 29t12 29t32 11q29 0 45.5 -23t16.5 -61q0 -33 -24.5 -53t-78.5 -20v22z" />
    <glyph glyph-name="uni021B" unicode="&#x21b;" horiz-adv-x="346" 
d="M239 0q-65 0 -94 29.5t-29 108.5v353h-89v58h89v214h65v-214h129v-58h-129v-340q0 -36 4.5 -54.5t20 -28.5t48.5 -10h55v-58h-70zM146 -192q35 0 54.5 12t19.5 34q0 11 -4 24h-9q-8 -15 -25 -15t-28 11t-11 29t12 29t32 11q29 0 45.5 -23t16.5 -61q0 -33 -24.5 -53
t-78.5 -20v22z" />
    <glyph glyph-name="uni0237" unicode="&#x237;" horiz-adv-x="209" 
d="M-68 -214v59h52q44 0 66 24t22 80v600h65v-610q0 -153 -138 -153h-67z" />
    <glyph glyph-name="circumflex" unicode="&#x2c6;" horiz-adv-x="360" 
d="M88 619h-72l157 161h14l157 -161h-72l-92 99z" />
    <glyph glyph-name="caron" unicode="&#x2c7;" horiz-adv-x="360" 
d="M187 602h-14l-157 161h72l92 -98l92 98h72z" />
    <glyph glyph-name="breve" unicode="&#x2d8;" horiz-adv-x="361" 
d="M62.5 653.5q-41.5 38.5 -46.5 109.5h48q4 -48 34.5 -75t82.5 -27t81.5 27t33.5 75h49q-4 -71 -46 -109.5t-118 -38.5q-77 0 -118.5 38.5z" />
    <glyph glyph-name="dotaccent" unicode="&#x2d9;" horiz-adv-x="130" 
d="M30.5 690.5q-14.5 14.5 -14.5 34.5t14.5 34t34.5 14t34.5 -14t14.5 -34t-14.5 -34.5t-34.5 -14.5t-34.5 14.5z" />
    <glyph glyph-name="ring" unicode="&#x2da;" horiz-adv-x="250" 
d="M48 620q-32 32 -32 77t31.5 76.5t77.5 31.5q44 0 76.5 -31.5t32.5 -76.5t-32 -77t-77 -32t-77 32zM168.5 653.5q17.5 18.5 17.5 45.5q0 25 -17 42.5t-44 17.5q-26 0 -44 -17.5t-18 -42.5q0 -27 18 -45.5t44 -18.5t43.5 18.5z" />
    <glyph glyph-name="ogonek" unicode="&#x2db;" horiz-adv-x="173" 
d="M43 -201.5q-27 22.5 -27 64.5q0 41 25 70.5t79 55.5v11h37q-51 -48 -70.5 -73.5t-19.5 -53.5q0 -26 15 -40.5t43 -14.5q16 0 32 4v-41q-20 -5 -43 -5q-44 0 -71 22.5z" />
    <glyph glyph-name="tilde" unicode="&#x2dc;" horiz-adv-x="383" 
d="M212.5 636q-19.5 14 -40.5 40q-16 20 -27 29t-27 9q-46 0 -52 -84h-50q3 66 31 102t74 36q29 0 48 -13.5t39 -38.5q16 -20 28.5 -30t29.5 -10q20 0 33 23t15 64h53q-5 -71 -29.5 -106t-72.5 -35q-33 0 -52.5 14z" />
    <glyph glyph-name="hungarumlaut" unicode="&#x2dd;" horiz-adv-x="405" 
d="M73 609h-57l118 154h75zM250 609h-58l119 154h78z" />
    <glyph glyph-name="gravecomb" unicode="&#x300;" 
d="M-133 763l117 -154h-57l-136 154h76z" />
    <glyph glyph-name="acutecomb" unicode="&#x301;" 
d="M-152 609h-57l117 154h76z" />
    <glyph glyph-name="uni0302" unicode="&#x302;" 
d="M-272 619h-72l157 161h14l157 -161h-72l-92 99z" />
    <glyph glyph-name="tildecomb" unicode="&#x303;" 
d="M-170.5 636q-19.5 14 -40.5 40q-16 20 -27 29t-27 9q-46 0 -52 -84h-50q3 66 31 102t74 36q29 0 48 -13.5t39 -38.5q16 -20 28.5 -30t29.5 -10q20 0 33 23t15 64h53q-5 -71 -29.5 -106t-72.5 -35q-33 0 -52.5 14z" />
    <glyph glyph-name="uni0304" unicode="&#x304;" 
d="M-16 671h-294v34h294v-34z" />
    <glyph glyph-name="uni0306" unicode="&#x306;" 
d="M-298.5 653.5q-41.5 38.5 -46.5 109.5h48q4 -48 34.5 -75t82.5 -27t81.5 27t33.5 75h49q-4 -71 -46 -109.5t-118 -38.5q-77 0 -118.5 38.5z" />
    <glyph glyph-name="uni0307" unicode="&#x307;" 
d="M-99.5 690.5q-14.5 14.5 -14.5 34.5t14.5 34t34.5 14t34.5 -14t14.5 -34t-14.5 -34.5t-34.5 -14.5t-34.5 14.5z" />
    <glyph glyph-name="uni0308" unicode="&#x308;" 
d="M-291.5 690.5q-14.5 14.5 -14.5 34.5t14.5 34t34.5 14t34.5 -14t14.5 -34t-14.5 -34.5t-34.5 -14.5t-34.5 14.5zM-99.5 690.5q-14.5 14.5 -14.5 34.5t14.5 34t34.5 14t34.5 -14t14.5 -34t-14.5 -34.5t-34.5 -14.5t-34.5 14.5z" />
    <glyph glyph-name="uni030A" unicode="&#x30a;" 
d="M-202 620q-32 32 -32 77t31.5 76.5t77.5 31.5q44 0 76.5 -31.5t32.5 -76.5t-32 -77t-77 -32t-77 32zM-81.5 653.5q17.5 18.5 17.5 45.5q0 25 -17 42.5t-44 17.5q-26 0 -44 -17.5t-18 -42.5q0 -27 18 -45.5t44 -18.5t43.5 18.5z" />
    <glyph glyph-name="uni030B" unicode="&#x30b;" 
d="M-332 609h-57l118 154h75zM-155 609h-58l119 154h78z" />
    <glyph glyph-name="uni030C" unicode="&#x30c;" 
d="M-173 602h-14l-157 161h72l92 -98l92 98h72z" />
    <glyph glyph-name="uni030F" unicode="&#x30f;" 
d="M-224 602q-7 0 -12 6l-117 143q-2 2 -2 6q0 6 8 6h37q8 0 12 -6l103 -143q2 -2 2 -6q0 -2 -2 -4t-6 -2h-23zM-47 602q-9 0 -13 6l-112 143q-2 2 -2 6q0 6 8 6h32q8 0 12 -6l104 -143q2 -2 2 -6q0 -2 -2 -4t-6 -2h-23z" />
    <glyph glyph-name="uni0312" unicode="&#x312;" 
d="M-106 603.5q-17 20.5 -17 55.5q0 40 25.5 71.5t79.5 39.5v-26q-36 -6 -54.5 -27.5t-18.5 -54.5l1 -20q13 12 32 12t30.5 -9.5t11.5 -25.5t-12 -26t-32 -10q-29 0 -46 20.5z" />
    <glyph glyph-name="uni031B" unicode="&#x31b;" 
d="M-160 583q54 0 78 31t24 90v59h42v-56q0 -78 -35.5 -119.5t-108.5 -41.5v37z" />
    <glyph glyph-name="uni0326" unicode="&#x326;" 
d="M-119 -192q35 0 54.5 12t19.5 34q0 11 -4 24h-9q-8 -15 -25 -15t-28 11t-11 29t12 29t32 11q29 0 45.5 -23t16.5 -61q0 -33 -24.5 -53t-78.5 -20v22z" />
    <glyph glyph-name="uni0327" unicode="&#x327;" 
d="M-226 -210v30q46 -19 88 -19q38 0 59.5 15t21.5 43q0 30 -24 43.5t-69 18.5q-28 2 -57 2l66 89h42q-30 -38 -69 -68l7 -9q13 3 31 3q16 0 33 -3q35 -6 58 -24.5t23 -50.5q0 -41 -32.5 -62.5t-86.5 -21.5q-43 0 -91 14z" />
    <glyph glyph-name="uni0328" unicode="&#x328;" 
d="M-130 -201.5q-27 22.5 -27 64.5q0 41 25 70.5t79 55.5v11h37q-51 -48 -70.5 -73.5t-19.5 -53.5q0 -26 15 -40.5t43 -14.5q16 0 32 4v-41q-20 -5 -43 -5q-44 0 -71 22.5z" />
    <glyph glyph-name="uni0337" unicode="&#x337;" 
d="M-16 387l-212 -110v46l212 110v-46z" />
    <glyph glyph-name="uni0338" unicode="&#x338;" 
d="M-16 518l-491 -490l-35 35l491 491z" />
    <glyph glyph-name="uni0394" unicode="&#x394;" horiz-adv-x="688" 
d="M672 0h-656l288 763h80zM344 693l-233 -628h465z" />
    <glyph glyph-name="pi" unicode="&#x3c0;" horiz-adv-x="556" 
d="M101 0v491h-89v58h514v-58h-109v-347q0 -51 16 -68.5t54 -17.5h39v-58h-50q-60 0 -92 28.5t-32 97.5v365h-185v-491h-66z" />
    <glyph glyph-name="Wgrave" unicode="&#x1e80;" horiz-adv-x="1081" 
d="M333 0h-81l-230 763h73l202 -665l211 665h65l210 -664l204 664h72l-231 -763h-80l-207 650zM458 977l117 -154h-57l-136 154h76z" />
    <glyph glyph-name="wgrave" unicode="&#x1e81;" horiz-adv-x="805" 
d="M245 0h-60l-158 549h68l123 -450l154 450h60l154 -451l124 451h68l-159 -549h-61l-155 463zM319 763l117 -154h-57l-136 154h76z" />
    <glyph glyph-name="Wacute" unicode="&#x1e82;" horiz-adv-x="1081" 
d="M333 0h-81l-230 763h73l202 -665l211 665h65l210 -664l204 664h72l-231 -763h-80l-207 650zM564 823h-57l117 154h76z" />
    <glyph glyph-name="wacute" unicode="&#x1e83;" horiz-adv-x="805" 
d="M245 0h-60l-158 549h68l123 -450l154 450h60l154 -451l124 451h68l-159 -549h-61l-155 463zM425 609h-57l117 154h76z" />
    <glyph glyph-name="Wdieresis" unicode="&#x1e84;" horiz-adv-x="1081" 
d="M333 0h-81l-230 763h73l202 -665l211 665h65l210 -664l204 664h72l-231 -763h-80l-207 650zM410.5 826.5q-14.5 14.5 -14.5 34.5t14.5 34t34.5 14t34.5 -14t14.5 -34t-14.5 -34.5t-34.5 -14.5t-34.5 14.5zM602.5 826.5q-14.5 14.5 -14.5 34.5t14.5 34t34.5 14t34.5 -14
t14.5 -34t-14.5 -34.5t-34.5 -14.5t-34.5 14.5z" />
    <glyph glyph-name="wdieresis" unicode="&#x1e85;" horiz-adv-x="805" 
d="M245 0h-60l-158 549h68l123 -450l154 450h60l154 -451l124 451h68l-159 -549h-61l-155 463zM271.5 690.5q-14.5 14.5 -14.5 34.5t14.5 34t34.5 14t34.5 -14t14.5 -34t-14.5 -34.5t-34.5 -14.5t-34.5 14.5zM463.5 690.5q-14.5 14.5 -14.5 34.5t14.5 34t34.5 14t34.5 -14
t14.5 -34t-14.5 -34.5t-34.5 -14.5t-34.5 14.5z" />
    <glyph glyph-name="uni1E9E" unicode="&#x1e9e;" horiz-adv-x="677" 
d="M79 452q0 89 14.5 148t46.5 97q64 76 194 76q66 0 119 -19.5t105 -65.5v-53l-210 -206q23 4 52 4q62 0 113 -23.5t82 -71t31 -117.5q0 -120 -74.5 -170.5t-180.5 -50.5h-131v62h124q78 0 135.5 32t57.5 121q0 91 -50 123.5t-116 32.5h-96v86l201 198q-37 31 -71.5 43.5
t-90.5 12.5q-95 0 -141 -59q-23 -29 -34 -76.5t-11 -123.5v-452h-69v452z" />
    <glyph glyph-name="Ygrave" unicode="&#x1ef2;" horiz-adv-x="662" 
d="M367 0h-72v292l-287 471h80l243 -404l243 404h80l-287 -471v-292zM248 977l117 -154h-57l-136 154h76z" />
    <glyph glyph-name="ygrave" unicode="&#x1ef3;" horiz-adv-x="542" 
d="M67 -214v59h60q35 0 51.5 11t29.5 43l40 106l-228 544h72l189 -461l166 461h72l-248 -672q-21 -55 -50.5 -73t-63.5 -18h-90zM188 763l117 -154h-57l-136 154h76z" />
    <glyph glyph-name="endash" unicode="&#x2013;" horiz-adv-x="545" 
d="M523 314h-501v49h501v-49z" />
    <glyph glyph-name="emdash" unicode="&#x2014;" horiz-adv-x="1106" 
d="M1106 314h-1106v49h1106v-49z" />
    <glyph glyph-name="uni2015" unicode="&#x2015;" horiz-adv-x="792" 
d="M720 319h-648v42h648v-42z" />
    <glyph glyph-name="quoteleft" unicode="&#x2018;" horiz-adv-x="275" 
d="M90 537.5q-21 28.5 -21 77.5q0 57 31.5 101t98.5 54v-36q-45 -8 -68 -38t-23 -76q0 -14 2 -29q17 18 39 18q24 0 38.5 -13.5t14.5 -35.5q0 -23 -15 -37t-40 -14q-36 0 -57 28.5z" />
    <glyph glyph-name="quoteright" unicode="&#x2019;" horiz-adv-x="275" 
d="M76 548q45 8 68 38t23 76q0 14 -2 29q-16 -18 -39 -18q-24 0 -38.5 13.5t-14.5 35.5q0 23 15 37t40 14q36 0 57 -28.5t21 -77.5q0 -57 -31.5 -101t-98.5 -54v36z" />
    <glyph glyph-name="quotesinglbase" unicode="&#x201a;" horiz-adv-x="313" 
d="M93 -135q45 8 68 38t23 76q0 14 -2 29q-16 -18 -39 -18q-24 0 -38.5 13.5t-14.5 35.5q0 23 15 37t40 14q36 0 57 -28.5t21 -77.5q0 -57 -31.5 -101t-98.5 -54v36z" />
    <glyph glyph-name="quotedblleft" unicode="&#x201c;" horiz-adv-x="472" 
d="M199 735q-45 -8 -68 -38t-23 -76q0 -14 2 -29q17 18 39 18q24 0 38.5 -13.5t14.5 -35.5q0 -23 -15 -37t-40 -14q-36 0 -57 28.5t-21 77.5q0 57 31.5 101t98.5 54v-36zM396 735q-45 -8 -68 -38t-23 -76q0 -14 2 -29q17 18 39 18q24 0 38.5 -13.5t14.5 -35.5q0 -23 -15 -37
t-40 -14q-36 0 -57 28.5t-21 77.5q0 57 31.5 101t98.5 54v-36z" />
    <glyph glyph-name="quotedblright" unicode="&#x201d;" horiz-adv-x="472" 
d="M76 548q45 8 68 38t23 76q0 14 -2 29q-16 -18 -39 -18q-24 0 -38.5 13.5t-14.5 35.5q0 23 15 37t40 14q36 0 57 -28.5t21 -77.5q0 -57 -31.5 -101t-98.5 -54v36zM273 548q45 8 68 38t23 76q0 14 -2 29q-16 -18 -39 -18q-24 0 -38.5 13.5t-14.5 35.5q0 23 15 37t40 14
q36 0 57 -28.5t21 -77.5q0 -57 -31.5 -101t-98.5 -54v36z" />
    <glyph glyph-name="quotedblbase" unicode="&#x201e;" horiz-adv-x="510" 
d="M93 -117q45 8 68 38t23 76q0 14 -2 29q-16 -18 -39 -18q-24 0 -38.5 13.5t-14.5 35.5q0 23 15 37t40 14q36 0 57 -28.5t21 -77.5q0 -57 -31.5 -101t-98.5 -54v36zM290 -117q45 8 68 38t23 76q0 14 -2 29q-16 -18 -39 -18q-24 0 -38.5 13.5t-14.5 35.5q0 23 15 37t40 14
q36 0 57 -28.5t21 -77.5q0 -57 -31.5 -101t-98.5 -54v36z" />
    <glyph glyph-name="dagger" unicode="&#x2020;" horiz-adv-x="649" 
d="M354 -214h-58v672h-248v58h248v247h58v-247h247v-58h-247v-672z" />
    <glyph glyph-name="bullet" unicode="&#x2022;" horiz-adv-x="418" 
d="M144.5 149q-29.5 17 -47 46.5t-17.5 64.5t17.5 64.5t47 46.5t63.5 17q35 0 64.5 -17t47 -46.5t17.5 -64.5t-17.5 -64.5t-47 -46.5t-64.5 -17q-34 0 -63.5 17z" />
    <glyph glyph-name="uni2023" unicode="&#x2023;" horiz-adv-x="421" 
d="M375 269l-263 -150v299z" />
    <glyph glyph-name="ellipsis" unicode="&#x2026;" horiz-adv-x="726" 
d="M105.5 4.5q-15.5 14.5 -15.5 35.5q0 20 15 35t37 15q19 0 33.5 -15t14.5 -35q0 -21 -14.5 -35.5t-33.5 -14.5q-21 0 -36.5 14.5zM328 5q-15 15 -15 35t15 35t36 15q20 0 35 -15t15 -35q0 -21 -15 -35.5t-35 -14.5q-21 0 -36 15zM551.5 4.5q-14.5 14.5 -14.5 35.5
q0 20 14.5 35t35.5 15q20 0 34.5 -15t14.5 -35q0 -21 -14.5 -35.5t-34.5 -14.5q-21 0 -35.5 14.5z" />
    <glyph glyph-name="perthousand" unicode="&#x2030;" horiz-adv-x="1122" 
d="M119 452.5q-33 24.5 -50 64t-17 84.5q0 44 16.5 83.5t49 64t77.5 24.5q41 0 74 -22.5t51.5 -62t18.5 -87.5q0 -49 -18.5 -88.5t-50.5 -62t-72 -22.5q-46 0 -79 24.5zM210 0h-63l432 763h62zM262 514.5q25 33.5 25 86.5q0 50 -25 85t-67 35q-44 0 -67.5 -36t-23.5 -84
q0 -50 24 -85t70 -35q39 0 64 33.5zM512 14.5q-33 24.5 -50 64t-17 83.5t16.5 83.5t49 64t77.5 24.5q41 0 73.5 -22.5t51.5 -62t19 -88.5t-18.5 -88t-50.5 -61t-72 -22q-46 0 -79 24.5zM850 14.5q-33 24.5 -50 64t-17 83.5t16.5 83.5t49 64t77.5 24.5q41 0 73.5 -22.5
t51.5 -62t19 -88.5t-18.5 -88t-50.5 -61t-72 -22q-46 0 -79 24.5zM654.5 75.5q25.5 33.5 25.5 85.5q0 51 -24.5 86t-67.5 35q-44 0 -67 -35t-23 -85t23.5 -85t69.5 -35q38 0 63.5 33.5zM992.5 75.5q25.5 33.5 25.5 85.5q0 51 -24.5 86t-67.5 35q-44 0 -67 -35t-23 -85
t23.5 -85t69.5 -35q38 0 63.5 33.5z" />
    <glyph glyph-name="guilsinglleft" unicode="&#x2039;" horiz-adv-x="307" 
d="M241 157v-65l-212 184l212 184v-65l-137 -118z" />
    <glyph glyph-name="guilsinglright" unicode="&#x203a;" horiz-adv-x="307" 
d="M278 276l-212 -184v65l137 120l-137 118v65z" />
    <glyph glyph-name="fraction" unicode="&#x2044;" horiz-adv-x="148" 
d="M-116 0h-39l419 763h39z" />
    <glyph glyph-name="Euro" unicode="&#x20ac;" horiz-adv-x="625" 
d="M297.5 651q-68.5 -60 -91.5 -162h303v-46h-311q-4 -27 -4 -61q0 -30 3 -57h312v-44h-305q23 -105 91.5 -167t176.5 -62q38 0 73 8v-64q-34 -6 -73 -6q-140 0 -226 80.5t-112 210.5h-81v44h75q-3 29 -3 57q0 31 3 61h-75v46h83q25 127 111 205.5t225 78.5q38 0 73 -6v-64
q-35 8 -73 8q-106 0 -174.5 -60z" />
    <glyph glyph-name="uni2116" unicode="&#x2116;" horiz-adv-x="1228" 
d="M845 330q-50 31 -78 85.5t-28 122.5q0 66 28.5 120t78 84.5t112.5 30.5t113.5 -30.5t79 -84.5t28.5 -120q0 -68 -28.5 -122.5t-78.5 -85.5t-114 -31q-63 0 -113 31zM148 0h-69v763h106l371 -700v700h68v-763h-106l-370 697v-697zM1043 372q38 25 60 68.5t22 97.5
q0 52 -21.5 95t-60 67.5t-85.5 24.5t-84.5 -24.5t-59 -67t-21.5 -95.5q0 -55 21.5 -98.5t59.5 -68t84 -24.5q47 0 85 25zM1147 127h-374v48h374v-48z" />
    <glyph glyph-name="trademark" unicode="&#x2122;" horiz-adv-x="803" 
d="M196 381h-35v351h-134v31h303v-31h-134v-351zM411 381h-34v382h55l124 -347l124 347h56v-382h-35v345l-123 -345h-43l-124 346v-346z" />
    <glyph glyph-name="minus" unicode="&#x2212;" horiz-adv-x="616" 
d="M504 311h-391v57h391v-57z" />
    <glyph glyph-name="lozenge" unicode="&#x25ca;" horiz-adv-x="614" 
d="M360 0h-105l-202 382l202 381h105l202 -381zM124 382l184 -359l184 359l-184 361z" />
    <glyph glyph-name="uniF8FF" unicode="&#xf8ff;" horiz-adv-x="921" 
d="M88 0q-9 0 -9 10v743q0 10 9 10h744q10 0 10 -10v-743q0 -10 -10 -10h-744zM255 94q11 11 17 22.5t14 31.5q13 36 33 69t67 82l25 26q4 4 8 4t9 -3q7 -4 17 -6q10 -3 10 -13v-36q0 -43 -5.5 -67t-15.5 -47q-10 -20 -10 -37q0 -14 11 -25t25 -11q15 0 26 11t11 25
q0 17 -10 37q-10 23 -15.5 47t-5.5 67v36q0 10 10 13q13 4 15 6q5 3 8 3q5 0 9 -4l26 -26q48 -48 68 -81.5t33 -69.5q6 -19 12 -30.5t18 -23.5q17 -15 40 -15q26 0 41 15q17 17 17 42t-16 40q-12 12 -23.5 18t-30.5 12q-37 13 -70 32.5t-81 67.5l-26 26q-4 4 -4 9q0 3 3 7
q6 12 7 18q3 11 12 11h36q44 0 68.5 -6t46.5 -16q2 -1 13 -5.5t24 -4.5q14 0 25 11t11 26q0 14 -11 25.5t-25 11.5q-13 0 -24 -4.5t-13 -5.5q-22 -10 -46.5 -16t-68.5 -6h-36q-9 0 -12 11q-4 10 -7 15t-3 8q0 4 4 8l26 26q48 48 82 68.5t69 31.5q4 2 16 6.5t21 10t16 13.5
q17 19 17 41q0 24 -17 41q-16 16 -41 16t-40 -15q-11 -11 -17 -22.5t-14 -32.5q-13 -37 -32.5 -70t-67.5 -81l-25 -24q-3 -4 -9 -4q-4 0 -7 2q-5 3 -17 7q-10 3 -10 13v36q0 43 5.5 67t15.5 47q10 20 10 37q0 14 -11 25t-25 11q-15 0 -26 -11t-11 -25q0 -17 10 -37
q10 -23 15.5 -47t5.5 -67v-36q0 -10 -10 -13q-2 -1 -7.5 -2.5t-9.5 -4.5q-3 -2 -7 -2q-6 0 -10 4l-25 24q-49 49 -69.5 83t-31.5 69q-7 19 -13 31t-17 23q-16 16 -40 16q-22 0 -40 -16q-17 -17 -17 -42t16 -41q11 -11 22.5 -17t30.5 -13q36 -13 69 -33t82 -67l26 -25
q4 -4 4 -8q0 -3 -3 -8q-2 -3 -7 -16q-3 -11 -12 -11h-36q-44 0 -68.5 6t-46.5 16q-2 1 -13 5.5t-24 4.5q-14 0 -25 -11.5t-11 -25.5q0 -15 11 -26t25 -11q13 0 24 4.5t13 5.5q22 10 46.5 16t68.5 6h36q9 0 12 -11q5 -12 8 -17q2 -6 2 -7q0 -5 -4 -9l-26 -27
q-48 -49 -81.5 -68.5t-69.5 -31.5q-20 -7 -31.5 -13t-22.5 -17q-16 -15 -16 -40q0 -24 16 -41q16 -16 42 -16q25 0 40 15zM422 343.5q-16 16.5 -16 38.5t16 38t38 16t38 -16t16 -38q0 -23 -16 -39t-38 -16t-38 16.5zM492 354l-6 6q-10 -13 -26 -13q-14 0 -24 10.5t-10 24.5
t10.5 24t23.5 10q16 0 27 -13l5 6q-10 15 -32 15q-17 0 -30 -12.5t-13 -29.5t13 -30t30 -13q22 0 32 15z" />
    <glyph glyph-name="i.loclTRK" horiz-adv-x="209" 
d="M137 0h-65v549h65v-549zM70.5 690.5q-14.5 14.5 -14.5 34.5t14.5 34t34.5 14t34.5 -14t14.5 -34t-14.5 -34.5t-34.5 -14.5t-34.5 14.5z" />
    <glyph glyph-name="uni030C.alt" 
d="M-146 548q45 8 68 38t23 76q0 14 -2 29q-16 -18 -39 -18q-24 0 -38.5 13.5t-14.5 35.5q0 23 15 37t40 14q36 0 57 -28.5t21 -77.5q0 -57 -31.5 -101t-98.5 -54v36z" />
    <glyph glyph-name="uni0308.case" 
d="M-337.5 826.5q-14.5 14.5 -14.5 34.5t14.5 34t34.5 14t34.5 -14t14.5 -34t-14.5 -34.5t-34.5 -14.5t-34.5 14.5zM-145.5 826.5q-14.5 14.5 -14.5 34.5t14.5 34t34.5 14t34.5 -14t14.5 -34t-14.5 -34.5t-34.5 -14.5t-34.5 14.5z" />
    <glyph glyph-name="uni0307.case" 
d="M-145.5 826.5q-14.5 14.5 -14.5 34.5t14.5 34t34.5 14t34.5 -14t14.5 -34t-14.5 -34.5t-34.5 -14.5t-34.5 14.5z" />
    <glyph glyph-name="uni0328.case" 
d="M-130 -201.5q-27 22.5 -27 64.5q0 41 25 70.5t79 55.5v11h37q-51 -48 -70.5 -73.5t-19.5 -53.5q0 -26 15 -40.5t43 -14.5q16 0 32 4v-41q-20 -5 -43 -5q-44 0 -71 22.5z" />
    <glyph glyph-name="uni0335.case" 
d="M-76 311h-391v57h391v-57z" />
    <glyph glyph-name="uni0337.case" 
d="M-29 428l-359 -186v53l359 185v-52z" />
    <glyph glyph-name="uni0338.case" 
d="M-2 684l-657 -656l-35 35l657 657z" />
    <glyph glyph-name="base_No" horiz-adv-x="449" 
d="M449 0h-449v58h449v-58z" />
    </font>
</defs>
</svg>
