<?xml version="1.0" standalone="no"?>
<!DOCTYPE svg PUBLIC "-//W3C//DTD SVG 1.1//EN" "http://www.w3.org/Graphics/SVG/1.1/DTD/svg11.dtd" >
<svg xmlns="http://www.w3.org/2000/svg" xmlns:xlink="http://www.w3.org/1999/xlink" version="1.1">
<metadata>
Created by FontForge 20170731 at Thu Apr 16 09:54:39 2020
 By Aleksey,,,
Copyright (c) 2020 by Alfredo Marco Pradil. All rights reserved.
</metadata>
<defs>
<font id="OpenSauceOne-BlackItalic" horiz-adv-x="624" >
  <font-face 
    font-family="Open Sauce One Black Italic"
    font-weight="900"
    font-style="italic"
    font-stretch="normal"
    units-per-em="1000"
    panose-1="0 0 10 0 0 0 0 0 0 0"
    ascent="763"
    descent="-237"
    x-height="567"
    cap-height="763"
    bbox="-782 -237 1321 1030"
    underline-thickness="50"
    underline-position="-150"
    slope="-10"
    unicode-range="U+0020-FB02"
  />
<missing-glyph horiz-adv-x="581" 
d="M470 0h-460l100 567h460zM143 527l-86 -487h380l86 487h-380z" />
    <glyph glyph-name="fi" unicode="fi" horiz-adv-x="656" 
d="M52 0l77 437h-81l23 130h81l10 55q11 67 60 104t127 37h93l-23 -129h-52q-13 0 -24.5 -8t-15.5 -29l-5 -30h85l-23 -130h-85l-77 -437h-170zM551 0h-168l100 567h168zM515.5 625q-22.5 19 -22.5 51q0 45 33 74t78 29q36 0 58.5 -19t22.5 -52q0 -46 -33 -74t-78 -28
q-36 0 -58.5 19z" />
    <glyph glyph-name="fl" unicode="fl" horiz-adv-x="696" 
d="M52 0l77 437h-81l23 130h81l10 55q11 67 60 104t127 37h93l-23 -129h-52q-13 0 -24.5 -8t-15.5 -29l-5 -30h85l-23 -130h-85l-77 -437h-170zM510 0q-55 0 -83.5 22.5t-28.5 65.5q0 16 2 25l115 650h168l-105 -592q-1 -3 -1 -9q0 -26 28 -26h42l-24 -136h-113z" />
    <glyph glyph-name="s_a_u_c_e_l_o_g_o.liga" unicode="saucelogo" horiz-adv-x="884" 
d="M19 0q-9 0 -7 10l131 743q2 10 11 10h744q10 0 8 -10l-131 -743q-1 -4 -4 -7t-8 -3h-744zM203 94q13 11 22.5 25t17.5 28q19 36 45 69.5t82 82.5l29 26q5 4 9 4q5 0 8 -3q7 -4 16 -6q9 -3 8 -13l-6 -36q-8 -43 -17.5 -66t-23.5 -48q-14 -21 -17 -37q-2 -14 7 -25t23 -11
q15 0 28 11t15 25q1 4 1 12q0 7 -4 25q-7 28 -7 51q0 32 6 63l6 36q1 9 12 13q13 4 16 6q6 3 9 3q5 0 8 -4l22 -26q40 -48 54 -81.5t20 -69.5q4 -20 8 -31.5t13 -22.5q14 -15 37 -15q26 0 44 15q25 22 25 53q0 19 -10 29q-9 12 -19.5 18t-29.5 12q-35 14 -64.5 33t-68.5 67
l-21 26q-3 3 -3 9l4 7q8 12 11 18q5 11 13 11h36q45 0 68.5 -6t42.5 -16q3 -1 13 -5.5t23 -4.5q16 0 29.5 13.5t13.5 30.5q0 12 -8.5 21t-21.5 9t-25 -4.5t-14 -5.5q-22 -10 -48 -16t-71 -6h-36q-8 0 -10 11q-2 10 -4 15q-2 3 -2 8q3 6 6 8l30 26q57 48 94.5 68.5t74.5 31.5
q4 2 16.5 6.5t22.5 10t19 13.5q25 23 25 52q0 19 -10 30q-13 16 -39 16q-24 0 -42 -15q-13 -11 -21 -22.5t-20 -32.5q-19 -37 -44.5 -70t-82.5 -81l-29 -24q-3 -4 -9 -4q-4 0 -7 2q-6 4 -16 7q-9 3 -8 13l7 36q7 44 17 68t24 45q2 3 8 14.5t8 23.5q3 14 -6 25t-23 11
q-15 0 -28 -11t-16 -25q-1 -4 -1 -11q0 -8 4 -26q8 -24 8 -53q0 -22 -6 -61l-7 -36q-1 -9 -12 -13q-2 -1 -8 -2.5t-10 -4.5q-3 -2 -8 -2q-6 0 -9 4l-21 24q-40 48 -54.5 82.5t-19.5 69.5q-3 19 -7 31t-13 23q-13 16 -37 16q-22 0 -43 -16q-26 -23 -26 -52q0 -20 10 -31
q9 -11 19.5 -17t28.5 -13q33 -13 63 -33t70 -67l22 -25q3 -5 2 -8q0 -4 -4 -8q-2 -2 -10 -16q-5 -11 -14 -11h-36q-44 0 -68 6t-43 16q-2 1 -12 5.5t-23 4.5q-16 0 -29.5 -13t-13.5 -29q0 -14 8.5 -23t21.5 -9q12 0 23.5 4.5t15.5 5.5q22 10 47.5 16t70.5 6h36q9 0 11 -11
q2 -12 5 -17v-5q0 -6 -5 -11l-31 -27q-56 -49 -93 -68.5t-76 -31.5q-21 -7 -33.5 -13t-25.5 -17q-11 -9 -17.5 -23t-6.5 -28q0 -17 10 -30q13 -16 39 -16q25 0 43 15zM416.5 340.5q-13.5 13.5 -13.5 32.5q0 24 20.5 43.5t44.5 19.5q20 0 32.5 -13t12.5 -32
q0 -25 -19.5 -44.5t-44.5 -19.5q-19 0 -32.5 13.5zM485 354l-5 6q-11 -13 -28 -13q-12 0 -20 8.5t-8 21.5q0 15 12.5 27t27.5 12t25 -13l6 6q-7 15 -29 15q-19 0 -35.5 -15t-16.5 -34q0 -15 10.5 -25.5t26.5 -10.5q22 0 34 15z" />
    <glyph glyph-name=".notdef" horiz-adv-x="581" 
d="M470 0h-460l100 567h460zM143 527l-86 -487h380l86 487h-380z" />
    <glyph glyph-name=".null" horiz-adv-x="0" 
 />
    <glyph glyph-name="nonmarkingreturn" horiz-adv-x="333" 
 />
    <glyph glyph-name="space" unicode=" " horiz-adv-x="260" 
 />
    <glyph glyph-name="exclam" unicode="!" horiz-adv-x="292" 
d="M67 239l3 30q14 142 26 213l50 281h168l-50 -281q-10 -58 -25.5 -120.5t-18.5 -73.5l-12 -49h-141zM36.5 10q-22.5 22 -22.5 55q0 29 16 54.5t42 41t55 15.5q34 0 56 -22t22 -55q0 -29 -16 -54.5t-41.5 -41t-53.5 -15.5q-35 0 -57.5 22z" />
    <glyph glyph-name="quotedbl" unicode="&#x22;" horiz-adv-x="373" 
d="M180 468h-110l52 295h110zM368 468h-110l52 295h110z" />
    <glyph glyph-name="numbersign" unicode="#" horiz-adv-x="745" 
d="M186 0h-125l87 219h-121l20 113h145l42 109h-125l21 118h150l84 204h126l-84 -210h108l81 210h127l-87 -210h121l-20 -112h-144l-45 -109h126l-20 -113h-149l-87 -219h-124l86 219h-109zM358 441l-40 -109h107l42 109h-109z" />
    <glyph glyph-name="dollar" unicode="$" horiz-adv-x="712" 
d="M518 525q-5 40 -27.5 66t-61.5 34l-27 -151l21 -5q77 -18 127.5 -37t86.5 -58t36 -103q0 -87 -45.5 -152.5t-124.5 -100.5t-175 -35h-12l-15 -83h-42l15 85q-120 11 -183.5 77t-63.5 197h185q8 -99 89 -120l31 177q-74 18 -122.5 36t-82.5 55t-34 98q0 82 43 143.5
t116 95t162 35.5l15 84h42l-15 -85q113 -9 182 -74.5t65 -178.5h-185zM299 512q22 -15 63 -27l26 144q-45 -1 -78 -20.5t-33 -57.5q0 -24 22 -39zM459 275q-29 17 -86 32l-31 -174h11q56 0 95.5 26.5t39.5 69.5q0 29 -29 46z" />
    <glyph glyph-name="percent" unicode="%" horiz-adv-x="772" 
d="M128 455q-40 37 -40 103q0 59 26.5 109.5t72.5 81t103 30.5q62 0 100.5 -41t38.5 -104q0 -55 -27.5 -105t-73 -80.5t-98.5 -30.5q-62 0 -102 37zM153 0h-128l621 763h129zM289.5 563q16.5 22 16.5 52q0 21 -10.5 31.5t-26.5 10.5q-29 0 -43 -23t-14 -54q0 -39 39 -39
q22 0 38.5 22zM416 20q-40 37 -40 103q0 59 26.5 109.5t72.5 80.5t103 30q62 0 101 -40.5t39 -104.5q0 -54 -27.5 -104t-73.5 -80.5t-99 -30.5q-62 0 -102 37zM577.5 126q17.5 22 17.5 51q0 22 -11 33t-27 11q-29 0 -43 -23t-14 -54q0 -40 39 -40q21 0 38.5 22z" />
    <glyph glyph-name="ampersand" unicode="&#x26;" horiz-adv-x="760" 
d="M133 2.5q-53 19.5 -84.5 58t-31.5 92.5q0 61 27.5 107.5t72.5 81t115 74.5q-31 37 -44.5 69t-13.5 67q0 67 35 119t94.5 80t128.5 28q88 0 136.5 -37t48.5 -104q0 -136 -169 -242l75 -126q17 29 28 55t20 60h154q-33 -138 -125 -239l90 -146h-202l-29 47
q-86 -64 -210 -64q-63 0 -116 19.5zM454 605q0 19 -12 30.5t-33 11.5q-29 0 -49 -21t-20 -53q0 -18 7 -35.5t23 -41.5q84 53 84 109zM338.5 133.5q31.5 8.5 56.5 22.5l-95 156q-52 -30 -83 -60t-31 -67q0 -29 26.5 -44.5t66.5 -15.5q28 0 59.5 8.5z" />
    <glyph glyph-name="quotesingle" unicode="'" horiz-adv-x="184" 
d="M180 468h-110l52 295h110z" />
    <glyph glyph-name="parenleft" unicode="(" horiz-adv-x="300" 
d="M85 -110q-40 108 -40 256q0 112 22 235q54 302 191 491h137q-77 -101 -126 -220t-76 -271q-21 -120 -21 -218q0 -150 50 -273h-137z" />
    <glyph glyph-name="parenright" unicode=")" horiz-adv-x="300" 
d="M-60 -110q76 101 125 220.5t76 270.5q21 120 21 219q0 152 -49 272h137q39 -109 39 -256q0 -112 -22 -235q-26 -147 -74 -271.5t-116 -219.5h-137z" />
    <glyph glyph-name="asterisk" unicode="*" horiz-adv-x="432" 
d="M96 482q27 25 54 44.5t75 44.5l-2 13q-36 -2 -48 -2q-38 0 -64 4t-31 5l56 104q32 -15 53 -28.5t50 -43.5l12 9q-11 54 -11 98l1 33h119q-10 -33 -21 -60t-34 -70l9 -9q40 30 67.5 44.5t59.5 26.5l18 -104q-50 -8 -89 -8q-13 0 -55 2l-6 -13q38 -25 57.5 -44.5
t38.5 -45.5l-107 -64q-11 35 -17.5 63.5t-11.5 66.5h-14q-18 -38 -34 -65t-40 -65z" />
    <glyph glyph-name="plus" unicode="+" horiz-adv-x="623" 
d="M332 56h-123l39 221h-220l21 121h220l39 221h123l-39 -221h221l-21 -121h-221z" />
    <glyph glyph-name="comma" unicode="," horiz-adv-x="277" 
d="M-27 -84q58 0 94 24.5t44 71.5q-11 -13 -24.5 -18t-31.5 -5q-26 0 -44.5 19t-18.5 51q0 51 34.5 84t86.5 33q46 0 69.5 -28t23.5 -76q0 -68 -31.5 -122t-88 -85.5t-128.5 -34.5z" />
    <glyph glyph-name="hyphen" unicode="-" horiz-adv-x="379" 
d="M347 247h-327l25 143h327z" />
    <glyph glyph-name="period" unicode="." horiz-adv-x="248" 
d="M16 10q-23 22 -23 56q0 28 16.5 53.5t42.5 41t55 15.5q33 0 55 -23t22 -56q0 -27 -16 -52.5t-41.5 -41t-52.5 -15.5q-35 0 -58 22z" />
    <glyph glyph-name="slash" unicode="/" horiz-adv-x="486" 
d="M52 -111h-149l510 874h148z" />
    <glyph glyph-name="zero" unicode="0" horiz-adv-x="677" 
d="M112.5 43q-60.5 60 -60.5 194q0 65 15 147q37 210 127 302.5t230 92.5q114 0 174 -60.5t60 -194.5q0 -68 -14 -145q-37 -210 -127 -303t-230 -93q-114 0 -174.5 60zM374 161q27 18 50.5 70.5t40.5 149.5q13 74 13 123q0 66 -21.5 90.5t-62.5 24.5q-36 0 -62 -18.5
t-48 -70t-39 -148.5q-14 -77 -14 -131q0 -63 20 -85.5t60 -22.5q36 0 63 18z" />
    <glyph glyph-name="one" unicode="1" horiz-adv-x="464" 
d="M277 548q-41 -43 -99.5 -72.5t-120.5 -35.5l28 161q158 30 236 162h173l-135 -763h-179z" />
    <glyph glyph-name="two" unicode="2" horiz-adv-x="649" 
d="M5 0l24 138l272 215q82 64 121.5 108.5t39.5 94.5q0 34 -20.5 53.5t-63.5 19.5q-55 0 -90 -34t-51 -108h-160q30 145 113.5 218.5t216.5 73.5q101 0 160.5 -51t59.5 -145q0 -72 -31.5 -133.5t-76.5 -107.5t-111 -101l-98 -81h275l-28 -160h-552z" />
    <glyph glyph-name="three" unicode="3" horiz-adv-x="664" 
d="M97 43q-68 60 -68 164q0 20 3 41h179q-1 -7 -1 -21q0 -46 25.5 -70t75.5 -24q58 0 91 35.5t33 89.5q0 71 -107 71h-46l25 140h39q48 0 78 28.5t30 72.5q0 59 -72 59q-79 0 -110 -88h-158q25 109 106.5 173.5t192.5 64.5q65 0 114 -22.5t75 -63t26 -92.5q0 -68 -37.5 -119
t-101.5 -64q67 -7 97 -45.5t30 -94.5q0 -85 -45 -152t-121.5 -105t-168.5 -38q-116 0 -184 60z" />
    <glyph glyph-name="four" unicode="4" horiz-adv-x="643" 
d="M475 0h-179l29 165h-313l30 170l396 428h172l-78 -438h85l-28 -160h-85zM391 541l-188 -216h150z" />
    <glyph glyph-name="five" unicode="5" horiz-adv-x="659" 
d="M140.5 13q-56.5 30 -85 85t-24.5 128h179q5 -42 28 -62.5t66 -20.5q38 0 67.5 20.5t45 54.5t15.5 72q0 42 -23 67.5t-62 25.5q-38 0 -67.5 -16.5t-54.5 -53.5h-167l165 450h440l-29 -160h-311l-45 -119q26 20 62.5 32.5t71.5 12.5q94 0 148 -55.5t54 -149.5
q0 -96 -43.5 -174t-121 -122.5t-174.5 -44.5q-78 0 -134.5 30z" />
    <glyph glyph-name="six" unicode="6" horiz-adv-x="666" 
d="M112.5 49.5q-62.5 66.5 -62.5 197.5q0 59 11 118q36 202 134 308t239 106q118 0 177.5 -64t51.5 -177h-158q-1 44 -26.5 67.5t-70.5 23.5q-74 0 -114 -49t-55 -139q72 70 171 70q95 0 151.5 -51t56.5 -143q0 -24 -5 -57q-15 -82 -61 -145t-115 -97.5t-148 -34.5
q-114 0 -176.5 66.5zM392 167.5q32 34.5 42 92.5q3 17 3 32q0 40 -21 62.5t-61 22.5q-49 0 -82.5 -32t-42.5 -85q-3 -18 -3 -34q0 -43 22 -68t63 -25q48 0 80 34.5z" />
    <glyph glyph-name="seven" unicode="7" horiz-adv-x="580" 
d="M219 0h-205l399 603h-329l29 160h522l-28 -157z" />
    <glyph glyph-name="eight" unicode="8" horiz-adv-x="678" 
d="M150 8q-58 25 -88.5 70.5t-30.5 104.5q0 81 46 143.5t128 93.5q-77 35 -77 117q0 70 41 125.5t109.5 86t147.5 30.5q104 0 165 -47.5t61 -125.5q0 -64 -35 -113.5t-96 -72.5q56 -24 81 -64t25 -90q0 -82 -46.5 -146.5t-125 -100.5t-169.5 -36q-78 0 -136 25zM448.5 501.5
q29.5 31.5 29.5 72.5q0 30 -19.5 47.5t-56.5 17.5q-48 0 -77 -28.5t-29 -70.5q0 -31 19.5 -50.5t56.5 -19.5q47 0 76.5 31.5zM383 151.5q31 18.5 48.5 49t17.5 64.5q0 40 -25.5 64.5t-72.5 24.5q-39 0 -70 -18t-48.5 -49t-17.5 -67q0 -38 25.5 -62.5t71.5 -24.5
q40 0 71 18.5z" />
    <glyph glyph-name="nine" unicode="9" horiz-adv-x="667" 
d="M88.5 47q-59.5 64 -51.5 177h158q1 -44 26.5 -67.5t70.5 -23.5q74 0 114 49t55 139q-72 -70 -171 -70q-95 0 -151.5 51t-56.5 143q0 24 5 57q15 82 61 145t115 97.5t148 34.5q114 0 176.5 -66.5t62.5 -197.5q0 -59 -11 -118q-36 -202 -134 -308t-239 -106
q-118 0 -177.5 64zM427.5 417q33.5 32 42.5 85q3 18 3 34q0 43 -22 68t-63 25q-48 0 -80 -34.5t-42 -92.5q-3 -16 -3 -32q0 -40 21 -62.5t61 -22.5q49 0 82.5 32z" />
    <glyph glyph-name="colon" unicode=":" horiz-adv-x="265" 
d="M85.5 361q-22.5 23 -22.5 56q0 28 16 53.5t42.5 41t54.5 15.5q33 0 55 -22.5t22 -55.5q0 -28 -15.5 -54t-41 -41.5t-53.5 -15.5q-35 0 -57.5 23zM23.5 10q-22.5 22 -22.5 55q0 29 16 54.5t42 41t55 15.5q34 0 56 -22t22 -55q0 -29 -16 -54.5t-41.5 -41t-53.5 -15.5
q-35 0 -57.5 22z" />
    <glyph glyph-name="semicolon" unicode=";" horiz-adv-x="277" 
d="M77.5 361q-22.5 23 -22.5 56q0 28 16 53.5t42 41t54 15.5q34 0 56.5 -22t22.5 -55q0 -29 -16 -55t-42 -41.5t-54 -15.5q-34 0 -56.5 23zM-27 -84q57 0 93 23.5t45 72.5q-11 -13 -24.5 -18t-31.5 -5q-26 0 -44.5 19t-18.5 51q0 51 34.5 84t86.5 33q46 0 69.5 -28t23.5 -76
q0 -68 -31.5 -122t-88 -85.5t-128.5 -34.5z" />
    <glyph glyph-name="less" unicode="&#x3c;" horiz-adv-x="564" 
d="M62 437l515 171l-30 -169l-317 -98l283 -97l-26 -150l-455 169z" />
    <glyph glyph-name="equal" unicode="=" horiz-adv-x="532" 
d="M519 413h-460l24 137h460zM473 155h-460l25 138h460z" />
    <glyph glyph-name="greater" unicode="&#x3e;" horiz-adv-x="564" 
d="M526 265l-515 -171l30 169l317 98l-283 97l26 150l455 -169z" />
    <glyph glyph-name="question" unicode="?" horiz-adv-x="561" 
d="M200 289q10 54 30.5 89t44.5 54.5t60 41.5q44 27 65 50.5t21 61.5q0 31 -21.5 46t-54.5 15q-45 0 -79 -31.5t-49 -91.5h-151q18 81 62.5 138.5t108 87t136.5 29.5q93 0 150.5 -43t57.5 -128q0 -76 -29.5 -123.5t-94.5 -90.5q-39 -26 -62 -47.5t-37 -58.5l-19 -51h-148z
M163 11q-22 23 -22 56q0 28 16 53t42 40.5t54 15.5q34 0 56.5 -22t22.5 -55q0 -29 -16 -54.5t-42 -41t-54 -15.5q-35 0 -57 23z" />
    <glyph glyph-name="at" unicode="@" horiz-adv-x="1013" 
d="M207.5 -140.5q-89.5 46.5 -137.5 131t-48 195.5q0 46 9 95q24 138 104.5 250t201.5 176.5t260 64.5q118 0 207.5 -47.5t138 -134t48.5 -198.5q0 -51 -8 -94q-17 -98 -62.5 -175t-110.5 -121t-140 -44q-57 0 -85 31.5t-28 89.5q0 18 1 27q-80 -88 -182 -88
q-65 0 -105.5 43t-40.5 120q0 32 5 57q15 87 66 165.5t124 126t151 47.5q42 0 68.5 -18.5t42.5 -63.5l19 55h99l-14 -36q-67 -170 -97.5 -255t-37.5 -130q-2 -10 -2 -27q0 -27 11.5 -38.5t34.5 -11.5q39 0 76 31.5t65.5 87t40.5 125.5q7 39 7 81q0 89 -37.5 156
t-106.5 103.5t-163 36.5q-112 0 -208.5 -51t-161 -140.5t-83.5 -200.5q-7 -38 -7 -78q0 -87 37.5 -152.5t108.5 -101.5t168 -36q71 0 131 20l-18 -103q-59 -17 -132 -17q-120 0 -209.5 46.5zM503.5 153q48.5 36 82 93.5t44.5 118.5q4 28 4 37q0 76 -73 76q-52 0 -100 -34
t-82 -89.5t-45 -118.5q-4 -20 -4 -40q0 -79 74 -79q51 0 99.5 36z" />
    <glyph glyph-name="A" unicode="A" horiz-adv-x="720" 
d="M668 0h-180l-17 137h-254l-65 -137h-200l396 763h194zM419 564l-129 -272h162z" />
    <glyph glyph-name="B" unicode="B" horiz-adv-x="703" 
d="M10 0l135 763h312q151 0 202 -66q27 -34 27 -85q0 -71 -36.5 -129.5t-99.5 -81.5q55 -13 84.5 -48t29.5 -88q0 -59 -30.5 -117.5t-79.5 -91.5q-84 -56 -218 -56h-326zM387 455q53 0 81.5 24.5t28.5 68.5q0 23 -16 37q-11 10 -32 14t-60 4h-94l-26 -148h118zM341 160
q38 0 64.5 5t44.5 18q18 12 27 33.5t9 43.5q0 32 -25.5 43.5t-78.5 11.5h-137l-28 -155h124z" />
    <glyph glyph-name="C" unicode="C" horiz-adv-x="779" 
d="M180.5 23q-71.5 40 -105.5 109.5t-34 159.5q0 135 58.5 246.5t163.5 176t237 64.5q147 0 222 -74t68 -200h-196q2 56 -32 85t-94 29q-72 0 -126 -43t-82 -113t-28 -149q0 -81 38.5 -126t113.5 -45q60 0 104 29t63 87h196q-38 -127 -139 -201.5t-248 -74.5
q-108 0 -179.5 40z" />
    <glyph glyph-name="D" unicode="D" horiz-adv-x="726" 
d="M10 0l135 763h231q169 0 257 -74t88 -214q0 -143 -59 -250.5t-167.5 -166t-253.5 -58.5h-231zM267 160q129 0 200 74.5t71 201.5q0 82 -50.5 124.5t-142.5 42.5h-50l-78 -443h50z" />
    <glyph glyph-name="E" unicode="E" 
d="M531 0h-521l135 763h521l-29 -160h-342l-25 -142h309l-28 -159h-309l-25 -142h342z" />
    <glyph glyph-name="F" unicode="F" horiz-adv-x="606" 
d="M189 0h-179l135 763h521l-29 -160h-342l-25 -142h309l-28 -159h-309z" />
    <glyph glyph-name="G" unicode="G" horiz-adv-x="827" 
d="M179.5 23q-71.5 40 -105.5 109.5t-34 159.5q0 135 58.5 246.5t163.5 176t237 64.5q158 0 238 -73.5t77 -200.5h-196q-7 114 -147 114q-72 0 -126.5 -42.5t-84 -111.5t-29.5 -147q0 -83 44.5 -129t131.5 -46q159 0 192 139h-159l25 144h338l-75 -426h-163l13 71
q-80 -88 -219 -88q-108 0 -179.5 40z" />
    <glyph glyph-name="H" unicode="H" horiz-adv-x="770" 
d="M189 0h-179l135 763h179l-54 -302h290l54 302h179l-135 -763h-179l53 301h-290z" />
    <glyph glyph-name="I" unicode="I" horiz-adv-x="300" 
d="M189 0h-179l135 763h179z" />
    <glyph glyph-name="J" unicode="J" horiz-adv-x="402" 
d="M-42 0l28 160h98q60 0 71 60l96 543h180l-97 -545q-15 -86 -47.5 -133t-87.5 -66t-143 -19h-98z" />
    <glyph glyph-name="K" unicode="K" horiz-adv-x="695" 
d="M189 0h-179l135 763h179l-56 -318l293 318h215l-346 -370l215 -393h-217l-177 355z" />
    <glyph glyph-name="L" unicode="L" horiz-adv-x="558" 
d="M500 0h-490l135 763h179l-107 -603h311z" />
    <glyph glyph-name="M" unicode="M" horiz-adv-x="949" 
d="M189 0h-179l135 763h278l29 -549l222 549h299l-135 -763h-179l109 620l-257 -620h-174l-39 616z" />
    <glyph glyph-name="N" unicode="N" horiz-adv-x="774" 
d="M189 0h-179l135 763h182l211 -463l82 463h179l-135 -763h-182l-211 466z" />
    <glyph glyph-name="O" unicode="O" horiz-adv-x="826" 
d="M180.5 23q-71.5 40 -105.5 109.5t-34 159.5q0 135 58.5 246.5t163.5 176t237 64.5q107 0 178 -39.5t105.5 -108.5t34.5 -158q0 -136 -58.5 -248t-163 -177t-236.5 -65q-108 0 -179.5 40zM515 186q54 43 83 113t29 149q0 80 -40.5 125.5t-114.5 45.5q-73 0 -127.5 -42.5
t-83.5 -112t-29 -147.5q0 -81 40.5 -127.5t115.5 -46.5q73 0 127 43z" />
    <glyph glyph-name="P" unicode="P" horiz-adv-x="683" 
d="M10 0l135 763h360q96 0 150.5 -41.5t54.5 -129.5q0 -84 -36.5 -152t-102 -107t-149.5 -39h-181l-52 -294h-179zM414 449q51 0 83 26.5t32 69.5q0 28 -20 43t-58 15h-156l-27 -154h146z" />
    <glyph glyph-name="Q" unicode="Q" horiz-adv-x="828" 
d="M772.5 253q-45.5 -101 -126.5 -169l79 -171h-202l-38 87q-60 -17 -125 -17q-108 0 -179.5 40t-105.5 109.5t-34 159.5q0 135 58.5 246.5t163.5 176t237 64.5q107 0 178 -39.5t105.5 -108.5t34.5 -158q0 -119 -45.5 -220zM272.5 189.5q40.5 -46.5 115.5 -46.5q73 0 127 43
t83 113t29 149q0 80 -40.5 125.5t-114.5 45.5q-73 0 -127.5 -42.5t-83.5 -112t-29 -147.5q0 -81 40.5 -127.5z" />
    <glyph glyph-name="R" unicode="R" horiz-adv-x="708" 
d="M670 433.5q-40 -70.5 -110 -106.5l74 -327h-180l-67 294h-146l-52 -294h-179l135 763h360q96 0 150.5 -41.5t54.5 -129.5t-40 -158.5zM295 603l-27 -154h146q51 0 83 26.5t32 69.5q0 28 -20 43t-58 15h-156z" />
    <glyph glyph-name="S" unicode="S" horiz-adv-x="712" 
d="M105.5 51q-78.5 68 -78.5 208h185q10 -126 141 -126q56 0 95.5 26.5t39.5 69.5q0 34 -37 51.5t-113 34.5q-75 17 -125 35t-85 55.5t-35 99.5q0 83 44 145t119 95.5t165 33.5q82 0 145.5 -28.5t100 -85.5t36.5 -140h-185q-5 49 -38 76.5t-89 27.5q-46 0 -80 -20t-34 -58
q0 -32 36 -48.5t110 -33.5q75 -17 126.5 -36t87.5 -58.5t36 -103.5q0 -87 -45.5 -152.5t-124.5 -100.5t-175 -35q-144 0 -222.5 68z" />
    <glyph glyph-name="T" unicode="T" horiz-adv-x="625" 
d="M352 0h-179l106 603h-215l29 160h609l-29 -160h-215z" />
    <glyph glyph-name="U" unicode="U" horiz-adv-x="754" 
d="M112 43q-67 60 -67 167q0 39 7 75l85 478h180l-85 -478q-4 -28 -4 -41q0 -48 28 -74.5t96 -26.5q81 0 119.5 38t49.5 104l85 478h180l-85 -478q-25 -140 -117 -221t-260 -81q-145 0 -212 60z" />
    <glyph glyph-name="V" unicode="V" horiz-adv-x="708" 
d="M401 0h-194l-126 763h180l68 -562l268 562h200z" />
    <glyph glyph-name="W" unicode="W" horiz-adv-x="1138" 
d="M413 0h-270l-47 763h183l24 -635l223 635h246l-2 -636l249 636h193l-317 -763h-270l3 616z" />
    <glyph glyph-name="X" unicode="X" horiz-adv-x="749" 
d="M181 0h-227l314 379l-181 384h198l112 -263l207 263h228l-317 -384l180 -379h-197l-115 245z" />
    <glyph glyph-name="Y" unicode="Y" horiz-adv-x="718" 
d="M403 0h-188l53 303l-191 460h194l107 -287l209 287h224l-355 -460z" />
    <glyph glyph-name="Z" unicode="Z" 
d="M543 0h-567l21 121l409 482h-303l29 160h544l-23 -127l-402 -476h320z" />
    <glyph glyph-name="bracketleft" unicode="[" horiz-adv-x="342" 
d="M264 -110h-249l173 982h249l-19 -107h-121l-136 -768h121z" />
    <glyph glyph-name="backslash" unicode="\" horiz-adv-x="486" 
d="M443 -111h-139l-209 874h138z" />
    <glyph glyph-name="bracketright" unicode="]" horiz-adv-x="342" 
d="M189 -110h-249l18 107h121l136 768h-121l19 107h249z" />
    <glyph glyph-name="asciicircum" unicode="^" horiz-adv-x="568" 
d="M193 278h-167l257 485h174l83 -485h-151l-45 304z" />
    <glyph glyph-name="underscore" unicode="_" horiz-adv-x="443" 
d="M385 -121h-470l21 121h470z" />
    <glyph glyph-name="grave" unicode="`" horiz-adv-x="280" 
d="M337 618h-121l-129 145h162z" />
    <glyph glyph-name="a" unicode="a" horiz-adv-x="601" 
d="M52 23q-44 35 -44 100q0 98 63 148t177 70l152 26q1 6 1 18q0 31 -13 48q-14 20 -53 20q-31 0 -58 -20t-39 -55h-167q32 100 112.5 150.5t174.5 50.5q52 0 95.5 -14t70.5 -42q23 -23 32.5 -52t9.5 -66q0 -43 -17 -136l-47 -269h-168l12 69q-18 -32 -49 -51
q-48 -30 -130 -30q-71 0 -115 35zM302 129q35 15 52.5 42.5t27.5 76.5l-107 -20q-46 -8 -71 -24.5t-25 -47.5q0 -21 16.5 -31t42.5 -10q30 0 64 14z" />
    <glyph glyph-name="b" unicode="b" horiz-adv-x="649" 
d="M236 4q-32 16 -52 57l-11 -61h-168l135 763h168l-46 -257q34 41 72 57t86 16q92 0 147 -61.5t55 -162.5q0 -93 -40 -178t-110 -137t-156 -52q-48 0 -80 16zM375 158.5q35 27.5 54.5 72t19.5 92.5q0 52 -27 82.5t-74 30.5q-46 0 -81 -27.5t-54.5 -71.5t-19.5 -92
q0 -53 27 -83.5t74 -30.5q46 0 81 27.5z" />
    <glyph glyph-name="c" unicode="c" horiz-adv-x="633" 
d="M93 50.5q-66 62.5 -66 170.5q0 100 45.5 181.5t126 129t180.5 47.5q107 0 172 -54t71 -147h-184q-5 35 -25 51.5t-57 16.5q-49 0 -84 -30t-53 -78t-18 -101q0 -55 25.5 -85t72.5 -30q41 0 67 18.5t42 55.5h183q-39 -97 -124 -152.5t-192 -55.5q-116 0 -182 62.5z" />
    <glyph glyph-name="d" unicode="d" horiz-adv-x="649" 
d="M82 49.5q-55 61.5 -55 163.5q0 94 40 178.5t110 136t156 51.5q48 0 80 -16t52 -57l46 257h168l-135 -763h-168l11 61q-34 -41 -72 -57t-86 -16q-92 0 -147 61.5zM382 158.5q35 27.5 54.5 72t19.5 92.5q0 52 -27 82.5t-74 30.5q-45 0 -80.5 -27.5t-55 -71.5t-19.5 -92
q0 -52 27 -83t74 -31q46 0 81 27.5z" />
    <glyph glyph-name="e" unicode="e" horiz-adv-x="648" 
d="M141.5 17q-56.5 29 -86 82t-29.5 122q0 96 46 178.5t126.5 131t176.5 48.5q107 0 177 -56.5t70 -172.5q0 -31 -12 -102h-408v-6q0 -53 27.5 -81.5t80.5 -28.5q36 0 66 18t47 46h169q-43 -92 -123 -150t-193 -58q-78 0 -134.5 29zM461 367q-2 32 -18 51q-28 33 -84 33
q-57 0 -96 -33q-26 -21 -35 -51h233z" />
    <glyph glyph-name="f" unicode="f" horiz-adv-x="378" 
d="M52 0l77 437h-81l23 130h81l10 55q11 67 60 104t127 37h93l-23 -129h-52q-13 0 -24.5 -8t-15.5 -29l-5 -30h85l-23 -130h-85l-77 -437h-170z" />
    <glyph glyph-name="g" unicode="g" horiz-adv-x="650" 
d="M-1 -20h168q7 -35 28.5 -49t60.5 -14q54 0 84.5 25t37.5 63l13 76q-34 -41 -72 -57t-86 -16q-61 0 -107 28t-70.5 78t-24.5 115q0 89 40 170t109.5 130.5t153.5 49.5q48 0 80 -16t52 -57l11 61h168l-92 -519q-25 -140 -108.5 -198t-209.5 -58q-236 0 -236 188zM384 176
q35 25 54.5 65t19.5 84q0 50 -27.5 80.5t-74.5 30.5q-43 0 -78 -25t-54.5 -65.5t-19.5 -84.5q0 -49 27 -79.5t75 -30.5q43 0 78 25z" />
    <glyph glyph-name="h" unicode="h" 
d="M5 0l135 763h168l-46 -257q34 41 72 57t86 16q173 0 173 -151q0 -22 -4 -50.5t-10 -60.5l-56 -317h-168l56 319q6 36 6 58q0 36 -16.5 51.5t-53.5 15.5q-55 0 -80.5 -29.5t-37.5 -95.5l-56 -319h-168z" />
    <glyph glyph-name="i" unicode="i" horiz-adv-x="278" 
d="M173 0h-168l100 567h168zM137.5 625q-22.5 19 -22.5 51q0 45 33 74t78 29q36 0 58.5 -19t22.5 -52q0 -46 -33 -74t-78 -28q-36 0 -58.5 19z" />
    <glyph glyph-name="j" unicode="j" horiz-adv-x="278" 
d="M-118 -196l25 137h52q35 0 42 35l104 591h168l-114 -649q-10 -54 -49.5 -84t-101.5 -30h-126zM137.5 625q-22.5 19 -22.5 51q0 45 33 74t78 29q36 0 58.5 -19t22.5 -52q0 -46 -33 -74t-78 -28q-36 0 -58.5 19z" />
    <glyph glyph-name="k" unicode="k" 
d="M173 0h-168l135 763h168l-70 -395l215 199h216l-288 -259l187 -308h-195l-152 272z" />
    <glyph glyph-name="l" unicode="l" horiz-adv-x="318" 
d="M132 0q-55 0 -83.5 22.5t-28.5 65.5q0 16 2 25l115 650h168l-105 -592q-1 -3 -1 -9q0 -26 28 -26h42l-24 -136h-113z" />
    <glyph glyph-name="m" unicode="m" horiz-adv-x="905" 
d="M5 0l100 567h168l-11 -61q63 73 158 73q113 0 130 -82q33 41 74 61.5t97 20.5q78 0 116 -38.5t38 -109.5q0 -32 -5 -57l-66 -374h-168l63 359q3 17 3 29q0 30 -15 43t-45 13q-43 0 -63.5 -28.5t-31.5 -87.5l-58 -328h-168l63 359q3 17 3 29q0 30 -15.5 43t-46.5 13
q-43 0 -64 -30t-30 -86l-58 -328h-168z" />
    <glyph glyph-name="n" unicode="n" 
d="M5 0l100 567h168l-11 -61q34 41 72 57t86 16q173 0 173 -151q0 -22 -4 -50.5t-10 -60.5l-56 -317h-168l56 319q6 36 6 58q0 36 -16.5 51.5t-53.5 15.5q-55 0 -80.5 -29.5t-37.5 -95.5l-56 -319h-168z" />
    <glyph glyph-name="o" unicode="o" horiz-adv-x="660" 
d="M94.5 51q-67.5 63 -67.5 171q0 99 46 181t127.5 129t181.5 47q78 0 134.5 -28.5t87 -81.5t30.5 -123q0 -98 -46.5 -180t-128 -130t-181.5 -48q-116 0 -183.5 63zM384 160q35 28 54 72.5t19 92.5q0 51 -26 81t-74 30q-46 0 -81.5 -27t-54.5 -71t-19 -93q0 -53 27 -83
t74 -30q46 0 81 28z" />
    <glyph glyph-name="p" unicode="p" horiz-adv-x="649" 
d="M-30 -196l135 763h168l-11 -61q34 41 72 57t86 16q93 0 147.5 -61.5t54.5 -163.5q0 -94 -40 -178.5t-110 -136t-156 -51.5q-48 0 -80 16t-52 57l-46 -257h-168zM374.5 158.5q35.5 27.5 55 71.5t19.5 92q0 52 -27 83t-74 31q-46 0 -81 -27.5t-54.5 -72t-19.5 -92.5
q0 -52 27 -82.5t74 -30.5q45 0 80.5 27.5z" />
    <glyph glyph-name="q" unicode="q" horiz-adv-x="649" 
d="M471 -196q-55 0 -83.5 23t-28.5 66q0 9 3 26l25 142q-34 -41 -72 -57t-86 -16q-92 0 -147 61.5t-55 162.5q0 93 40 178t110 137t156 52q48 0 80 -16t52 -57l11 61h168l-104 -591q-1 -4 -1 -10q0 -25 29 -25h41l-25 -137h-113zM382 158.5q35 27.5 54.5 71.5t19.5 92
q0 53 -27 83.5t-74 30.5q-46 0 -81 -27.5t-54.5 -72t-19.5 -92.5q0 -52 27 -82.5t74 -30.5q46 0 81 27.5z" />
    <glyph glyph-name="r" unicode="r" horiz-adv-x="410" 
d="M5 0l100 567h168l-11 -61q34 41 72 57t86 16h25l-28 -160h-32q-65 0 -101 -30q-26 -21 -42.5 -56.5t-26.5 -93.5l-42 -239h-168z" />
    <glyph glyph-name="s" unicode="s" horiz-adv-x="588" 
d="M83.5 35q-69.5 47 -69.5 161h163q6 -41 34 -61t67 -20q37 0 63.5 16t26.5 42q0 22 -26 33t-81 22q-57 11 -96 24.5t-66.5 42.5t-27.5 78q0 65 35 111.5t94 70.5t132 24q105 0 165 -52t60 -148h-159q-5 38 -29.5 56t-59.5 18q-33 0 -54.5 -13.5t-21.5 -35.5t26.5 -33
t82.5 -21q60 -11 99.5 -23.5t67.5 -41t28 -77.5q0 -66 -37.5 -116t-101.5 -77t-140 -27q-105 0 -174.5 47z" />
    <glyph glyph-name="t" unicode="t" horiz-adv-x="398" 
d="M180 0q-55 0 -84 23t-29 65q0 16 2 25l57 323h-78l23 131h78l35 196h168l-35 -196h98l-23 -131h-98l-47 -266q-1 -3 -1 -10q0 -24 29 -24h63l-24 -136h-134z" />
    <glyph glyph-name="u" unicode="u" 
d="M38 86q-7 22 -7 50q0 30 14 114l56 317h168l-56 -319q-6 -36 -6 -58q0 -30 11 -46q17 -21 59 -21q53 0 80 29q13 15 22 37.5t16 58.5l56 319h168l-100 -567h-168l11 61q-32 -38 -69.5 -55.5t-88.5 -17.5q-139 0 -166 98z" />
    <glyph glyph-name="v" unicode="v" horiz-adv-x="564" 
d="M298 0h-133l-109 567h168l40 -318l156 318h188z" />
    <glyph glyph-name="w" unicode="w" horiz-adv-x="860" 
d="M296 0h-160l-77 567h174l25 -330l143 330h144l28 -328l144 328h183l-281 -567h-159l-20 341z" />
    <glyph glyph-name="x" unicode="x" horiz-adv-x="604" 
d="M152 0h-194l238 287l-139 280h185l72 -169l135 169h199l-242 -280l141 -287h-187l-74 173z" />
    <glyph glyph-name="y" unicode="y" horiz-adv-x="576" 
d="M-16 -196l25 137h68q23 0 40 8t32 31l8 12l-100 575h175l36 -402l163 402h186l-307 -603q-44 -87 -94.5 -123.5t-130.5 -36.5h-101z" />
    <glyph glyph-name="z" unicode="z" horiz-adv-x="570" 
d="M486 0h-507l18 101l350 334h-275l23 132h491l-19 -109l-337 -326h279z" />
    <glyph glyph-name="braceleft" unicode="{" horiz-adv-x="334" 
d="M146 -110q-51 0 -76.5 29.5t-25.5 81.5q0 21 5 49l31 176q3 15 3 27q0 31 -15.5 46t-43.5 24l20 116q38 11 60 30.5t31 66.5l31 176q13 75 52 117.5t101 42.5h97l-18 -102h-40q-28 0 -40 -17t-17 -44l-31 -176q-11 -64 -43 -100.5t-81 -51.5q36 -13 55 -38.5t19 -69.5
q0 -23 -4 -44l-31 -176q-2 -16 -2 -23q0 -38 38 -38h40l-18 -102h-97z" />
    <glyph glyph-name="bar" unicode="|" horiz-adv-x="340" 
d="M165 -110h-128l173 982h128z" />
    <glyph glyph-name="braceright" unicode="}" horiz-adv-x="334" 
d="M-47 -110l18 102h40q28 0 39.5 16.5t16.5 44.5l31 176q21 120 124 152q-74 26 -74 109q0 22 4 43l31 176q2 16 2 24q0 37 -37 37h-40l18 102h97q51 0 76.5 -29.5t25.5 -81.5q0 -21 -5 -49l-31 -176q-3 -15 -3 -28q0 -31 15 -45t43 -24l-20 -116q-37 -11 -59.5 -31
t-30.5 -66l-31 -176q-13 -75 -52 -117.5t-101 -42.5h-97z" />
    <glyph glyph-name="asciitilde" unicode="~" horiz-adv-x="527" 
d="M221 213.5q-20 12.5 -38 34.5q-11 12 -17 17t-14 5q-26 0 -40 -68h-89q16 76 56.5 120.5t95.5 44.5q30 0 49.5 -13t38.5 -34q8 -9 16 -15.5t15 -6.5q22 0 37 65h92q-19 -83 -54.5 -122.5t-93.5 -39.5q-34 0 -54 12.5z" />
    <glyph glyph-name="uni00A0" unicode="&#xa0;" horiz-adv-x="240" 
 />
    <glyph glyph-name="exclamdown" unicode="&#xa1;" horiz-adv-x="372" 
d="M161.5 413.5q-22.5 22.5 -22.5 54.5q0 29 16 54.5t41.5 41t53.5 15.5q35 0 57.5 -22t22.5 -55q0 -29 -16 -54.5t-42 -41t-55 -15.5q-33 0 -55.5 22.5zM80 85q10 58 25.5 120.5t18.5 73.5l12 49h141l-3 -30q-14 -142 -26 -213l-50 -281h-168z" />
    <glyph glyph-name="cent" unicode="&#xa2;" horiz-adv-x="633" 
d="M318 123q33 4 54.5 22t35.5 51h183q-37 -93 -116.5 -148t-180.5 -60l-16 -88h-42l16 89q-105 6 -165 68t-60 164q0 96 42 175.5t117.5 128t169.5 53.5l16 89h42l-16 -88q99 -5 158.5 -59t65.5 -142h-184q-9 60 -63 67zM220.5 161q19.5 -29 55.5 -37l56 320
q-61 -11 -96 -71t-35 -136q0 -47 19.5 -76z" />
    <glyph glyph-name="sterling" unicode="&#xa3;" horiz-adv-x="628" 
d="M22 152q71 4 114 36.5t43 91.5q0 39 -18 81h-97l18 106h68q-4 20 -4 42q0 75 37.5 136.5t102 97.5t141.5 36q94 0 151.5 -58t57.5 -166h-160q0 42 -20 61.5t-51 19.5q-53 0 -81 -34.5t-28 -93.5q0 -22 4 -41h192l-18 -106h-158q13 -52 13 -85q0 -80 -68 -123h301
l-27 -153h-540z" />
    <glyph glyph-name="currency" unicode="&#xa4;" horiz-adv-x="718" 
d="M115 51l-70 90l76 64q-18 41 -18 86q0 47 18 95.5t48 87.5l-50 65l99 90l57 -68q64 39 141 39q74 0 127 -37l78 64l72 -86l-77 -65q18 -45 18 -92q0 -46 -18 -94t-48 -86l55 -65l-102 -88l-56 66q-68 -37 -142 -37q-73 0 -128 37zM397.5 211.5q27.5 10.5 51.5 31.5
q28 24 43.5 56t15.5 64q0 43 -25 72q-17 20 -40.5 30.5t-50.5 10.5t-54 -10.5t-49 -30.5q-29 -25 -44.5 -56.5t-15.5 -64.5q0 -41 25 -72q16 -19 39.5 -30t50.5 -11q26 0 53.5 10.5z" />
    <glyph glyph-name="yen" unicode="&#xa5;" horiz-adv-x="718" 
d="M602 763h209l-328 -425h99l-14 -80h-120l-6 -34h120l-15 -80h-119l-25 -144h-188l25 144h-119l15 80h118l6 34h-118l14 80h97l-176 425h209l107 -287z" />
    <glyph glyph-name="brokenbar" unicode="&#xa6;" horiz-adv-x="340" 
d="M262 440h-128l76 432h128zM165 -110h-128l76 432h128z" />
    <glyph glyph-name="section" unicode="&#xa7;" horiz-adv-x="736" 
d="M4 14h183q0 -54 36 -78.5t89 -24.5t91 21.5t38 58.5q0 29 -27.5 48t-67 30t-101.5 22q-75 14 -127 53t-52 109q0 57 29.5 103.5t81.5 72.5q-62 22 -62 99q0 75 45.5 132t119.5 88t159 31q117 0 188.5 -62t71.5 -176h-172q-2 43 -32.5 65.5t-79.5 22.5q-45 0 -77 -16.5
t-32 -43.5q0 -36 41.5 -53.5t120.5 -32.5q92 -18 151.5 -58.5t59.5 -120.5q0 -61 -29 -110.5t-81 -69.5q62 -24 62 -96q0 -80 -45.5 -140t-122.5 -92.5t-169 -32.5q-290 0 -290 251zM476 228.5q14 17.5 14 40.5q0 24 -19.5 41t-52.5 26l-48 14q-48 0 -80.5 -17.5
t-32.5 -51.5q0 -20 22.5 -33t82.5 -28q32 -8 75 -17q25 8 39 25.5z" />
    <glyph glyph-name="dieresis" unicode="&#xa8;" horiz-adv-x="413" 
d="M95.5 625q-22.5 19 -22.5 51q0 45 33 74t78 29q36 0 58.5 -19t22.5 -52q0 -46 -33 -74t-78 -28q-36 0 -58.5 19zM314.5 625q-22.5 19 -22.5 51q0 45 33 74t78 29q36 0 58.5 -19t22.5 -52q0 -46 -33 -74t-78 -28q-36 0 -58.5 19z" />
    <glyph glyph-name="copyright" unicode="&#xa9;" horiz-adv-x="857" 
d="M209 35.5q-74 41.5 -115.5 113.5t-41.5 162q0 119 64.5 225t171 170.5t226.5 64.5q95 0 169 -41t115 -114t41 -164q0 -120 -65 -225.5t-172 -169t-225 -63.5q-94 0 -168 41.5zM563 141q79 47 126.5 125.5t47.5 167.5q0 68 -30.5 122t-85 84.5t-125.5 30.5q-90 0 -169 -48
t-126.5 -127t-47.5 -167q0 -66 30.5 -120t86 -84.5t125.5 -30.5q89 0 168 47zM317.5 192.5q-39.5 22.5 -61.5 61.5t-22 88q0 64 34.5 121t92 92t121.5 35q45 0 85.5 -21t62.5 -56l-91 -62q-13 18 -35 28.5t-46 10.5q-33 0 -63 -17.5t-48.5 -47.5t-18.5 -65q0 -39 26 -64.5
t66 -25.5q24 0 49 10t44 29l71 -62q-34 -35 -82.5 -56t-93.5 -21q-51 0 -90.5 22.5z" />
    <glyph glyph-name="ordfeminine" unicode="&#xaa;" horiz-adv-x="445" 
d="M96.5 386q-30.5 24 -30.5 70q0 68 44 103.5t124 49.5l106 18q1 4 1 13q0 21 -9 33q-10 14 -37 14q-22 0 -41 -14t-27 -38h-117q23 70 79 105t122 35q36 0 66 -9.5t50 -29.5q29 -29 29 -82q0 -36 -12 -96l-33 -188h-117l8 48q-12 -22 -34 -35q-34 -21 -91 -21
q-50 0 -80.5 24zM271 460q25 11 37 30t19 54l-74 -14q-33 -6 -50.5 -17.5t-17.5 -33.5q0 -14 11.5 -21t30.5 -7q21 0 44 9z" />
    <glyph glyph-name="guillemotleft" unicode="&#xab;" horiz-adv-x="576" 
d="M221 221l-25 -141l-205 195l274 197l-24 -140l-83 -57zM489 221l-25 -141l-205 195l274 197l-24 -140l-83 -57z" />
    <glyph glyph-name="uni00AD" unicode="&#xad;" horiz-adv-x="404" 
d="M400 258h-404l21 120h404z" />
    <glyph glyph-name="registered" unicode="&#xae;" horiz-adv-x="479" 
d="M166.5 394.5q-38.5 21.5 -60 59.5t-21.5 86q0 62 33.5 117t89.5 88.5t118 33.5q50 0 89 -21.5t60.5 -59.5t21.5 -86q0 -61 -34 -116.5t-90 -89t-118 -33.5q-50 0 -88.5 21.5zM357 437q46 27 74.5 72t28.5 96q0 59 -39.5 98t-100.5 39q-51 0 -97 -27.5t-73.5 -73
t-27.5 -95.5q0 -59 39 -97.5t100 -38.5q50 0 96 27zM183 458l41 236h111q65 0 65 -54q0 -26 -12 -47.5t-36 -29.5l24 -105h-59l-18 91h-45l-16 -91h-55zM300 597q22 0 32.5 7t10.5 21q0 20 -24 20h-48l-9 -48h38z" />
    <glyph glyph-name="macron" unicode="&#xaf;" horiz-adv-x="306" 
d="M363 619h-302l14 78h302z" />
    <glyph glyph-name="degree" unicode="&#xb0;" horiz-adv-x="446" 
d="M158.5 499q-37.5 38 -37.5 94q0 49 27.5 92t71 68.5t90.5 25.5q58 0 95.5 -37t37.5 -93q0 -49 -27 -92.5t-70.5 -69.5t-91.5 -26q-58 0 -95.5 38zM324 579.5q23 22.5 23 52.5q0 22 -15 36.5t-39 14.5q-30 0 -53 -22t-23 -52q0 -23 15 -37.5t39 -14.5q30 0 53 22.5z" />
    <glyph glyph-name="plusminus" unicode="&#xb1;" horiz-adv-x="695" 
d="M388 164h-123l25 141h-220l21 121h220l25 141h123l-25 -141h221l-21 -121h-221zM580 0h-564l21 121h564z" />
    <glyph glyph-name="acute" unicode="&#xb4;" horiz-adv-x="280" 
d="M182 618h-121l140 145h162z" />
    <glyph glyph-name="paragraph" unicode="&#xb6;" horiz-adv-x="649" 
d="M273 335q-58 3 -106 25.5t-76 62t-28 91.5q0 70 40 127t106 89.5t140 32.5h112l-154 -873h-112zM519 -110h-113l154 873h113z" />
    <glyph glyph-name="periodcentered" unicode="&#xb7;" horiz-adv-x="312" 
d="M111 336q-19 20 -19 49q0 40 30.5 70t68.5 30q31 0 51 -20t20 -50q0 -38 -31 -68.5t-70 -30.5q-31 0 -50 20z" />
    <glyph glyph-name="cedilla" unicode="&#xb8;" horiz-adv-x="237" 
d="M-82 -193l11 61q49 -20 83 -20q24 0 38 11t14 31q0 25 -31.5 34t-85.5 9l97 90h100q-38 -32 -78 -55l4 -9q7 1 19 1q36 0 56.5 -13.5t20.5 -42.5q0 -54 -44.5 -83t-110.5 -29q-48 0 -93 15z" />
    <glyph glyph-name="ordmasculine" unicode="&#xba;" horiz-adv-x="481" 
d="M126 406q-47 44 -47 119q0 70 32.5 127t89 90t126.5 33q82 0 129.5 -44t47.5 -119q0 -69 -32.5 -126t-89.5 -90.5t-127 -33.5q-82 0 -129 44zM350 503.5q30 41.5 30 94.5q0 35 -18.5 56t-51.5 21q-48 0 -78.5 -40t-30.5 -93q0 -37 19 -58.5t52 -21.5q48 0 78 41.5z" />
    <glyph glyph-name="guillemotright" unicode="&#xbb;" horiz-adv-x="576" 
d="M315 275l-275 -195l25 141l83 54l-63 57l24 140zM583 275l-275 -195l25 141l83 54l-63 57l24 140z" />
    <glyph glyph-name="questiondown" unicode="&#xbf;" horiz-adv-x="509" 
d="M216.5 413q-22.5 22 -22.5 55q0 29 16 54.5t42 41t54 15.5q35 0 57 -23t22 -56q0 -28 -16 -53t-42 -40.5t-54 -15.5q-34 0 -56.5 22zM2.5 -169q-57.5 43 -57.5 128q0 76 29.5 123.5t94.5 90.5q39 26 62 47.5t37 58.5l19 51h148l-9 -52q-10 -54 -30.5 -89t-44.5 -54.5
t-60 -41.5q-44 -27 -65 -50.5t-21 -61.5q0 -31 21.5 -46t54.5 -15q45 0 79 31.5t49 91.5h151q-18 -81 -62.5 -138.5t-108 -87t-136.5 -29.5q-93 0 -150.5 43z" />
    <glyph glyph-name="Agrave" unicode="&#xc0;" horiz-adv-x="720" 
d="M668 0h-180l-17 137h-254l-65 -137h-200l396 763h194zM419 564l-129 -272h162zM523 814h-121l-129 145h162z" />
    <glyph glyph-name="Aacute" unicode="&#xc1;" horiz-adv-x="720" 
d="M668 0h-180l-17 137h-254l-65 -137h-200l396 763h194zM419 564l-129 -272h162zM506 814h-121l140 145h162z" />
    <glyph glyph-name="Acircumflex" unicode="&#xc2;" horiz-adv-x="720" 
d="M668 0h-180l-17 137h-254l-65 -137h-200l396 763h194zM419 564l-129 -272h162zM409 814h-131l200 178h14l138 -178h-131l-33 63z" />
    <glyph glyph-name="Atilde" unicode="&#xc3;" horiz-adv-x="720" 
d="M668 0h-180l-17 137h-254l-65 -137h-200l396 763h194zM419 564l-129 -272h162zM463.5 809.5q-19.5 12.5 -39.5 34.5q-11 12 -17 17t-14 5q-24 0 -40 -68h-89q17 76 57.5 120.5t94.5 44.5q30 0 49.5 -13t38.5 -34q8 -9 16 -15.5t15 -6.5q11 0 21 16.5t17 48.5h92
q-20 -83 -55 -122.5t-93 -39.5q-34 0 -53.5 12.5z" />
    <glyph glyph-name="Adieresis" unicode="&#xc4;" horiz-adv-x="720" 
d="M668 0h-180l-17 137h-254l-65 -137h-200l396 763h194zM419 564l-129 -272h162zM282.5 820.5q-22.5 18.5 -22.5 50.5q0 46 33.5 75t78.5 29q36 0 58.5 -19t22.5 -52q0 -44 -33 -73t-79 -29q-36 0 -58.5 18.5zM501.5 820.5q-22.5 18.5 -22.5 50.5q0 46 33.5 75t78.5 29
q36 0 58.5 -19t22.5 -52q0 -44 -33 -73t-79 -29q-36 0 -58.5 18.5z" />
    <glyph glyph-name="Aring" unicode="&#xc5;" horiz-adv-x="720" 
d="M334 736q-15 24 -15 56q0 41 22.5 77.5t59 58t76.5 21.5q49 0 80.5 -31.5t31.5 -78.5q0 -29 -11.5 -55.5t-30.5 -47.5l121 -736h-190l-17 137h-254l-65 -137h-190zM487 784q17 18 17 45q0 16 -10.5 26t-30.5 10q-26 0 -42.5 -17t-16.5 -40q0 -19 11 -30.5t30 -11.5
q25 0 42 18zM409 563l-128 -271h160z" />
    <glyph glyph-name="AE" unicode="&#xc6;" horiz-adv-x="1028" 
d="M152 0h-200l396 763h501l27 -160h-306l23 -142h307l26 -159h-306l23 -142h307l26 -160h-488l-17 137h-254zM419 563l-128 -271h160z" />
    <glyph glyph-name="Ccedilla" unicode="&#xc7;" horiz-adv-x="779" 
d="M594 505q2 56 -32 85t-94 29q-72 0 -126 -43t-82 -113t-28 -149q0 -81 38.5 -126t113.5 -45q60 0 104 29t63 87h196q-38 -127 -138 -201t-247 -75l-25 -15l4 -9q7 1 19 1q36 0 56.5 -13.5t20.5 -42.5q0 -54 -44.5 -83t-110.5 -29q-48 0 -93 15l11 61q49 -20 83 -20
q24 0 38 11t14 31q0 25 -31.5 34t-85.5 9l61 57q-119 21 -178.5 102.5t-59.5 199.5q0 135 58.5 246.5t163.5 176t237 64.5q147 0 222 -74t68 -200h-196z" />
    <glyph glyph-name="Egrave" unicode="&#xc8;" 
d="M531 0h-521l135 763h521l-29 -160h-342l-25 -142h309l-28 -159h-309l-25 -142h342zM484 814h-121l-129 145h162z" />
    <glyph glyph-name="Eacute" unicode="&#xc9;" 
d="M531 0h-521l135 763h521l-29 -160h-342l-25 -142h309l-28 -159h-309l-25 -142h342zM467 814h-121l140 145h162z" />
    <glyph glyph-name="Ecircumflex" unicode="&#xca;" 
d="M531 0h-521l135 763h521l-29 -160h-342l-25 -142h309l-28 -159h-309l-25 -142h342zM370 814h-131l200 178h14l138 -178h-131l-33 63z" />
    <glyph glyph-name="Edieresis" unicode="&#xcb;" 
d="M531 0h-521l135 763h521l-29 -160h-342l-25 -142h309l-28 -159h-309l-25 -142h342zM243.5 820.5q-22.5 18.5 -22.5 50.5q0 46 33.5 75t78.5 29q36 0 58.5 -19t22.5 -52q0 -44 -33 -73t-79 -29q-36 0 -58.5 18.5zM462.5 820.5q-22.5 18.5 -22.5 50.5q0 46 33.5 75t78.5 29
q36 0 58.5 -19t22.5 -52q0 -44 -33 -73t-79 -29q-36 0 -58.5 18.5z" />
    <glyph glyph-name="Igrave" unicode="&#xcc;" horiz-adv-x="300" 
d="M189 0h-179l135 763h179zM313 814h-121l-129 145h162z" />
    <glyph glyph-name="Iacute" unicode="&#xcd;" horiz-adv-x="300" 
d="M189 0h-179l135 763h179zM296 814h-121l140 145h162z" />
    <glyph glyph-name="Icircumflex" unicode="&#xce;" horiz-adv-x="300" 
d="M189 0h-179l135 763h179zM199 814h-131l200 178h14l138 -178h-131l-33 63z" />
    <glyph glyph-name="Idieresis" unicode="&#xcf;" horiz-adv-x="300" 
d="M189 0h-179l135 763h179zM72.5 820.5q-22.5 18.5 -22.5 50.5q0 46 33.5 75t78.5 29q36 0 58.5 -19t22.5 -52q0 -44 -33 -73t-79 -29q-36 0 -58.5 18.5zM291.5 820.5q-22.5 18.5 -22.5 50.5q0 46 33.5 75t78.5 29q36 0 58.5 -19t22.5 -52q0 -44 -33 -73t-79 -29
q-36 0 -58.5 18.5z" />
    <glyph glyph-name="Eth" unicode="&#xd0;" horiz-adv-x="726" 
d="M376 763q169 0 257 -74t88 -214q0 -143 -59 -250.5t-167.5 -166t-253.5 -58.5h-231l57 321h-60l22 121h59l57 321h231zM267 160q129 0 200 74.5t71 201.5q0 82 -50.5 124.5t-142.5 42.5h-50l-28 -161h183l-22 -121h-183l-28 -161h50z" />
    <glyph glyph-name="Ntilde" unicode="&#xd1;" horiz-adv-x="774" 
d="M189 0h-179l135 763h182l211 -463l82 463h179l-135 -763h-182l-211 466zM490.5 809.5q-19.5 12.5 -39.5 34.5q-11 12 -17 17t-14 5q-24 0 -40 -68h-89q17 76 57.5 120.5t94.5 44.5q30 0 49.5 -13t38.5 -34q8 -9 16 -15.5t15 -6.5q11 0 21 16.5t17 48.5h92
q-20 -83 -55 -122.5t-93 -39.5q-34 0 -53.5 12.5z" />
    <glyph glyph-name="Ograve" unicode="&#xd2;" horiz-adv-x="826" 
d="M180.5 23q-71.5 40 -105.5 109.5t-34 159.5q0 135 58.5 246.5t163.5 176t237 64.5q107 0 178 -39.5t105.5 -108.5t34.5 -158q0 -136 -58.5 -248t-163 -177t-236.5 -65q-108 0 -179.5 40zM515 186q54 43 83 113t29 149q0 80 -40.5 125.5t-114.5 45.5q-73 0 -127.5 -42.5
t-83.5 -112t-29 -147.5q0 -81 40.5 -127.5t115.5 -46.5q73 0 127 43zM575 814h-121l-129 145h162z" />
    <glyph glyph-name="Oacute" unicode="&#xd3;" horiz-adv-x="826" 
d="M180.5 23q-71.5 40 -105.5 109.5t-34 159.5q0 135 58.5 246.5t163.5 176t237 64.5q107 0 178 -39.5t105.5 -108.5t34.5 -158q0 -136 -58.5 -248t-163 -177t-236.5 -65q-108 0 -179.5 40zM515 186q54 43 83 113t29 149q0 80 -40.5 125.5t-114.5 45.5q-73 0 -127.5 -42.5
t-83.5 -112t-29 -147.5q0 -81 40.5 -127.5t115.5 -46.5q73 0 127 43zM558 814h-121l140 145h162z" />
    <glyph glyph-name="Ocircumflex" unicode="&#xd4;" horiz-adv-x="826" 
d="M180.5 23q-71.5 40 -105.5 109.5t-34 159.5q0 135 58.5 246.5t163.5 176t237 64.5q107 0 178 -39.5t105.5 -108.5t34.5 -158q0 -136 -58.5 -248t-163 -177t-236.5 -65q-108 0 -179.5 40zM515 186q54 43 83 113t29 149q0 80 -40.5 125.5t-114.5 45.5q-73 0 -127.5 -42.5
t-83.5 -112t-29 -147.5q0 -81 40.5 -127.5t115.5 -46.5q73 0 127 43zM461 814h-131l200 178h14l138 -178h-131l-33 63z" />
    <glyph glyph-name="Otilde" unicode="&#xd5;" horiz-adv-x="826" 
d="M180.5 23q-71.5 40 -105.5 109.5t-34 159.5q0 135 58.5 246.5t163.5 176t237 64.5q107 0 178 -39.5t105.5 -108.5t34.5 -158q0 -136 -58.5 -248t-163 -177t-236.5 -65q-108 0 -179.5 40zM515 186q54 43 83 113t29 149q0 80 -40.5 125.5t-114.5 45.5q-73 0 -127.5 -42.5
t-83.5 -112t-29 -147.5q0 -81 40.5 -127.5t115.5 -46.5q73 0 127 43zM515.5 809.5q-19.5 12.5 -39.5 34.5q-11 12 -17 17t-14 5q-24 0 -40 -68h-89q17 76 57.5 120.5t94.5 44.5q30 0 49.5 -13t38.5 -34q8 -9 16 -15.5t15 -6.5q11 0 21 16.5t17 48.5h92q-20 -83 -55 -122.5
t-93 -39.5q-34 0 -53.5 12.5z" />
    <glyph glyph-name="Odieresis" unicode="&#xd6;" horiz-adv-x="826" 
d="M180.5 23q-71.5 40 -105.5 109.5t-34 159.5q0 135 58.5 246.5t163.5 176t237 64.5q107 0 178 -39.5t105.5 -108.5t34.5 -158q0 -136 -58.5 -248t-163 -177t-236.5 -65q-108 0 -179.5 40zM515 186q54 43 83 113t29 149q0 80 -40.5 125.5t-114.5 45.5q-73 0 -127.5 -42.5
t-83.5 -112t-29 -147.5q0 -81 40.5 -127.5t115.5 -46.5q73 0 127 43zM334.5 820.5q-22.5 18.5 -22.5 50.5q0 46 33.5 75t78.5 29q36 0 58.5 -19t22.5 -52q0 -44 -33 -73t-79 -29q-36 0 -58.5 18.5zM553.5 820.5q-22.5 18.5 -22.5 50.5q0 46 33.5 75t78.5 29q36 0 58.5 -19
t22.5 -52q0 -44 -33 -73t-79 -29q-36 0 -58.5 18.5z" />
    <glyph glyph-name="multiply" unicode="&#xd7;" horiz-adv-x="567" 
d="M278 252l-183 -157l-72 87l184 157l-128 155l100 86l129 -156l183 156l72 -87l-184 -156l129 -156l-100 -86z" />
    <glyph glyph-name="Oslash" unicode="&#xd8;" horiz-adv-x="826" 
d="M853 684l-67 -57q32 -65 32 -154q0 -136 -58.5 -248t-163 -177t-236.5 -65q-152 0 -236 82l-61 -52l-58 67l68 58q-32 65 -32 154q0 135 58.5 246.5t163.5 176t237 64.5q151 0 234 -81l62 53zM235 275l352 299q-40 45 -115 45q-73 0 -127.5 -42.5t-83.5 -112t-29 -147.5
q0 -22 3 -42zM624 489l-352 -299q41 -47 116 -47q73 0 127 43t83 113t29 149q0 22 -3 41z" />
    <glyph glyph-name="Ugrave" unicode="&#xd9;" horiz-adv-x="754" 
d="M112 43q-67 60 -67 167q0 39 7 75l85 478h180l-85 -478q-4 -28 -4 -41q0 -48 28 -74.5t96 -26.5q81 0 119.5 38t49.5 104l85 478h180l-85 -478q-25 -140 -117 -221t-260 -81q-145 0 -212 60zM540 814h-121l-129 145h162z" />
    <glyph glyph-name="Uacute" unicode="&#xda;" horiz-adv-x="754" 
d="M112 43q-67 60 -67 167q0 39 7 75l85 478h180l-85 -478q-4 -28 -4 -41q0 -48 28 -74.5t96 -26.5q81 0 119.5 38t49.5 104l85 478h180l-85 -478q-25 -140 -117 -221t-260 -81q-145 0 -212 60zM523 814h-121l140 145h162z" />
    <glyph glyph-name="Ucircumflex" unicode="&#xdb;" horiz-adv-x="754" 
d="M112 43q-67 60 -67 167q0 39 7 75l85 478h180l-85 -478q-4 -28 -4 -41q0 -48 28 -74.5t96 -26.5q81 0 119.5 38t49.5 104l85 478h180l-85 -478q-25 -140 -117 -221t-260 -81q-145 0 -212 60zM426 814h-131l200 178h14l138 -178h-131l-33 63z" />
    <glyph glyph-name="Udieresis" unicode="&#xdc;" horiz-adv-x="754" 
d="M112 43q-67 60 -67 167q0 39 7 75l85 478h180l-85 -478q-4 -28 -4 -41q0 -48 28 -74.5t96 -26.5q81 0 119.5 38t49.5 104l85 478h180l-85 -478q-25 -140 -117 -221t-260 -81q-145 0 -212 60zM299.5 820.5q-22.5 18.5 -22.5 50.5q0 46 33.5 75t78.5 29q36 0 58.5 -19
t22.5 -52q0 -44 -33 -73t-79 -29q-36 0 -58.5 18.5zM518.5 820.5q-22.5 18.5 -22.5 50.5q0 46 33.5 75t78.5 29q36 0 58.5 -19t22.5 -52q0 -44 -33 -73t-79 -29q-36 0 -58.5 18.5z" />
    <glyph glyph-name="Yacute" unicode="&#xdd;" horiz-adv-x="718" 
d="M403 0h-188l53 303l-191 460h194l107 -287l209 287h224l-355 -460zM503 814h-121l140 145h162z" />
    <glyph glyph-name="Thorn" unicode="&#xde;" horiz-adv-x="672" 
d="M10 0l135 763h178l-18 -100h181q97 0 151.5 -41.5t54.5 -128.5q0 -82 -37 -148t-102.5 -103.5t-147.5 -37.5h-181l-36 -204h-178zM412 360q46 0 72 24t26 64q0 27 -18.5 40.5t-53.5 13.5h-161l-26 -142h161z" />
    <glyph glyph-name="germandbls" unicode="&#xdf;" horiz-adv-x="698" 
d="M102 472q27 150 117 226.5t233 76.5q71 0 124.5 -21.5t83 -60.5t29.5 -89q0 -67 -36.5 -117t-102.5 -73q60 -17 89 -52t29 -90q0 -80 -45 -142t-119.5 -96t-161.5 -34h-71l26 150h61q65 0 103.5 27.5t38.5 78.5q0 64 -104 64h-69l24 136h37q59 0 92.5 27t33.5 75
q0 32 -23 49.5t-64 17.5q-61 0 -102 -37.5t-53 -105.5l-85 -482h-168z" />
    <glyph glyph-name="agrave" unicode="&#xe0;" horiz-adv-x="601" 
d="M52 23q-44 35 -44 100q0 98 63 148t177 70l152 26q1 6 1 18q0 31 -13 48q-14 20 -53 20q-31 0 -58 -20t-39 -55h-167q32 100 112.5 150.5t174.5 50.5q52 0 95.5 -14t70.5 -42q23 -23 32.5 -52t9.5 -66q0 -43 -17 -136l-47 -269h-168l12 69q-18 -32 -49 -51
q-48 -30 -130 -30q-71 0 -115 35zM302 129q35 15 52.5 42.5t27.5 76.5l-107 -20q-46 -8 -71 -24.5t-25 -47.5q0 -21 16.5 -31t42.5 -10q30 0 64 14zM435 618h-121l-129 145h162z" />
    <glyph glyph-name="aacute" unicode="&#xe1;" horiz-adv-x="601" 
d="M52 23q-44 35 -44 100q0 98 63 148t177 70l152 26q1 6 1 18q0 31 -13 48q-14 20 -53 20q-31 0 -58 -20t-39 -55h-167q32 100 112.5 150.5t174.5 50.5q52 0 95.5 -14t70.5 -42q23 -23 32.5 -52t9.5 -66q0 -43 -17 -136l-47 -269h-168l12 69q-18 -32 -49 -51
q-48 -30 -130 -30q-71 0 -115 35zM302 129q35 15 52.5 42.5t27.5 76.5l-107 -20q-46 -8 -71 -24.5t-25 -47.5q0 -21 16.5 -31t42.5 -10q30 0 64 14zM418 618h-121l140 145h162z" />
    <glyph glyph-name="acircumflex" unicode="&#xe2;" horiz-adv-x="601" 
d="M52 23q-44 35 -44 100q0 98 63 148t177 70l152 26q1 6 1 18q0 31 -13 48q-14 20 -53 20q-31 0 -58 -20t-39 -55h-167q32 100 112.5 150.5t174.5 50.5q52 0 95.5 -14t70.5 -42q23 -23 32.5 -52t9.5 -66q0 -43 -17 -136l-47 -269h-168l12 69q-18 -32 -49 -51
q-48 -30 -130 -30q-71 0 -115 35zM302 129q35 15 52.5 42.5t27.5 76.5l-107 -20q-46 -8 -71 -24.5t-25 -47.5q0 -21 16.5 -31t42.5 -10q30 0 64 14zM321 618h-131l200 178h14l138 -178h-131l-33 63z" />
    <glyph glyph-name="atilde" unicode="&#xe3;" horiz-adv-x="601" 
d="M52 23q-44 35 -44 100q0 98 63 148t177 70l152 26q1 6 1 18q0 31 -13 48q-14 20 -53 20q-31 0 -58 -20t-39 -55h-167q32 100 112.5 150.5t174.5 50.5q52 0 95.5 -14t70.5 -42q23 -23 32.5 -52t9.5 -66q0 -43 -17 -136l-47 -269h-168l12 69q-18 -32 -49 -51
q-48 -30 -130 -30q-71 0 -115 35zM302 129q35 15 52.5 42.5t27.5 76.5l-107 -20q-46 -8 -71 -24.5t-25 -47.5q0 -21 16.5 -31t42.5 -10q30 0 64 14zM375.5 613.5q-19.5 12.5 -39.5 34.5q-11 12 -17 17t-14 5q-24 0 -40 -68h-89q17 76 57.5 120.5t94.5 44.5q30 0 49.5 -13
t38.5 -34q8 -9 16 -15.5t15 -6.5q11 0 21 16.5t17 48.5h92q-20 -83 -55 -122.5t-93 -39.5q-34 0 -53.5 12.5z" />
    <glyph glyph-name="adieresis" unicode="&#xe4;" horiz-adv-x="601" 
d="M52 23q-44 35 -44 100q0 98 63 148t177 70l152 26q1 6 1 18q0 31 -13 48q-14 20 -53 20q-31 0 -58 -20t-39 -55h-167q32 100 112.5 150.5t174.5 50.5q52 0 95.5 -14t70.5 -42q23 -23 32.5 -52t9.5 -66q0 -43 -17 -136l-47 -269h-168l12 69q-18 -32 -49 -51
q-48 -30 -130 -30q-71 0 -115 35zM302 129q35 15 52.5 42.5t27.5 76.5l-107 -20q-46 -8 -71 -24.5t-25 -47.5q0 -21 16.5 -31t42.5 -10q30 0 64 14zM195.5 625q-22.5 19 -22.5 51q0 45 33 74t78 29q36 0 58.5 -19t22.5 -52q0 -46 -33 -74t-78 -28q-36 0 -58.5 19zM414.5 625
q-22.5 19 -22.5 51q0 45 33 74t78 29q36 0 58.5 -19t22.5 -52q0 -46 -33 -74t-78 -28q-36 0 -58.5 19z" />
    <glyph glyph-name="aring" unicode="&#xe5;" horiz-adv-x="601" 
d="M556.5 471q9.5 -29 9.5 -66q0 -43 -17 -136l-47 -269h-168l12 69q-18 -32 -49 -51q-48 -30 -130 -30q-71 0 -115 35t-44 100q0 98 63 148t177 70l152 26q1 6 1 18q0 31 -13 48q-14 20 -53 20q-31 0 -58 -20t-39 -55h-167q28 87 93 136.5t147 61.5q-31 13 -48.5 40.5
t-17.5 62.5q0 41 22.5 76.5t59.5 57t77 21.5q49 0 80 -31t31 -79q0 -49 -30.5 -90.5t-77.5 -57.5q77 -11 117 -53q23 -23 32.5 -52zM347 732.5q-16 -17.5 -16 -41.5q0 -18 11.5 -29t29.5 -11q25 0 42 18.5t17 42.5q0 17 -11 27.5t-31 10.5q-26 0 -42 -17.5zM354.5 171.5
q17.5 27.5 27.5 76.5l-107 -20q-46 -8 -71 -24.5t-25 -47.5q0 -21 16.5 -31t42.5 -10q30 0 64 14q35 15 52.5 42.5z" />
    <glyph glyph-name="ae" unicode="&#xe6;" horiz-adv-x="1005" 
d="M559 248v-6q0 -53 27.5 -81.5t80.5 -28.5q36 0 66 18t47 46h169q-43 -92 -123 -150t-193 -58q-71 0 -125 25t-85 70q-49 -57 -109.5 -76t-126.5 -19q-85 0 -132 34.5t-47 100.5q0 98 63 148t177 70l152 26q1 6 1 18q0 31 -13 48q-14 20 -53 20q-31 0 -58 -20t-39 -55
h-167q32 100 112.5 150.5t174.5 50.5q52 0 95.5 -14t70.5 -42l8 -8q90 64 200 64q107 0 177 -56.5t70 -172.5q0 -31 -12 -102h-408zM585 367h233q-2 32 -18 51q-27 33 -84 33t-96 -33q-26 -21 -35 -51zM354.5 171.5q17.5 27.5 27.5 76.5l-107 -20q-46 -8 -71 -24.5
t-25 -47.5q0 -21 16.5 -31t42.5 -10q30 0 64 14q35 15 52.5 42.5z" />
    <glyph glyph-name="ccedilla" unicode="&#xe7;" horiz-adv-x="633" 
d="M366 140.5q26 18.5 42 55.5h183q-36 -92 -114.5 -146.5t-178.5 -60.5q-4 -3 -33 -21l4 -9q7 1 19 1q36 0 56.5 -13.5t20.5 -42.5q0 -54 -44.5 -83t-110.5 -29q-48 0 -93 15l11 61q49 -20 83 -20q24 0 38 11t14 31q0 25 -31.5 34t-85.5 9l65 61q-87 16 -135.5 75.5
t-48.5 151.5q0 100 45.5 181.5t126 129t180.5 47.5q107 0 172 -54t71 -147h-184q-5 35 -25 51.5t-57 16.5q-49 0 -84 -30t-53 -78t-18 -101q0 -55 25.5 -85t72.5 -30q41 0 67 18.5z" />
    <glyph glyph-name="egrave" unicode="&#xe8;" horiz-adv-x="648" 
d="M141.5 17q-56.5 29 -86 82t-29.5 122q0 96 46 178.5t126.5 131t176.5 48.5q107 0 177 -56.5t70 -172.5q0 -31 -12 -102h-408v-6q0 -53 27.5 -81.5t80.5 -28.5q36 0 66 18t47 46h169q-43 -92 -123 -150t-193 -58q-78 0 -134.5 29zM461 367q-2 32 -18 51q-28 33 -84 33
q-57 0 -96 -33q-26 -21 -35 -51h233zM453 618h-121l-129 145h162z" />
    <glyph glyph-name="eacute" unicode="&#xe9;" horiz-adv-x="648" 
d="M141.5 17q-56.5 29 -86 82t-29.5 122q0 96 46 178.5t126.5 131t176.5 48.5q107 0 177 -56.5t70 -172.5q0 -31 -12 -102h-408v-6q0 -53 27.5 -81.5t80.5 -28.5q36 0 66 18t47 46h169q-43 -92 -123 -150t-193 -58q-78 0 -134.5 29zM461 367q-2 32 -18 51q-28 33 -84 33
q-57 0 -96 -33q-26 -21 -35 -51h233zM436 618h-121l140 145h162z" />
    <glyph glyph-name="ecircumflex" unicode="&#xea;" horiz-adv-x="648" 
d="M141.5 17q-56.5 29 -86 82t-29.5 122q0 96 46 178.5t126.5 131t176.5 48.5q107 0 177 -56.5t70 -172.5q0 -31 -12 -102h-408v-6q0 -53 27.5 -81.5t80.5 -28.5q36 0 66 18t47 46h169q-43 -92 -123 -150t-193 -58q-78 0 -134.5 29zM461 367q-2 32 -18 51q-28 33 -84 33
q-57 0 -96 -33q-26 -21 -35 -51h233zM339 618h-131l200 178h14l138 -178h-131l-33 63z" />
    <glyph glyph-name="edieresis" unicode="&#xeb;" horiz-adv-x="648" 
d="M141.5 17q-56.5 29 -86 82t-29.5 122q0 96 46 178.5t126.5 131t176.5 48.5q107 0 177 -56.5t70 -172.5q0 -31 -12 -102h-408v-6q0 -53 27.5 -81.5t80.5 -28.5q36 0 66 18t47 46h169q-43 -92 -123 -150t-193 -58q-78 0 -134.5 29zM461 367q-2 32 -18 51q-28 33 -84 33
q-57 0 -96 -33q-26 -21 -35 -51h233zM213.5 625q-22.5 19 -22.5 51q0 45 33 74t78 29q36 0 58.5 -19t22.5 -52q0 -46 -33 -74t-78 -28q-36 0 -58.5 19zM432.5 625q-22.5 19 -22.5 51q0 45 33 74t78 29q36 0 58.5 -19t22.5 -52q0 -46 -33 -74t-78 -28q-36 0 -58.5 19z" />
    <glyph glyph-name="igrave" unicode="&#xec;" horiz-adv-x="278" 
d="M173 0h-168l100 567h168zM267 618h-121l-129 145h162z" />
    <glyph glyph-name="iacute" unicode="&#xed;" horiz-adv-x="278" 
d="M173 0h-168l100 567h168zM250 618h-121l140 145h162z" />
    <glyph glyph-name="icircumflex" unicode="&#xee;" horiz-adv-x="278" 
d="M173 0h-168l100 567h168zM153 618h-131l200 178h14l138 -178h-131l-33 63z" />
    <glyph glyph-name="idieresis" unicode="&#xef;" horiz-adv-x="278" 
d="M173 0h-168l100 567h168zM27.5 625q-22.5 19 -22.5 51q0 45 33 74t78 29q36 0 58.5 -19t22.5 -52q0 -46 -33 -74t-78 -28q-36 0 -58.5 19zM246.5 625q-22.5 19 -22.5 51q0 45 33 74t78 29q36 0 58.5 -19t22.5 -52q0 -46 -33 -74t-78 -28q-36 0 -58.5 19z" />
    <glyph glyph-name="eth" unicode="&#xf0;" horiz-adv-x="620" 
d="M114.5 10q-52.5 27 -81 76t-28.5 115q0 86 37.5 157t105 112t153.5 41q43 0 83 -15t67 -50q5 25 5 43q0 67 -47 111l-104 -55l-22 55l59 30q-16 4 -46 4q-43 0 -82 -12l-45 133q76 24 162 24q115 0 184 -57l80 41l22 -55l-59 -31q51 -74 51 -193q0 -133 -43.5 -247.5
t-128 -184t-201.5 -69.5q-69 0 -121.5 27zM337 158.5q33 20.5 52.5 53t19.5 68.5q0 42 -28 69.5t-73 27.5q-36 0 -68.5 -19.5t-52 -51.5t-19.5 -69q0 -44 27.5 -71.5t70.5 -27.5q38 0 71 20.5z" />
    <glyph glyph-name="ntilde" unicode="&#xf1;" 
d="M5 0l100 567h168l-11 -61q34 41 72 57t86 16q173 0 173 -151q0 -22 -4 -50.5t-10 -60.5l-56 -317h-168l56 319q6 36 6 58q0 36 -16.5 51.5t-53.5 15.5q-55 0 -80.5 -29.5t-37.5 -95.5l-56 -319h-168zM380.5 613.5q-19.5 12.5 -39.5 34.5q-11 12 -17 17t-14 5
q-24 0 -40 -68h-89q17 76 57.5 120.5t94.5 44.5q30 0 49.5 -13t38.5 -34q8 -9 16 -15.5t15 -6.5q11 0 21 16.5t17 48.5h92q-20 -83 -55 -122.5t-93 -39.5q-34 0 -53.5 12.5z" />
    <glyph glyph-name="ograve" unicode="&#xf2;" horiz-adv-x="660" 
d="M94.5 51q-67.5 63 -67.5 171q0 99 46 181t127.5 129t181.5 47q78 0 134.5 -28.5t87 -81.5t30.5 -123q0 -98 -46.5 -180t-128 -130t-181.5 -48q-116 0 -183.5 63zM384 160q35 28 54 72.5t19 92.5q0 51 -26 81t-74 30q-46 0 -81.5 -27t-54.5 -71t-19 -93q0 -53 27 -83
t74 -30q46 0 81 28zM458 618h-121l-129 145h162z" />
    <glyph glyph-name="oacute" unicode="&#xf3;" horiz-adv-x="660" 
d="M94.5 51q-67.5 63 -67.5 171q0 99 46 181t127.5 129t181.5 47q78 0 134.5 -28.5t87 -81.5t30.5 -123q0 -98 -46.5 -180t-128 -130t-181.5 -48q-116 0 -183.5 63zM384 160q35 28 54 72.5t19 92.5q0 51 -26 81t-74 30q-46 0 -81.5 -27t-54.5 -71t-19 -93q0 -53 27 -83
t74 -30q46 0 81 28zM441 618h-121l140 145h162z" />
    <glyph glyph-name="ocircumflex" unicode="&#xf4;" horiz-adv-x="660" 
d="M94.5 51q-67.5 63 -67.5 171q0 99 46 181t127.5 129t181.5 47q78 0 134.5 -28.5t87 -81.5t30.5 -123q0 -98 -46.5 -180t-128 -130t-181.5 -48q-116 0 -183.5 63zM384 160q35 28 54 72.5t19 92.5q0 51 -26 81t-74 30q-46 0 -81.5 -27t-54.5 -71t-19 -93q0 -53 27 -83
t74 -30q46 0 81 28zM344 618h-131l200 178h14l138 -178h-131l-33 63z" />
    <glyph glyph-name="otilde" unicode="&#xf5;" horiz-adv-x="660" 
d="M94.5 51q-67.5 63 -67.5 171q0 99 46 181t127.5 129t181.5 47q78 0 134.5 -28.5t87 -81.5t30.5 -123q0 -98 -46.5 -180t-128 -130t-181.5 -48q-116 0 -183.5 63zM384 160q35 28 54 72.5t19 92.5q0 51 -26 81t-74 30q-46 0 -81.5 -27t-54.5 -71t-19 -93q0 -53 27 -83
t74 -30q46 0 81 28zM398.5 613.5q-19.5 12.5 -39.5 34.5q-11 12 -17 17t-14 5q-24 0 -40 -68h-89q17 76 57.5 120.5t94.5 44.5q30 0 49.5 -13t38.5 -34q8 -9 16 -15.5t15 -6.5q11 0 21 16.5t17 48.5h92q-20 -83 -55 -122.5t-93 -39.5q-34 0 -53.5 12.5z" />
    <glyph glyph-name="odieresis" unicode="&#xf6;" horiz-adv-x="660" 
d="M94.5 51q-67.5 63 -67.5 171q0 99 46 181t127.5 129t181.5 47q78 0 134.5 -28.5t87 -81.5t30.5 -123q0 -98 -46.5 -180t-128 -130t-181.5 -48q-116 0 -183.5 63zM384 160q35 28 54 72.5t19 92.5q0 51 -26 81t-74 30q-46 0 -81.5 -27t-54.5 -71t-19 -93q0 -53 27 -83
t74 -30q46 0 81 28zM218.5 625q-22.5 19 -22.5 51q0 45 33 74t78 29q36 0 58.5 -19t22.5 -52q0 -46 -33 -74t-78 -28q-36 0 -58.5 19zM437.5 625q-22.5 19 -22.5 51q0 45 33 74t78 29q36 0 58.5 -19t22.5 -52q0 -46 -33 -74t-78 -28q-36 0 -58.5 19z" />
    <glyph glyph-name="divide" unicode="&#xf7;" horiz-adv-x="544" 
d="M387 438h-178l28 155h178zM518 279h-495l22 121h495zM324 77h-178l27 155h178z" />
    <glyph glyph-name="oslash" unicode="&#xf8;" horiz-adv-x="660" 
d="M680 523l-72 -61q26 -50 26 -116q0 -98 -46.5 -180t-128 -130t-181.5 -48q-102 0 -168 50l-72 -61l-58 67l73 62q-26 50 -26 116q0 99 46 181t127.5 129t181.5 47q103 0 169 -50l72 61zM202 233l217 184q-25 19 -62 19q-46 0 -81.5 -27t-54.5 -71t-19 -93v-12zM457 333
l-215 -183q24 -18 61 -18q46 0 81 28t54 72.5t19 92.5v8z" />
    <glyph glyph-name="ugrave" unicode="&#xf9;" 
d="M38 86q-7 22 -7 50q0 30 14 114l56 317h168l-56 -319q-6 -36 -6 -58q0 -30 11 -46q17 -21 59 -21q53 0 80 29q13 15 22 37.5t16 58.5l56 319h168l-100 -567h-168l11 61q-32 -38 -69.5 -55.5t-88.5 -17.5q-139 0 -166 98zM440 618h-121l-129 145h162z" />
    <glyph glyph-name="uacute" unicode="&#xfa;" 
d="M38 86q-7 22 -7 50q0 30 14 114l56 317h168l-56 -319q-6 -36 -6 -58q0 -30 11 -46q17 -21 59 -21q53 0 80 29q13 15 22 37.5t16 58.5l56 319h168l-100 -567h-168l11 61q-32 -38 -69.5 -55.5t-88.5 -17.5q-139 0 -166 98zM423 618h-121l140 145h162z" />
    <glyph glyph-name="ucircumflex" unicode="&#xfb;" 
d="M38 86q-7 22 -7 50q0 30 14 114l56 317h168l-56 -319q-6 -36 -6 -58q0 -30 11 -46q17 -21 59 -21q53 0 80 29q13 15 22 37.5t16 58.5l56 319h168l-100 -567h-168l11 61q-32 -38 -69.5 -55.5t-88.5 -17.5q-139 0 -166 98zM326 618h-131l200 178h14l138 -178h-131l-33 63z
" />
    <glyph glyph-name="udieresis" unicode="&#xfc;" 
d="M38 86q-7 22 -7 50q0 30 14 114l56 317h168l-56 -319q-6 -36 -6 -58q0 -30 11 -46q17 -21 59 -21q53 0 80 29q13 15 22 37.5t16 58.5l56 319h168l-100 -567h-168l11 61q-32 -38 -69.5 -55.5t-88.5 -17.5q-139 0 -166 98zM200.5 625q-22.5 19 -22.5 51q0 45 33 74t78 29
q36 0 58.5 -19t22.5 -52q0 -46 -33 -74t-78 -28q-36 0 -58.5 19zM419.5 625q-22.5 19 -22.5 51q0 45 33 74t78 29q36 0 58.5 -19t22.5 -52q0 -46 -33 -74t-78 -28q-36 0 -58.5 19z" />
    <glyph glyph-name="yacute" unicode="&#xfd;" horiz-adv-x="576" 
d="M-16 -196l25 137h68q23 0 40 8t32 31l8 12l-100 575h175l36 -402l163 402h186l-307 -603q-44 -87 -94.5 -123.5t-130.5 -36.5h-101zM393 618h-121l140 145h162z" />
    <glyph glyph-name="thorn" unicode="&#xfe;" horiz-adv-x="649" 
d="M-30 -196l170 959h168l-46 -257q34 41 72 57t86 16q93 0 147.5 -61.5t54.5 -163.5q0 -94 -40 -178.5t-110 -136t-156 -51.5q-48 0 -80 16t-52 57l-46 -257h-168zM374.5 158.5q35.5 27.5 55 71.5t19.5 92q0 52 -27 83t-74 31q-46 0 -81 -27.5t-54.5 -72t-19.5 -92.5
q0 -52 27 -82.5t74 -30.5q45 0 80.5 27.5z" />
    <glyph glyph-name="ydieresis" unicode="&#xff;" horiz-adv-x="576" 
d="M-16 -196l25 137h68q23 0 40 8t32 31l8 12l-100 575h175l36 -402l163 402h186l-307 -603q-44 -87 -94.5 -123.5t-130.5 -36.5h-101zM170.5 625q-22.5 19 -22.5 51q0 45 33 74t78 29q36 0 58.5 -19t22.5 -52q0 -46 -33 -74t-78 -28q-36 0 -58.5 19zM389.5 625
q-22.5 19 -22.5 51q0 45 33 74t78 29q36 0 58.5 -19t22.5 -52q0 -46 -33 -74t-78 -28q-36 0 -58.5 19z" />
    <glyph glyph-name="Amacron" unicode="&#x100;" horiz-adv-x="720" 
d="M668 0h-180l-17 137h-254l-65 -137h-200l396 763h194zM419 564l-129 -272h162zM605 815h-302l14 78h302z" />
    <glyph glyph-name="amacron" unicode="&#x101;" horiz-adv-x="601" 
d="M52 23q-44 35 -44 100q0 98 63 148t177 70l152 26q1 6 1 18q0 31 -13 48q-14 20 -53 20q-31 0 -58 -20t-39 -55h-167q32 100 112.5 150.5t174.5 50.5q52 0 95.5 -14t70.5 -42q23 -23 32.5 -52t9.5 -66q0 -43 -17 -136l-47 -269h-168l12 69q-18 -32 -49 -51
q-48 -30 -130 -30q-71 0 -115 35zM302 129q35 15 52.5 42.5t27.5 76.5l-107 -20q-46 -8 -71 -24.5t-25 -47.5q0 -21 16.5 -31t42.5 -10q30 0 64 14zM517 619h-302l14 78h302z" />
    <glyph glyph-name="Abreve" unicode="&#x102;" horiz-adv-x="720" 
d="M668 0h-180l-17 137h-254l-65 -137h-200l396 763h194zM419 564l-129 -272h162zM342.5 835q-35.5 33 -35.5 94q0 10 2 30h91q-1 -34 18 -51t50 -17q32 0 56 17.5t35 50.5h92q-17 -73 -68 -115t-131 -42q-74 0 -109.5 33z" />
    <glyph glyph-name="abreve" unicode="&#x103;" horiz-adv-x="601" 
d="M52 23q-44 35 -44 100q0 98 63 148t177 70l152 26q1 6 1 18q0 31 -13 48q-14 20 -53 20q-31 0 -58 -20t-39 -55h-167q32 100 112.5 150.5t174.5 50.5q52 0 95.5 -14t70.5 -42q23 -23 32.5 -52t9.5 -66q0 -43 -17 -136l-47 -269h-168l12 69q-18 -32 -49 -51
q-48 -30 -130 -30q-71 0 -115 35zM302 129q35 15 52.5 42.5t27.5 76.5l-107 -20q-46 -8 -71 -24.5t-25 -47.5q0 -21 16.5 -31t42.5 -10q30 0 64 14zM254.5 639q-35.5 33 -35.5 94q0 10 2 30h91q-1 -34 18 -51t50 -17q32 0 56 17.5t35 50.5h92q-17 -73 -68 -115t-131 -42
q-74 0 -109.5 33z" />
    <glyph glyph-name="Aogonek" unicode="&#x104;" horiz-adv-x="720" 
d="M668 0h-180l-17 137h-254l-65 -137h-200l396 763h194zM419 564l-129 -272h162zM441 -143q0 49 31.5 76.5t90.5 46.5l4 20h101q-63 -35 -82.5 -50.5t-19.5 -34.5q0 -11 7 -16t24 -5q24 0 55 14l-18 -103q-42 -13 -84 -13q-109 0 -109 65z" />
    <glyph glyph-name="aogonek" unicode="&#x105;" horiz-adv-x="601" 
d="M556.5 471q9.5 -29 9.5 -66q0 -43 -17 -136l-47 -269q-63 -35 -82.5 -50.5t-19.5 -34.5q0 -11 7 -16t24 -5q24 0 55 14l-18 -103q-42 -13 -84 -13q-109 0 -109 65q0 49 31.5 76.5t90.5 46.5l4 20h-67l12 69q-18 -32 -49 -51q-48 -30 -130 -30q-71 0 -115 35t-44 100
q0 98 63 148t177 70l152 26q1 6 1 18q0 31 -13 48q-14 20 -53 20q-31 0 -58 -20t-39 -55h-167q32 100 112.5 150.5t174.5 50.5q52 0 95.5 -14t70.5 -42q23 -23 32.5 -52zM354.5 171.5q17.5 27.5 27.5 76.5l-107 -20q-46 -8 -71 -24.5t-25 -47.5q0 -21 16.5 -31t42.5 -10
q30 0 64 14q35 15 52.5 42.5z" />
    <glyph glyph-name="Cacute" unicode="&#x106;" horiz-adv-x="779" 
d="M180.5 23q-71.5 40 -105.5 109.5t-34 159.5q0 135 58.5 246.5t163.5 176t237 64.5q147 0 222 -74t68 -200h-196q2 56 -32 85t-94 29q-72 0 -126 -43t-82 -113t-28 -149q0 -81 38.5 -126t113.5 -45q60 0 104 29t63 87h196q-38 -127 -139 -201.5t-248 -74.5
q-108 0 -179.5 40zM535 814h-121l140 145h162z" />
    <glyph glyph-name="cacute" unicode="&#x107;" horiz-adv-x="633" 
d="M93 50.5q-66 62.5 -66 170.5q0 100 45.5 181.5t126 129t180.5 47.5q107 0 172 -54t71 -147h-184q-5 35 -25 51.5t-57 16.5q-49 0 -84 -30t-53 -78t-18 -101q0 -55 25.5 -85t72.5 -30q41 0 67 18.5t42 55.5h183q-39 -97 -124 -152.5t-192 -55.5q-116 0 -182 62.5zM428 618
h-121l140 145h162z" />
    <glyph glyph-name="Cdotaccent" unicode="&#x10a;" horiz-adv-x="779" 
d="M180.5 23q-71.5 40 -105.5 109.5t-34 159.5q0 135 58.5 246.5t163.5 176t237 64.5q147 0 222 -74t68 -200h-196q2 56 -32 85t-94 29q-72 0 -126 -43t-82 -113t-28 -149q0 -81 38.5 -126t113.5 -45q60 0 104 29t63 87h196q-38 -127 -139 -201.5t-248 -74.5
q-108 0 -179.5 40zM421.5 820.5q-22.5 18.5 -22.5 50.5q0 46 33.5 75t78.5 29q36 0 58.5 -19t22.5 -52q0 -44 -33 -73t-79 -29q-36 0 -58.5 18.5z" />
    <glyph glyph-name="cdotaccent" unicode="&#x10b;" horiz-adv-x="633" 
d="M93 50.5q-66 62.5 -66 170.5q0 100 45.5 181.5t126 129t180.5 47.5q107 0 172 -54t71 -147h-184q-5 35 -25 51.5t-57 16.5q-49 0 -84 -30t-53 -78t-18 -101q0 -55 25.5 -85t72.5 -30q41 0 67 18.5t42 55.5h183q-39 -97 -124 -152.5t-192 -55.5q-116 0 -182 62.5z
M315.5 625q-22.5 19 -22.5 51q0 45 33 74t78 29q36 0 58.5 -19t22.5 -52q0 -46 -33 -74t-78 -28q-36 0 -58.5 19z" />
    <glyph glyph-name="Ccaron" unicode="&#x10c;" horiz-adv-x="779" 
d="M180.5 23q-71.5 40 -105.5 109.5t-34 159.5q0 135 58.5 246.5t163.5 176t237 64.5q147 0 222 -74t68 -200h-196q2 56 -32 85t-94 29q-72 0 -126 -43t-82 -113t-28 -149q0 -81 38.5 -126t113.5 -45q60 0 104 29t63 87h196q-38 -127 -139 -201.5t-248 -74.5
q-108 0 -179.5 40zM484 782h-14l-137 177h131l33 -63l57 63h131z" />
    <glyph glyph-name="ccaron" unicode="&#x10d;" horiz-adv-x="633" 
d="M93 50.5q-66 62.5 -66 170.5q0 100 45.5 181.5t126 129t180.5 47.5q107 0 172 -54t71 -147h-184q-5 35 -25 51.5t-57 16.5q-49 0 -84 -30t-53 -78t-18 -101q0 -55 25.5 -85t72.5 -30q41 0 67 18.5t42 55.5h183q-39 -97 -124 -152.5t-192 -55.5q-116 0 -182 62.5zM377 586
h-14l-137 177h131l33 -63l57 63h131z" />
    <glyph glyph-name="Dcaron" unicode="&#x10e;" horiz-adv-x="726" 
d="M10 0l135 763h231q169 0 257 -74t88 -214q0 -143 -59 -250.5t-167.5 -166t-253.5 -58.5h-231zM267 160q129 0 200 74.5t71 201.5q0 82 -50.5 124.5t-142.5 42.5h-50l-78 -443h50zM443 782h-14l-137 177h131l33 -63l57 63h131z" />
    <glyph glyph-name="dcaron" unicode="&#x10f;" horiz-adv-x="649" 
d="M82 49.5q-55 61.5 -55 163.5q0 94 40 178.5t110 136t156 51.5q48 0 80 -16t52 -57l46 257h168l-135 -763h-168l11 61q-34 -41 -72 -57t-86 -16q-92 0 -147 61.5zM382 158.5q35 27.5 54.5 72t19.5 92.5q0 52 -27 82.5t-74 30.5q-45 0 -80.5 -27.5t-55 -71.5t-19.5 -92
q0 -52 27 -83t74 -31q46 0 81 27.5zM727 515q49 0 82.5 17.5t47.5 51.5q6 15 8 27q-11 -13 -24.5 -18t-31.5 -5q-26 0 -44.5 19t-18.5 51q0 51 34.5 84t86.5 33q46 0 69 -27.5t23 -74.5q0 -22 -4 -42q-14 -81 -74 -139t-169 -63z" />
    <glyph glyph-name="Dcroat" unicode="&#x110;" horiz-adv-x="726" 
d="M376 763q169 0 257 -74t88 -214q0 -143 -59 -250.5t-167.5 -166t-253.5 -58.5h-231l57 321h-60l22 121h59l57 321h231zM267 160q129 0 200 74.5t71 201.5q0 82 -50.5 124.5t-142.5 42.5h-50l-28 -161h183l-22 -121h-183l-28 -161h50z" />
    <glyph glyph-name="Emacron" unicode="&#x112;" 
d="M531 0h-521l135 763h521l-29 -160h-342l-25 -142h309l-28 -159h-309l-25 -142h342zM566 815h-302l14 78h302z" />
    <glyph glyph-name="emacron" unicode="&#x113;" horiz-adv-x="648" 
d="M141.5 17q-56.5 29 -86 82t-29.5 122q0 96 46 178.5t126.5 131t176.5 48.5q107 0 177 -56.5t70 -172.5q0 -31 -12 -102h-408v-6q0 -53 27.5 -81.5t80.5 -28.5q36 0 66 18t47 46h169q-43 -92 -123 -150t-193 -58q-78 0 -134.5 29zM461 367q-2 32 -18 51q-28 33 -84 33
q-57 0 -96 -33q-26 -21 -35 -51h233zM535 619h-302l14 78h302z" />
    <glyph glyph-name="Edotaccent" unicode="&#x116;" 
d="M531 0h-521l135 763h521l-29 -160h-342l-25 -142h309l-28 -159h-309l-25 -142h342zM353.5 820.5q-22.5 18.5 -22.5 50.5q0 46 33.5 75t78.5 29q36 0 58.5 -19t22.5 -52q0 -44 -33 -73t-79 -29q-36 0 -58.5 18.5z" />
    <glyph glyph-name="edotaccent" unicode="&#x117;" horiz-adv-x="648" 
d="M141.5 17q-56.5 29 -86 82t-29.5 122q0 96 46 178.5t126.5 131t176.5 48.5q107 0 177 -56.5t70 -172.5q0 -31 -12 -102h-408v-6q0 -53 27.5 -81.5t80.5 -28.5q36 0 66 18t47 46h169q-43 -92 -123 -150t-193 -58q-78 0 -134.5 29zM461 367q-2 32 -18 51q-28 33 -84 33
q-57 0 -96 -33q-26 -21 -35 -51h233zM323.5 625q-22.5 19 -22.5 51q0 45 33 74t78 29q36 0 58.5 -19t22.5 -52q0 -46 -33 -74t-78 -28q-36 0 -58.5 19z" />
    <glyph glyph-name="Eogonek" unicode="&#x118;" 
d="M531 0h-521l135 763h521l-29 -160h-342l-25 -142h309l-28 -159h-309l-25 -142h342zM304 -143q0 49 31.5 76.5t90.5 46.5l4 20h101q-63 -35 -82.5 -50.5t-19.5 -34.5q0 -11 7 -16t24 -5q24 0 55 14l-18 -103q-42 -13 -84 -13q-109 0 -109 65z" />
    <glyph glyph-name="eogonek" unicode="&#x119;" horiz-adv-x="648" 
d="M202 248v-6q0 -53 27.5 -81.5t80.5 -28.5q36 0 66 18t47 46h169q-45 -98 -126 -152q-19 -14 -45 -25q-33 -19 -45 -31.5t-12 -28.5q0 -11 7 -16t24 -5q24 0 55 14l-18 -103q-42 -13 -84 -13q-109 0 -109 65q0 54 44 87h-7q-78 0 -134.5 29t-86 82t-29.5 122
q0 96 46 178.5t126.5 131t176.5 48.5q107 0 177 -56.5t70 -172.5q0 -31 -12 -102h-408zM228 367h233q-2 32 -18 51q-28 33 -84 33q-57 0 -96 -33q-26 -21 -35 -51z" />
    <glyph glyph-name="Ecaron" unicode="&#x11a;" 
d="M531 0h-521l135 763h521l-29 -160h-342l-25 -142h309l-28 -159h-309l-25 -142h342zM416 782h-14l-137 177h131l33 -63l57 63h131z" />
    <glyph glyph-name="ecaron" unicode="&#x11b;" horiz-adv-x="648" 
d="M141.5 17q-56.5 29 -86 82t-29.5 122q0 96 46 178.5t126.5 131t176.5 48.5q107 0 177 -56.5t70 -172.5q0 -31 -12 -102h-408v-6q0 -53 27.5 -81.5t80.5 -28.5q36 0 66 18t47 46h169q-43 -92 -123 -150t-193 -58q-78 0 -134.5 29zM461 367q-2 32 -18 51q-28 33 -84 33
q-57 0 -96 -33q-26 -21 -35 -51h233zM385 586h-14l-137 177h131l33 -63l57 63h131z" />
    <glyph glyph-name="Gbreve" unicode="&#x11e;" horiz-adv-x="827" 
d="M179.5 23q-71.5 40 -105.5 109.5t-34 159.5q0 135 58.5 246.5t163.5 176t237 64.5q158 0 238 -73.5t77 -200.5h-196q-7 114 -147 114q-72 0 -126.5 -42.5t-84 -111.5t-29.5 -147q0 -83 44.5 -129t131.5 -46q159 0 192 139h-159l25 144h338l-75 -426h-163l13 71
q-80 -88 -219 -88q-108 0 -179.5 40zM396.5 835q-35.5 33 -35.5 94q0 10 2 30h91q-1 -34 18 -51t50 -17q32 0 56 17.5t35 50.5h92q-17 -73 -68 -115t-131 -42q-74 0 -109.5 33z" />
    <glyph glyph-name="gbreve" unicode="&#x11f;" horiz-adv-x="650" 
d="M-1 -20h168q7 -35 28.5 -49t60.5 -14q54 0 84.5 25t37.5 63l13 76q-34 -41 -72 -57t-86 -16q-61 0 -107 28t-70.5 78t-24.5 115q0 89 40 170t109.5 130.5t153.5 49.5q48 0 80 -16t52 -57l11 61h168l-92 -519q-25 -140 -108.5 -198t-209.5 -58q-236 0 -236 188zM384 176
q35 25 54.5 65t19.5 84q0 50 -27.5 80.5t-74.5 30.5q-43 0 -78 -25t-54.5 -65.5t-19.5 -84.5q0 -49 27 -79.5t75 -30.5q43 0 78 25zM272.5 639q-35.5 33 -35.5 94q0 10 2 30h91q-1 -34 18 -51t50 -17q32 0 56 17.5t35 50.5h92q-17 -73 -68 -115t-131 -42q-74 0 -109.5 33z
" />
    <glyph glyph-name="Gdotaccent" unicode="&#x120;" horiz-adv-x="827" 
d="M179.5 23q-71.5 40 -105.5 109.5t-34 159.5q0 135 58.5 246.5t163.5 176t237 64.5q158 0 238 -73.5t77 -200.5h-196q-7 114 -147 114q-72 0 -126.5 -42.5t-84 -111.5t-29.5 -147q0 -83 44.5 -129t131.5 -46q159 0 192 139h-159l25 144h338l-75 -426h-163l13 71
q-80 -88 -219 -88q-108 0 -179.5 40zM446.5 820.5q-22.5 18.5 -22.5 50.5q0 46 33.5 75t78.5 29q36 0 58.5 -19t22.5 -52q0 -44 -33 -73t-79 -29q-36 0 -58.5 18.5z" />
    <glyph glyph-name="gdotaccent" unicode="&#x121;" horiz-adv-x="650" 
d="M-1 -20h168q7 -35 28.5 -49t60.5 -14q54 0 84.5 25t37.5 63l13 76q-34 -41 -72 -57t-86 -16q-61 0 -107 28t-70.5 78t-24.5 115q0 89 40 170t109.5 130.5t153.5 49.5q48 0 80 -16t52 -57l11 61h168l-92 -519q-25 -140 -108.5 -198t-209.5 -58q-236 0 -236 188zM384 176
q35 25 54.5 65t19.5 84q0 50 -27.5 80.5t-74.5 30.5q-43 0 -78 -25t-54.5 -65.5t-19.5 -84.5q0 -49 27 -79.5t75 -30.5q43 0 78 25zM323.5 625q-22.5 19 -22.5 51q0 45 33 74t78 29q36 0 58.5 -19t22.5 -52q0 -46 -33 -74t-78 -28q-36 0 -58.5 19z" />
    <glyph glyph-name="uni0122" unicode="&#x122;" horiz-adv-x="827" 
d="M179.5 23q-71.5 40 -105.5 109.5t-34 159.5q0 135 58.5 246.5t163.5 176t237 64.5q158 0 238 -73.5t77 -200.5h-196q-7 114 -147 114q-72 0 -126.5 -42.5t-84 -111.5t-29.5 -147q0 -83 44.5 -129t131.5 -46q159 0 192 139h-159l25 144h338l-75 -426h-163l13 71
q-80 -88 -219 -88q-108 0 -179.5 40zM281 -159q26 0 44.5 7t26.5 21q4 5 6 15h-8q-12 -15 -35 -15q-17 0 -26.5 8t-9.5 25q0 29 21 47t54 18q30 0 45.5 -15.5t15.5 -40.5q0 -52 -38.5 -79.5t-102.5 -27.5z" />
    <glyph glyph-name="uni0123" unicode="&#x123;" horiz-adv-x="650" 
d="M-1 -20h168q7 -35 28.5 -49t60.5 -14q54 0 84.5 25t37.5 63l13 76q-34 -41 -72 -57t-86 -16q-61 0 -107 28t-70.5 78t-24.5 115q0 89 40 170t109.5 130.5t153.5 49.5q48 0 80 -16t52 -57l11 61h168l-92 -519q-25 -140 -108.5 -198t-209.5 -58q-236 0 -236 188zM384 176
q35 25 54.5 65t19.5 84q0 50 -27.5 80.5t-74.5 30.5q-43 0 -78 -25t-54.5 -65.5t-19.5 -84.5q0 -49 27 -79.5t75 -30.5q43 0 78 25zM337 612q-19 21 -19 56q0 41 20 79t64 63.5t111 28.5l-11 -62q-82 0 -104 -49q-4 -12 -5 -20q16 17 44 17q22 0 37 -14t15 -38
q0 -36 -27.5 -59t-67.5 -23q-38 0 -57 21z" />
    <glyph glyph-name="Imacron" unicode="&#x12a;" horiz-adv-x="300" 
d="M189 0h-179l135 763h179zM395 815h-302l14 78h302z" />
    <glyph glyph-name="imacron" unicode="&#x12b;" horiz-adv-x="278" 
d="M173 0h-168l100 567h168zM349 619h-302l14 78h302z" />
    <glyph glyph-name="Iogonek" unicode="&#x12e;" horiz-adv-x="300" 
d="M189 0h-179l135 763h179zM-38 -143q0 49 31.5 76.5t90.5 46.5l4 20h101q-63 -35 -82.5 -50.5t-19.5 -34.5q0 -11 7 -16t24 -5q24 0 55 14l-18 -103q-42 -13 -84 -13q-109 0 -109 65z" />
    <glyph glyph-name="iogonek" unicode="&#x12f;" horiz-adv-x="278" 
d="M173 0h-168l100 567h168zM137.5 625q-22.5 19 -22.5 51q0 45 33 74t78 29q36 0 58.5 -19t22.5 -52q0 -46 -33 -74t-78 -28q-36 0 -58.5 19zM-54 -143q0 49 31.5 76.5t90.5 46.5l4 20h101q-63 -35 -82.5 -50.5t-19.5 -34.5q0 -11 7 -16t24 -5q24 0 55 14l-18 -103
q-42 -13 -84 -13q-109 0 -109 65z" />
    <glyph glyph-name="Idotaccent" unicode="&#x130;" horiz-adv-x="300" 
d="M189 0h-179l135 763h179zM182.5 820.5q-22.5 18.5 -22.5 50.5q0 46 33.5 75t78.5 29q36 0 58.5 -19t22.5 -52q0 -44 -33 -73t-79 -29q-36 0 -58.5 18.5z" />
    <glyph glyph-name="dotlessi" unicode="&#x131;" horiz-adv-x="278" 
d="M173 0h-168l100 567h168z" />
    <glyph glyph-name="uni0136" unicode="&#x136;" horiz-adv-x="695" 
d="M189 0h-179l135 763h179l-56 -318l293 318h215l-346 -370l215 -393h-217l-177 355zM215 -159q26 0 44.5 7t26.5 21q4 5 6 15h-8q-12 -15 -35 -15q-17 0 -26.5 8t-9.5 25q0 29 21 47t54 18q30 0 45.5 -15.5t15.5 -40.5q0 -52 -38.5 -79.5t-102.5 -27.5z" />
    <glyph glyph-name="uni0137" unicode="&#x137;" 
d="M173 0h-168l135 763h168l-70 -395l215 199h216l-288 -259l187 -308h-195l-152 272zM175 -159q26 0 44.5 7t26.5 21q4 5 6 15h-8q-12 -15 -35 -15q-17 0 -26.5 8t-9.5 25q0 29 21 47t54 18q30 0 45.5 -15.5t15.5 -40.5q0 -52 -38.5 -79.5t-102.5 -27.5z" />
    <glyph glyph-name="kgreenlandic" unicode="&#x138;" 
d="M173 0h-168l100 567h168l-35 -199l215 199h216l-288 -259l187 -308h-195l-152 272z" />
    <glyph glyph-name="Lacute" unicode="&#x139;" horiz-adv-x="558" 
d="M500 0h-490l135 763h179l-107 -603h311zM296 814h-121l140 145h162z" />
    <glyph glyph-name="lacute" unicode="&#x13a;" horiz-adv-x="318" 
d="M132 0q-55 0 -83.5 22.5t-28.5 65.5q0 16 2 25l115 650h168l-105 -592q-1 -3 -1 -9q0 -26 28 -26h42l-24 -136h-113zM282 814h-121l140 145h162z" />
    <glyph glyph-name="uni013B" unicode="&#x13b;" horiz-adv-x="558" 
d="M500 0h-490l135 763h179l-107 -603h311zM172 -159q26 0 44.5 7t26.5 21q4 5 6 15h-8q-12 -15 -35 -15q-17 0 -26.5 8t-9.5 25q0 29 21 47t54 18q30 0 45.5 -15.5t15.5 -40.5q0 -52 -38.5 -79.5t-102.5 -27.5z" />
    <glyph glyph-name="uni013C" unicode="&#x13c;" horiz-adv-x="318" 
d="M132 0q-55 0 -83.5 22.5t-28.5 65.5q0 16 2 25l115 650h168l-105 -592q-1 -3 -1 -9q0 -26 28 -26h42l-24 -136h-113zM20 -159q26 0 44.5 7t26.5 21q4 5 6 15h-8q-12 -15 -35 -15q-17 0 -26.5 8t-9.5 25q0 29 21 47t54 18q30 0 45.5 -15.5t15.5 -40.5q0 -52 -38.5 -79.5
t-102.5 -27.5z" />
    <glyph glyph-name="Lcaron" unicode="&#x13d;" horiz-adv-x="558" 
d="M500 0h-490l135 763h179l-107 -603h311zM396 515q49 0 82.5 17.5t47.5 51.5q6 15 8 27q-11 -13 -24.5 -18t-31.5 -5q-26 0 -44.5 19t-18.5 51q0 51 34.5 84t86.5 33q46 0 69 -27.5t23 -74.5q0 -22 -4 -42q-14 -81 -74 -139t-169 -63z" />
    <glyph glyph-name="lcaron" unicode="&#x13e;" horiz-adv-x="318" 
d="M132 0q-55 0 -83.5 22.5t-28.5 65.5q0 16 2 25l115 650h168l-105 -592q-1 -3 -1 -9q0 -26 28 -26h42l-24 -136h-113zM341 515q49 0 82.5 17.5t47.5 51.5q6 15 8 27q-11 -13 -24.5 -18t-31.5 -5q-26 0 -44.5 19t-18.5 51q0 51 34.5 84t86.5 33q46 0 69 -27.5t23 -74.5
q0 -22 -4 -42q-14 -81 -74 -139t-169 -63z" />
    <glyph glyph-name="Lslash" unicode="&#x141;" horiz-adv-x="595" 
d="M545 0h-490l49 279l-80 -36l24 138l81 38l61 344h179l-45 -252l154 73l-24 -138l-154 -73l-38 -213h311z" />
    <glyph glyph-name="lslash" unicode="&#x142;" horiz-adv-x="318" 
d="M249 447l-49 -276q-1 -3 -1 -9q0 -26 28 -26h42l-24 -136h-113q-55 0 -83.5 22.5t-28.5 65.5q0 16 2 25l44 247l-37 -17l20 112l37 17l51 291h168l-36 -203l51 24l-19 -112z" />
    <glyph glyph-name="Nacute" unicode="&#x143;" horiz-adv-x="774" 
d="M189 0h-179l135 763h182l211 -463l82 463h179l-135 -763h-182l-211 466zM533 814h-121l140 145h162z" />
    <glyph glyph-name="nacute" unicode="&#x144;" 
d="M5 0l100 567h168l-11 -61q34 41 72 57t86 16q173 0 173 -151q0 -22 -4 -50.5t-10 -60.5l-56 -317h-168l56 319q6 36 6 58q0 36 -16.5 51.5t-53.5 15.5q-55 0 -80.5 -29.5t-37.5 -95.5l-56 -319h-168zM423 618h-121l140 145h162z" />
    <glyph glyph-name="uni0145" unicode="&#x145;" horiz-adv-x="774" 
d="M189 0h-179l135 763h182l211 -463l82 463h179l-135 -763h-182l-211 466zM254 -159q26 0 44.5 7t26.5 21q4 5 6 15h-8q-12 -15 -35 -15q-17 0 -26.5 8t-9.5 25q0 29 21 47t54 18q30 0 45.5 -15.5t15.5 -40.5q0 -52 -38.5 -79.5t-102.5 -27.5z" />
    <glyph glyph-name="uni0146" unicode="&#x146;" 
d="M5 0l100 567h168l-11 -61q34 41 72 57t86 16q173 0 173 -151q0 -22 -4 -50.5t-10 -60.5l-56 -317h-168l56 319q6 36 6 58q0 36 -16.5 51.5t-53.5 15.5q-55 0 -80.5 -29.5t-37.5 -95.5l-56 -319h-168zM179 -159q26 0 44.5 7t26.5 21q4 5 6 15h-8q-12 -15 -35 -15
q-17 0 -26.5 8t-9.5 25q0 29 21 47t54 18q30 0 45.5 -15.5t15.5 -40.5q0 -52 -38.5 -79.5t-102.5 -27.5z" />
    <glyph glyph-name="Ncaron" unicode="&#x147;" horiz-adv-x="774" 
d="M189 0h-179l135 763h182l211 -463l82 463h179l-135 -763h-182l-211 466zM482 782h-14l-137 177h131l33 -63l57 63h131z" />
    <glyph glyph-name="ncaron" unicode="&#x148;" 
d="M5 0l100 567h168l-11 -61q34 41 72 57t86 16q173 0 173 -151q0 -22 -4 -50.5t-10 -60.5l-56 -317h-168l56 319q6 36 6 58q0 36 -16.5 51.5t-53.5 15.5q-55 0 -80.5 -29.5t-37.5 -95.5l-56 -319h-168zM372 586h-14l-137 177h131l33 -63l57 63h131z" />
    <glyph glyph-name="Omacron" unicode="&#x14c;" horiz-adv-x="826" 
d="M180.5 23q-71.5 40 -105.5 109.5t-34 159.5q0 135 58.5 246.5t163.5 176t237 64.5q107 0 178 -39.5t105.5 -108.5t34.5 -158q0 -136 -58.5 -248t-163 -177t-236.5 -65q-108 0 -179.5 40zM515 186q54 43 83 113t29 149q0 80 -40.5 125.5t-114.5 45.5q-73 0 -127.5 -42.5
t-83.5 -112t-29 -147.5q0 -81 40.5 -127.5t115.5 -46.5q73 0 127 43zM657 815h-302l14 78h302z" />
    <glyph glyph-name="omacron" unicode="&#x14d;" horiz-adv-x="660" 
d="M94.5 51q-67.5 63 -67.5 171q0 99 46 181t127.5 129t181.5 47q78 0 134.5 -28.5t87 -81.5t30.5 -123q0 -98 -46.5 -180t-128 -130t-181.5 -48q-116 0 -183.5 63zM384 160q35 28 54 72.5t19 92.5q0 51 -26 81t-74 30q-46 0 -81.5 -27t-54.5 -71t-19 -93q0 -53 27 -83
t74 -30q46 0 81 28zM540 619h-302l14 78h302z" />
    <glyph glyph-name="Ohungarumlaut" unicode="&#x150;" horiz-adv-x="826" 
d="M180.5 23q-71.5 40 -105.5 109.5t-34 159.5q0 135 58.5 246.5t163.5 176t237 64.5q107 0 178 -39.5t105.5 -108.5t34.5 -158q0 -136 -58.5 -248t-163 -177t-236.5 -65q-108 0 -179.5 40zM515 186q54 43 83 113t29 149q0 80 -40.5 125.5t-114.5 45.5q-73 0 -127.5 -42.5
t-83.5 -112t-29 -147.5q0 -81 40.5 -127.5t115.5 -46.5q73 0 127 43zM461 814h-121l143 145h141zM671 814h-121l143 145h153z" />
    <glyph glyph-name="ohungarumlaut" unicode="&#x151;" horiz-adv-x="660" 
d="M94.5 51q-67.5 63 -67.5 171q0 99 46 181t127.5 129t181.5 47q78 0 134.5 -28.5t87 -81.5t30.5 -123q0 -98 -46.5 -180t-128 -130t-181.5 -48q-116 0 -183.5 63zM384 160q35 28 54 72.5t19 92.5q0 51 -26 81t-74 30q-46 0 -81.5 -27t-54.5 -71t-19 -93q0 -53 27 -83
t74 -30q46 0 81 28zM344 618h-121l143 145h141zM554 618h-121l143 145h153z" />
    <glyph glyph-name="OE" unicode="&#x152;" horiz-adv-x="1172" 
d="M174.5 23q-67.5 40 -100.5 109.5t-33 158.5q0 132 57 244t158 178t227 66q66 0 118.5 -23.5t79.5 -60.5l12 68h521l-29 -160h-342l-25 -142h309l-28 -159h-309l-25 -142h342l-28 -160h-521l12 66q-41 -40 -100 -61.5t-127 -21.5q-101 0 -168.5 40zM515 186q54 43 83 113
t29 149q0 80 -40.5 125.5t-114.5 45.5q-73 0 -127.5 -42.5t-83.5 -112t-29 -147.5q0 -81 40.5 -127.5t115.5 -46.5q73 0 127 43z" />
    <glyph glyph-name="oe" unicode="&#x153;" horiz-adv-x="1073" 
d="M977 522.5q70 -56.5 70 -172.5q0 -37 -7 -73l-5 -29h-408q-1 -21 3.5 -40.5t12.5 -32.5q27 -43 92 -43q36 0 66 18t47 46h169q-43 -92 -123 -150t-193 -58q-64 0 -114.5 20.5t-82.5 58.5q-46 -38 -104 -58.5t-122 -20.5q-116 0 -183.5 63t-67.5 171q0 99 46 181
t127.5 129t181.5 47q65 0 115.5 -20.5t83.5 -57.5q45 37 101 57.5t118 20.5q107 0 177 -56.5zM886 367q-2 32 -18 51q-27 33 -84 33t-96 -33q-26 -21 -35 -51h233zM384 160q35 28 54 72.5t19 92.5q0 51 -26 81t-74 30q-46 0 -81.5 -27t-54.5 -71t-19 -93q0 -53 27 -83
t74 -30q46 0 81 28z" />
    <glyph glyph-name="Racute" unicode="&#x154;" horiz-adv-x="708" 
d="M670 433.5q-40 -70.5 -110 -106.5l74 -327h-180l-67 294h-146l-52 -294h-179l135 763h360q96 0 150.5 -41.5t54.5 -129.5t-40 -158.5zM295 603l-27 -154h146q51 0 83 26.5t32 69.5q0 28 -20 43t-58 15h-156zM488 814h-121l140 145h162z" />
    <glyph glyph-name="racute" unicode="&#x155;" horiz-adv-x="410" 
d="M5 0l100 567h168l-11 -61q34 41 72 57t86 16h25l-28 -160h-32q-65 0 -101 -30q-26 -21 -42.5 -56.5t-26.5 -93.5l-42 -239h-168zM297 618h-121l140 145h162z" />
    <glyph glyph-name="uni0156" unicode="&#x156;" horiz-adv-x="708" 
d="M670 433.5q-40 -70.5 -110 -106.5l74 -327h-180l-67 294h-146l-52 -294h-179l135 763h360q96 0 150.5 -41.5t54.5 -129.5t-40 -158.5zM295 603l-27 -154h146q51 0 83 26.5t32 69.5q0 28 -20 43t-58 15h-156zM234 -159q26 0 44.5 7t26.5 21q4 5 6 15h-8q-12 -15 -35 -15
q-17 0 -26.5 8t-9.5 25q0 29 21 47t54 18q30 0 45.5 -15.5t15.5 -40.5q0 -52 -38.5 -79.5t-102.5 -27.5z" />
    <glyph glyph-name="uni0157" unicode="&#x157;" horiz-adv-x="410" 
d="M5 0l100 567h168l-11 -61q34 41 72 57t86 16h25l-28 -160h-32q-65 0 -101 -30q-26 -21 -42.5 -56.5t-26.5 -93.5l-42 -239h-168zM6 -159q26 0 44.5 7t26.5 21q4 5 6 15h-8q-12 -15 -35 -15q-17 0 -26.5 8t-9.5 25q0 29 21 47t54 18q30 0 45.5 -15.5t15.5 -40.5
q0 -52 -38.5 -79.5t-102.5 -27.5z" />
    <glyph glyph-name="Rcaron" unicode="&#x158;" horiz-adv-x="708" 
d="M670 433.5q-40 -70.5 -110 -106.5l74 -327h-180l-67 294h-146l-52 -294h-179l135 763h360q96 0 150.5 -41.5t54.5 -129.5t-40 -158.5zM295 603l-27 -154h146q51 0 83 26.5t32 69.5q0 28 -20 43t-58 15h-156zM437 782h-14l-137 177h131l33 -63l57 63h131z" />
    <glyph glyph-name="rcaron" unicode="&#x159;" horiz-adv-x="410" 
d="M5 0l100 567h168l-11 -61q34 41 72 57t86 16h25l-28 -160h-32q-65 0 -101 -30q-26 -21 -42.5 -56.5t-26.5 -93.5l-42 -239h-168zM246 586h-14l-137 177h131l33 -63l57 63h131z" />
    <glyph glyph-name="Sacute" unicode="&#x15a;" horiz-adv-x="712" 
d="M105.5 51q-78.5 68 -78.5 208h185q10 -126 141 -126q56 0 95.5 26.5t39.5 69.5q0 34 -37 51.5t-113 34.5q-75 17 -125 35t-85 55.5t-35 99.5q0 83 44 145t119 95.5t165 33.5q82 0 145.5 -28.5t100 -85.5t36.5 -140h-185q-5 49 -38 76.5t-89 27.5q-46 0 -80 -20t-34 -58
q0 -32 36 -48.5t110 -33.5q75 -17 126.5 -36t87.5 -58.5t36 -103.5q0 -87 -45.5 -152.5t-124.5 -100.5t-175 -35q-144 0 -222.5 68zM502 814h-121l140 145h162z" />
    <glyph glyph-name="sacute" unicode="&#x15b;" horiz-adv-x="588" 
d="M83.5 35q-69.5 47 -69.5 161h163q6 -41 34 -61t67 -20q37 0 63.5 16t26.5 42q0 22 -26 33t-81 22q-57 11 -96 24.5t-66.5 42.5t-27.5 78q0 65 35 111.5t94 70.5t132 24q105 0 165 -52t60 -148h-159q-5 38 -29.5 56t-59.5 18q-33 0 -54.5 -13.5t-21.5 -35.5t26.5 -33
t82.5 -21q60 -11 99.5 -23.5t67.5 -41t28 -77.5q0 -66 -37.5 -116t-101.5 -77t-140 -27q-105 0 -174.5 47zM404 618h-121l140 145h162z" />
    <glyph glyph-name="Scedilla" unicode="&#x15e;" horiz-adv-x="712" 
d="M549.5 433q51.5 -19 87.5 -58.5t36 -103.5q0 -87 -45.5 -152.5t-124 -100.5t-174.5 -35l-25 -15l4 -9q7 1 19 1q36 0 56.5 -13.5t20.5 -42.5q0 -54 -44.5 -83t-110.5 -29q-48 0 -93 15l11 61q49 -20 83 -20q24 0 38 11t14 31q0 25 -31.5 34t-85.5 9l61 56
q-105 18 -162 85t-57 185h185q10 -126 141 -126q56 0 95.5 26.5t39.5 69.5q0 34 -37 51.5t-113 34.5q-75 17 -125 35t-85 55.5t-35 99.5q0 83 44 145t119 95.5t165 33.5q82 0 145.5 -28.5t100 -85.5t36.5 -140h-185q-5 49 -38 76.5t-89 27.5q-46 0 -80 -20t-34 -58
q0 -32 36 -48.5t110 -33.5q75 -17 126.5 -36z" />
    <glyph glyph-name="scedilla" unicode="&#x15f;" horiz-adv-x="588" 
d="M441.5 326.5q39.5 -12.5 67.5 -41t28 -77.5q0 -64 -35 -112.5t-95 -76.5t-133 -31q-17 -12 -33 -20l4 -9q7 1 19 1q36 0 56.5 -13.5t20.5 -42.5q0 -54 -44.5 -83t-110.5 -29q-48 0 -93 15l11 61q49 -20 83 -20q24 0 38 11t14 31q0 25 -31.5 34t-85.5 9l65 61
q-78 13 -125.5 60.5t-47.5 141.5h163q6 -41 34 -61t67 -20q37 0 63.5 16t26.5 42q0 22 -26 33t-81 22q-57 11 -96 24.5t-66.5 42.5t-27.5 78q0 65 35 111.5t94 70.5t132 24q105 0 165 -52t60 -148h-159q-5 38 -29.5 56t-59.5 18q-33 0 -54.5 -13.5t-21.5 -35.5t26.5 -33
t82.5 -21q60 -11 99.5 -23.5z" />
    <glyph glyph-name="Scaron" unicode="&#x160;" horiz-adv-x="712" 
d="M105.5 51q-78.5 68 -78.5 208h185q10 -126 141 -126q56 0 95.5 26.5t39.5 69.5q0 34 -37 51.5t-113 34.5q-75 17 -125 35t-85 55.5t-35 99.5q0 83 44 145t119 95.5t165 33.5q82 0 145.5 -28.5t100 -85.5t36.5 -140h-185q-5 49 -38 76.5t-89 27.5q-46 0 -80 -20t-34 -58
q0 -32 36 -48.5t110 -33.5q75 -17 126.5 -36t87.5 -58.5t36 -103.5q0 -87 -45.5 -152.5t-124.5 -100.5t-175 -35q-144 0 -222.5 68zM451 782h-14l-137 177h131l33 -63l57 63h131z" />
    <glyph glyph-name="scaron" unicode="&#x161;" horiz-adv-x="588" 
d="M83.5 35q-69.5 47 -69.5 161h163q6 -41 34 -61t67 -20q37 0 63.5 16t26.5 42q0 22 -26 33t-81 22q-57 11 -96 24.5t-66.5 42.5t-27.5 78q0 65 35 111.5t94 70.5t132 24q105 0 165 -52t60 -148h-159q-5 38 -29.5 56t-59.5 18q-33 0 -54.5 -13.5t-21.5 -35.5t26.5 -33
t82.5 -21q60 -11 99.5 -23.5t67.5 -41t28 -77.5q0 -66 -37.5 -116t-101.5 -77t-140 -27q-105 0 -174.5 47zM353 586h-14l-137 177h131l33 -63l57 63h131z" />
    <glyph glyph-name="uni0162" unicode="&#x162;" horiz-adv-x="625" 
d="M93 763h609l-29 -160h-215l-106 -603h-42q-22 -17 -49 -32l4 -9q7 1 19 1q36 0 56.5 -13.5t20.5 -42.5q0 -54 -44.5 -83t-110.5 -29q-48 0 -93 15l11 61q49 -20 83 -20q24 0 38 11t14 31q0 25 -31.5 34t-85.5 9l72 67h-41l106 603h-215z" />
    <glyph glyph-name="uni0163" unicode="&#x163;" horiz-adv-x="398" 
d="M294 436l-47 -266q-1 -3 -1 -10q0 -24 29 -24h63l-24 -136h-90q-22 -17 -49 -32l4 -9q7 1 19 1q36 0 56.5 -13.5t20.5 -42.5q0 -54 -44.5 -83t-110.5 -29q-48 0 -93 15l11 61q49 -20 83 -20q24 0 38 11t14 31q0 25 -31.5 34t-85.5 9l78 72q-33 8 -50 29.5t-17 53.5
q0 16 2 25l57 323h-78l23 131h78l35 196h168l-35 -196h98l-23 -131h-98z" />
    <glyph glyph-name="Tcaron" unicode="&#x164;" horiz-adv-x="625" 
d="M352 0h-179l106 603h-215l29 160h609l-29 -160h-215zM408 782h-14l-137 177h131l33 -63l57 63h131z" />
    <glyph glyph-name="tcaron" unicode="&#x165;" horiz-adv-x="398" 
d="M180 0q-55 0 -84 23t-29 65q0 16 2 25l57 323h-78l23 131h78l35 196h168l-35 -196h98l-23 -131h-98l-47 -266q-1 -3 -1 -10q0 -24 29 -24h63l-24 -136h-134zM399 704q49 0 82.5 17.5t47.5 51.5q6 15 8 27q-11 -13 -24.5 -18t-31.5 -5q-26 0 -44.5 19t-18.5 51
q0 51 34.5 84t86.5 33q46 0 69 -27.5t23 -74.5q0 -22 -4 -42q-14 -81 -74 -139t-169 -63z" />
    <glyph glyph-name="Umacron" unicode="&#x16a;" horiz-adv-x="754" 
d="M112 43q-67 60 -67 167q0 39 7 75l85 478h180l-85 -478q-4 -28 -4 -41q0 -48 28 -74.5t96 -26.5q81 0 119.5 38t49.5 104l85 478h180l-85 -478q-25 -140 -117 -221t-260 -81q-145 0 -212 60zM622 815h-302l14 78h302z" />
    <glyph glyph-name="umacron" unicode="&#x16b;" 
d="M38 86q-7 22 -7 50q0 30 14 114l56 317h168l-56 -319q-6 -36 -6 -58q0 -30 11 -46q17 -21 59 -21q53 0 80 29q13 15 22 37.5t16 58.5l56 319h168l-100 -567h-168l11 61q-32 -38 -69.5 -55.5t-88.5 -17.5q-139 0 -166 98zM522 619h-302l14 78h302z" />
    <glyph glyph-name="Uring" unicode="&#x16e;" horiz-adv-x="754" 
d="M112 43q-67 60 -67 167q0 39 7 75l85 478h180l-85 -478q-4 -28 -4 -41q0 -48 28 -74.5t96 -26.5q81 0 119.5 38t49.5 104l85 478h180l-85 -478q-25 -140 -117 -221t-260 -81q-145 0 -212 60zM381 795q-31 32 -31 80q0 41 22.5 76.5t59.5 57t77 21.5q49 0 80 -31t31 -79
q0 -41 -22 -77.5t-58.5 -58t-77.5 -21.5q-50 0 -81 32zM519 865.5q17 18.5 17 42.5q0 17 -11 27.5t-31 10.5q-26 0 -42 -17.5t-16 -41.5q0 -18 11.5 -29t29.5 -11q25 0 42 18.5z" />
    <glyph glyph-name="uring" unicode="&#x16f;" 
d="M38 86q-7 22 -7 50q0 30 14 114l56 317h168l-56 -319q-6 -36 -6 -58q0 -30 11 -46q17 -21 59 -21q53 0 80 29q13 15 22 37.5t16 58.5l56 319h168l-100 -567h-168l11 61q-32 -38 -69.5 -55.5t-88.5 -17.5q-139 0 -166 98zM281 599q-31 32 -31 80q0 41 22.5 76.5t59.5 57
t77 21.5q49 0 80 -31t31 -79q0 -41 -22 -77.5t-58.5 -58t-77.5 -21.5q-50 0 -81 32zM419 669.5q17 18.5 17 42.5q0 17 -11 27.5t-31 10.5q-26 0 -42 -17.5t-16 -41.5q0 -18 11.5 -29t29.5 -11q25 0 42 18.5z" />
    <glyph glyph-name="Uhungarumlaut" unicode="&#x170;" horiz-adv-x="754" 
d="M112 43q-67 60 -67 167q0 39 7 75l85 478h180l-85 -478q-4 -28 -4 -41q0 -48 28 -74.5t96 -26.5q81 0 119.5 38t49.5 104l85 478h180l-85 -478q-25 -140 -117 -221t-260 -81q-145 0 -212 60zM426 814h-121l143 145h141zM636 814h-121l143 145h153z" />
    <glyph glyph-name="uhungarumlaut" unicode="&#x171;" 
d="M38 86q-7 22 -7 50q0 30 14 114l56 317h168l-56 -319q-6 -36 -6 -58q0 -30 11 -46q17 -21 59 -21q53 0 80 29q13 15 22 37.5t16 58.5l56 319h168l-100 -567h-168l11 61q-32 -38 -69.5 -55.5t-88.5 -17.5q-139 0 -166 98zM326 618h-121l143 145h141zM536 618h-121l143 145
h153z" />
    <glyph glyph-name="Uogonek" unicode="&#x172;" horiz-adv-x="754" 
d="M606 763h180l-85 -478q-21 -115 -87.5 -191.5t-183.5 -100.5q-53 -30 -71 -45t-18 -33q0 -11 7 -16t24 -5q24 0 55 14l-18 -103q-42 -13 -84 -13q-109 0 -109 65q0 49 31.5 76.5t90.5 46.5l1 3h-15q-145 0 -212 60t-67 167q0 39 7 75l85 478h180l-85 -478q-4 -28 -4 -41
q0 -48 28 -74.5t96 -26.5q81 0 119.5 38t49.5 104z" />
    <glyph glyph-name="uogonek" unicode="&#x173;" 
d="M519 0q-63 -35 -82.5 -50.5t-19.5 -34.5q0 -11 7 -16t24 -5q24 0 55 14l-18 -103q-42 -13 -84 -13q-109 0 -109 65q0 49 31.5 76.5t90.5 46.5l4 20h-67l11 61q-32 -38 -69.5 -55.5t-88.5 -17.5q-139 0 -166 98q-7 22 -7 50q0 30 14 114l56 317h168l-56 -319
q-6 -36 -6 -58q0 -30 11 -46q17 -21 59 -21q53 0 80 29q13 15 22 37.5t16 58.5l56 319h168z" />
    <glyph glyph-name="Wcircumflex" unicode="&#x174;" horiz-adv-x="1138" 
d="M413 0h-270l-47 763h183l24 -635l223 635h246l-2 -636l249 636h193l-317 -763h-270l3 616zM618 814h-131l200 178h14l138 -178h-131l-33 63z" />
    <glyph glyph-name="wcircumflex" unicode="&#x175;" horiz-adv-x="860" 
d="M296 0h-160l-77 567h174l25 -330l143 330h144l28 -328l144 328h183l-281 -567h-159l-20 341zM443 618h-131l200 178h14l138 -178h-131l-33 63z" />
    <glyph glyph-name="Ycircumflex" unicode="&#x176;" horiz-adv-x="718" 
d="M403 0h-188l53 303l-191 460h194l107 -287l209 287h224l-355 -460zM406 814h-131l200 178h14l138 -178h-131l-33 63z" />
    <glyph glyph-name="ycircumflex" unicode="&#x177;" horiz-adv-x="576" 
d="M-16 -196l25 137h68q23 0 40 8t32 31l8 12l-100 575h175l36 -402l163 402h186l-307 -603q-44 -87 -94.5 -123.5t-130.5 -36.5h-101zM296 618h-131l200 178h14l138 -178h-131l-33 63z" />
    <glyph glyph-name="Ydieresis" unicode="&#x178;" horiz-adv-x="718" 
d="M403 0h-188l53 303l-191 460h194l107 -287l209 287h224l-355 -460zM279.5 820.5q-22.5 18.5 -22.5 50.5q0 46 33.5 75t78.5 29q36 0 58.5 -19t22.5 -52q0 -44 -33 -73t-79 -29q-36 0 -58.5 18.5zM498.5 820.5q-22.5 18.5 -22.5 50.5q0 46 33.5 75t78.5 29q36 0 58.5 -19
t22.5 -52q0 -44 -33 -73t-79 -29q-36 0 -58.5 18.5z" />
    <glyph glyph-name="Zacute" unicode="&#x179;" 
d="M543 0h-567l21 121l409 482h-303l29 160h544l-23 -127l-402 -476h320zM460 814h-121l140 145h162z" />
    <glyph glyph-name="zacute" unicode="&#x17a;" horiz-adv-x="570" 
d="M486 0h-507l18 101l350 334h-275l23 132h491l-19 -109l-337 -326h279zM398 618h-121l140 145h162z" />
    <glyph glyph-name="Zdotaccent" unicode="&#x17b;" 
d="M543 0h-567l21 121l409 482h-303l29 160h544l-23 -127l-402 -476h320zM346.5 820.5q-22.5 18.5 -22.5 50.5q0 46 33.5 75t78.5 29q36 0 58.5 -19t22.5 -52q0 -44 -33 -73t-79 -29q-36 0 -58.5 18.5z" />
    <glyph glyph-name="zdotaccent" unicode="&#x17c;" horiz-adv-x="570" 
d="M486 0h-507l18 101l350 334h-275l23 132h491l-19 -109l-337 -326h279zM285.5 625q-22.5 19 -22.5 51q0 45 33 74t78 29q36 0 58.5 -19t22.5 -52q0 -46 -33 -74t-78 -28q-36 0 -58.5 19z" />
    <glyph glyph-name="Zcaron" unicode="&#x17d;" 
d="M543 0h-567l21 121l409 482h-303l29 160h544l-23 -127l-402 -476h320zM409 782h-14l-137 177h131l33 -63l57 63h131z" />
    <glyph glyph-name="zcaron" unicode="&#x17e;" horiz-adv-x="570" 
d="M486 0h-507l18 101l350 334h-275l23 132h491l-19 -109l-337 -326h279zM347 586h-14l-137 177h131l33 -63l57 63h131z" />
    <glyph glyph-name="florin" unicode="&#x192;" horiz-adv-x="445" 
d="M-30 -196l24 131h55q17 0 26 7.5t12 24.5l82 465h-88l24 135h88l11 61q11 66 56.5 100.5t120.5 34.5h99l-23 -130h-59q-33 0 -39 -32l-6 -34h92l-24 -135h-92l-87 -493q-11 -65 -56.5 -100t-121.5 -35h-94z" />
    <glyph glyph-name="AEacute" unicode="&#x1fc;" horiz-adv-x="1028" 
d="M152 0h-200l396 763h501l27 -160h-306l23 -142h307l26 -159h-306l23 -142h307l26 -160h-488l-17 137h-254zM419 563l-128 -271h160zM660 814h-121l140 145h162z" />
    <glyph glyph-name="aeacute" unicode="&#x1fd;" horiz-adv-x="1005" 
d="M559 248v-6q0 -53 27.5 -81.5t80.5 -28.5q36 0 66 18t47 46h169q-43 -92 -123 -150t-193 -58q-71 0 -125 25t-85 70q-49 -57 -109.5 -76t-126.5 -19q-85 0 -132 34.5t-47 100.5q0 98 63 148t177 70l152 26q1 6 1 18q0 31 -13 48q-14 20 -53 20q-31 0 -58 -20t-39 -55
h-167q32 100 112.5 150.5t174.5 50.5q52 0 95.5 -14t70.5 -42l8 -8q90 64 200 64q107 0 177 -56.5t70 -172.5q0 -31 -12 -102h-408zM585 367h233q-2 32 -18 51q-27 33 -84 33t-96 -33q-26 -21 -35 -51zM354.5 171.5q17.5 27.5 27.5 76.5l-107 -20q-46 -8 -71 -24.5
t-25 -47.5q0 -21 16.5 -31t42.5 -10q30 0 64 14q35 15 52.5 42.5zM614 618h-121l140 145h162z" />
    <glyph glyph-name="Oslashacute" unicode="&#x1fe;" horiz-adv-x="826" 
d="M853 684l-67 -57q32 -65 32 -154q0 -136 -58.5 -248t-163 -177t-236.5 -65q-152 0 -236 82l-61 -52l-58 67l68 58q-32 65 -32 154q0 135 58.5 246.5t163.5 176t237 64.5q151 0 234 -81l62 53zM235 275l352 299q-40 45 -115 45q-73 0 -127.5 -42.5t-83.5 -112t-29 -147.5
q0 -22 3 -42zM624 489l-352 -299q41 -47 116 -47q73 0 127 43t83 113t29 149q0 22 -3 41zM558 814h-121l140 145h162z" />
    <glyph glyph-name="oslashacute" unicode="&#x1ff;" horiz-adv-x="660" 
d="M680 523l-72 -61q26 -50 26 -116q0 -98 -46.5 -180t-128 -130t-181.5 -48q-102 0 -168 50l-72 -61l-58 67l73 62q-26 50 -26 116q0 99 46 181t127.5 129t181.5 47q103 0 169 -50l72 61zM202 233l217 184q-25 19 -62 19q-46 0 -81.5 -27t-54.5 -71t-19 -93v-12zM457 333
l-215 -183q24 -18 61 -18q46 0 81 28t54 72.5t19 92.5v8zM441 618h-121l140 145h162z" />
    <glyph glyph-name="uni0218" unicode="&#x218;" horiz-adv-x="712" 
d="M105.5 51q-78.5 68 -78.5 208h185q10 -126 141 -126q56 0 95.5 26.5t39.5 69.5q0 34 -37 51.5t-113 34.5q-75 17 -125 35t-85 55.5t-35 99.5q0 83 44 145t119 95.5t165 33.5q82 0 145.5 -28.5t100 -85.5t36.5 -140h-185q-5 49 -38 76.5t-89 27.5q-46 0 -80 -20t-34 -58
q0 -32 36 -48.5t110 -33.5q75 -17 126.5 -36t87.5 -58.5t36 -103.5q0 -87 -45.5 -152.5t-124.5 -100.5t-175 -35q-144 0 -222.5 68zM223 -159q26 0 44.5 7t26.5 21q4 5 6 15h-8q-12 -15 -35 -15q-17 0 -26.5 8t-9.5 25q0 29 21 47t54 18q30 0 45.5 -15.5t15.5 -40.5
q0 -52 -38.5 -79.5t-102.5 -27.5z" />
    <glyph glyph-name="uni0219" unicode="&#x219;" horiz-adv-x="588" 
d="M83.5 35q-69.5 47 -69.5 161h163q6 -41 34 -61t67 -20q37 0 63.5 16t26.5 42q0 22 -26 33t-81 22q-57 11 -96 24.5t-66.5 42.5t-27.5 78q0 65 35 111.5t94 70.5t132 24q105 0 165 -52t60 -148h-159q-5 38 -29.5 56t-59.5 18q-33 0 -54.5 -13.5t-21.5 -35.5t26.5 -33
t82.5 -21q60 -11 99.5 -23.5t67.5 -41t28 -77.5q0 -66 -37.5 -116t-101.5 -77t-140 -27q-105 0 -174.5 47zM160 -159q26 0 44.5 7t26.5 21q4 5 6 15h-8q-12 -15 -35 -15q-17 0 -26.5 8t-9.5 25q0 29 21 47t54 18q30 0 45.5 -15.5t15.5 -40.5q0 -52 -38.5 -79.5t-102.5 -27.5
z" />
    <glyph glyph-name="uni021A" unicode="&#x21a;" horiz-adv-x="625" 
d="M352 0h-179l106 603h-215l29 160h609l-29 -160h-215zM180 -159q26 0 44.5 7t26.5 21q4 5 6 15h-8q-12 -15 -35 -15q-17 0 -26.5 8t-9.5 25q0 29 21 47t54 18q30 0 45.5 -15.5t15.5 -40.5q0 -52 -38.5 -79.5t-102.5 -27.5z" />
    <glyph glyph-name="uni021B" unicode="&#x21b;" horiz-adv-x="398" 
d="M180 0q-55 0 -84 23t-29 65q0 16 2 25l57 323h-78l23 131h78l35 196h168l-35 -196h98l-23 -131h-98l-47 -266q-1 -3 -1 -10q0 -24 29 -24h63l-24 -136h-134zM94 -159q26 0 44.5 7t26.5 21q4 5 6 15h-8q-12 -15 -35 -15q-17 0 -26.5 8t-9.5 25q0 29 21 47t54 18
q30 0 45.5 -15.5t15.5 -40.5q0 -52 -38.5 -79.5t-102.5 -27.5z" />
    <glyph glyph-name="uni0237" unicode="&#x237;" horiz-adv-x="278" 
d="M-118 -196l25 137h52q35 0 42 35l104 591h168l-114 -649q-10 -54 -49.5 -84t-101.5 -30h-126z" />
    <glyph glyph-name="circumflex" unicode="&#x2c6;" horiz-adv-x="356" 
d="M192 618h-131l200 178h14l138 -178h-131l-33 63z" />
    <glyph glyph-name="caron" unicode="&#x2c7;" horiz-adv-x="356" 
d="M238 586h-14l-137 177h131l33 -63l57 63h131z" />
    <glyph glyph-name="breve" unicode="&#x2d8;" horiz-adv-x="346" 
d="M120.5 639q-35.5 33 -35.5 94q0 10 2 30h91q-1 -34 18 -51t50 -17q32 0 56 17.5t35 50.5h92q-17 -73 -68 -115t-131 -42q-74 0 -109.5 33z" />
    <glyph glyph-name="dotaccent" unicode="&#x2d9;" horiz-adv-x="194" 
d="M95.5 625q-22.5 19 -22.5 51q0 45 33 74t78 29q36 0 58.5 -19t22.5 -52q0 -46 -33 -74t-78 -28q-36 0 -58.5 19z" />
    <glyph glyph-name="ring" unicode="&#x2da;" horiz-adv-x="271" 
d="M106 603q-31 32 -31 80q0 41 22.5 76.5t59.5 57t77 21.5q49 0 80 -31t31 -79q0 -41 -22 -77.5t-58.5 -58t-77.5 -21.5q-50 0 -81 32zM244 673.5q17 18.5 17 42.5q0 17 -11 27.5t-31 10.5q-26 0 -42 -17.5t-16 -41.5q0 -18 11.5 -29t29.5 -11q25 0 42 18.5z" />
    <glyph glyph-name="ogonek" unicode="&#x2db;" horiz-adv-x="208" 
d="M-71 -143q0 49 31.5 76.5t90.5 46.5l4 20h101q-63 -35 -82.5 -50.5t-19.5 -34.5q0 -11 7 -16t24 -5q24 0 55 14l-18 -103q-42 -13 -84 -13q-109 0 -109 65z" />
    <glyph glyph-name="tilde" unicode="&#x2dc;" horiz-adv-x="376" 
d="M257.5 613.5q-19.5 12.5 -39.5 34.5q-11 12 -17 17t-14 5q-24 0 -40 -68h-89q17 76 57.5 120.5t94.5 44.5q30 0 49.5 -13t38.5 -34q8 -9 16 -15.5t15 -6.5q11 0 21 16.5t17 48.5h92q-20 -83 -55 -122.5t-93 -39.5q-34 0 -53.5 12.5z" />
    <glyph glyph-name="hungarumlaut" unicode="&#x2dd;" horiz-adv-x="484" 
d="M182 618h-121l143 145h141zM392 618h-121l143 145h153z" />
    <glyph glyph-name="gravecomb" unicode="&#x300;" horiz-adv-x="0" 
d="M57 618h-121l-129 145h162z" />
    <glyph glyph-name="acutecomb" unicode="&#x301;" horiz-adv-x="0" 
d="M-98 618h-121l140 145h162z" />
    <glyph glyph-name="uni0302" unicode="&#x302;" horiz-adv-x="0" 
d="M-164 618h-131l200 178h14l138 -178h-131l-33 63z" />
    <glyph glyph-name="tildecomb" unicode="&#x303;" horiz-adv-x="0" 
d="M-118.5 613.5q-19.5 12.5 -39.5 34.5q-11 12 -17 17t-14 5q-24 0 -40 -68h-89q17 76 57.5 120.5t94.5 44.5q30 0 49.5 -13t38.5 -34q8 -9 16 -15.5t15 -6.5q11 0 21 16.5t17 48.5h92q-20 -83 -55 -122.5t-93 -39.5q-34 0 -53.5 12.5z" />
    <glyph glyph-name="uni0304" unicode="&#x304;" horiz-adv-x="0" 
d="M57 619h-302l14 78h302z" />
    <glyph glyph-name="uni0306" unicode="&#x306;" horiz-adv-x="0" 
d="M-225.5 639q-35.5 33 -35.5 94q0 10 2 30h91q-1 -34 18 -51t50 -17q32 0 56 17.5t35 50.5h92q-17 -73 -68 -115t-131 -42q-74 0 -109.5 33z" />
    <glyph glyph-name="uni0307" unicode="&#x307;" horiz-adv-x="0" 
d="M-98.5 625q-22.5 19 -22.5 51q0 45 33 74t78 29q36 0 58.5 -19t22.5 -52q0 -46 -33 -74t-78 -28q-36 0 -58.5 19z" />
    <glyph glyph-name="uni0308" unicode="&#x308;" horiz-adv-x="0" 
d="M-317.5 625q-22.5 19 -22.5 51q0 45 33 74t78 29q36 0 58.5 -19t22.5 -52q0 -46 -33 -74t-78 -28q-36 0 -58.5 19zM-98.5 625q-22.5 19 -22.5 51q0 45 33 74t78 29q36 0 58.5 -19t22.5 -52q0 -46 -33 -74t-78 -28q-36 0 -58.5 19z" />
    <glyph glyph-name="uni030A" unicode="&#x30a;" horiz-adv-x="0" 
d="M-165 603q-31 32 -31 80q0 41 22.5 76.5t59.5 57t77 21.5q49 0 80 -31t31 -79q0 -41 -22 -77.5t-58.5 -58t-77.5 -21.5q-50 0 -81 32zM-27 673.5q17 18.5 17 42.5q0 17 -11 27.5t-31 10.5q-26 0 -42 -17.5t-16 -41.5q0 -18 11.5 -29t29.5 -11q25 0 42 18.5z" />
    <glyph glyph-name="uni030B" unicode="&#x30b;" horiz-adv-x="0" 
d="M-302 618h-121l143 145h141zM-92 618h-121l143 145h153z" />
    <glyph glyph-name="uni030C" unicode="&#x30c;" horiz-adv-x="0" 
d="M-118 586h-14l-137 177h131l33 -63l57 63h131z" />
    <glyph glyph-name="uni030F" unicode="&#x30f;" horiz-adv-x="0" 
d="M-159 585h-107l-136 178h153zM51 585h-108l-126 178h144z" />
    <glyph glyph-name="uni0312" unicode="&#x312;" horiz-adv-x="0" 
d="M-87 612q-19 21 -19 56q0 41 20 79t64 63.5t111 28.5l-11 -62q-82 0 -104 -49q-4 -12 -5 -20q16 17 44 17q22 0 37 -14t15 -38q0 -36 -27.5 -59t-67.5 -23q-38 0 -57 21z" />
    <glyph glyph-name="uni031B" unicode="&#x31b;" horiz-adv-x="0" 
d="M-113 626q40 0 60 25.5t26 58.5l10 53h100l-8 -43q-14 -79 -65 -129.5t-138 -50.5z" />
    <glyph glyph-name="uni0326" unicode="&#x326;" horiz-adv-x="0" 
d="M-204 -159q26 0 44.5 7t26.5 21q4 5 6 15h-8q-12 -15 -35 -15q-17 0 -26.5 8t-9.5 25q0 29 21 47t54 18q30 0 45.5 -15.5t15.5 -40.5q0 -52 -38.5 -79.5t-102.5 -27.5z" />
    <glyph glyph-name="uni0327" unicode="&#x327;" horiz-adv-x="0" 
d="M-319 -193l11 61q49 -20 83 -20q24 0 38 11t14 31q0 25 -31.5 34t-85.5 9l97 90h100q-38 -32 -78 -55l4 -9q7 1 19 1q36 0 56.5 -13.5t20.5 -42.5q0 -54 -44.5 -83t-110.5 -29q-48 0 -93 15z" />
    <glyph glyph-name="uni0328" unicode="&#x328;" horiz-adv-x="0" 
d="M-279 -143q0 49 31.5 76.5t90.5 46.5l4 20h101q-63 -35 -82.5 -50.5t-19.5 -34.5q0 -11 7 -16t24 -5q24 0 55 14l-18 -103q-42 -13 -84 -13q-109 0 -109 65z" />
    <glyph glyph-name="uni0337" unicode="&#x337;" horiz-adv-x="0" 
d="M20 406l-272 -129l20 112l271 129z" />
    <glyph glyph-name="uni0338" unicode="&#x338;" horiz-adv-x="0" 
d="M44 546l-642 -546l-58 67l643 546z" />
    <glyph glyph-name="uni0394" unicode="&#x394;" horiz-adv-x="720" 
d="M668 0h-716l396 763h194zM409 562l-195 -407h245z" />
    <glyph glyph-name="pi" unicode="&#x3c0;" horiz-adv-x="649" 
d="M38 0l74 422h-58l26 145h577l-26 -145h-82l-45 -259q-1 -4 -1 -10q0 -22 29 -22h48l-23 -131h-88q-66 0 -99.5 26.5t-33.5 76.5q0 16 3 32l50 287h-116l-74 -422h-161z" />
    <glyph glyph-name="Wgrave" unicode="&#x1e80;" horiz-adv-x="1138" 
d="M413 0h-270l-47 763h183l24 -635l223 635h246l-2 -636l249 636h193l-317 -763h-270l3 616zM732 814h-121l-129 145h162z" />
    <glyph glyph-name="wgrave" unicode="&#x1e81;" horiz-adv-x="860" 
d="M296 0h-160l-77 567h174l25 -330l143 330h144l28 -328l144 328h183l-281 -567h-159l-20 341zM557 618h-121l-129 145h162z" />
    <glyph glyph-name="Wacute" unicode="&#x1e82;" horiz-adv-x="1138" 
d="M413 0h-270l-47 763h183l24 -635l223 635h246l-2 -636l249 636h193l-317 -763h-270l3 616zM715 814h-121l140 145h162z" />
    <glyph glyph-name="wacute" unicode="&#x1e83;" horiz-adv-x="860" 
d="M296 0h-160l-77 567h174l25 -330l143 330h144l28 -328l144 328h183l-281 -567h-159l-20 341zM540 618h-121l140 145h162z" />
    <glyph glyph-name="Wdieresis" unicode="&#x1e84;" horiz-adv-x="1138" 
d="M413 0h-270l-47 763h183l24 -635l223 635h246l-2 -636l249 636h193l-317 -763h-270l3 616zM491.5 820.5q-22.5 18.5 -22.5 50.5q0 46 33.5 75t78.5 29q36 0 58.5 -19t22.5 -52q0 -44 -33 -73t-79 -29q-36 0 -58.5 18.5zM710.5 820.5q-22.5 18.5 -22.5 50.5q0 46 33.5 75
t78.5 29q36 0 58.5 -19t22.5 -52q0 -44 -33 -73t-79 -29q-36 0 -58.5 18.5z" />
    <glyph glyph-name="wdieresis" unicode="&#x1e85;" horiz-adv-x="860" 
d="M296 0h-160l-77 567h174l25 -330l143 330h144l28 -328l144 328h183l-281 -567h-159l-20 341zM317.5 625q-22.5 19 -22.5 51q0 45 33 74t78 29q36 0 58.5 -19t22.5 -52q0 -46 -33 -74t-78 -28q-36 0 -58.5 19zM536.5 625q-22.5 19 -22.5 51q0 45 33 74t78 29
q36 0 58.5 -19t22.5 -52q0 -46 -33 -74t-78 -28q-36 0 -58.5 19z" />
    <glyph glyph-name="uni1E9E" unicode="&#x1e9e;" horiz-adv-x="704" 
d="M89 450q16 89 43.5 149.5t72.5 101.5q86 78 241 78q72 0 129 -25.5t95 -67.5l-27 -151l-121 -100q39 -6 72 -22q73 -36 73 -129q0 -92 -45 -156t-120.5 -96t-165.5 -32h-87l28 160h95q54 0 83.5 26t29.5 71q0 58 -92 58h-65l24 137l157 131q-40 36 -91 36q-60 0 -96 -36
q-19 -19 -32 -49.5t-22 -83.5l-79 -450h-179z" />
    <glyph glyph-name="Ygrave" unicode="&#x1ef2;" horiz-adv-x="718" 
d="M403 0h-188l53 303l-191 460h194l107 -287l209 287h224l-355 -460zM520 814h-121l-129 145h162z" />
    <glyph glyph-name="ygrave" unicode="&#x1ef3;" horiz-adv-x="576" 
d="M-16 -196l25 137h68q23 0 40 8t32 31l8 12l-100 575h175l36 -402l163 402h186l-307 -603q-44 -87 -94.5 -123.5t-130.5 -36.5h-101zM410 618h-121l-129 145h162z" />
    <glyph glyph-name="endash" unicode="&#x2013;" horiz-adv-x="547" 
d="M520 258h-501l21 120h501z" />
    <glyph glyph-name="emdash" unicode="&#x2014;" horiz-adv-x="1106" 
d="M1102 258h-1106l21 120h1106z" />
    <glyph glyph-name="uni2015" unicode="&#x2015;" horiz-adv-x="806" 
d="M741 274h-680l18 100h680z" />
    <glyph glyph-name="quoteleft" unicode="&#x2018;" horiz-adv-x="326" 
d="M117.5 459q-23.5 28 -23.5 76q0 68 31.5 122t88 85.5t128.5 34.5l-15 -86q-57 0 -93 -23.5t-45 -72.5q11 13 24.5 18t31.5 5q26 0 44.5 -19t18.5 -51q0 -51 -34.5 -84t-86.5 -33q-46 0 -69.5 28z" />
    <glyph glyph-name="quoteright" unicode="&#x2019;" horiz-adv-x="325" 
d="M111 515q58 0 93.5 24.5t44.5 71.5q-11 -13 -24.5 -18t-31.5 -5q-26 0 -44.5 19t-18.5 51q0 51 34.5 84t86.5 33q46 0 69 -27.5t23 -74.5q0 -69 -31 -123t-87.5 -86t-128.5 -35z" />
    <glyph glyph-name="quotesinglbase" unicode="&#x201a;" horiz-adv-x="276" 
d="M-27 -84q57 0 93 23.5t45 72.5q-11 -13 -24.5 -18t-31.5 -5q-26 0 -44.5 19t-18.5 51q0 51 34.5 84t86.5 33q46 0 69.5 -28t23.5 -76q0 -68 -31.5 -122t-88 -85.5t-128.5 -34.5z" />
    <glyph glyph-name="quotedblleft" unicode="&#x201c;" horiz-adv-x="570" 
d="M117 459.5q-23 27.5 -23 74.5q0 69 31 123t87.5 86t128.5 35l-15 -86q-57 0 -93 -23.5t-45 -72.5q11 13 24.5 18t31.5 5q26 0 44.5 -19t18.5 -51q0 -51 -34.5 -84t-86.5 -33q-46 0 -69 27.5zM362 459.5q-23 27.5 -23 74.5q0 69 31 123t87.5 86t128.5 35l-15 -86
q-57 0 -93 -23.5t-45 -72.5q11 13 24.5 18t31.5 5q26 0 44.5 -19t18.5 -51q0 -51 -34.5 -84t-86.5 -33q-46 0 -69 27.5z" />
    <glyph glyph-name="quotedblright" unicode="&#x201d;" horiz-adv-x="570" 
d="M111 515q58 0 93.5 24.5t44.5 71.5q-11 -13 -24.5 -18t-31.5 -5q-26 0 -44.5 19t-18.5 51q0 51 34.5 84t86.5 33q46 0 69 -27.5t23 -74.5q0 -69 -31 -123t-87.5 -86t-128.5 -35zM356 515q58 0 93.5 24.5t44.5 71.5q-11 -13 -24.5 -18t-31.5 -5q-26 0 -44.5 19t-18.5 51
q0 51 34.5 84t86.5 33q46 0 69 -27.5t23 -74.5q0 -69 -31 -123t-87.5 -86t-128.5 -35z" />
    <glyph glyph-name="quotedblbase" unicode="&#x201e;" horiz-adv-x="521" 
d="M-27 -85q57 0 93 23.5t45 72.5q-11 -13 -24.5 -18t-31.5 -5q-26 0 -44.5 19t-18.5 51q0 51 34.5 84t86.5 33q46 0 69 -27.5t23 -74.5q0 -69 -31 -123t-87.5 -86t-128.5 -35zM218 -85q57 0 93 23.5t45 72.5q-11 -13 -24.5 -18t-31.5 -5q-26 0 -44.5 19t-18.5 51
q0 51 34.5 84t86.5 33q46 0 69 -27.5t23 -74.5q0 -69 -31 -123t-87.5 -86t-128.5 -35z" />
    <glyph glyph-name="dagger" unicode="&#x2020;" horiz-adv-x="584" 
d="M268 -196h-123l109 617h-220l22 121h220l39 221h123l-39 -221h221l-22 -121h-221z" />
    <glyph glyph-name="bullet" unicode="&#x2022;" horiz-adv-x="384" 
d="M88 162q-30 30 -30 75q0 40 21.5 74.5t56.5 55.5t74 21q48 0 78 -30t30 -76q0 -39 -22 -74t-57 -55.5t-74 -20.5q-47 0 -77 30z" />
    <glyph glyph-name="uni2023" unicode="&#x2023;" horiz-adv-x="457" 
d="M458 288l-397 -211l74 421z" />
    <glyph glyph-name="ellipsis" unicode="&#x2026;" horiz-adv-x="692" 
d="M16 10.5q-23 22.5 -23 56.5q0 28 16 53t42.5 40.5t55.5 15.5q33 0 54.5 -22.5t21.5 -55.5q0 -29 -16 -54t-41 -40.5t-52 -15.5q-35 0 -58 22.5zM238 10.5q-22 22.5 -22 55.5q0 28 16 53.5t42 41t54 15.5q34 0 56 -22.5t22 -55.5q0 -29 -16 -54.5t-41.5 -40.5t-53.5 -15
q-35 0 -57 22.5zM460 10.5q-22 22.5 -22 55.5q0 28 16 53.5t42 41t54 15.5q34 0 56 -22.5t22 -55.5q0 -29 -16 -54.5t-41.5 -40.5t-53.5 -15q-35 0 -57 22.5z" />
    <glyph glyph-name="perthousand" unicode="&#x2030;" horiz-adv-x="1144" 
d="M128 455q-40 37 -40 103q0 59 26.5 109.5t72.5 81t103 30.5q62 0 100.5 -41t38.5 -104q0 -55 -27.5 -105t-73 -80.5t-98.5 -30.5q-62 0 -102 37zM153 0h-128l621 763h129zM289.5 563q16.5 22 16.5 52q0 21 -10.5 31.5t-26.5 10.5q-29 0 -43 -23t-14 -54q0 -39 39 -39
q22 0 38.5 22zM416 20q-40 37 -40 103q0 59 26.5 109.5t72.5 80.5t103 30q62 0 101 -40.5t39 -104.5q0 -54 -27.5 -104t-73.5 -80.5t-99 -30.5q-62 0 -102 37zM788 20q-40 37 -40 103q0 59 26.5 109.5t72.5 80.5t103 30q62 0 101 -40.5t39 -104.5q0 -54 -27.5 -104
t-73.5 -80.5t-99 -30.5q-62 0 -102 37zM577.5 126q17.5 22 17.5 51q0 22 -11 33t-27 11q-29 0 -43 -23t-14 -54q0 -40 39 -40q21 0 38.5 22zM949.5 126q17.5 22 17.5 51q0 22 -11 33t-27 11q-29 0 -43 -23t-14 -54q0 -40 39 -40q21 0 38.5 22z" />
    <glyph glyph-name="guilsinglleft" unicode="&#x2039;" horiz-adv-x="308" 
d="M221 221l-25 -141l-205 195l274 197l-24 -140l-83 -57z" />
    <glyph glyph-name="guilsinglright" unicode="&#x203a;" horiz-adv-x="308" 
d="M315 275l-275 -195l25 141l83 54l-63 57l24 140z" />
    <glyph glyph-name="fraction" unicode="&#x2044;" horiz-adv-x="177" 
d="M-145 0h-92l594 763h92z" />
    <glyph glyph-name="Euro" unicode="&#x20ac;" horiz-adv-x="597" 
d="M409 586q-50 -33 -81 -90h198l-14 -80h-216q-7 -24 -11 -63h216l-14 -80h-201q11 -62 50 -96t103 -34q36 0 75 13l-30 -168q-40 -5 -73 -5q-154 0 -233.5 79.5t-85.5 210.5h-61l14 80h50q6 44 11 63h-50l14 80h61q53 129 164 206t256 77q34 0 71 -5l-29 -168
q-30 13 -70 13q-64 0 -114 -33z" />
    <glyph glyph-name="uni2116" unicode="&#x2116;" horiz-adv-x="1304" 
d="M871 338.5q-56 52.5 -56 143.5q0 82 39 150t106.5 107.5t150.5 39.5q97 0 153.5 -52.5t56.5 -140.5q0 -83 -39 -151.5t-106.5 -108.5t-151.5 -40q-97 0 -153 52.5zM189 0h-179l135 763h182l211 -463l82 463h179l-135 -763h-182l-211 466zM1113 429.5q29 23.5 45 60.5
t16 77q0 42 -22.5 67t-61.5 25q-38 0 -67.5 -22.5t-45.5 -59t-16 -76.5q0 -44 22.5 -69.5t62.5 -25.5q38 0 67 23.5zM1207 127h-422l22 123h422z" />
    <glyph glyph-name="trademark" unicode="&#x2122;" horiz-adv-x="825" 
d="M235 381h-89l53 302h-108l15 80h305l-15 -80h-108zM467 381h-90l68 382h144l14 -275l112 275h144l-68 -382h-89l55 310l-129 -310h-87l-19 308z" />
    <glyph glyph-name="minus" unicode="&#x2212;" horiz-adv-x="679" 
d="M579 279h-481l22 121h481z" />
    <glyph glyph-name="lozenge" unicode="&#x25ca;" horiz-adv-x="701" 
d="M426 0h-251l-144 382l278 381h251l143 -382zM225 382l90 -289l195 289l-92 288z" />
    <glyph glyph-name="uniF8FF" unicode="&#xf8ff;" horiz-adv-x="884" 
d="M19 0q-9 0 -7 10l131 743q2 10 11 10h744q10 0 8 -10l-131 -743q-1 -4 -4 -7t-8 -3h-744zM203 94q13 11 22.5 25t17.5 28q19 36 45 69.5t82 82.5l29 26q5 4 9 4q5 0 8 -3q7 -4 16 -6q9 -3 8 -13l-6 -36q-8 -43 -17.5 -66t-23.5 -48q-14 -21 -17 -37q-2 -14 7 -25t23 -11
q15 0 28 11t15 25q1 4 1 12q0 7 -4 25q-7 28 -7 51q0 32 6 63l6 36q1 9 12 13q13 4 16 6q6 3 9 3q5 0 8 -4l22 -26q40 -48 54 -81.5t20 -69.5q4 -20 8 -31.5t13 -22.5q14 -15 37 -15q26 0 44 15q25 22 25 53q0 19 -10 29q-9 12 -19.5 18t-29.5 12q-35 14 -64.5 33t-68.5 67
l-21 26q-3 3 -3 9l4 7q8 12 11 18q5 11 13 11h36q45 0 68.5 -6t42.5 -16q3 -1 13 -5.5t23 -4.5q16 0 29.5 13.5t13.5 30.5q0 12 -8.5 21t-21.5 9t-25 -4.5t-14 -5.5q-22 -10 -48 -16t-71 -6h-36q-8 0 -10 11q-2 10 -4 15q-2 3 -2 8q3 6 6 8l30 26q57 48 94.5 68.5t74.5 31.5
q4 2 16.5 6.5t22.5 10t19 13.5q25 23 25 52q0 19 -10 30q-13 16 -39 16q-24 0 -42 -15q-13 -11 -21 -22.5t-20 -32.5q-19 -37 -44.5 -70t-82.5 -81l-29 -24q-3 -4 -9 -4q-4 0 -7 2q-6 4 -16 7q-9 3 -8 13l7 36q7 44 17 68t24 45q2 3 8 14.5t8 23.5q3 14 -6 25t-23 11
q-15 0 -28 -11t-16 -25q-1 -4 -1 -11q0 -8 4 -26q8 -24 8 -53q0 -22 -6 -61l-7 -36q-1 -9 -12 -13q-2 -1 -8 -2.5t-10 -4.5q-3 -2 -8 -2q-6 0 -9 4l-21 24q-40 48 -54.5 82.5t-19.5 69.5q-3 19 -7 31t-13 23q-13 16 -37 16q-22 0 -43 -16q-26 -23 -26 -52q0 -20 10 -31
q9 -11 19.5 -17t28.5 -13q33 -13 63 -33t70 -67l22 -25q3 -5 2 -8q0 -4 -4 -8q-2 -2 -10 -16q-5 -11 -14 -11h-36q-44 0 -68 6t-43 16q-2 1 -12 5.5t-23 4.5q-16 0 -29.5 -13t-13.5 -29q0 -14 8.5 -23t21.5 -9q12 0 23.5 4.5t15.5 5.5q22 10 47.5 16t70.5 6h36q9 0 11 -11
q2 -12 5 -17v-5q0 -6 -5 -11l-31 -27q-56 -49 -93 -68.5t-76 -31.5q-21 -7 -33.5 -13t-25.5 -17q-11 -9 -17.5 -23t-6.5 -28q0 -17 10 -30q13 -16 39 -16q25 0 43 15zM416.5 340.5q-13.5 13.5 -13.5 32.5q0 24 20.5 43.5t44.5 19.5q20 0 32.5 -13t12.5 -32
q0 -25 -19.5 -44.5t-44.5 -19.5q-19 0 -32.5 13.5zM485 354l-5 6q-11 -13 -28 -13q-12 0 -20 8.5t-8 21.5q0 15 12.5 27t27.5 12t25 -13l6 6q-7 15 -29 15q-19 0 -35.5 -15t-16.5 -34q0 -15 10.5 -25.5t26.5 -10.5q22 0 34 15z" />
    <glyph glyph-name="i.loclTRK" horiz-adv-x="278" 
d="M173 0h-168l100 567h168zM137.5 625q-22.5 19 -22.5 51q0 45 33 74t78 29q36 0 58.5 -19t22.5 -52q0 -46 -33 -74t-78 -28q-36 0 -58.5 19z" />
    <glyph glyph-name="uni030C.alt" horiz-adv-x="0" 
d="M-169 515q49 0 82.5 17.5t47.5 51.5q6 15 8 27q-11 -13 -24.5 -18t-31.5 -5q-26 0 -44.5 19t-18.5 51q0 51 34.5 84t86.5 33q46 0 69 -27.5t23 -74.5q0 -22 -4 -42q-14 -81 -74 -139t-169 -63z" />
    <glyph glyph-name="uni0308.case" horiz-adv-x="0" 
d="M-283.5 820.5q-22.5 18.5 -22.5 50.5q0 46 33.5 75t78.5 29q36 0 58.5 -19t22.5 -52q0 -44 -33 -73t-79 -29q-36 0 -58.5 18.5zM-64.5 820.5q-22.5 18.5 -22.5 50.5q0 46 33.5 75t78.5 29q36 0 58.5 -19t22.5 -52q0 -44 -33 -73t-79 -29q-36 0 -58.5 18.5z" />
    <glyph glyph-name="uni0307.case" horiz-adv-x="0" 
d="M-64.5 820.5q-22.5 18.5 -22.5 50.5q0 46 33.5 75t78.5 29q36 0 58.5 -19t22.5 -52q0 -44 -33 -73t-79 -29q-36 0 -58.5 18.5z" />
    <glyph glyph-name="uni0328.case" horiz-adv-x="0" 
d="M-279 -143q0 49 31.5 76.5t90.5 46.5l4 20h101q-63 -35 -82.5 -50.5t-19.5 -34.5q0 -11 7 -16t24 -5q24 0 55 14l-18 -103q-42 -13 -84 -13q-109 0 -109 65z" />
    <glyph glyph-name="uni0335.case" horiz-adv-x="0" 
d="M-3 279h-421l22 121h421z" />
    <glyph glyph-name="uni0337.case" horiz-adv-x="0" 
d="M23 423l-430 -204l22 129l430 203z" />
    <glyph glyph-name="uni0338.case" horiz-adv-x="0" 
d="M66 671l-790 -671l-58 67l791 671z" />
    <glyph glyph-name="base_No" horiz-adv-x="532" 
d="M482 0h-506v148h506v-148z" />
    </font>
</defs>
</svg>
