<?xml version="1.0" standalone="no"?>
<!DOCTYPE svg PUBLIC "-//W3C//DTD SVG 1.1//EN" "http://www.w3.org/Graphics/SVG/1.1/DTD/svg11.dtd" >
<svg xmlns="http://www.w3.org/2000/svg" xmlns:xlink="http://www.w3.org/1999/xlink" version="1.1">
<metadata>
Created by FontForge 20170731 at Thu Apr 16 09:52:36 2020
 By Aleksey,,,
Copyright (c) 2020 by Alfredo Marco Pradil. All rights reserved.
</metadata>
<defs>
<font id="OpenSauceOne-Black" horiz-adv-x="624" >
  <font-face 
    font-family="Open Sauce One Black"
    font-weight="900"
    font-stretch="normal"
    units-per-em="1000"
    panose-1="0 0 10 0 0 0 0 0 0 0"
    ascent="763"
    descent="-237"
    x-height="567"
    cap-height="763"
    bbox="-704 -237 1272 1030"
    underline-thickness="50"
    underline-position="-150"
    unicode-range="U+0020-FB02"
  />
<missing-glyph horiz-adv-x="581" 
d="M520 0h-460v567h460v-567zM100 527v-487h380v487h-380z" />
    <glyph glyph-name="fi" unicode="fi" horiz-adv-x="656" 
d="M102 0v437h-81v130h81v55q0 67 42 104t120 37h93v-129h-52q-13 0 -23 -8t-10 -29v-30h85v-130h-85v-437h-170zM601 0h-168v567h168v-567zM449.5 629.5q-27.5 23.5 -27.5 62.5t27.5 63t67.5 24t67.5 -24t27.5 -63t-27.5 -62.5t-67.5 -23.5t-67.5 23.5z" />
    <glyph glyph-name="fl" unicode="fl" horiz-adv-x="696" 
d="M102 0v437h-81v130h81v55q0 67 42 104t120 37h93v-129h-52q-13 0 -23 -8t-10 -29v-30h85v-130h-85v-437h-170zM560 0q-62 0 -96 29.5t-34 83.5v650h168v-592q0 -35 33 -35h42v-136h-113z" />
    <glyph glyph-name="s_a_u_c_e_l_o_g_o.liga" unicode="saucelogo" horiz-adv-x="884" 
d="M69 0q-9 0 -9 10v743q0 10 9 10h744q10 0 10 -10v-743q0 -10 -10 -10h-744zM236 94q11 11 17 22.5t14 31.5q13 36 33 69t67 82l25 26q4 4 8 4t9 -3q7 -4 17 -6q10 -3 10 -13v-36q0 -43 -5.5 -67t-15.5 -47q-10 -20 -10 -37q0 -14 11 -25t25 -11q15 0 26 11t11 25
q0 17 -10 37q-10 23 -15.5 47t-5.5 67v36q0 10 10 13q13 4 15 6q4 3 8 3q5 0 9 -4l26 -26q48 -48 68 -81.5t33 -69.5q6 -19 12 -30.5t18 -23.5q17 -15 40 -15q26 0 41 15q17 17 17 42t-16 40q-12 12 -23.5 18t-30.5 12q-37 13 -70 32.5t-81 67.5l-26 26q-4 4 -4 9q0 3 3 7
q6 12 7 18q3 11 12 11h36q44 0 68.5 -6t46.5 -16q2 -1 13 -5.5t24 -4.5q14 0 25 11t11 26q0 14 -11 25.5t-25 11.5q-13 0 -24 -4.5t-13 -5.5q-22 -10 -46.5 -16t-68.5 -6h-36q-9 0 -12 11q-4 10 -7 15t-3 8q0 4 4 8l26 26q48 48 82 68.5t69 31.5q4 2 16 6.5t21 10t16 13.5
q17 19 17 41q0 24 -17 41q-16 16 -41 16t-40 -15q-11 -11 -17 -22.5t-14 -32.5q-13 -37 -32.5 -70t-67.5 -81l-25 -24q-3 -4 -9 -4q-4 0 -7 2q-5 3 -17 7q-10 3 -10 13v36q0 43 5.5 67t15.5 47q10 20 10 37q0 14 -11 25t-25 11q-15 0 -26 -11t-11 -25q0 -17 10 -37
q10 -23 15.5 -47t5.5 -67v-36q0 -10 -10 -13q-2 -1 -7.5 -2.5t-9.5 -4.5q-3 -2 -7 -2q-6 0 -10 4l-25 24q-49 49 -69.5 83t-31.5 69q-7 19 -13 31t-17 23q-16 16 -40 16q-22 0 -40 -16q-17 -17 -17 -42t16 -41q11 -11 22.5 -17t30.5 -13q36 -13 69 -33t82 -67l26 -25
q4 -4 4 -8q0 -3 -3 -8q-2 -3 -7 -16q-3 -11 -12 -11h-36q-44 0 -68.5 6t-46.5 16q-2 1 -13 5.5t-24 4.5q-14 0 -25 -11.5t-11 -25.5q0 -15 11 -26t25 -11q13 0 24 4.5t13 5.5q22 10 46.5 16t68.5 6h36q9 0 12 -11q5 -12 8 -17q2 -6 2 -7q0 -5 -4 -9l-26 -27
q-48 -49 -81.5 -68.5t-69.5 -31.5q-20 -7 -31.5 -13t-22.5 -17q-16 -15 -16 -40q0 -24 16 -41q16 -16 42 -16q25 0 40 15zM403 343.5q-16 16.5 -16 38.5t16 38t38 16t38 -16t16 -38q0 -23 -16 -39t-38 -16t-38 16.5zM473 354l-6 6q-10 -13 -26 -13q-14 0 -24 10.5t-10 24.5
t10.5 24t23.5 10q16 0 27 -13l5 6q-10 15 -32 15q-17 0 -30 -12.5t-13 -29.5t13 -30t30 -13q22 0 32 15z" />
    <glyph glyph-name=".notdef" horiz-adv-x="581" 
d="M520 0h-460v567h460v-567zM100 527v-487h380v487h-380z" />
    <glyph glyph-name=".null" horiz-adv-x="0" 
 />
    <glyph glyph-name="nonmarkingreturn" horiz-adv-x="333" 
 />
    <glyph glyph-name="space" unicode=" " horiz-adv-x="260" 
 />
    <glyph glyph-name="exclam" unicode="!" horiz-adv-x="292" 
d="M75 239q-2 32 -4 49q-10 128 -10 194v281h168v-281q0 -83 -11 -213q0 -10 -2 -30h-141zM78.5 16q-27.5 28 -27.5 67q0 38 28 65.5t67 27.5q38 0 65.5 -27.5t27.5 -65.5q0 -39 -27.5 -67t-65.5 -28q-40 0 -67.5 28z" />
    <glyph glyph-name="quotedbl" unicode="&#x22;" horiz-adv-x="373" 
d="M147 468h-110v295h110v-295zM335 468h-110v295h110v-295z" />
    <glyph glyph-name="numbersign" unicode="#" horiz-adv-x="745" 
d="M236 0h-125l48 219h-121v113h145l23 109h-125v118h150l48 204h126l-47 -210h108l44 210h127l-50 -210h121v-112h-144l-26 -109h126v-113h-149l-48 -219h-124l47 219h-109zM330 441l-21 -109h107l23 109h-109z" />
    <glyph glyph-name="dollar" unicode="$" horiz-adv-x="712" 
d="M643.5 98q-35.5 -55 -101.5 -85t-157 -30v-83h-42v84q-122 10 -212.5 75.5t-99.5 199.5h185q27 -107 127 -123v177q-3 0 -11 2q-89 20 -144.5 41t-96 66.5t-40.5 123.5q0 76 37.5 128.5t101.5 78.5t144 26h9v84h42v-87q109 -13 184.5 -77.5t90.5 -173.5h-185
q-10 36 -33 60.5t-57 35.5v-151l5 -1q89 -20 147 -42t100 -70t42 -130q0 -74 -35.5 -129zM257.5 512.5q28.5 -17.5 85.5 -32.5v149h-13q-42 0 -71.5 -17t-29.5 -51q0 -31 28.5 -48.5zM385 133q48 1 81 22.5t33 62.5q0 33 -29 51.5t-85 33.5v-170z" />
    <glyph glyph-name="percent" unicode="%" horiz-adv-x="772" 
d="M121 439.5q-39 21.5 -62 62.5t-23 97t22.5 97t60.5 62t84 21q47 0 85.5 -24t60.5 -65.5t22 -91.5q0 -49 -21.5 -90.5t-59.5 -65.5t-84 -24t-85 21.5zM203 0h-128l486 763h129zM237 557.5q12 16.5 12 40.5q0 29 -13.5 44t-32.5 15t-32 -13t-13 -45q0 -58 48 -58
q19 0 31 16.5zM486 4.5q-39 21.5 -62 62.5t-23 97t22.5 96.5t60.5 61.5t84 21q47 0 85.5 -24t60.5 -65.5t22 -91.5q0 -49 -21.5 -90t-59.5 -65t-84 -24t-85 21.5zM602 120.5q13 16.5 13 41.5q0 29 -14 44t-33 15q-45 0 -45 -57q0 -60 48 -60q18 0 31 16.5z" />
    <glyph glyph-name="ampersand" unicode="&#x26;" horiz-adv-x="760" 
d="M172 6.5q-61 23.5 -98 69.5t-37 111q0 52 20 90.5t55.5 69t96.5 69.5q-47 47 -66.5 87t-19.5 91q0 53 28.5 95.5t79 66t114.5 23.5q99 0 155.5 -46.5t56.5 -128.5q0 -59 -31.5 -110.5t-97.5 -97.5l97 -126q13 29 19 55t9 60h154q-9 -138 -83 -239l116 -146h-202l-37 47
q-76 -64 -199 -64q-69 0 -130 23.5zM399 592q0 25 -14.5 40t-39.5 15q-24 0 -40.5 -16t-16.5 -40t10 -45t35 -50q66 48 66 96zM365 133.5q30 8.5 52 22.5l-122 156q-47 -30 -70 -56.5t-23 -59.5q0 -34 30.5 -52.5t74.5 -18.5q28 0 58 8.5z" />
    <glyph glyph-name="quotesingle" unicode="'" horiz-adv-x="184" 
d="M147 468h-110v295h110v-295z" />
    <glyph glyph-name="parenleft" unicode="(" horiz-adv-x="300" 
d="M154 -110q-52 95 -78 219.5t-26 271.5t26 271.5t78 219.5h137q-59 -101 -87 -220.5t-28 -270.5t28 -270.5t87 -220.5h-137z" />
    <glyph glyph-name="parenright" unicode=")" horiz-adv-x="300" 
d="M9 -110q59 101 87 220.5t28 270.5t-28 270.5t-87 220.5h137q52 -95 78 -219.5t26 -271.5t-26 -271.5t-78 -219.5h-137z" />
    <glyph glyph-name="asterisk" unicode="*" horiz-adv-x="432" 
d="M61 482q22 24 45.5 44t67.5 45l-4 13q-36 -2 -48 -2q-38 0 -64 4t-32 5l37 104q34 -15 58 -28.5t58 -43.5l11 9q-16 42 -22 68t-12 63h119q-4 -33 -10 -60t-22 -70l11 -9q34 29 59 43.5t55 27.5l37 -104q-48 -8 -88 -8q-13 0 -55 2l-4 -13q42 -24 64.5 -43.5t47.5 -46.5
l-96 -64q-18 39 -29.5 65.5t-22.5 64.5h-14q-18 -60 -51 -130z" />
    <glyph glyph-name="plus" unicode="+" horiz-adv-x="623" 
d="M372 56h-123v221h-220v121h220v221h123v-221h221v-121h-221v-221z" />
    <glyph glyph-name="comma" unicode="," horiz-adv-x="276" 
d="M38 -84q49 0 79.5 17.5t38.5 51.5q3 12 3 27q-9 -13 -21.5 -18t-30.5 -5q-30 0 -53.5 25t-23.5 65q0 44 28 70.5t74 26.5q56 0 85 -39.5t29 -104.5q0 -81 -50 -139t-158 -63v86z" />
    <glyph glyph-name="hyphen" unicode="-" horiz-adv-x="379" 
d="M353 247h-327v143h327v-143z" />
    <glyph glyph-name="period" unicode="." horiz-adv-x="248" 
d="M58.5 16q-28.5 28 -28.5 67q0 38 28.5 65.5t67.5 27.5q37 0 64.5 -27.5t27.5 -65.5q0 -39 -27 -67t-65 -28q-39 0 -67.5 28z" />
    <glyph glyph-name="slash" unicode="/" horiz-adv-x="486" 
d="M476 763l-354 -874h-149l355 874h148z" />
    <glyph glyph-name="zero" unicode="0" horiz-adv-x="677" 
d="M124 77q-75 94 -75 307q0 210 74 302.5t214 92.5q141 0 215.5 -94t74.5 -306q0 -210 -73.5 -303t-213.5 -93q-141 0 -216 94zM396 161q24 18 38 70.5t14 149.5t-14.5 149t-38.5 70.5t-60 18.5t-59 -18.5t-35.5 -70.5t-12.5 -148q0 -98 13 -150.5t36 -70.5t59 -18t60 18z
" />
    <glyph glyph-name="one" unicode="1" horiz-adv-x="464" 
d="M230 548q-34 -43 -87 -72.5t-114 -35.5v161q153 30 207 162h173v-763h-179v548z" />
    <glyph glyph-name="two" unicode="2" horiz-adv-x="649" 
d="M55 0v127l236 216q64 58 94.5 104.5t30.5 84.5q0 44 -24 70.5t-75 26.5q-55 0 -84 -34t-32 -108h-160q4 145 75 218.5t204 73.5q74 0 132 -28t91 -80t33 -123q0 -88 -50 -162.5t-121 -144.5l-83 -81h285v-160h-552z" />
    <glyph glyph-name="three" unicode="3" horiz-adv-x="664" 
d="M184.5 15q-65.5 32 -104 92t-42.5 141h179q14 -115 121 -115q52 0 78 27.5t26 74.5q0 46 -29 70t-93 24h-46v140h39q43 0 67.5 22.5t24.5 59.5t-20.5 57.5t-63.5 20.5q-79 0 -94 -88h-158q4 72 37 126t90 83t130 29t129.5 -28t88 -76.5t31.5 -109.5q0 -56 -27.5 -95.5
t-82.5 -51.5q82 -8 119 -61t37 -124q0 -73 -35.5 -130t-101 -88.5t-150.5 -31.5q-84 0 -149.5 32z" />
    <glyph glyph-name="four" unicode="4" horiz-adv-x="643" 
d="M525 0h-179v165h-313v170l320 428h172v-438h85v-160h-85v-165zM346 541l-150 -216h150v216z" />
    <glyph glyph-name="five" unicode="5" horiz-adv-x="659" 
d="M188 13q-62 30 -100.5 85t-46.5 128h179q13 -42 39.5 -62.5t69.5 -20.5q48 0 76 32t28 87q0 52 -29.5 86.5t-74.5 34.5q-38 0 -64 -16.5t-45 -53.5h-167l85 450h440v-160h-311l-24 -119q22 20 56.5 32.5t69.5 12.5q72 0 127 -33.5t85.5 -94t30.5 -139.5q0 -84 -35 -147
t-99.5 -97.5t-149.5 -34.5q-78 0 -140 30z" />
    <glyph glyph-name="six" unicode="6" horiz-adv-x="666" 
d="M125.5 79.5q-78.5 96.5 -78.5 285.5q0 202 79.5 308t220.5 106q118 0 189 -64t82 -177h-158q-8 44 -38 67.5t-75 23.5q-74 0 -105 -49t-31 -139q61 70 159 70q72 0 128 -29.5t87.5 -86t31.5 -135.5q0 -82 -35 -145t-97.5 -97.5t-142.5 -34.5q-138 0 -216.5 96.5z
M412.5 167.5q25.5 34.5 25.5 92.5q0 54 -25.5 85.5t-73.5 31.5q-50 0 -77.5 -32t-27.5 -85q0 -57 28 -92t77 -35q48 0 73.5 34.5z" />
    <glyph glyph-name="seven" unicode="7" horiz-adv-x="580" 
d="M269 0h-195l293 603h-339v160h522v-157z" />
    <glyph glyph-name="eight" unicode="8" horiz-adv-x="678" 
d="M185 14q-67 31 -103.5 86t-36.5 125q0 62 32 114t104 81q-54 22 -77.5 62.5t-23.5 88.5q0 60 32.5 107.5t91.5 74t135 26.5t135 -26.5t91.5 -74t32.5 -107.5q0 -48 -23.5 -88.5t-77.5 -62.5q72 -29 104 -81t32 -114q0 -70 -36.5 -125t-103.5 -86t-154 -31t-154 31z
M404.5 495q23.5 25 23.5 62q0 36 -23 59t-66 23t-66 -23t-23 -59q0 -37 23.5 -62t65.5 -25t65.5 25zM423 164.5q31 31.5 31 77.5q0 49 -31 80.5t-84 31.5t-84 -31.5t-31 -80.5q0 -46 31 -77.5t84 -31.5t84 31.5z" />
    <glyph glyph-name="nine" unicode="9" horiz-adv-x="666" 
d="M540.5 682.5q78.5 -96.5 78.5 -285.5q0 -202 -79.5 -308t-220.5 -106q-118 0 -189 64t-82 177h158q8 -44 38 -67.5t75 -23.5q74 0 105 49t31 139q-61 -70 -159 -70q-72 0 -128 29.5t-87.5 86t-31.5 135.5q0 82 35 145t97.5 97.5t142.5 34.5q138 0 216.5 -96.5z
M253.5 594.5q-25.5 -34.5 -25.5 -92.5q0 -54 25.5 -85.5t73.5 -31.5q50 0 77.5 32t27.5 85q0 57 -28 92t-77 35q-48 0 -73.5 -34.5z" />
    <glyph glyph-name="colon" unicode=":" horiz-adv-x="265" 
d="M66 366q-28 28 -28 67q0 38 28 66t67 28q38 0 65.5 -28t27.5 -66t-27.5 -66.5t-65.5 -28.5q-39 0 -67 28zM65.5 16q-27.5 28 -27.5 67q0 38 28 65.5t67 27.5q38 0 65.5 -27.5t27.5 -65.5q0 -39 -27.5 -67t-65.5 -28q-40 0 -67.5 28z" />
    <glyph glyph-name="semicolon" unicode=";" horiz-adv-x="276" 
d="M58 366q-28 28 -28 67q0 38 27.5 66t66.5 28q38 0 66 -27.5t28 -66.5t-28 -67t-66 -28t-66 28zM38 -84q49 0 79.5 17.5t38.5 51.5q3 12 3 27q-9 -13 -21.5 -18t-30.5 -5q-30 0 -53.5 25t-23.5 65q0 44 28 70.5t74 26.5q56 0 85 -39.5t29 -104.5q0 -81 -50 -139t-158 -63
v86z" />
    <glyph glyph-name="less" unicode="&#x3c;" horiz-adv-x="564" 
d="M520 253v-159l-485 171v174l485 169v-159l-302 -98z" />
    <glyph glyph-name="equal" unicode="=" horiz-adv-x="532" 
d="M496 413h-460v137h460v-137zM496 155h-460v138h460v-138z" />
    <glyph glyph-name="greater" unicode="&#x3e;" horiz-adv-x="564" 
d="M529 265l-485 -171v159l302 98l-302 98v159l485 -169v-174z" />
    <glyph glyph-name="question" unicode="?" horiz-adv-x="561" 
d="M199 289q0 54 14.5 89t35 54.5t53.5 41.5q35 25 51 44t16 52q0 39 -25 58t-63 19q-45 0 -73.5 -31.5t-32.5 -91.5h-151q3 81 38 138.5t93 87t131 29.5q105 0 173.5 -55t68.5 -163q0 -46 -12.5 -77t-30.5 -49.5t-48 -40.5q-35 -26 -54 -47.5t-26 -58.5l-10 -51h-148v52z
M205.5 16q-27.5 28 -27.5 66t27.5 66t66.5 28q38 0 66 -27.5t28 -65.5q0 -39 -27.5 -67t-66.5 -28t-66.5 28z" />
    <glyph glyph-name="at" unicode="@" horiz-adv-x="1014" 
d="M258 -127q-107 60 -166.5 166.5t-59.5 241.5q0 138 61 250t170.5 176.5t248.5 64.5q134 0 241 -60.5t167.5 -168.5t60.5 -245q0 -98 -31.5 -175t-89 -121t-132.5 -44q-63 0 -98 38.5t-40 109.5q-64 -88 -166 -88q-50 0 -91 25.5t-65 75.5t-24 119q0 87 37 165.5
t101.5 126t142.5 47.5q42 0 72 -18.5t54 -63.5l9 55h99l-13 -62q-32 -149 -47 -230.5t-15 -125.5q0 -43 15 -61.5t43 -18.5q39 0 70.5 31.5t50 87t18.5 125.5q0 111 -46.5 197t-130 133t-190.5 47q-112 0 -199.5 -51t-136 -140.5t-48.5 -200.5q0 -108 46 -191.5t130.5 -130
t195.5 -46.5q71 0 128 20v-103q-56 -17 -129 -17q-136 0 -243 60zM527 153q42 36 66 93.5t24 118.5q0 113 -89 113q-52 0 -94.5 -34t-66.5 -89.5t-24 -118.5q0 -119 91 -119q51 0 93 36z" />
    <glyph glyph-name="A" unicode="A" horiz-adv-x="720" 
d="M192 0h-190l261 763h194l261 -763h-190l-41 137h-254zM360 564l-80 -272h160z" />
    <glyph glyph-name="B" unicode="B" horiz-adv-x="703" 
d="M60 0v763h312q151 0 214 -66q45 -47 45 -125q0 -63 -26 -107t-76 -64q68 -15 104.5 -60t36.5 -115q0 -54 -21 -99t-55 -71q-74 -56 -208 -56h-326zM357 455q95 0 95 75q0 37 -24 55q-13 10 -34.5 14t-60.5 4h-94v-148h118zM363 160q38 0 63.5 5t41.5 18q23 18 23 58
q0 44 -27.5 59t-87.5 15h-137v-155h124z" />
    <glyph glyph-name="C" unicode="C" horiz-adv-x="779" 
d="M202 37q-86 54 -128 144.5t-42 200.5t42 200t127.5 143.5t211.5 53.5q147 0 235 -74t103 -200h-196q-8 57 -47.5 85.5t-98.5 28.5q-90 0 -139 -63.5t-49 -173.5t49 -174.5t139 -64.5q59 0 98 29t48 87h196q-15 -127 -103 -201.5t-235 -74.5q-125 0 -211 54z" />
    <glyph glyph-name="D" unicode="D" horiz-adv-x="726" 
d="M60 0v763h231q195 0 299 -98t104 -282q0 -185 -104 -284t-299 -99h-231zM289 160q112 0 169 54.5t57 168.5q0 107 -60 163.5t-166 56.5h-50v-443h50z" />
    <glyph glyph-name="E" unicode="E" 
d="M581 0h-521v763h521v-160h-342v-142h309v-159h-309v-142h342v-160z" />
    <glyph glyph-name="F" unicode="F" horiz-adv-x="606" 
d="M239 0h-179v763h521v-160h-342v-142h309v-159h-309v-302z" />
    <glyph glyph-name="G" unicode="G" horiz-adv-x="827" 
d="M201 37q-86 54 -128 144.5t-42 200.5t42 200t127.5 143.5t211.5 53.5q158 0 251 -73.5t112 -200.5h-196q-27 114 -167 114q-89 0 -140.5 -64t-51.5 -173q0 -111 54.5 -175t157.5 -64q160 0 167 139h-159v144h338v-426h-163v71q-36 -50 -88.5 -69t-114.5 -19
q-125 0 -211 54z" />
    <glyph glyph-name="H" unicode="H" horiz-adv-x="770" 
d="M239 0h-179v763h179v-302h290v302h179v-763h-179v301h-290v-301z" />
    <glyph glyph-name="I" unicode="I" horiz-adv-x="300" 
d="M239 0h-179v763h179v-763z" />
    <glyph glyph-name="J" unicode="J" horiz-adv-x="402" 
d="M8 0v160h98q60 0 60 60v543h180v-545q0 -86 -24.5 -133t-76 -66t-139.5 -19h-98z" />
    <glyph glyph-name="K" unicode="K" horiz-adv-x="695" 
d="M239 0h-179v763h179v-331l237 331h215l-280 -370l284 -393h-217l-239 342v-342z" />
    <glyph glyph-name="L" unicode="L" horiz-adv-x="558" 
d="M550 0h-490v763h179v-603h311v-160z" />
    <glyph glyph-name="M" unicode="M" horiz-adv-x="949" 
d="M239 0h-179v763h288l126 -549l125 549h289v-763h-179v620l-148 -620h-174l-148 616v-616z" />
    <glyph glyph-name="N" unicode="N" horiz-adv-x="774" 
d="M239 0h-179v763h182l293 -463v463h179v-763h-182l-293 466v-466z" />
    <glyph glyph-name="O" unicode="O" horiz-adv-x="826" 
d="M202 37q-86 54 -128 144.5t-42 200.5t42 200t127.5 143.5t211.5 53.5q125 0 210.5 -53.5t127.5 -143.5t42 -200t-42 -200.5t-127.5 -144.5t-210.5 -54t-211 54zM553 207.5q51 64.5 51 174.5q0 109 -51 173t-140 64t-140.5 -64t-51.5 -173q0 -110 51.5 -174.5t140.5 -64.5
t140 64.5z" />
    <glyph glyph-name="P" unicode="P" horiz-adv-x="683" 
d="M60 0v763h360q112 0 176.5 -55.5t64.5 -174.5q0 -74 -30.5 -128t-85.5 -82.5t-125 -28.5h-181v-294h-179zM395 449q89 0 89 78q0 37 -22.5 56.5t-66.5 19.5h-156v-154h156z" />
    <glyph glyph-name="Q" unicode="Q" horiz-adv-x="828" 
d="M765 215q-28 -78 -83 -132l108 -170h-202l-52 86q-59 -16 -123 -16q-125 0 -211 54t-128 144.5t-42 200.5t42 200t127.5 143.5t211.5 53.5q125 0 210.5 -53.5t127.5 -143.5t42 -200q0 -89 -28 -167zM272.5 207.5q51.5 -64.5 140.5 -64.5t140 64.5t51 174.5q0 109 -51 173
t-140 64t-140.5 -64t-51.5 -173q0 -110 51.5 -174.5z" />
    <glyph glyph-name="R" unicode="R" horiz-adv-x="708" 
d="M684 0h-189l-111 294h-145v-294h-179v763h360q112 0 176.5 -55.5t64.5 -174.5q0 -71 -29 -124t-80 -82zM239 603v-154h156q89 0 89 78q0 37 -22.5 56.5t-66.5 19.5h-156z" />
    <glyph glyph-name="S" unicode="S" horiz-adv-x="712" 
d="M223 9q-77 26 -131 88t-61 162h185q33 -126 164 -126q50 0 84.5 21.5t34.5 63.5q0 28 -21.5 46t-54 28t-91.5 23q-89 20 -144.5 41t-96 66.5t-40.5 123.5q0 76 37.5 128.5t101.5 78.5t144 26q82 0 152 -28.5t116 -86t58 -139.5h-185q-14 49 -51.5 76.5t-93.5 27.5
q-42 0 -71.5 -17t-29.5 -51q0 -26 20.5 -42.5t52 -26.5t88.5 -23q89 -20 147 -42t100 -70t42 -130q0 -75 -36 -130t-103 -84.5t-159 -29.5q-81 0 -158 26z" />
    <glyph glyph-name="T" unicode="T" horiz-adv-x="625" 
d="M402 0h-179v603h-215v160h609v-160h-215v-603z" />
    <glyph glyph-name="U" unicode="U" horiz-adv-x="754" 
d="M130 64q-78 81 -78 221v478h180v-478q0 -66 32 -104t113 -38t112.5 38t31.5 104v478h180v-478q0 -140 -78 -221t-246 -81q-169 0 -247 81z" />
    <glyph glyph-name="V" unicode="V" horiz-adv-x="708" 
d="M451 0h-194l-261 763h190l168 -562l168 562h190z" />
    <glyph glyph-name="W" unicode="W" horiz-adv-x="1138" 
d="M483 0h-290l-182 763h188l136 -635l111 635h246l111 -636l136 636h188l-182 -763h-290l-86 576z" />
    <glyph glyph-name="X" unicode="X" horiz-adv-x="749" 
d="M216 0h-212l247 379l-249 384h213l159 -263l160 263h213l-249 -384l247 -379h-212l-158 245z" />
    <glyph glyph-name="Y" unicode="Y" horiz-adv-x="718" 
d="M453 0h-188v303l-273 460h209l158 -287l158 287h209l-273 -460v-303z" />
    <glyph glyph-name="Z" unicode="Z" 
d="M593 0h-567v121l339 482h-318v160h544v-127l-333 -476h335v-160z" />
    <glyph glyph-name="bracketleft" unicode="[" horiz-adv-x="342" 
d="M333 -110h-249v982h249v-107h-121v-768h121v-107z" />
    <glyph glyph-name="backslash" unicode="\" horiz-adv-x="486" 
d="M513 -111h-149l-354 874h148z" />
    <glyph glyph-name="bracketright" unicode="]" horiz-adv-x="342" 
d="M258 872v-982h-249v107h121v768h-121v107h249z" />
    <glyph glyph-name="asciicircum" unicode="^" horiz-adv-x="568" 
d="M186 278h-159l171 485h174l169 -485h-159l-99 304z" />
    <glyph glyph-name="underscore" unicode="_" horiz-adv-x="443" 
d="M456 -121h-470v121h470v-121z" />
    <glyph glyph-name="grave" unicode="`" horiz-adv-x="280" 
d="M164 763l114 -145h-121l-155 145h162z" />
    <glyph glyph-name="a" unicode="a" horiz-adv-x="601" 
d="M85.5 32.5q-52.5 44.5 -52.5 126.5q0 90 71 137q27 17 59.5 27t74.5 18l147 26q-3 43 -23 66q-19 20 -57 20q-30 0 -54 -20t-30 -55h-167q10 68 47.5 113t91 66.5t113.5 21.5q52 0 97.5 -14t78.5 -42t48 -66t18.5 -79t3.5 -109v-269h-168v69q-14 -33 -40 -51
q-43 -30 -125 -30q-81 0 -133.5 44.5zM329 129q33 15 45 42t14 77l-103 -20q-28 -5 -43.5 -11t-25.5 -16q-15 -15 -15 -36q0 -25 19 -37.5t48 -12.5q30 0 61 14z" />
    <glyph glyph-name="b" unicode="b" horiz-adv-x="649" 
d="M285 4q-35 16 -62 57v-61h-168v763h168v-257q27 41 62 57t83 16q72 0 128 -37.5t87.5 -105t31.5 -152.5q0 -86 -31.5 -153.5t-87.5 -105t-128 -37.5q-48 0 -83 16zM411 173.5q34 42.5 34 110.5q0 67 -34 109.5t-90 42.5t-90 -42t-34 -110q0 -69 34 -111t90 -42t90 42.5z
" />
    <glyph glyph-name="c" unicode="c" horiz-adv-x="633" 
d="M172.5 25q-66.5 37 -103.5 104.5t-37 157.5q0 86 36.5 152.5t103.5 103t155 36.5q107 0 181.5 -54t96.5 -147h-184q-11 35 -34 51.5t-60 16.5q-56 0 -89 -42.5t-33 -116.5q0 -77 33 -121t89 -44q41 0 64 18.5t32 55.5h183q-21 -97 -96 -152.5t-183 -55.5q-88 0 -154.5 37
z" />
    <glyph glyph-name="d" unicode="d" horiz-adv-x="649" 
d="M153 25.5q-56 37.5 -87.5 105t-31.5 153.5q0 85 31.5 152.5t87.5 105t128 37.5q48 0 83 -16t62 -57v257h168v-763h-168v61q-27 -41 -62 -57t-83 -16q-72 0 -128 37.5zM418 173q34 42 34 111q0 68 -34 110t-90 42t-90 -42.5t-34 -109.5q0 -68 34 -110.5t90 -42.5t90 42z
" />
    <glyph glyph-name="e" unicode="e" horiz-adv-x="648" 
d="M172.5 25.5q-67.5 37.5 -104 103.5t-36.5 150q0 76 31.5 144.5t97 112t162.5 43.5q79 0 145.5 -31t107 -99t40.5 -172v-29h-408q3 -21 11 -40.5t18 -32.5q34 -43 100 -43q37 0 63.5 18t37.5 46h169q-26 -92 -96 -150t-183 -58q-88 0 -155.5 37.5zM446 367q-7 31 -27 51
q-33 33 -90 33t-90 -33q-21 -21 -26 -51h233z" />
    <glyph glyph-name="f" unicode="f" horiz-adv-x="378" 
d="M102 0v437h-81v130h81v55q0 67 42 104t120 37h93v-129h-52q-13 0 -23 -8t-10 -29v-30h85v-130h-85v-437h-170z" />
    <glyph glyph-name="g" unicode="g" horiz-adv-x="650" 
d="M144 -166.5q-74 41.5 -91 146.5h168q13 -35 37 -49t63 -14q54 0 80 25t26 63v76q-27 -41 -62 -57t-83 -16q-71 0 -127.5 37t-88 102t-31.5 146t31.5 146.5t88 102.5t127.5 37q48 0 83 -16t62 -57v61h168v-519q0 -142 -73.5 -199t-199.5 -57q-104 0 -178 41.5z
M418.5 191.5q34.5 40.5 34.5 101.5q0 62 -34.5 102.5t-89.5 40.5t-89.5 -41t-34.5 -102t34 -101.5t90 -40.5q55 0 89.5 40.5z" />
    <glyph glyph-name="h" unicode="h" 
d="M55 0v763h168v-257q27 41 62 57t83 16q140 0 183 -98q15 -33 18.5 -66.5t3.5 -97.5v-317h-168v319q0 42 -5.5 66t-18.5 38q-20 21 -62 21q-54 0 -75 -29q-21 -28 -21 -96v-319h-168z" />
    <glyph glyph-name="i" unicode="i" horiz-adv-x="278" 
d="M223 0h-168v567h168v-567zM71.5 629.5q-27.5 23.5 -27.5 62.5t27.5 63t67.5 24t67.5 -24t27.5 -63t-27.5 -62.5t-67.5 -23.5t-67.5 23.5z" />
    <glyph glyph-name="j" unicode="j" horiz-adv-x="278" 
d="M-33 -196v137h52q36 0 36 35v591h168v-649q0 -54 -34 -84t-96 -30h-126zM71.5 629.5q-27.5 23.5 -27.5 62.5t27.5 63t67.5 24t67.5 -24t27.5 -63t-27.5 -62.5t-67.5 -23.5t-67.5 23.5z" />
    <glyph glyph-name="k" unicode="k" 
d="M223 0h-168v763h168v-395l180 199h207l-233 -244l246 -323h-200l-200 272v-272z" />
    <glyph glyph-name="l" unicode="l" horiz-adv-x="318" 
d="M182 0q-62 0 -96 29.5t-34 83.5v650h168v-592q0 -35 33 -35h42v-136h-113z" />
    <glyph glyph-name="m" unicode="m" horiz-adv-x="905" 
d="M55 0v567h168v-61q50 73 145 73q114 0 144 -82q26 41 63.5 61.5t93.5 20.5q93 0 139 -54.5t46 -150.5v-374h-168v359q0 46 -17.5 65.5t-54.5 19.5q-36 0 -53 -20q-12 -14 -17 -37t-5 -59v-328h-168v359q0 46 -18 65.5t-56 19.5q-35 0 -52 -21q-12 -14 -17 -36t-5 -59
v-328h-168z" />
    <glyph glyph-name="n" unicode="n" 
d="M55 0v567h168v-61q27 41 62 57t83 16q140 0 183 -98q15 -33 18.5 -66.5t3.5 -97.5v-317h-168v319q0 42 -5.5 66t-18.5 38q-20 21 -62 21q-54 0 -75 -29q-21 -28 -21 -96v-319h-168z" />
    <glyph glyph-name="o" unicode="o" horiz-adv-x="660" 
d="M174.5 25q-67.5 37 -105 105t-37.5 157q0 86 37.5 152.5t105 103t155.5 36.5t155.5 -37t105 -103t37.5 -152q0 -89 -37 -157t-104.5 -105t-156.5 -37q-88 0 -155.5 37zM420 174.5q33 42.5 33 112.5q0 67 -33.5 108t-89.5 41t-90.5 -41t-34.5 -108q0 -71 34 -113t91 -42
t90 42.5z" />
    <glyph glyph-name="p" unicode="p" horiz-adv-x="649" 
d="M496 541.5q56 -37.5 87.5 -105t31.5 -153.5q0 -85 -31.5 -152.5t-87.5 -105t-128 -37.5q-48 0 -83 16t-62 57v-257h-168v763h168v-61q27 41 62 57t83 16q72 0 128 -37.5zM231 394q-34 -42 -34 -111q0 -68 34 -110t90 -42t90 42.5t34 109.5q0 68 -34 110.5t-90 42.5
t-90 -42z" />
    <glyph glyph-name="q" unicode="q" horiz-adv-x="649" 
d="M556 -196q-62 0 -96 29.5t-34 83.5v144q-27 -41 -62 -57t-83 -16q-72 0 -128 37.5t-87.5 105t-31.5 152.5q0 86 31.5 153.5t87.5 105t128 37.5q48 0 83 -16t62 -57v61h168v-591q0 -35 34 -35h41v-137h-113zM418 173q34 42 34 110q0 69 -34 111t-90 42t-90 -42.5
t-34 -110.5q0 -67 34 -109.5t90 -42.5t90 42z" />
    <glyph glyph-name="r" unicode="r" horiz-adv-x="410" 
d="M55 0v567h168v-61q27 41 62 57t83 16h25v-160h-32q-64 0 -96 -30q-22 -21 -32 -57t-10 -93v-239h-168z" />
    <glyph glyph-name="s" unicode="s" horiz-adv-x="588" 
d="M184.5 8.5q-60.5 20.5 -103.5 67t-52 120.5h163q13 -40 45 -60.5t71 -20.5q35 0 57.5 14t22.5 37q0 26 -28 38t-89 24q-67 13 -111 28.5t-76 51.5t-32 98q0 88 65 130.5t163 42.5q105 0 174.5 -52.5t85.5 -147.5h-159q-11 38 -39 56t-63 18q-31 0 -49.5 -12t-18.5 -31
q0 -26 28.5 -37.5t90.5 -22.5q68 -12 113 -27t77.5 -50t32.5 -96q0 -56 -29.5 -99t-84.5 -66.5t-129 -23.5q-65 0 -125.5 20.5z" />
    <glyph glyph-name="t" unicode="t" horiz-adv-x="398" 
d="M230 0q-62 0 -96.5 29.5t-34.5 83.5v323h-78v131h78v196h168v-196h98v-131h-98v-266q0 -34 34 -34h63v-136h-134z" />
    <glyph glyph-name="u" unicode="u" 
d="M73 86q-13 29 -17.5 61.5t-4.5 102.5v317h168v-319q0 -42 5.5 -66t18.5 -38q20 -21 62 -21q52 0 75 29q11 15 16 37.5t5 58.5v319h168v-567h-168v61q-26 -38 -60 -55.5t-85 -17.5q-139 0 -183 98z" />
    <glyph glyph-name="v" unicode="v" horiz-adv-x="564" 
d="M348 0h-133l-209 567h178l96 -318l100 318h178z" />
    <glyph glyph-name="w" unicode="w" horiz-adv-x="860" 
d="M346 0h-160l-177 567h179l83 -330l85 330h144l86 -328l86 328h178l-181 -567h-159l-80 341z" />
    <glyph glyph-name="x" unicode="x" horiz-adv-x="604" 
d="M197 0h-189l187 287l-188 280h190l102 -169l105 169h194l-193 -280l192 -287h-192l-105 173z" />
    <glyph glyph-name="y" unicode="y" horiz-adv-x="576" 
d="M69 -196v137h68q24 0 40 8t26 31l5 12l-201 575h180l107 -402l92 402h181l-201 -603q-29 -87 -72.5 -123.5t-123.5 -36.5h-101z" />
    <glyph glyph-name="z" unicode="z" horiz-adv-x="570" 
d="M536 0h-507v101l291 334h-275v132h491v-109l-279 -326h279v-132z" />
    <glyph glyph-name="braceleft" unicode="{" horiz-adv-x="334" 
d="M215 -110q-62 0 -93.5 42.5t-31.5 117.5v176q0 46 -19 66t-54 31v116q35 11 54 31t19 66v176q0 75 31.5 117.5t93.5 42.5h97v-102h-40q-28 0 -37 -17t-9 -44v-176q0 -64 -25.5 -100.5t-71.5 -51.5q46 -15 71.5 -51.5t25.5 -100.5v-176q0 -27 9 -44t37 -17h40v-102h-97z
" />
    <glyph glyph-name="bar" unicode="|" horiz-adv-x="340" 
d="M234 -110h-128v982h128v-982z" />
    <glyph glyph-name="braceright" unicode="}" horiz-adv-x="334" 
d="M22 -110v102h40q28 0 37 17t9 44v176q0 64 25.5 100.5t71.5 51.5q-46 15 -71.5 51.5t-25.5 100.5v176q0 27 -9 44t-37 17h-40v102h97q62 0 93.5 -42.5t31.5 -117.5v-176q0 -46 19 -66t54 -31v-116q-35 -11 -54 -31t-19 -66v-176q0 -75 -31.5 -117.5t-93.5 -42.5h-97z" />
    <glyph glyph-name="asciitilde" unicode="~" horiz-adv-x="527" 
d="M234 213.5q-22 12.5 -45 34.5q-13 12 -20 17t-15 5q-25 0 -28 -68h-89q3 76 36 120.5t87 44.5q30 0 51.5 -12.5t45.5 -34.5q12 -11 19.5 -16.5t14.5 -5.5q11 0 18 16.5t8 48.5h92q-5 -83 -33 -122.5t-86 -39.5q-34 0 -56 12.5z" />
    <glyph glyph-name="uni00A0" unicode="&#xa0;" horiz-adv-x="240" 
 />
    <glyph glyph-name="exclamdown" unicode="&#xa1;" horiz-adv-x="372" 
d="M265.5 551q27.5 -28 27.5 -67q0 -38 -28 -65.5t-67 -27.5q-38 0 -65.5 27.5t-27.5 65.5q0 39 27.5 67t65.5 28q40 0 67.5 -28zM269 328q2 -32 4 -49q10 -128 10 -194v-281h-168v281q0 83 11 213q0 10 2 30h141z" />
    <glyph glyph-name="cent" unicode="&#xa2;" horiz-adv-x="633" 
d="M606 196q-19 -92 -88 -146.5t-168 -60.5v-89h-42v88q-82 4 -144.5 42.5t-97 104.5t-34.5 152q0 83 34 147.5t96.5 102.5t145.5 42v88h42v-89q98 -6 166.5 -59.5t88.5 -140.5h-184q-20 57 -71 66v-320q59 8 73 72h183zM232.5 174q27.5 -43 75.5 -51v322
q-48 -8 -75.5 -49.5t-27.5 -108.5q0 -70 27.5 -113z" />
    <glyph glyph-name="sterling" unicode="&#xa3;" horiz-adv-x="628" 
d="M45 152q68 4 102.5 32.5t34.5 71.5q0 47 -35 105h-97v106h68q-16 36 -16 86q0 70 32 121t86 78t120 27q62 0 115 -25.5t88.5 -76t44.5 -122.5h-160q-6 42 -29.5 61.5t-55.5 19.5q-45 0 -67.5 -24.5t-22.5 -66.5q0 -41 15 -78h192v-106h-158q31 -71 31 -115q0 -58 -49 -93
h301v-153h-540v152z" />
    <glyph glyph-name="currency" unicode="&#xa4;" horiz-adv-x="718" 
d="M156 51l-86 90l65 64q-37 61 -37 134q0 74 37 135l-61 65l83 90l69 -68q56 39 134 39q73 0 134 -37l66 64l88 -86l-66 -65q38 -64 38 -136q0 -74 -38 -136l66 -65l-86 -88l-68 66q-61 -37 -135 -37q-73 0 -135 37zM410 211.5q25 10.5 46 31.5q19 20 29.5 45.5t10.5 51.5
t-10 51t-30 44q-20 20 -45.5 30.5t-52.5 10.5t-52 -10.5t-44 -30.5q-40 -41 -40 -98q0 -26 10 -51t29 -44t45 -30t53 -11q26 0 51 10.5z" />
    <glyph glyph-name="yen" unicode="&#xa5;" horiz-adv-x="718" 
d="M517 763h209l-252 -425h98v-80h-119v-34h119v-80h-119v-144h-188v144h-119v80h119v34h-119v80h98l-252 425h209l158 -287z" />
    <glyph glyph-name="brokenbar" unicode="&#xa6;" horiz-adv-x="340" 
d="M234 440h-128v432h128v-432zM234 -110h-128v432h128v-432z" />
    <glyph glyph-name="section" unicode="&#xa7;" horiz-adv-x="736" 
d="M232.5 -213.5q-73.5 23.5 -124 79.5t-56.5 148h183q10 -55 50 -79t93 -24q49 0 82 18.5t33 51.5q0 29 -22.5 47t-56.5 29t-90 23l-45 11q-95 24 -152.5 66.5t-57.5 128.5q0 97 82 143q-43 14 -62.5 50.5t-19.5 83.5q0 68 38.5 116.5t103 74t141.5 25.5t143 -27.5
t108.5 -81.5t50.5 -129h-172q-10 43 -44.5 65.5t-83.5 22.5q-43 0 -70.5 -16.5t-27.5 -43.5q0 -22 20 -36.5t48 -23t80 -20.5l29 -6q111 -24 178.5 -71t67.5 -146q0 -46 -18 -84.5t-64 -57.5q45 -16 63.5 -52t18.5 -82q0 -68 -35.5 -119t-101.5 -79.5t-156 -28.5
q-80 0 -153.5 23.5zM482 225q11 14 11 33q0 28 -22 46.5t-62 31.5l-51 14q-5 1 -16 1q-34 0 -60 -16t-26 -42q0 -19 9.5 -30.5t34 -21t73.5 -21.5q34 -8 78 -17q20 8 31 22z" />
    <glyph glyph-name="dieresis" unicode="&#xa8;" horiz-adv-x="413" 
d="M29.5 629.5q-27.5 23.5 -27.5 62.5t27.5 63t67.5 24t67.5 -24t27.5 -63t-27.5 -62.5t-67.5 -23.5t-67.5 23.5zM248.5 629.5q-27.5 23.5 -27.5 62.5t27.5 63t67.5 24t67.5 -24t27.5 -63t-27.5 -62.5t-67.5 -23.5t-67.5 23.5z" />
    <glyph glyph-name="copyright" unicode="&#xa9;" horiz-adv-x="857" 
d="M233.5 45.5q-88.5 51.5 -140.5 140t-52 194.5q0 108 51.5 197.5t140 141.5t195.5 52t195.5 -52t140 -141.5t51.5 -197.5q0 -106 -52 -194.5t-140.5 -140t-194.5 -51.5t-194.5 51.5zM573 132q66 38 104 104t38 144q0 81 -38 147.5t-103.5 105t-145.5 38.5t-145.5 -38.5
t-103.5 -105t-38 -147.5q0 -78 38 -144t104 -104t145 -38t145 38zM323.5 198q-47.5 28 -75.5 76t-28 106t28 106t75.5 76t104.5 28q45 0 89 -21t73 -56l-81 -62q-16 19 -39.5 29t-47.5 10q-45 0 -77 -32t-32 -78t32 -78t77 -32q24 0 47.5 10t39.5 29l81 -62
q-28 -35 -72.5 -56t-89.5 -21q-57 0 -104.5 28z" />
    <glyph glyph-name="ordfeminine" unicode="&#xaa;" horiz-adv-x="445" 
d="M70 393q-37 31 -37 88q0 63 50 96q30 19 94 32l103 18q-3 32 -17 46q-13 14 -39 14q-22 0 -38.5 -14t-20.5 -38h-117q11 70 60.5 105t115.5 35q36 0 68.5 -9.5t54.5 -29.5q33 -28 41 -67.5t8 -110.5v-188h-117v48q-9 -22 -28 -35q-30 -21 -88 -21q-56 0 -93 31zM240 460
q23 11 31.5 29.5t10.5 54.5l-72 -14q-35 -7 -49 -19q-10 -12 -10 -25q0 -35 47 -35q21 0 42 9z" />
    <glyph glyph-name="guillemotleft" unicode="&#xab;" horiz-adv-x="576" 
d="M232 221v-141l-240 195l240 197v-140l-73 -57zM500 221v-141l-240 195l240 197v-140l-73 -57z" />
    <glyph glyph-name="uni00AD" unicode="&#xad;" horiz-adv-x="404" 
d="M404 258h-404v120h404v-120z" />
    <glyph glyph-name="registered" unicode="&#xae;" horiz-adv-x="479" 
d="M136.5 400q-46.5 27 -73.5 73.5t-27 102.5t27 102.5t73.5 73.5t102.5 27t102.5 -27t73.5 -73.5t27 -102.5t-27 -102.5t-73.5 -73.5t-102.5 -27t-102.5 27zM322 432.5q38 22.5 60.5 60.5t22.5 83t-22.5 83t-60.5 60.5t-83 22.5t-83 -22.5t-60.5 -60.5t-22.5 -83t22.5 -83
t60.5 -60.5t83 -22.5t83 22.5zM152 458v236h111q34 0 54.5 -17.5t20.5 -53.5q0 -48 -35 -60l42 -105h-59l-34 91h-45v-91h-55zM255 597q28 0 28 24q0 11 -7.5 17.5t-20.5 6.5h-48v-48h48z" />
    <glyph glyph-name="macron" unicode="&#xaf;" horiz-adv-x="306" 
d="M304 619h-302v78h302v-78z" />
    <glyph glyph-name="degree" unicode="&#xb0;" horiz-adv-x="446" 
d="M143.5 482.5q-36.5 21.5 -58 58t-21.5 79.5q0 44 21.5 80.5t58.5 57.5t79 21q43 0 79.5 -21.5t57.5 -58t21 -79.5t-21 -79.5t-57.5 -58t-79.5 -21.5t-79.5 21.5zM268.5 575.5q18.5 18.5 18.5 44.5t-18.5 44.5t-45.5 18.5t-45.5 -18.5t-18.5 -44.5t18.5 -44.5t45.5 -18.5
t45.5 18.5z" />
    <glyph glyph-name="plusminus" unicode="&#xb1;" horiz-adv-x="695" 
d="M409 164h-123v141h-220v121h220v141h123v-141h221v-121h-221v-141zM630 0h-564v121h564v-121z" />
    <glyph glyph-name="acute" unicode="&#xb4;" horiz-adv-x="280" 
d="M123 618h-121l114 145h162z" />
    <glyph glyph-name="paragraph" unicode="&#xb6;" horiz-adv-x="649" 
d="M264 335q-65 4 -121 30.5t-90 74t-34 110.5q0 65 34 113.5t90.5 74t120.5 25.5h112v-873h-112v445zM588 -110h-113v873h113v-873z" />
    <glyph glyph-name="periodcentered" unicode="&#xb7;" horiz-adv-x="312" 
d="M96 341q-24 25 -24 59q0 35 24.5 60t58.5 25q35 0 60 -24.5t25 -60.5q0 -34 -25 -59t-60 -25t-59 25z" />
    <glyph glyph-name="cedilla" unicode="&#xb8;" horiz-adv-x="236" 
d="M2 -193v61q54 -20 87 -20q22 0 33.5 9t11.5 25q0 30 -33.5 40.5t-91.5 10.5l81 90h100q-16 -16 -30 -28t-38 -27l5 -9q7 1 20 1q35 0 55 -12q17 -10 24.5 -25t7.5 -37q0 -46 -38 -70t-98 -24q-48 0 -96 15z" />
    <glyph glyph-name="ordmasculine" unicode="&#xba;" horiz-adv-x="482" 
d="M132 388q-47 26 -73.5 73t-26.5 110q0 60 26 106.5t73.5 72t109.5 25.5t109.5 -25.5t73.5 -72t26 -106.5q0 -94 -57 -151.5t-152 -57.5q-62 0 -109 26zM303.5 492q23.5 30 23.5 79q0 47 -23.5 75.5t-62.5 28.5t-63 -28.5t-24 -75.5q0 -50 24 -79.5t63 -29.5t62.5 30z" />
    <glyph glyph-name="guillemotright" unicode="&#xbb;" horiz-adv-x="576" 
d="M316 275l-240 -195v141l73 54l-73 57v140zM584 275l-240 -195v141l73 54l-73 57v140z" />
    <glyph glyph-name="questiondown" unicode="&#xbf;" horiz-adv-x="509" 
d="M320.5 551q27.5 -28 27.5 -66t-27.5 -66t-66.5 -28q-38 0 -66 27.5t-28 65.5q0 40 28 67.5t66 27.5q39 0 66.5 -28zM327 278q0 -54 -14.5 -89t-35 -54.5t-53.5 -41.5q-35 -25 -51 -44t-16 -52q0 -39 25 -58t63 -19q45 0 73.5 31.5t32.5 91.5h151q-3 -81 -38 -138.5
t-93 -87t-131 -29.5q-105 0 -173.5 55t-68.5 163q0 46 12.5 77t30.5 49.5t48 40.5q35 26 54 47.5t26 58.5l10 51h148v-52z" />
    <glyph glyph-name="Agrave" unicode="&#xc0;" horiz-adv-x="720" 
d="M192 0h-190l261 763h194l261 -763h-190l-41 137h-254zM360 564l-80 -272h160zM315 959l114 -145h-121l-155 145h162z" />
    <glyph glyph-name="Aacute" unicode="&#xc1;" horiz-adv-x="720" 
d="M192 0h-190l261 763h194l261 -763h-190l-41 137h-254zM360 564l-80 -272h160zM412 814h-121l114 145h162z" />
    <glyph glyph-name="Acircumflex" unicode="&#xc2;" horiz-adv-x="720" 
d="M192 0h-190l261 763h194l261 -763h-190l-41 137h-254zM360 564l-80 -272h160zM315 814h-131l169 178h14l169 -178h-131l-45 63z" />
    <glyph glyph-name="Atilde" unicode="&#xc3;" horiz-adv-x="720" 
d="M192 0h-190l261 763h194l261 -763h-190l-41 137h-254zM360 564l-80 -272h160zM370 809.5q-22 12.5 -45 34.5q-13 12 -20 17t-15 5q-25 0 -28 -68h-89q3 76 36 120.5t87 44.5q30 0 51.5 -12.5t45.5 -34.5q12 -11 19.5 -16.5t14.5 -5.5q11 0 18 16.5t8 48.5h92
q-5 -83 -33 -122.5t-86 -39.5q-34 0 -56 12.5z" />
    <glyph glyph-name="Adieresis" unicode="&#xc4;" horiz-adv-x="720" 
d="M192 0h-190l261 763h194l261 -763h-190l-41 137h-254zM360 564l-80 -272h160zM182.5 825.5q-27.5 23.5 -27.5 62.5t27.5 63t67.5 24t67.5 -24t27.5 -63t-27.5 -62.5t-67.5 -23.5t-67.5 23.5zM401.5 825.5q-27.5 23.5 -27.5 62.5t27.5 63t67.5 24t67.5 -24t27.5 -63
t-27.5 -62.5t-67.5 -23.5t-67.5 23.5z" />
    <glyph glyph-name="Aring" unicode="&#xc5;" horiz-adv-x="720" 
d="M254 736q-27 33 -27 80q0 36 18 66.5t48.5 48.5t66.5 18t66.5 -18t48.5 -48.5t18 -66.5q0 -46 -26 -80l251 -736h-190l-41 137h-254l-41 -137h-190zM395.5 780.5q13.5 14.5 13.5 37.5q0 21 -13 34t-36 13t-36 -13.5t-13 -33.5q0 -23 14 -37.5t35 -14.5q22 0 35.5 14.5z
M360 563l-80 -271h160z" />
    <glyph glyph-name="AE" unicode="&#xc6;" horiz-adv-x="1028" 
d="M192 0h-190l261 763h501l56 -160h-306l48 -142h307l54 -159h-306l48 -142h307l54 -160h-498l-41 137h-254zM360 563l-80 -271h160z" />
    <glyph glyph-name="Ccedilla" unicode="&#xc7;" horiz-adv-x="779" 
d="M507 172q39 29 48 87h196q-15 -126 -102 -200.5t-234 -75.5q-6 -5 -22 -15l5 -9q7 1 20 1q35 0 55 -12q17 -10 24.5 -25t7.5 -37q0 -46 -38 -70t-98 -24q-48 0 -96 15v61q54 -20 87 -20q22 0 33.5 9t11.5 25q0 30 -33.5 40.5t-91.5 10.5l51 57q-99 17 -166 73t-100 139
t-33 180q0 110 42 200t127.5 143.5t211.5 53.5q147 0 235 -74t103 -200h-196q-8 57 -47.5 85.5t-98.5 28.5q-90 0 -139 -63.5t-49 -173.5t49 -174.5t139 -64.5q59 0 98 29z" />
    <glyph glyph-name="Egrave" unicode="&#xc8;" 
d="M581 0h-521v763h521v-160h-342v-142h309v-159h-309v-142h342v-160zM276 959l114 -145h-121l-155 145h162z" />
    <glyph glyph-name="Eacute" unicode="&#xc9;" 
d="M581 0h-521v763h521v-160h-342v-142h309v-159h-309v-142h342v-160zM373 814h-121l114 145h162z" />
    <glyph glyph-name="Ecircumflex" unicode="&#xca;" 
d="M581 0h-521v763h521v-160h-342v-142h309v-159h-309v-142h342v-160zM276 814h-131l169 178h14l169 -178h-131l-45 63z" />
    <glyph glyph-name="Edieresis" unicode="&#xcb;" 
d="M581 0h-521v763h521v-160h-342v-142h309v-159h-309v-142h342v-160zM143.5 825.5q-27.5 23.5 -27.5 62.5t27.5 63t67.5 24t67.5 -24t27.5 -63t-27.5 -62.5t-67.5 -23.5t-67.5 23.5zM362.5 825.5q-27.5 23.5 -27.5 62.5t27.5 63t67.5 24t67.5 -24t27.5 -63t-27.5 -62.5
t-67.5 -23.5t-67.5 23.5z" />
    <glyph glyph-name="Igrave" unicode="&#xcc;" horiz-adv-x="300" 
d="M239 0h-179v763h179v-763zM105 959l114 -145h-121l-155 145h162z" />
    <glyph glyph-name="Iacute" unicode="&#xcd;" horiz-adv-x="300" 
d="M239 0h-179v763h179v-763zM202 814h-121l114 145h162z" />
    <glyph glyph-name="Icircumflex" unicode="&#xce;" horiz-adv-x="300" 
d="M239 0h-179v763h179v-763zM105 814h-131l169 178h14l169 -178h-131l-45 63z" />
    <glyph glyph-name="Idieresis" unicode="&#xcf;" horiz-adv-x="300" 
d="M239 0h-179v763h179v-763zM-27.5 825.5q-27.5 23.5 -27.5 62.5t27.5 63t67.5 24t67.5 -24t27.5 -63t-27.5 -62.5t-67.5 -23.5t-67.5 23.5zM191.5 825.5q-27.5 23.5 -27.5 62.5t27.5 63t67.5 24t67.5 -24t27.5 -63t-27.5 -62.5t-67.5 -23.5t-67.5 23.5z" />
    <glyph glyph-name="Eth" unicode="&#xd0;" horiz-adv-x="726" 
d="M291 763q195 0 299 -98t104 -282q0 -185 -104 -284t-299 -99h-231v321h-59v121h59v321h231zM289 160q112 0 169 54.5t57 168.5q0 107 -60 163.5t-166 56.5h-50v-161h183v-121h-183v-161h50z" />
    <glyph glyph-name="Ntilde" unicode="&#xd1;" horiz-adv-x="774" 
d="M239 0h-179v763h182l293 -463v463h179v-763h-182l-293 466v-466zM397 809.5q-22 12.5 -45 34.5q-13 12 -20 17t-15 5q-25 0 -28 -68h-89q3 76 36 120.5t87 44.5q30 0 51.5 -12.5t45.5 -34.5q12 -11 19.5 -16.5t14.5 -5.5q11 0 18 16.5t8 48.5h92q-5 -83 -33 -122.5
t-86 -39.5q-34 0 -56 12.5z" />
    <glyph glyph-name="Ograve" unicode="&#xd2;" horiz-adv-x="826" 
d="M202 37q-86 54 -128 144.5t-42 200.5t42 200t127.5 143.5t211.5 53.5q125 0 210.5 -53.5t127.5 -143.5t42 -200t-42 -200.5t-127.5 -144.5t-210.5 -54t-211 54zM553 207.5q51 64.5 51 174.5q0 109 -51 173t-140 64t-140.5 -64t-51.5 -173q0 -110 51.5 -174.5t140.5 -64.5
t140 64.5zM367 959l114 -145h-121l-155 145h162z" />
    <glyph glyph-name="Oacute" unicode="&#xd3;" horiz-adv-x="826" 
d="M202 37q-86 54 -128 144.5t-42 200.5t42 200t127.5 143.5t211.5 53.5q125 0 210.5 -53.5t127.5 -143.5t42 -200t-42 -200.5t-127.5 -144.5t-210.5 -54t-211 54zM553 207.5q51 64.5 51 174.5q0 109 -51 173t-140 64t-140.5 -64t-51.5 -173q0 -110 51.5 -174.5t140.5 -64.5
t140 64.5zM464 814h-121l114 145h162z" />
    <glyph glyph-name="Ocircumflex" unicode="&#xd4;" horiz-adv-x="826" 
d="M202 37q-86 54 -128 144.5t-42 200.5t42 200t127.5 143.5t211.5 53.5q125 0 210.5 -53.5t127.5 -143.5t42 -200t-42 -200.5t-127.5 -144.5t-210.5 -54t-211 54zM553 207.5q51 64.5 51 174.5q0 109 -51 173t-140 64t-140.5 -64t-51.5 -173q0 -110 51.5 -174.5t140.5 -64.5
t140 64.5zM367 814h-131l169 178h14l169 -178h-131l-45 63z" />
    <glyph glyph-name="Otilde" unicode="&#xd5;" horiz-adv-x="826" 
d="M202 37q-86 54 -128 144.5t-42 200.5t42 200t127.5 143.5t211.5 53.5q125 0 210.5 -53.5t127.5 -143.5t42 -200t-42 -200.5t-127.5 -144.5t-210.5 -54t-211 54zM553 207.5q51 64.5 51 174.5q0 109 -51 173t-140 64t-140.5 -64t-51.5 -173q0 -110 51.5 -174.5t140.5 -64.5
t140 64.5zM422 809.5q-22 12.5 -45 34.5q-13 12 -20 17t-15 5q-25 0 -28 -68h-89q3 76 36 120.5t87 44.5q30 0 51.5 -12.5t45.5 -34.5q12 -11 19.5 -16.5t14.5 -5.5q11 0 18 16.5t8 48.5h92q-5 -83 -33 -122.5t-86 -39.5q-34 0 -56 12.5z" />
    <glyph glyph-name="Odieresis" unicode="&#xd6;" horiz-adv-x="826" 
d="M202 37q-86 54 -128 144.5t-42 200.5t42 200t127.5 143.5t211.5 53.5q125 0 210.5 -53.5t127.5 -143.5t42 -200t-42 -200.5t-127.5 -144.5t-210.5 -54t-211 54zM553 207.5q51 64.5 51 174.5q0 109 -51 173t-140 64t-140.5 -64t-51.5 -173q0 -110 51.5 -174.5t140.5 -64.5
t140 64.5zM234.5 825.5q-27.5 23.5 -27.5 62.5t27.5 63t67.5 24t67.5 -24t27.5 -63t-27.5 -62.5t-67.5 -23.5t-67.5 23.5zM453.5 825.5q-27.5 23.5 -27.5 62.5t27.5 63t67.5 24t67.5 -24t27.5 -63t-27.5 -62.5t-67.5 -23.5t-67.5 23.5z" />
    <glyph glyph-name="multiply" unicode="&#xd7;" horiz-adv-x="567" 
d="M284 252l-156 -157l-87 87l156 157l-155 155l85 86l156 -156l156 156l87 -87l-156 -156l156 -156l-85 -86z" />
    <glyph glyph-name="Oslash" unicode="&#xd8;" horiz-adv-x="826" 
d="M726 627q67 -103 67 -245q0 -110 -42 -200.5t-127.5 -144.5t-210.5 -54q-152 0 -250 82l-52 -52l-70 67l58 57q-33 51 -50 113.5t-17 131.5q0 110 42 200t127.5 143.5t211.5 53.5q151 0 248 -81l53 53l69 -67zM237 275l299 299q-48 45 -123 45q-89 0 -140.5 -64
t-51.5 -173q0 -62 16 -107zM553 207.5q51 64.5 51 174.5q0 62 -16 107l-300 -299q50 -47 125 -47q89 0 140 64.5z" />
    <glyph glyph-name="Ugrave" unicode="&#xd9;" horiz-adv-x="754" 
d="M130 64q-78 81 -78 221v478h180v-478q0 -66 32 -104t113 -38t112.5 38t31.5 104v478h180v-478q0 -140 -78 -221t-246 -81q-169 0 -247 81zM332 959l114 -145h-121l-155 145h162z" />
    <glyph glyph-name="Uacute" unicode="&#xda;" horiz-adv-x="754" 
d="M130 64q-78 81 -78 221v478h180v-478q0 -66 32 -104t113 -38t112.5 38t31.5 104v478h180v-478q0 -140 -78 -221t-246 -81q-169 0 -247 81zM429 814h-121l114 145h162z" />
    <glyph glyph-name="Ucircumflex" unicode="&#xdb;" horiz-adv-x="754" 
d="M130 64q-78 81 -78 221v478h180v-478q0 -66 32 -104t113 -38t112.5 38t31.5 104v478h180v-478q0 -140 -78 -221t-246 -81q-169 0 -247 81zM332 814h-131l169 178h14l169 -178h-131l-45 63z" />
    <glyph glyph-name="Udieresis" unicode="&#xdc;" horiz-adv-x="754" 
d="M130 64q-78 81 -78 221v478h180v-478q0 -66 32 -104t113 -38t112.5 38t31.5 104v478h180v-478q0 -140 -78 -221t-246 -81q-169 0 -247 81zM199.5 825.5q-27.5 23.5 -27.5 62.5t27.5 63t67.5 24t67.5 -24t27.5 -63t-27.5 -62.5t-67.5 -23.5t-67.5 23.5zM418.5 825.5
q-27.5 23.5 -27.5 62.5t27.5 63t67.5 24t67.5 -24t27.5 -63t-27.5 -62.5t-67.5 -23.5t-67.5 23.5z" />
    <glyph glyph-name="Yacute" unicode="&#xdd;" horiz-adv-x="718" 
d="M453 0h-188v303l-273 460h209l158 -287l158 287h209l-273 -460v-303zM409 814h-121l114 145h162z" />
    <glyph glyph-name="Thorn" unicode="&#xde;" horiz-adv-x="672" 
d="M60 0v763h178v-100h181q111 0 176 -55t65 -170q0 -72 -31 -125t-85.5 -81t-124.5 -28h-181v-204h-178zM399 360q40 0 62 18t22 55q0 34 -22 51.5t-62 17.5h-161v-142h161z" />
    <glyph glyph-name="germandbls" unicode="&#xdf;" horiz-adv-x="698" 
d="M69 472q0 150 76.5 226.5t219.5 76.5q78 0 139.5 -26t96 -72t34.5 -104q0 -61 -26 -99.5t-82 -59.5q76 -21 111.5 -67t35.5 -122q0 -64 -36.5 -115.5t-101 -80.5t-144.5 -29h-71v150h61q60 0 92 23t32 66q0 81 -116 81h-69v136h37q52 0 80.5 22t28.5 62t-26.5 62.5
t-73.5 22.5q-61 0 -95.5 -37.5t-34.5 -105.5v-482h-168v472z" />
    <glyph glyph-name="agrave" unicode="&#xe0;" horiz-adv-x="601" 
d="M85.5 32.5q-52.5 44.5 -52.5 126.5q0 90 71 137q27 17 59.5 27t74.5 18l147 26q-3 43 -23 66q-19 20 -57 20q-30 0 -54 -20t-30 -55h-167q10 68 47.5 113t91 66.5t113.5 21.5q52 0 97.5 -14t78.5 -42t48 -66t18.5 -79t3.5 -109v-269h-168v69q-14 -33 -40 -51
q-43 -30 -125 -30q-81 0 -133.5 44.5zM329 129q33 15 45 42t14 77l-103 -20q-28 -5 -43.5 -11t-25.5 -16q-15 -15 -15 -36q0 -25 19 -37.5t48 -12.5q30 0 61 14zM262 763l114 -145h-121l-155 145h162z" />
    <glyph glyph-name="aacute" unicode="&#xe1;" horiz-adv-x="601" 
d="M85.5 32.5q-52.5 44.5 -52.5 126.5q0 90 71 137q27 17 59.5 27t74.5 18l147 26q-3 43 -23 66q-19 20 -57 20q-30 0 -54 -20t-30 -55h-167q10 68 47.5 113t91 66.5t113.5 21.5q52 0 97.5 -14t78.5 -42t48 -66t18.5 -79t3.5 -109v-269h-168v69q-14 -33 -40 -51
q-43 -30 -125 -30q-81 0 -133.5 44.5zM329 129q33 15 45 42t14 77l-103 -20q-28 -5 -43.5 -11t-25.5 -16q-15 -15 -15 -36q0 -25 19 -37.5t48 -12.5q30 0 61 14zM359 618h-121l114 145h162z" />
    <glyph glyph-name="acircumflex" unicode="&#xe2;" horiz-adv-x="601" 
d="M85.5 32.5q-52.5 44.5 -52.5 126.5q0 90 71 137q27 17 59.5 27t74.5 18l147 26q-3 43 -23 66q-19 20 -57 20q-30 0 -54 -20t-30 -55h-167q10 68 47.5 113t91 66.5t113.5 21.5q52 0 97.5 -14t78.5 -42t48 -66t18.5 -79t3.5 -109v-269h-168v69q-14 -33 -40 -51
q-43 -30 -125 -30q-81 0 -133.5 44.5zM329 129q33 15 45 42t14 77l-103 -20q-28 -5 -43.5 -11t-25.5 -16q-15 -15 -15 -36q0 -25 19 -37.5t48 -12.5q30 0 61 14zM262 618h-131l169 178h14l169 -178h-131l-45 63z" />
    <glyph glyph-name="atilde" unicode="&#xe3;" horiz-adv-x="601" 
d="M85.5 32.5q-52.5 44.5 -52.5 126.5q0 90 71 137q27 17 59.5 27t74.5 18l147 26q-3 43 -23 66q-19 20 -57 20q-30 0 -54 -20t-30 -55h-167q10 68 47.5 113t91 66.5t113.5 21.5q52 0 97.5 -14t78.5 -42t48 -66t18.5 -79t3.5 -109v-269h-168v69q-14 -33 -40 -51
q-43 -30 -125 -30q-81 0 -133.5 44.5zM329 129q33 15 45 42t14 77l-103 -20q-28 -5 -43.5 -11t-25.5 -16q-15 -15 -15 -36q0 -25 19 -37.5t48 -12.5q30 0 61 14zM317 613.5q-22 12.5 -45 34.5q-13 12 -20 17t-15 5q-25 0 -28 -68h-89q3 76 36 120.5t87 44.5q30 0 51.5 -12.5
t45.5 -34.5q12 -11 19.5 -16.5t14.5 -5.5q11 0 18 16.5t8 48.5h92q-5 -83 -33 -122.5t-86 -39.5q-34 0 -56 12.5z" />
    <glyph glyph-name="adieresis" unicode="&#xe4;" horiz-adv-x="601" 
d="M85.5 32.5q-52.5 44.5 -52.5 126.5q0 90 71 137q27 17 59.5 27t74.5 18l147 26q-3 43 -23 66q-19 20 -57 20q-30 0 -54 -20t-30 -55h-167q10 68 47.5 113t91 66.5t113.5 21.5q52 0 97.5 -14t78.5 -42t48 -66t18.5 -79t3.5 -109v-269h-168v69q-14 -33 -40 -51
q-43 -30 -125 -30q-81 0 -133.5 44.5zM329 129q33 15 45 42t14 77l-103 -20q-28 -5 -43.5 -11t-25.5 -16q-15 -15 -15 -36q0 -25 19 -37.5t48 -12.5q30 0 61 14zM129.5 629.5q-27.5 23.5 -27.5 62.5t27.5 63t67.5 24t67.5 -24t27.5 -63t-27.5 -62.5t-67.5 -23.5t-67.5 23.5z
M348.5 629.5q-27.5 23.5 -27.5 62.5t27.5 63t67.5 24t67.5 -24t27.5 -63t-27.5 -62.5t-67.5 -23.5t-67.5 23.5z" />
    <glyph glyph-name="aring" unicode="&#xe5;" horiz-adv-x="601" 
d="M530 457q15 -38 18.5 -79t3.5 -109v-269h-168v69q-14 -33 -40 -51q-43 -30 -125 -30q-81 0 -133.5 44.5t-52.5 126.5q0 90 71 137q27 17 59.5 27t74.5 18l147 26q-3 43 -23 66q-19 20 -57 20q-30 0 -54 -20t-30 -55h-167q13 87 69.5 136.5t136.5 61.5q-38 14 -62 49
t-24 76q0 36 18 66.5t48.5 48.5t66.5 18t66.5 -18t48.5 -48.5t18 -66.5q0 -42 -23.5 -76.5t-61.5 -48.5q78 -11 127 -53q33 -28 48 -66zM271 736.5q-13 -13.5 -13 -33.5q0 -23 14 -37.5t35 -14.5q22 0 35.5 14.5t13.5 37.5q0 21 -13 34t-36 13t-36 -13.5zM374 171
q12 27 14 77l-103 -20q-28 -5 -43.5 -11t-25.5 -16q-15 -15 -15 -36q0 -25 19 -37.5t48 -12.5q30 0 61 14q33 15 45 42z" />
    <glyph glyph-name="ae" unicode="&#xe6;" horiz-adv-x="1003" 
d="M971 248h-408q3 -21 11 -40.5t18 -32.5q34 -43 100 -43q37 0 63.5 18t37.5 46h169q-26 -92 -96 -150t-183 -58q-78 0 -139.5 29t-100.5 82h-9q-15 -40 -49 -66q-32 -25 -73.5 -35t-82.5 -10q-87 0 -141.5 44t-54.5 127q0 90 71 137q27 17 59.5 27t74.5 18l147 26
q-3 43 -23 66q-19 20 -57 20q-30 0 -54 -20t-30 -55h-167q10 68 47.5 113t91 66.5t113.5 21.5q52 0 97.5 -14t78.5 -42l7 -6q75 62 189 62q79 0 145.5 -31t107 -99t40.5 -172v-29zM801 367q-7 31 -27 51q-33 33 -90 33t-90 -33q-21 -21 -26 -51h233zM374 171q12 27 14 77
l-103 -20q-28 -5 -43.5 -11t-25.5 -16q-15 -15 -15 -36q0 -25 19 -37.5t48 -12.5q30 0 61 14q33 15 45 42z" />
    <glyph glyph-name="ccedilla" unicode="&#xe7;" horiz-adv-x="633" 
d="M606 196q-19 -92 -87.5 -146.5t-167.5 -60.5q-5 -4 -30 -21l5 -9q7 1 20 1q35 0 55 -12q17 -10 24.5 -25t7.5 -37q0 -46 -38 -70t-98 -24q-48 0 -96 15v61q54 -20 87 -20q22 0 33.5 9t11.5 25q0 30 -33.5 40.5t-91.5 10.5l55 61q-106 19 -168.5 97t-62.5 196
q0 86 36.5 152.5t103.5 103t155 36.5q107 0 181.5 -54t96.5 -147h-184q-11 35 -34 51.5t-60 16.5q-56 0 -89 -42.5t-33 -116.5q0 -77 33 -121t89 -44q41 0 64 18.5t32 55.5h183z" />
    <glyph glyph-name="egrave" unicode="&#xe8;" horiz-adv-x="648" 
d="M172.5 25.5q-67.5 37.5 -104 103.5t-36.5 150q0 76 31.5 144.5t97 112t162.5 43.5q79 0 145.5 -31t107 -99t40.5 -172v-29h-408q3 -21 11 -40.5t18 -32.5q34 -43 100 -43q37 0 63.5 18t37.5 46h169q-26 -92 -96 -150t-183 -58q-88 0 -155.5 37.5zM446 367q-7 31 -27 51
q-33 33 -90 33t-90 -33q-21 -21 -26 -51h233zM280 763l114 -145h-121l-155 145h162z" />
    <glyph glyph-name="eacute" unicode="&#xe9;" horiz-adv-x="648" 
d="M172.5 25.5q-67.5 37.5 -104 103.5t-36.5 150q0 76 31.5 144.5t97 112t162.5 43.5q79 0 145.5 -31t107 -99t40.5 -172v-29h-408q3 -21 11 -40.5t18 -32.5q34 -43 100 -43q37 0 63.5 18t37.5 46h169q-26 -92 -96 -150t-183 -58q-88 0 -155.5 37.5zM446 367q-7 31 -27 51
q-33 33 -90 33t-90 -33q-21 -21 -26 -51h233zM377 618h-121l114 145h162z" />
    <glyph glyph-name="ecircumflex" unicode="&#xea;" horiz-adv-x="648" 
d="M172.5 25.5q-67.5 37.5 -104 103.5t-36.5 150q0 76 31.5 144.5t97 112t162.5 43.5q79 0 145.5 -31t107 -99t40.5 -172v-29h-408q3 -21 11 -40.5t18 -32.5q34 -43 100 -43q37 0 63.5 18t37.5 46h169q-26 -92 -96 -150t-183 -58q-88 0 -155.5 37.5zM446 367q-7 31 -27 51
q-33 33 -90 33t-90 -33q-21 -21 -26 -51h233zM280 618h-131l169 178h14l169 -178h-131l-45 63z" />
    <glyph glyph-name="edieresis" unicode="&#xeb;" horiz-adv-x="648" 
d="M172.5 25.5q-67.5 37.5 -104 103.5t-36.5 150q0 76 31.5 144.5t97 112t162.5 43.5q79 0 145.5 -31t107 -99t40.5 -172v-29h-408q3 -21 11 -40.5t18 -32.5q34 -43 100 -43q37 0 63.5 18t37.5 46h169q-26 -92 -96 -150t-183 -58q-88 0 -155.5 37.5zM446 367q-7 31 -27 51
q-33 33 -90 33t-90 -33q-21 -21 -26 -51h233zM147.5 629.5q-27.5 23.5 -27.5 62.5t27.5 63t67.5 24t67.5 -24t27.5 -63t-27.5 -62.5t-67.5 -23.5t-67.5 23.5zM366.5 629.5q-27.5 23.5 -27.5 62.5t27.5 63t67.5 24t67.5 -24t27.5 -63t-27.5 -62.5t-67.5 -23.5t-67.5 23.5z
" />
    <glyph glyph-name="igrave" unicode="&#xec;" horiz-adv-x="278" 
d="M223 0h-168v567h168v-567zM94 763l114 -145h-121l-155 145h162z" />
    <glyph glyph-name="iacute" unicode="&#xed;" horiz-adv-x="278" 
d="M223 0h-168v567h168v-567zM191 618h-121l114 145h162z" />
    <glyph glyph-name="icircumflex" unicode="&#xee;" horiz-adv-x="278" 
d="M223 0h-168v567h168v-567zM94 618h-131l169 178h14l169 -178h-131l-45 63z" />
    <glyph glyph-name="idieresis" unicode="&#xef;" horiz-adv-x="278" 
d="M223 0h-168v567h168v-567zM-38.5 629.5q-27.5 23.5 -27.5 62.5t27.5 63t67.5 24t67.5 -24t27.5 -63t-27.5 -62.5t-67.5 -23.5t-67.5 23.5zM180.5 629.5q-27.5 23.5 -27.5 62.5t27.5 63t67.5 24t67.5 -24t27.5 -63t-27.5 -62.5t-67.5 -23.5t-67.5 23.5z" />
    <glyph glyph-name="eth" unicode="&#xf0;" horiz-adv-x="620" 
d="M146.5 17.5q-62.5 34.5 -97.5 97.5t-35 145q0 79 31.5 135.5t87.5 86t128 29.5q44 0 86 -15t75 -50q2 48 -16.5 87.5t-52.5 66.5l-94 -55l-32 55l54 30q-17 4 -47 4q-43 0 -80 -12l-68 133q72 24 158 24q115 0 194 -57l72 41l32 -55l-53 -31q95 -109 95 -312
q0 -189 -78.5 -285.5t-216.5 -96.5q-80 0 -142.5 34.5zM376.5 173q34.5 35 34.5 87q0 49 -34.5 83t-84.5 34q-49 0 -83.5 -34t-34.5 -83q0 -52 34 -87t84 -35t84.5 35z" />
    <glyph glyph-name="ntilde" unicode="&#xf1;" 
d="M55 0v567h168v-61q27 41 62 57t83 16q140 0 183 -98q15 -33 18.5 -66.5t3.5 -97.5v-317h-168v319q0 42 -5.5 66t-18.5 38q-20 21 -62 21q-54 0 -75 -29q-21 -28 -21 -96v-319h-168zM322 613.5q-22 12.5 -45 34.5q-13 12 -20 17t-15 5q-25 0 -28 -68h-89q3 76 36 120.5
t87 44.5q30 0 51.5 -12.5t45.5 -34.5q12 -11 19.5 -16.5t14.5 -5.5q11 0 18 16.5t8 48.5h92q-5 -83 -33 -122.5t-86 -39.5q-34 0 -56 12.5z" />
    <glyph glyph-name="ograve" unicode="&#xf2;" horiz-adv-x="660" 
d="M174.5 25q-67.5 37 -105 105t-37.5 157q0 86 37.5 152.5t105 103t155.5 36.5t155.5 -37t105 -103t37.5 -152q0 -89 -37 -157t-104.5 -105t-156.5 -37q-88 0 -155.5 37zM420 174.5q33 42.5 33 112.5q0 67 -33.5 108t-89.5 41t-90.5 -41t-34.5 -108q0 -71 34 -113t91 -42
t90 42.5zM285 763l114 -145h-121l-155 145h162z" />
    <glyph glyph-name="oacute" unicode="&#xf3;" horiz-adv-x="660" 
d="M174.5 25q-67.5 37 -105 105t-37.5 157q0 86 37.5 152.5t105 103t155.5 36.5t155.5 -37t105 -103t37.5 -152q0 -89 -37 -157t-104.5 -105t-156.5 -37q-88 0 -155.5 37zM420 174.5q33 42.5 33 112.5q0 67 -33.5 108t-89.5 41t-90.5 -41t-34.5 -108q0 -71 34 -113t91 -42
t90 42.5zM382 618h-121l114 145h162z" />
    <glyph glyph-name="ocircumflex" unicode="&#xf4;" horiz-adv-x="660" 
d="M174.5 25q-67.5 37 -105 105t-37.5 157q0 86 37.5 152.5t105 103t155.5 36.5t155.5 -37t105 -103t37.5 -152q0 -89 -37 -157t-104.5 -105t-156.5 -37q-88 0 -155.5 37zM420 174.5q33 42.5 33 112.5q0 67 -33.5 108t-89.5 41t-90.5 -41t-34.5 -108q0 -71 34 -113t91 -42
t90 42.5zM285 618h-131l169 178h14l169 -178h-131l-45 63z" />
    <glyph glyph-name="otilde" unicode="&#xf5;" horiz-adv-x="660" 
d="M174.5 25q-67.5 37 -105 105t-37.5 157q0 86 37.5 152.5t105 103t155.5 36.5t155.5 -37t105 -103t37.5 -152q0 -89 -37 -157t-104.5 -105t-156.5 -37q-88 0 -155.5 37zM420 174.5q33 42.5 33 112.5q0 67 -33.5 108t-89.5 41t-90.5 -41t-34.5 -108q0 -71 34 -113t91 -42
t90 42.5zM340 613.5q-22 12.5 -45 34.5q-13 12 -20 17t-15 5q-25 0 -28 -68h-89q3 76 36 120.5t87 44.5q30 0 51.5 -12.5t45.5 -34.5q12 -11 19.5 -16.5t14.5 -5.5q11 0 18 16.5t8 48.5h92q-5 -83 -33 -122.5t-86 -39.5q-34 0 -56 12.5z" />
    <glyph glyph-name="odieresis" unicode="&#xf6;" horiz-adv-x="660" 
d="M174.5 25q-67.5 37 -105 105t-37.5 157q0 86 37.5 152.5t105 103t155.5 36.5t155.5 -37t105 -103t37.5 -152q0 -89 -37 -157t-104.5 -105t-156.5 -37q-88 0 -155.5 37zM420 174.5q33 42.5 33 112.5q0 67 -33.5 108t-89.5 41t-90.5 -41t-34.5 -108q0 -71 34 -113t91 -42
t90 42.5zM152.5 629.5q-27.5 23.5 -27.5 62.5t27.5 63t67.5 24t67.5 -24t27.5 -63t-27.5 -62.5t-67.5 -23.5t-67.5 23.5zM371.5 629.5q-27.5 23.5 -27.5 62.5t27.5 63t67.5 24t67.5 -24t27.5 -63t-27.5 -62.5t-67.5 -23.5t-67.5 23.5z" />
    <glyph glyph-name="divide" unicode="&#xf7;" horiz-adv-x="544" 
d="M360 438h-178v155h178v-155zM519 279h-495v121h495v-121zM360 77h-178v155h178v-155z" />
    <glyph glyph-name="oslash" unicode="&#xf8;" horiz-adv-x="660" 
d="M638 523l-61 -61q51 -74 51 -175q0 -89 -37 -157t-104.5 -105t-156.5 -37q-102 0 -177 50l-61 -61l-70 67l62 62q-52 76 -52 181q0 86 37.5 152.5t105 103t155.5 36.5q103 0 178 -50l61 61zM211 233l185 184q-30 19 -66 19q-56 0 -90.5 -41t-34.5 -108q0 -30 6 -54z
M448 333l-183 -183q29 -18 65 -18q57 0 90 42.5t33 112.5q0 23 -5 46z" />
    <glyph glyph-name="ugrave" unicode="&#xf9;" 
d="M73 86q-13 29 -17.5 61.5t-4.5 102.5v317h168v-319q0 -42 5.5 -66t18.5 -38q20 -21 62 -21q52 0 75 29q11 15 16 37.5t5 58.5v319h168v-567h-168v61q-26 -38 -60 -55.5t-85 -17.5q-139 0 -183 98zM267 763l114 -145h-121l-155 145h162z" />
    <glyph glyph-name="uacute" unicode="&#xfa;" 
d="M73 86q-13 29 -17.5 61.5t-4.5 102.5v317h168v-319q0 -42 5.5 -66t18.5 -38q20 -21 62 -21q52 0 75 29q11 15 16 37.5t5 58.5v319h168v-567h-168v61q-26 -38 -60 -55.5t-85 -17.5q-139 0 -183 98zM364 618h-121l114 145h162z" />
    <glyph glyph-name="ucircumflex" unicode="&#xfb;" 
d="M73 86q-13 29 -17.5 61.5t-4.5 102.5v317h168v-319q0 -42 5.5 -66t18.5 -38q20 -21 62 -21q52 0 75 29q11 15 16 37.5t5 58.5v319h168v-567h-168v61q-26 -38 -60 -55.5t-85 -17.5q-139 0 -183 98zM267 618h-131l169 178h14l169 -178h-131l-45 63z" />
    <glyph glyph-name="udieresis" unicode="&#xfc;" 
d="M73 86q-13 29 -17.5 61.5t-4.5 102.5v317h168v-319q0 -42 5.5 -66t18.5 -38q20 -21 62 -21q52 0 75 29q11 15 16 37.5t5 58.5v319h168v-567h-168v61q-26 -38 -60 -55.5t-85 -17.5q-139 0 -183 98zM134.5 629.5q-27.5 23.5 -27.5 62.5t27.5 63t67.5 24t67.5 -24t27.5 -63
t-27.5 -62.5t-67.5 -23.5t-67.5 23.5zM353.5 629.5q-27.5 23.5 -27.5 62.5t27.5 63t67.5 24t67.5 -24t27.5 -63t-27.5 -62.5t-67.5 -23.5t-67.5 23.5z" />
    <glyph glyph-name="yacute" unicode="&#xfd;" horiz-adv-x="576" 
d="M69 -196v137h68q24 0 40 8t26 31l5 12l-201 575h180l107 -402l92 402h181l-201 -603q-29 -87 -72.5 -123.5t-123.5 -36.5h-101zM334 618h-121l114 145h162z" />
    <glyph glyph-name="thorn" unicode="&#xfe;" horiz-adv-x="649" 
d="M55 -196v959h168v-257q27 41 62 57t83 16q72 0 128 -37.5t87.5 -105t31.5 -153.5q0 -85 -31.5 -152.5t-87.5 -105t-128 -37.5q-48 0 -83 16t-62 57v-257h-168zM411 173.5q34 42.5 34 109.5q0 68 -34 110.5t-90 42.5t-90 -42t-34 -111q0 -68 34 -110t90 -42t90 42.5z" />
    <glyph glyph-name="ydieresis" unicode="&#xff;" horiz-adv-x="576" 
d="M69 -196v137h68q24 0 40 8t26 31l5 12l-201 575h180l107 -402l92 402h181l-201 -603q-29 -87 -72.5 -123.5t-123.5 -36.5h-101zM104.5 629.5q-27.5 23.5 -27.5 62.5t27.5 63t67.5 24t67.5 -24t27.5 -63t-27.5 -62.5t-67.5 -23.5t-67.5 23.5zM323.5 629.5
q-27.5 23.5 -27.5 62.5t27.5 63t67.5 24t67.5 -24t27.5 -63t-27.5 -62.5t-67.5 -23.5t-67.5 23.5z" />
    <glyph glyph-name="Amacron" unicode="&#x100;" horiz-adv-x="720" 
d="M192 0h-190l261 763h194l261 -763h-190l-41 137h-254zM360 564l-80 -272h160zM511 815h-302v78h302v-78z" />
    <glyph glyph-name="amacron" unicode="&#x101;" horiz-adv-x="601" 
d="M85.5 32.5q-52.5 44.5 -52.5 126.5q0 90 71 137q27 17 59.5 27t74.5 18l147 26q-3 43 -23 66q-19 20 -57 20q-30 0 -54 -20t-30 -55h-167q10 68 47.5 113t91 66.5t113.5 21.5q52 0 97.5 -14t78.5 -42t48 -66t18.5 -79t3.5 -109v-269h-168v69q-14 -33 -40 -51
q-43 -30 -125 -30q-81 0 -133.5 44.5zM329 129q33 15 45 42t14 77l-103 -20q-28 -5 -43.5 -11t-25.5 -16q-15 -15 -15 -36q0 -25 19 -37.5t48 -12.5q30 0 61 14zM458 619h-302v78h302v-78z" />
    <glyph glyph-name="Abreve" unicode="&#x102;" horiz-adv-x="720" 
d="M192 0h-190l261 763h194l261 -763h-190l-41 137h-254zM360 564l-80 -272h160zM235.5 843.5q-42.5 41.5 -46.5 115.5h91q5 -34 27 -51t53 -17q32 0 53 17.5t26 50.5h92q-4 -73 -47.5 -115t-123.5 -42q-82 0 -124.5 41.5z" />
    <glyph glyph-name="abreve" unicode="&#x103;" horiz-adv-x="601" 
d="M85.5 32.5q-52.5 44.5 -52.5 126.5q0 90 71 137q27 17 59.5 27t74.5 18l147 26q-3 43 -23 66q-19 20 -57 20q-30 0 -54 -20t-30 -55h-167q10 68 47.5 113t91 66.5t113.5 21.5q52 0 97.5 -14t78.5 -42t48 -66t18.5 -79t3.5 -109v-269h-168v69q-14 -33 -40 -51
q-43 -30 -125 -30q-81 0 -133.5 44.5zM329 129q33 15 45 42t14 77l-103 -20q-28 -5 -43.5 -11t-25.5 -16q-15 -15 -15 -36q0 -25 19 -37.5t48 -12.5q30 0 61 14zM182.5 647.5q-42.5 41.5 -46.5 115.5h91q5 -34 27 -51t53 -17q32 0 53 17.5t26 50.5h92q-4 -73 -47.5 -115
t-123.5 -42q-82 0 -124.5 41.5z" />
    <glyph glyph-name="Aogonek" unicode="&#x104;" horiz-adv-x="720" 
d="M192 0h-190l261 763h194l261 -763h-190l-41 137h-254zM360 564l-80 -272h160zM515 -126q0 40 22.5 63.5t79.5 42.5v20h101q-54 -33 -70 -47.5t-16 -31.5q0 -27 34 -27q24 0 52 14v-103q-39 -13 -81 -13q-122 0 -122 82z" />
    <glyph glyph-name="aogonek" unicode="&#x105;" horiz-adv-x="601" 
d="M552 0q-54 -33 -70 -47.5t-16 -31.5q0 -27 34 -27q24 0 52 14v-103q-39 -13 -81 -13q-122 0 -122 82q0 40 22.5 63.5t79.5 42.5v20h-67v69q-14 -33 -40 -51q-43 -30 -125 -30q-81 0 -133.5 44.5t-52.5 126.5q0 90 71 137q27 17 59.5 27t74.5 18l147 26q-3 43 -23 66
q-19 20 -57 20q-30 0 -54 -20t-30 -55h-167q10 68 47.5 113t91 66.5t113.5 21.5q52 0 97.5 -14t78.5 -42t48 -66t18.5 -79t3.5 -109v-269zM374 171q12 27 14 77l-103 -20q-28 -5 -43.5 -11t-25.5 -16q-15 -15 -15 -36q0 -25 19 -37.5t48 -12.5q30 0 61 14q33 15 45 42z" />
    <glyph glyph-name="Cacute" unicode="&#x106;" horiz-adv-x="779" 
d="M202 37q-86 54 -128 144.5t-42 200.5t42 200t127.5 143.5t211.5 53.5q147 0 235 -74t103 -200h-196q-8 57 -47.5 85.5t-98.5 28.5q-90 0 -139 -63.5t-49 -173.5t49 -174.5t139 -64.5q59 0 98 29t48 87h196q-15 -127 -103 -201.5t-235 -74.5q-125 0 -211 54zM441 814h-121
l114 145h162z" />
    <glyph glyph-name="cacute" unicode="&#x107;" horiz-adv-x="633" 
d="M172.5 25q-66.5 37 -103.5 104.5t-37 157.5q0 86 36.5 152.5t103.5 103t155 36.5q107 0 181.5 -54t96.5 -147h-184q-11 35 -34 51.5t-60 16.5q-56 0 -89 -42.5t-33 -116.5q0 -77 33 -121t89 -44q41 0 64 18.5t32 55.5h183q-21 -97 -96 -152.5t-183 -55.5q-88 0 -154.5 37
zM369 618h-121l114 145h162z" />
    <glyph glyph-name="Cdotaccent" unicode="&#x10a;" horiz-adv-x="779" 
d="M202 37q-86 54 -128 144.5t-42 200.5t42 200t127.5 143.5t211.5 53.5q147 0 235 -74t103 -200h-196q-8 57 -47.5 85.5t-98.5 28.5q-90 0 -139 -63.5t-49 -173.5t49 -174.5t139 -64.5q59 0 98 29t48 87h196q-15 -127 -103 -201.5t-235 -74.5q-125 0 -211 54zM321.5 825.5
q-27.5 23.5 -27.5 62.5t27.5 63t67.5 24t67.5 -24t27.5 -63t-27.5 -62.5t-67.5 -23.5t-67.5 23.5z" />
    <glyph glyph-name="cdotaccent" unicode="&#x10b;" horiz-adv-x="633" 
d="M172.5 25q-66.5 37 -103.5 104.5t-37 157.5q0 86 36.5 152.5t103.5 103t155 36.5q107 0 181.5 -54t96.5 -147h-184q-11 35 -34 51.5t-60 16.5q-56 0 -89 -42.5t-33 -116.5q0 -77 33 -121t89 -44q41 0 64 18.5t32 55.5h183q-21 -97 -96 -152.5t-183 -55.5q-88 0 -154.5 37
zM249.5 629.5q-27.5 23.5 -27.5 62.5t27.5 63t67.5 24t67.5 -24t27.5 -63t-27.5 -62.5t-67.5 -23.5t-67.5 23.5z" />
    <glyph glyph-name="Ccaron" unicode="&#x10c;" horiz-adv-x="779" 
d="M202 37q-86 54 -128 144.5t-42 200.5t42 200t127.5 143.5t211.5 53.5q147 0 235 -74t103 -200h-196q-8 57 -47.5 85.5t-98.5 28.5q-90 0 -139 -63.5t-49 -173.5t49 -174.5t139 -64.5q59 0 98 29t48 87h196q-15 -127 -103 -201.5t-235 -74.5q-125 0 -211 54zM396 782h-14
l-169 177h131l45 -64l45 64h131z" />
    <glyph glyph-name="ccaron" unicode="&#x10d;" horiz-adv-x="633" 
d="M172.5 25q-66.5 37 -103.5 104.5t-37 157.5q0 86 36.5 152.5t103.5 103t155 36.5q107 0 181.5 -54t96.5 -147h-184q-11 35 -34 51.5t-60 16.5q-56 0 -89 -42.5t-33 -116.5q0 -77 33 -121t89 -44q41 0 64 18.5t32 55.5h183q-21 -97 -96 -152.5t-183 -55.5q-88 0 -154.5 37
zM324 586h-14l-169 177h131l45 -64l45 64h131z" />
    <glyph glyph-name="Dcaron" unicode="&#x10e;" horiz-adv-x="726" 
d="M60 0v763h231q195 0 299 -98t104 -282q0 -185 -104 -284t-299 -99h-231zM289 160q112 0 169 54.5t57 168.5q0 107 -60 163.5t-166 56.5h-50v-443h50zM355 782h-14l-169 177h131l45 -64l45 64h131z" />
    <glyph glyph-name="dcaron" unicode="&#x10f;" horiz-adv-x="649" 
d="M153 25.5q-56 37.5 -87.5 105t-31.5 153.5q0 85 31.5 152.5t87.5 105t128 37.5q48 0 83 -16t62 -57v257h168v-763h-168v61q-27 -41 -62 -57t-83 -16q-72 0 -128 37.5zM418 173q34 42 34 111q0 68 -34 110t-90 42t-90 -42.5t-34 -109.5q0 -68 34 -110.5t90 -42.5t90 42z
M686 515q49 0 79.5 17.5t38.5 51.5q3 12 3 27q-9 -13 -21.5 -18t-30.5 -5q-30 0 -53.5 25t-23.5 65q0 44 28 70.5t74 26.5q56 0 85 -39.5t29 -104.5q0 -81 -50 -139t-158 -63v86z" />
    <glyph glyph-name="Dcroat" unicode="&#x110;" horiz-adv-x="726" 
d="M291 763q195 0 299 -98t104 -282q0 -185 -104 -284t-299 -99h-231v321h-59v121h59v321h231zM289 160q112 0 169 54.5t57 168.5q0 107 -60 163.5t-166 56.5h-50v-161h183v-121h-183v-161h50z" />
    <glyph glyph-name="Emacron" unicode="&#x112;" 
d="M581 0h-521v763h521v-160h-342v-142h309v-159h-309v-142h342v-160zM472 815h-302v78h302v-78z" />
    <glyph glyph-name="emacron" unicode="&#x113;" horiz-adv-x="648" 
d="M172.5 25.5q-67.5 37.5 -104 103.5t-36.5 150q0 76 31.5 144.5t97 112t162.5 43.5q79 0 145.5 -31t107 -99t40.5 -172v-29h-408q3 -21 11 -40.5t18 -32.5q34 -43 100 -43q37 0 63.5 18t37.5 46h169q-26 -92 -96 -150t-183 -58q-88 0 -155.5 37.5zM446 367q-7 31 -27 51
q-33 33 -90 33t-90 -33q-21 -21 -26 -51h233zM476 619h-302v78h302v-78z" />
    <glyph glyph-name="Edotaccent" unicode="&#x116;" 
d="M581 0h-521v763h521v-160h-342v-142h309v-159h-309v-142h342v-160zM253.5 825.5q-27.5 23.5 -27.5 62.5t27.5 63t67.5 24t67.5 -24t27.5 -63t-27.5 -62.5t-67.5 -23.5t-67.5 23.5z" />
    <glyph glyph-name="edotaccent" unicode="&#x117;" horiz-adv-x="648" 
d="M172.5 25.5q-67.5 37.5 -104 103.5t-36.5 150q0 76 31.5 144.5t97 112t162.5 43.5q79 0 145.5 -31t107 -99t40.5 -172v-29h-408q3 -21 11 -40.5t18 -32.5q34 -43 100 -43q37 0 63.5 18t37.5 46h169q-26 -92 -96 -150t-183 -58q-88 0 -155.5 37.5zM446 367q-7 31 -27 51
q-33 33 -90 33t-90 -33q-21 -21 -26 -51h233zM257.5 629.5q-27.5 23.5 -27.5 62.5t27.5 63t67.5 24t67.5 -24t27.5 -63t-27.5 -62.5t-67.5 -23.5t-67.5 23.5z" />
    <glyph glyph-name="Eogonek" unicode="&#x118;" 
d="M581 0h-521v763h521v-160h-342v-142h309v-159h-309v-142h342v-160zM378 -126q0 40 22.5 63.5t79.5 42.5v20h101q-54 -33 -70 -47.5t-16 -31.5q0 -27 34 -27q24 0 52 14v-103q-39 -13 -81 -13q-122 0 -122 82z" />
    <glyph glyph-name="eogonek" unicode="&#x119;" horiz-adv-x="648" 
d="M616 248h-408q3 -21 11 -40.5t18 -32.5q34 -43 100 -43q37 0 63.5 18t37.5 46h169q-28 -98 -99 -152q-22 -16 -39 -25q-28 -18 -37.5 -29t-9.5 -25q0 -27 34 -27q24 0 52 14v-103q-39 -13 -81 -13q-122 0 -122 82q0 44 29 70h-6q-88 0 -155.5 37.5t-104 103.5t-36.5 150
q0 76 31.5 144.5t97 112t162.5 43.5q79 0 145.5 -31t107 -99t40.5 -172v-29zM446 367q-7 31 -27 51q-33 33 -90 33t-90 -33q-21 -21 -26 -51h233z" />
    <glyph glyph-name="Ecaron" unicode="&#x11a;" 
d="M581 0h-521v763h521v-160h-342v-142h309v-159h-309v-142h342v-160zM328 782h-14l-169 177h131l45 -64l45 64h131z" />
    <glyph glyph-name="ecaron" unicode="&#x11b;" horiz-adv-x="648" 
d="M172.5 25.5q-67.5 37.5 -104 103.5t-36.5 150q0 76 31.5 144.5t97 112t162.5 43.5q79 0 145.5 -31t107 -99t40.5 -172v-29h-408q3 -21 11 -40.5t18 -32.5q34 -43 100 -43q37 0 63.5 18t37.5 46h169q-26 -92 -96 -150t-183 -58q-88 0 -155.5 37.5zM446 367q-7 31 -27 51
q-33 33 -90 33t-90 -33q-21 -21 -26 -51h233zM332 586h-14l-169 177h131l45 -64l45 64h131z" />
    <glyph glyph-name="Gbreve" unicode="&#x11e;" horiz-adv-x="827" 
d="M201 37q-86 54 -128 144.5t-42 200.5t42 200t127.5 143.5t211.5 53.5q158 0 251 -73.5t112 -200.5h-196q-27 114 -167 114q-89 0 -140.5 -64t-51.5 -173q0 -111 54.5 -175t157.5 -64q160 0 167 139h-159v144h338v-426h-163v71q-36 -50 -88.5 -69t-114.5 -19
q-125 0 -211 54zM289.5 843.5q-42.5 41.5 -46.5 115.5h91q5 -34 27 -51t53 -17q32 0 53 17.5t26 50.5h92q-4 -73 -47.5 -115t-123.5 -42q-82 0 -124.5 41.5z" />
    <glyph glyph-name="gbreve" unicode="&#x11f;" horiz-adv-x="650" 
d="M144 -166.5q-74 41.5 -91 146.5h168q13 -35 37 -49t63 -14q54 0 80 25t26 63v76q-27 -41 -62 -57t-83 -16q-71 0 -127.5 37t-88 102t-31.5 146t31.5 146.5t88 102.5t127.5 37q48 0 83 -16t62 -57v61h168v-519q0 -142 -73.5 -199t-199.5 -57q-104 0 -178 41.5z
M418.5 191.5q34.5 40.5 34.5 101.5q0 62 -34.5 102.5t-89.5 40.5t-89.5 -41t-34.5 -102t34 -101.5t90 -40.5q55 0 89.5 40.5zM200.5 647.5q-42.5 41.5 -46.5 115.5h91q5 -34 27 -51t53 -17q32 0 53 17.5t26 50.5h92q-4 -73 -47.5 -115t-123.5 -42q-82 0 -124.5 41.5z" />
    <glyph glyph-name="Gdotaccent" unicode="&#x120;" horiz-adv-x="827" 
d="M201 37q-86 54 -128 144.5t-42 200.5t42 200t127.5 143.5t211.5 53.5q158 0 251 -73.5t112 -200.5h-196q-27 114 -167 114q-89 0 -140.5 -64t-51.5 -173q0 -111 54.5 -175t157.5 -64q160 0 167 139h-159v144h338v-426h-163v71q-36 -50 -88.5 -69t-114.5 -19
q-125 0 -211 54zM346.5 825.5q-27.5 23.5 -27.5 62.5t27.5 63t67.5 24t67.5 -24t27.5 -63t-27.5 -62.5t-67.5 -23.5t-67.5 23.5z" />
    <glyph glyph-name="gdotaccent" unicode="&#x121;" horiz-adv-x="650" 
d="M144 -166.5q-74 41.5 -91 146.5h168q13 -35 37 -49t63 -14q54 0 80 25t26 63v76q-27 -41 -62 -57t-83 -16q-71 0 -127.5 37t-88 102t-31.5 146t31.5 146.5t88 102.5t127.5 37q48 0 83 -16t62 -57v61h168v-519q0 -142 -73.5 -199t-199.5 -57q-104 0 -178 41.5z
M418.5 191.5q34.5 40.5 34.5 101.5q0 62 -34.5 102.5t-89.5 40.5t-89.5 -41t-34.5 -102t34 -101.5t90 -40.5q55 0 89.5 40.5zM257.5 629.5q-27.5 23.5 -27.5 62.5t27.5 63t67.5 24t67.5 -24t27.5 -63t-27.5 -62.5t-67.5 -23.5t-67.5 23.5z" />
    <glyph glyph-name="uni0122" unicode="&#x122;" horiz-adv-x="827" 
d="M201 37q-86 54 -128 144.5t-42 200.5t42 200t127.5 143.5t211.5 53.5q158 0 251 -73.5t112 -200.5h-196q-27 114 -167 114q-89 0 -140.5 -64t-51.5 -173q0 -111 54.5 -175t157.5 -64q160 0 167 139h-159v144h338v-426h-163v71q-36 -50 -88.5 -69t-114.5 -19
q-125 0 -211 54zM359 -159q54 0 66 28q3 6 3 15h-8q-9 -15 -32 -15q-19 0 -31 11t-12 33q0 24 18 39t47 15q35 0 54 -20.5t19 -51.5q0 -91 -124 -91v37z" />
    <glyph glyph-name="uni0123" unicode="&#x123;" horiz-adv-x="650" 
d="M144 -166.5q-74 41.5 -91 146.5h168q13 -35 37 -49t63 -14q54 0 80 25t26 63v76q-27 -41 -62 -57t-83 -16q-71 0 -127.5 37t-88 102t-31.5 146t31.5 146.5t88 102.5t127.5 37q48 0 83 -16t62 -57v61h168v-519q0 -142 -73.5 -199t-199.5 -57q-104 0 -178 41.5z
M418.5 191.5q34.5 40.5 34.5 101.5q0 62 -34.5 102.5t-89.5 40.5t-89.5 -41t-34.5 -102t34 -101.5t90 -40.5q55 0 89.5 40.5zM271 619.5q-23 28.5 -23 74.5q0 58 40 100t127 45v-62q-82 0 -95 -49q-2 -6 -2 -20q13 17 41 17q25 0 43.5 -18t18.5 -47q0 -31 -22.5 -50
t-59.5 -19q-45 0 -68 28.5z" />
    <glyph glyph-name="Imacron" unicode="&#x12a;" horiz-adv-x="300" 
d="M239 0h-179v763h179v-763zM301 815h-302v78h302v-78z" />
    <glyph glyph-name="imacron" unicode="&#x12b;" horiz-adv-x="278" 
d="M223 0h-168v567h168v-567zM290 619h-302v78h302v-78z" />
    <glyph glyph-name="Iogonek" unicode="&#x12e;" horiz-adv-x="300" 
d="M239 0h-179v763h179v-763zM36 -126q0 40 22.5 63.5t79.5 42.5v20h101q-54 -33 -70 -47.5t-16 -31.5q0 -27 34 -27q24 0 52 14v-103q-39 -13 -81 -13q-122 0 -122 82z" />
    <glyph glyph-name="iogonek" unicode="&#x12f;" horiz-adv-x="278" 
d="M223 0h-168v567h168v-567zM71.5 629.5q-27.5 23.5 -27.5 62.5t27.5 63t67.5 24t67.5 -24t27.5 -63t-27.5 -62.5t-67.5 -23.5t-67.5 23.5zM20 -126q0 40 22.5 63.5t79.5 42.5v20h101q-54 -33 -70 -47.5t-16 -31.5q0 -27 34 -27q24 0 52 14v-103q-39 -13 -81 -13
q-122 0 -122 82z" />
    <glyph glyph-name="Idotaccent" unicode="&#x130;" horiz-adv-x="300" 
d="M239 0h-179v763h179v-763zM82.5 825.5q-27.5 23.5 -27.5 62.5t27.5 63t67.5 24t67.5 -24t27.5 -63t-27.5 -62.5t-67.5 -23.5t-67.5 23.5z" />
    <glyph glyph-name="dotlessi" unicode="&#x131;" horiz-adv-x="278" 
d="M223 0h-168v567h168v-567z" />
    <glyph glyph-name="uni0136" unicode="&#x136;" horiz-adv-x="695" 
d="M239 0h-179v763h179v-331l237 331h215l-280 -370l284 -393h-217l-239 342v-342zM293 -159q54 0 66 28q3 6 3 15h-8q-9 -15 -32 -15q-19 0 -31 11t-12 33q0 24 18 39t47 15q35 0 54 -20.5t19 -51.5q0 -91 -124 -91v37z" />
    <glyph glyph-name="uni0137" unicode="&#x137;" 
d="M223 0h-168v763h168v-395l180 199h207l-233 -244l246 -323h-200l-200 272v-272zM253 -159q54 0 66 28q3 6 3 15h-8q-9 -15 -32 -15q-19 0 -31 11t-12 33q0 24 18 39t47 15q35 0 54 -20.5t19 -51.5q0 -91 -124 -91v37z" />
    <glyph glyph-name="kgreenlandic" unicode="&#x138;" 
d="M223 0h-168v567h168v-199l180 199h207l-233 -244l246 -323h-200l-200 272v-272z" />
    <glyph glyph-name="Lacute" unicode="&#x139;" horiz-adv-x="558" 
d="M550 0h-490v763h179v-603h311v-160zM202 814h-121l114 145h162z" />
    <glyph glyph-name="lacute" unicode="&#x13a;" horiz-adv-x="318" 
d="M182 0q-62 0 -96 29.5t-34 83.5v650h168v-592q0 -35 33 -35h42v-136h-113zM188 814h-121l114 145h162z" />
    <glyph glyph-name="uni013B" unicode="&#x13b;" horiz-adv-x="558" 
d="M550 0h-490v763h179v-603h311v-160zM250 -159q54 0 66 28q3 6 3 15h-8q-9 -15 -32 -15q-19 0 -31 11t-12 33q0 24 18 39t47 15q35 0 54 -20.5t19 -51.5q0 -91 -124 -91v37z" />
    <glyph glyph-name="uni013C" unicode="&#x13c;" horiz-adv-x="318" 
d="M182 0q-62 0 -96 29.5t-34 83.5v650h168v-592q0 -35 33 -35h42v-136h-113zM98 -159q54 0 66 28q3 6 3 15h-8q-9 -15 -32 -15q-19 0 -31 11t-12 33q0 24 18 39t47 15q35 0 54 -20.5t19 -51.5q0 -91 -124 -91v37z" />
    <glyph glyph-name="Lcaron" unicode="&#x13d;" horiz-adv-x="558" 
d="M550 0h-490v763h179v-603h311v-160zM355 515q49 0 79.5 17.5t38.5 51.5q3 12 3 27q-9 -13 -21.5 -18t-30.5 -5q-30 0 -53.5 25t-23.5 65q0 44 28 70.5t74 26.5q56 0 85 -39.5t29 -104.5q0 -81 -50 -139t-158 -63v86z" />
    <glyph glyph-name="lcaron" unicode="&#x13e;" horiz-adv-x="318" 
d="M182 0q-62 0 -96 29.5t-34 83.5v650h168v-592q0 -35 33 -35h42v-136h-113zM300 515q49 0 79.5 17.5t38.5 51.5q3 12 3 27q-9 -13 -21.5 -18t-30.5 -5q-30 0 -53.5 25t-23.5 65q0 44 28 70.5t74 26.5q56 0 85 -39.5t29 -104.5q0 -81 -50 -139t-158 -63v86z" />
    <glyph glyph-name="Lslash" unicode="&#x141;" horiz-adv-x="595" 
d="M595 0h-490v279l-74 -36v138l74 38v344h179v-252l141 73v-138l-141 -73v-213h311v-160z" />
    <glyph glyph-name="lslash" unicode="&#x142;" horiz-adv-x="318" 
d="M295 136v-136h-113q-62 0 -96 29.5t-34 83.5v248l-34 -18v112l34 18v290h168v-203l47 24v-112l-47 -24v-277q0 -35 33 -35h42z" />
    <glyph glyph-name="Nacute" unicode="&#x143;" horiz-adv-x="774" 
d="M239 0h-179v763h182l293 -463v463h179v-763h-182l-293 466v-466zM439 814h-121l114 145h162z" />
    <glyph glyph-name="nacute" unicode="&#x144;" 
d="M55 0v567h168v-61q27 41 62 57t83 16q140 0 183 -98q15 -33 18.5 -66.5t3.5 -97.5v-317h-168v319q0 42 -5.5 66t-18.5 38q-20 21 -62 21q-54 0 -75 -29q-21 -28 -21 -96v-319h-168zM364 618h-121l114 145h162z" />
    <glyph glyph-name="uni0145" unicode="&#x145;" horiz-adv-x="774" 
d="M239 0h-179v763h182l293 -463v463h179v-763h-182l-293 466v-466zM332 -159q54 0 66 28q3 6 3 15h-8q-9 -15 -32 -15q-19 0 -31 11t-12 33q0 24 18 39t47 15q35 0 54 -20.5t19 -51.5q0 -91 -124 -91v37z" />
    <glyph glyph-name="uni0146" unicode="&#x146;" 
d="M55 0v567h168v-61q27 41 62 57t83 16q140 0 183 -98q15 -33 18.5 -66.5t3.5 -97.5v-317h-168v319q0 42 -5.5 66t-18.5 38q-20 21 -62 21q-54 0 -75 -29q-21 -28 -21 -96v-319h-168zM257 -159q54 0 66 28q3 6 3 15h-8q-9 -15 -32 -15q-19 0 -31 11t-12 33q0 24 18 39
t47 15q35 0 54 -20.5t19 -51.5q0 -91 -124 -91v37z" />
    <glyph glyph-name="Ncaron" unicode="&#x147;" horiz-adv-x="774" 
d="M239 0h-179v763h182l293 -463v463h179v-763h-182l-293 466v-466zM394 782h-14l-169 177h131l45 -64l45 64h131z" />
    <glyph glyph-name="ncaron" unicode="&#x148;" 
d="M55 0v567h168v-61q27 41 62 57t83 16q140 0 183 -98q15 -33 18.5 -66.5t3.5 -97.5v-317h-168v319q0 42 -5.5 66t-18.5 38q-20 21 -62 21q-54 0 -75 -29q-21 -28 -21 -96v-319h-168zM319 586h-14l-169 177h131l45 -64l45 64h131z" />
    <glyph glyph-name="Omacron" unicode="&#x14c;" horiz-adv-x="826" 
d="M202 37q-86 54 -128 144.5t-42 200.5t42 200t127.5 143.5t211.5 53.5q125 0 210.5 -53.5t127.5 -143.5t42 -200t-42 -200.5t-127.5 -144.5t-210.5 -54t-211 54zM553 207.5q51 64.5 51 174.5q0 109 -51 173t-140 64t-140.5 -64t-51.5 -173q0 -110 51.5 -174.5t140.5 -64.5
t140 64.5zM563 815h-302v78h302v-78z" />
    <glyph glyph-name="omacron" unicode="&#x14d;" horiz-adv-x="660" 
d="M174.5 25q-67.5 37 -105 105t-37.5 157q0 86 37.5 152.5t105 103t155.5 36.5t155.5 -37t105 -103t37.5 -152q0 -89 -37 -157t-104.5 -105t-156.5 -37q-88 0 -155.5 37zM420 174.5q33 42.5 33 112.5q0 67 -33.5 108t-89.5 41t-90.5 -41t-34.5 -108q0 -71 34 -113t91 -42
t90 42.5zM481 619h-302v78h302v-78z" />
    <glyph glyph-name="Ohungarumlaut" unicode="&#x150;" horiz-adv-x="826" 
d="M202 37q-86 54 -128 144.5t-42 200.5t42 200t127.5 143.5t211.5 53.5q125 0 210.5 -53.5t127.5 -143.5t42 -200t-42 -200.5t-127.5 -144.5t-210.5 -54t-211 54zM553 207.5q51 64.5 51 174.5q0 109 -51 173t-140 64t-140.5 -64t-51.5 -173q0 -110 51.5 -174.5t140.5 -64.5
t140 64.5zM367 814h-121l117 145h141zM577 814h-121l117 145h153z" />
    <glyph glyph-name="ohungarumlaut" unicode="&#x151;" horiz-adv-x="660" 
d="M174.5 25q-67.5 37 -105 105t-37.5 157q0 86 37.5 152.5t105 103t155.5 36.5t155.5 -37t105 -103t37.5 -152q0 -89 -37 -157t-104.5 -105t-156.5 -37q-88 0 -155.5 37zM420 174.5q33 42.5 33 112.5q0 67 -33.5 108t-89.5 41t-90.5 -41t-34.5 -108q0 -71 34 -113t91 -42
t90 42.5zM285 618h-121l117 145h141zM495 618h-121l117 145h153z" />
    <glyph glyph-name="OE" unicode="&#x152;" horiz-adv-x="1172" 
d="M196.5 37q-82.5 54 -123.5 144.5t-41 200.5t41 200t123 143.5t200 53.5q66 0 122.5 -23.5t89.5 -60.5v68h521v-160h-342v-142h309v-159h-309v-142h342v-160h-521v66q-33 -40 -88.5 -61.5t-123.5 -21.5q-117 0 -199.5 54zM553 207.5q51 64.5 51 174.5q0 109 -51 173
t-140 64t-140.5 -64t-51.5 -173q0 -110 51.5 -174.5t140.5 -64.5t140 64.5z" />
    <glyph glyph-name="oe" unicode="&#x153;" horiz-adv-x="1070" 
d="M1038 248h-408q3 -21 11 -40.5t18 -32.5q34 -43 100 -43q37 0 63.5 18t37.5 46h169q-26 -92 -96 -150t-183 -58q-64 0 -117 19.5t-92 56.5q-40 -37 -93.5 -56.5t-117.5 -19.5q-88 0 -155.5 37t-105 105t-37.5 157q0 86 37.5 152.5t105 103t155.5 36.5q64 0 117.5 -19.5
t93.5 -56.5q78 76 204 76q79 0 145.5 -31t107 -99t40.5 -172v-29zM868 367q-7 31 -27 51q-33 33 -90 33t-90 -33q-21 -21 -26 -51h233zM420 174.5q33 42.5 33 112.5q0 67 -33.5 108t-89.5 41t-90.5 -41t-34.5 -108q0 -71 34 -113t91 -42t90 42.5z" />
    <glyph glyph-name="Racute" unicode="&#x154;" horiz-adv-x="708" 
d="M684 0h-189l-111 294h-145v-294h-179v763h360q112 0 176.5 -55.5t64.5 -174.5q0 -71 -29 -124t-80 -82zM239 603v-154h156q89 0 89 78q0 37 -22.5 56.5t-66.5 19.5h-156zM394 814h-121l114 145h162z" />
    <glyph glyph-name="racute" unicode="&#x155;" horiz-adv-x="410" 
d="M55 0v567h168v-61q27 41 62 57t83 16h25v-160h-32q-64 0 -96 -30q-22 -21 -32 -57t-10 -93v-239h-168zM238 618h-121l114 145h162z" />
    <glyph glyph-name="uni0156" unicode="&#x156;" horiz-adv-x="708" 
d="M684 0h-189l-111 294h-145v-294h-179v763h360q112 0 176.5 -55.5t64.5 -174.5q0 -71 -29 -124t-80 -82zM239 603v-154h156q89 0 89 78q0 37 -22.5 56.5t-66.5 19.5h-156zM312 -159q54 0 66 28q3 6 3 15h-8q-9 -15 -32 -15q-19 0 -31 11t-12 33q0 24 18 39t47 15
q35 0 54 -20.5t19 -51.5q0 -91 -124 -91v37z" />
    <glyph glyph-name="uni0157" unicode="&#x157;" horiz-adv-x="410" 
d="M55 0v567h168v-61q27 41 62 57t83 16h25v-160h-32q-64 0 -96 -30q-22 -21 -32 -57t-10 -93v-239h-168zM84 -159q54 0 66 28q3 6 3 15h-8q-9 -15 -32 -15q-19 0 -31 11t-12 33q0 24 18 39t47 15q35 0 54 -20.5t19 -51.5q0 -91 -124 -91v37z" />
    <glyph glyph-name="Rcaron" unicode="&#x158;" horiz-adv-x="708" 
d="M684 0h-189l-111 294h-145v-294h-179v763h360q112 0 176.5 -55.5t64.5 -174.5q0 -71 -29 -124t-80 -82zM239 603v-154h156q89 0 89 78q0 37 -22.5 56.5t-66.5 19.5h-156zM349 782h-14l-169 177h131l45 -64l45 64h131z" />
    <glyph glyph-name="rcaron" unicode="&#x159;" horiz-adv-x="410" 
d="M55 0v567h168v-61q27 41 62 57t83 16h25v-160h-32q-64 0 -96 -30q-22 -21 -32 -57t-10 -93v-239h-168zM193 586h-14l-169 177h131l45 -64l45 64h131z" />
    <glyph glyph-name="Sacute" unicode="&#x15a;" horiz-adv-x="712" 
d="M223 9q-77 26 -131 88t-61 162h185q33 -126 164 -126q50 0 84.5 21.5t34.5 63.5q0 28 -21.5 46t-54 28t-91.5 23q-89 20 -144.5 41t-96 66.5t-40.5 123.5q0 76 37.5 128.5t101.5 78.5t144 26q82 0 152 -28.5t116 -86t58 -139.5h-185q-14 49 -51.5 76.5t-93.5 27.5
q-42 0 -71.5 -17t-29.5 -51q0 -26 20.5 -42.5t52 -26.5t88.5 -23q89 -20 147 -42t100 -70t42 -130q0 -75 -36 -130t-103 -84.5t-159 -29.5q-81 0 -158 26zM408 814h-121l114 145h162z" />
    <glyph glyph-name="sacute" unicode="&#x15b;" horiz-adv-x="588" 
d="M184.5 8.5q-60.5 20.5 -103.5 67t-52 120.5h163q13 -40 45 -60.5t71 -20.5q35 0 57.5 14t22.5 37q0 26 -28 38t-89 24q-67 13 -111 28.5t-76 51.5t-32 98q0 88 65 130.5t163 42.5q105 0 174.5 -52.5t85.5 -147.5h-159q-11 38 -39 56t-63 18q-31 0 -49.5 -12t-18.5 -31
q0 -26 28.5 -37.5t90.5 -22.5q68 -12 113 -27t77.5 -50t32.5 -96q0 -56 -29.5 -99t-84.5 -66.5t-129 -23.5q-65 0 -125.5 20.5zM345 618h-121l114 145h162z" />
    <glyph glyph-name="Scedilla" unicode="&#x15e;" horiz-adv-x="712" 
d="M643 97q-36 -55 -103 -84.5t-158 -29.5q-6 -5 -22 -15l5 -9q7 1 20 1q35 0 55 -12q17 -10 24.5 -25t7.5 -37q0 -46 -38 -70t-98 -24q-48 0 -96 15v61q54 -20 87 -20q22 0 33.5 9t11.5 25q0 30 -33.5 40.5t-91.5 10.5l51 57q-109 18 -184 83t-83 186h185q33 -126 164 -126
q50 0 84.5 21.5t34.5 63.5q0 28 -21.5 46t-54 28t-91.5 23q-89 20 -144.5 41t-96 66.5t-40.5 123.5q0 76 37.5 128.5t101.5 78.5t144 26q82 0 152 -28.5t116 -86t58 -139.5h-185q-14 49 -51.5 76.5t-93.5 27.5q-42 0 -71.5 -17t-29.5 -51q0 -26 20.5 -42.5t52 -26.5
t88.5 -23q89 -20 147 -42t100 -70t42 -130q0 -75 -36 -130z" />
    <glyph glyph-name="scedilla" unicode="&#x15f;" horiz-adv-x="588" 
d="M492.5 43.5q-60.5 -51.5 -166.5 -55.5q-18 -14 -29 -20l5 -9q7 1 20 1q35 0 55 -12q17 -10 24.5 -25t7.5 -37q0 -46 -38 -70t-98 -24q-48 0 -96 15v61q54 -20 87 -20q22 0 33.5 9t11.5 25q0 30 -33.5 40.5t-91.5 10.5l55 61q-83 15 -141.5 64t-68.5 138h163
q13 -40 45 -60.5t71 -20.5q35 0 57.5 14t22.5 37q0 26 -28 38t-89 24q-67 13 -111 28.5t-76 51.5t-32 98q0 88 65 130.5t163 42.5q105 0 174.5 -52.5t85.5 -147.5h-159q-11 38 -39 56t-63 18q-31 0 -49.5 -12t-18.5 -31q0 -26 28.5 -37.5t90.5 -22.5q68 -12 113 -27
t77.5 -50t32.5 -96q0 -82 -60.5 -133.5z" />
    <glyph glyph-name="Scaron" unicode="&#x160;" horiz-adv-x="712" 
d="M223 9q-77 26 -131 88t-61 162h185q33 -126 164 -126q50 0 84.5 21.5t34.5 63.5q0 28 -21.5 46t-54 28t-91.5 23q-89 20 -144.5 41t-96 66.5t-40.5 123.5q0 76 37.5 128.5t101.5 78.5t144 26q82 0 152 -28.5t116 -86t58 -139.5h-185q-14 49 -51.5 76.5t-93.5 27.5
q-42 0 -71.5 -17t-29.5 -51q0 -26 20.5 -42.5t52 -26.5t88.5 -23q89 -20 147 -42t100 -70t42 -130q0 -75 -36 -130t-103 -84.5t-159 -29.5q-81 0 -158 26zM363 782h-14l-169 177h131l45 -64l45 64h131z" />
    <glyph glyph-name="scaron" unicode="&#x161;" horiz-adv-x="588" 
d="M184.5 8.5q-60.5 20.5 -103.5 67t-52 120.5h163q13 -40 45 -60.5t71 -20.5q35 0 57.5 14t22.5 37q0 26 -28 38t-89 24q-67 13 -111 28.5t-76 51.5t-32 98q0 88 65 130.5t163 42.5q105 0 174.5 -52.5t85.5 -147.5h-159q-11 38 -39 56t-63 18q-31 0 -49.5 -12t-18.5 -31
q0 -26 28.5 -37.5t90.5 -22.5q68 -12 113 -27t77.5 -50t32.5 -96q0 -56 -29.5 -99t-84.5 -66.5t-129 -23.5q-65 0 -125.5 20.5zM300 586h-14l-169 177h131l45 -64l45 64h131z" />
    <glyph glyph-name="uni0162" unicode="&#x162;" horiz-adv-x="625" 
d="M402 0h-41q-23 -18 -44 -32l5 -9q7 1 20 1q35 0 55 -12q17 -10 24.5 -25t7.5 -37q0 -46 -38 -70t-98 -24q-48 0 -96 15v61q54 -20 87 -20q22 0 33.5 9t11.5 25q0 30 -33.5 40.5t-91.5 10.5l60 67h-41v603h-215v160h609v-160h-215v-603z" />
    <glyph glyph-name="uni0163" unicode="&#x163;" horiz-adv-x="398" 
d="M365 436h-98v-266q0 -34 34 -34h63v-136h-89q-23 -18 -44 -32l5 -9q7 1 20 1q35 0 55 -12q17 -10 24.5 -25t7.5 -37q0 -46 -38 -70t-98 -24q-48 0 -96 15v61q54 -20 87 -20q22 0 33.5 9t11.5 25q0 30 -33.5 40.5t-91.5 10.5l65 72q-41 10 -62.5 37.5t-21.5 70.5v323h-78
v131h78v196h168v-196h98v-131z" />
    <glyph glyph-name="Tcaron" unicode="&#x164;" horiz-adv-x="625" 
d="M402 0h-179v603h-215v160h609v-160h-215v-603zM320 782h-14l-169 177h131l45 -64l45 64h131z" />
    <glyph glyph-name="tcaron" unicode="&#x165;" horiz-adv-x="398" 
d="M230 0q-62 0 -96.5 29.5t-34.5 83.5v323h-78v131h78v196h168v-196h98v-131h-98v-266q0 -34 34 -34h63v-136h-134zM325 704q49 0 79.5 17.5t38.5 51.5q3 12 3 27q-9 -13 -21.5 -18t-30.5 -5q-30 0 -53.5 25t-23.5 65q0 44 28 70.5t74 26.5q56 0 85 -39.5t29 -104.5
q0 -81 -50 -139t-158 -63v86z" />
    <glyph glyph-name="Umacron" unicode="&#x16a;" horiz-adv-x="754" 
d="M130 64q-78 81 -78 221v478h180v-478q0 -66 32 -104t113 -38t112.5 38t31.5 104v478h180v-478q0 -140 -78 -221t-246 -81q-169 0 -247 81zM528 815h-302v78h302v-78z" />
    <glyph glyph-name="umacron" unicode="&#x16b;" 
d="M73 86q-13 29 -17.5 61.5t-4.5 102.5v317h168v-319q0 -42 5.5 -66t18.5 -38q20 -21 62 -21q52 0 75 29q11 15 16 37.5t5 58.5v319h168v-567h-168v61q-26 -38 -60 -55.5t-85 -17.5q-139 0 -183 98zM463 619h-302v78h302v-78z" />
    <glyph glyph-name="Uring" unicode="&#x16e;" horiz-adv-x="754" 
d="M130 64q-78 81 -78 221v478h180v-478q0 -66 32 -104t113 -38t112.5 38t31.5 104v478h180v-478q0 -140 -78 -221t-246 -81q-169 0 -247 81zM309.5 781.5q-30.5 18.5 -48 49.5t-17.5 66q0 36 18 66.5t48.5 48.5t66.5 18t66.5 -18t48.5 -48.5t18 -66.5q0 -37 -17.5 -67.5
t-48 -48.5t-67.5 -18t-67.5 18.5zM412.5 861.5q13.5 14.5 13.5 37.5q0 21 -13 34t-36 13t-36 -13.5t-13 -33.5q0 -23 14 -37.5t35 -14.5q22 0 35.5 14.5z" />
    <glyph glyph-name="uring" unicode="&#x16f;" 
d="M73 86q-13 29 -17.5 61.5t-4.5 102.5v317h168v-319q0 -42 5.5 -66t18.5 -38q20 -21 62 -21q52 0 75 29q11 15 16 37.5t5 58.5v319h168v-567h-168v61q-26 -38 -60 -55.5t-85 -17.5q-139 0 -183 98zM244.5 585.5q-30.5 18.5 -48 49.5t-17.5 66q0 36 18 66.5t48.5 48.5
t66.5 18t66.5 -18t48.5 -48.5t18 -66.5q0 -37 -17.5 -67.5t-48 -48.5t-67.5 -18t-67.5 18.5zM347.5 665.5q13.5 14.5 13.5 37.5q0 21 -13 34t-36 13t-36 -13.5t-13 -33.5q0 -23 14 -37.5t35 -14.5q22 0 35.5 14.5z" />
    <glyph glyph-name="Uhungarumlaut" unicode="&#x170;" horiz-adv-x="754" 
d="M130 64q-78 81 -78 221v478h180v-478q0 -66 32 -104t113 -38t112.5 38t31.5 104v478h180v-478q0 -140 -78 -221t-246 -81q-169 0 -247 81zM332 814h-121l117 145h141zM542 814h-121l117 145h153z" />
    <glyph glyph-name="uhungarumlaut" unicode="&#x171;" 
d="M73 86q-13 29 -17.5 61.5t-4.5 102.5v317h168v-319q0 -42 5.5 -66t18.5 -38q20 -21 62 -21q52 0 75 29q11 15 16 37.5t5 58.5v319h168v-567h-168v61q-26 -38 -60 -55.5t-85 -17.5q-139 0 -183 98zM267 618h-121l117 145h141zM477 618h-121l117 145h153z" />
    <glyph glyph-name="Uogonek" unicode="&#x172;" horiz-adv-x="754" 
d="M521 763h180v-478q0 -115 -53 -191.5t-166 -100.5q-46 -28 -60.5 -42t-14.5 -30q0 -27 34 -27q24 0 52 14v-103q-39 -13 -81 -13q-122 0 -122 82q0 40 22.5 63.5t79.5 42.5v3h-15q-169 0 -247 81t-78 221v478h180v-478q0 -66 32 -104t113 -38t112.5 38t31.5 104v478z" />
    <glyph glyph-name="uogonek" unicode="&#x173;" 
d="M569 0q-54 -33 -70 -47.5t-16 -31.5q0 -27 34 -27q24 0 52 14v-103q-39 -13 -81 -13q-122 0 -122 82q0 40 22.5 63.5t79.5 42.5v20h-67v61q-26 -38 -60 -55.5t-85 -17.5q-139 0 -183 98q-13 29 -17.5 61.5t-4.5 102.5v317h168v-319q0 -42 5.5 -66t18.5 -38q20 -21 62 -21
q52 0 75 29q11 15 16 37.5t5 58.5v319h168v-567z" />
    <glyph glyph-name="Wcircumflex" unicode="&#x174;" horiz-adv-x="1138" 
d="M483 0h-290l-182 763h188l136 -635l111 635h246l111 -636l136 636h188l-182 -763h-290l-86 576zM524 814h-131l169 178h14l169 -178h-131l-45 63z" />
    <glyph glyph-name="wcircumflex" unicode="&#x175;" horiz-adv-x="860" 
d="M346 0h-160l-177 567h179l83 -330l85 330h144l86 -328l86 328h178l-181 -567h-159l-80 341zM384 618h-131l169 178h14l169 -178h-131l-45 63z" />
    <glyph glyph-name="Ycircumflex" unicode="&#x176;" horiz-adv-x="718" 
d="M453 0h-188v303l-273 460h209l158 -287l158 287h209l-273 -460v-303zM312 814h-131l169 178h14l169 -178h-131l-45 63z" />
    <glyph glyph-name="ycircumflex" unicode="&#x177;" horiz-adv-x="576" 
d="M69 -196v137h68q24 0 40 8t26 31l5 12l-201 575h180l107 -402l92 402h181l-201 -603q-29 -87 -72.5 -123.5t-123.5 -36.5h-101zM237 618h-131l169 178h14l169 -178h-131l-45 63z" />
    <glyph glyph-name="Ydieresis" unicode="&#x178;" horiz-adv-x="718" 
d="M453 0h-188v303l-273 460h209l158 -287l158 287h209l-273 -460v-303zM179.5 825.5q-27.5 23.5 -27.5 62.5t27.5 63t67.5 24t67.5 -24t27.5 -63t-27.5 -62.5t-67.5 -23.5t-67.5 23.5zM398.5 825.5q-27.5 23.5 -27.5 62.5t27.5 63t67.5 24t67.5 -24t27.5 -63t-27.5 -62.5
t-67.5 -23.5t-67.5 23.5z" />
    <glyph glyph-name="Zacute" unicode="&#x179;" 
d="M593 0h-567v121l339 482h-318v160h544v-127l-333 -476h335v-160zM366 814h-121l114 145h162z" />
    <glyph glyph-name="zacute" unicode="&#x17a;" horiz-adv-x="570" 
d="M536 0h-507v101l291 334h-275v132h491v-109l-279 -326h279v-132zM339 618h-121l114 145h162z" />
    <glyph glyph-name="Zdotaccent" unicode="&#x17b;" 
d="M593 0h-567v121l339 482h-318v160h544v-127l-333 -476h335v-160zM246.5 825.5q-27.5 23.5 -27.5 62.5t27.5 63t67.5 24t67.5 -24t27.5 -63t-27.5 -62.5t-67.5 -23.5t-67.5 23.5z" />
    <glyph glyph-name="zdotaccent" unicode="&#x17c;" horiz-adv-x="570" 
d="M536 0h-507v101l291 334h-275v132h491v-109l-279 -326h279v-132zM219.5 629.5q-27.5 23.5 -27.5 62.5t27.5 63t67.5 24t67.5 -24t27.5 -63t-27.5 -62.5t-67.5 -23.5t-67.5 23.5z" />
    <glyph glyph-name="Zcaron" unicode="&#x17d;" 
d="M593 0h-567v121l339 482h-318v160h544v-127l-333 -476h335v-160zM321 782h-14l-169 177h131l45 -64l45 64h131z" />
    <glyph glyph-name="zcaron" unicode="&#x17e;" horiz-adv-x="570" 
d="M536 0h-507v101l291 334h-275v132h491v-109l-279 -326h279v-132zM294 586h-14l-169 177h131l45 -64l45 64h131z" />
    <glyph glyph-name="florin" unicode="&#x192;" horiz-adv-x="445" 
d="M55 -196v131h55q17 0 25 7.5t8 24.5v465h-88v135h88v61q0 66 39 100.5t114 34.5h99v-130h-59q-17 0 -25 -7.5t-8 -24.5v-34h92v-135h-92v-493q0 -66 -39.5 -100.5t-114.5 -34.5h-94z" />
    <glyph glyph-name="AEacute" unicode="&#x1fc;" horiz-adv-x="1028" 
d="M192 0h-190l261 763h501l56 -160h-306l48 -142h307l54 -159h-306l48 -142h307l54 -160h-498l-41 137h-254zM360 563l-80 -271h160zM566 814h-121l114 145h162z" />
    <glyph glyph-name="aeacute" unicode="&#x1fd;" horiz-adv-x="1003" 
d="M971 248h-408q3 -21 11 -40.5t18 -32.5q34 -43 100 -43q37 0 63.5 18t37.5 46h169q-26 -92 -96 -150t-183 -58q-78 0 -139.5 29t-100.5 82h-9q-15 -40 -49 -66q-32 -25 -73.5 -35t-82.5 -10q-87 0 -141.5 44t-54.5 127q0 90 71 137q27 17 59.5 27t74.5 18l147 26
q-3 43 -23 66q-19 20 -57 20q-30 0 -54 -20t-30 -55h-167q10 68 47.5 113t91 66.5t113.5 21.5q52 0 97.5 -14t78.5 -42l7 -6q75 62 189 62q79 0 145.5 -31t107 -99t40.5 -172v-29zM801 367q-7 31 -27 51q-33 33 -90 33t-90 -33q-21 -21 -26 -51h233zM374 171q12 27 14 77
l-103 -20q-28 -5 -43.5 -11t-25.5 -16q-15 -15 -15 -36q0 -25 19 -37.5t48 -12.5q30 0 61 14q33 15 45 42zM554 618h-121l114 145h162z" />
    <glyph glyph-name="Oslashacute" unicode="&#x1fe;" horiz-adv-x="826" 
d="M726 627q67 -103 67 -245q0 -110 -42 -200.5t-127.5 -144.5t-210.5 -54q-152 0 -250 82l-52 -52l-70 67l58 57q-33 51 -50 113.5t-17 131.5q0 110 42 200t127.5 143.5t211.5 53.5q151 0 248 -81l53 53l69 -67zM237 275l299 299q-48 45 -123 45q-89 0 -140.5 -64
t-51.5 -173q0 -62 16 -107zM553 207.5q51 64.5 51 174.5q0 62 -16 107l-300 -299q50 -47 125 -47q89 0 140 64.5zM464 814h-121l114 145h162z" />
    <glyph glyph-name="oslashacute" unicode="&#x1ff;" horiz-adv-x="660" 
d="M638 523l-61 -61q51 -74 51 -175q0 -89 -37 -157t-104.5 -105t-156.5 -37q-102 0 -177 50l-61 -61l-70 67l62 62q-52 76 -52 181q0 86 37.5 152.5t105 103t155.5 36.5q103 0 178 -50l61 61zM211 233l185 184q-30 19 -66 19q-56 0 -90.5 -41t-34.5 -108q0 -30 6 -54z
M448 333l-183 -183q29 -18 65 -18q57 0 90 42.5t33 112.5q0 23 -5 46zM382 618h-121l114 145h162z" />
    <glyph glyph-name="uni0218" unicode="&#x218;" horiz-adv-x="712" 
d="M223 9q-77 26 -131 88t-61 162h185q33 -126 164 -126q50 0 84.5 21.5t34.5 63.5q0 28 -21.5 46t-54 28t-91.5 23q-89 20 -144.5 41t-96 66.5t-40.5 123.5q0 76 37.5 128.5t101.5 78.5t144 26q82 0 152 -28.5t116 -86t58 -139.5h-185q-14 49 -51.5 76.5t-93.5 27.5
q-42 0 -71.5 -17t-29.5 -51q0 -26 20.5 -42.5t52 -26.5t88.5 -23q89 -20 147 -42t100 -70t42 -130q0 -75 -36 -130t-103 -84.5t-159 -29.5q-81 0 -158 26zM301 -159q54 0 66 28q3 6 3 15h-8q-9 -15 -32 -15q-19 0 -31 11t-12 33q0 24 18 39t47 15q35 0 54 -20.5t19 -51.5
q0 -91 -124 -91v37z" />
    <glyph glyph-name="uni0219" unicode="&#x219;" horiz-adv-x="588" 
d="M184.5 8.5q-60.5 20.5 -103.5 67t-52 120.5h163q13 -40 45 -60.5t71 -20.5q35 0 57.5 14t22.5 37q0 26 -28 38t-89 24q-67 13 -111 28.5t-76 51.5t-32 98q0 88 65 130.5t163 42.5q105 0 174.5 -52.5t85.5 -147.5h-159q-11 38 -39 56t-63 18q-31 0 -49.5 -12t-18.5 -31
q0 -26 28.5 -37.5t90.5 -22.5q68 -12 113 -27t77.5 -50t32.5 -96q0 -56 -29.5 -99t-84.5 -66.5t-129 -23.5q-65 0 -125.5 20.5zM238 -159q54 0 66 28q3 6 3 15h-8q-9 -15 -32 -15q-19 0 -31 11t-12 33q0 24 18 39t47 15q35 0 54 -20.5t19 -51.5q0 -91 -124 -91v37z" />
    <glyph glyph-name="uni021A" unicode="&#x21a;" horiz-adv-x="625" 
d="M402 0h-179v603h-215v160h609v-160h-215v-603zM258 -159q54 0 66 28q3 6 3 15h-8q-9 -15 -32 -15q-19 0 -31 11t-12 33q0 24 18 39t47 15q35 0 54 -20.5t19 -51.5q0 -91 -124 -91v37z" />
    <glyph glyph-name="uni021B" unicode="&#x21b;" horiz-adv-x="398" 
d="M230 0q-62 0 -96.5 29.5t-34.5 83.5v323h-78v131h78v196h168v-196h98v-131h-98v-266q0 -34 34 -34h63v-136h-134zM172 -159q54 0 66 28q3 6 3 15h-8q-9 -15 -32 -15q-19 0 -31 11t-12 33q0 24 18 39t47 15q35 0 54 -20.5t19 -51.5q0 -91 -124 -91v37z" />
    <glyph glyph-name="uni0237" unicode="&#x237;" horiz-adv-x="278" 
d="M-33 -196v137h52q36 0 36 35v591h168v-649q0 -54 -34 -84t-96 -30h-126z" />
    <glyph glyph-name="circumflex" unicode="&#x2c6;" horiz-adv-x="356" 
d="M133 618h-131l169 178h14l169 -178h-131l-45 63z" />
    <glyph glyph-name="caron" unicode="&#x2c7;" horiz-adv-x="356" 
d="M185 586h-14l-169 177h131l45 -64l45 64h131z" />
    <glyph glyph-name="breve" unicode="&#x2d8;" horiz-adv-x="346" 
d="M48.5 647.5q-42.5 41.5 -46.5 115.5h91q5 -34 27 -51t53 -17q32 0 53 17.5t26 50.5h92q-4 -73 -47.5 -115t-123.5 -42q-82 0 -124.5 41.5z" />
    <glyph glyph-name="dotaccent" unicode="&#x2d9;" horiz-adv-x="194" 
d="M29.5 629.5q-27.5 23.5 -27.5 62.5t27.5 63t67.5 24t67.5 -24t27.5 -63t-27.5 -62.5t-67.5 -23.5t-67.5 23.5z" />
    <glyph glyph-name="ring" unicode="&#x2da;" horiz-adv-x="270" 
d="M67.5 589.5q-30.5 18.5 -48 49.5t-17.5 66q0 36 18 66.5t48.5 48.5t66.5 18t66.5 -18t48.5 -48.5t18 -66.5q0 -37 -17.5 -67.5t-48 -48.5t-67.5 -18t-67.5 18.5zM170.5 669.5q13.5 14.5 13.5 37.5q0 21 -13 34t-36 13t-36 -13.5t-13 -33.5q0 -23 14 -37.5t35 -14.5
q22 0 35.5 14.5z" />
    <glyph glyph-name="ogonek" unicode="&#x2db;" horiz-adv-x="207" 
d="M2 -126q0 40 22.5 63.5t79.5 42.5v20h101q-54 -33 -70 -47.5t-16 -31.5q0 -27 34 -27q24 0 52 14v-103q-39 -13 -81 -13q-122 0 -122 82z" />
    <glyph glyph-name="tilde" unicode="&#x2dc;" horiz-adv-x="376" 
d="M199 613.5q-22 12.5 -45 34.5q-13 12 -20 17t-15 5q-25 0 -28 -68h-89q3 76 36 120.5t87 44.5q30 0 51.5 -12.5t45.5 -34.5q12 -11 19.5 -16.5t14.5 -5.5q11 0 18 16.5t8 48.5h92q-5 -83 -33 -122.5t-86 -39.5q-34 0 -56 12.5z" />
    <glyph glyph-name="hungarumlaut" unicode="&#x2dd;" horiz-adv-x="484" 
d="M123 618h-121l117 145h141zM333 618h-121l117 145h153z" />
    <glyph glyph-name="gravecomb" unicode="&#x300;" horiz-adv-x="0" 
d="M-116 763l114 -145h-121l-155 145h162z" />
    <glyph glyph-name="acutecomb" unicode="&#x301;" horiz-adv-x="0" 
d="M-157 618h-121l114 145h162z" />
    <glyph glyph-name="uni0302" unicode="&#x302;" horiz-adv-x="0" 
d="M-223 618h-131l169 178h14l169 -178h-131l-45 63z" />
    <glyph glyph-name="tildecomb" unicode="&#x303;" horiz-adv-x="0" 
d="M-177 613.5q-22 12.5 -45 34.5q-13 12 -20 17t-15 5q-25 0 -28 -68h-89q3 76 36 120.5t87 44.5q30 0 51.5 -12.5t45.5 -34.5q12 -11 19.5 -16.5t14.5 -5.5q11 0 18 16.5t8 48.5h92q-5 -83 -33 -122.5t-86 -39.5q-34 0 -56 12.5z" />
    <glyph glyph-name="uni0304" unicode="&#x304;" horiz-adv-x="0" 
d="M-2 619h-302v78h302v-78z" />
    <glyph glyph-name="uni0306" unicode="&#x306;" horiz-adv-x="0" 
d="M-297.5 647.5q-42.5 41.5 -46.5 115.5h91q5 -34 27 -51t53 -17q32 0 53 17.5t26 50.5h92q-4 -73 -47.5 -115t-123.5 -42q-82 0 -124.5 41.5z" />
    <glyph glyph-name="uni0307" unicode="&#x307;" horiz-adv-x="0" 
d="M-164.5 629.5q-27.5 23.5 -27.5 62.5t27.5 63t67.5 24t67.5 -24t27.5 -63t-27.5 -62.5t-67.5 -23.5t-67.5 23.5z" />
    <glyph glyph-name="uni0308" unicode="&#x308;" horiz-adv-x="0" 
d="M-383.5 629.5q-27.5 23.5 -27.5 62.5t27.5 63t67.5 24t67.5 -24t27.5 -63t-27.5 -62.5t-67.5 -23.5t-67.5 23.5zM-164.5 629.5q-27.5 23.5 -27.5 62.5t27.5 63t67.5 24t67.5 -24t27.5 -63t-27.5 -62.5t-67.5 -23.5t-67.5 23.5z" />
    <glyph glyph-name="uni030A" unicode="&#x30a;" horiz-adv-x="0" 
d="M-202.5 589.5q-30.5 18.5 -48 49.5t-17.5 66q0 36 18 66.5t48.5 48.5t66.5 18t66.5 -18t48.5 -48.5t18 -66.5q0 -37 -17.5 -67.5t-48 -48.5t-67.5 -18t-67.5 18.5zM-99.5 669.5q13.5 14.5 13.5 37.5q0 21 -13 34t-36 13t-36 -13.5t-13 -33.5q0 -23 14 -37.5t35 -14.5
q22 0 35.5 14.5z" />
    <glyph glyph-name="uni030B" unicode="&#x30b;" horiz-adv-x="0" 
d="M-361 618h-121l117 145h141zM-151 618h-121l117 145h153z" />
    <glyph glyph-name="uni030C" unicode="&#x30c;" horiz-adv-x="0" 
d="M-171 586h-14l-169 177h131l45 -64l45 64h131z" />
    <glyph glyph-name="uni030F" unicode="&#x30f;" horiz-adv-x="0" 
d="M-297 585q-13 0 -20 9l-140 149q-5 7 -5 10q0 10 14 10h113q12 0 19 -10l101 -149q3 -6 3 -10q0 -9 -13 -9h-72zM-87 585q-12 0 -20 9l-130 149q-5 7 -5 11t3.5 6.5t10.5 2.5h103q12 0 19 -10l101 -149q3 -6 3 -10q0 -9 -13 -9h-72z" />
    <glyph glyph-name="uni0312" unicode="&#x312;" horiz-adv-x="0" 
d="M-152 619.5q-23 28.5 -23 74.5q0 58 40 100t127 45v-62q-82 0 -95 -49q-2 -6 -2 -20q13 17 41 17q25 0 43.5 -18t18.5 -47q0 -31 -22.5 -50t-59.5 -19q-45 0 -68 28.5z" />
    <glyph glyph-name="uni031B" unicode="&#x31b;" horiz-adv-x="0" 
d="M-173 626q40 0 55.5 25.5t15.5 58.5v53h100v-43q0 -79 -42 -129.5t-129 -50.5v86z" />
    <glyph glyph-name="uni0326" unicode="&#x326;" horiz-adv-x="0" 
d="M-126 -159q54 0 66 28q3 6 3 15h-8q-9 -15 -32 -15q-19 0 -31 11t-12 33q0 24 18 39t47 15q35 0 54 -20.5t19 -51.5q0 -91 -124 -91v37z" />
    <glyph glyph-name="uni0327" unicode="&#x327;" horiz-adv-x="0" 
d="M-234 -193v61q54 -20 87 -20q22 0 33.5 9t11.5 25q0 30 -33.5 40.5t-91.5 10.5l81 90h100q-16 -16 -30 -28t-38 -27l5 -9q7 1 20 1q35 0 55 -12q17 -10 24.5 -25t7.5 -37q0 -46 -38 -70t-98 -24q-48 0 -96 15z" />
    <glyph glyph-name="uni0328" unicode="&#x328;" horiz-adv-x="0" 
d="M-205 -126q0 40 22.5 63.5t79.5 42.5v20h101q-54 -33 -70 -47.5t-16 -31.5q0 -27 34 -27q24 0 52 14v-103q-39 -13 -81 -13q-122 0 -122 82z" />
    <glyph glyph-name="uni0337" unicode="&#x337;" horiz-adv-x="0" 
d="M-2 406l-249 -129v112l249 129v-112z" />
    <glyph glyph-name="uni0338" unicode="&#x338;" horiz-adv-x="0" 
d="M-2 546l-546 -546l-70 67l547 546z" />
    <glyph glyph-name="uni0394" unicode="&#x394;" horiz-adv-x="720" 
d="M718 0h-716l261 763h194zM360 562l-123 -407h245z" />
    <glyph glyph-name="pi" unicode="&#x3c0;" horiz-adv-x="649" 
d="M88 0v422h-58v145h577v-145h-82v-259q0 -18 8 -25t26 -7h48v-131h-88q-75 0 -114.5 34.5t-39.5 100.5v287h-116v-422h-161z" />
    <glyph glyph-name="Wgrave" unicode="&#x1e80;" horiz-adv-x="1138" 
d="M483 0h-290l-182 763h188l136 -635l111 635h246l111 -636l136 636h188l-182 -763h-290l-86 576zM524 959l114 -145h-121l-155 145h162z" />
    <glyph glyph-name="wgrave" unicode="&#x1e81;" horiz-adv-x="860" 
d="M346 0h-160l-177 567h179l83 -330l85 330h144l86 -328l86 328h178l-181 -567h-159l-80 341zM384 763l114 -145h-121l-155 145h162z" />
    <glyph glyph-name="Wacute" unicode="&#x1e82;" horiz-adv-x="1138" 
d="M483 0h-290l-182 763h188l136 -635l111 635h246l111 -636l136 636h188l-182 -763h-290l-86 576zM621 814h-121l114 145h162z" />
    <glyph glyph-name="wacute" unicode="&#x1e83;" horiz-adv-x="860" 
d="M346 0h-160l-177 567h179l83 -330l85 330h144l86 -328l86 328h178l-181 -567h-159l-80 341zM481 618h-121l114 145h162z" />
    <glyph glyph-name="Wdieresis" unicode="&#x1e84;" horiz-adv-x="1138" 
d="M483 0h-290l-182 763h188l136 -635l111 635h246l111 -636l136 636h188l-182 -763h-290l-86 576zM391.5 825.5q-27.5 23.5 -27.5 62.5t27.5 63t67.5 24t67.5 -24t27.5 -63t-27.5 -62.5t-67.5 -23.5t-67.5 23.5zM610.5 825.5q-27.5 23.5 -27.5 62.5t27.5 63t67.5 24
t67.5 -24t27.5 -63t-27.5 -62.5t-67.5 -23.5t-67.5 23.5z" />
    <glyph glyph-name="wdieresis" unicode="&#x1e85;" horiz-adv-x="860" 
d="M346 0h-160l-177 567h179l83 -330l85 330h144l86 -328l86 328h178l-181 -567h-159l-80 341zM251.5 629.5q-27.5 23.5 -27.5 62.5t27.5 63t67.5 24t67.5 -24t27.5 -63t-27.5 -62.5t-67.5 -23.5t-67.5 23.5zM470.5 629.5q-27.5 23.5 -27.5 62.5t27.5 63t67.5 24t67.5 -24
t27.5 -63t-27.5 -62.5t-67.5 -23.5t-67.5 23.5z" />
    <glyph glyph-name="uni1E9E" unicode="&#x1e9e;" horiz-adv-x="703" 
d="M60 450q0 89 16.5 149.5t54.5 101.5q73 78 228 78q72 0 133.5 -25.5t106.5 -67.5v-151l-104 -100q39 -4 69 -18q52 -23 79 -68.5t27 -112.5q0 -145 -94.5 -190.5t-189.5 -45.5h-87v160h95q97 0 97 80q0 75 -104 75h-65v137l134 131q-45 36 -97 36q-60 0 -90 -36
q-15 -18 -22.5 -49t-7.5 -84v-450h-179v450z" />
    <glyph glyph-name="Ygrave" unicode="&#x1ef2;" horiz-adv-x="718" 
d="M453 0h-188v303l-273 460h209l158 -287l158 287h209l-273 -460v-303zM312 959l114 -145h-121l-155 145h162z" />
    <glyph glyph-name="ygrave" unicode="&#x1ef3;" horiz-adv-x="576" 
d="M69 -196v137h68q24 0 40 8t26 31l5 12l-201 575h180l107 -402l92 402h181l-201 -603q-29 -87 -72.5 -123.5t-123.5 -36.5h-101zM237 763l114 -145h-121l-155 145h162z" />
    <glyph glyph-name="endash" unicode="&#x2013;" horiz-adv-x="547" 
d="M524 258h-501v120h501v-120z" />
    <glyph glyph-name="emdash" unicode="&#x2014;" horiz-adv-x="1106" 
d="M1106 258h-1106v120h1106v-120z" />
    <glyph glyph-name="uni2015" unicode="&#x2015;" horiz-adv-x="806" 
d="M743 274h-680v100h680v-100z" />
    <glyph glyph-name="quoteleft" unicode="&#x2018;" horiz-adv-x="326" 
d="M76 470.5q-29 39.5 -29 104.5q0 81 50 139t158 63v-86q-49 0 -79.5 -17.5t-38.5 -51.5q-3 -12 -3 -27q9 13 21.5 18t30.5 5q30 0 53.5 -25t23.5 -65q0 -44 -28 -70.5t-74 -26.5q-56 0 -85 39.5z" />
    <glyph glyph-name="quoteright" unicode="&#x2019;" horiz-adv-x="325" 
d="M70 515q49 0 79.5 17.5t38.5 51.5q3 12 3 27q-9 -13 -21.5 -18t-30.5 -5q-30 0 -53.5 25t-23.5 65q0 44 28 70.5t74 26.5q56 0 85 -39.5t29 -104.5q0 -81 -50 -139t-158 -63v86z" />
    <glyph glyph-name="quotesinglbase" unicode="&#x201a;" horiz-adv-x="276" 
d="M38 -84q49 0 79.5 17.5t38.5 51.5q3 12 3 27q-9 -13 -21.5 -18t-30.5 -5q-30 0 -53.5 25t-23.5 65q0 44 28 70.5t74 26.5q56 0 85 -39.5t29 -104.5q0 -81 -50 -139t-158 -63v86z" />
    <glyph glyph-name="quotedblleft" unicode="&#x201c;" horiz-adv-x="571" 
d="M255 692q-49 0 -79.5 -17.5t-38.5 -51.5q-3 -12 -3 -27q9 13 21.5 18t30.5 5q30 0 53.5 -25t23.5 -65q0 -44 -28 -70.5t-74 -26.5q-56 0 -85 39.5t-29 104.5q0 81 50 139t158 63v-86zM500 692q-49 0 -79.5 -17.5t-38.5 -51.5q-3 -12 -3 -27q9 13 21.5 18t30.5 5
q30 0 53.5 -25t23.5 -65q0 -44 -28 -70.5t-74 -26.5q-56 0 -85 39.5t-29 104.5q0 81 50 139t158 63v-86z" />
    <glyph glyph-name="quotedblright" unicode="&#x201d;" horiz-adv-x="570" 
d="M70 515q49 0 79.5 17.5t38.5 51.5q3 12 3 27q-9 -13 -21.5 -18t-30.5 -5q-30 0 -53.5 25t-23.5 65q0 44 28 70.5t74 26.5q56 0 85 -39.5t29 -104.5q0 -81 -50 -139t-158 -63v86zM315 515q49 0 79.5 17.5t38.5 51.5q3 12 3 27q-9 -13 -21.5 -18t-30.5 -5q-30 0 -53.5 25
t-23.5 65q0 44 28 70.5t74 26.5q56 0 85 -39.5t29 -104.5q0 -81 -50 -139t-158 -63v86z" />
    <glyph glyph-name="quotedblbase" unicode="&#x201e;" horiz-adv-x="521" 
d="M38 -85q49 0 79.5 17.5t38.5 51.5q3 12 3 27q-9 -13 -21.5 -18t-30.5 -5q-30 0 -53.5 25t-23.5 65q0 44 28 70.5t74 26.5q56 0 85 -39.5t29 -104.5q0 -81 -50 -139t-158 -63v86zM283 -85q49 0 79.5 17.5t38.5 51.5q3 12 3 27q-9 -13 -21.5 -18t-30.5 -5q-30 0 -53.5 25
t-23.5 65q0 44 28 70.5t74 26.5q56 0 85 -39.5t29 -104.5q0 -81 -50 -139t-158 -63v86z" />
    <glyph glyph-name="dagger" unicode="&#x2020;" horiz-adv-x="584" 
d="M353 -196h-123v617h-220v121h220v221h123v-221h221v-121h-221v-617z" />
    <glyph glyph-name="bullet" unicode="&#x2022;" horiz-adv-x="384" 
d="M101.5 169.5q-37.5 37.5 -37.5 90.5t37.5 90.5t90.5 37.5t90.5 -37.5t37.5 -90.5t-37.5 -90.5t-90.5 -37.5t-90.5 37.5z" />
    <glyph glyph-name="uni2023" unicode="&#x2023;" horiz-adv-x="457" 
d="M457 288l-360 -211v421z" />
    <glyph glyph-name="ellipsis" unicode="&#x2026;" horiz-adv-x="693" 
d="M58.5 15.5q-28.5 27.5 -28.5 66.5t28 66.5t68 27.5q37 0 64.5 -28t27.5 -66q0 -39 -27.5 -66.5t-64.5 -27.5q-39 0 -67.5 27.5zM280.5 15.5q-27.5 27.5 -27.5 66.5q0 38 27.5 66t66.5 28t66.5 -28t27.5 -66q0 -39 -28 -66.5t-66 -27.5q-39 0 -66.5 27.5zM502.5 15.5
q-27.5 27.5 -27.5 66.5q0 38 27.5 66t66.5 28q38 0 66 -28t28 -66q0 -39 -28 -66.5t-66 -27.5q-39 0 -66.5 27.5z" />
    <glyph glyph-name="perthousand" unicode="&#x2030;" horiz-adv-x="1144" 
d="M121 439.5q-39 21.5 -62 62.5t-23 97t22.5 97t60.5 62t84 21q47 0 85.5 -24t60.5 -65.5t22 -91.5q0 -49 -21.5 -90.5t-59.5 -65.5t-84 -24t-85 21.5zM203 0h-128l486 763h129zM237 557.5q12 16.5 12 40.5q0 29 -13.5 44t-32.5 15t-32 -13t-13 -45q0 -58 48 -58
q19 0 31 16.5zM486 4.5q-39 21.5 -62 62.5t-23 97t22.5 96.5t60.5 61.5t84 21q47 0 85.5 -24t60.5 -65.5t22 -91.5q0 -49 -21.5 -90t-59.5 -65t-84 -24t-85 21.5zM858 4.5q-39 21.5 -62 62.5t-23 97t22.5 96.5t60.5 61.5t84 21q47 0 85.5 -24t60.5 -65.5t22 -91.5
q0 -49 -21.5 -90t-59.5 -65t-84 -24t-85 21.5zM602 120.5q13 16.5 13 41.5q0 29 -14 44t-33 15q-45 0 -45 -57q0 -60 48 -60q18 0 31 16.5zM974 120.5q13 16.5 13 41.5q0 29 -14 44t-33 15q-45 0 -45 -57q0 -60 48 -60q18 0 31 16.5z" />
    <glyph glyph-name="guilsinglleft" unicode="&#x2039;" horiz-adv-x="308" 
d="M232 221v-141l-240 195l240 197v-140l-73 -57z" />
    <glyph glyph-name="guilsinglright" unicode="&#x203a;" horiz-adv-x="308" 
d="M316 275l-240 -195v141l73 54l-73 57v140z" />
    <glyph glyph-name="fraction" unicode="&#x2044;" horiz-adv-x="177" 
d="M-95 0h-92l459 763h92z" />
    <glyph glyph-name="Euro" unicode="&#x20ac;" horiz-adv-x="597" 
d="M357 586.5q-45 -32.5 -66 -90.5h198v-80h-216q-1 -11 -1 -34q0 -20 1 -29h216v-80h-201q21 -62 66.5 -96t109.5 -34q36 0 72 13v-168q-38 -5 -72 -5q-154 0 -247.5 79.5t-122.5 210.5h-61v80h51q-1 10 -1 29q0 23 1 34h-51v80h62q29 128 122.5 205.5t246.5 77.5
q34 0 72 -5v-168q-32 13 -72 13q-62 0 -107 -32.5z" />
    <glyph glyph-name="uni2116" unicode="&#x2116;" horiz-adv-x="1304" 
d="M894.5 317q-56.5 31 -87.5 87.5t-31 130.5q0 72 31 127.5t87.5 86t129.5 30.5t129.5 -31t87.5 -86.5t31 -126.5q0 -74 -30.5 -130.5t-87 -87.5t-130.5 -31q-73 0 -129.5 31zM239 0h-179v763h182l293 -463v463h179v-763h-182l-293 466v-466zM1099 441.5q28 35.5 28 93.5
q0 56 -28 90t-75 34t-75.5 -34.5t-28.5 -89.5q0 -59 28.5 -94t75.5 -35t75 35.5zM1235 127h-422v123h422v-123z" />
    <glyph glyph-name="trademark" unicode="&#x2122;" horiz-adv-x="825" 
d="M218 381h-89v302h-108v80h305v-80h-108v-302zM450 381h-90v382h144l63 -275l63 275h144v-382h-89v310l-74 -310h-87l-74 308v-308z" />
    <glyph glyph-name="minus" unicode="&#x2212;" horiz-adv-x="679" 
d="M580 279h-481v121h481v-121z" />
    <glyph glyph-name="lozenge" unicode="&#x25ca;" horiz-adv-x="701" 
d="M476 0h-251l-211 382l210 381h251l211 -382zM208 382l141 -289l144 289l-143 288z" />
    <glyph glyph-name="uniF8FF" unicode="&#xf8ff;" horiz-adv-x="884" 
d="M69 0q-9 0 -9 10v743q0 10 9 10h744q10 0 10 -10v-743q0 -10 -10 -10h-744zM236 94q11 11 17 22.5t14 31.5q13 36 33 69t67 82l25 26q4 4 8 4t9 -3q7 -4 17 -6q10 -3 10 -13v-36q0 -43 -5.5 -67t-15.5 -47q-10 -20 -10 -37q0 -14 11 -25t25 -11q15 0 26 11t11 25
q0 17 -10 37q-10 23 -15.5 47t-5.5 67v36q0 10 10 13q13 4 15 6q4 3 8 3q5 0 9 -4l26 -26q48 -48 68 -81.5t33 -69.5q6 -19 12 -30.5t18 -23.5q17 -15 40 -15q26 0 41 15q17 17 17 42t-16 40q-12 12 -23.5 18t-30.5 12q-37 13 -70 32.5t-81 67.5l-26 26q-4 4 -4 9q0 3 3 7
q6 12 7 18q3 11 12 11h36q44 0 68.5 -6t46.5 -16q2 -1 13 -5.5t24 -4.5q14 0 25 11t11 26q0 14 -11 25.5t-25 11.5q-13 0 -24 -4.5t-13 -5.5q-22 -10 -46.5 -16t-68.5 -6h-36q-9 0 -12 11q-4 10 -7 15t-3 8q0 4 4 8l26 26q48 48 82 68.5t69 31.5q4 2 16 6.5t21 10t16 13.5
q17 19 17 41q0 24 -17 41q-16 16 -41 16t-40 -15q-11 -11 -17 -22.5t-14 -32.5q-13 -37 -32.5 -70t-67.5 -81l-25 -24q-3 -4 -9 -4q-4 0 -7 2q-5 3 -17 7q-10 3 -10 13v36q0 43 5.5 67t15.5 47q10 20 10 37q0 14 -11 25t-25 11q-15 0 -26 -11t-11 -25q0 -17 10 -37
q10 -23 15.5 -47t5.5 -67v-36q0 -10 -10 -13q-2 -1 -7.5 -2.5t-9.5 -4.5q-3 -2 -7 -2q-6 0 -10 4l-25 24q-49 49 -69.5 83t-31.5 69q-7 19 -13 31t-17 23q-16 16 -40 16q-22 0 -40 -16q-17 -17 -17 -42t16 -41q11 -11 22.5 -17t30.5 -13q36 -13 69 -33t82 -67l26 -25
q4 -4 4 -8q0 -3 -3 -8q-2 -3 -7 -16q-3 -11 -12 -11h-36q-44 0 -68.5 6t-46.5 16q-2 1 -13 5.5t-24 4.5q-14 0 -25 -11.5t-11 -25.5q0 -15 11 -26t25 -11q13 0 24 4.5t13 5.5q22 10 46.5 16t68.5 6h36q9 0 12 -11q5 -12 8 -17q2 -6 2 -7q0 -5 -4 -9l-26 -27
q-48 -49 -81.5 -68.5t-69.5 -31.5q-20 -7 -31.5 -13t-22.5 -17q-16 -15 -16 -40q0 -24 16 -41q16 -16 42 -16q25 0 40 15zM403 343.5q-16 16.5 -16 38.5t16 38t38 16t38 -16t16 -38q0 -23 -16 -39t-38 -16t-38 16.5zM473 354l-6 6q-10 -13 -26 -13q-14 0 -24 10.5t-10 24.5
t10.5 24t23.5 10q16 0 27 -13l5 6q-10 15 -32 15q-17 0 -30 -12.5t-13 -29.5t13 -30t30 -13q22 0 32 15z" />
    <glyph glyph-name="i.loclTRK" horiz-adv-x="278" 
d="M223 0h-168v567h168v-567zM71.5 629.5q-27.5 23.5 -27.5 62.5t27.5 63t67.5 24t67.5 -24t27.5 -63t-27.5 -62.5t-67.5 -23.5t-67.5 23.5z" />
    <glyph glyph-name="uni030C.alt" horiz-adv-x="0" 
d="M-210 515q49 0 79.5 17.5t38.5 51.5q3 12 3 27q-9 -13 -21.5 -18t-30.5 -5q-30 0 -53.5 25t-23.5 65q0 44 28 70.5t74 26.5q56 0 85 -39.5t29 -104.5q0 -81 -50 -139t-158 -63v86z" />
    <glyph glyph-name="uni0308.case" horiz-adv-x="0" 
d="M-424.5 825.5q-27.5 23.5 -27.5 62.5t27.5 63t67.5 24t67.5 -24t27.5 -63t-27.5 -62.5t-67.5 -23.5t-67.5 23.5zM-205.5 825.5q-27.5 23.5 -27.5 62.5t27.5 63t67.5 24t67.5 -24t27.5 -63t-27.5 -62.5t-67.5 -23.5t-67.5 23.5z" />
    <glyph glyph-name="uni0307.case" horiz-adv-x="0" 
d="M-205.5 825.5q-27.5 23.5 -27.5 62.5t27.5 63t67.5 24t67.5 -24t27.5 -63t-27.5 -62.5t-67.5 -23.5t-67.5 23.5z" />
    <glyph glyph-name="uni0328.case" horiz-adv-x="0" 
d="M-205 -126q0 40 22.5 63.5t79.5 42.5v20h101q-54 -33 -70 -47.5t-16 -31.5q0 -27 34 -27q24 0 52 14v-103q-39 -13 -81 -13q-122 0 -122 82z" />
    <glyph glyph-name="uni0335.case" horiz-adv-x="0" 
d="M-67 279h-421v121h421v-121z" />
    <glyph glyph-name="uni0337.case" horiz-adv-x="0" 
d="M-15 423l-394 -204v129l394 203v-128z" />
    <glyph glyph-name="uni0338.case" horiz-adv-x="0" 
d="M38 671l-672 -671l-70 67l673 671z" />
    <glyph glyph-name="base_No" horiz-adv-x="506" 
d="M506 0h-506v148h506v-148z" />
    </font>
</defs>
</svg>
