<?xml version="1.0" standalone="no"?>
<!DOCTYPE svg PUBLIC "-//W3C//DTD SVG 1.1//EN" "http://www.w3.org/Graphics/SVG/1.1/DTD/svg11.dtd" >
<svg xmlns="http://www.w3.org/2000/svg" xmlns:xlink="http://www.w3.org/1999/xlink" version="1.1">
<metadata>
Created by FontForge 20170731 at Thu Apr 16 09:54:39 2020
 By Aleksey,,,
Copyright (c) 2020 by Alfredo Marco Pradil. All rights reserved.
</metadata>
<defs>
<font id="OpenSauceOne-BoldItalic" horiz-adv-x="0" >
  <font-face 
    font-family="Open Sauce One"
    font-weight="700"
    font-style="italic"
    font-stretch="normal"
    units-per-em="1000"
    panose-1="0 0 8 0 0 0 0 0 0 0"
    ascent="763"
    descent="-237"
    x-height="561"
    cap-height="763"
    bbox="-772 -237 1299 1029"
    underline-thickness="50"
    underline-position="-150"
    slope="-10"
    unicode-range="U+0020-FB02"
  />
<missing-glyph horiz-adv-x="596" 
d="M478 0h-460l99 561h460zM150 521l-85 -481h380l85 481h-380z" />
    <glyph glyph-name="fi" unicode="fi" horiz-adv-x="626" 
d="M59 0l80 453h-85l19 108h85l10 57q12 70 58.5 107.5t121.5 37.5h84l-19 -107h-52q-50 0 -61 -57l-6 -38h103l-19 -108h-103l-80 -453h-136zM515 0h-135l99 561h135zM507 640q-20 17 -20 45q0 39 29.5 65.5t68.5 26.5q31 0 50.5 -18t19.5 -46q0 -39 -29 -64.5t-68 -25.5
q-31 0 -51 17z" />
    <glyph glyph-name="fl" unicode="fl" horiz-adv-x="670" 
d="M59 0l80 453h-85l19 108h85l10 57q12 70 58.5 107.5t121.5 37.5h84l-19 -107h-52q-50 0 -61 -57l-6 -38h103l-19 -108h-103l-80 -453h-136zM508 0q-112 0 -112 89q0 16 3 34l113 640h135l-106 -600q-2 -7 -2 -20q0 -17 9.5 -24t29.5 -7h36l-20 -112h-86z" />
    <glyph glyph-name="s_a_u_c_e_l_o_g_o.liga" unicode="saucelogo" horiz-adv-x="899" 
d="M27 0q-9 0 -7 10l131 743q2 10 11 10h744q10 0 8 -10l-131 -743q-1 -4 -4 -7t-8 -3h-744zM211 94q13 11 22.5 25t17.5 28q19 36 45 69.5t82 82.5l29 26q5 4 9 4q5 0 8 -3q7 -4 16 -6q9 -3 8 -13l-6 -36q-8 -43 -17.5 -66t-23.5 -48q-14 -21 -17 -37q-2 -14 7 -25t23 -11
q15 0 28 11t15 25q1 4 1 12q0 7 -4 25q-7 28 -7 51q0 32 6 63l6 36q1 9 12 13q13 4 16 6q6 3 9 3q5 0 8 -4l22 -26q40 -48 54 -81.5t20 -69.5q4 -20 8 -31.5t13 -22.5q14 -15 37 -15q26 0 44 15q25 22 25 53q0 19 -10 29q-9 12 -19.5 18t-29.5 12q-35 14 -64.5 33t-68.5 67
l-21 26q-3 3 -3 9l4 7q8 12 11 18q5 11 13 11h36q45 0 68.5 -6t42.5 -16q3 -1 13 -5.5t23 -4.5q16 0 29.5 13.5t13.5 30.5q0 12 -8.5 21t-21.5 9t-25 -4.5t-14 -5.5q-22 -10 -48 -16t-71 -6h-36q-8 0 -10 11q-2 10 -4 15q-2 3 -2 8q3 6 6 8l30 26q57 48 94.5 68.5t74.5 31.5
q4 2 16.5 6.5t22.5 10t19 13.5q25 23 25 52q0 19 -10 30q-13 16 -39 16q-24 0 -42 -15q-13 -11 -21 -22.5t-20 -32.5q-19 -37 -44.5 -70t-82.5 -81l-29 -24q-3 -4 -9 -4q-4 0 -7 2q-6 4 -16 7q-9 3 -8 13l7 36q7 44 17 68t24 45q2 3 8 14.5t8 23.5q3 14 -6 25t-23 11
q-15 0 -28 -11t-16 -25q-1 -4 -1 -11q0 -8 4 -26q8 -24 8 -53q0 -22 -6 -61l-7 -36q-1 -9 -12 -13q-2 -1 -7.5 -2.5t-10.5 -4.5q-3 -2 -8 -2q-6 0 -9 4l-21 24q-40 48 -54.5 82.5t-19.5 69.5q-3 19 -7 31t-13 23q-13 16 -37 16q-22 0 -43 -16q-26 -23 -26 -52q0 -20 10 -31
q9 -11 19.5 -17t28.5 -13q33 -13 63 -33t70 -67l22 -25q3 -5 2 -8q0 -4 -4 -8q-2 -2 -10 -16q-5 -11 -14 -11h-36q-44 0 -68 6t-43 16q-2 1 -12 5.5t-23 4.5q-16 0 -29.5 -13t-13.5 -29q0 -14 8.5 -23t21.5 -9q12 0 23.5 4.5t15.5 5.5q22 10 47.5 16t70.5 6h36q9 0 11 -11
q2 -12 5 -17v-5q0 -6 -5 -11l-31 -27q-56 -49 -93 -68.5t-76 -31.5q-21 -7 -33.5 -13t-25.5 -17q-11 -9 -17.5 -23t-6.5 -28q0 -17 10 -30q13 -16 39 -16q25 0 43 15zM424.5 340.5q-13.5 13.5 -13.5 32.5q0 24 20.5 43.5t44.5 19.5q20 0 32.5 -13t12.5 -32
q0 -25 -19.5 -44.5t-44.5 -19.5q-19 0 -32.5 13.5zM493 354l-5 6q-11 -13 -28 -13q-12 0 -20 8.5t-8 21.5q0 15 12.5 27t27.5 12t25 -13l6 6q-7 15 -29 15q-19 0 -35.5 -15t-16.5 -34q0 -15 10.5 -25.5t26.5 -10.5q22 0 34 15z" />
    <glyph glyph-name=".notdef" horiz-adv-x="596" 
d="M478 0h-460l99 561h460zM150 521l-85 -481h380l85 481h-380z" />
    <glyph glyph-name=".null" 
 />
    <glyph glyph-name="nonmarkingreturn" horiz-adv-x="333" 
 />
    <glyph glyph-name="space" unicode=" " horiz-adv-x="268" 
 />
    <glyph glyph-name="exclam" unicode="!" horiz-adv-x="276" 
d="M72 231l4 34q17 141 30 218l50 280h134l-49 -280q-12 -69 -45 -211q-4 -13 -10 -41h-114zM38 8q-19 19 -19 47q0 37 29 65.5t67 28.5q28 0 47 -19t19 -47q0 -37 -29 -65.5t-65 -28.5q-30 0 -49 19z" />
    <glyph glyph-name="quotedbl" unicode="&#x22;" horiz-adv-x="366" 
d="M177 485h-100l49 278h100zM360 485h-100l50 278h100z" />
    <glyph glyph-name="numbersign" unicode="#" horiz-adv-x="747" 
d="M173 0h-102l89 223h-126l16 92h145l55 144h-131l17 96h152l84 208h102l-84 -213h137l82 213h103l-86 -213h126l-16 -91h-146l-57 -144h133l-16 -92h-152l-88 -223h-101l88 223h-139zM351 459l-53 -144h136l55 144h-138z" />
    <glyph glyph-name="dollar" unicode="$" horiz-adv-x="696" 
d="M535 536q-4 49 -31 77t-72 37l-33 -192q4 0 10 -2q75 -17 123.5 -35t83 -55.5t34.5 -100.5q0 -84 -43.5 -147.5t-119 -97.5t-169.5 -34h-3l-15 -86h-42l15 88q-243 18 -243 260h148q5 -115 118 -135l38 220q-73 17 -119 34t-78.5 52t-32.5 93q0 79 41 138.5t112 92.5
t156 34l15 86h42l-15 -88q103 -10 166 -70.5t60 -168.5h-146zM279 500.5q27 -18.5 79 -32.5l33 186q-58 -1 -98.5 -28t-40.5 -75q0 -32 27 -50.5zM468.5 289q-32.5 20 -93.5 35l-38 -215h4q70 0 115 32.5t45 89.5q0 38 -32.5 58z" />
    <glyph glyph-name="percent" unicode="%" horiz-adv-x="778" 
d="M132 457.5q-37 37.5 -37 100.5q0 57 25.5 107.5t70 81t99.5 30.5q59 0 95 -40t36 -102q0 -54 -26 -104t-70 -80.5t-95 -30.5q-61 0 -98 37.5zM157 0h-110l605 763h110zM298 551q22 29 22 68q0 26 -13.5 41.5t-34.5 15.5q-35 0 -55 -30t-20 -70q0 -26 13.5 -40t36.5 -14
q29 0 51 29zM429 23.5q-37 37.5 -37 100.5q0 57 25.5 107t70 80t98.5 30q59 0 95.5 -39.5t36.5 -102.5q0 -54 -26.5 -103t-70.5 -79.5t-95 -30.5q-60 0 -97 37.5zM594.5 114.5q22.5 28.5 22.5 67.5q0 27 -13.5 42.5t-34.5 15.5q-35 0 -55 -30t-20 -70q0 -26 13.5 -40
t36.5 -14q28 0 50.5 28.5z" />
    <glyph glyph-name="ampersand" unicode="&#x26;" horiz-adv-x="747" 
d="M88.5 29q-63.5 43 -63.5 121q0 60 28 106.5t74 82t115 73.5q-32 39 -46 71t-14 68q0 66 34 117.5t91 80t125 28.5q82 0 129.5 -37.5t47.5 -103.5q0 -76 -51 -136t-135 -106l96 -155q24 34 38.5 66.5t27.5 75.5h126q-40 -147 -129 -243l86 -138h-166l-34 56
q-43 -36 -101 -53t-119 -17q-96 0 -159.5 43zM445 539.5q31 31.5 31 70.5q0 25 -17 41t-46 16q-40 0 -68.5 -27.5t-28.5 -70.5q0 -21 9.5 -42t30.5 -53q58 34 89 65.5zM346 113q38 12 69 32l-114 182q-66 -36 -103 -70t-37 -81q0 -36 31 -55.5t80 -19.5q36 0 74 12z" />
    <glyph glyph-name="quotesingle" unicode="'" horiz-adv-x="181" 
d="M177 485h-100l49 278h100z" />
    <glyph glyph-name="parenleft" unicode="(" horiz-adv-x="299" 
d="M95 -110q-45 123 -45 271q0 102 21 220q52 292 197 491h120q-81 -108 -131.5 -226.5t-76.5 -264.5q-19 -108 -19 -204q0 -153 54 -287h-120z" />
    <glyph glyph-name="parenright" unicode=")" horiz-adv-x="299" 
d="M-53 -110q80 106 130 225.5t76 265.5q20 104 20 204q0 152 -54 287h121q44 -124 44 -271q0 -103 -21 -220q-50 -287 -196 -491h-120z" />
    <glyph glyph-name="asterisk" unicode="*" horiz-adv-x="425" 
d="M103 484q29 27 56 47.5t72 46.5l-2 13q-16 -1 -43 -1q-39 0 -67 4t-33 5l51 94q5 -2 24.5 -12.5t39.5 -25.5t40 -34l12 9q-9 51 -9 92q0 15 2 41h104q-11 -35 -22 -63t-33 -70l9 -8q39 27 67 41.5t64 29.5l15 -94q-50 -9 -97 -9q-12 0 -48 2l-6 -13q35 -25 54.5 -46
t39.5 -49l-95 -57q-22 73 -30 133h-14q-32 -67 -77 -133z" />
    <glyph glyph-name="plus" unicode="+" horiz-adv-x="628" 
d="M325 58h-102l40 229h-229l18 101h229l41 229h102l-41 -229h230l-18 -101h-230z" />
    <glyph glyph-name="comma" unicode="," horiz-adv-x="274" 
d="M-19 -101q56 4 90.5 33.5t38.5 79.5q-19 -23 -53 -23q-23 0 -39 16.5t-16 43.5q0 43 29.5 71.5t73.5 28.5q41 0 62 -26t21 -70q0 -60 -28 -109.5t-78 -79.5t-114 -34z" />
    <glyph glyph-name="hyphen" unicode="-" horiz-adv-x="365" 
d="M338 267h-315l20 115h315z" />
    <glyph glyph-name="period" unicode="." horiz-adv-x="244" 
d="M23 8q-20 19 -20 47q0 37 30 65.5t68 28.5q28 0 46.5 -19.5t18.5 -47.5q0 -36 -29 -64.5t-65 -28.5q-29 0 -49 19z" />
    <glyph glyph-name="slash" unicode="/" horiz-adv-x="473" 
d="M34 -111h-121l506 874h121z" />
    <glyph glyph-name="zero" unicode="0" horiz-adv-x="670" 
d="M61 241q0 67 14 143q69 393 346 393q223 0 223 -255q0 -67 -14 -143q-69 -393 -345 -393q-224 0 -224 255zM415 175q46 60 71 206q13 71 13 123q0 77 -26.5 110t-76.5 33q-65 0 -108 -59.5t-69 -205.5q-14 -73 -14 -129q0 -75 25.5 -106.5t74.5 -31.5q64 0 110 60z" />
    <glyph glyph-name="one" unicode="1" horiz-adv-x="451" 
d="M296 587q-44 -46 -104.5 -78t-124.5 -42l23 133q76 14 139.5 58.5t102.5 104.5h140l-135 -763h-145z" />
    <glyph glyph-name="two" unicode="2" horiz-adv-x="648" 
d="M6 0l21 120l274 209q60 46 97.5 80t60.5 73.5t23 83.5q0 41 -24 64t-74 23q-127 0 -163 -158h-133q29 136 111 208.5t208 72.5q97 0 154.5 -49.5t57.5 -138.5q0 -104 -63.5 -186.5t-171.5 -166.5l-137 -106h327l-23 -129h-545z" />
    <glyph glyph-name="three" unicode="3" horiz-adv-x="662" 
d="M102.5 43.5q-66.5 57.5 -66.5 158.5q0 26 2 39h145q-1 -7 -1 -20q0 -54 31.5 -83t94.5 -29q68 0 110 41t42 104q0 45 -35 66.5t-99 21.5h-46l21 117h41q59 0 97 34.5t38 86.5q0 34 -22.5 53.5t-65.5 19.5q-49 0 -85 -27.5t-54 -84.5h-131q16 70 58 123.5t103 82.5t131 29
q96 0 152 -47.5t56 -123.5q0 -69 -40.5 -123t-103.5 -67q63 -8 96.5 -47t33.5 -99q0 -80 -43.5 -145t-117.5 -101.5t-160 -36.5q-115 0 -181.5 57.5z" />
    <glyph glyph-name="four" unicode="4" horiz-adv-x="647" 
d="M462 0h-144l30 172h-329l24 138l414 453h140l-82 -462h98l-23 -129h-98zM420 579l-245 -278h196z" />
    <glyph glyph-name="five" unicode="5" horiz-adv-x="656" 
d="M146 15.5q-54 29.5 -81 83t-23 124.5h145q1 -53 31 -80.5t82 -27.5q47 0 83 25.5t55.5 66.5t19.5 88q0 50 -29 79.5t-78 29.5q-85 0 -140 -79h-141l159 438h424l-23 -129h-319l-60 -164q32 25 72.5 40t79.5 15q93 0 147.5 -55.5t54.5 -148.5q0 -91 -43.5 -168t-119 -122
t-167.5 -45q-75 0 -129 29.5z" />
    <glyph glyph-name="six" unicode="6" horiz-adv-x="662" 
d="M117.5 52q-59.5 66 -59.5 192q0 58 11 117q35 197 129.5 306.5t235.5 109.5q110 0 167.5 -60.5t52.5 -166.5h-130q-6 103 -112 103q-158 0 -197 -231q74 83 186 83q95 0 150 -52t55 -143q0 -23 -5 -55q-14 -78 -58 -139.5t-110 -95.5t-142 -34q-114 0 -173.5 66z
M406.5 149.5q39.5 40.5 50.5 103.5q3 18 3 36q0 48 -26 75.5t-74 27.5q-60 0 -103 -38.5t-54 -100.5q-3 -16 -3 -33q0 -50 29 -80.5t81 -30.5q57 0 96.5 40.5z" />
    <glyph glyph-name="seven" unicode="7" horiz-adv-x="592" 
d="M198 0h-167l430 634h-368l24 129h526l-23 -126z" />
    <glyph glyph-name="eight" unicode="8" horiz-adv-x="668" 
d="M152 10.5q-55 24.5 -84 69t-29 103.5q0 82 48 146t129 90q-42 16 -62 48t-20 72q0 68 40 122t106 85t141 31q98 0 156.5 -47t58.5 -124q0 -65 -37 -116t-99 -71q56 -21 82.5 -61t26.5 -92q0 -80 -44.5 -144t-119.5 -100t-163 -36q-75 0 -130 24.5zM458.5 495.5
q35.5 34.5 35.5 85.5q0 36 -24.5 57t-68.5 21q-57 0 -93 -33.5t-36 -84.5q0 -36 24.5 -58t69.5 -22q57 0 92.5 34.5zM387 129.5q37 20.5 57.5 56t20.5 76.5q0 46 -30.5 74t-86.5 28q-47 0 -83.5 -20.5t-57 -55.5t-20.5 -78q0 -46 31 -73.5t85 -27.5q47 0 84 20.5z" />
    <glyph glyph-name="nine" unicode="9" horiz-adv-x="663" 
d="M95.5 46.5q-57.5 60.5 -52.5 166.5h130q3 -51 31.5 -77.5t80.5 -26.5q157 0 198 232q-75 -84 -187 -84q-95 0 -150 52t-55 143q0 23 5 56q14 78 58.5 139t110.5 95.5t142 34.5q113 0 172.5 -66.5t59.5 -191.5q0 -59 -11 -117q-35 -197 -129.5 -306.5t-235.5 -109.5
q-110 0 -167.5 60.5zM440 409q43 38 54 100q3 18 3 34q0 50 -29 80t-81 30q-57 0 -96 -40t-51 -104q-3 -18 -3 -35q0 -48 26 -75.5t74 -27.5q60 0 103 38z" />
    <glyph glyph-name="colon" unicode=":" horiz-adv-x="240" 
d="M87 385q-19 19 -19 48q0 36 29.5 65t66.5 29q29 0 47.5 -19.5t18.5 -47.5q0 -36 -29 -65t-65 -29q-30 0 -49 19zM20 8q-19 19 -19 47q0 37 29.5 65.5t66.5 28.5q28 0 47.5 -19t19.5 -47q0 -37 -29.5 -65.5t-65.5 -28.5q-30 0 -49 19z" />
    <glyph glyph-name="semicolon" unicode=";" horiz-adv-x="275" 
d="M89.5 385.5q-19.5 19.5 -19.5 47.5q0 36 29.5 65t66.5 29q28 0 47.5 -19t19.5 -47q0 -24 -14 -46t-36 -35.5t-45 -13.5q-29 0 -48.5 19.5zM-19 -101q56 4 90 33t40 80q-19 -23 -54 -23q-23 0 -38.5 16t-15.5 44q0 43 29 71.5t73 28.5q41 0 62.5 -26t21.5 -70
q0 -60 -28.5 -109.5t-78.5 -79.5t-113 -34z" />
    <glyph glyph-name="less" unicode="&#x3c;" horiz-adv-x="562" 
d="M62 415l509 173l-24 -133l-356 -116l316 -116l-21 -118l-448 172z" />
    <glyph glyph-name="equal" unicode="=" horiz-adv-x="522" 
d="M509 414h-449l20 114h449zM465 171h-449l21 114h449z" />
    <glyph glyph-name="greater" unicode="&#x3e;" horiz-adv-x="562" 
d="M523 278l-508 -173l24 133l355 117l-315 115l21 118l447 -172z" />
    <glyph glyph-name="question" unicode="?" horiz-adv-x="555" 
d="M210 271q10 55 31 91.5t46 57.5t62 44q47 29 70 56.5t23 71.5q0 37 -26 56t-69 19q-56 0 -95 -34t-55 -97h-121q26 113 105 176.5t186 63.5q90 0 146.5 -42.5t56.5 -124.5q0 -74 -30 -120.5t-95 -89.5q-44 -28 -70 -55t-39 -74l-13 -41h-121zM171 8.5q-19 19.5 -19 47.5
q0 36 29.5 64.5t65.5 28.5q30 0 49 -19t19 -47q0 -38 -29.5 -66t-66.5 -28q-29 0 -48 19.5z" />
    <glyph glyph-name="at" unicode="@" horiz-adv-x="1028" 
d="M216.5 -141.5q-89.5 46.5 -138 131t-48.5 195.5q0 47 9 96q24 138 105 250.5t202 177t260 64.5q118 0 207.5 -47.5t138 -134t48.5 -198.5q0 -51 -8 -94q-17 -97 -61.5 -174t-109.5 -121.5t-141 -44.5q-111 0 -111 124q0 22 2 34q-80 -97 -184 -97q-67 0 -107 41.5
t-40 117.5q0 32 5 56q15 86 65.5 164.5t123 127t151.5 48.5q44 0 71.5 -19.5t43.5 -65.5l21 58h89q-3 -8 -25 -65q-62 -158 -89.5 -234t-34.5 -120q-3 -12 -3 -31q0 -54 49 -54q43 0 83 33t69.5 91t41.5 129q8 45 8 82q0 91 -39 160t-110.5 106.5t-167.5 37.5
q-115 0 -214 -52.5t-165 -144t-86 -205.5q-7 -39 -7 -80q0 -90 39 -157.5t111.5 -104t171.5 -36.5q38 0 70 4.5t65 16.5l-16 -94q-65 -18 -136 -18q-119 0 -208.5 46.5zM514.5 147q50.5 38 85.5 98t46 122q4 28 4 38q0 81 -78 81q-55 0 -106 -36t-86 -94.5t-46 -121.5
q-4 -21 -4 -41q0 -84 80 -84q54 0 104.5 38z" />
    <glyph glyph-name="A" unicode="A" horiz-adv-x="710" 
d="M653 0h-143l-23 157h-292l-79 -157h-159l404 763h158zM420 606l-162 -323h210z" />
    <glyph glyph-name="B" unicode="B" horiz-adv-x="698" 
d="M18 0l135 763h302q141 0 191 -62q28 -34 28 -88q0 -75 -40.5 -135.5t-106.5 -76.5q60 -10 92 -45.5t32 -92.5q0 -58 -27 -113.5t-73 -89.5q-50 -35 -109 -47.5t-109 -12.5h-315zM389 446q63 0 98 31t35 85q0 28 -17 45q-14 14 -39.5 20.5t-65.5 6.5h-126l-33 -188h148z
M338 129q38 0 70 6t55 24q22 16 33.5 43t11.5 55q0 45 -32 58.5t-86 13.5h-169l-36 -200h153z" />
    <glyph glyph-name="C" unicode="C" horiz-adv-x="767" 
d="M125.5 70q-76.5 84 -76.5 220q0 134 57 245.5t159 176.5t231 65q93 0 157 -31.5t95 -88.5t28 -133h-157q0 60 -40 92t-109 32q-82 0 -143.5 -47.5t-94 -125.5t-32.5 -167q0 -90 45 -141.5t131 -51.5q69 0 120 33.5t74 99.5h158q-38 -121 -135.5 -191.5t-236.5 -70.5
q-154 0 -230.5 84z" />
    <glyph glyph-name="D" unicode="D" horiz-adv-x="728" 
d="M18 0l135 763h223q166 0 253 -74t87 -214q0 -142 -58.5 -249.5t-166 -166.5t-251.5 -59h-222zM261 129q148 0 228 85t80 232q0 95 -57.5 141.5t-160.5 46.5h-77l-89 -505h76z" />
    <glyph glyph-name="E" unicode="E" horiz-adv-x="621" 
d="M528 0h-510l135 763h510l-24 -129h-365l-33 -188h327l-23 -128h-327l-33 -189h366z" />
    <glyph glyph-name="F" unicode="F" horiz-adv-x="604" 
d="M162 0h-144l135 763h510l-24 -129h-365l-33 -188h327l-23 -128h-327z" />
    <glyph glyph-name="G" unicode="G" horiz-adv-x="819" 
d="M184 26q-70 40 -103 109t-33 157q0 133 57.5 244t160.5 176t232 65q144 0 221 -68t81 -185h-158q-8 60 -50.5 92t-116.5 32q-82 0 -144.5 -46.5t-96.5 -123.5t-34 -164q0 -92 49 -145.5t144 -53.5q92 0 152.5 46t78.5 135h-169l21 119h312l-73 -415h-132l16 86
q-47 -53 -109.5 -76.5t-130.5 -23.5q-105 0 -175 40z" />
    <glyph glyph-name="H" unicode="H" horiz-adv-x="752" 
d="M162 0h-144l135 763h144l-56 -316h327l56 316h144l-135 -763h-144l56 318h-327z" />
    <glyph glyph-name="I" unicode="I" horiz-adv-x="280" 
d="M162 0h-144l135 763h144z" />
    <glyph glyph-name="J" unicode="J" horiz-adv-x="394" 
d="M-38 0l22 129h98q77 0 91 77l98 557h145l-99 -559q-14 -76 -43 -120t-80.5 -64t-134.5 -20h-97z" />
    <glyph glyph-name="K" unicode="K" horiz-adv-x="670" 
d="M162 0h-144l135 763h144l-58 -329l327 329h179l-372 -371l242 -392h-177l-212 363z" />
    <glyph glyph-name="L" unicode="L" horiz-adv-x="546" 
d="M486 0h-468l135 763h144l-112 -634h323z" />
    <glyph glyph-name="M" unicode="M" horiz-adv-x="929" 
d="M162 0h-144l135 763h231l53 -589l261 589h248l-135 -763h-144l115 655l-297 -655h-141l-67 651z" />
    <glyph glyph-name="N" unicode="N" horiz-adv-x="755" 
d="M162 0h-144l135 763h163l216 -546l97 546h144l-135 -763h-163l-216 547z" />
    <glyph glyph-name="O" unicode="O" horiz-adv-x="820" 
d="M184 25.5q-69 39.5 -102 108.5t-33 157q0 133 57 244.5t159.5 176.5t231.5 65q104 0 173 -39.5t102.5 -108t33.5 -156.5q0 -134 -57.5 -245.5t-160 -176.5t-231.5 -65q-104 0 -173 39.5zM524.5 162q62.5 47 96 125t33.5 166q0 90 -46.5 142t-133.5 52q-82 0 -144.5 -47
t-96 -124t-33.5 -165q0 -91 47 -143.5t133 -52.5q82 0 144.5 47z" />
    <glyph glyph-name="P" unicode="P" horiz-adv-x="666" 
d="M18 0l135 763h330q97 0 151.5 -41.5t54.5 -127.5q0 -83 -36.5 -148.5t-102 -103t-148.5 -37.5h-186l-54 -305h-144zM394 431q65 0 107 34t42 90q0 38 -27 58.5t-77 20.5h-165l-36 -203h156z" />
    <glyph glyph-name="Q" unicode="Q" horiz-adv-x="822" 
d="M759 248.5q-47 -103.5 -132 -170.5l77 -165h-162l-44 95q-69 -22 -141 -22q-104 0 -173 39.5t-102 108.5t-33 157q0 133 57 244.5t159.5 176.5t231.5 65q104 0 173 -39.5t102.5 -108t33.5 -156.5q0 -121 -47 -224.5zM247 167.5q47 -52.5 133 -52.5q82 0 144.5 47t96 125
t33.5 166q0 90 -46.5 142t-133.5 52q-82 0 -144.5 -47t-96 -124t-33.5 -165q0 -91 47 -143.5z" />
    <glyph glyph-name="R" unicode="R" horiz-adv-x="689" 
d="M646 434q-43 -70 -118 -103l79 -331h-145l-72 305h-174l-54 -305h-144l135 763h330q97 0 151.5 -41.5t54.5 -127.5q0 -90 -43 -160zM394 431q65 0 107 34t42 90q0 38 -27 58.5t-77 20.5h-165l-36 -203h156z" />
    <glyph glyph-name="S" unicode="S" horiz-adv-x="696" 
d="M106.5 50.5q-76.5 64.5 -76.5 197.5h148q4 -75 49.5 -107t113.5 -32q70 0 115 32.5t45 89.5q0 30 -22 49.5t-55.5 30.5t-87.5 22q-73 16 -119.5 33t-79.5 52t-33 94q0 79 42 139.5t113.5 93t157.5 32.5q117 0 190.5 -61t73.5 -180h-146q-4 59 -42.5 88.5t-99.5 29.5
q-59 0 -100 -27t-41 -76q0 -28 20.5 -45.5t51.5 -27.5t85 -22q75 -17 123.5 -35t83 -55.5t34.5 -100.5q0 -84 -43.5 -147.5t-119 -97.5t-169.5 -34q-135 0 -211.5 64.5z" />
    <glyph glyph-name="T" unicode="T" horiz-adv-x="630" 
d="M337 0h-144l112 634h-233l24 129h609l-24 -129h-232z" />
    <glyph glyph-name="U" unicode="U" horiz-adv-x="737" 
d="M116.5 43.5q-64.5 57.5 -64.5 160.5q0 28 7 73l86 486h145l-86 -486q-4 -32 -4 -46q0 -56 32.5 -86t106.5 -30q87 0 132.5 42.5t58.5 119.5l86 486h145l-86 -486q-24 -136 -113 -213.5t-246 -77.5q-135 0 -199.5 57.5z" />
    <glyph glyph-name="V" unicode="V" horiz-adv-x="702" 
d="M381 0h-158l-134 763h144l90 -605l304 605h158z" />
    <glyph glyph-name="W" unicode="W" horiz-adv-x="1112" 
d="M368 0h-203l-65 763h145l46 -633l253 633h183l30 -634l269 634h157l-334 -763h-204l-30 615z" />
    <glyph glyph-name="X" unicode="X" horiz-adv-x="723" 
d="M142 0h-183l321 381l-185 382h160l129 -284l232 284h183l-321 -382l187 -381h-159l-134 273z" />
    <glyph glyph-name="Y" unicode="Y" horiz-adv-x="700" 
d="M377 0h-152l53 299l-196 464h157l127 -324l243 324h180l-360 -464z" />
    <glyph glyph-name="Z" unicode="Z" horiz-adv-x="628" 
d="M547 0h-569l17 99l468 535h-352l24 129h546l-19 -104l-462 -530h369z" />
    <glyph glyph-name="bracketleft" unicode="[" horiz-adv-x="342" 
d="M258 -110h-237l173 982h237l-17 -93h-126l-141 -796h127z" />
    <glyph glyph-name="backslash" unicode="\" horiz-adv-x="473" 
d="M421 -111h-111l-206 874h111z" />
    <glyph glyph-name="bracketright" unicode="]" horiz-adv-x="342" 
d="M184 -110h-237l16 93h126l141 796h-126l16 93h237z" />
    <glyph glyph-name="asciicircum" unicode="^" horiz-adv-x="556" 
d="M169 285h-132l258 478h138l87 -478h-118l-57 339z" />
    <glyph glyph-name="underscore" unicode="_" horiz-adv-x="430" 
d="M377 -98h-458l17 98h458z" />
    <glyph glyph-name="grave" unicode="`" horiz-adv-x="268" 
d="M320 615h-104l-124 148h139z" />
    <glyph glyph-name="a" unicode="a" horiz-adv-x="591" 
d="M56.5 23q-42.5 34 -42.5 97q0 91 60.5 140.5t168.5 69.5l173 31q2 16 2 25q0 34 -16 54q-21 27 -70 27q-39 0 -72.5 -23t-47.5 -62h-134q31 93 107.5 142t166.5 49q50 0 92 -14.5t68 -42.5q38 -39 38 -114q0 -43 -13 -110l-51 -292h-135l14 76q-26 -36 -61 -56
q-53 -31 -133 -31q-72 0 -114.5 34zM298 111q46 21 68.5 56.5t33.5 94.5l-138 -27q-53 -10 -82 -30t-29 -58q0 -25 20 -38.5t52 -13.5q40 0 75 16z" />
    <glyph glyph-name="b" unicode="b" horiz-adv-x="643" 
d="M218.5 7q-33.5 18 -58.5 64l-13 -71h-135l135 763h135l-48 -273q40 46 81 64.5t93 18.5q93 0 147 -60.5t54 -161.5q0 -93 -39 -176.5t-109 -134.5t-157 -51q-52 0 -85.5 18zM385.5 137q40.5 32 63 82.5t22.5 105.5q0 60 -30.5 96t-84.5 36q-52 0 -93.5 -32t-64.5 -82.5
t-23 -105.5q0 -60 32 -96t87 -36q51 0 91.5 32z" />
    <glyph glyph-name="c" unicode="c" horiz-adv-x="621" 
d="M97 51.5q-64 62.5 -64 167.5q0 97 44.5 178t122.5 128.5t174 47.5q101 0 162.5 -51.5t67.5 -139.5h-147q-6 39 -32.5 60t-69.5 21q-54 0 -95.5 -32.5t-64.5 -85t-23 -110.5q0 -63 32 -99.5t87 -36.5q48 0 82.5 23.5t52.5 66.5h146q-36 -94 -117.5 -147t-183.5 -53
q-110 0 -174 62.5z" />
    <glyph glyph-name="d" unicode="d" horiz-adv-x="643" 
d="M88 49q-54 60 -54 161q0 94 39 177.5t109 134.5t157 51q51 0 85 -18.5t59 -64.5l49 273h135l-135 -763h-135l12 71q-41 -46 -81.5 -64t-92.5 -18q-93 0 -147 60zM380 136.5q41 31.5 64.5 82t23.5 105.5q0 60 -32.5 96.5t-86.5 36.5q-51 0 -91.5 -32t-63 -83t-22.5 -106
q0 -59 30.5 -95t84.5 -36q52 0 93 31.5z" />
    <glyph glyph-name="e" unicode="e" horiz-adv-x="640" 
d="M144 18q-54 29 -82.5 81t-28.5 120q0 94 45 175.5t122.5 130t170.5 48.5q66 0 120 -24t86 -74.5t32 -124.5q0 -19 -3 -43t-8 -54h-425q-1 -5 -1 -14q0 -61 33.5 -97.5t92.5 -36.5q46 0 83 23.5t58 60.5h138q-42 -89 -120 -144.5t-185 -55.5q-74 0 -128 29zM477 354
q0 24 -10 40q-9 34 -39 53t-71 19q-38 0 -71.5 -15t-57.5 -45q-20 -20 -31 -52h280z" />
    <glyph glyph-name="f" unicode="f" horiz-adv-x="368" 
d="M59 0l80 453h-85l19 108h85l10 57q12 70 58.5 107.5t121.5 37.5h84l-19 -107h-52q-50 0 -61 -57l-6 -38h103l-19 -108h-103l-80 -453h-136z" />
    <glyph glyph-name="g" unicode="g" horiz-adv-x="644" 
d="M68 -171.5q-64 41.5 -64 141.5h135q7 -41 33.5 -59.5t77.5 -18.5q66 0 103 30t46 82l14 79q-41 -46 -81.5 -64t-92.5 -18q-93 0 -147.5 60t-54.5 158q0 91 39.5 172.5t109 131.5t154.5 50q51 0 85.5 -18.5t59.5 -64.5l12 71h135l-93 -525q-24 -135 -104.5 -192
t-202.5 -57q-100 0 -164 41.5zM383 147q41 30 64 78t23 100q0 59 -32.5 95.5t-86.5 36.5q-50 0 -90.5 -30.5t-63 -79t-22.5 -101.5q0 -58 31 -93.5t85 -35.5q51 0 92 30z" />
    <glyph glyph-name="h" unicode="h" horiz-adv-x="605" 
d="M12 0l135 763h135l-48 -273q40 45 80 64t87 19q166 0 166 -151q0 -37 -12 -99l-57 -323h-135l58 325q6 35 6 58q0 42 -19.5 60.5t-61.5 18.5q-67 0 -100 -44t-49 -132l-50 -286h-135z" />
    <glyph glyph-name="i" unicode="i" horiz-adv-x="258" 
d="M147 0h-135l99 561h135zM139 640q-20 17 -20 45q0 39 29.5 65.5t68.5 26.5q31 0 50.5 -18t19.5 -46q0 -39 -29 -64.5t-68 -25.5q-31 0 -51 17z" />
    <glyph glyph-name="j" unicode="j" horiz-adv-x="258" 
d="M-128 -202l20 114h52q24 0 40.5 11.5t22.5 42.5l104 595h135l-111 -634q-11 -62 -52.5 -95.5t-106.5 -33.5h-104zM139 640q-20 17 -20 45q0 39 29.5 65.5t68.5 26.5q31 0 50.5 -18t19.5 -46q0 -39 -29 -64.5t-68 -25.5q-31 0 -51 17z" />
    <glyph glyph-name="k" unicode="k" horiz-adv-x="596" 
d="M147 0h-135l135 763h135l-72 -409l241 207h181l-302 -256l205 -305h-160l-179 279z" />
    <glyph glyph-name="l" unicode="l" horiz-adv-x="302" 
d="M140 0q-112 0 -112 89q0 16 3 34l113 640h135l-106 -600q-2 -7 -2 -20q0 -17 9.5 -24t29.5 -7h36l-20 -112h-86z" />
    <glyph glyph-name="m" unicode="m" horiz-adv-x="903" 
d="M12 0l99 561h135l-13 -71q40 44 81 63.5t86 19.5q57 0 91.5 -23t40.5 -67q35 46 79.5 68t100.5 22q78 0 116 -38.5t38 -108.5q0 -32 -5 -58l-65 -368h-135l62 351q3 21 3 36q0 75 -72 75q-57 0 -86.5 -43t-43.5 -122l-53 -297h-134l61 351q4 17 4 35q0 38 -19 57t-55 19
q-56 0 -85.5 -44t-43.5 -121l-52 -297h-135z" />
    <glyph glyph-name="n" unicode="n" horiz-adv-x="605" 
d="M12 0l99 561h135l-13 -71q40 45 80 64t87 19q167 0 167 -151q0 -28 -5.5 -60.5t-6.5 -38.5l-57 -323h-135l57 325q6 35 6 58q0 42 -19 60.5t-61 18.5q-68 0 -100.5 -44t-48.5 -132l-50 -286h-135z" />
    <glyph glyph-name="o" unicode="o" horiz-adv-x="652" 
d="M145.5 17.5q-54.5 28.5 -83.5 80.5t-29 122q0 96 45 177t124 128.5t175 47.5q74 0 128.5 -28.5t83.5 -80.5t29 -121q0 -95 -45.5 -176.5t-124.5 -129.5t-174 -48q-74 0 -128.5 28.5zM388 136.5q42 31.5 65.5 82t23.5 105.5q0 60 -32.5 96.5t-88.5 36.5q-52 0 -94 -30.5
t-65.5 -80.5t-23.5 -106q0 -62 33 -98.5t88 -36.5q52 0 94 31.5z" />
    <glyph glyph-name="p" unicode="p" horiz-adv-x="643" 
d="M-24 -202l135 763h135l-13 -71q41 46 81.5 64.5t92.5 18.5q93 0 147.5 -60.5t54.5 -161.5q0 -93 -39.5 -176.5t-109 -134.5t-156.5 -51q-52 0 -86 18t-59 64l-48 -273h-135zM385 137q41 32 63.5 82.5t22.5 105.5q0 60 -30.5 96t-85.5 36q-51 0 -92.5 -31.5t-64.5 -82.5
t-23 -106q0 -60 32 -96t86 -36q51 0 92 32z" />
    <glyph glyph-name="q" unicode="q" horiz-adv-x="643" 
d="M496 -202q-117 0 -117 90q0 8 4 32l26 151q-40 -46 -81 -64t-93 -18q-93 0 -147 60t-54 161q0 93 39 177t109 135t157 51q51 0 85 -18.5t59 -64.5l13 71h135l-108 -610q-1 -4 -1 -11q0 -28 38 -28h44l-21 -114h-87zM380.5 136.5q41.5 31.5 64.5 82t23 105.5
q0 60 -32.5 96.5t-86.5 36.5q-51 0 -91.5 -32t-63 -83t-22.5 -106q0 -59 30.5 -95t84.5 -36q52 0 93.5 31.5z" />
    <glyph glyph-name="r" unicode="r" horiz-adv-x="391" 
d="M12 0l99 561h135l-12 -67q38 43 79.5 61t93.5 18h17l-23 -130h-31q-64 0 -106 -34q-27 -23 -44 -58.5t-27 -90.5l-46 -260h-135z" />
    <glyph glyph-name="s" unicode="s" horiz-adv-x="576" 
d="M83 37q-64 48 -64 152h133q5 -45 36 -69.5t82 -24.5q47 0 79 20t32 54q0 28 -30 42t-90 26q-57 11 -94 24t-63.5 40.5t-26.5 73.5q0 61 33.5 106t90.5 68.5t125 23.5q99 0 155.5 -50t56.5 -141h-127q-4 44 -32 64.5t-72 20.5t-71 -18t-27 -47q0 -26 29.5 -39t88.5 -23
q58 -11 97 -23.5t66.5 -40.5t27.5 -75q0 -64 -35.5 -112t-96 -74t-134.5 -26q-105 0 -169 48z" />
    <glyph glyph-name="t" unicode="t" horiz-adv-x="383" 
d="M187 0q-112 0 -112 89q0 16 3 34l58 330h-82l19 108h82l36 202h135l-36 -202h109l-19 -108h-109l-51 -289q-2 -7 -2 -21q0 -15 8.5 -23t30.5 -8h61l-20 -112h-111z" />
    <glyph glyph-name="u" unicode="u" horiz-adv-x="606" 
d="M47 82q-8 23 -8 55q0 34 12 101l57 323h135l-58 -324q-6 -36 -6 -59q0 -33 13 -53q19 -25 68 -25q57 0 91 34q21 20 34 53t24 89l50 285h135l-99 -561h-135l12 71q-38 -43 -77.5 -62.5t-89.5 -19.5q-129 0 -158 93z" />
    <glyph glyph-name="v" unicode="v" horiz-adv-x="546" 
d="M277 0h-108l-108 561h136l53 -354l182 354h152z" />
    <glyph glyph-name="w" unicode="w" horiz-adv-x="844" 
d="M264 0h-127l-72 561h140l32 -364l170 364h118l43 -362l162 362h148l-274 -561h-127l-38 378z" />
    <glyph glyph-name="x" unicode="x" horiz-adv-x="582" 
d="M122 0h-159l242 283l-143 278h149l89 -188l158 188h162l-245 -278l146 -283h-151l-91 191z" />
    <glyph glyph-name="y" unicode="y" horiz-adv-x="565" 
d="M-16 -202l21 114h62q28 0 44.5 8.5t34.5 37.5l23 40l-108 563h141l58 -412l191 412h150l-329 -627q-39 -75 -82 -105.5t-112 -30.5h-94z" />
    <glyph glyph-name="z" unicode="z" horiz-adv-x="555" 
d="M470 0h-489l16 89l383 363h-301l19 109h472l-17 -97l-372 -355h308z" />
    <glyph glyph-name="braceleft" unicode="{" horiz-adv-x="327" 
d="M149 -110q-50 0 -75.5 28t-25.5 79q0 19 5 47l34 192q3 14 3 25q0 30 -15 45t-43 24l18 102q36 11 58 30.5t30 63.5l34 192q13 73 51.5 113.5t98.5 40.5h86l-16 -89h-39q-54 0 -65 -68l-34 -192q-11 -59 -39.5 -93t-73.5 -49q32 -13 49 -37t17 -64q0 -18 -3 -41l-34 -192
q-3 -13 -3 -25q0 -43 44 -43h40l-16 -89h-86z" />
    <glyph glyph-name="bar" unicode="|" horiz-adv-x="336" 
d="M155 -110h-111l173 982h111z" />
    <glyph glyph-name="braceright" unicode="}" horiz-adv-x="327" 
d="M-45 -110l16 89h39q29 0 44 18.5t21 49.5l33 192q20 111 113 142q-66 25 -66 101q0 21 4 41l34 192q2 18 2 25q0 43 -43 43h-40l16 89h86q50 0 75.5 -28.5t25.5 -79.5q0 -18 -5 -46l-34 -192q-3 -13 -3 -26q0 -29 15 -44t42 -24l-18 -102q-36 -11 -58 -30.5t-29 -63.5
l-34 -192q-13 -73 -51.5 -113.5t-98.5 -40.5h-86z" />
    <glyph glyph-name="asciitilde" unicode="~" horiz-adv-x="527" 
d="M230 219q-19 13 -37 36q-2 2 -9 10t-13 11.5t-13 3.5q-16 0 -27.5 -18.5t-18.5 -53.5h-81q16 74 55.5 116.5t91.5 42.5q30 0 48 -12.5t38 -35.5q12 -14 19.5 -20t16.5 -6q26 0 42 70h83q-18 -80 -52.5 -118.5t-89.5 -38.5q-34 0 -53 13z" />
    <glyph glyph-name="uni00A0" unicode="&#xa0;" horiz-adv-x="240" 
 />
    <glyph glyph-name="exclamdown" unicode="&#xa1;" horiz-adv-x="356" 
d="M163 431.5q-19 18.5 -19 46.5q0 37 29.5 66t65.5 29q30 0 49 -19t19 -47q0 -37 -29.5 -65.5t-66.5 -28.5q-29 0 -48 18.5zM85 78q13 74 45 213q3 10 10 40h113q-15 -143 -33 -253l-50 -280h-135z" />
    <glyph glyph-name="cent" unicode="&#xa2;" horiz-adv-x="621" 
d="M307 100q42 4 72 27t47 62h146q-35 -90 -111 -142.5t-173 -57.5l-16 -89h-42l16 90q-99 7 -156 68.5t-57 160.5q0 92 41 170.5t113 127.5t162 55l17 95h42l-17 -94q94 -5 150.5 -56t62.5 -135h-147q-5 35 -27 55.5t-58 24.5zM197 144.5q25 -35.5 69 -43.5l63 360
q-47 -8 -82.5 -41.5t-55 -82.5t-19.5 -102q0 -55 25 -90.5z" />
    <glyph glyph-name="sterling" unicode="&#xa3;" horiz-adv-x="626" 
d="M23 130q74 6 119.5 42.5t45.5 98.5q0 42 -21 99h-96l15 86h74q-7 26 -7 52q0 74 37.5 136t101 97.5t139.5 35.5q89 0 145 -54.5t56 -157.5h-129q0 48 -26 72t-64 24q-64 0 -100.5 -45.5t-36.5 -118.5q0 -22 4 -41h204l-15 -86h-177q17 -57 17 -100q0 -49 -23 -84.5
t-69 -63.5h332l-22 -122h-527z" />
    <glyph glyph-name="currency" unicode="&#xa4;" horiz-adv-x="723" 
d="M114 59l-60 74l79 67q-22 43 -22 95q0 48 19.5 97t52.5 89l-53 67l83 74l57 -69q67 44 149 44q76 0 132 -42l78 66l61 -72l-79 -67q23 -48 23 -98q0 -48 -19.5 -97t-53.5 -88l55 -66l-86 -73l-55 66q-70 -42 -148 -42q-77 0 -133 42zM404.5 197q30.5 12 57.5 34
q32 27 49 63t17 73q0 47 -28 81q-19 22 -45.5 34t-56.5 12t-60 -12t-56 -34q-31 -27 -48.5 -63t-17.5 -74q0 -46 28 -80q18 -22 44.5 -34t56.5 -12q29 0 59.5 12z" />
    <glyph glyph-name="yen" unicode="&#xa5;" horiz-adv-x="700" 
d="M621 763h168l-333 -429h117l-13 -72h-137l-8 -42h138l-13 -72h-137l-26 -148h-152l26 148h-137l13 72h137l7 42h-137l13 72h116l-181 429h168l128 -324z" />
    <glyph glyph-name="brokenbar" unicode="&#xa6;" horiz-adv-x="336" 
d="M252 443h-111l76 429h111zM155 -110h-111l75 428h111z" />
    <glyph glyph-name="section" unicode="&#xa7;" horiz-adv-x="721" 
d="M81.5 -179.5q-74.5 57.5 -75.5 177.5h147q4 -59 45 -87t102 -28q66 0 110.5 29t44.5 79q0 35 -28 56t-65.5 31.5t-105.5 24.5q-179 37 -179 158q0 57 29 101.5t82 72.5q-62 30 -62 101q0 72 43 127t114.5 84.5t153.5 29.5q109 0 175.5 -56.5t70.5 -161.5h-139
q-6 47 -40.5 71.5t-88.5 24.5q-57 0 -96 -23.5t-39 -64.5t42 -60.5t123 -35.5q94 -19 152.5 -57.5t58.5 -117.5q0 -60 -27.5 -107.5t-78.5 -72.5q58 -30 58 -96q0 -78 -43.5 -136.5t-117 -89.5t-162.5 -31q-129 0 -203.5 57.5zM503 267q0 38 -32.5 57.5t-91.5 33.5l-45 13
q-45 -6 -74 -28t-29 -58q0 -31 30.5 -47.5t99.5 -32.5q55 -13 87 -22q55 28 55 84z" />
    <glyph glyph-name="dieresis" unicode="&#xa8;" horiz-adv-x="391" 
d="M99 640q-20 17 -20 45q0 39 29.5 65.5t68.5 26.5q31 0 50.5 -18t19.5 -46q0 -39 -29 -64.5t-68 -25.5q-31 0 -51 17zM310.5 640q-19.5 17 -19.5 45q0 39 29 65.5t68 26.5q31 0 51 -18t20 -46q0 -39 -29 -64.5t-69 -25.5q-31 0 -50.5 17z" />
    <glyph glyph-name="copyright" unicode="&#xa9;" horiz-adv-x="875" 
d="M218.5 34.5q-74.5 41.5 -116.5 114t-42 162.5q0 119 65 225t172 170.5t227 64.5q95 0 169 -41.5t115.5 -114.5t41.5 -164q0 -119 -65.5 -224.5t-172.5 -169.5t-225 -64q-94 0 -168.5 41.5zM577.5 131.5q82.5 49.5 132 131.5t49.5 173q0 70 -31.5 126t-89 88t-130.5 32
q-93 0 -175.5 -49.5t-132 -131.5t-49.5 -173q0 -69 32 -125.5t89.5 -88.5t130.5 -32q92 0 174.5 49.5zM324 187q-41 23 -64 63.5t-23 91.5q0 66 36 125t95 94.5t125 35.5q46 0 86 -20t64 -55l-79 -57q-16 21 -39 32t-51 11q-39 0 -73.5 -20.5t-56 -55.5t-21.5 -75
q0 -45 30 -74t76 -29q28 0 55 11t49 32l61 -58q-36 -35 -83.5 -55t-93.5 -20q-52 0 -93 23z" />
    <glyph glyph-name="ordfeminine" unicode="&#xaa;" horiz-adv-x="442" 
d="M102 390q-30 24 -30 67q0 64 42.5 99t117.5 48l121 22q2 6 2 18q0 23 -11 37q-15 20 -49 20q-28 0 -51 -16.5t-33 -43.5h-94q21 65 75 99t117 34q35 0 64.5 -9.5t47.5 -29.5q27 -28 27 -80q0 -21 -9 -77l-36 -204h-95l10 53q-19 -25 -43 -40q-35 -21 -93 -21
q-50 0 -80 24zM271 451q32 15 48 40t24 66l-97 -19q-37 -7 -57.5 -21t-20.5 -40q0 -18 14 -27.5t37 -9.5q25 0 52 11z" />
    <glyph glyph-name="guillemotleft" unicode="&#xab;" horiz-adv-x="574" 
d="M220 199l-20 -115l-197 191l264 193l-20 -114l-109 -79zM487 199l-20 -115l-197 191l265 193l-20 -114l-110 -79z" />
    <glyph glyph-name="uni00AD" unicode="&#xad;" horiz-adv-x="392" 
d="M391 276h-392l18 97h391z" />
    <glyph glyph-name="registered" unicode="&#xae;" horiz-adv-x="485" 
d="M169.5 392.5q-38.5 21.5 -60 59.5t-21.5 86q0 62 34 117t90 88.5t118 33.5q50 0 88.5 -21.5t60 -59.5t21.5 -86q0 -62 -34 -117t-90 -88.5t-118 -33.5q-50 0 -88.5 21.5zM362 433q47 28 75.5 73.5t28.5 96.5q0 60 -40 99.5t-102 39.5q-52 0 -98.5 -28t-74.5 -74t-28 -97
q0 -60 39.5 -99t101.5 -39q51 0 98 28zM189 455l41 236h106q30 0 47.5 -13t17.5 -40t-13 -49t-37 -28l25 -106h-52l-20 94h-50l-16 -94h-49zM302 591q49 0 49 34q0 23 -29 23h-50l-10 -57h40z" />
    <glyph glyph-name="macron" unicode="&#xaf;" horiz-adv-x="313" 
d="M369 635h-300l12 64h299z" />
    <glyph glyph-name="degree" unicode="&#xb0;" horiz-adv-x="459" 
d="M166.5 498.5q-37.5 37.5 -37.5 93.5q0 49 27 91.5t70.5 68t89.5 25.5q58 0 95.5 -37t37.5 -93q0 -48 -27 -91t-70.5 -69t-90.5 -26q-57 0 -94.5 37.5zM337 571.5q27 26.5 27 60.5q0 26 -17.5 43t-45.5 17q-34 0 -61 -26t-27 -60q0 -26 17.5 -43.5t44.5 -17.5
q35 0 62 26.5z" />
    <glyph glyph-name="plusminus" unicode="&#xb1;" horiz-adv-x="695" 
d="M378 162h-103l27 149h-229l18 101h228l27 149h102l-26 -149h229l-17 -101h-230zM578 0h-560l18 101h560z" />
    <glyph glyph-name="acute" unicode="&#xb4;" horiz-adv-x="268" 
d="M170 615h-104l141 148h139z" />
    <glyph glyph-name="paragraph" unicode="&#xb6;" horiz-adv-x="641" 
d="M285 335q-58 3 -105.5 25.5t-75.5 62t-28 91.5q0 70 40 127t105.5 89.5t139.5 32.5h102l-154 -873h-102zM504 -110h-102l154 873h102z" />
    <glyph glyph-name="periodcentered" unicode="&#xb7;" horiz-adv-x="318" 
d="M117 337.5q-18 18.5 -18 46.5q0 38 29 66.5t65 28.5q29 0 48.5 -19t19.5 -47q0 -37 -29.5 -65.5t-66.5 -28.5q-30 0 -48 18.5z" />
    <glyph glyph-name="cedilla" unicode="&#xb8;" horiz-adv-x="239" 
d="M-78 -199l9 52q46 -19 84 -19q30 0 47.5 13t17.5 37q0 27 -32.5 36.5t-92.5 8.5l93 90h82q-4 -3 -24 -20t-55 -38l5 -9q22 2 27 2q35 0 57.5 -15.5t22.5 -44.5q0 -51 -43 -79t-106 -28q-47 0 -92 14z" />
    <glyph glyph-name="ordmasculine" unicode="&#xba;" horiz-adv-x="479" 
d="M131.5 410q-45.5 44 -45.5 118q0 67 31.5 123.5t87 89.5t122.5 33q78 0 123.5 -44t45.5 -116q0 -67 -32 -124t-87.5 -90.5t-122.5 -33.5q-77 0 -122.5 44zM334.5 469q29.5 22 46 57.5t16.5 74.5q0 42 -23 67t-62 25q-37 0 -66 -21.5t-45.5 -56.5t-16.5 -74
q0 -43 23 -68.5t62 -25.5q36 0 65.5 22z" />
    <glyph glyph-name="guillemotright" unicode="&#xbb;" horiz-adv-x="574" 
d="M303 275l-265 -191l20 115l110 76l-82 79l20 114zM570 275l-265 -191l20 115l110 76l-82 79l20 114z" />
    <glyph glyph-name="questiondown" unicode="&#xbf;" horiz-adv-x="517" 
d="M234 431.5q-19 18.5 -19 46.5q0 38 29.5 66.5t65.5 28.5q29 0 48 -19.5t19 -47.5q0 -37 -29 -65t-66 -28q-29 0 -48 18.5zM16 -172.5q-56 42.5 -56 124.5q0 75 30 121t95 89q45 30 70 56t38 73l14 42h120l-7 -43q-10 -55 -31 -91.5t-45.5 -57t-62.5 -44.5
q-48 -30 -71 -57t-23 -71q0 -37 26.5 -56t69.5 -19q55 0 94 34t55 97h122q-26 -113 -105.5 -176.5t-185.5 -63.5q-91 0 -147 42.5z" />
    <glyph glyph-name="Agrave" unicode="&#xc0;" horiz-adv-x="710" 
d="M653 0h-143l-23 157h-292l-79 -157h-159l404 763h158zM420 606l-162 -323h210zM510 817h-104l-124 148h139z" />
    <glyph glyph-name="Aacute" unicode="&#xc1;" horiz-adv-x="710" 
d="M653 0h-143l-23 157h-292l-79 -157h-159l404 763h158zM420 606l-162 -323h210zM494 817h-104l141 148h139z" />
    <glyph glyph-name="Acircumflex" unicode="&#xc2;" horiz-adv-x="710" 
d="M653 0h-143l-23 157h-292l-79 -157h-159l404 763h158zM420 606l-162 -323h210zM395 820h-118l197 175h14l136 -175h-118l-42 73z" />
    <glyph glyph-name="Atilde" unicode="&#xc3;" horiz-adv-x="710" 
d="M653 0h-143l-23 157h-292l-79 -157h-159l404 763h158zM420 606l-162 -323h210zM462 821q-19 13 -37 35q-10 13 -18 19.5t-17 6.5q-30 0 -46 -72h-81q17 74 56 116.5t92 42.5q30 0 48 -12.5t37 -35.5q12 -14 19.5 -20t16.5 -6q12 0 23.5 17.5t19.5 52.5h83
q-19 -80 -53 -118.5t-90 -38.5q-34 0 -53 13z" />
    <glyph glyph-name="Adieresis" unicode="&#xc4;" horiz-adv-x="710" 
d="M653 0h-143l-23 157h-292l-79 -157h-159l404 763h158zM420 606l-162 -323h210zM291.5 822.5q-19.5 16.5 -19.5 43.5q0 38 29 63.5t67 25.5q30 0 49 -17t19 -44q0 -37 -28.5 -62.5t-66.5 -25.5q-30 0 -49.5 16.5zM503 822.5q-19 16.5 -19 43.5q0 38 28.5 63.5t66.5 25.5
q30 0 49 -16.5t19 -44.5q0 -37 -28 -62.5t-67 -25.5q-30 0 -49 16.5z" />
    <glyph glyph-name="Aring" unicode="&#xc5;" horiz-adv-x="710" 
d="M344 731q-24 24 -24 66q0 7 2 21q10 53 53 90t96 37q47 0 77.5 -29.5t30.5 -74.5q0 -32 -14.5 -61.5t-39.5 -48.5l128 -731h-151l-24 157h-291l-79 -157h-151zM480 780.5q17 15.5 22 39.5q1 4 1 10q0 18 -11.5 29t-32.5 11q-26 0 -44 -18t-18 -44q0 -19 12 -31t31 -12
q23 0 40 15.5zM412 606l-162 -323h210z" />
    <glyph glyph-name="AE" unicode="&#xc6;" horiz-adv-x="1046" 
d="M116 0h-159l404 763h494l22 -129h-334l33 -188h335l22 -128h-334l33 -189h335l22 -129h-481l-22 157h-291zM420 607l-162 -324h210z" />
    <glyph glyph-name="Ccedilla" unicode="&#xc7;" horiz-adv-x="767" 
d="M326.5 600.5q-61.5 -47.5 -94 -125.5t-32.5 -167q0 -90 45 -141.5t131 -51.5q69 0 120 33.5t74 99.5h158q-38 -121 -135.5 -191.5t-236.5 -70.5h-3q-15 -12 -38 -25l5 -9q22 2 27 2q35 0 57.5 -15.5t22.5 -44.5q0 -51 -43 -79t-106 -28q-47 0 -92 14l9 52q46 -19 84 -19
q30 0 47.5 13t17.5 37q0 27 -32.5 36.5t-92.5 8.5l65 63q-118 19 -176.5 99.5t-58.5 198.5q0 134 57 245.5t159 176.5t231 65q93 0 157 -31.5t95 -88.5t28 -133h-157q0 60 -40 92t-109 32q-82 0 -143.5 -47.5z" />
    <glyph glyph-name="Egrave" unicode="&#xc8;" horiz-adv-x="621" 
d="M528 0h-510l135 763h510l-24 -129h-365l-33 -188h327l-23 -128h-327l-33 -189h366zM478 817h-104l-124 148h139z" />
    <glyph glyph-name="Eacute" unicode="&#xc9;" horiz-adv-x="621" 
d="M528 0h-510l135 763h510l-24 -129h-365l-33 -188h327l-23 -128h-327l-33 -189h366zM462 817h-104l141 148h139z" />
    <glyph glyph-name="Ecircumflex" unicode="&#xca;" horiz-adv-x="621" 
d="M528 0h-510l135 763h510l-24 -129h-365l-33 -188h327l-23 -128h-327l-33 -189h366zM363 820h-118l197 175h14l136 -175h-118l-42 73z" />
    <glyph glyph-name="Edieresis" unicode="&#xcb;" horiz-adv-x="621" 
d="M528 0h-510l135 763h510l-24 -129h-365l-33 -188h327l-23 -128h-327l-33 -189h366zM259.5 822.5q-19.5 16.5 -19.5 43.5q0 38 29 63.5t67 25.5q30 0 49 -17t19 -44q0 -37 -28.5 -62.5t-66.5 -25.5q-30 0 -49.5 16.5zM471 822.5q-19 16.5 -19 43.5q0 38 28.5 63.5
t66.5 25.5q30 0 49 -16.5t19 -44.5q0 -37 -28 -62.5t-67 -25.5q-30 0 -49 16.5z" />
    <glyph glyph-name="Igrave" unicode="&#xcc;" horiz-adv-x="280" 
d="M162 0h-144l135 763h144zM295 817h-104l-124 148h139z" />
    <glyph glyph-name="Iacute" unicode="&#xcd;" horiz-adv-x="280" 
d="M162 0h-144l135 763h144zM279 817h-104l141 148h139z" />
    <glyph glyph-name="Icircumflex" unicode="&#xce;" horiz-adv-x="280" 
d="M162 0h-144l135 763h144zM180 820h-118l197 175h14l136 -175h-118l-42 73z" />
    <glyph glyph-name="Idieresis" unicode="&#xcf;" horiz-adv-x="280" 
d="M162 0h-144l135 763h144zM76.5 822.5q-19.5 16.5 -19.5 43.5q0 38 29 63.5t67 25.5q30 0 49 -17t19 -44q0 -37 -28.5 -62.5t-66.5 -25.5q-30 0 -49.5 16.5zM288 822.5q-19 16.5 -19 43.5q0 38 28.5 63.5t66.5 25.5q30 0 49 -16.5t19 -44.5q0 -37 -28 -62.5t-67 -25.5
q-30 0 -49 16.5z" />
    <glyph glyph-name="Eth" unicode="&#xd0;" horiz-adv-x="728" 
d="M376 763q166 0 253 -74t87 -214q0 -142 -58.5 -249.5t-166 -166.5t-251.5 -59h-222l59 331h-65l18 101h64l59 331h223zM261 129q148 0 228 85t80 232q0 95 -57.5 141.5t-160.5 46.5h-77l-36 -202h208l-18 -101h-207l-36 -202h76z" />
    <glyph glyph-name="Ntilde" unicode="&#xd1;" horiz-adv-x="755" 
d="M162 0h-144l135 763h163l216 -546l97 546h144l-135 -763h-163l-216 547zM485 821q-19 13 -37 35q-10 13 -18 19.5t-17 6.5q-30 0 -46 -72h-81q17 74 56 116.5t92 42.5q30 0 48 -12.5t37 -35.5q12 -14 19.5 -20t16.5 -6q12 0 23.5 17.5t19.5 52.5h83q-19 -80 -53 -118.5
t-90 -38.5q-34 0 -53 13z" />
    <glyph glyph-name="Ograve" unicode="&#xd2;" horiz-adv-x="820" 
d="M184 25.5q-69 39.5 -102 108.5t-33 157q0 133 57 244.5t159.5 176.5t231.5 65q104 0 173 -39.5t102.5 -108t33.5 -156.5q0 -134 -57.5 -245.5t-160 -176.5t-231.5 -65q-104 0 -173 39.5zM524.5 162q62.5 47 96 125t33.5 166q0 90 -46.5 142t-133.5 52q-82 0 -144.5 -47
t-96 -124t-33.5 -165q0 -91 47 -143.5t133 -52.5q82 0 144.5 47zM564 817h-104l-124 148h139z" />
    <glyph glyph-name="Oacute" unicode="&#xd3;" horiz-adv-x="820" 
d="M184 25.5q-69 39.5 -102 108.5t-33 157q0 133 57 244.5t159.5 176.5t231.5 65q104 0 173 -39.5t102.5 -108t33.5 -156.5q0 -134 -57.5 -245.5t-160 -176.5t-231.5 -65q-104 0 -173 39.5zM524.5 162q62.5 47 96 125t33.5 166q0 90 -46.5 142t-133.5 52q-82 0 -144.5 -47
t-96 -124t-33.5 -165q0 -91 47 -143.5t133 -52.5q82 0 144.5 47zM548 817h-104l141 148h139z" />
    <glyph glyph-name="Ocircumflex" unicode="&#xd4;" horiz-adv-x="820" 
d="M184 25.5q-69 39.5 -102 108.5t-33 157q0 133 57 244.5t159.5 176.5t231.5 65q104 0 173 -39.5t102.5 -108t33.5 -156.5q0 -134 -57.5 -245.5t-160 -176.5t-231.5 -65q-104 0 -173 39.5zM524.5 162q62.5 47 96 125t33.5 166q0 90 -46.5 142t-133.5 52q-82 0 -144.5 -47
t-96 -124t-33.5 -165q0 -91 47 -143.5t133 -52.5q82 0 144.5 47zM449 820h-118l197 175h14l136 -175h-118l-42 73z" />
    <glyph glyph-name="Otilde" unicode="&#xd5;" horiz-adv-x="820" 
d="M184 25.5q-69 39.5 -102 108.5t-33 157q0 133 57 244.5t159.5 176.5t231.5 65q104 0 173 -39.5t102.5 -108t33.5 -156.5q0 -134 -57.5 -245.5t-160 -176.5t-231.5 -65q-104 0 -173 39.5zM524.5 162q62.5 47 96 125t33.5 166q0 90 -46.5 142t-133.5 52q-82 0 -144.5 -47
t-96 -124t-33.5 -165q0 -91 47 -143.5t133 -52.5q82 0 144.5 47zM517 821q-19 13 -37 35q-10 13 -18 19.5t-17 6.5q-30 0 -46 -72h-81q17 74 56 116.5t92 42.5q30 0 48 -12.5t37 -35.5q12 -14 19.5 -20t16.5 -6q12 0 23.5 17.5t19.5 52.5h83q-19 -80 -53 -118.5t-90 -38.5
q-34 0 -53 13z" />
    <glyph glyph-name="Odieresis" unicode="&#xd6;" horiz-adv-x="820" 
d="M184 25.5q-69 39.5 -102 108.5t-33 157q0 133 57 244.5t159.5 176.5t231.5 65q104 0 173 -39.5t102.5 -108t33.5 -156.5q0 -134 -57.5 -245.5t-160 -176.5t-231.5 -65q-104 0 -173 39.5zM524.5 162q62.5 47 96 125t33.5 166q0 90 -46.5 142t-133.5 52q-82 0 -144.5 -47
t-96 -124t-33.5 -165q0 -91 47 -143.5t133 -52.5q82 0 144.5 47zM345.5 822.5q-19.5 16.5 -19.5 43.5q0 38 29 63.5t67 25.5q30 0 49 -17t19 -44q0 -37 -28.5 -62.5t-66.5 -25.5q-30 0 -49.5 16.5zM557 822.5q-19 16.5 -19 43.5q0 38 28.5 63.5t66.5 25.5q30 0 49 -16.5
t19 -44.5q0 -37 -28 -62.5t-67 -25.5q-30 0 -49 16.5z" />
    <glyph glyph-name="multiply" unicode="&#xd7;" horiz-adv-x="567" 
d="M281 266l-190 -163l-60 73l191 163l-133 161l83 72l134 -162l191 162l59 -73l-191 -162l134 -162l-83 -72z" />
    <glyph glyph-name="Oslash" unicode="&#xd8;" horiz-adv-x="820" 
d="M844 687l-70 -60q32 -65 32 -154q0 -134 -57.5 -245.5t-160 -176.5t-231.5 -65q-154 0 -234 88l-65 -55l-49 58l71 61q-31 65 -31 153q0 133 57 244.5t159.5 176.5t231.5 65q152 0 234 -87l64 55zM207 246l405 344q-47 57 -138 57q-82 0 -144.5 -47t-96 -124t-33.5 -165
q0 -37 7 -65zM646 519l-405 -345q48 -59 139 -59q82 0 144.5 47t96 125t33.5 166q0 34 -8 66z" />
    <glyph glyph-name="Ugrave" unicode="&#xd9;" horiz-adv-x="737" 
d="M116.5 43.5q-64.5 57.5 -64.5 160.5q0 28 7 73l86 486h145l-86 -486q-4 -32 -4 -46q0 -56 32.5 -86t106.5 -30q87 0 132.5 42.5t58.5 119.5l86 486h145l-86 -486q-24 -136 -113 -213.5t-246 -77.5q-135 0 -199.5 57.5zM523 817h-104l-124 148h139z" />
    <glyph glyph-name="Uacute" unicode="&#xda;" horiz-adv-x="737" 
d="M116.5 43.5q-64.5 57.5 -64.5 160.5q0 28 7 73l86 486h145l-86 -486q-4 -32 -4 -46q0 -56 32.5 -86t106.5 -30q87 0 132.5 42.5t58.5 119.5l86 486h145l-86 -486q-24 -136 -113 -213.5t-246 -77.5q-135 0 -199.5 57.5zM507 817h-104l141 148h139z" />
    <glyph glyph-name="Ucircumflex" unicode="&#xdb;" horiz-adv-x="737" 
d="M116.5 43.5q-64.5 57.5 -64.5 160.5q0 28 7 73l86 486h145l-86 -486q-4 -32 -4 -46q0 -56 32.5 -86t106.5 -30q87 0 132.5 42.5t58.5 119.5l86 486h145l-86 -486q-24 -136 -113 -213.5t-246 -77.5q-135 0 -199.5 57.5zM408 820h-118l197 175h14l136 -175h-118l-42 73z
" />
    <glyph glyph-name="Udieresis" unicode="&#xdc;" horiz-adv-x="737" 
d="M116.5 43.5q-64.5 57.5 -64.5 160.5q0 28 7 73l86 486h145l-86 -486q-4 -32 -4 -46q0 -56 32.5 -86t106.5 -30q87 0 132.5 42.5t58.5 119.5l86 486h145l-86 -486q-24 -136 -113 -213.5t-246 -77.5q-135 0 -199.5 57.5zM304.5 822.5q-19.5 16.5 -19.5 43.5q0 38 29 63.5
t67 25.5q30 0 49 -17t19 -44q0 -37 -28.5 -62.5t-66.5 -25.5q-30 0 -49.5 16.5zM516 822.5q-19 16.5 -19 43.5q0 38 28.5 63.5t66.5 25.5q30 0 49 -16.5t19 -44.5q0 -37 -28 -62.5t-67 -25.5q-30 0 -49 16.5z" />
    <glyph glyph-name="Yacute" unicode="&#xdd;" horiz-adv-x="700" 
d="M377 0h-152l53 299l-196 464h157l127 -324l243 324h180l-360 -464zM488 817h-104l141 148h139z" />
    <glyph glyph-name="Thorn" unicode="&#xde;" horiz-adv-x="660" 
d="M18 0l135 763h143l-18 -103h185q98 0 152.5 -42t54.5 -127q0 -81 -36.5 -144.5t-102 -99.5t-147.5 -36h-186l-37 -211h-143zM390 337q61 0 97.5 32t36.5 86q0 37 -26 56t-74 19h-169l-35 -193h170z" />
    <glyph glyph-name="germandbls" unicode="&#xdf;" horiz-adv-x="688" 
d="M108 480q25 144 112.5 219t225.5 75q69 0 121 -21t80.5 -59t28.5 -87q0 -67 -37 -119t-103 -74q117 -31 117 -143q0 -81 -42 -142.5t-114.5 -95t-160.5 -33.5h-75l21 120h66q77 0 123.5 35.5t46.5 98.5q0 41 -30 62.5t-88 21.5h-79l20 111h53q64 0 102.5 33.5t38.5 88.5
q0 38 -29.5 60.5t-80.5 22.5q-71 0 -118.5 -43t-62.5 -125l-85 -486h-135z" />
    <glyph glyph-name="agrave" unicode="&#xe0;" horiz-adv-x="591" 
d="M56.5 23q-42.5 34 -42.5 97q0 91 60.5 140.5t168.5 69.5l173 31q2 16 2 25q0 34 -16 54q-21 27 -70 27q-39 0 -72.5 -23t-47.5 -62h-134q31 93 107.5 142t166.5 49q50 0 92 -14.5t68 -42.5q38 -39 38 -114q0 -43 -13 -110l-51 -292h-135l14 76q-26 -36 -61 -56
q-53 -31 -133 -31q-72 0 -114.5 34zM298 111q46 21 68.5 56.5t33.5 94.5l-138 -27q-53 -10 -82 -30t-29 -58q0 -25 20 -38.5t52 -13.5q40 0 75 16zM421 615h-104l-124 148h139z" />
    <glyph glyph-name="aacute" unicode="&#xe1;" horiz-adv-x="591" 
d="M56.5 23q-42.5 34 -42.5 97q0 91 60.5 140.5t168.5 69.5l173 31q2 16 2 25q0 34 -16 54q-21 27 -70 27q-39 0 -72.5 -23t-47.5 -62h-134q31 93 107.5 142t166.5 49q50 0 92 -14.5t68 -42.5q38 -39 38 -114q0 -43 -13 -110l-51 -292h-135l14 76q-26 -36 -61 -56
q-53 -31 -133 -31q-72 0 -114.5 34zM298 111q46 21 68.5 56.5t33.5 94.5l-138 -27q-53 -10 -82 -30t-29 -58q0 -25 20 -38.5t52 -13.5q40 0 75 16zM406 615h-104l141 148h139z" />
    <glyph glyph-name="acircumflex" unicode="&#xe2;" horiz-adv-x="591" 
d="M56.5 23q-42.5 34 -42.5 97q0 91 60.5 140.5t168.5 69.5l173 31q2 16 2 25q0 34 -16 54q-21 27 -70 27q-39 0 -72.5 -23t-47.5 -62h-134q31 93 107.5 142t166.5 49q50 0 92 -14.5t68 -42.5q38 -39 38 -114q0 -43 -13 -110l-51 -292h-135l14 76q-26 -36 -61 -56
q-53 -31 -133 -31q-72 0 -114.5 34zM298 111q46 21 68.5 56.5t33.5 94.5l-138 -27q-53 -10 -82 -30t-29 -58q0 -25 20 -38.5t52 -13.5q40 0 75 16zM306 618h-118l197 175h14l136 -175h-118l-42 73z" />
    <glyph glyph-name="atilde" unicode="&#xe3;" horiz-adv-x="591" 
d="M56.5 23q-42.5 34 -42.5 97q0 91 60.5 140.5t168.5 69.5l173 31q2 16 2 25q0 34 -16 54q-21 27 -70 27q-39 0 -72.5 -23t-47.5 -62h-134q31 93 107.5 142t166.5 49q50 0 92 -14.5t68 -42.5q38 -39 38 -114q0 -43 -13 -110l-51 -292h-135l14 76q-26 -36 -61 -56
q-53 -31 -133 -31q-72 0 -114.5 34zM298 111q46 21 68.5 56.5t33.5 94.5l-138 -27q-53 -10 -82 -30t-29 -58q0 -25 20 -38.5t52 -13.5q40 0 75 16zM374 619q-19 13 -37 35q-10 13 -18 19.5t-17 6.5q-30 0 -46 -72h-81q17 74 56 116.5t92 42.5q30 0 48 -12.5t37 -35.5
q12 -14 19.5 -20t16.5 -6q12 0 23.5 17.5t19.5 52.5h83q-19 -80 -53 -118.5t-90 -38.5q-34 0 -53 13z" />
    <glyph glyph-name="adieresis" unicode="&#xe4;" horiz-adv-x="591" 
d="M56.5 23q-42.5 34 -42.5 97q0 91 60.5 140.5t168.5 69.5l173 31q2 16 2 25q0 34 -16 54q-21 27 -70 27q-39 0 -72.5 -23t-47.5 -62h-134q31 93 107.5 142t166.5 49q50 0 92 -14.5t68 -42.5q38 -39 38 -114q0 -43 -13 -110l-51 -292h-135l14 76q-26 -36 -61 -56
q-53 -31 -133 -31q-72 0 -114.5 34zM298 111q46 21 68.5 56.5t33.5 94.5l-138 -27q-53 -10 -82 -30t-29 -58q0 -25 20 -38.5t52 -13.5q40 0 75 16zM206 640q-20 17 -20 45q0 39 29.5 65.5t68.5 26.5q31 0 50.5 -18t19.5 -46q0 -39 -29 -64.5t-68 -25.5q-31 0 -51 17z
M417.5 640q-19.5 17 -19.5 45q0 39 29 65.5t68 26.5q31 0 51 -18t20 -46q0 -39 -29 -64.5t-69 -25.5q-31 0 -50.5 17z" />
    <glyph glyph-name="aring" unicode="&#xe5;" horiz-adv-x="591" 
d="M56.5 23q-42.5 34 -42.5 97q0 91 60.5 140.5t168.5 69.5l173 31q2 16 2 25q0 34 -16 54q-21 27 -70 27q-39 0 -72.5 -23t-47.5 -62h-134q31 93 107.5 142t166.5 49q50 0 92 -14.5t68 -42.5q38 -39 38 -114q0 -43 -13 -110l-51 -292h-135l14 76q-26 -36 -61 -56
q-53 -31 -133 -31q-72 0 -114.5 34zM298 111q46 21 68.5 56.5t33.5 94.5l-138 -27q-53 -10 -82 -30t-29 -58q0 -25 20 -38.5t52 -13.5q40 0 75 16zM276.5 603.5q-29.5 30.5 -29.5 75.5q0 39 21.5 73.5t56.5 55t73 20.5q47 0 77.5 -30t30.5 -76q0 -39 -21.5 -73t-56.5 -55
t-74 -21q-48 0 -77.5 30.5zM411.5 667.5q18.5 19.5 18.5 44.5q0 18 -12 29.5t-33 11.5q-26 0 -43.5 -18.5t-17.5 -43.5q0 -19 12 -31t31 -12q26 0 44.5 19.5z" />
    <glyph glyph-name="ae" unicode="&#xe6;" horiz-adv-x="1007" 
d="M539 253v-14q0 -61 33 -97.5t92 -36.5q46 0 83 23.5t59 60.5h137q-42 -89 -120 -144.5t-185 -55.5q-74 0 -128 29t-82 81q-49 -64 -112 -87t-133 -23q-80 0 -124.5 34t-44.5 97q0 91 60.5 140.5t168.5 69.5l173 31q2 16 2 25q0 34 -16 54q-21 27 -70 27q-39 0 -72.5 -23
t-47.5 -62h-134q31 93 107.5 142t166.5 49q50 0 92 -14.5t68 -42.5q8 -8 15 -20q93 77 211 77q66 0 119.5 -24t85.5 -74.5t32 -124.5q0 -19 -3 -43t-8 -54h-425zM563 354h280q0 24 -10 40q-9 34 -39 53t-71 19q-78 0 -129 -60q-20 -20 -31 -52zM366.5 167.5
q22.5 35.5 33.5 94.5l-138 -27q-53 -10 -82 -30t-29 -58q0 -25 20 -38.5t52 -13.5q40 0 75 16q46 21 68.5 56.5z" />
    <glyph glyph-name="ccedilla" unicode="&#xe7;" horiz-adv-x="621" 
d="M373.5 122.5q34.5 23.5 52.5 66.5h146q-35 -90 -111.5 -142.5t-173.5 -57.5q-24 -17 -43 -28l5 -9q22 2 27 2q35 0 57.5 -15.5t22.5 -44.5q0 -51 -43 -79t-106 -28q-47 0 -92 14l9 52q46 -19 84 -19q30 0 47.5 13t17.5 37q0 27 -32.5 36.5t-92.5 8.5l67 65
q-85 15 -133.5 75t-48.5 150q0 97 44.5 178t122.5 128.5t174 47.5q101 0 162.5 -51.5t67.5 -139.5h-147q-6 39 -32.5 60t-69.5 21q-54 0 -95.5 -32.5t-64.5 -85t-23 -110.5q0 -63 32 -99.5t87 -36.5q48 0 82.5 23.5z" />
    <glyph glyph-name="egrave" unicode="&#xe8;" horiz-adv-x="640" 
d="M144 18q-54 29 -82.5 81t-28.5 120q0 94 45 175.5t122.5 130t170.5 48.5q66 0 120 -24t86 -74.5t32 -124.5q0 -19 -3 -43t-8 -54h-425q-1 -5 -1 -14q0 -61 33.5 -97.5t92.5 -36.5q46 0 83 23.5t58 60.5h138q-42 -89 -120 -144.5t-185 -55.5q-74 0 -128 29zM477 354
q0 24 -10 40q-9 34 -39 53t-71 19q-38 0 -71.5 -15t-57.5 -45q-20 -20 -31 -52h280zM440 615h-104l-124 148h139z" />
    <glyph glyph-name="eacute" unicode="&#xe9;" horiz-adv-x="640" 
d="M144 18q-54 29 -82.5 81t-28.5 120q0 94 45 175.5t122.5 130t170.5 48.5q66 0 120 -24t86 -74.5t32 -124.5q0 -19 -3 -43t-8 -54h-425q-1 -5 -1 -14q0 -61 33.5 -97.5t92.5 -36.5q46 0 83 23.5t58 60.5h138q-42 -89 -120 -144.5t-185 -55.5q-74 0 -128 29zM477 354
q0 24 -10 40q-9 34 -39 53t-71 19q-38 0 -71.5 -15t-57.5 -45q-20 -20 -31 -52h280zM424 615h-104l141 148h139z" />
    <glyph glyph-name="ecircumflex" unicode="&#xea;" horiz-adv-x="640" 
d="M144 18q-54 29 -82.5 81t-28.5 120q0 94 45 175.5t122.5 130t170.5 48.5q66 0 120 -24t86 -74.5t32 -124.5q0 -19 -3 -43t-8 -54h-425q-1 -5 -1 -14q0 -61 33.5 -97.5t92.5 -36.5q46 0 83 23.5t58 60.5h138q-42 -89 -120 -144.5t-185 -55.5q-74 0 -128 29zM477 354
q0 24 -10 40q-9 34 -39 53t-71 19q-38 0 -71.5 -15t-57.5 -45q-20 -20 -31 -52h280zM325 618h-118l197 175h14l136 -175h-118l-42 73z" />
    <glyph glyph-name="edieresis" unicode="&#xeb;" horiz-adv-x="640" 
d="M144 18q-54 29 -82.5 81t-28.5 120q0 94 45 175.5t122.5 130t170.5 48.5q66 0 120 -24t86 -74.5t32 -124.5q0 -19 -3 -43t-8 -54h-425q-1 -5 -1 -14q0 -61 33.5 -97.5t92.5 -36.5q46 0 83 23.5t58 60.5h138q-42 -89 -120 -144.5t-185 -55.5q-74 0 -128 29zM477 354
q0 24 -10 40q-9 34 -39 53t-71 19q-38 0 -71.5 -15t-57.5 -45q-20 -20 -31 -52h280zM224 640q-20 17 -20 45q0 39 29.5 65.5t68.5 26.5q31 0 50.5 -18t19.5 -46q0 -39 -29 -64.5t-68 -25.5q-31 0 -51 17zM435.5 640q-19.5 17 -19.5 45q0 39 29 65.5t68 26.5q31 0 51 -18
t20 -46q0 -39 -29 -64.5t-69 -25.5q-31 0 -50.5 17z" />
    <glyph glyph-name="igrave" unicode="&#xec;" horiz-adv-x="258" 
d="M147 0h-135l99 561h135zM248 615h-104l-124 148h139z" />
    <glyph glyph-name="iacute" unicode="&#xed;" horiz-adv-x="258" 
d="M147 0h-135l99 561h135zM232 615h-104l141 148h139z" />
    <glyph glyph-name="icircumflex" unicode="&#xee;" horiz-adv-x="258" 
d="M147 0h-135l99 561h135zM133 618h-118l197 175h14l136 -175h-118l-42 73z" />
    <glyph glyph-name="idieresis" unicode="&#xef;" horiz-adv-x="258" 
d="M147 0h-135l99 561h135zM33 640q-20 17 -20 45q0 39 29.5 65.5t68.5 26.5q31 0 50.5 -18t19.5 -46q0 -39 -29 -64.5t-68 -25.5q-31 0 -51 17zM244.5 640q-19.5 17 -19.5 45q0 39 29 65.5t68 26.5q31 0 51 -18t20 -46q0 -39 -29 -64.5t-69 -25.5q-31 0 -50.5 17z" />
    <glyph glyph-name="eth" unicode="&#xf0;" horiz-adv-x="614" 
d="M116 12.5q-50 26.5 -77 74.5t-27 111q0 85 37.5 154.5t104.5 110t151 40.5q49 0 91.5 -19t70.5 -59q7 42 7 68q0 74 -40 120l-129 -68l-22 55l93 48q-25 11 -59 11q-47 0 -87 -17l-41 107q74 27 154 27q107 0 170 -55l82 42l22 -55l-63 -33q45 -73 45 -183
q0 -135 -42.5 -250.5t-125.5 -185.5t-199 -70q-66 0 -116 26.5zM340 133.5q39 24.5 62 64t23 82.5q0 49 -32.5 81t-85.5 32q-44 0 -81.5 -23t-59.5 -61.5t-22 -81.5q0 -52 31 -85t81 -33q45 0 84 24.5z" />
    <glyph glyph-name="ntilde" unicode="&#xf1;" horiz-adv-x="605" 
d="M12 0l99 561h135l-13 -71q40 45 80 64t87 19q167 0 167 -151q0 -28 -5.5 -60.5t-6.5 -38.5l-57 -323h-135l57 325q6 35 6 58q0 42 -19 60.5t-61 18.5q-68 0 -100.5 -44t-48.5 -132l-50 -286h-135zM374 619q-19 13 -37 35q-10 13 -18 19.5t-17 6.5q-30 0 -46 -72h-81
q17 74 56 116.5t92 42.5q30 0 48 -12.5t37 -35.5q12 -14 19.5 -20t16.5 -6q12 0 23.5 17.5t19.5 52.5h83q-19 -80 -53 -118.5t-90 -38.5q-34 0 -53 13z" />
    <glyph glyph-name="ograve" unicode="&#xf2;" horiz-adv-x="652" 
d="M145.5 17.5q-54.5 28.5 -83.5 80.5t-29 122q0 96 45 177t124 128.5t175 47.5q74 0 128.5 -28.5t83.5 -80.5t29 -121q0 -95 -45.5 -176.5t-124.5 -129.5t-174 -48q-74 0 -128.5 28.5zM388 136.5q42 31.5 65.5 82t23.5 105.5q0 60 -32.5 96.5t-88.5 36.5q-52 0 -94 -30.5
t-65.5 -80.5t-23.5 -106q0 -62 33 -98.5t88 -36.5q52 0 94 31.5zM445 615h-104l-124 148h139z" />
    <glyph glyph-name="oacute" unicode="&#xf3;" horiz-adv-x="652" 
d="M145.5 17.5q-54.5 28.5 -83.5 80.5t-29 122q0 96 45 177t124 128.5t175 47.5q74 0 128.5 -28.5t83.5 -80.5t29 -121q0 -95 -45.5 -176.5t-124.5 -129.5t-174 -48q-74 0 -128.5 28.5zM388 136.5q42 31.5 65.5 82t23.5 105.5q0 60 -32.5 96.5t-88.5 36.5q-52 0 -94 -30.5
t-65.5 -80.5t-23.5 -106q0 -62 33 -98.5t88 -36.5q52 0 94 31.5zM429 615h-104l141 148h139z" />
    <glyph glyph-name="ocircumflex" unicode="&#xf4;" horiz-adv-x="652" 
d="M145.5 17.5q-54.5 28.5 -83.5 80.5t-29 122q0 96 45 177t124 128.5t175 47.5q74 0 128.5 -28.5t83.5 -80.5t29 -121q0 -95 -45.5 -176.5t-124.5 -129.5t-174 -48q-74 0 -128.5 28.5zM388 136.5q42 31.5 65.5 82t23.5 105.5q0 60 -32.5 96.5t-88.5 36.5q-52 0 -94 -30.5
t-65.5 -80.5t-23.5 -106q0 -62 33 -98.5t88 -36.5q52 0 94 31.5zM330 618h-118l197 175h14l136 -175h-118l-42 73z" />
    <glyph glyph-name="otilde" unicode="&#xf5;" horiz-adv-x="652" 
d="M145.5 17.5q-54.5 28.5 -83.5 80.5t-29 122q0 96 45 177t124 128.5t175 47.5q74 0 128.5 -28.5t83.5 -80.5t29 -121q0 -95 -45.5 -176.5t-124.5 -129.5t-174 -48q-74 0 -128.5 28.5zM388 136.5q42 31.5 65.5 82t23.5 105.5q0 60 -32.5 96.5t-88.5 36.5q-52 0 -94 -30.5
t-65.5 -80.5t-23.5 -106q0 -62 33 -98.5t88 -36.5q52 0 94 31.5zM397 619q-19 13 -37 35q-10 13 -18 19.5t-17 6.5q-30 0 -46 -72h-81q17 74 56 116.5t92 42.5q30 0 48 -12.5t37 -35.5q12 -14 19.5 -20t16.5 -6q12 0 23.5 17.5t19.5 52.5h83q-19 -80 -53 -118.5t-90 -38.5
q-34 0 -53 13z" />
    <glyph glyph-name="odieresis" unicode="&#xf6;" horiz-adv-x="652" 
d="M145.5 17.5q-54.5 28.5 -83.5 80.5t-29 122q0 96 45 177t124 128.5t175 47.5q74 0 128.5 -28.5t83.5 -80.5t29 -121q0 -95 -45.5 -176.5t-124.5 -129.5t-174 -48q-74 0 -128.5 28.5zM388 136.5q42 31.5 65.5 82t23.5 105.5q0 60 -32.5 96.5t-88.5 36.5q-52 0 -94 -30.5
t-65.5 -80.5t-23.5 -106q0 -62 33 -98.5t88 -36.5q52 0 94 31.5zM229 640q-20 17 -20 45q0 39 29.5 65.5t68.5 26.5q31 0 50.5 -18t19.5 -46q0 -39 -29 -64.5t-68 -25.5q-31 0 -51 17zM440.5 640q-19.5 17 -19.5 45q0 39 29 65.5t68 26.5q31 0 51 -18t20 -46
q0 -39 -29 -64.5t-69 -25.5q-31 0 -50.5 17z" />
    <glyph glyph-name="divide" unicode="&#xf7;" horiz-adv-x="514" 
d="M360 449h-148l26 144h148zM490 289h-463l18 101h463zM295 77h-148l25 144h148z" />
    <glyph glyph-name="oslash" unicode="&#xf8;" horiz-adv-x="652" 
d="M655 511l-63 -53q26 -50 26 -115q0 -95 -45.5 -176.5t-124.5 -129.5t-174 -48q-51 0 -94 14t-74 41l-61 -52l-49 58l63 54q-26 50 -26 116q0 96 45 177t124 128.5t175 47.5q104 0 168 -56l61 52zM176 204l263 223q-33 30 -83 30q-52 0 -94 -30.5t-65.5 -80.5t-23.5 -106
q0 -19 3 -36zM474 357l-261 -222q32 -30 81 -30q52 0 94 31.5t65.5 82t23.5 105.5q0 18 -3 33z" />
    <glyph glyph-name="ugrave" unicode="&#xf9;" horiz-adv-x="606" 
d="M47 82q-8 23 -8 55q0 34 12 101l57 323h135l-58 -324q-6 -36 -6 -59q0 -33 13 -53q19 -25 68 -25q57 0 91 34q21 20 34 53t24 89l50 285h135l-99 -561h-135l12 71q-38 -43 -77.5 -62.5t-89.5 -19.5q-129 0 -158 93zM422 615h-104l-124 148h139z" />
    <glyph glyph-name="uacute" unicode="&#xfa;" horiz-adv-x="606" 
d="M47 82q-8 23 -8 55q0 34 12 101l57 323h135l-58 -324q-6 -36 -6 -59q0 -33 13 -53q19 -25 68 -25q57 0 91 34q21 20 34 53t24 89l50 285h135l-99 -561h-135l12 71q-38 -43 -77.5 -62.5t-89.5 -19.5q-129 0 -158 93zM406 615h-104l141 148h139z" />
    <glyph glyph-name="ucircumflex" unicode="&#xfb;" horiz-adv-x="606" 
d="M47 82q-8 23 -8 55q0 34 12 101l57 323h135l-58 -324q-6 -36 -6 -59q0 -33 13 -53q19 -25 68 -25q57 0 91 34q21 20 34 53t24 89l50 285h135l-99 -561h-135l12 71q-38 -43 -77.5 -62.5t-89.5 -19.5q-129 0 -158 93zM307 618h-118l197 175h14l136 -175h-118l-42 73z" />
    <glyph glyph-name="udieresis" unicode="&#xfc;" horiz-adv-x="606" 
d="M47 82q-8 23 -8 55q0 34 12 101l57 323h135l-58 -324q-6 -36 -6 -59q0 -33 13 -53q19 -25 68 -25q57 0 91 34q21 20 34 53t24 89l50 285h135l-99 -561h-135l12 71q-38 -43 -77.5 -62.5t-89.5 -19.5q-129 0 -158 93zM206 640q-20 17 -20 45q0 39 29.5 65.5t68.5 26.5
q31 0 50.5 -18t19.5 -46q0 -39 -29 -64.5t-68 -25.5q-31 0 -51 17zM417.5 640q-19.5 17 -19.5 45q0 39 29 65.5t68 26.5q31 0 51 -18t20 -46q0 -39 -29 -64.5t-69 -25.5q-31 0 -50.5 17z" />
    <glyph glyph-name="yacute" unicode="&#xfd;" horiz-adv-x="565" 
d="M-16 -202l21 114h62q28 0 44.5 8.5t34.5 37.5l23 40l-108 563h141l58 -412l191 412h150l-329 -627q-39 -75 -82 -105.5t-112 -30.5h-94zM382 615h-104l141 148h139z" />
    <glyph glyph-name="thorn" unicode="&#xfe;" horiz-adv-x="643" 
d="M-24 -202l171 965h135l-49 -273q41 46 81.5 64.5t92.5 18.5q93 0 147.5 -60.5t54.5 -161.5q0 -93 -39.5 -176.5t-109 -134.5t-156.5 -51q-52 0 -86 18t-59 64l-48 -273h-135zM385 137q41 32 63.5 82.5t22.5 105.5q0 60 -30.5 96t-85.5 36q-51 0 -92.5 -31.5t-64.5 -82.5
t-23 -106q0 -60 32 -96t86 -36q51 0 92 32z" />
    <glyph glyph-name="ydieresis" unicode="&#xff;" horiz-adv-x="565" 
d="M-16 -202l21 114h62q28 0 44.5 8.5t34.5 37.5l23 40l-108 563h141l58 -412l191 412h150l-329 -627q-39 -75 -82 -105.5t-112 -30.5h-94zM182 640q-20 17 -20 45q0 39 29.5 65.5t68.5 26.5q31 0 50.5 -18t19.5 -46q0 -39 -29 -64.5t-68 -25.5q-31 0 -51 17zM393.5 640
q-19.5 17 -19.5 45q0 39 29 65.5t68 26.5q31 0 51 -18t20 -46q0 -39 -29 -64.5t-69 -25.5q-31 0 -50.5 17z" />
    <glyph glyph-name="Amacron" unicode="&#x100;" horiz-adv-x="710" 
d="M653 0h-143l-23 157h-292l-79 -157h-159l404 763h158zM420 606l-162 -323h210zM603 837h-300l12 64h299z" />
    <glyph glyph-name="amacron" unicode="&#x101;" horiz-adv-x="591" 
d="M56.5 23q-42.5 34 -42.5 97q0 91 60.5 140.5t168.5 69.5l173 31q2 16 2 25q0 34 -16 54q-21 27 -70 27q-39 0 -72.5 -23t-47.5 -62h-134q31 93 107.5 142t166.5 49q50 0 92 -14.5t68 -42.5q38 -39 38 -114q0 -43 -13 -110l-51 -292h-135l14 76q-26 -36 -61 -56
q-53 -31 -133 -31q-72 0 -114.5 34zM298 111q46 21 68.5 56.5t33.5 94.5l-138 -27q-53 -10 -82 -30t-29 -58q0 -25 20 -38.5t52 -13.5q40 0 75 16zM515 635h-300l12 64h299z" />
    <glyph glyph-name="Abreve" unicode="&#x102;" horiz-adv-x="710" 
d="M653 0h-143l-23 157h-292l-79 -157h-159l404 763h158zM420 606l-162 -323h210zM340 841q-36 33 -36 93q0 9 2 29h80q-3 -38 18 -57.5t58 -19.5t63.5 19.5t38.5 57.5h81q-17 -72 -68 -113.5t-129 -41.5q-72 0 -108 33z" />
    <glyph glyph-name="abreve" unicode="&#x103;" horiz-adv-x="591" 
d="M56.5 23q-42.5 34 -42.5 97q0 91 60.5 140.5t168.5 69.5l173 31q2 16 2 25q0 34 -16 54q-21 27 -70 27q-39 0 -72.5 -23t-47.5 -62h-134q31 93 107.5 142t166.5 49q50 0 92 -14.5t68 -42.5q38 -39 38 -114q0 -43 -13 -110l-51 -292h-135l14 76q-26 -36 -61 -56
q-53 -31 -133 -31q-72 0 -114.5 34zM298 111q46 21 68.5 56.5t33.5 94.5l-138 -27q-53 -10 -82 -30t-29 -58q0 -25 20 -38.5t52 -13.5q40 0 75 16zM252 639q-36 33 -36 93q0 9 2 29h80q-3 -38 18 -57.5t58 -19.5t63.5 19.5t38.5 57.5h81q-17 -72 -68 -113.5t-129 -41.5
q-72 0 -108 33z" />
    <glyph glyph-name="Aogonek" unicode="&#x104;" horiz-adv-x="710" 
d="M653 0h-143l-23 157h-292l-79 -157h-159l404 763h158zM420 606l-162 -323h210zM471.5 -195q-25.5 18 -25.5 51q0 47 31 76t92 50l4 18h80q-60 -37 -82.5 -57t-22.5 -44q0 -29 37 -29q19 0 47 11l-14 -83q-36 -11 -72 -11q-49 0 -74.5 18z" />
    <glyph glyph-name="aogonek" unicode="&#x105;" horiz-adv-x="591" 
d="M550 402q0 -43 -13 -110l-51 -292q-60 -37 -82.5 -57t-22.5 -44q0 -29 37 -29q19 0 47 11l-14 -83q-36 -11 -72 -11q-49 0 -74.5 18t-25.5 51q0 47 31 76t92 50l4 18h-55l14 76q-26 -36 -61 -56q-53 -31 -133 -31q-72 0 -114.5 34t-42.5 97q0 91 60.5 140.5t168.5 69.5
l173 31q2 16 2 25q0 34 -16 54q-21 27 -70 27q-39 0 -72.5 -23t-47.5 -62h-134q31 93 107.5 142t166.5 49q50 0 92 -14.5t68 -42.5q38 -39 38 -114zM366.5 167.5q22.5 35.5 33.5 94.5l-138 -27q-53 -10 -82 -30t-29 -58q0 -25 20 -38.5t52 -13.5q40 0 75 16q46 21 68.5 56.5
z" />
    <glyph glyph-name="Cacute" unicode="&#x106;" horiz-adv-x="767" 
d="M125.5 70q-76.5 84 -76.5 220q0 134 57 245.5t159 176.5t231 65q93 0 157 -31.5t95 -88.5t28 -133h-157q0 60 -40 92t-109 32q-82 0 -143.5 -47.5t-94 -125.5t-32.5 -167q0 -90 45 -141.5t131 -51.5q69 0 120 33.5t74 99.5h158q-38 -121 -135.5 -191.5t-236.5 -70.5
q-154 0 -230.5 84zM521 817h-104l141 148h139z" />
    <glyph glyph-name="cacute" unicode="&#x107;" horiz-adv-x="621" 
d="M97 51.5q-64 62.5 -64 167.5q0 97 44.5 178t122.5 128.5t174 47.5q101 0 162.5 -51.5t67.5 -139.5h-147q-6 39 -32.5 60t-69.5 21q-54 0 -95.5 -32.5t-64.5 -85t-23 -110.5q0 -63 32 -99.5t87 -36.5q48 0 82.5 23.5t52.5 66.5h146q-36 -94 -117.5 -147t-183.5 -53
q-110 0 -174 62.5zM414 615h-104l141 148h139z" />
    <glyph glyph-name="Cdotaccent" unicode="&#x10a;" horiz-adv-x="767" 
d="M125.5 70q-76.5 84 -76.5 220q0 134 57 245.5t159 176.5t231 65q93 0 157 -31.5t95 -88.5t28 -133h-157q0 60 -40 92t-109 32q-82 0 -143.5 -47.5t-94 -125.5t-32.5 -167q0 -90 45 -141.5t131 -51.5q69 0 120 33.5t74 99.5h158q-38 -121 -135.5 -191.5t-236.5 -70.5
q-154 0 -230.5 84zM424.5 822.5q-19.5 16.5 -19.5 43.5q0 38 29 63.5t67 25.5q30 0 49 -17t19 -44q0 -37 -28.5 -62.5t-66.5 -25.5q-30 0 -49.5 16.5z" />
    <glyph glyph-name="cdotaccent" unicode="&#x10b;" horiz-adv-x="621" 
d="M97 51.5q-64 62.5 -64 167.5q0 97 44.5 178t122.5 128.5t174 47.5q101 0 162.5 -51.5t67.5 -139.5h-147q-6 39 -32.5 60t-69.5 21q-54 0 -95.5 -32.5t-64.5 -85t-23 -110.5q0 -63 32 -99.5t87 -36.5q48 0 82.5 23.5t52.5 66.5h146q-36 -94 -117.5 -147t-183.5 -53
q-110 0 -174 62.5zM321 640q-20 17 -20 45q0 39 29.5 65.5t68.5 26.5q31 0 50.5 -18t19.5 -46q0 -39 -29 -64.5t-68 -25.5q-31 0 -51 17z" />
    <glyph glyph-name="Ccaron" unicode="&#x10c;" horiz-adv-x="767" 
d="M125.5 70q-76.5 84 -76.5 220q0 134 57 245.5t159 176.5t231 65q93 0 157 -31.5t95 -88.5t28 -133h-157q0 60 -40 92t-109 32q-82 0 -143.5 -47.5t-94 -125.5t-32.5 -167q0 -90 45 -141.5t131 -51.5q69 0 120 33.5t74 99.5h158q-38 -121 -135.5 -191.5t-236.5 -70.5
q-154 0 -230.5 84zM479 791h-14l-135 174h118l42 -72l69 72h118z" />
    <glyph glyph-name="ccaron" unicode="&#x10d;" horiz-adv-x="621" 
d="M97 51.5q-64 62.5 -64 167.5q0 97 44.5 178t122.5 128.5t174 47.5q101 0 162.5 -51.5t67.5 -139.5h-147q-6 39 -32.5 60t-69.5 21q-54 0 -95.5 -32.5t-64.5 -85t-23 -110.5q0 -63 32 -99.5t87 -36.5q48 0 82.5 23.5t52.5 66.5h146q-36 -94 -117.5 -147t-183.5 -53
q-110 0 -174 62.5zM372 589h-14l-135 174h118l42 -72l69 72h118z" />
    <glyph glyph-name="Dcaron" unicode="&#x10e;" horiz-adv-x="728" 
d="M18 0l135 763h223q166 0 253 -74t87 -214q0 -142 -58.5 -249.5t-166 -166.5t-251.5 -59h-222zM261 129q148 0 228 85t80 232q0 95 -57.5 141.5t-160.5 46.5h-77l-89 -505h76zM448 791h-14l-135 174h118l42 -72l69 72h118z" />
    <glyph glyph-name="dcaron" unicode="&#x10f;" horiz-adv-x="643" 
d="M88 49q-54 60 -54 161q0 94 39 177.5t109 134.5t157 51q51 0 85 -18.5t59 -64.5l49 273h135l-135 -763h-135l12 71q-41 -46 -81.5 -64t-92.5 -18q-93 0 -147 60zM380 136.5q41 31.5 64.5 82t23.5 105.5q0 60 -32.5 96.5t-86.5 36.5q-51 0 -91.5 -32t-63 -83t-22.5 -106
q0 -59 30.5 -95t84.5 -36q52 0 93 31.5zM716 525q48 2 80.5 24t43.5 60q5 14 6 28q-19 -22 -53 -22q-23 0 -39 16t-16 44q0 43 29.5 71t73.5 28q40 0 61 -25t21 -69q0 -18 -3 -39q-13 -72 -67 -126t-149 -60z" />
    <glyph glyph-name="Dcroat" unicode="&#x110;" horiz-adv-x="728" 
d="M376 763q166 0 253 -74t87 -214q0 -142 -58.5 -249.5t-166 -166.5t-251.5 -59h-222l59 331h-65l18 101h64l59 331h223zM261 129q148 0 228 85t80 232q0 95 -57.5 141.5t-160.5 46.5h-77l-36 -202h208l-18 -101h-207l-36 -202h76z" />
    <glyph glyph-name="Emacron" unicode="&#x112;" horiz-adv-x="621" 
d="M528 0h-510l135 763h510l-24 -129h-365l-33 -188h327l-23 -128h-327l-33 -189h366zM571 837h-300l12 64h299z" />
    <glyph glyph-name="emacron" unicode="&#x113;" horiz-adv-x="640" 
d="M144 18q-54 29 -82.5 81t-28.5 120q0 94 45 175.5t122.5 130t170.5 48.5q66 0 120 -24t86 -74.5t32 -124.5q0 -19 -3 -43t-8 -54h-425q-1 -5 -1 -14q0 -61 33.5 -97.5t92.5 -36.5q46 0 83 23.5t58 60.5h138q-42 -89 -120 -144.5t-185 -55.5q-74 0 -128 29zM477 354
q0 24 -10 40q-9 34 -39 53t-71 19q-38 0 -71.5 -15t-57.5 -45q-20 -20 -31 -52h280zM533 635h-300l12 64h299z" />
    <glyph glyph-name="Edotaccent" unicode="&#x116;" horiz-adv-x="621" 
d="M528 0h-510l135 763h510l-24 -129h-365l-33 -188h327l-23 -128h-327l-33 -189h366zM365.5 822.5q-19.5 16.5 -19.5 43.5q0 38 29 63.5t67 25.5q30 0 49 -17t19 -44q0 -37 -28.5 -62.5t-66.5 -25.5q-30 0 -49.5 16.5z" />
    <glyph glyph-name="edotaccent" unicode="&#x117;" horiz-adv-x="640" 
d="M144 18q-54 29 -82.5 81t-28.5 120q0 94 45 175.5t122.5 130t170.5 48.5q66 0 120 -24t86 -74.5t32 -124.5q0 -19 -3 -43t-8 -54h-425q-1 -5 -1 -14q0 -61 33.5 -97.5t92.5 -36.5q46 0 83 23.5t58 60.5h138q-42 -89 -120 -144.5t-185 -55.5q-74 0 -128 29zM477 354
q0 24 -10 40q-9 34 -39 53t-71 19q-38 0 -71.5 -15t-57.5 -45q-20 -20 -31 -52h280zM330 640q-20 17 -20 45q0 39 29.5 65.5t68.5 26.5q31 0 50.5 -18t19.5 -46q0 -39 -29 -64.5t-68 -25.5q-31 0 -51 17z" />
    <glyph glyph-name="Eogonek" unicode="&#x118;" horiz-adv-x="621" 
d="M528 0h-510l135 763h510l-24 -129h-365l-33 -188h327l-23 -128h-327l-33 -189h366zM346.5 -195q-25.5 18 -25.5 51q0 47 31 76t92 50l4 18h80q-60 -37 -82.5 -57t-22.5 -44q0 -29 37 -29q19 0 47 11l-14 -83q-36 -11 -72 -11q-49 0 -74.5 18z" />
    <glyph glyph-name="eogonek" unicode="&#x119;" horiz-adv-x="640" 
d="M173 253q-1 -5 -1 -14q0 -61 33.5 -97.5t92.5 -36.5q46 0 83 23.5t58 60.5h138q-25 -52 -63 -94t-87 -69q-42 -26 -59.5 -44t-17.5 -39q0 -29 37 -29q19 0 47 11l-14 -83q-36 -11 -72 -11q-49 0 -74.5 18t-25.5 51q0 56 48 90q-8 -1 -24 -1q-74 0 -128 29t-82.5 81
t-28.5 120q0 94 45 175.5t122.5 130t170.5 48.5q66 0 120 -24t86 -74.5t32 -124.5q0 -19 -3 -43t-8 -54h-425zM197 354h280q0 24 -10 40q-9 34 -39 53t-71 19q-38 0 -71.5 -15t-57.5 -45q-20 -20 -31 -52z" />
    <glyph glyph-name="Ecaron" unicode="&#x11a;" horiz-adv-x="621" 
d="M528 0h-510l135 763h510l-24 -129h-365l-33 -188h327l-23 -128h-327l-33 -189h366zM420 791h-14l-135 174h118l42 -72l69 72h118z" />
    <glyph glyph-name="ecaron" unicode="&#x11b;" horiz-adv-x="640" 
d="M144 18q-54 29 -82.5 81t-28.5 120q0 94 45 175.5t122.5 130t170.5 48.5q66 0 120 -24t86 -74.5t32 -124.5q0 -19 -3 -43t-8 -54h-425q-1 -5 -1 -14q0 -61 33.5 -97.5t92.5 -36.5q46 0 83 23.5t58 60.5h138q-42 -89 -120 -144.5t-185 -55.5q-74 0 -128 29zM477 354
q0 24 -10 40q-9 34 -39 53t-71 19q-38 0 -71.5 -15t-57.5 -45q-20 -20 -31 -52h280zM382 589h-14l-135 174h118l42 -72l69 72h118z" />
    <glyph glyph-name="Gbreve" unicode="&#x11e;" horiz-adv-x="819" 
d="M184 26q-70 40 -103 109t-33 157q0 133 57.5 244t160.5 176t232 65q144 0 221 -68t81 -185h-158q-8 60 -50.5 92t-116.5 32q-82 0 -144.5 -46.5t-96.5 -123.5t-34 -164q0 -92 49 -145.5t144 -53.5q92 0 152.5 46t78.5 135h-169l21 119h312l-73 -415h-132l16 86
q-47 -53 -109.5 -76.5t-130.5 -23.5q-105 0 -175 40zM396 841q-36 33 -36 93q0 9 2 29h80q-3 -38 18 -57.5t58 -19.5t63.5 19.5t38.5 57.5h81q-17 -72 -68 -113.5t-129 -41.5q-72 0 -108 33z" />
    <glyph glyph-name="gbreve" unicode="&#x11f;" horiz-adv-x="644" 
d="M68 -171.5q-64 41.5 -64 141.5h135q7 -41 33.5 -59.5t77.5 -18.5q66 0 103 30t46 82l14 79q-41 -46 -81.5 -64t-92.5 -18q-93 0 -147.5 60t-54.5 158q0 91 39.5 172.5t109 131.5t154.5 50q51 0 85.5 -18.5t59.5 -64.5l12 71h135l-93 -525q-24 -135 -104.5 -192
t-202.5 -57q-100 0 -164 41.5zM383 147q41 30 64 78t23 100q0 59 -32.5 95.5t-86.5 36.5q-50 0 -90.5 -30.5t-63 -79t-22.5 -101.5q0 -58 31 -93.5t85 -35.5q51 0 92 30zM272 639q-36 33 -36 93q0 9 2 29h80q-3 -38 18 -57.5t58 -19.5t63.5 19.5t38.5 57.5h81
q-17 -72 -68 -113.5t-129 -41.5q-72 0 -108 33z" />
    <glyph glyph-name="Gdotaccent" unicode="&#x120;" horiz-adv-x="819" 
d="M184 26q-70 40 -103 109t-33 157q0 133 57.5 244t160.5 176t232 65q144 0 221 -68t81 -185h-158q-8 60 -50.5 92t-116.5 32q-82 0 -144.5 -46.5t-96.5 -123.5t-34 -164q0 -92 49 -145.5t144 -53.5q92 0 152.5 46t78.5 135h-169l21 119h312l-73 -415h-132l16 86
q-47 -53 -109.5 -76.5t-130.5 -23.5q-105 0 -175 40zM452.5 822.5q-19.5 16.5 -19.5 43.5q0 38 29 63.5t67 25.5q30 0 49 -17t19 -44q0 -37 -28.5 -62.5t-66.5 -25.5q-30 0 -49.5 16.5z" />
    <glyph glyph-name="gdotaccent" unicode="&#x121;" horiz-adv-x="644" 
d="M68 -171.5q-64 41.5 -64 141.5h135q7 -41 33.5 -59.5t77.5 -18.5q66 0 103 30t46 82l14 79q-41 -46 -81.5 -64t-92.5 -18q-93 0 -147.5 60t-54.5 158q0 91 39.5 172.5t109 131.5t154.5 50q51 0 85.5 -18.5t59.5 -64.5l12 71h135l-93 -525q-24 -135 -104.5 -192
t-202.5 -57q-100 0 -164 41.5zM383 147q41 30 64 78t23 100q0 59 -32.5 95.5t-86.5 36.5q-50 0 -90.5 -30.5t-63 -79t-22.5 -101.5q0 -58 31 -93.5t85 -35.5q51 0 92 30zM332 640q-20 17 -20 45q0 39 29.5 65.5t68.5 26.5q31 0 50.5 -18t19.5 -46q0 -39 -29 -64.5t-68 -25.5
q-31 0 -51 17z" />
    <glyph glyph-name="uni0122" unicode="&#x122;" horiz-adv-x="819" 
d="M184 26q-70 40 -103 109t-33 157q0 133 57.5 244t160.5 176t232 65q144 0 221 -68t81 -185h-158q-8 60 -50.5 92t-116.5 32q-82 0 -144.5 -46.5t-96.5 -123.5t-34 -164q0 -92 49 -145.5t144 -53.5q92 0 152.5 46t78.5 135h-169l21 119h312l-73 -415h-132l16 86
q-47 -53 -109.5 -76.5t-130.5 -23.5q-105 0 -175 40zM278 -168q30 0 50 9t26 25q4 6 4 13h-9q-7 -16 -32 -16q-17 0 -26.5 9t-9.5 27q0 26 20 43t49 17t44.5 -15t15.5 -41q0 -50 -36.5 -77.5t-101.5 -27.5z" />
    <glyph glyph-name="uni0123" unicode="&#x123;" horiz-adv-x="644" 
d="M68 -171.5q-64 41.5 -64 141.5h135q7 -41 33.5 -59.5t77.5 -18.5q66 0 103 30t46 82l14 79q-41 -46 -81.5 -64t-92.5 -18q-93 0 -147.5 60t-54.5 158q0 91 39.5 172.5t109 131.5t154.5 50q51 0 85.5 -18.5t59.5 -64.5l12 71h135l-93 -525q-24 -135 -104.5 -192
t-202.5 -57q-100 0 -164 41.5zM383 147q41 30 64 78t23 100q0 59 -32.5 95.5t-86.5 36.5q-50 0 -90.5 -30.5t-63 -79t-22.5 -101.5q0 -58 31 -93.5t85 -35.5q51 0 92 30zM346.5 613q-17.5 19 -17.5 52q0 37 18 72t57 59t98 27l-9 -50q-39 -1 -64.5 -17t-34.5 -43
q-3 -10 -3 -21q14 17 42 17q19 0 32 -12t13 -32q0 -30 -23.5 -50.5t-57.5 -20.5q-33 0 -50.5 19z" />
    <glyph glyph-name="Imacron" unicode="&#x12a;" horiz-adv-x="280" 
d="M162 0h-144l135 763h144zM388 837h-300l12 64h299z" />
    <glyph glyph-name="imacron" unicode="&#x12b;" horiz-adv-x="258" 
d="M147 0h-135l99 561h135zM341 635h-300l12 64h299z" />
    <glyph glyph-name="Iogonek" unicode="&#x12e;" horiz-adv-x="280" 
d="M162 0h-144l135 763h144zM-19.5 -195q-25.5 18 -25.5 51q0 47 31 76t92 50l4 18h80q-60 -37 -82.5 -57t-22.5 -44q0 -29 37 -29q19 0 47 11l-14 -83q-36 -11 -72 -11q-49 0 -74.5 18z" />
    <glyph glyph-name="iogonek" unicode="&#x12f;" horiz-adv-x="258" 
d="M147 0h-135l99 561h135zM139 640q-20 17 -20 45q0 39 29.5 65.5t68.5 26.5q31 0 50.5 -18t19.5 -46q0 -39 -29 -64.5t-68 -25.5q-31 0 -51 17zM-35.5 -195q-25.5 18 -25.5 51q0 47 31 76t92 50l4 18h80q-60 -37 -82.5 -57t-22.5 -44q0 -29 37 -29q19 0 47 11l-14 -83
q-36 -11 -72 -11q-49 0 -74.5 18z" />
    <glyph glyph-name="Idotaccent" unicode="&#x130;" horiz-adv-x="280" 
d="M162 0h-144l135 763h144zM182.5 822.5q-19.5 16.5 -19.5 43.5q0 38 29 63.5t67 25.5q30 0 49 -17t19 -44q0 -37 -28.5 -62.5t-66.5 -25.5q-30 0 -49.5 16.5z" />
    <glyph glyph-name="dotlessi" unicode="&#x131;" horiz-adv-x="258" 
d="M147 0h-135l99 561h135z" />
    <glyph glyph-name="uni0136" unicode="&#x136;" horiz-adv-x="670" 
d="M162 0h-144l135 763h144l-58 -329l327 329h179l-372 -371l242 -392h-177l-212 363zM204 -168q30 0 50 9t26 25q4 6 4 13h-9q-7 -16 -32 -16q-17 0 -26.5 9t-9.5 27q0 26 20 43t49 17t44.5 -15t15.5 -41q0 -50 -36.5 -77.5t-101.5 -27.5z" />
    <glyph glyph-name="uni0137" unicode="&#x137;" horiz-adv-x="596" 
d="M147 0h-135l135 763h135l-72 -409l241 207h181l-302 -256l205 -305h-160l-179 279zM162 -168q30 0 50 9t26 25q4 6 4 13h-9q-7 -16 -32 -16q-17 0 -26.5 9t-9.5 27q0 26 20 43t49 17t44.5 -15t15.5 -41q0 -50 -36.5 -77.5t-101.5 -27.5z" />
    <glyph glyph-name="kgreenlandic" unicode="&#x138;" horiz-adv-x="596" 
d="M147 0h-135l99 561h135l-36 -207l241 207h181l-302 -256l205 -305h-160l-179 279z" />
    <glyph glyph-name="Lacute" unicode="&#x139;" horiz-adv-x="546" 
d="M486 0h-468l135 763h144l-112 -634h323zM279 817h-104l141 148h139z" />
    <glyph glyph-name="lacute" unicode="&#x13a;" horiz-adv-x="302" 
d="M140 0q-112 0 -112 89q0 16 3 34l113 640h135l-106 -600q-2 -7 -2 -20q0 -17 9.5 -24t29.5 -7h36l-20 -112h-86zM266 817h-104l141 148h139z" />
    <glyph glyph-name="uni013B" unicode="&#x13b;" horiz-adv-x="546" 
d="M486 0h-468l135 763h144l-112 -634h323zM170 -168q30 0 50 9t26 25q4 6 4 13h-9q-7 -16 -32 -16q-17 0 -26.5 9t-9.5 27q0 26 20 43t49 17t44.5 -15t15.5 -41q0 -50 -36.5 -77.5t-101.5 -27.5z" />
    <glyph glyph-name="uni013C" unicode="&#x13c;" horiz-adv-x="302" 
d="M140 0q-112 0 -112 89q0 16 3 34l113 640h135l-106 -600q-2 -7 -2 -20q0 -17 9.5 -24t29.5 -7h36l-20 -112h-86zM11 -168q30 0 50 9t26 25q4 6 4 13h-9q-7 -16 -32 -16q-17 0 -26.5 9t-9.5 27q0 26 20 43t49 17t44.5 -15t15.5 -41q0 -50 -36.5 -77.5t-101.5 -27.5z" />
    <glyph glyph-name="Lcaron" unicode="&#x13d;" horiz-adv-x="546" 
d="M486 0h-468l135 763h144l-112 -634h323zM407 525q48 2 80.5 24t43.5 60q5 14 6 28q-19 -22 -53 -22q-23 0 -39 16t-16 44q0 43 29.5 71t73.5 28q40 0 61 -25t21 -69q0 -18 -3 -39q-13 -72 -67 -126t-149 -60z" />
    <glyph glyph-name="lcaron" unicode="&#x13e;" horiz-adv-x="302" 
d="M140 0q-112 0 -112 89q0 16 3 34l113 640h135l-106 -600q-2 -7 -2 -20q0 -17 9.5 -24t29.5 -7h36l-20 -112h-86zM315 525q48 2 80.5 24t43.5 60q5 14 6 28q-19 -22 -53 -22q-23 0 -39 16t-16 44q0 43 29.5 71t73.5 28q40 0 61 -25t21 -69q0 -18 -3 -39q-13 -72 -67 -126
t-149 -60z" />
    <glyph glyph-name="Lslash" unicode="&#x141;" horiz-adv-x="584" 
d="M527 0h-468l53 303l-80 -36l19 114l82 38l61 344h144l-48 -270l180 85l-20 -114l-180 -85l-44 -250h323z" />
    <glyph glyph-name="lslash" unicode="&#x142;" horiz-adv-x="302" 
d="M225 456l-52 -293q-2 -7 -2 -20q0 -17 9.5 -24t29.5 -7h36l-20 -112h-86q-112 0 -112 89q0 16 3 34l46 263l-45 -22l17 91l44 21l51 287h135l-38 -217l66 32l-16 -91z" />
    <glyph glyph-name="Nacute" unicode="&#x143;" horiz-adv-x="755" 
d="M162 0h-144l135 763h163l216 -546l97 546h144l-135 -763h-163l-216 547zM517 817h-104l141 148h139z" />
    <glyph glyph-name="nacute" unicode="&#x144;" horiz-adv-x="605" 
d="M12 0l99 561h135l-13 -71q40 45 80 64t87 19q167 0 167 -151q0 -28 -5.5 -60.5t-6.5 -38.5l-57 -323h-135l57 325q6 35 6 58q0 42 -19 60.5t-61 18.5q-68 0 -100.5 -44t-48.5 -132l-50 -286h-135zM406 615h-104l141 148h139z" />
    <glyph glyph-name="uni0145" unicode="&#x145;" horiz-adv-x="755" 
d="M162 0h-144l135 763h163l216 -546l97 546h144l-135 -763h-163l-216 547zM246 -168q30 0 50 9t26 25q4 6 4 13h-9q-7 -16 -32 -16q-17 0 -26.5 9t-9.5 27q0 26 20 43t49 17t44.5 -15t15.5 -41q0 -50 -36.5 -77.5t-101.5 -27.5z" />
    <glyph glyph-name="uni0146" unicode="&#x146;" horiz-adv-x="605" 
d="M12 0l99 561h135l-13 -71q40 45 80 64t87 19q167 0 167 -151q0 -28 -5.5 -60.5t-6.5 -38.5l-57 -323h-135l57 325q6 35 6 58q0 42 -19 60.5t-61 18.5q-68 0 -100.5 -44t-48.5 -132l-50 -286h-135zM171 -168q30 0 50 9t26 25q4 6 4 13h-9q-7 -16 -32 -16q-17 0 -26.5 9
t-9.5 27q0 26 20 43t49 17t44.5 -15t15.5 -41q0 -50 -36.5 -77.5t-101.5 -27.5z" />
    <glyph glyph-name="Ncaron" unicode="&#x147;" horiz-adv-x="755" 
d="M162 0h-144l135 763h163l216 -546l97 546h144l-135 -763h-163l-216 547zM474 791h-14l-135 174h118l42 -72l69 72h118z" />
    <glyph glyph-name="ncaron" unicode="&#x148;" horiz-adv-x="605" 
d="M12 0l99 561h135l-13 -71q40 45 80 64t87 19q167 0 167 -151q0 -28 -5.5 -60.5t-6.5 -38.5l-57 -323h-135l57 325q6 35 6 58q0 42 -19 60.5t-61 18.5q-68 0 -100.5 -44t-48.5 -132l-50 -286h-135zM364 589h-14l-135 174h118l42 -72l69 72h118z" />
    <glyph glyph-name="Omacron" unicode="&#x14c;" horiz-adv-x="820" 
d="M184 25.5q-69 39.5 -102 108.5t-33 157q0 133 57 244.5t159.5 176.5t231.5 65q104 0 173 -39.5t102.5 -108t33.5 -156.5q0 -134 -57.5 -245.5t-160 -176.5t-231.5 -65q-104 0 -173 39.5zM524.5 162q62.5 47 96 125t33.5 166q0 90 -46.5 142t-133.5 52q-82 0 -144.5 -47
t-96 -124t-33.5 -165q0 -91 47 -143.5t133 -52.5q82 0 144.5 47zM657 837h-300l12 64h299z" />
    <glyph glyph-name="omacron" unicode="&#x14d;" horiz-adv-x="652" 
d="M145.5 17.5q-54.5 28.5 -83.5 80.5t-29 122q0 96 45 177t124 128.5t175 47.5q74 0 128.5 -28.5t83.5 -80.5t29 -121q0 -95 -45.5 -176.5t-124.5 -129.5t-174 -48q-74 0 -128.5 28.5zM388 136.5q42 31.5 65.5 82t23.5 105.5q0 60 -32.5 96.5t-88.5 36.5q-52 0 -94 -30.5
t-65.5 -80.5t-23.5 -106q0 -62 33 -98.5t88 -36.5q52 0 94 31.5zM538 635h-300l12 64h299z" />
    <glyph glyph-name="Ohungarumlaut" unicode="&#x150;" horiz-adv-x="820" 
d="M184 25.5q-69 39.5 -102 108.5t-33 157q0 133 57 244.5t159.5 176.5t231.5 65q104 0 173 -39.5t102.5 -108t33.5 -156.5q0 -134 -57.5 -245.5t-160 -176.5t-231.5 -65q-104 0 -173 39.5zM524.5 162q62.5 47 96 125t33.5 166q0 90 -46.5 142t-133.5 52q-82 0 -144.5 -47
t-96 -124t-33.5 -165q0 -91 47 -143.5t133 -52.5q82 0 144.5 47zM457 817h-104l143 148h126zM656 817h-104l143 148h136z" />
    <glyph glyph-name="ohungarumlaut" unicode="&#x151;" horiz-adv-x="652" 
d="M145.5 17.5q-54.5 28.5 -83.5 80.5t-29 122q0 96 45 177t124 128.5t175 47.5q74 0 128.5 -28.5t83.5 -80.5t29 -121q0 -95 -45.5 -176.5t-124.5 -129.5t-174 -48q-74 0 -128.5 28.5zM388 136.5q42 31.5 65.5 82t23.5 105.5q0 60 -32.5 96.5t-88.5 36.5q-52 0 -94 -30.5
t-65.5 -80.5t-23.5 -106q0 -62 33 -98.5t88 -36.5q52 0 94 31.5zM337 615h-104l143 148h126zM536 615h-104l143 148h136z" />
    <glyph glyph-name="OE" unicode="&#x152;" horiz-adv-x="1185" 
d="M180.5 25.5q-66.5 39.5 -99 108t-32.5 156.5q0 132 56 243.5t156 177.5t226 66q72 0 127 -26.5t87 -75.5l16 88h510l-24 -129h-365l-33 -188h327l-23 -128h-327l-33 -189h366l-23 -129h-510l16 86q-103 -100 -251 -100q-100 0 -166.5 39.5zM524.5 162q62.5 47 96 125
t33.5 166q0 90 -46.5 142t-133.5 52q-82 0 -144.5 -47t-96 -124t-33.5 -165q0 -91 47 -143.5t133 -52.5q82 0 144.5 47z" />
    <glyph glyph-name="oe" unicode="&#x153;" horiz-adv-x="1079" 
d="M929.5 549q53.5 -24 85.5 -74.5t32 -124.5q0 -32 -6 -68l-5 -29h-425q-1 -17 2 -36t8 -30q13 -39 42.5 -60.5t72.5 -21.5q46 0 83 23.5t59 60.5h137q-42 -89 -120 -144.5t-185 -55.5q-68 0 -119 24.5t-82 69.5q-47 -45 -107 -69.5t-128 -24.5q-74 0 -128.5 28.5
t-83.5 80.5t-29 122q0 96 45 177t124 128.5t175 47.5q69 0 121 -24.5t82 -69.5q46 45 105 69.5t125 24.5t119.5 -24zM915 354q0 36 -11 52q-15 29 -43.5 44.5t-65.5 15.5q-78 0 -129 -60q-20 -20 -31 -52h280zM388 136.5q42 31.5 65.5 82t23.5 105.5q0 60 -32.5 96.5
t-88.5 36.5q-52 0 -94 -30.5t-65.5 -80.5t-23.5 -106q0 -62 33 -98.5t88 -36.5q52 0 94 31.5z" />
    <glyph glyph-name="Racute" unicode="&#x154;" horiz-adv-x="689" 
d="M646 434q-43 -70 -118 -103l79 -331h-145l-72 305h-174l-54 -305h-144l135 763h330q97 0 151.5 -41.5t54.5 -127.5q0 -90 -43 -160zM394 431q65 0 107 34t42 90q0 38 -27 58.5t-77 20.5h-165l-36 -203h156zM473 817h-104l141 148h139z" />
    <glyph glyph-name="racute" unicode="&#x155;" horiz-adv-x="391" 
d="M12 0l99 561h135l-12 -67q38 43 79.5 61t93.5 18h17l-23 -130h-31q-64 0 -106 -34q-27 -23 -44 -58.5t-27 -90.5l-46 -260h-135zM288 615h-104l141 148h139z" />
    <glyph glyph-name="uni0156" unicode="&#x156;" horiz-adv-x="689" 
d="M646 434q-43 -70 -118 -103l79 -331h-145l-72 305h-174l-54 -305h-144l135 763h330q97 0 151.5 -41.5t54.5 -127.5q0 -90 -43 -160zM394 431q65 0 107 34t42 90q0 38 -27 58.5t-77 20.5h-165l-36 -203h156zM226 -168q30 0 50 9t26 25q4 6 4 13h-9q-7 -16 -32 -16
q-17 0 -26.5 9t-9.5 27q0 26 20 43t49 17t44.5 -15t15.5 -41q0 -50 -36.5 -77.5t-101.5 -27.5z" />
    <glyph glyph-name="uni0157" unicode="&#x157;" horiz-adv-x="391" 
d="M12 0l99 561h135l-12 -67q38 43 79.5 61t93.5 18h17l-23 -130h-31q-64 0 -106 -34q-27 -23 -44 -58.5t-27 -90.5l-46 -260h-135zM-3 -168q30 0 50 9t26 25q4 6 4 13h-9q-7 -16 -32 -16q-17 0 -26.5 9t-9.5 27q0 26 20 43t49 17t44.5 -15t15.5 -41q0 -50 -36.5 -77.5
t-101.5 -27.5z" />
    <glyph glyph-name="Rcaron" unicode="&#x158;" horiz-adv-x="689" 
d="M646 434q-43 -70 -118 -103l79 -331h-145l-72 305h-174l-54 -305h-144l135 763h330q97 0 151.5 -41.5t54.5 -127.5q0 -90 -43 -160zM394 431q65 0 107 34t42 90q0 38 -27 58.5t-77 20.5h-165l-36 -203h156zM430 791h-14l-135 174h118l42 -72l69 72h118z" />
    <glyph glyph-name="rcaron" unicode="&#x159;" horiz-adv-x="391" 
d="M12 0l99 561h135l-12 -67q38 43 79.5 61t93.5 18h17l-23 -130h-31q-64 0 -106 -34q-27 -23 -44 -58.5t-27 -90.5l-46 -260h-135zM245 589h-14l-135 174h118l42 -72l69 72h118z" />
    <glyph glyph-name="Sacute" unicode="&#x15a;" horiz-adv-x="696" 
d="M106.5 50.5q-76.5 64.5 -76.5 197.5h148q4 -75 49.5 -107t113.5 -32q70 0 115 32.5t45 89.5q0 30 -22 49.5t-55.5 30.5t-87.5 22q-73 16 -119.5 33t-79.5 52t-33 94q0 79 42 139.5t113.5 93t157.5 32.5q117 0 190.5 -61t73.5 -180h-146q-4 59 -42.5 88.5t-99.5 29.5
q-59 0 -100 -27t-41 -76q0 -28 20.5 -45.5t51.5 -27.5t85 -22q75 -17 123.5 -35t83 -55.5t34.5 -100.5q0 -84 -43.5 -147.5t-119 -97.5t-169.5 -34q-135 0 -211.5 64.5zM487 817h-104l141 148h139z" />
    <glyph glyph-name="sacute" unicode="&#x15b;" horiz-adv-x="576" 
d="M83 37q-64 48 -64 152h133q5 -45 36 -69.5t82 -24.5q47 0 79 20t32 54q0 28 -30 42t-90 26q-57 11 -94 24t-63.5 40.5t-26.5 73.5q0 61 33.5 106t90.5 68.5t125 23.5q99 0 155.5 -50t56.5 -141h-127q-4 44 -32 64.5t-72 20.5t-71 -18t-27 -47q0 -26 29.5 -39t88.5 -23
q58 -11 97 -23.5t66.5 -40.5t27.5 -75q0 -64 -35.5 -112t-96 -74t-134.5 -26q-105 0 -169 48zM391 615h-104l141 148h139z" />
    <glyph glyph-name="Scedilla" unicode="&#x15e;" horiz-adv-x="696" 
d="M532.5 421q48.5 -18 83 -55.5t34.5 -100.5q0 -84 -43 -147.5t-118.5 -97t-169.5 -34.5q-15 -12 -38 -25l5 -9q22 2 27 2q35 0 57.5 -15.5t22.5 -44.5q0 -51 -43 -79t-106 -28q-47 0 -92 14l9 52q46 -19 84 -19q30 0 47.5 13t17.5 37q0 27 -32.5 36.5t-92.5 8.5l64 62
q-103 15 -161 79t-58 178h148q4 -75 49.5 -107t113.5 -32q70 0 115 32.5t45 89.5q0 30 -22 49.5t-55.5 30.5t-87.5 22q-73 16 -119.5 33t-79.5 52t-33 94q0 79 42 139.5t113.5 93t157.5 32.5q117 0 190.5 -61t73.5 -180h-146q-4 59 -42.5 88.5t-99.5 29.5q-59 0 -100 -27
t-41 -76q0 -28 20.5 -45.5t51.5 -27.5t85 -22q75 -17 123.5 -35z" />
    <glyph glyph-name="scedilla" unicode="&#x15f;" horiz-adv-x="576" 
d="M424 316.5q39 -12.5 66.5 -40.5t27.5 -75q0 -63 -34 -110t-92 -73.5t-129 -28.5q-5 -3 -17.5 -12t-25.5 -16l5 -9q22 2 27 2q35 0 57.5 -15.5t22.5 -44.5q0 -51 -43 -79t-106 -28q-47 0 -92 14l9 52q46 -19 84 -19q30 0 47.5 13t17.5 37q0 27 -32.5 36.5t-92.5 8.5l67 65
q-79 12 -125.5 59.5t-46.5 135.5h133q5 -45 36 -69.5t82 -24.5q47 0 79 20t32 54q0 28 -30 42t-90 26q-57 11 -94 24t-63.5 40.5t-26.5 73.5q0 61 33.5 106t90.5 68.5t125 23.5q99 0 155.5 -50t56.5 -141h-127q-4 44 -32 64.5t-72 20.5t-71 -18t-27 -47q0 -26 29.5 -39
t88.5 -23q58 -11 97 -23.5z" />
    <glyph glyph-name="Scaron" unicode="&#x160;" horiz-adv-x="696" 
d="M106.5 50.5q-76.5 64.5 -76.5 197.5h148q4 -75 49.5 -107t113.5 -32q70 0 115 32.5t45 89.5q0 30 -22 49.5t-55.5 30.5t-87.5 22q-73 16 -119.5 33t-79.5 52t-33 94q0 79 42 139.5t113.5 93t157.5 32.5q117 0 190.5 -61t73.5 -180h-146q-4 59 -42.5 88.5t-99.5 29.5
q-59 0 -100 -27t-41 -76q0 -28 20.5 -45.5t51.5 -27.5t85 -22q75 -17 123.5 -35t83 -55.5t34.5 -100.5q0 -84 -43.5 -147.5t-119 -97.5t-169.5 -34q-135 0 -211.5 64.5zM445 791h-14l-135 174h118l42 -72l69 72h118z" />
    <glyph glyph-name="scaron" unicode="&#x161;" horiz-adv-x="576" 
d="M83 37q-64 48 -64 152h133q5 -45 36 -69.5t82 -24.5q47 0 79 20t32 54q0 28 -30 42t-90 26q-57 11 -94 24t-63.5 40.5t-26.5 73.5q0 61 33.5 106t90.5 68.5t125 23.5q99 0 155.5 -50t56.5 -141h-127q-4 44 -32 64.5t-72 20.5t-71 -18t-27 -47q0 -26 29.5 -39t88.5 -23
q58 -11 97 -23.5t66.5 -40.5t27.5 -75q0 -64 -35.5 -112t-96 -74t-134.5 -26q-105 0 -169 48zM348 589h-14l-135 174h118l42 -72l69 72h118z" />
    <glyph glyph-name="uni0162" unicode="&#x162;" horiz-adv-x="630" 
d="M96 763h609l-24 -129h-232l-112 -634h-32q-29 -23 -57 -39l5 -9q22 2 27 2q35 0 57.5 -15.5t22.5 -44.5q0 -51 -43 -79t-106 -28q-47 0 -92 14l9 52q46 -19 84 -19q30 0 47.5 13t17.5 37q0 27 -32.5 36.5t-92.5 8.5l73 71h-32l112 634h-233z" />
    <glyph glyph-name="uni0163" unicode="&#x163;" horiz-adv-x="383" 
d="M271 453l-51 -289q-2 -7 -2 -21q0 -15 8.5 -23t30.5 -8h61l-20 -112h-90q-29 -23 -57 -39l5 -9q22 2 27 2q35 0 57.5 -15.5t22.5 -44.5q0 -51 -43 -79t-106 -28q-47 0 -92 14l9 52q46 -19 84 -19q30 0 47.5 13t17.5 37q0 27 -32.5 36.5t-92.5 8.5l80 77q-60 18 -60 83
q0 16 3 34l58 330h-82l19 108h82l36 202h135l-36 -202h109l-19 -108h-109z" />
    <glyph glyph-name="Tcaron" unicode="&#x164;" horiz-adv-x="630" 
d="M337 0h-144l112 634h-233l24 129h609l-24 -129h-232zM412 791h-14l-135 174h118l42 -72l69 72h118z" />
    <glyph glyph-name="tcaron" unicode="&#x165;" horiz-adv-x="383" 
d="M187 0q-112 0 -112 89q0 16 3 34l58 330h-82l19 108h82l36 202h135l-36 -202h109l-19 -108h-109l-51 -289q-2 -7 -2 -21q0 -15 8.5 -23t30.5 -8h61l-20 -112h-111zM378 693q48 2 80.5 24t43.5 60q5 14 6 28q-19 -22 -53 -22q-23 0 -39 16t-16 44q0 43 29.5 71t73.5 28
q40 0 61 -25t21 -69q0 -18 -3 -39q-13 -72 -67 -126t-149 -60z" />
    <glyph glyph-name="Umacron" unicode="&#x16a;" horiz-adv-x="737" 
d="M116.5 43.5q-64.5 57.5 -64.5 160.5q0 28 7 73l86 486h145l-86 -486q-4 -32 -4 -46q0 -56 32.5 -86t106.5 -30q87 0 132.5 42.5t58.5 119.5l86 486h145l-86 -486q-24 -136 -113 -213.5t-246 -77.5q-135 0 -199.5 57.5zM616 837h-300l12 64h299z" />
    <glyph glyph-name="umacron" unicode="&#x16b;" horiz-adv-x="606" 
d="M47 82q-8 23 -8 55q0 34 12 101l57 323h135l-58 -324q-6 -36 -6 -59q0 -33 13 -53q19 -25 68 -25q57 0 91 34q21 20 34 53t24 89l50 285h135l-99 -561h-135l12 71q-38 -43 -77.5 -62.5t-89.5 -19.5q-129 0 -158 93zM515 635h-300l12 64h299z" />
    <glyph glyph-name="Uring" unicode="&#x16e;" horiz-adv-x="737" 
d="M116.5 43.5q-64.5 57.5 -64.5 160.5q0 28 7 73l86 486h145l-86 -486q-4 -32 -4 -46q0 -56 32.5 -86t106.5 -30q87 0 132.5 42.5t58.5 119.5l86 486h145l-86 -486q-24 -136 -113 -213.5t-246 -77.5q-135 0 -199.5 57.5zM378.5 804.5q-29.5 30.5 -29.5 75.5q0 39 21.5 73.5
t56.5 55t73 20.5q47 0 77.5 -30t30.5 -76q0 -39 -21.5 -73t-56.5 -55t-74 -21q-48 0 -77.5 30.5zM513.5 868.5q18.5 19.5 18.5 44.5q0 18 -12 29.5t-33 11.5q-26 0 -43.5 -18.5t-17.5 -43.5q0 -19 12 -31t31 -12q26 0 44.5 19.5z" />
    <glyph glyph-name="uring" unicode="&#x16f;" horiz-adv-x="606" 
d="M47 82q-8 23 -8 55q0 34 12 101l57 323h135l-58 -324q-6 -36 -6 -59q0 -33 13 -53q19 -25 68 -25q57 0 91 34q21 20 34 53t24 89l50 285h135l-99 -561h-135l12 71q-38 -43 -77.5 -62.5t-89.5 -19.5q-129 0 -158 93zM276.5 603.5q-29.5 30.5 -29.5 75.5q0 39 21.5 73.5
t56.5 55t73 20.5q47 0 77.5 -30t30.5 -76q0 -39 -21.5 -73t-56.5 -55t-74 -21q-48 0 -77.5 30.5zM411.5 667.5q18.5 19.5 18.5 44.5q0 18 -12 29.5t-33 11.5q-26 0 -43.5 -18.5t-17.5 -43.5q0 -19 12 -31t31 -12q26 0 44.5 19.5z" />
    <glyph glyph-name="Uhungarumlaut" unicode="&#x170;" horiz-adv-x="737" 
d="M116.5 43.5q-64.5 57.5 -64.5 160.5q0 28 7 73l86 486h145l-86 -486q-4 -32 -4 -46q0 -56 32.5 -86t106.5 -30q87 0 132.5 42.5t58.5 119.5l86 486h145l-86 -486q-24 -136 -113 -213.5t-246 -77.5q-135 0 -199.5 57.5zM416 817h-104l143 148h126zM615 817h-104l143 148
h136z" />
    <glyph glyph-name="uhungarumlaut" unicode="&#x171;" horiz-adv-x="606" 
d="M47 82q-8 23 -8 55q0 34 12 101l57 323h135l-58 -324q-6 -36 -6 -59q0 -33 13 -53q19 -25 68 -25q57 0 91 34q21 20 34 53t24 89l50 285h135l-99 -561h-135l12 71q-38 -43 -77.5 -62.5t-89.5 -19.5q-129 0 -158 93zM314 615h-104l143 148h126zM513 615h-104l143 148h136z
" />
    <glyph glyph-name="Uogonek" unicode="&#x172;" horiz-adv-x="737" 
d="M616 763h145l-86 -486q-20 -113 -85 -186.5t-177 -95.5q-55 -34 -76 -53t-21 -43q0 -29 37 -29q19 0 47 11l-14 -83q-36 -11 -72 -11q-49 0 -74.5 18t-25.5 51q0 47 31 76t92 50l1 4h-22q-135 0 -199.5 57.5t-64.5 160.5q0 28 7 73l86 486h145l-86 -486q-4 -32 -4 -46
q0 -56 32.5 -86t106.5 -30q87 0 132.5 42.5t58.5 119.5z" />
    <glyph glyph-name="uogonek" unicode="&#x173;" horiz-adv-x="606" 
d="M459 561h135l-99 -561h-1q-60 -37 -82.5 -57t-22.5 -44q0 -29 37 -29q19 0 47 11l-14 -83q-36 -11 -72 -11q-49 0 -74.5 18t-25.5 51q0 47 31 76t92 50l4 18h-54l12 71q-38 -43 -77.5 -62.5t-89.5 -19.5q-129 0 -158 93q-8 23 -8 55q0 34 12 101l57 323h135l-58 -324
q-6 -36 -6 -59q0 -33 13 -53q19 -25 68 -25q57 0 91 34q21 20 34 53t24 89z" />
    <glyph glyph-name="Wcircumflex" unicode="&#x174;" horiz-adv-x="1112" 
d="M368 0h-203l-65 763h145l46 -633l253 633h183l30 -634l269 634h157l-334 -763h-204l-30 615zM596 820h-118l197 175h14l136 -175h-118l-42 73z" />
    <glyph glyph-name="wcircumflex" unicode="&#x175;" horiz-adv-x="844" 
d="M264 0h-127l-72 561h140l32 -364l170 364h118l43 -362l162 362h148l-274 -561h-127l-38 378zM425 618h-118l197 175h14l136 -175h-118l-42 73z" />
    <glyph glyph-name="Ycircumflex" unicode="&#x176;" horiz-adv-x="700" 
d="M377 0h-152l53 299l-196 464h157l127 -324l243 324h180l-360 -464zM389 820h-118l197 175h14l136 -175h-118l-42 73z" />
    <glyph glyph-name="ycircumflex" unicode="&#x177;" horiz-adv-x="565" 
d="M-16 -202l21 114h62q28 0 44.5 8.5t34.5 37.5l23 40l-108 563h141l58 -412l191 412h150l-329 -627q-39 -75 -82 -105.5t-112 -30.5h-94zM283 618h-118l197 175h14l136 -175h-118l-42 73z" />
    <glyph glyph-name="Ydieresis" unicode="&#x178;" horiz-adv-x="700" 
d="M377 0h-152l53 299l-196 464h157l127 -324l243 324h180l-360 -464zM285.5 822.5q-19.5 16.5 -19.5 43.5q0 38 29 63.5t67 25.5q30 0 49 -17t19 -44q0 -37 -28.5 -62.5t-66.5 -25.5q-30 0 -49.5 16.5zM497 822.5q-19 16.5 -19 43.5q0 38 28.5 63.5t66.5 25.5
q30 0 49 -16.5t19 -44.5q0 -37 -28 -62.5t-67 -25.5q-30 0 -49 16.5z" />
    <glyph glyph-name="Zacute" unicode="&#x179;" horiz-adv-x="628" 
d="M547 0h-569l17 99l468 535h-352l24 129h546l-19 -104l-462 -530h369zM455 817h-104l141 148h139z" />
    <glyph glyph-name="zacute" unicode="&#x17a;" horiz-adv-x="555" 
d="M470 0h-489l16 89l383 363h-301l19 109h472l-17 -97l-372 -355h308zM383 615h-104l141 148h139z" />
    <glyph glyph-name="Zdotaccent" unicode="&#x17b;" horiz-adv-x="628" 
d="M547 0h-569l17 99l468 535h-352l24 129h546l-19 -104l-462 -530h369zM358.5 822.5q-19.5 16.5 -19.5 43.5q0 38 29 63.5t67 25.5q30 0 49 -17t19 -44q0 -37 -28.5 -62.5t-66.5 -25.5q-30 0 -49.5 16.5z" />
    <glyph glyph-name="zdotaccent" unicode="&#x17c;" horiz-adv-x="555" 
d="M470 0h-489l16 89l383 363h-301l19 109h472l-17 -97l-372 -355h308zM289 640q-20 17 -20 45q0 39 29.5 65.5t68.5 26.5q31 0 50.5 -18t19.5 -46q0 -39 -29 -64.5t-68 -25.5q-31 0 -51 17z" />
    <glyph glyph-name="Zcaron" unicode="&#x17d;" horiz-adv-x="628" 
d="M547 0h-569l17 99l468 535h-352l24 129h546l-19 -104l-462 -530h369zM412 791h-14l-135 174h118l42 -72l69 72h118z" />
    <glyph glyph-name="zcaron" unicode="&#x17e;" horiz-adv-x="555" 
d="M470 0h-489l16 89l383 363h-301l19 109h472l-17 -97l-372 -355h308zM340 589h-14l-135 174h118l42 -72l69 72h118z" />
    <glyph glyph-name="florin" unicode="&#x192;" horiz-adv-x="449" 
d="M-27 -202l19 109h53q25 0 39.5 13t20.5 43l86 487h-103l20 111h102l11 62q12 69 56 104.5t116 35.5h88l-19 -108h-56q-25 0 -39 -11.5t-20 -41.5l-7 -41h105l-20 -111h-104l-91 -512q-12 -68 -56.5 -104t-117.5 -36h-83z" />
    <glyph glyph-name="AEacute" unicode="&#x1fc;" horiz-adv-x="1046" 
d="M116 0h-159l404 763h494l22 -129h-334l33 -188h335l22 -128h-334l33 -189h335l22 -129h-481l-22 157h-291zM420 607l-162 -324h210zM662 817h-104l141 148h139z" />
    <glyph glyph-name="aeacute" unicode="&#x1fd;" horiz-adv-x="1007" 
d="M539 253v-14q0 -61 33 -97.5t92 -36.5q46 0 83 23.5t59 60.5h137q-42 -89 -120 -144.5t-185 -55.5q-74 0 -128 29t-82 81q-49 -64 -112 -87t-133 -23q-80 0 -124.5 34t-44.5 97q0 91 60.5 140.5t168.5 69.5l173 31q2 16 2 25q0 34 -16 54q-21 27 -70 27q-39 0 -72.5 -23
t-47.5 -62h-134q31 93 107.5 142t166.5 49q50 0 92 -14.5t68 -42.5q8 -8 15 -20q93 77 211 77q66 0 119.5 -24t85.5 -74.5t32 -124.5q0 -19 -3 -43t-8 -54h-425zM563 354h280q0 24 -10 40q-9 34 -39 53t-71 19q-78 0 -129 -60q-20 -20 -31 -52zM366.5 167.5
q22.5 35.5 33.5 94.5l-138 -27q-53 -10 -82 -30t-29 -58q0 -25 20 -38.5t52 -13.5q40 0 75 16q46 21 68.5 56.5zM607 615h-104l141 148h139z" />
    <glyph glyph-name="Oslashacute" unicode="&#x1fe;" horiz-adv-x="820" 
d="M844 687l-70 -60q32 -65 32 -154q0 -134 -57.5 -245.5t-160 -176.5t-231.5 -65q-154 0 -234 88l-65 -55l-49 58l71 61q-31 65 -31 153q0 133 57 244.5t159.5 176.5t231.5 65q152 0 234 -87l64 55zM207 246l405 344q-47 57 -138 57q-82 0 -144.5 -47t-96 -124t-33.5 -165
q0 -37 7 -65zM646 519l-405 -345q48 -59 139 -59q82 0 144.5 47t96 125t33.5 166q0 34 -8 66zM548 817h-104l141 148h139z" />
    <glyph glyph-name="oslashacute" unicode="&#x1ff;" horiz-adv-x="652" 
d="M655 511l-63 -53q26 -50 26 -115q0 -95 -45.5 -176.5t-124.5 -129.5t-174 -48q-51 0 -94 14t-74 41l-61 -52l-49 58l63 54q-26 50 -26 116q0 96 45 177t124 128.5t175 47.5q104 0 168 -56l61 52zM176 204l263 223q-33 30 -83 30q-52 0 -94 -30.5t-65.5 -80.5t-23.5 -106
q0 -19 3 -36zM474 357l-261 -222q32 -30 81 -30q52 0 94 31.5t65.5 82t23.5 105.5q0 18 -3 33zM429 615h-104l141 148h139z" />
    <glyph glyph-name="uni0218" unicode="&#x218;" horiz-adv-x="696" 
d="M106.5 50.5q-76.5 64.5 -76.5 197.5h148q4 -75 49.5 -107t113.5 -32q70 0 115 32.5t45 89.5q0 30 -22 49.5t-55.5 30.5t-87.5 22q-73 16 -119.5 33t-79.5 52t-33 94q0 79 42 139.5t113.5 93t157.5 32.5q117 0 190.5 -61t73.5 -180h-146q-4 59 -42.5 88.5t-99.5 29.5
q-59 0 -100 -27t-41 -76q0 -28 20.5 -45.5t51.5 -27.5t85 -22q75 -17 123.5 -35t83 -55.5t34.5 -100.5q0 -84 -43.5 -147.5t-119 -97.5t-169.5 -34q-135 0 -211.5 64.5zM216 -168q30 0 50 9t26 25q4 6 4 13h-9q-7 -16 -32 -16q-17 0 -26.5 9t-9.5 27q0 26 20 43t49 17
t44.5 -15t15.5 -41q0 -50 -36.5 -77.5t-101.5 -27.5z" />
    <glyph glyph-name="uni0219" unicode="&#x219;" horiz-adv-x="576" 
d="M83 37q-64 48 -64 152h133q5 -45 36 -69.5t82 -24.5q47 0 79 20t32 54q0 28 -30 42t-90 26q-57 11 -94 24t-63.5 40.5t-26.5 73.5q0 61 33.5 106t90.5 68.5t125 23.5q99 0 155.5 -50t56.5 -141h-127q-4 44 -32 64.5t-72 20.5t-71 -18t-27 -47q0 -26 29.5 -39t88.5 -23
q58 -11 97 -23.5t66.5 -40.5t27.5 -75q0 -64 -35.5 -112t-96 -74t-134.5 -26q-105 0 -169 48zM156 -168q30 0 50 9t26 25q4 6 4 13h-9q-7 -16 -32 -16q-17 0 -26.5 9t-9.5 27q0 26 20 43t49 17t44.5 -15t15.5 -41q0 -50 -36.5 -77.5t-101.5 -27.5z" />
    <glyph glyph-name="uni021A" unicode="&#x21a;" horiz-adv-x="630" 
d="M337 0h-144l112 634h-233l24 129h609l-24 -129h-232zM184 -168q30 0 50 9t26 25q4 6 4 13h-9q-7 -16 -32 -16q-17 0 -26.5 9t-9.5 27q0 26 20 43t49 17t44.5 -15t15.5 -41q0 -50 -36.5 -77.5t-101.5 -27.5z" />
    <glyph glyph-name="uni021B" unicode="&#x21b;" horiz-adv-x="383" 
d="M187 0q-112 0 -112 89q0 16 3 34l58 330h-82l19 108h82l36 202h135l-36 -202h109l-19 -108h-109l-51 -289q-2 -7 -2 -21q0 -15 8.5 -23t30.5 -8h61l-20 -112h-111zM87 -168q30 0 50 9t26 25q4 6 4 13h-9q-7 -16 -32 -16q-17 0 -26.5 9t-9.5 27q0 26 20 43t49 17t44.5 -15
t15.5 -41q0 -50 -36.5 -77.5t-101.5 -27.5z" />
    <glyph glyph-name="uni0237" unicode="&#x237;" horiz-adv-x="258" 
d="M-128 -202l20 114h52q24 0 40.5 11.5t22.5 42.5l104 595h135l-111 -634q-11 -62 -52.5 -95.5t-106.5 -33.5h-104z" />
    <glyph glyph-name="circumflex" unicode="&#x2c6;" horiz-adv-x="360" 
d="M184 618h-118l197 175h14l136 -175h-118l-42 73z" />
    <glyph glyph-name="caron" unicode="&#x2c7;" horiz-adv-x="360" 
d="M241 589h-14l-135 174h118l42 -72l69 72h118z" />
    <glyph glyph-name="breve" unicode="&#x2d8;" horiz-adv-x="352" 
d="M126 641q-36 33 -36 93q0 9 2 29h80q-3 -38 18 -57.5t58 -19.5t63.5 19.5t38.5 57.5h81q-17 -72 -68 -113.5t-129 -41.5q-72 0 -108 33z" />
    <glyph glyph-name="dotaccent" unicode="&#x2d9;" horiz-adv-x="180" 
d="M99 640q-20 17 -20 45q0 39 29.5 65.5t68.5 26.5q31 0 50.5 -18t19.5 -46q0 -39 -29 -64.5t-68 -25.5q-31 0 -51 17z" />
    <glyph glyph-name="ring" unicode="&#x2da;" horiz-adv-x="269" 
d="M109.5 605.5q-29.5 30.5 -29.5 75.5q0 39 21.5 73.5t56.5 55t73 20.5q47 0 77.5 -30t30.5 -76q0 -39 -21.5 -73t-56.5 -55t-74 -21q-48 0 -77.5 30.5zM244.5 669.5q18.5 19.5 18.5 44.5q0 18 -12 29.5t-33 11.5q-26 0 -43.5 -18.5t-17.5 -43.5q0 -19 12 -31t31 -12
q26 0 44.5 19.5z" />
    <glyph glyph-name="ogonek" unicode="&#x2db;" horiz-adv-x="198" 
d="M-40.5 -195q-25.5 18 -25.5 51q0 47 31 76t92 50l4 18h80q-60 -37 -82.5 -57t-22.5 -44q0 -29 37 -29q19 0 47 11l-14 -83q-36 -11 -72 -11q-49 0 -74.5 18z" />
    <glyph glyph-name="tilde" unicode="&#x2dc;" horiz-adv-x="380" 
d="M263 619q-19 13 -37 35q-10 13 -18 19.5t-17 6.5q-30 0 -46 -72h-81q17 74 56 116.5t92 42.5q30 0 48 -12.5t37 -35.5q12 -14 19.5 -20t16.5 -6q12 0 23.5 17.5t19.5 52.5h83q-19 -80 -53 -118.5t-90 -38.5q-34 0 -53 13z" />
    <glyph glyph-name="hungarumlaut" unicode="&#x2dd;" horiz-adv-x="466" 
d="M170 615h-104l143 148h126zM369 615h-104l143 148h136z" />
    <glyph glyph-name="gravecomb" unicode="&#x300;" 
d="M52 615h-104l-124 148h139z" />
    <glyph glyph-name="acutecomb" unicode="&#x301;" 
d="M-98 615h-104l141 148h139z" />
    <glyph glyph-name="uni0302" unicode="&#x302;" 
d="M-176 618h-118l197 175h14l136 -175h-118l-42 73z" />
    <glyph glyph-name="tildecomb" unicode="&#x303;" 
d="M-117 619q-19 13 -37 35q-10 13 -18 19.5t-17 6.5q-30 0 -46 -72h-81q17 74 56 116.5t92 42.5q30 0 48 -12.5t37 -35.5q12 -14 19.5 -20t16.5 -6q12 0 23.5 17.5t19.5 52.5h83q-19 -80 -53 -118.5t-90 -38.5q-34 0 -53 13z" />
    <glyph glyph-name="uni0304" unicode="&#x304;" 
d="M56 635h-300l12 64h299z" />
    <glyph glyph-name="uni0306" unicode="&#x306;" 
d="M-226 641q-36 33 -36 93q0 9 2 29h80q-3 -38 18 -57.5t58 -19.5t63.5 19.5t38.5 57.5h81q-17 -72 -68 -113.5t-129 -41.5q-72 0 -108 33z" />
    <glyph glyph-name="uni0307" unicode="&#x307;" 
d="M-81 640q-20 17 -20 45q0 39 29.5 65.5t68.5 26.5q31 0 50.5 -18t19.5 -46q0 -39 -29 -64.5t-68 -25.5q-31 0 -51 17z" />
    <glyph glyph-name="uni0308" unicode="&#x308;" 
d="M-292 640q-20 17 -20 45q0 39 29.5 65.5t68.5 26.5q31 0 50.5 -18t19.5 -46q0 -39 -29 -64.5t-68 -25.5q-31 0 -51 17zM-80.5 640q-19.5 17 -19.5 45q0 39 29 65.5t68 26.5q31 0 51 -18t20 -46q0 -39 -29 -64.5t-69 -25.5q-31 0 -50.5 17z" />
    <glyph glyph-name="uni030A" unicode="&#x30a;" 
d="M-159.5 605.5q-29.5 30.5 -29.5 75.5q0 39 21.5 73.5t56.5 55t73 20.5q47 0 77.5 -30t30.5 -76q0 -39 -21.5 -73t-56.5 -55t-74 -21q-48 0 -77.5 30.5zM-24.5 669.5q18.5 19.5 18.5 44.5q0 18 -12 29.5t-33 11.5q-26 0 -43.5 -18.5t-17.5 -43.5q0 -19 12 -31t31 -12
q26 0 44.5 19.5z" />
    <glyph glyph-name="uni030B" unicode="&#x30b;" 
d="M-296 615h-104l143 148h126zM-97 615h-104l143 148h136z" />
    <glyph glyph-name="uni030C" unicode="&#x30c;" 
d="M-119 589h-14l-135 174h118l42 -72l69 72h118z" />
    <glyph glyph-name="uni030F" unicode="&#x30f;" 
d="M-152 591h-88l-125 172h124zM47 591h-88l-117 172h116z" />
    <glyph glyph-name="uni0312" unicode="&#x312;" 
d="M-71.5 613q-17.5 19 -17.5 52q0 37 18 72t57 59t98 27l-9 -50q-39 -1 -64.5 -17t-34.5 -43q-3 -10 -3 -21q14 17 42 17q19 0 32 -12t13 -32q0 -30 -23.5 -50.5t-57.5 -20.5q-33 0 -50.5 19z" />
    <glyph glyph-name="uni031B" unicode="&#x31b;" 
d="M-111 612q44 0 67 27t31 69l10 55h81l-8 -47q-13 -79 -62 -126.5t-131 -47.5z" />
    <glyph glyph-name="uni0326" unicode="&#x326;" 
d="M-208 -168q30 0 50 9t26 25q4 6 4 13h-9q-7 -16 -32 -16q-17 0 -26.5 9t-9.5 27q0 26 20 43t49 17t44.5 -15t15.5 -41q0 -50 -36.5 -77.5t-101.5 -27.5z" />
    <glyph glyph-name="uni0327" unicode="&#x327;" 
d="M-317 -199l9 52q46 -19 84 -19q30 0 47.5 13t17.5 37q0 27 -32.5 36.5t-92.5 8.5l93 90h82q-4 -3 -24 -20t-55 -38l5 -9q22 2 27 2q35 0 57.5 -15.5t22.5 -44.5q0 -51 -43 -79t-106 -28q-47 0 -92 14z" />
    <glyph glyph-name="uni0328" unicode="&#x328;" 
d="M-238.5 -195q-25.5 18 -25.5 51q0 47 31 76t92 50l4 18h80q-60 -37 -82.5 -57t-22.5 -44q0 -29 37 -29q19 0 47 11l-14 -83q-36 -11 -72 -11q-49 0 -74.5 18z" />
    <glyph glyph-name="uni0337" unicode="&#x337;" 
d="M14 400l-259 -123l17 91l258 123z" />
    <glyph glyph-name="uni0338" unicode="&#x338;" 
d="M37 530l-610 -519l-49 58l610 519z" />
    <glyph glyph-name="uni0394" unicode="&#x394;" horiz-adv-x="710" 
d="M653 0h-696l404 763h158zM412 605l-243 -478h316z" />
    <glyph glyph-name="pi" unicode="&#x3c0;" horiz-adv-x="620" 
d="M42 0l79 444h-66l21 117h556l-21 -117h-90l-49 -281q-3 -15 -3 -25q0 -17 8.5 -23t29.5 -6h45l-19 -109h-76q-124 0 -124 97q0 19 4 38l54 309h-140l-78 -444h-131z" />
    <glyph glyph-name="Wgrave" unicode="&#x1e80;" horiz-adv-x="1112" 
d="M368 0h-203l-65 763h145l46 -633l253 633h183l30 -634l269 634h157l-334 -763h-204l-30 615zM711 817h-104l-124 148h139z" />
    <glyph glyph-name="wgrave" unicode="&#x1e81;" horiz-adv-x="844" 
d="M264 0h-127l-72 561h140l32 -364l170 364h118l43 -362l162 362h148l-274 -561h-127l-38 378zM540 615h-104l-124 148h139z" />
    <glyph glyph-name="Wacute" unicode="&#x1e82;" horiz-adv-x="1112" 
d="M368 0h-203l-65 763h145l46 -633l253 633h183l30 -634l269 634h157l-334 -763h-204l-30 615zM695 817h-104l141 148h139z" />
    <glyph glyph-name="wacute" unicode="&#x1e83;" horiz-adv-x="844" 
d="M264 0h-127l-72 561h140l32 -364l170 364h118l43 -362l162 362h148l-274 -561h-127l-38 378zM525 615h-104l141 148h139z" />
    <glyph glyph-name="Wdieresis" unicode="&#x1e84;" horiz-adv-x="1112" 
d="M368 0h-203l-65 763h145l46 -633l253 633h183l30 -634l269 634h157l-334 -763h-204l-30 615zM492.5 822.5q-19.5 16.5 -19.5 43.5q0 38 29 63.5t67 25.5q30 0 49 -17t19 -44q0 -37 -28.5 -62.5t-66.5 -25.5q-30 0 -49.5 16.5zM704 822.5q-19 16.5 -19 43.5
q0 38 28.5 63.5t66.5 25.5q30 0 49 -16.5t19 -44.5q0 -37 -28 -62.5t-67 -25.5q-30 0 -49 16.5z" />
    <glyph glyph-name="wdieresis" unicode="&#x1e85;" horiz-adv-x="844" 
d="M264 0h-127l-72 561h140l32 -364l170 364h118l43 -362l162 362h148l-274 -561h-127l-38 378zM325 640q-20 17 -20 45q0 39 29.5 65.5t68.5 26.5q31 0 50.5 -18t19.5 -46q0 -39 -29 -64.5t-68 -25.5q-31 0 -51 17zM536.5 640q-19.5 17 -19.5 45q0 39 29 65.5t68 26.5
q31 0 51 -18t20 -46q0 -39 -29 -64.5t-69 -25.5q-31 0 -50.5 17z" />
    <glyph glyph-name="uni1E9E" unicode="&#x1e9e;" horiz-adv-x="699" 
d="M101 473q15 84 44 141.5t75 94.5q82 68 218 68q137 0 223 -95l-21 -121l-151 -126q38 -5 65 -15q99 -31 99 -142q0 -89 -42.5 -152t-115 -94.5t-162.5 -31.5h-95l23 129h96q71 0 110.5 32.5t39.5 95.5q0 44 -31 60t-79 16h-58l23 131l168 140q-20 20 -49.5 31.5
t-65.5 11.5q-67 0 -107 -36q-22 -19 -37.5 -51.5t-24.5 -86.5l-84 -473h-144z" />
    <glyph glyph-name="Ygrave" unicode="&#x1ef2;" horiz-adv-x="700" 
d="M377 0h-152l53 299l-196 464h157l127 -324l243 324h180l-360 -464zM504 817h-104l-124 148h139z" />
    <glyph glyph-name="ygrave" unicode="&#x1ef3;" horiz-adv-x="565" 
d="M-16 -202l21 114h62q28 0 44.5 8.5t34.5 37.5l23 40l-108 563h141l58 -412l191 412h150l-329 -627q-39 -75 -82 -105.5t-112 -30.5h-94zM398 615h-104l-124 148h139z" />
    <glyph glyph-name="endash" unicode="&#x2013;" horiz-adv-x="546" 
d="M523 276h-501l17 97h501z" />
    <glyph glyph-name="emdash" unicode="&#x2014;" horiz-adv-x="1106" 
d="M1105 276h-1106l18 97h1106z" />
    <glyph glyph-name="uni2015" unicode="&#x2015;" horiz-adv-x="802" 
d="M737 288h-670l14 82h670z" />
    <glyph glyph-name="quoteleft" unicode="&#x2018;" horiz-adv-x="311" 
d="M126 481.5q-21 25.5 -21 69.5q0 61 28 110.5t77.5 79.5t113.5 34l-12 -70q-55 -3 -90 -32t-39 -80q19 22 53 22q23 0 39 -16t16 -44q0 -43 -29.5 -71t-73.5 -28q-41 0 -62 25.5z" />
    <glyph glyph-name="quoteright" unicode="&#x2019;" horiz-adv-x="311" 
d="M116 525q57 3 91 32.5t39 79.5q-21 -22 -53 -22q-23 0 -39 16t-16 44q0 43 29.5 71t73.5 28q40 0 61 -25t21 -69q0 -61 -28 -111t-77.5 -80t-113.5 -34z" />
    <glyph glyph-name="quotesinglbase" unicode="&#x201a;" horiz-adv-x="274" 
d="M-19 -101q56 4 90.5 33.5t39.5 79.5q-19 -23 -54 -23q-23 0 -38.5 16t-15.5 44q0 43 29 71.5t73 28.5q41 0 62.5 -26t21.5 -70q0 -60 -28.5 -109.5t-78.5 -79.5t-113 -34z" />
    <glyph glyph-name="quotedblleft" unicode="&#x201c;" horiz-adv-x="536" 
d="M126 481.5q-21 25.5 -21 69.5q0 61 28 110.5t77.5 79.5t113.5 34l-12 -69q-55 -3 -89.5 -32.5t-40.5 -80.5q11 12 24 17t30 5q23 0 39 -16.5t16 -43.5q0 -43 -29.5 -71t-73.5 -28q-41 0 -62 25.5zM352 481.5q-21 25.5 -21 69.5q0 61 28 110.5t77.5 79.5t113.5 34l-12 -69
q-56 -3 -90.5 -32.5t-39.5 -80.5q19 22 53 22q23 0 39 -16t16 -44q0 -43 -29.5 -71t-73.5 -28q-40 0 -61 25.5z" />
    <glyph glyph-name="quotedblright" unicode="&#x201d;" horiz-adv-x="536" 
d="M116 525q57 3 91 32.5t39 79.5q-21 -22 -53 -22q-23 0 -39 16t-16 44q0 43 29.5 71t73.5 28q40 0 61 -25t21 -69q0 -61 -28 -111t-77.5 -80t-113.5 -34zM342 525q57 3 91 32.5t39 79.5q-21 -22 -54 -22q-23 0 -39 16.5t-16 43.5q0 43 29.5 71t73.5 28q41 0 62 -25t21 -69
q0 -61 -28 -111t-78 -80t-114 -34z" />
    <glyph glyph-name="quotedblbase" unicode="&#x201e;" horiz-adv-x="499" 
d="M-19 -101q56 3 90 32.5t39 79.5q-19 -22 -53 -22q-23 0 -39 16t-16 43q0 43 29.5 71.5t73.5 28.5q40 0 61.5 -25.5t21.5 -69.5q0 -61 -28 -110.5t-78 -79.5t-114 -34zM206 -101q56 3 90.5 32.5t39.5 79.5q-19 -22 -53 -22q-23 0 -39 16t-16 43q0 43 29.5 71.5t73.5 28.5
q40 0 61.5 -25.5t21.5 -69.5q0 -61 -28 -110.5t-78 -79.5t-114 -34z" />
    <glyph glyph-name="dagger" unicode="&#x2020;" horiz-adv-x="604" 
d="M267 -202h-102l112 635h-229l18 101h229l41 229h102l-41 -229h230l-18 -101h-230z" />
    <glyph glyph-name="bullet" unicode="&#x2022;" horiz-adv-x="396" 
d="M94.5 162q-30.5 30 -30.5 75q0 39 22 74t57.5 56t73.5 21q47 0 77.5 -30.5t30.5 -75.5q0 -39 -22 -74t-57 -55.5t-74 -20.5q-47 0 -77.5 30z" />
    <glyph glyph-name="uni2023" unicode="&#x2023;" horiz-adv-x="445" 
d="M432 282l-363 -192l68 383z" />
    <glyph glyph-name="ellipsis" unicode="&#x2026;" horiz-adv-x="689" 
d="M147 130q18 -19 18 -48q0 -37 -29 -65t-64 -28q-29 0 -49 19.5t-20 47.5q0 36 30 64.5t68 28.5q28 0 46 -19zM503 130q19 -19 19 -48q0 -37 -29.5 -65t-65.5 -28q-11 0 -22 3q-10 -3 -22 -3q-30 0 -48.5 19t-18.5 47q0 37 29 65.5t66 28.5q12 0 21 -3q12 3 23 3
q29 0 48 -19z" />
    <glyph glyph-name="perthousand" unicode="&#x2030;" horiz-adv-x="1139" 
d="M132 457.5q-37 37.5 -37 100.5q0 57 25.5 107.5t70 81t99.5 30.5q59 0 95 -40t36 -102q0 -54 -26 -104t-70 -80.5t-95 -30.5q-61 0 -98 37.5zM157 0h-110l605 763h110zM298 551q22 29 22 68q0 26 -13.5 41.5t-34.5 15.5q-35 0 -55 -30t-20 -70q0 -26 13.5 -40t36.5 -14
q29 0 51 29zM429 23.5q-37 37.5 -37 100.5q0 57 25.5 107t70 80t98.5 30q59 0 95.5 -39.5t36.5 -102.5q0 -54 -26.5 -103t-70.5 -79.5t-95 -30.5q-60 0 -97 37.5zM789 23.5q-37 37.5 -37 100.5q0 57 26 107t70.5 80t98.5 30q59 0 95.5 -39.5t36.5 -102.5q0 -54 -26.5 -103
t-70.5 -79.5t-95 -30.5q-61 0 -98 37.5zM594.5 114.5q22.5 28.5 22.5 67.5q0 27 -13.5 42.5t-34.5 15.5q-35 0 -55 -30t-20 -70q0 -26 13.5 -40t36.5 -14q28 0 50.5 28.5zM955.5 114.5q22.5 28.5 22.5 67.5q0 27 -13.5 42.5t-35.5 15.5q-35 0 -54.5 -30t-19.5 -70
q0 -26 13.5 -40t36.5 -14q28 0 50.5 28.5z" />
    <glyph glyph-name="guilsinglleft" unicode="&#x2039;" horiz-adv-x="307" 
d="M220 199l-20 -115l-197 191l264 193l-20 -114l-109 -79z" />
    <glyph glyph-name="guilsinglright" unicode="&#x203a;" horiz-adv-x="307" 
d="M303 275l-265 -191l20 115l110 76l-82 79l20 114z" />
    <glyph glyph-name="fraction" unicode="&#x2044;" horiz-adv-x="168" 
d="M-151 0h-76l582 763h75z" />
    <glyph glyph-name="Euro" unicode="&#x20ac;" horiz-adv-x="611" 
d="M629 771l-24 -135q-29 11 -70 11q-77 0 -136.5 -40.5t-94.5 -110.5h231l-13 -72h-246q-11 -40 -14 -79h246l-13 -72h-232q9 -74 55 -116t123 -42q37 0 75 11l-24 -135q-40 -5 -74 -5q-148 0 -225.5 79t-83.5 208h-70l13 72h60q2 33 13 79h-59l13 72h69
q51 128 159.5 204.5t249.5 76.5q39 0 72 -6z" />
    <glyph glyph-name="uni2116" unicode="&#x2116;" horiz-adv-x="1288" 
d="M865 342q-54 52 -54 141q0 80 37.5 147.5t103.5 107t145 39.5q93 0 147.5 -52.5t54.5 -138.5q0 -80 -38 -148t-104 -108t-146 -40q-92 0 -146 52zM162 0h-144l135 763h163l216 -546l97 546h144l-135 -763h-163l-216 547zM1107 413q35 26 55 68.5t20 87.5q0 50 -27.5 80.5
t-74.5 30.5q-43 0 -78.5 -25.5t-55 -67.5t-19.5 -88q0 -52 27.5 -82t74.5 -30q43 0 78 26zM1190 127h-413l17 99h414z" />
    <glyph glyph-name="trademark" unicode="&#x2122;" horiz-adv-x="821" 
d="M229 381h-72l56 317h-116l12 65h305l-12 -65h-117zM457 381h-72l68 382h119l27 -295l131 295h119l-68 -382h-71l58 328l-149 -328h-71l-33 326z" />
    <glyph glyph-name="minus" unicode="&#x2212;" horiz-adv-x="661" 
d="M558 289h-452l18 101h452z" />
    <glyph glyph-name="lozenge" unicode="&#x25ca;" horiz-adv-x="670" 
d="M386 0h-202l-140 382l275 381h202l140 -382zM197 382l100 -313l212 313l-101 312z" />
    <glyph glyph-name="uniF8FF" unicode="&#xf8ff;" horiz-adv-x="899" 
d="M27 0q-9 0 -7 10l131 743q2 10 11 10h744q10 0 8 -10l-131 -743q-1 -4 -4 -7t-8 -3h-744zM211 94q13 11 22.5 25t17.5 28q19 36 45 69.5t82 82.5l29 26q5 4 9 4q5 0 8 -3q7 -4 16 -6q9 -3 8 -13l-6 -36q-8 -43 -17.5 -66t-23.5 -48q-14 -21 -17 -37q-2 -14 7 -25t23 -11
q15 0 28 11t15 25q1 4 1 12q0 7 -4 25q-7 28 -7 51q0 32 6 63l6 36q1 9 12 13q13 4 16 6q6 3 9 3q5 0 8 -4l22 -26q40 -48 54 -81.5t20 -69.5q4 -20 8 -31.5t13 -22.5q14 -15 37 -15q26 0 44 15q25 22 25 53q0 19 -10 29q-9 12 -19.5 18t-29.5 12q-35 14 -64.5 33t-68.5 67
l-21 26q-3 3 -3 9l4 7q8 12 11 18q5 11 13 11h36q45 0 68.5 -6t42.5 -16q3 -1 13 -5.5t23 -4.5q16 0 29.5 13.5t13.5 30.5q0 12 -8.5 21t-21.5 9t-25 -4.5t-14 -5.5q-22 -10 -48 -16t-71 -6h-36q-8 0 -10 11q-2 10 -4 15q-2 3 -2 8q3 6 6 8l30 26q57 48 94.5 68.5t74.5 31.5
q4 2 16.5 6.5t22.5 10t19 13.5q25 23 25 52q0 19 -10 30q-13 16 -39 16q-24 0 -42 -15q-13 -11 -21 -22.5t-20 -32.5q-19 -37 -44.5 -70t-82.5 -81l-29 -24q-3 -4 -9 -4q-4 0 -7 2q-6 4 -16 7q-9 3 -8 13l7 36q7 44 17 68t24 45q2 3 8 14.5t8 23.5q3 14 -6 25t-23 11
q-15 0 -28 -11t-16 -25q-1 -4 -1 -11q0 -8 4 -26q8 -24 8 -53q0 -22 -6 -61l-7 -36q-1 -9 -12 -13q-2 -1 -7.5 -2.5t-10.5 -4.5q-3 -2 -8 -2q-6 0 -9 4l-21 24q-40 48 -54.5 82.5t-19.5 69.5q-3 19 -7 31t-13 23q-13 16 -37 16q-22 0 -43 -16q-26 -23 -26 -52q0 -20 10 -31
q9 -11 19.5 -17t28.5 -13q33 -13 63 -33t70 -67l22 -25q3 -5 2 -8q0 -4 -4 -8q-2 -2 -10 -16q-5 -11 -14 -11h-36q-44 0 -68 6t-43 16q-2 1 -12 5.5t-23 4.5q-16 0 -29.5 -13t-13.5 -29q0 -14 8.5 -23t21.5 -9q12 0 23.5 4.5t15.5 5.5q22 10 47.5 16t70.5 6h36q9 0 11 -11
q2 -12 5 -17v-5q0 -6 -5 -11l-31 -27q-56 -49 -93 -68.5t-76 -31.5q-21 -7 -33.5 -13t-25.5 -17q-11 -9 -17.5 -23t-6.5 -28q0 -17 10 -30q13 -16 39 -16q25 0 43 15zM424.5 340.5q-13.5 13.5 -13.5 32.5q0 24 20.5 43.5t44.5 19.5q20 0 32.5 -13t12.5 -32
q0 -25 -19.5 -44.5t-44.5 -19.5q-19 0 -32.5 13.5zM493 354l-5 6q-11 -13 -28 -13q-12 0 -20 8.5t-8 21.5q0 15 12.5 27t27.5 12t25 -13l6 6q-7 15 -29 15q-19 0 -35.5 -15t-16.5 -34q0 -15 10.5 -25.5t26.5 -10.5q22 0 34 15z" />
    <glyph glyph-name="i.loclTRK" horiz-adv-x="258" 
d="M147 0h-135l99 561h135zM139 640q-20 17 -20 45q0 39 29.5 65.5t68.5 26.5q31 0 50.5 -18t19.5 -46q0 -39 -29 -64.5t-68 -25.5q-31 0 -51 17z" />
    <glyph glyph-name="uni030C.alt" 
d="M-147 525q48 2 80.5 24t43.5 60q5 14 6 28q-19 -22 -53 -22q-23 0 -39 16t-16 44q0 43 29.5 71t73.5 28q40 0 61 -25t21 -69q0 -18 -3 -39q-13 -72 -67 -126t-149 -60z" />
    <glyph glyph-name="uni0308.case" 
d="M-255.5 822.5q-19.5 16.5 -19.5 43.5q0 38 29 63.5t67 25.5q30 0 49 -17t19 -44q0 -37 -28.5 -62.5t-66.5 -25.5q-30 0 -49.5 16.5zM-44 822.5q-19 16.5 -19 43.5q0 38 28.5 63.5t66.5 25.5q30 0 49 -16.5t19 -44.5q0 -37 -28 -62.5t-67 -25.5q-30 0 -49 16.5z" />
    <glyph glyph-name="uni0307.case" 
d="M-44.5 822.5q-19.5 16.5 -19.5 43.5q0 38 29 63.5t67 25.5q30 0 49 -17t19 -44q0 -37 -28.5 -62.5t-66.5 -25.5q-30 0 -49.5 16.5z" />
    <glyph glyph-name="uni0328.case" 
d="M-238.5 -195q-25.5 18 -25.5 51q0 47 31 76t92 50l4 18h80q-60 -37 -82.5 -57t-22.5 -44q0 -29 37 -29q19 0 47 11l-14 -83q-36 -11 -72 -11q-49 0 -74.5 18z" />
    <glyph glyph-name="uni0335.case" 
d="M-6 289h-416l18 101h416z" />
    <glyph glyph-name="uni0337.case" 
d="M19 425l-419 -199l18 105l419 198z" />
    <glyph glyph-name="uni0338.case" 
d="M63 679l-786 -668l-49 58l786 668z" />
    <glyph glyph-name="base_No" horiz-adv-x="517" 
d="M468 0h-496v120h496v-120z" />
    </font>
</defs>
</svg>
