<?xml version="1.0" standalone="no"?>
<!DOCTYPE svg PUBLIC "-//W3C//DTD SVG 1.1//EN" "http://www.w3.org/Graphics/SVG/1.1/DTD/svg11.dtd" >
<svg xmlns="http://www.w3.org/2000/svg" xmlns:xlink="http://www.w3.org/1999/xlink" version="1.1">
<metadata>
Created by FontForge 20170731 at Thu Apr 16 09:52:34 2020
 By Aleksey,,,
Copyright (c) 2020 by Alfredo Marco Pradil. All rights reserved.
</metadata>
<defs>
<font id="OpenSauceOne-SemiBold" horiz-adv-x="0" >
  <font-face 
    font-family="Open Sauce One SemiBold"
    font-weight="600"
    font-stretch="normal"
    units-per-em="1000"
    panose-1="0 0 7 0 0 0 0 0 0 0"
    ascent="763"
    descent="-237"
    x-height="559"
    cap-height="763"
    bbox="-701 -237 1238 1029"
    underline-thickness="50"
    underline-position="-150"
    unicode-range="U+0020-FB02"
  />
<missing-glyph horiz-adv-x="603" 
d="M531 0h-460v559h460v-559zM111 519v-479h380v479h-380z" />
    <glyph glyph-name="fi" unicode="fi" horiz-adv-x="610" 
d="M112 0v462h-88v97h88v58q0 71 38.5 108.5t111.5 37.5h80v-97h-52q-59 0 -59 -66v-41h111v-97h-111v-462h-119zM546 0h-118v559h118v-559zM432.5 651.5q-22.5 20.5 -22.5 51.5t22.5 51.5t54.5 20.5q33 0 55 -20.5t22 -51.5t-22 -51.5t-55 -20.5q-32 0 -54.5 20.5z" />
    <glyph glyph-name="fl" unicode="fl" horiz-adv-x="656" 
d="M112 0v462h-88v97h88v58q0 71 38.5 108.5t111.5 37.5h80v-97h-52q-59 0 -59 -66v-41h111v-97h-111v-462h-119zM556 0q-65 0 -98 30t-33 99v634h118v-603q0 -33 11.5 -47t41.5 -14h33v-99h-73z" />
    <glyph glyph-name="s_a_u_c_e_l_o_g_o.liga" unicode="saucelogo" horiz-adv-x="906" 
d="M80 0q-9 0 -9 10v743q0 10 9 10h744q10 0 10 -10v-743q0 -10 -10 -10h-744zM247 94q11 11 17 22.5t14 31.5q13 36 33 69t67 82l25 26q4 4 8 4q5 0 9 -3q7 -4 17 -6q10 -3 10 -13v-36q0 -43 -5.5 -67t-15.5 -47q-10 -20 -10 -37q0 -14 11 -25t25 -11q15 0 26 11t11 25
q0 17 -10 37q-10 23 -15.5 47t-5.5 67v36q0 10 10 13q13 4 15 6q5 3 8 3q5 0 9 -4l26 -26q48 -48 68 -81.5t33 -69.5q6 -19 12 -30.5t18 -23.5q17 -15 40 -15q26 0 41 15q17 17 17 42t-16 40q-12 12 -23.5 18t-30.5 12q-37 13 -70 32.5t-81 67.5l-26 26q-4 4 -4 9q0 3 3 7
q6 12 7 18q3 11 12 11h36q44 0 68.5 -6t46.5 -16q2 -1 13 -5.5t24 -4.5q14 0 25 11t11 26q0 14 -11 25.5t-25 11.5q-13 0 -24 -4.5t-13 -5.5q-22 -10 -46.5 -16t-68.5 -6h-36q-9 0 -12 11q-4 10 -7 15t-3 8q0 4 4 8l26 26q48 48 82 68.5t69 31.5q4 2 16 6.5t21 10t16 13.5
q17 19 17 41q0 24 -17 41q-16 16 -41 16t-40 -15q-11 -11 -17 -22.5t-14 -32.5q-13 -37 -32.5 -70t-67.5 -81l-25 -24q-3 -4 -9 -4q-4 0 -7 2q-5 3 -17 7q-10 3 -10 13v36q0 43 5.5 67t15.5 47q10 20 10 37q0 14 -11 25t-25 11q-15 0 -26 -11t-11 -25q0 -17 10 -37
q10 -23 15.5 -47t5.5 -67v-36q0 -10 -10 -13q-2 -1 -7.5 -2.5t-9.5 -4.5q-3 -2 -7 -2q-6 0 -10 4l-25 24q-49 49 -69.5 83t-31.5 69q-7 19 -13 31t-17 23q-16 16 -40 16q-22 0 -40 -16q-17 -17 -17 -42t16 -41q11 -11 22.5 -17t30.5 -13q36 -13 69 -33t82 -67l26 -25
q4 -4 4 -8q0 -3 -3 -8q-2 -3 -7 -16q-3 -11 -12 -11h-36q-44 0 -68.5 6t-46.5 16q-2 1 -13 5.5t-24 4.5q-14 0 -25 -11.5t-11 -25.5q0 -15 11 -26t25 -11q13 0 24 4.5t13 5.5q22 10 46.5 16t68.5 6h36q9 0 12 -11q5 -12 8 -17q2 -6 2 -7q0 -5 -4 -9l-26 -27
q-48 -49 -81.5 -68.5t-69.5 -31.5q-20 -7 -31.5 -13t-22.5 -17q-16 -15 -16 -40q0 -24 16 -41q16 -16 42 -16q25 0 40 15zM414 343.5q-16 16.5 -16 38.5t16 38t38 16t38 -16t16 -38q0 -23 -16 -39t-38 -16t-38 16.5zM484 354l-6 6q-10 -13 -26 -13q-14 0 -24 10.5t-10 24.5
t10.5 24t23.5 10q16 0 27 -13l5 6q-10 15 -32 15q-17 0 -30 -12.5t-13 -29.5t13 -30t30 -13q22 0 32 15z" />
    <glyph glyph-name=".notdef" horiz-adv-x="603" 
d="M531 0h-460v559h460v-559zM111 519v-479h380v479h-380z" />
    <glyph glyph-name=".null" 
 />
    <glyph glyph-name="nonmarkingreturn" horiz-adv-x="333" 
 />
    <glyph glyph-name="space" unicode=" " horiz-adv-x="272" 
 />
    <glyph glyph-name="exclam" unicode="!" horiz-adv-x="269" 
d="M84 226l-1 26q-8 134 -8 232v279h118v-279q0 -98 -8 -232l-1 -26h-100zM82.5 11q-21.5 22 -21.5 52t21.5 51t52.5 21q29 0 50.5 -21t21.5 -51t-21.5 -52t-50.5 -22q-31 0 -52.5 22z" />
    <glyph glyph-name="quotedbl" unicode="&#x22;" horiz-adv-x="362" 
d="M137 493h-95v270h95v-270zM319 493h-95v270h95v-270z" />
    <glyph glyph-name="numbersign" unicode="#" horiz-adv-x="749" 
d="M216 0h-90l49 226h-129v81h146l33 162h-134v84h152l47 210h91l-47 -214h152l44 214h91l-48 -214h130v-80h-147l-35 -162h136v-81h-153l-48 -226h-90l49 226h-153zM314 469l-31 -162h150l33 162h-152z" />
    <glyph glyph-name="dollar" unicode="$" horiz-adv-x="689" 
d="M573.5 51.5q-71.5 -62.5 -200.5 -64.5v-87h-42v88q-115 8 -197.5 70.5t-95.5 183.5h129q15 -68 59 -102t105 -42v243l-7 2q-83 18 -135 37t-88.5 61t-36.5 115q0 69 34 118.5t93.5 75t135.5 25.5h4v88h42v-91q98 -11 166.5 -69t84.5 -161h-127q-12 51 -44.5 80.5
t-79.5 38.5v-212q87 -19 141 -39.5t92.5 -66t38.5 -124.5q0 -105 -71.5 -167.5zM226.5 498q35.5 -23 104.5 -40v208h-6q-62 0 -98 -26t-36 -73q0 -46 35.5 -69zM373 96q67 2 106 31t39 84q0 51 -37 77t-108 44v-236z" />
    <glyph glyph-name="percent" unicode="%" horiz-adv-x="782" 
d="M122.5 444.5q-36.5 22.5 -56.5 63t-20 91.5q0 77 43.5 126.5t112.5 49.5q44 0 80 -23t56 -63.5t20 -89.5t-20 -89.5t-55 -64t-78 -23.5q-46 0 -82.5 22.5zM208 0h-100l461 763h101zM251 537.5q18 24.5 18 61.5q0 38 -19 62.5t-48 24.5q-30 0 -48 -24t-18 -63
q0 -40 18.5 -63t50.5 -23q28 0 46 24.5zM500 9.5q-36 22.5 -56.5 63t-20.5 91.5q0 50 20 90.5t55.5 63t80.5 22.5q44 0 80 -23.5t56.5 -64t20.5 -89.5t-20 -89t-55.5 -63.5t-78.5 -23.5q-46 0 -82 22.5zM628.5 101q18.5 25 18.5 62q0 39 -19 63t-49 24t-47.5 -23t-17.5 -63
q0 -41 18.5 -64.5t49.5 -23.5q28 0 46.5 25z" />
    <glyph glyph-name="ampersand" unicode="&#x26;" horiz-adv-x="740" 
d="M173.5 10q-57.5 23 -91.5 67t-34 105q0 74 43.5 124.5t132.5 102.5q-49 51 -69.5 90.5t-20.5 88.5q0 58 27.5 100t75.5 64.5t108 22.5q89 0 144 -47t55 -127q0 -122 -153 -208l136 -170q22 38 32 75t14 82h112q-13 -146 -86 -246l107 -134h-147l-48 61q-34 -37 -92 -55.5
t-120 -18.5q-68 0 -125.5 23zM402 528q28 30 28 72q0 32 -24 55t-61 23q-39 0 -66.5 -25t-27.5 -65q0 -31 15 -57t51 -67q57 34 85 64zM381 102.5q39 13.5 68 36.5l-157 196q-63 -37 -95 -69t-32 -77q0 -47 39 -73.5t98 -26.5q40 0 79 13.5z" />
    <glyph glyph-name="quotesingle" unicode="'" horiz-adv-x="180" 
d="M137 493h-95v270h95v-270z" />
    <glyph glyph-name="parenleft" unicode="(" horiz-adv-x="298" 
d="M168 -111q-113 206 -113 491t113 492h112q-64 -111 -94 -230t-30 -262q0 -141 30 -260.5t94 -230.5h-112z" />
    <glyph glyph-name="parenright" unicode=")" horiz-adv-x="298" 
d="M19 -111q63 111 93 230.5t30 260.5q0 143 -30 262t-94 230h112q113 -205 113 -492q0 -285 -113 -491h-111z" />
    <glyph glyph-name="asterisk" unicode="*" horiz-adv-x="422" 
d="M71 485q22 26 46 48t64 49l-4 13q-34 -2 -45 -2q-43 0 -99 10l31 88q33 -14 58.5 -28.5t58.5 -42.5l11 8q-13 41 -18.5 70t-10.5 65h96q-4 -34 -10 -63.5t-20 -70.5l11 -9q33 27 58.5 41.5t59.5 29.5l31 -89q-56 -8 -98 -8q-29 0 -47 1l-4 -13q39 -26 62 -47t49 -50
l-79 -54q-18 37 -30.5 66.5t-24.5 69.5h-14q-12 -39 -23.5 -67t-30.5 -69z" />
    <glyph glyph-name="plus" unicode="+" horiz-adv-x="631" 
d="M361 58h-92v234h-233v91h233v234h92v-234h233v-91h-233v-234z" />
    <glyph glyph-name="comma" unicode="," horiz-adv-x="272" 
d="M54 -109q47 4 74 28.5t30 63.5q2 14 0 29q-15 -22 -48 -22q-25 0 -43.5 19t-18.5 51q0 33 21.5 54t57.5 21q46 0 71.5 -34.5t25.5 -92.5q0 -69 -41.5 -120.5t-128.5 -58.5v62z" />
    <glyph glyph-name="hyphen" unicode="-" horiz-adv-x="358" 
d="M333 277h-308v102h308v-102z" />
    <glyph glyph-name="period" unicode="." horiz-adv-x="242" 
d="M70 10.5q-22 21.5 -22 52.5q0 30 22 51t53 21q29 0 50 -21.5t21 -50.5q0 -30 -21 -52t-50 -22q-31 0 -53 21.5z" />
    <glyph glyph-name="slash" unicode="/" horiz-adv-x="467" 
d="M444 763l-349 -874h-107l349 874h107z" />
    <glyph glyph-name="zero" unicode="0" horiz-adv-x="667" 
d="M132 85q-72 97 -72 298q0 200 71 296t201 96q131 0 202.5 -97t71.5 -299q0 -199 -70.5 -295t-199.5 -96q-132 0 -204 97zM441 167q38 65 38 213q0 150 -39 216t-110 66q-70 0 -106.5 -66t-36.5 -214q0 -150 37.5 -215t108.5 -65q70 0 108 65z" />
    <glyph glyph-name="one" unicode="1" horiz-adv-x="445" 
d="M248 607q-38 -48 -93 -81t-119 -45v118q73 15 130 61t86 103h123v-763h-127v607z" />
    <glyph glyph-name="two" unicode="2" horiz-adv-x="647" 
d="M56 0v100l240 208q76 64 112 118t36 113t-31.5 92.5t-93.5 33.5q-136 0 -145 -165h-119q5 130 74 202t191 72q71 0 126.5 -27.5t86 -78.5t30.5 -119q0 -90 -52 -167.5t-135 -150.5l-136 -117h357v-114h-541z" />
    <glyph glyph-name="three" unicode="3" horiz-adv-x="661" 
d="M188.5 18.5q-63.5 30.5 -99.5 87t-40 131.5h127q14 -139 163 -139q66 0 103 34.5t37 94.5q0 62 -44.5 92t-121.5 30h-47v106h43q55 0 91.5 28t36.5 81q0 47 -29.5 74t-83.5 27q-55 0 -89 -31t-42 -93h-118q3 68 36.5 121.5t89 83t123.5 29.5q70 0 123.5 -26.5t83 -73
t29.5 -105.5q0 -58 -32.5 -101.5t-82.5 -54.5q72 -10 116.5 -61.5t44.5 -128.5q0 -69 -34.5 -122.5t-96 -83.5t-139.5 -30q-84 0 -147.5 30.5z" />
    <glyph glyph-name="four" unicode="4" horiz-adv-x="650" 
d="M505 0h-127v175h-337v123l340 465h124v-474h104v-114h-104v-175zM378 599l-218 -310h218v310z" />
    <glyph glyph-name="five" unicode="5" horiz-adv-x="654" 
d="M195 17q-58 29 -94 82t-43 123h127q11 -58 49.5 -89t95.5 -31q66 0 103.5 44.5t37.5 115.5q0 68 -39 110t-103 42q-44 0 -79 -22t-55 -62h-128l80 433h416v-114h-323l-34 -187q30 28 69 44t81 16q71 0 126 -32.5t85.5 -91.5t30.5 -135q0 -79 -34.5 -141.5t-96.5 -98
t-141 -35.5q-73 0 -131 29z" />
    <glyph glyph-name="six" unicode="6" horiz-adv-x="660" 
d="M131.5 85q-72.5 98 -72.5 273q0 195 73 306t214 111q107 0 173.5 -58.5t81.5 -161.5h-116q-13 54 -48 82.5t-91 28.5q-86 0 -126.5 -66t-40.5 -188q60 91 178 91q72 0 127 -31t85.5 -88t30.5 -132q0 -76 -32.5 -136.5t-91.5 -94.5t-133 -34q-139 0 -211.5 98zM437.5 140
q35.5 43 35.5 110t-35 108t-97 41q-65 0 -105.5 -41.5t-40.5 -107.5q0 -68 40.5 -110.5t105.5 -42.5q61 0 96.5 43z" />
    <glyph glyph-name="seven" unicode="7" horiz-adv-x="599" 
d="M237 0h-138l330 649h-396v114h528v-110z" />
    <glyph glyph-name="eight" unicode="8" horiz-adv-x="662" 
d="M187.5 17.5q-62.5 30.5 -97 85t-34.5 123.5q0 65 35.5 117.5t105.5 74.5q-53 19 -80.5 60t-27.5 91q0 60 31 107t86 73t125 26q71 0 126 -26t85.5 -73t30.5 -107q0 -50 -27.5 -91.5t-80.5 -59.5q70 -22 105.5 -74.5t35.5 -117.5q0 -70 -34 -124t-96.5 -84.5t-144.5 -30.5
q-81 0 -143.5 30.5zM419 486q31 29 31 77q0 47 -32 77t-87 30t-87 -30t-32 -77q0 -48 31 -77t88 -29t88 29zM438.5 134q40.5 37 40.5 99q0 60 -39.5 97.5t-108.5 37.5t-108.5 -37.5t-39.5 -97.5q0 -62 41 -99t107 -37q67 0 107.5 37z" />
    <glyph glyph-name="nine" unicode="9" horiz-adv-x="660" 
d="M528.5 678q72.5 -98 72.5 -273q0 -195 -73 -306t-214 -111q-107 0 -173.5 58.5t-81.5 161.5h116q13 -54 48 -82.5t91 -28.5q86 0 126.5 66t40.5 188q-60 -91 -178 -91q-72 0 -127 31t-85.5 88t-30.5 132q0 76 32.5 136.5t91.5 94.5t133 34q139 0 211.5 -98zM222.5 623
q-35.5 -43 -35.5 -110t35 -108t97 -41q65 0 105.5 41.5t40.5 107.5q0 68 -40.5 110.5t-105.5 42.5q-61 0 -96.5 -43z" />
    <glyph glyph-name="colon" unicode=":" horiz-adv-x="228" 
d="M62 401.5q-22 21.5 -22 52.5q0 30 22 51.5t52 21.5t51 -21.5t21 -51.5t-21 -52t-51 -22t-52 21.5zM61.5 11q-21.5 22 -21.5 52t22 51t52 21q29 0 50.5 -21t21.5 -51t-21 -52t-51 -22q-31 0 -52.5 22z" />
    <glyph glyph-name="semicolon" unicode=";" horiz-adv-x="272" 
d="M70 401.5q-22 21.5 -22 52.5q0 30 22 51.5t52 21.5q29 0 50.5 -21.5t21.5 -51.5q0 -31 -21.5 -52.5t-50.5 -21.5q-30 0 -52 21.5zM54 -109q47 4 74 28.5t30 63.5q2 14 0 29q-15 -22 -48 -22q-25 0 -43.5 19t-18.5 51q0 33 21.5 54t57.5 21q46 0 71.5 -34.5t25.5 -92.5
q0 -69 -41.5 -120.5t-128.5 -58.5v62z" />
    <glyph glyph-name="less" unicode="&#x3c;" horiz-adv-x="561" 
d="M515 219v-108l-475 173v121l475 173v-109l-355 -125z" />
    <glyph glyph-name="equal" unicode="=" horiz-adv-x="516" 
d="M480 415h-444v103h444v-103zM480 178h-444v104h444v-104z" />
    <glyph glyph-name="greater" unicode="&#x3e;" horiz-adv-x="561" 
d="M521 284l-475 -173v108l355 125l-355 125v109l475 -173v-121z" />
    <glyph glyph-name="question" unicode="?" horiz-adv-x="553" 
d="M218 262q0 56 15 93t36 58t55 46q39 27 57 50t18 63q0 52 -33 79t-89 27q-60 0 -96 -35.5t-40 -99.5h-107q4 72 35.5 124.5t85 80t121.5 27.5q102 0 167.5 -54t65.5 -155q0 -44 -12.5 -74t-30.5 -48.5t-49 -41.5q-28 -21 -44.5 -37.5t-29 -41.5t-14.5 -61l-4 -38h-107v38
zM218.5 11q-21.5 22 -21.5 52q0 29 21.5 50.5t51.5 21.5t51.5 -21t21.5 -51q0 -31 -21.5 -52.5t-51.5 -21.5t-51.5 22z" />
    <glyph glyph-name="at" unicode="@" horiz-adv-x="1037" 
d="M271 -128.5q-107 59.5 -167.5 166t-60.5 242.5q0 139 61 251.5t171 177t249 64.5q134 0 241.5 -60.5t168 -168.5t60.5 -245q0 -96 -30.5 -173t-88 -121.5t-133.5 -44.5q-63 0 -96.5 40t-39.5 122q-60 -101 -166 -101q-52 0 -93 25t-64.5 73t-23.5 115q0 85 36 164
t100.5 128t143.5 49q45 0 76.5 -20t55.5 -68l11 60h84l-13 -63q-32 -150 -47 -233.5t-15 -128.5q0 -81 63 -81q45 0 80.5 33.5t55 92t19.5 130.5q0 115 -49 204t-136 138t-198 49q-116 0 -207 -53t-141.5 -146t-50.5 -209q0 -114 48.5 -200.5t136.5 -134.5t202 -48
q68 0 133 22v-88q-57 -19 -134 -19q-135 0 -242 59.5zM544.5 144.5q44.5 38.5 69.5 99.5t25 124q0 121 -98 121q-57 0 -102 -37t-70 -96t-25 -124q0 -126 100 -126q56 0 100.5 38.5z" />
    <glyph glyph-name="A" unicode="A" horiz-adv-x="704" 
d="M141 0h-132l273 763h140l273 -763h-132l-56 167h-309zM352 627l-117 -349h234z" />
    <glyph glyph-name="B" unicode="B" horiz-adv-x="695" 
d="M71 0v763h297q136 0 196 -60q49 -48 49 -131q0 -67 -31.5 -113.5t-87.5 -58.5q75 -9 116 -56.5t41 -124.5q0 -50 -17.5 -90t-46.5 -66q-41 -36 -97 -49.5t-109 -13.5h-310zM362 441q60 0 92 27.5t32 77.5q0 46 -29 73q-17 16 -45.5 23t-70.5 7h-143v-208h164zM366 114
q40 0 72 6t55 27q32 29 32 82q0 68 -40.5 87.5t-101.5 19.5h-185v-222h168z" />
    <glyph glyph-name="C" unicode="C" horiz-adv-x="760" 
d="M204.5 40.5q-81.5 53.5 -121.5 143.5t-40 198t40 197.5t121.5 142.5t201.5 53q135 0 218.5 -66t100.5 -176h-139q-12 61 -60.5 95t-121.5 34q-110 0 -170 -76.5t-60 -203.5t60 -204.5t170 -77.5q74 0 122 36t60 106h139q-18 -118 -101 -186.5t-218 -68.5
q-120 0 -201.5 53.5z" />
    <glyph glyph-name="D" unicode="D" horiz-adv-x="730" 
d="M71 0v763h219q192 0 294 -99t102 -283q0 -183 -102.5 -282t-294.5 -99h-218zM288 114q127 0 199 60.5t72 206.5q0 138 -71.5 203t-199.5 65h-90v-535h90z" />
    <glyph glyph-name="E" unicode="E" horiz-adv-x="619" 
d="M576 0h-505v763h505v-114h-378v-210h336v-113h-336v-212h378v-114z" />
    <glyph glyph-name="F" unicode="F" horiz-adv-x="603" 
d="M198 0h-127v763h505v-114h-378v-210h336v-113h-336v-326z" />
    <glyph glyph-name="G" unicode="G" horiz-adv-x="815" 
d="M206 41q-83 54 -123.5 143.5t-40.5 196.5t40.5 196.5t123.5 143.5t204 54q138 0 224.5 -64.5t114.5 -176.5h-141q-21 61 -71.5 94.5t-127.5 33.5t-130 -37t-79.5 -100.5t-26.5 -141.5q0 -81 28 -145t83 -101t134 -37q98 0 155.5 53t58.5 150h-173v107h299v-410h-116v94
q-38 -55 -99.5 -81t-131.5 -26q-122 0 -205 54z" />
    <glyph glyph-name="H" unicode="H" horiz-adv-x="743" 
d="M198 0h-127v763h127v-324h345v324h127v-763h-127v326h-345v-326z" />
    <glyph glyph-name="I" unicode="I" horiz-adv-x="271" 
d="M198 0h-127v763h127v-763z" />
    <glyph glyph-name="J" unicode="J" horiz-adv-x="391" 
d="M13 0v114h97q42 0 63.5 20t21.5 65v564h128v-565q0 -71 -20 -114t-66.5 -63.5t-126.5 -20.5h-97z" />
    <glyph glyph-name="K" unicode="K" horiz-adv-x="657" 
d="M198 0h-127v763h127v-342l285 342h157l-315 -368l327 -395h-160l-294 359v-359z" />
    <glyph glyph-name="L" unicode="L" horiz-adv-x="540" 
d="M528 0h-457v763h127v-649h330v-114z" />
    <glyph glyph-name="M" unicode="M" horiz-adv-x="919" 
d="M198 0h-127v763h215l173 -609l173 609h215v-763h-127v673l-199 -673h-124l-199 668v-668z" />
    <glyph glyph-name="N" unicode="N" horiz-adv-x="746" 
d="M198 0h-127v763h154l323 -588v588h126v-763h-153l-323 588v-588z" />
    <glyph glyph-name="O" unicode="O" horiz-adv-x="817" 
d="M206 40.5q-82 53.5 -122.5 143t-40.5 198.5t40.5 198t122.5 142t202 53q119 0 201.5 -53t123 -142.5t40.5 -197.5q0 -109 -40.5 -198.5t-123 -143t-201.5 -53.5q-120 0 -202 53.5zM580.5 178q61.5 77 61.5 204q0 126 -61.5 203t-172.5 77q-73 0 -126 -35.5t-80.5 -99
t-27.5 -145.5q0 -83 27.5 -146.5t80.5 -99t126 -35.5q111 0 172.5 77z" />
    <glyph glyph-name="P" unicode="P" horiz-adv-x="657" 
d="M71 0v763h315q112 0 176.5 -55.5t64.5 -167.5q0 -107 -66 -168t-175 -61h-188v-311h-127zM369 422q65 0 99 29.5t34 84.5t-34.5 84t-98.5 29h-171v-227h171z" />
    <glyph glyph-name="Q" unicode="Q" horiz-adv-x="818" 
d="M743 209q-30 -80 -89 -134l104 -162h-142l-64 99q-66 -25 -144 -25q-120 0 -202 53.5t-122.5 143t-40.5 198.5t40.5 198t122.5 142t202 53q119 0 201.5 -53t123 -142.5t40.5 -197.5q0 -93 -30 -173zM201.5 235.5q27.5 -63.5 80.5 -99t126 -35.5q111 0 172.5 77t61.5 204
q0 126 -61.5 203t-172.5 77q-73 0 -126 -35.5t-80.5 -99t-27.5 -145.5q0 -83 27.5 -146.5z" />
    <glyph glyph-name="R" unicode="R" horiz-adv-x="679" 
d="M643 0h-137l-126 311h-182v-311h-127v763h315q112 0 176.5 -55.5t64.5 -167.5q0 -75 -32.5 -127.5t-92.5 -79.5zM198 422h171q65 0 99 29.5t34 84.5t-34.5 84t-98.5 29h-171v-227z" />
    <glyph glyph-name="S" unicode="S" horiz-adv-x="689" 
d="M215.5 13q-70.5 26 -119 83t-58.5 146h129q17 -78 72.5 -112t127.5 -34q69 0 110 29t41 86q0 42 -25.5 67t-63.5 37.5t-105 27.5q-83 18 -135 37t-88.5 61t-36.5 115q0 69 34 118.5t93.5 75t135.5 25.5q114 0 196.5 -59t100.5 -174h-127q-15 63 -61 93.5t-111 30.5
q-62 0 -98 -26t-36 -73q0 -37 23.5 -59t59.5 -33.5t98 -25.5q88 -19 142 -39.5t92.5 -66t38.5 -124.5q0 -107 -73.5 -169.5t-206.5 -62.5q-79 0 -149.5 26z" />
    <glyph glyph-name="T" unicode="T" horiz-adv-x="632" 
d="M379 0h-127v649h-240v114h609v-114h-242v-649z" />
    <glyph glyph-name="U" unicode="U" horiz-adv-x="728" 
d="M138 62.5q-74 75.5 -74 209.5v491h127v-491q0 -172 173 -172q172 0 172 172v491h127v-491q0 -134 -73.5 -209.5t-225.5 -75.5t-226 75.5z" />
    <glyph glyph-name="V" unicode="V" horiz-adv-x="700" 
d="M420 0h-140l-273 763h132l211 -626l211 626h132z" />
    <glyph glyph-name="W" unicode="W" horiz-adv-x="1100" 
d="M403 0h-178l-209 763h133l168 -633l157 633h151l158 -634l167 634h133l-208 -763h-179l-146 598z" />
    <glyph glyph-name="X" unicode="X" horiz-adv-x="710" 
d="M161 0h-150l257 382l-255 381h151l191 -294l191 294h151l-255 -381l257 -382h-150l-194 286z" />
    <glyph glyph-name="Y" unicode="Y" horiz-adv-x="692" 
d="M413 0h-133v296l-281 467h148l198 -343l200 343h147l-279 -467v-296z" />
    <glyph glyph-name="Z" unicode="Z" horiz-adv-x="630" 
d="M598 0h-570v89l411 560h-388v114h547v-92l-407 -557h407v-114z" />
    <glyph glyph-name="bracketleft" unicode="[" horiz-adv-x="342" 
d="M323 -110h-231v982h231v-87h-129v-808h129v-87z" />
    <glyph glyph-name="backslash" unicode="\" horiz-adv-x="467" 
d="M479 -111h-107l-349 874h107z" />
    <glyph glyph-name="bracketright" unicode="]" horiz-adv-x="342" 
d="M250 872v-982h-231v87h129v808h-129v87h231z" />
    <glyph glyph-name="asciicircum" unicode="^" horiz-adv-x="550" 
d="M149 289h-108l174 474h120l174 -474h-109l-125 355z" />
    <glyph glyph-name="underscore" unicode="_" horiz-adv-x="424" 
d="M437 -87h-451v87h451v-87z" />
    <glyph glyph-name="grave" unicode="`" horiz-adv-x="262" 
d="M136 763l116 -149h-95l-148 149h127z" />
    <glyph glyph-name="a" unicode="a" horiz-adv-x="586" 
d="M92 32q-50 43 -50 120q0 78 61 123q44 32 130 49l177 33q-1 56 -30 86q-31 31 -84 31q-43 0 -75 -24.5t-40 -66.5h-118q14 90 80.5 138t153.5 48q50 0 93.5 -14t74.5 -42q41 -38 51.5 -89t10.5 -121v-303h-118v80q-22 -38 -56 -60q-47 -31 -129 -31t-132 43zM327 102
q47 24 65.5 63t18.5 103l-149 -29q-58 -12 -82 -34q-20 -20 -20 -50q0 -33 24.5 -51.5t65.5 -18.5t77 17z" />
    <glyph glyph-name="b" unicode="b" horiz-adv-x="640" 
d="M257.5 8.5q-38.5 19.5 -74.5 67.5v-76h-118v763h118v-280q36 48 75 67t92 19q73 0 128.5 -36.5t86.5 -102.5t31 -151t-31 -151t-86.5 -102.5t-128.5 -36.5q-54 0 -92.5 19.5zM436 144q41 53 41 135t-41 135t-110 53q-45 0 -80 -24t-55 -67t-20 -97t20 -97t55 -67t80 -24
q69 0 110 53z" />
    <glyph glyph-name="c" unicode="c" horiz-adv-x="614" 
d="M175 26q-63 37 -98 103.5t-35 152.5q0 83 35 148.5t98 102t145 36.5q99 0 167.5 -50t88.5 -136h-128q-14 42 -47.5 65t-80.5 23q-46 0 -82 -23.5t-56 -66.5t-20 -99q0 -58 20 -102t56 -68t82 -24q51 0 85.5 26t45.5 71h128q-19 -92 -89 -144t-170 -52q-82 0 -145 37z" />
    <glyph glyph-name="d" unicode="d" horiz-adv-x="640" 
d="M161.5 25.5q-55.5 36.5 -86.5 102.5t-31 151t31 151t86.5 102.5t128.5 36.5q53 0 92 -19t75 -67v280h118v-763h-118v76q-36 -48 -74.5 -67.5t-92.5 -19.5q-73 0 -128.5 36.5zM394 115q35 24 55 67t20 97t-20 97t-55 67t-80 24q-69 0 -110 -53t-41 -135t41 -135t110 -53
q45 0 80 24z" />
    <glyph glyph-name="e" unicode="e" horiz-adv-x="637" 
d="M175.5 26.5q-63.5 37.5 -98.5 103t-35 147.5q0 76 31.5 143t94 108t150.5 41q74 0 137.5 -31.5t102 -95.5t38.5 -157v-30h-434q6 -39 19 -62q20 -47 57.5 -74t85.5 -27q51 0 87.5 26.5t52.5 66.5h122q-27 -87 -94 -141.5t-171 -54.5q-82 0 -145.5 37.5zM473 348
q-4 31 -18 53q-20 35 -55 53.5t-78 18.5q-44 0 -78 -18.5t-55 -53.5q-13 -20 -20 -53h304z" />
    <glyph glyph-name="f" unicode="f" horiz-adv-x="363" 
d="M112 0v462h-88v97h88v58q0 71 38.5 108.5t111.5 37.5h80v-97h-52q-59 0 -59 -66v-41h111v-97h-111v-462h-119z" />
    <glyph glyph-name="g" unicode="g" horiz-adv-x="641" 
d="M148.5 -174q-70.5 41 -86.5 139h119q13 -44 46 -64.5t90 -20.5q72 0 106.5 33t34.5 91v80q-35 -49 -74 -68t-92 -19q-73 0 -129 36.5t-87 101.5t-31 147q0 83 31 148.5t87 102t128 36.5q54 0 92.5 -19t74.5 -67v76h118v-528q0 -134 -68.5 -190t-189.5 -56
q-99 0 -169.5 41zM395.5 123q35.5 24 55 65.5t19.5 94.5q0 52 -20 94t-55 66t-80 24q-68 0 -109.5 -52.5t-41.5 -131.5q0 -80 41.5 -132t109.5 -52q45 0 80.5 24z" />
    <glyph glyph-name="h" unicode="h" horiz-adv-x="596" 
d="M65 0v763h118v-280q35 48 72.5 67t84.5 19q125 0 171 -91q16 -33 20 -67t4 -84v-327h-118v327q0 84 -29 116q-24 27 -76 27q-60 0 -90 -36q-20 -23 -29.5 -61.5t-9.5 -103.5v-269h-118z" />
    <glyph glyph-name="i" unicode="i" horiz-adv-x="247" 
d="M183 0h-118v559h118v-559zM69.5 651.5q-22.5 20.5 -22.5 51.5t22.5 51.5t54.5 20.5q33 0 55 -20.5t22 -51.5t-22 -51.5t-55 -20.5q-32 0 -54.5 20.5z" />
    <glyph glyph-name="j" unicode="j" horiz-adv-x="248" 
d="M-48 -204v101h52q29 0 45 14t16 51v597h118v-627q0 -67 -35 -101.5t-102 -34.5h-94zM69.5 651.5q-22.5 20.5 -22.5 51.5t22.5 51.5t54.5 20.5q33 0 55 -20.5t22 -51.5t-22 -51.5t-55 -20.5q-32 0 -54.5 20.5z" />
    <glyph glyph-name="k" unicode="k" horiz-adv-x="582" 
d="M183 0h-118v763h118v-417l218 213h154l-256 -244l276 -315h-150l-242 282v-282z" />
    <glyph glyph-name="l" unicode="l" horiz-adv-x="293" 
d="M193 0q-65 0 -98 30t-33 99v634h118v-603q0 -33 11.5 -47t41.5 -14h33v-99h-73z" />
    <glyph glyph-name="m" unicode="m" horiz-adv-x="901" 
d="M65 0v559h118v-76q35 46 72.5 66t83.5 20q56 0 96 -24t54 -70q50 94 167 94q93 0 139 -53t46 -150v-366h-118v348q0 60 -25 91t-71 31q-49 0 -76 -30q-22 -24 -30.5 -62t-8.5 -97v-281h-118v348q0 60 -25.5 91t-72.5 31q-48 0 -74 -32q-20 -22 -29.5 -59t-9.5 -98v-281
h-118z" />
    <glyph glyph-name="n" unicode="n" horiz-adv-x="595" 
d="M65 0v559h118v-76q35 48 72 67t84 19q126 0 171 -91q17 -33 21 -67t4 -84v-327h-119v327q0 44 -6.5 72t-21.5 44q-24 27 -76 27q-61 0 -91 -36q-20 -23 -29 -61t-9 -104v-269h-118z" />
    <glyph glyph-name="o" unicode="o" horiz-adv-x="647" 
d="M177 26q-64 37 -99.5 103.5t-35.5 152.5q0 83 35.5 148.5t99.5 102t146 36.5t146 -36.5t100 -102t36 -148.5q0 -85 -35.5 -151.5t-99.5 -104t-147 -37.5q-82 0 -146 37zM406 116.5q37 24.5 57.5 67.5t20.5 98q0 52 -20.5 94.5t-57.5 66.5t-83 24t-83 -23.5t-57.5 -66
t-20.5 -95.5q0 -56 21 -99t57.5 -67t82.5 -24t83 24.5z" />
    <glyph glyph-name="p" unicode="p" horiz-adv-x="640" 
d="M478.5 533.5q55.5 -36.5 86.5 -102.5t31 -151t-31 -151t-86.5 -102.5t-128.5 -36.5q-53 0 -92 19t-75 67v-280h-118v763h118v-76q36 48 74.5 67.5t92.5 19.5q73 0 128.5 -36.5zM246 444q-35 -24 -55 -67t-20 -97t20 -97t55 -67t80 -24q69 0 110 53t41 135t-41 135
t-110 53q-45 0 -80 -24z" />
    <glyph glyph-name="q" unicode="q" horiz-adv-x="639" 
d="M594 -204q-70 0 -103.5 30t-33.5 93v157q-36 -49 -75 -68t-92 -19q-73 0 -128.5 36.5t-86.5 102.5t-31 151t31 151t86.5 102.5t128.5 36.5q54 0 92.5 -19t74.5 -67v76h118v-620q0 -23 12 -32.5t36 -9.5h45v-101h-74zM394 115q35 24 55 67t20 97t-20 97t-55.5 67t-79.5 24
q-69 0 -110 -53t-41 -135t41 -135t110 -53q45 0 80 24z" />
    <glyph glyph-name="r" unicode="r" horiz-adv-x="382" 
d="M65 0v559h118v-70q33 44 72.5 62t93.5 18h13v-115h-30q-67 0 -103 -36q-46 -43 -46 -148v-270h-118z" />
    <glyph glyph-name="s" unicode="s" horiz-adv-x="569" 
d="M123.5 39q-72.5 50 -86.5 146h119q12 -48 49 -74t95 -26q49 0 78.5 18.5t29.5 52.5q0 27 -18.5 43t-46 24.5t-75.5 18.5q-66 13 -107.5 27t-71 46.5t-29.5 89.5q0 80 60 122t152 42q96 0 160 -49t79 -136h-111q-12 45 -46 67.5t-82 22.5q-45 0 -71 -17t-26 -46
q0 -24 17.5 -38.5t44 -22t73.5 -16.5q67 -12 110 -27t74 -48.5t31 -92.5q0 -81 -60 -129t-165 -48q-104 0 -176.5 50z" />
    <glyph glyph-name="t" unicode="t" horiz-adv-x="376" 
d="M240 0q-65 0 -98 30t-33 99v332h-84v98h84v204h118v-204h114v-98h-114v-299q0 -32 10 -47.5t44 -15.5h59v-99h-100z" />
    <glyph glyph-name="u" unicode="u" horiz-adv-x="596" 
d="M86 81q-13 27 -18.5 60.5t-5.5 90.5v327h118v-328q0 -84 29 -116q24 -27 76 -27q57 0 90 36q21 23 30 61.5t9 103.5v270h118v-559h-118v76q-35 -46 -71.5 -66.5t-85.5 -20.5q-126 0 -171 92z" />
    <glyph glyph-name="v" unicode="v" horiz-adv-x="537" 
d="M316 0h-96l-206 559h128l125 -373l129 373h127z" />
    <glyph glyph-name="w" unicode="w" horiz-adv-x="836" 
d="M298 0h-111l-168 559h126l103 -381l117 381h104l118 -381l104 381h126l-171 -559h-111l-117 396z" />
    <glyph glyph-name="x" unicode="x" horiz-adv-x="572" 
d="M151 0h-136l194 281l-194 278h136l133 -198l134 198h139l-198 -278l198 -281h-138l-135 199z" />
    <glyph glyph-name="y" unicode="y" horiz-adv-x="560" 
d="M70 -204v101h59q31 0 46.5 9.5t28.5 41.5l20 54l-210 557h128l144 -419l130 419h128l-228 -640q-25 -70 -59 -96.5t-97 -26.5h-90z" />
    <glyph glyph-name="z" unicode="z" horiz-adv-x="548" 
d="M511 0h-479v84l332 377h-314v98h463v-92l-324 -369h322v-98z" />
    <glyph glyph-name="braceleft" unicode="{" horiz-adv-x="324" 
d="M219 -110q-60 0 -91 40t-31 110v201q0 42 -18.5 62t-51.5 31v94q33 11 51.5 31t18.5 62v201q0 70 31 110t91 40h80v-83h-38q-31 0 -44 -18.5t-13 -51.5v-200q0 -109 -83 -138q83 -29 83 -138v-200q0 -33 13 -51.5t44 -18.5h38v-83h-80z" />
    <glyph glyph-name="bar" unicode="|" horiz-adv-x="333" 
d="M218 -110h-102v982h102v-982z" />
    <glyph glyph-name="braceright" unicode="}" horiz-adv-x="324" 
d="M25 -110v83h38q31 0 44 18.5t13 51.5v200q0 109 83 138q-83 29 -83 138v200q0 33 -13 51.5t-44 18.5h-38v83h80q60 0 91 -40t31 -110v-201q0 -42 18.5 -62t51.5 -31v-94q-33 -11 -51.5 -31t-18.5 -62v-201q0 -70 -31 -110t-91 -40h-80z" />
    <glyph glyph-name="asciitilde" unicode="~" horiz-adv-x="527" 
d="M244 221q-21 13 -43 36q-14 15 -22.5 21.5t-19.5 6.5q-31 0 -36 -74h-76q3 73 34 115t83 42q30 0 49.5 -12.5t43.5 -36.5q14 -14 23.5 -21t19.5 -7q14 0 23 18t10 54h78q-5 -79 -31 -117t-81 -38q-34 0 -55 13z" />
    <glyph glyph-name="uni00A0" unicode="&#xa0;" horiz-adv-x="240" 
 />
    <glyph glyph-name="exclamdown" unicode="&#xa1;" horiz-adv-x="347" 
d="M234.5 547.5q21.5 -21.5 21.5 -52.5q0 -29 -22 -50.5t-52 -21.5q-29 0 -50.5 21.5t-21.5 50.5q0 31 21 52.5t51 21.5q31 0 52.5 -21.5zM232 332l3 -45q7 -145 7 -212v-279h-119v279q0 79 6 193l3 64h100z" />
    <glyph glyph-name="cent" unicode="&#xa2;" horiz-adv-x="614" 
d="M579 185q-19 -86 -82.5 -138t-154.5 -57v-90h-42v90q-76 4 -134.5 42t-91 102.5t-32.5 147.5q0 80 32 143.5t90.5 101t135.5 41.5v99h42v-99q91 -5 153 -54.5t81 -130.5h-128q-13 37 -40 59.5t-66 27.5v-381q42 6 70.5 31.5t38.5 64.5h128zM200 149.5q38 -52.5 100 -60.5
v381q-62 -8 -100 -59t-38 -129q0 -80 38 -132.5z" />
    <glyph glyph-name="sterling" unicode="&#xa3;" horiz-adv-x="625" 
d="M52 118q71 7 108.5 40.5t37.5 81.5q0 52 -46 135h-95v76h77q-21 45 -21 101q0 67 31 117.5t84 78t118 27.5q56 0 106 -22.5t84 -68.5t42 -113h-113q-9 51 -42.5 76.5t-74.5 25.5q-57 0 -90.5 -36t-33.5 -95q0 -54 16 -91h209v-76h-186q42 -87 42 -142q0 -36 -18.5 -66.5
t-60.5 -60.5h347v-106h-521v118z" />
    <glyph glyph-name="currency" unicode="&#xa4;" horiz-adv-x="726" 
d="M151 64l-66 65l69 68q-46 65 -46 144t45 143l-66 68l63 66l70 -69q30 23 67.5 34.5t76.5 11.5q78 0 143 -44l67 66l67 -65l-69 -68q23 -32 34.5 -68.5t11.5 -74.5q0 -79 -46 -145l67 -67l-66 -64l-66 66q-64 -45 -144 -45q-79 0 -144 45zM425 190q30 12 53 35
q47 47 47 115q0 31 -12 61t-36 54q-23 23 -53 35t-62 12t-61.5 -12t-52.5 -36q-23 -22 -34.5 -52t-11.5 -62q0 -69 46 -115q23 -23 53 -35t62 -12t62 12z" />
    <glyph glyph-name="yen" unicode="&#xa5;" horiz-adv-x="692" 
d="M545 763h147l-258 -432h125v-66h-146v-48h146v-66h-146v-151h-133v151h-147v66h147v48h-147v66h126l-260 432h148l198 -343z" />
    <glyph glyph-name="brokenbar" unicode="&#xa6;" horiz-adv-x="333" 
d="M218 444h-102v428h102v-428zM218 -110h-102v425h102v-425z" />
    <glyph glyph-name="section" unicode="&#xa7;" horiz-adv-x="713" 
d="M229 -214q-67 23 -113.5 73.5t-56.5 129.5h129q16 -61 65 -91t114 -30q66 0 106.5 28t40.5 77q0 40 -25 64.5t-62 37t-101 27.5q-9 1 -35 8q-95 22 -152 62.5t-57 126.5q0 42 19.5 76.5t63.5 63.5q-83 41 -83 134q0 63 35.5 108.5t96 69.5t134.5 24q107 0 181.5 -53.5
t93.5 -153.5h-122q-16 49 -57 75t-98 26q-60 0 -95.5 -24.5t-35.5 -67.5q0 -35 25.5 -56t60 -31.5t100.5 -24.5q72 -15 123 -36t86 -63.5t35 -113.5q0 -94 -75 -139q42 -23 58.5 -56.5t16.5 -77.5q0 -99 -72.5 -157.5t-200.5 -58.5q-76 0 -143 23zM514 247q0 39 -23 62
t-55.5 35t-91.5 26q-28 6 -46 12q-36 -6 -59.5 -26.5t-23.5 -51.5q0 -33 19.5 -52.5t51.5 -30.5t89 -24q48 -9 98 -24q41 28 41 74z" />
    <glyph glyph-name="dieresis" unicode="&#xa8;" horiz-adv-x="380" 
d="M31.5 651.5q-22.5 20.5 -22.5 51.5t22.5 51.5t54.5 20.5q33 0 55 -20.5t22 -51.5t-22 -51.5t-55 -20.5q-32 0 -54.5 20.5zM239 651.5q-22 20.5 -22 51.5t22 51.5t55 20.5q32 0 54.5 -20.5t22.5 -51.5t-22.5 -51.5t-54.5 -20.5q-33 0 -55 20.5z" />
    <glyph glyph-name="copyright" unicode="&#xa9;" horiz-adv-x="885" 
d="M246.5 44q-89.5 52 -142 141.5t-52.5 195.5q0 107 52 196.5t141.5 142t196.5 52.5q106 0 195.5 -52t141.5 -142t52 -197q0 -106 -52.5 -195.5t-141.5 -141.5t-195 -52t-195.5 52zM596 117q70 41 110.5 111t40.5 153q0 84 -40.5 154.5t-110.5 111.5t-154 41t-154 -41
t-111 -111.5t-41 -154.5q0 -83 41 -153t111 -111t154 -41t154 41zM332 191q-50 29 -79 79.5t-29 110.5q0 61 29 111t79 79.5t110 29.5q46 0 89.5 -19.5t74.5 -54.5l-64 -56q-41 46 -103 46q-37 0 -67.5 -18t-48.5 -49t-18 -69q0 -37 18 -68.5t48.5 -49.5t67.5 -18
q62 0 103 46l64 -55q-30 -35 -73.5 -54.5t-90.5 -19.5q-60 0 -110 29z" />
    <glyph glyph-name="ordfeminine" unicode="&#xaa;" horiz-adv-x="440" 
d="M77 398q-35 30 -35 84q0 55 42 86q31 22 91 34l124 24q0 39 -21 60q-19 21 -58 21q-30 0 -52.5 -17t-28.5 -46h-83q10 63 56.5 96.5t107.5 33.5q35 0 66 -10t52 -30q29 -26 36.5 -61.5t7.5 -84.5v-213h-83v56q-17 -28 -39 -41q-34 -22 -91 -22t-92 30zM241 447
q33 17 46 44.5t13 71.5l-104 -20q-42 -9 -58 -24q-13 -15 -13 -35q0 -23 17 -36t45 -13q30 0 54 12z" />
    <glyph glyph-name="guillemotleft" unicode="&#xab;" horiz-adv-x="574" 
d="M236 187v-101l-227 190l227 190v-101l-108 -90zM503 187v-101l-227 190l227 190v-101l-108 -90z" />
    <glyph glyph-name="uni00AD" unicode="&#xad;" horiz-adv-x="385" 
d="M385 284h-385v87h385v-87z" />
    <glyph glyph-name="registered" unicode="&#xae;" horiz-adv-x="489" 
d="M141.5 396q-46.5 27 -73.5 73.5t-27 102.5t27 102.5t73.5 73.5t102.5 27t102.5 -27t73.5 -73.5t27 -102.5t-27 -102.5t-73.5 -73.5t-102.5 -27t-102.5 27zM329 426q39 23 61.5 61.5t22.5 84.5t-22.5 85t-61.5 62t-85 23q-47 0 -86 -23t-61.5 -62t-22.5 -85t23 -85
t62 -61.5t85 -22.5t85 23zM162 454v236h102q35 0 55 -17t20 -52q0 -23 -9.5 -39.5t-28.5 -21.5l44 -106h-49l-37 94h-52v-94h-45zM258 588q17 0 26.5 8t9.5 23q0 14 -9.5 22.5t-26.5 8.5h-51v-62h51z" />
    <glyph glyph-name="macron" unicode="&#xaf;" horiz-adv-x="317" 
d="M308 644h-299v57h299v-57z" />
    <glyph glyph-name="degree" unicode="&#xb0;" horiz-adv-x="465" 
d="M154 482.5q-36 21.5 -57.5 57.5t-21.5 78q0 43 21.5 79t57.5 57t78 21q43 0 79 -21t57 -57t21 -79q0 -42 -21 -78.5t-57 -57.5t-79 -21q-42 0 -78 21.5zM288.5 563q23.5 23 23.5 55q0 33 -23.5 56t-56.5 23t-56 -23t-23 -56q0 -32 23 -55t56 -23t56.5 23z" />
    <glyph glyph-name="plusminus" unicode="&#xb1;" horiz-adv-x="695" 
d="M393 160h-91v154h-234v91h234v154h91v-154h234v-91h-234v-154zM627 0h-559v91h559v-91z" />
    <glyph glyph-name="acute" unicode="&#xb4;" horiz-adv-x="261" 
d="M104 614h-95l116 149h127z" />
    <glyph glyph-name="paragraph" unicode="&#xb6;" horiz-adv-x="637" 
d="M282 335q-65 4 -121 30.5t-89.5 74t-33.5 110.5q0 65 34 113.5t90 74t120 25.5h96v-873h-96v445zM565 -110h-97v873h97v-873z" />
    <glyph glyph-name="periodcentered" unicode="&#xb7;" horiz-adv-x="321" 
d="M104 343q-22 23 -22 55q0 33 22.5 55.5t54.5 22.5q33 0 56 -22.5t23 -55.5q0 -32 -23 -55t-56 -23t-55 23z" />
    <glyph glyph-name="cedilla" unicode="&#xb8;" horiz-adv-x="240" 
d="M9 -201v46q53 -19 88 -19q29 0 45.5 12t16.5 33q0 33 -35.5 45.5t-101.5 11.5l74 90h72q-17 -20 -30 -32.5t-37 -28.5l6 -9q12 2 31 2q29 0 45 -8q48 -20 48 -68q0 -43 -35.5 -66t-92.5 -23q-46 0 -94 14z" />
    <glyph glyph-name="ordmasculine" unicode="&#xba;" horiz-adv-x="478" 
d="M136.5 394q-44.5 26 -69.5 72.5t-25 106.5q0 58 25 104t69.5 71.5t101.5 25.5q58 0 103 -26t70 -71.5t25 -103.5q0 -60 -25 -106.5t-70 -72.5t-103 -26q-57 0 -101.5 26zM319.5 477.5q31.5 37.5 31.5 95.5q0 56 -31.5 92.5t-81.5 36.5q-49 0 -80.5 -36.5t-31.5 -92.5
q0 -59 31.5 -96t80.5 -37q50 0 81.5 37.5z" />
    <glyph glyph-name="guillemotright" unicode="&#xbb;" horiz-adv-x="574" 
d="M298 276l-227 -190v101l108 88l-108 90v101zM565 276l-227 -190v101l108 88l-108 90v101z" />
    <glyph glyph-name="questiondown" unicode="&#xbf;" horiz-adv-x="521" 
d="M313 547.5q21 -21.5 21 -51.5q0 -29 -21.5 -51t-51.5 -22q-29 0 -51 21.5t-22 50.5q0 31 21.5 52.5t51.5 21.5q31 0 52 -21.5zM314 297q0 -56 -15 -93.5t-36.5 -58.5t-55.5 -46q-39 -27 -57 -50t-18 -63q0 -52 33.5 -78.5t88.5 -26.5q61 0 96 35t40 100h107
q-3 -72 -35 -124.5t-85.5 -80t-121.5 -27.5q-66 0 -118.5 23.5t-83.5 70t-31 114.5q0 44 12.5 74t30.5 48.5t49 41.5q28 21 45 37.5t29.5 42t14.5 61.5l4 37h107v-37z" />
    <glyph glyph-name="Agrave" unicode="&#xc0;" horiz-adv-x="704" 
d="M141 0h-132l273 763h140l273 -763h-132l-56 167h-309zM352 627l-117 -349h234zM291 967l116 -149h-95l-148 149h127z" />
    <glyph glyph-name="Aacute" unicode="&#xc1;" horiz-adv-x="704" 
d="M141 0h-132l273 763h140l273 -763h-132l-56 167h-309zM352 627l-117 -349h234zM392 818h-95l116 149h127z" />
    <glyph glyph-name="Acircumflex" unicode="&#xc2;" horiz-adv-x="704" 
d="M141 0h-132l273 763h140l273 -763h-132l-56 167h-309zM352 627l-117 -349h234zM291 822h-111l165 173h14l165 -173h-111l-61 77z" />
    <glyph glyph-name="Atilde" unicode="&#xc3;" horiz-adv-x="704" 
d="M141 0h-132l273 763h140l273 -763h-132l-56 167h-309zM352 627l-117 -349h234zM366 825q-21 13 -43 36q-14 15 -22.5 21.5t-19.5 6.5q-31 0 -36 -74h-76q3 73 34 115t83 42q30 0 49.5 -12.5t43.5 -36.5q14 -14 23.5 -21t19.5 -7q14 0 23 18t10 54h78q-5 -79 -31 -117
t-81 -38q-34 0 -55 13z" />
    <glyph glyph-name="Adieresis" unicode="&#xc4;" horiz-adv-x="704" 
d="M141 0h-132l273 763h140l273 -763h-132l-56 167h-309zM352 627l-117 -349h234zM196 826.5q-21 19.5 -21 49.5t21.5 50t51.5 20t51.5 -20t21.5 -50q0 -29 -21.5 -49t-51.5 -20q-31 0 -52 19.5zM403.5 826.5q-21.5 19.5 -21.5 49.5t21.5 50t52.5 20q30 0 51 -20t21 -50
t-21 -49.5t-51 -19.5q-31 0 -52.5 19.5z" />
    <glyph glyph-name="Aring" unicode="&#xc5;" horiz-adv-x="704" 
d="M270 728q-20 16 -31 40t-11 51q0 52 36 88t88 36q33 0 62 -16.5t46 -45t17 -62.5q0 -27 -11 -51t-31 -40l260 -728h-132l-56 167h-309l-57 -167h-132zM391 780.5q15 15.5 15 40.5q0 22 -14.5 37t-39.5 15q-23 0 -38 -15t-15 -37q0 -25 15 -40.5t38 -15.5q24 0 39 15.5z
M352 628l-117 -350h234z" />
    <glyph glyph-name="AE" unicode="&#xc6;" horiz-adv-x="1054" 
d="M141 0h-132l273 763h490l41 -114h-349l76 -210h349l39 -113h-348l76 -212h349l40 -114h-484l-54 167h-309zM352 628l-117 -350h234z" />
    <glyph glyph-name="Ccedilla" unicode="&#xc7;" horiz-adv-x="760" 
d="M526 136q48 36 60 106h139q-18 -118 -101 -186.5t-218 -68.5h-7q-18 -16 -38 -30l6 -9q12 2 31 2q29 0 45 -8q48 -20 48 -68q0 -43 -35.5 -66t-92.5 -23q-46 0 -94 14v46q53 -19 88 -19q29 0 45.5 12t16.5 33q0 33 -35.5 45.5t-101.5 11.5l53 64q-96 16 -162 72
t-98 138.5t-32 179.5q0 108 40 197.5t121.5 142.5t201.5 53q135 0 218.5 -66t100.5 -176h-139q-12 61 -60.5 95t-121.5 34q-110 0 -170 -76.5t-60 -203.5t60 -204.5t170 -77.5q74 0 122 36z" />
    <glyph glyph-name="Egrave" unicode="&#xc8;" horiz-adv-x="619" 
d="M576 0h-505v763h505v-114h-378v-210h336v-113h-336v-212h378v-114zM263 967l116 -149h-95l-148 149h127z" />
    <glyph glyph-name="Eacute" unicode="&#xc9;" horiz-adv-x="619" 
d="M576 0h-505v763h505v-114h-378v-210h336v-113h-336v-212h378v-114zM364 818h-95l116 149h127z" />
    <glyph glyph-name="Ecircumflex" unicode="&#xca;" horiz-adv-x="619" 
d="M576 0h-505v763h505v-114h-378v-210h336v-113h-336v-212h378v-114zM263 822h-111l165 173h14l165 -173h-111l-61 77z" />
    <glyph glyph-name="Edieresis" unicode="&#xcb;" horiz-adv-x="619" 
d="M576 0h-505v763h505v-114h-378v-210h336v-113h-336v-212h378v-114zM168 826.5q-21 19.5 -21 49.5t21.5 50t51.5 20t51.5 -20t21.5 -50q0 -29 -21.5 -49t-51.5 -20q-31 0 -52 19.5zM375.5 826.5q-21.5 19.5 -21.5 49.5t21.5 50t52.5 20q30 0 51 -20t21 -50t-21 -49.5
t-51 -19.5q-31 0 -52.5 19.5z" />
    <glyph glyph-name="Igrave" unicode="&#xcc;" horiz-adv-x="271" 
d="M198 0h-127v763h127v-763zM74 967l116 -149h-95l-148 149h127z" />
    <glyph glyph-name="Iacute" unicode="&#xcd;" horiz-adv-x="271" 
d="M198 0h-127v763h127v-763zM175 818h-95l116 149h127z" />
    <glyph glyph-name="Icircumflex" unicode="&#xce;" horiz-adv-x="271" 
d="M198 0h-127v763h127v-763zM74 822h-111l165 173h14l165 -173h-111l-61 77z" />
    <glyph glyph-name="Idieresis" unicode="&#xcf;" horiz-adv-x="271" 
d="M198 0h-127v763h127v-763zM-21 826.5q-21 19.5 -21 49.5t21.5 50t51.5 20t51.5 -20t21.5 -50q0 -29 -21.5 -49t-51.5 -20q-31 0 -52 19.5zM186.5 826.5q-21.5 19.5 -21.5 49.5t21.5 50t52.5 20q30 0 51 -20t21 -50t-21 -49.5t-51 -19.5q-31 0 -52.5 19.5z" />
    <glyph glyph-name="Eth" unicode="&#xd0;" horiz-adv-x="730" 
d="M290 763q192 0 294 -99t102 -283q0 -183 -102.5 -282t-294.5 -99h-218v336h-67v91h67v336h219zM288 114q127 0 199 60.5t72 206.5q0 138 -71.5 203t-199.5 65h-90v-222h220v-91h-220v-222h90z" />
    <glyph glyph-name="Ntilde" unicode="&#xd1;" horiz-adv-x="746" 
d="M198 0h-127v763h154l323 -588v588h126v-763h-153l-323 588v-588zM386 825q-21 13 -43 36q-14 15 -22.5 21.5t-19.5 6.5q-31 0 -36 -74h-76q3 73 34 115t83 42q30 0 49.5 -12.5t43.5 -36.5q14 -14 23.5 -21t19.5 -7q14 0 23 18t10 54h78q-5 -79 -31 -117t-81 -38
q-34 0 -55 13z" />
    <glyph glyph-name="Ograve" unicode="&#xd2;" horiz-adv-x="817" 
d="M206 40.5q-82 53.5 -122.5 143t-40.5 198.5t40.5 198t122.5 142t202 53q119 0 201.5 -53t123 -142.5t40.5 -197.5q0 -109 -40.5 -198.5t-123 -143t-201.5 -53.5q-120 0 -202 53.5zM580.5 178q61.5 77 61.5 204q0 126 -61.5 203t-172.5 77q-73 0 -126 -35.5t-80.5 -99
t-27.5 -145.5q0 -83 27.5 -146.5t80.5 -99t126 -35.5q111 0 172.5 77zM347 967l116 -149h-95l-148 149h127z" />
    <glyph glyph-name="Oacute" unicode="&#xd3;" horiz-adv-x="817" 
d="M206 40.5q-82 53.5 -122.5 143t-40.5 198.5t40.5 198t122.5 142t202 53q119 0 201.5 -53t123 -142.5t40.5 -197.5q0 -109 -40.5 -198.5t-123 -143t-201.5 -53.5q-120 0 -202 53.5zM580.5 178q61.5 77 61.5 204q0 126 -61.5 203t-172.5 77q-73 0 -126 -35.5t-80.5 -99
t-27.5 -145.5q0 -83 27.5 -146.5t80.5 -99t126 -35.5q111 0 172.5 77zM447 818h-95l116 149h127z" />
    <glyph glyph-name="Ocircumflex" unicode="&#xd4;" horiz-adv-x="817" 
d="M206 40.5q-82 53.5 -122.5 143t-40.5 198.5t40.5 198t122.5 142t202 53q119 0 201.5 -53t123 -142.5t40.5 -197.5q0 -109 -40.5 -198.5t-123 -143t-201.5 -53.5q-120 0 -202 53.5zM580.5 178q61.5 77 61.5 204q0 126 -61.5 203t-172.5 77q-73 0 -126 -35.5t-80.5 -99
t-27.5 -145.5q0 -83 27.5 -146.5t80.5 -99t126 -35.5q111 0 172.5 77zM347 822h-111l165 173h14l165 -173h-111l-61 77z" />
    <glyph glyph-name="Otilde" unicode="&#xd5;" horiz-adv-x="817" 
d="M206 40.5q-82 53.5 -122.5 143t-40.5 198.5t40.5 198t122.5 142t202 53q119 0 201.5 -53t123 -142.5t40.5 -197.5q0 -109 -40.5 -198.5t-123 -143t-201.5 -53.5q-120 0 -202 53.5zM580.5 178q61.5 77 61.5 204q0 126 -61.5 203t-172.5 77q-73 0 -126 -35.5t-80.5 -99
t-27.5 -145.5q0 -83 27.5 -146.5t80.5 -99t126 -35.5q111 0 172.5 77zM421 825q-21 13 -43 36q-14 15 -22.5 21.5t-19.5 6.5q-31 0 -36 -74h-76q3 73 34 115t83 42q30 0 49.5 -12.5t43.5 -36.5q14 -14 23.5 -21t19.5 -7q14 0 23 18t10 54h78q-5 -79 -31 -117t-81 -38
q-34 0 -55 13z" />
    <glyph glyph-name="Odieresis" unicode="&#xd6;" horiz-adv-x="817" 
d="M206 40.5q-82 53.5 -122.5 143t-40.5 198.5t40.5 198t122.5 142t202 53q119 0 201.5 -53t123 -142.5t40.5 -197.5q0 -109 -40.5 -198.5t-123 -143t-201.5 -53.5q-120 0 -202 53.5zM580.5 178q61.5 77 61.5 204q0 126 -61.5 203t-172.5 77q-73 0 -126 -35.5t-80.5 -99
t-27.5 -145.5q0 -83 27.5 -146.5t80.5 -99t126 -35.5q111 0 172.5 77zM252 826.5q-21 19.5 -21 49.5t21.5 50t51.5 20t51.5 -20t21.5 -50q0 -29 -21.5 -49t-51.5 -20q-31 0 -52 19.5zM459.5 826.5q-21.5 19.5 -21.5 49.5t21.5 50t52.5 20q30 0 51 -20t21 -50t-21 -49.5
t-51 -19.5q-31 0 -52.5 19.5z" />
    <glyph glyph-name="multiply" unicode="&#xd7;" horiz-adv-x="567" 
d="M284 273l-166 -165l-64 64l165 166l-165 165l64 64l166 -165l165 165l64 -64l-165 -165l165 -166l-64 -64z" />
    <glyph glyph-name="Oslash" unicode="&#xd8;" horiz-adv-x="817" 
d="M707 625q33 -50 49.5 -112.5t16.5 -130.5q0 -109 -40.5 -198.5t-123 -143t-201.5 -53.5q-154 0 -250 91l-56 -56l-55 54l62 62q-33 50 -49.5 112.5t-16.5 131.5q0 109 40.5 198t122.5 142t202 53q154 0 249 -90l57 57l55 -55zM203 232l366 366q-62 64 -161 64
q-73 0 -126 -35.5t-80.5 -99t-27.5 -145.5q0 -86 29 -150zM580.5 178q61.5 77 61.5 204q0 84 -29 150l-366 -366q62 -65 161 -65q111 0 172.5 77z" />
    <glyph glyph-name="Ugrave" unicode="&#xd9;" horiz-adv-x="728" 
d="M138 62.5q-74 75.5 -74 209.5v491h127v-491q0 -172 173 -172q172 0 172 172v491h127v-491q0 -134 -73.5 -209.5t-225.5 -75.5t-226 75.5zM303 967l116 -149h-95l-148 149h127z" />
    <glyph glyph-name="Uacute" unicode="&#xda;" horiz-adv-x="728" 
d="M138 62.5q-74 75.5 -74 209.5v491h127v-491q0 -172 173 -172q172 0 172 172v491h127v-491q0 -134 -73.5 -209.5t-225.5 -75.5t-226 75.5zM403 818h-95l116 149h127z" />
    <glyph glyph-name="Ucircumflex" unicode="&#xdb;" horiz-adv-x="728" 
d="M138 62.5q-74 75.5 -74 209.5v491h127v-491q0 -172 173 -172q172 0 172 172v491h127v-491q0 -134 -73.5 -209.5t-225.5 -75.5t-226 75.5zM303 822h-111l165 173h14l165 -173h-111l-61 77z" />
    <glyph glyph-name="Udieresis" unicode="&#xdc;" horiz-adv-x="728" 
d="M138 62.5q-74 75.5 -74 209.5v491h127v-491q0 -172 173 -172q172 0 172 172v491h127v-491q0 -134 -73.5 -209.5t-225.5 -75.5t-226 75.5zM208 826.5q-21 19.5 -21 49.5t21.5 50t51.5 20t51.5 -20t21.5 -50q0 -29 -21.5 -49t-51.5 -20q-31 0 -52 19.5zM415.5 826.5
q-21.5 19.5 -21.5 49.5t21.5 50t52.5 20q30 0 51 -20t21 -50t-21 -49.5t-51 -19.5q-31 0 -52.5 19.5z" />
    <glyph glyph-name="Yacute" unicode="&#xdd;" horiz-adv-x="692" 
d="M413 0h-133v296l-281 467h148l198 -343l200 343h147l-279 -467v-296zM385 818h-95l116 149h127z" />
    <glyph glyph-name="Thorn" unicode="&#xde;" horiz-adv-x="653" 
d="M71 0v763h126v-105h188q112 0 177 -55t65 -164q0 -105 -66 -165t-176 -60h-188v-214h-126zM371 325q62 0 96.5 28.5t34.5 81.5q0 52 -34.5 80.5t-96.5 28.5h-174v-219h174z" />
    <glyph glyph-name="germandbls" unicode="&#xdf;" horiz-adv-x="684" 
d="M76 485q0 140 72 214.5t207 74.5q75 0 133.5 -25t91.5 -69.5t33 -101.5q0 -64 -26.5 -104.5t-81.5 -60.5q75 -18 111 -65.5t36 -129.5q0 -65 -33.5 -114.5t-94.5 -76.5t-141 -27h-77v105h68q77 0 118.5 32t41.5 90t-37 88.5t-107 30.5h-84v100h62q60 0 93.5 29.5
t33.5 81.5q0 51 -38 81.5t-101 30.5q-75 0 -118.5 -45t-43.5 -135v-489h-118v485z" />
    <glyph glyph-name="agrave" unicode="&#xe0;" horiz-adv-x="586" 
d="M92 32q-50 43 -50 120q0 78 61 123q44 32 130 49l177 33q-1 56 -30 86q-31 31 -84 31q-43 0 -75 -24.5t-40 -66.5h-118q14 90 80.5 138t153.5 48q50 0 93.5 -14t74.5 -42q41 -38 51.5 -89t10.5 -121v-303h-118v80q-22 -38 -56 -60q-47 -31 -129 -31t-132 43zM327 102
q47 24 65.5 63t18.5 103l-149 -29q-58 -12 -82 -34q-20 -20 -20 -50q0 -33 24.5 -51.5t65.5 -18.5t77 17zM239 763l116 -149h-95l-148 149h127z" />
    <glyph glyph-name="aacute" unicode="&#xe1;" horiz-adv-x="586" 
d="M92 32q-50 43 -50 120q0 78 61 123q44 32 130 49l177 33q-1 56 -30 86q-31 31 -84 31q-43 0 -75 -24.5t-40 -66.5h-118q14 90 80.5 138t153.5 48q50 0 93.5 -14t74.5 -42q41 -38 51.5 -89t10.5 -121v-303h-118v80q-22 -38 -56 -60q-47 -31 -129 -31t-132 43zM327 102
q47 24 65.5 63t18.5 103l-149 -29q-58 -12 -82 -34q-20 -20 -20 -50q0 -33 24.5 -51.5t65.5 -18.5t77 17zM339 614h-95l116 149h127z" />
    <glyph glyph-name="acircumflex" unicode="&#xe2;" horiz-adv-x="586" 
d="M92 32q-50 43 -50 120q0 78 61 123q44 32 130 49l177 33q-1 56 -30 86q-31 31 -84 31q-43 0 -75 -24.5t-40 -66.5h-118q14 90 80.5 138t153.5 48q50 0 93.5 -14t74.5 -42q41 -38 51.5 -89t10.5 -121v-303h-118v80q-22 -38 -56 -60q-47 -31 -129 -31t-132 43zM327 102
q47 24 65.5 63t18.5 103l-149 -29q-58 -12 -82 -34q-20 -20 -20 -50q0 -33 24.5 -51.5t65.5 -18.5t77 17zM239 618h-111l165 173h14l165 -173h-111l-61 77z" />
    <glyph glyph-name="atilde" unicode="&#xe3;" horiz-adv-x="586" 
d="M92 32q-50 43 -50 120q0 78 61 123q44 32 130 49l177 33q-1 56 -30 86q-31 31 -84 31q-43 0 -75 -24.5t-40 -66.5h-118q14 90 80.5 138t153.5 48q50 0 93.5 -14t74.5 -42q41 -38 51.5 -89t10.5 -121v-303h-118v80q-22 -38 -56 -60q-47 -31 -129 -31t-132 43zM327 102
q47 24 65.5 63t18.5 103l-149 -29q-58 -12 -82 -34q-20 -20 -20 -50q0 -33 24.5 -51.5t65.5 -18.5t77 17zM313 621q-21 13 -43 36q-14 15 -22.5 21.5t-19.5 6.5q-31 0 -36 -74h-76q3 73 34 115t83 42q30 0 49.5 -12.5t43.5 -36.5q14 -14 23.5 -21t19.5 -7q14 0 23 18t10 54
h78q-5 -79 -31 -117t-81 -38q-34 0 -55 13z" />
    <glyph glyph-name="adieresis" unicode="&#xe4;" horiz-adv-x="586" 
d="M92 32q-50 43 -50 120q0 78 61 123q44 32 130 49l177 33q-1 56 -30 86q-31 31 -84 31q-43 0 -75 -24.5t-40 -66.5h-118q14 90 80.5 138t153.5 48q50 0 93.5 -14t74.5 -42q41 -38 51.5 -89t10.5 -121v-303h-118v80q-22 -38 -56 -60q-47 -31 -129 -31t-132 43zM327 102
q47 24 65.5 63t18.5 103l-149 -29q-58 -12 -82 -34q-20 -20 -20 -50q0 -33 24.5 -51.5t65.5 -18.5t77 17zM141.5 651.5q-22.5 20.5 -22.5 51.5t22.5 51.5t54.5 20.5q33 0 55 -20.5t22 -51.5t-22 -51.5t-55 -20.5q-32 0 -54.5 20.5zM349 651.5q-22 20.5 -22 51.5t22 51.5
t55 20.5q32 0 54.5 -20.5t22.5 -51.5t-22.5 -51.5t-54.5 -20.5q-33 0 -55 20.5z" />
    <glyph glyph-name="aring" unicode="&#xe5;" horiz-adv-x="586" 
d="M92 32q-50 43 -50 120q0 78 61 123q44 32 130 49l177 33q-1 56 -30 86q-31 31 -84 31q-43 0 -75 -24.5t-40 -66.5h-118q14 90 80.5 138t153.5 48q50 0 93.5 -14t74.5 -42q41 -38 51.5 -89t10.5 -121v-303h-118v80q-22 -38 -56 -60q-47 -31 -129 -31t-132 43zM327 102
q47 24 65.5 63t18.5 103l-149 -29q-58 -12 -82 -34q-20 -20 -20 -50q0 -33 24.5 -51.5t65.5 -18.5t77 17zM236.5 592q-28.5 17 -45 46t-16.5 62q0 52 36.5 88t87.5 36t88 -36t37 -88t-36.5 -88.5t-88.5 -36.5q-34 0 -62.5 17zM338 661.5q15 15.5 15 40.5q0 22 -14.5 37
t-39.5 15q-23 0 -38 -15t-15 -37q0 -25 15 -40.5t38 -15.5q24 0 39 15.5z" />
    <glyph glyph-name="ae" unicode="&#xe6;" horiz-adv-x="1006" 
d="M965 255h-433q3 -34 18 -62q20 -47 57.5 -74t86.5 -27q50 0 86.5 26.5t52.5 66.5h122q-27 -87 -93.5 -141.5t-170.5 -54.5q-78 0 -139.5 33.5t-97.5 93.5h-7q-22 -58 -76 -91q-57 -36 -143 -36q-85 0 -135.5 43t-50.5 120q0 78 61 123q44 32 130 49l177 33q-1 56 -30 86
q-31 31 -84 31q-43 0 -75 -24.5t-40 -66.5h-118q14 90 80.5 138t153.5 48q50 0 93.5 -14t74.5 -42q9 -8 23 -26q75 82 200 82q74 0 137 -31.5t101.5 -95.5t38.5 -157v-30zM842 348q-2 30 -18 53q-20 35 -55 53.5t-78 18.5q-44 0 -78 -18.5t-54 -53.5q-16 -22 -20 -53h303z
M392.5 165q18.5 39 18.5 103l-149 -29q-58 -12 -82 -34q-20 -20 -20 -50q0 -33 24.5 -51.5t65.5 -18.5t77 17q47 24 65.5 63z" />
    <glyph glyph-name="ccedilla" unicode="&#xe7;" horiz-adv-x="614" 
d="M579 185q-19 -89 -86 -141t-163 -55q-19 -17 -40 -32l6 -9q12 2 31 2q29 0 45 -8q48 -20 48 -68q0 -43 -35.5 -66t-92.5 -23q-46 0 -94 14v46q53 -19 88 -19q29 0 45.5 12t16.5 33q0 33 -35.5 45.5t-101.5 11.5l54 66q-102 17 -162.5 95t-60.5 193q0 83 35 148.5t98 102
t145 36.5q99 0 167.5 -50t88.5 -136h-128q-14 42 -47.5 65t-80.5 23q-46 0 -82 -23.5t-56 -66.5t-20 -99q0 -58 20 -102t56 -68t82 -24q51 0 85.5 26t45.5 71h128z" />
    <glyph glyph-name="egrave" unicode="&#xe8;" horiz-adv-x="637" 
d="M175.5 26.5q-63.5 37.5 -98.5 103t-35 147.5q0 76 31.5 143t94 108t150.5 41q74 0 137.5 -31.5t102 -95.5t38.5 -157v-30h-434q6 -39 19 -62q20 -47 57.5 -74t85.5 -27q51 0 87.5 26.5t52.5 66.5h122q-27 -87 -94 -141.5t-171 -54.5q-82 0 -145.5 37.5zM473 348
q-4 31 -18 53q-20 35 -55 53.5t-78 18.5q-44 0 -78 -18.5t-55 -53.5q-13 -20 -20 -53h304zM257 763l116 -149h-95l-148 149h127z" />
    <glyph glyph-name="eacute" unicode="&#xe9;" horiz-adv-x="637" 
d="M175.5 26.5q-63.5 37.5 -98.5 103t-35 147.5q0 76 31.5 143t94 108t150.5 41q74 0 137.5 -31.5t102 -95.5t38.5 -157v-30h-434q6 -39 19 -62q20 -47 57.5 -74t85.5 -27q51 0 87.5 26.5t52.5 66.5h122q-27 -87 -94 -141.5t-171 -54.5q-82 0 -145.5 37.5zM473 348
q-4 31 -18 53q-20 35 -55 53.5t-78 18.5q-44 0 -78 -18.5t-55 -53.5q-13 -20 -20 -53h304zM358 614h-95l116 149h127z" />
    <glyph glyph-name="ecircumflex" unicode="&#xea;" horiz-adv-x="637" 
d="M175.5 26.5q-63.5 37.5 -98.5 103t-35 147.5q0 76 31.5 143t94 108t150.5 41q74 0 137.5 -31.5t102 -95.5t38.5 -157v-30h-434q6 -39 19 -62q20 -47 57.5 -74t85.5 -27q51 0 87.5 26.5t52.5 66.5h122q-27 -87 -94 -141.5t-171 -54.5q-82 0 -145.5 37.5zM473 348
q-4 31 -18 53q-20 35 -55 53.5t-78 18.5q-44 0 -78 -18.5t-55 -53.5q-13 -20 -20 -53h304zM257 618h-111l165 173h14l165 -173h-111l-61 77z" />
    <glyph glyph-name="edieresis" unicode="&#xeb;" horiz-adv-x="637" 
d="M175.5 26.5q-63.5 37.5 -98.5 103t-35 147.5q0 76 31.5 143t94 108t150.5 41q74 0 137.5 -31.5t102 -95.5t38.5 -157v-30h-434q6 -39 19 -62q20 -47 57.5 -74t85.5 -27q51 0 87.5 26.5t52.5 66.5h122q-27 -87 -94 -141.5t-171 -54.5q-82 0 -145.5 37.5zM473 348
q-4 31 -18 53q-20 35 -55 53.5t-78 18.5q-44 0 -78 -18.5t-55 -53.5q-13 -20 -20 -53h304zM159.5 651.5q-22.5 20.5 -22.5 51.5t22.5 51.5t54.5 20.5q33 0 55 -20.5t22 -51.5t-22 -51.5t-55 -20.5q-32 0 -54.5 20.5zM367 651.5q-22 20.5 -22 51.5t22 51.5t55 20.5
q32 0 54.5 -20.5t22.5 -51.5t-22.5 -51.5t-54.5 -20.5q-33 0 -55 20.5z" />
    <glyph glyph-name="igrave" unicode="&#xec;" horiz-adv-x="247" 
d="M183 0h-118v559h118v-559zM63 763l116 -149h-95l-148 149h127z" />
    <glyph glyph-name="iacute" unicode="&#xed;" horiz-adv-x="247" 
d="M183 0h-118v559h118v-559zM164 614h-95l116 149h127z" />
    <glyph glyph-name="icircumflex" unicode="&#xee;" horiz-adv-x="247" 
d="M183 0h-118v559h118v-559zM63 618h-111l165 173h14l165 -173h-111l-61 77z" />
    <glyph glyph-name="idieresis" unicode="&#xef;" horiz-adv-x="247" 
d="M183 0h-118v559h118v-559zM-34.5 651.5q-22.5 20.5 -22.5 51.5t22.5 51.5t54.5 20.5q33 0 55 -20.5t22 -51.5t-22 -51.5t-55 -20.5q-32 0 -54.5 20.5zM173 651.5q-22 20.5 -22 51.5t22 51.5t55 20.5q32 0 54.5 -20.5t22.5 -51.5t-22.5 -51.5t-54.5 -20.5q-33 0 -55 20.5z
" />
    <glyph glyph-name="eth" unicode="&#xf0;" horiz-adv-x="611" 
d="M148.5 22q-58.5 34 -91 94t-32.5 136q0 75 30.5 131t85.5 86.5t127 30.5q52 0 99.5 -21t83.5 -64q0 63 -16.5 116t-47.5 88l-129 -74l-32 55l101 58q-37 14 -68 14q-46 0 -88 -20l-54 93q64 30 146 30q101 0 172 -54l74 42l32 -55l-59 -34q84 -107 84 -307
q0 -179 -72.5 -279t-211.5 -100q-75 0 -133.5 34zM361.5 115.5q34.5 20.5 54 56.5t19.5 81q0 41 -20 75t-54 53.5t-76 19.5t-75 -19.5t-51.5 -53.5t-18.5 -75q0 -43 18.5 -79.5t51.5 -57.5t74 -21q43 0 77.5 20.5z" />
    <glyph glyph-name="ntilde" unicode="&#xf1;" horiz-adv-x="595" 
d="M65 0v559h118v-76q35 48 72 67t84 19q126 0 171 -91q17 -33 21 -67t4 -84v-327h-119v327q0 44 -6.5 72t-21.5 44q-24 27 -76 27q-61 0 -91 -36q-20 -23 -29 -61t-9 -104v-269h-118zM312 621q-21 13 -43 36q-14 15 -22.5 21.5t-19.5 6.5q-31 0 -36 -74h-76q3 73 34 115
t83 42q30 0 49.5 -12.5t43.5 -36.5q14 -14 23.5 -21t19.5 -7q14 0 23 18t10 54h78q-5 -79 -31 -117t-81 -38q-34 0 -55 13z" />
    <glyph glyph-name="ograve" unicode="&#xf2;" horiz-adv-x="647" 
d="M177 26q-64 37 -99.5 103.5t-35.5 152.5q0 83 35.5 148.5t99.5 102t146 36.5t146 -36.5t100 -102t36 -148.5q0 -85 -35.5 -151.5t-99.5 -104t-147 -37.5q-82 0 -146 37zM406 116.5q37 24.5 57.5 67.5t20.5 98q0 52 -20.5 94.5t-57.5 66.5t-83 24t-83 -23.5t-57.5 -66
t-20.5 -95.5q0 -56 21 -99t57.5 -67t82.5 -24t83 24.5zM262 763l116 -149h-95l-148 149h127z" />
    <glyph glyph-name="oacute" unicode="&#xf3;" horiz-adv-x="647" 
d="M177 26q-64 37 -99.5 103.5t-35.5 152.5q0 83 35.5 148.5t99.5 102t146 36.5t146 -36.5t100 -102t36 -148.5q0 -85 -35.5 -151.5t-99.5 -104t-147 -37.5q-82 0 -146 37zM406 116.5q37 24.5 57.5 67.5t20.5 98q0 52 -20.5 94.5t-57.5 66.5t-83 24t-83 -23.5t-57.5 -66
t-20.5 -95.5q0 -56 21 -99t57.5 -67t82.5 -24t83 24.5zM363 614h-95l116 149h127z" />
    <glyph glyph-name="ocircumflex" unicode="&#xf4;" horiz-adv-x="647" 
d="M177 26q-64 37 -99.5 103.5t-35.5 152.5q0 83 35.5 148.5t99.5 102t146 36.5t146 -36.5t100 -102t36 -148.5q0 -85 -35.5 -151.5t-99.5 -104t-147 -37.5q-82 0 -146 37zM406 116.5q37 24.5 57.5 67.5t20.5 98q0 52 -20.5 94.5t-57.5 66.5t-83 24t-83 -23.5t-57.5 -66
t-20.5 -95.5q0 -56 21 -99t57.5 -67t82.5 -24t83 24.5zM262 618h-111l165 173h14l165 -173h-111l-61 77z" />
    <glyph glyph-name="otilde" unicode="&#xf5;" horiz-adv-x="647" 
d="M177 26q-64 37 -99.5 103.5t-35.5 152.5q0 83 35.5 148.5t99.5 102t146 36.5t146 -36.5t100 -102t36 -148.5q0 -85 -35.5 -151.5t-99.5 -104t-147 -37.5q-82 0 -146 37zM406 116.5q37 24.5 57.5 67.5t20.5 98q0 52 -20.5 94.5t-57.5 66.5t-83 24t-83 -23.5t-57.5 -66
t-20.5 -95.5q0 -56 21 -99t57.5 -67t82.5 -24t83 24.5zM337 621q-21 13 -43 36q-14 15 -22.5 21.5t-19.5 6.5q-31 0 -36 -74h-76q3 73 34 115t83 42q30 0 49.5 -12.5t43.5 -36.5q14 -14 23.5 -21t19.5 -7q14 0 23 18t10 54h78q-5 -79 -31 -117t-81 -38q-34 0 -55 13z" />
    <glyph glyph-name="odieresis" unicode="&#xf6;" horiz-adv-x="647" 
d="M177 26q-64 37 -99.5 103.5t-35.5 152.5q0 83 35.5 148.5t99.5 102t146 36.5t146 -36.5t100 -102t36 -148.5q0 -85 -35.5 -151.5t-99.5 -104t-147 -37.5q-82 0 -146 37zM406 116.5q37 24.5 57.5 67.5t20.5 98q0 52 -20.5 94.5t-57.5 66.5t-83 24t-83 -23.5t-57.5 -66
t-20.5 -95.5q0 -56 21 -99t57.5 -67t82.5 -24t83 24.5zM164.5 651.5q-22.5 20.5 -22.5 51.5t22.5 51.5t54.5 20.5q33 0 55 -20.5t22 -51.5t-22 -51.5t-55 -20.5q-32 0 -54.5 20.5zM372 651.5q-22 20.5 -22 51.5t22 51.5t55 20.5q32 0 54.5 -20.5t22.5 -51.5t-22.5 -51.5
t-54.5 -20.5q-33 0 -55 20.5z" />
    <glyph glyph-name="divide" unicode="&#xf7;" horiz-adv-x="500" 
d="M316 454h-133v138h133v-138zM473 294h-447v91h447v-91zM316 76h-133v140h133v-140z" />
    <glyph glyph-name="oslash" unicode="&#xf8;" horiz-adv-x="647" 
d="M554 455q51 -73 51 -173q0 -85 -35.5 -151.5t-99.5 -104t-147 -37.5q-104 0 -178 58l-47 -47l-55 54l50 50q-51 74 -51 178q0 83 35.5 148.5t99.5 102t146 36.5q104 0 178 -58l48 48l54 -55zM180 190l241 242q-41 35 -98 35q-46 0 -83 -23.5t-57.5 -66t-20.5 -95.5
q0 -51 18 -92zM406 116.5q37 24.5 57.5 67.5t20.5 98q0 47 -17 86l-242 -241q43 -35 98 -35q46 0 83 24.5z" />
    <glyph glyph-name="ugrave" unicode="&#xf9;" horiz-adv-x="596" 
d="M86 81q-13 27 -18.5 60.5t-5.5 90.5v327h118v-328q0 -84 29 -116q24 -27 76 -27q57 0 90 36q21 23 30 61.5t9 103.5v270h118v-559h-118v76q-35 -46 -71.5 -66.5t-85.5 -20.5q-126 0 -171 92zM237 763l116 -149h-95l-148 149h127z" />
    <glyph glyph-name="uacute" unicode="&#xfa;" horiz-adv-x="596" 
d="M86 81q-13 27 -18.5 60.5t-5.5 90.5v327h118v-328q0 -84 29 -116q24 -27 76 -27q57 0 90 36q21 23 30 61.5t9 103.5v270h118v-559h-118v76q-35 -46 -71.5 -66.5t-85.5 -20.5q-126 0 -171 92zM338 614h-95l116 149h127z" />
    <glyph glyph-name="ucircumflex" unicode="&#xfb;" horiz-adv-x="596" 
d="M86 81q-13 27 -18.5 60.5t-5.5 90.5v327h118v-328q0 -84 29 -116q24 -27 76 -27q57 0 90 36q21 23 30 61.5t9 103.5v270h118v-559h-118v76q-35 -46 -71.5 -66.5t-85.5 -20.5q-126 0 -171 92zM237 618h-111l165 173h14l165 -173h-111l-61 77z" />
    <glyph glyph-name="udieresis" unicode="&#xfc;" horiz-adv-x="596" 
d="M86 81q-13 27 -18.5 60.5t-5.5 90.5v327h118v-328q0 -84 29 -116q24 -27 76 -27q57 0 90 36q21 23 30 61.5t9 103.5v270h118v-559h-118v76q-35 -46 -71.5 -66.5t-85.5 -20.5q-126 0 -171 92zM139.5 651.5q-22.5 20.5 -22.5 51.5t22.5 51.5t54.5 20.5q33 0 55 -20.5
t22 -51.5t-22 -51.5t-55 -20.5q-32 0 -54.5 20.5zM347 651.5q-22 20.5 -22 51.5t22 51.5t55 20.5q32 0 54.5 -20.5t22.5 -51.5t-22.5 -51.5t-54.5 -20.5q-33 0 -55 20.5z" />
    <glyph glyph-name="yacute" unicode="&#xfd;" horiz-adv-x="560" 
d="M70 -204v101h59q31 0 46.5 9.5t28.5 41.5l20 54l-210 557h128l144 -419l130 419h128l-228 -640q-25 -70 -59 -96.5t-97 -26.5h-90zM317 614h-95l116 149h127z" />
    <glyph glyph-name="thorn" unicode="&#xfe;" horiz-adv-x="640" 
d="M65 -204v967h118v-280q36 48 74.5 67t92.5 19q73 0 128.5 -36.5t86.5 -102.5t31 -151t-31 -151t-86.5 -102.5t-128.5 -36.5q-53 0 -92 19t-75 68v-280h-118zM436 144q41 53 41 135t-41 135t-110 53q-45 0 -80 -24t-55 -67t-20 -97t20 -97t55 -67t80 -24q69 0 110 53z" />
    <glyph glyph-name="ydieresis" unicode="&#xff;" horiz-adv-x="560" 
d="M70 -204v101h59q31 0 46.5 9.5t28.5 41.5l20 54l-210 557h128l144 -419l130 419h128l-228 -640q-25 -70 -59 -96.5t-97 -26.5h-90zM118.5 651.5q-22.5 20.5 -22.5 51.5t22.5 51.5t54.5 20.5q33 0 55 -20.5t22 -51.5t-22 -51.5t-55 -20.5q-32 0 -54.5 20.5zM326 651.5
q-22 20.5 -22 51.5t22 51.5t55 20.5q32 0 54.5 -20.5t22.5 -51.5t-22.5 -51.5t-54.5 -20.5q-33 0 -55 20.5z" />
    <glyph glyph-name="Amacron" unicode="&#x100;" horiz-adv-x="704" 
d="M141 0h-132l273 763h140l273 -763h-132l-56 167h-309zM352 627l-117 -349h234zM502 848h-299v57h299v-57z" />
    <glyph glyph-name="amacron" unicode="&#x101;" horiz-adv-x="586" 
d="M92 32q-50 43 -50 120q0 78 61 123q44 32 130 49l177 33q-1 56 -30 86q-31 31 -84 31q-43 0 -75 -24.5t-40 -66.5h-118q14 90 80.5 138t153.5 48q50 0 93.5 -14t74.5 -42q41 -38 51.5 -89t10.5 -121v-303h-118v80q-22 -38 -56 -60q-47 -31 -129 -31t-132 43zM327 102
q47 24 65.5 63t18.5 103l-149 -29q-58 -12 -82 -34q-20 -20 -20 -50q0 -33 24.5 -51.5t65.5 -18.5t77 17zM449 644h-299v57h299v-57z" />
    <glyph glyph-name="Abreve" unicode="&#x102;" horiz-adv-x="704" 
d="M141 0h-132l273 763h140l273 -763h-132l-56 167h-309zM352 627l-117 -349h234zM230 852q-42 40 -47 113h74q4 -40 29.5 -60.5t65.5 -20.5q39 0 64 20.5t29 60.5h75q-4 -72 -47 -112.5t-121 -40.5q-80 0 -122 40z" />
    <glyph glyph-name="abreve" unicode="&#x103;" horiz-adv-x="586" 
d="M92 32q-50 43 -50 120q0 78 61 123q44 32 130 49l177 33q-1 56 -30 86q-31 31 -84 31q-43 0 -75 -24.5t-40 -66.5h-118q14 90 80.5 138t153.5 48q50 0 93.5 -14t74.5 -42q41 -38 51.5 -89t10.5 -121v-303h-118v80q-22 -38 -56 -60q-47 -31 -129 -31t-132 43zM327 102
q47 24 65.5 63t18.5 103l-149 -29q-58 -12 -82 -34q-20 -20 -20 -50q0 -33 24.5 -51.5t65.5 -18.5t77 17zM178 648q-42 40 -47 113h74q4 -40 29.5 -60.5t65.5 -20.5q39 0 64 20.5t29 60.5h75q-4 -72 -47 -112.5t-121 -40.5q-80 0 -122 40z" />
    <glyph glyph-name="Aogonek" unicode="&#x104;" horiz-adv-x="704" 
d="M141 0h-132l273 763h140l273 -763h-132l-56 167h-309zM352 627l-117 -349h234zM550.5 -191.5q-29.5 23.5 -29.5 64.5q0 38 24.5 64t78.5 46v17h71q-55 -44 -71.5 -61t-16.5 -40q0 -19 11.5 -29.5t33.5 -10.5t43 9v-74q-35 -9 -63 -9q-52 0 -81.5 23.5z" />
    <glyph glyph-name="aogonek" unicode="&#x105;" horiz-adv-x="586" 
d="M451.5 -130.5q11.5 -10.5 33.5 -10.5t43 9v-74q-34 -9 -63 -9q-52 0 -81.5 23.5t-29.5 64.5q0 38 24.5 64t78.5 46v17h-48v80q-22 -38 -56 -60q-47 -31 -129 -31t-132 43t-50 120q0 78 61 123q44 32 130 49l177 33q-1 56 -30 86q-31 31 -84 31q-43 0 -75 -24.5t-40 -66.5
h-118q14 90 80.5 138t153.5 48q50 0 93.5 -14t74.5 -42q41 -38 51.5 -89t10.5 -121v-303h1q-55 -44 -71.5 -61t-16.5 -40q0 -19 11.5 -29.5zM392.5 165q18.5 39 18.5 103l-149 -29q-58 -12 -82 -34q-20 -20 -20 -50q0 -33 24.5 -51.5t65.5 -18.5t77 17q47 24 65.5 63z" />
    <glyph glyph-name="Cacute" unicode="&#x106;" horiz-adv-x="760" 
d="M204.5 40.5q-81.5 53.5 -121.5 143.5t-40 198t40 197.5t121.5 142.5t201.5 53q135 0 218.5 -66t100.5 -176h-139q-12 61 -60.5 95t-121.5 34q-110 0 -170 -76.5t-60 -203.5t60 -204.5t170 -77.5q74 0 122 36t60 106h139q-18 -118 -101 -186.5t-218 -68.5
q-120 0 -201.5 53.5zM418 818h-95l116 149h127z" />
    <glyph glyph-name="cacute" unicode="&#x107;" horiz-adv-x="614" 
d="M175 26q-63 37 -98 103.5t-35 152.5q0 83 35 148.5t98 102t145 36.5q99 0 167.5 -50t88.5 -136h-128q-14 42 -47.5 65t-80.5 23q-46 0 -82 -23.5t-56 -66.5t-20 -99q0 -58 20 -102t56 -68t82 -24q51 0 85.5 26t45.5 71h128q-19 -92 -89 -144t-170 -52q-82 0 -145 37z
M348 614h-95l116 149h127z" />
    <glyph glyph-name="Cdotaccent" unicode="&#x10a;" horiz-adv-x="760" 
d="M204.5 40.5q-81.5 53.5 -121.5 143.5t-40 198t40 197.5t121.5 142.5t201.5 53q135 0 218.5 -66t100.5 -176h-139q-12 61 -60.5 95t-121.5 34q-110 0 -170 -76.5t-60 -203.5t60 -204.5t170 -77.5q74 0 122 36t60 106h139q-18 -118 -101 -186.5t-218 -68.5
q-120 0 -201.5 53.5zM327 826.5q-21 19.5 -21 49.5t21.5 50t51.5 20t51.5 -20t21.5 -50q0 -29 -21.5 -49t-51.5 -20q-31 0 -52 19.5z" />
    <glyph glyph-name="cdotaccent" unicode="&#x10b;" horiz-adv-x="614" 
d="M175 26q-63 37 -98 103.5t-35 152.5q0 83 35 148.5t98 102t145 36.5q99 0 167.5 -50t88.5 -136h-128q-14 42 -47.5 65t-80.5 23q-46 0 -82 -23.5t-56 -66.5t-20 -99q0 -58 20 -102t56 -68t82 -24q51 0 85.5 26t45.5 71h128q-19 -92 -89 -144t-170 -52q-82 0 -145 37z
M253.5 651.5q-22.5 20.5 -22.5 51.5t22.5 51.5t54.5 20.5q33 0 55 -20.5t22 -51.5t-22 -51.5t-55 -20.5q-32 0 -54.5 20.5z" />
    <glyph glyph-name="Ccaron" unicode="&#x10c;" horiz-adv-x="760" 
d="M204.5 40.5q-81.5 53.5 -121.5 143.5t-40 198t40 197.5t121.5 142.5t201.5 53q135 0 218.5 -66t100.5 -176h-139q-12 61 -60.5 95t-121.5 34q-110 0 -170 -76.5t-60 -203.5t60 -204.5t170 -77.5q74 0 122 36t60 106h139q-18 -118 -101 -186.5t-218 -68.5
q-120 0 -201.5 53.5zM386 795h-14l-165 173h111l61 -78l61 78h111z" />
    <glyph glyph-name="ccaron" unicode="&#x10d;" horiz-adv-x="614" 
d="M175 26q-63 37 -98 103.5t-35 152.5q0 83 35 148.5t98 102t145 36.5q99 0 167.5 -50t88.5 -136h-128q-14 42 -47.5 65t-80.5 23q-46 0 -82 -23.5t-56 -66.5t-20 -99q0 -58 20 -102t56 -68t82 -24q51 0 85.5 26t45.5 71h128q-19 -92 -89 -144t-170 -52q-82 0 -145 37z
M315 591h-14l-165 173h111l61 -78l61 78h111z" />
    <glyph glyph-name="Dcaron" unicode="&#x10e;" horiz-adv-x="730" 
d="M71 0v763h219q192 0 294 -99t102 -283q0 -183 -102.5 -282t-294.5 -99h-218zM288 114q127 0 199 60.5t72 206.5q0 138 -71.5 203t-199.5 65h-90v-535h90zM360 795h-14l-165 173h111l61 -78l61 78h111z" />
    <glyph glyph-name="dcaron" unicode="&#x10f;" horiz-adv-x="640" 
d="M161.5 25.5q-55.5 36.5 -86.5 102.5t-31 151t31 151t86.5 102.5t128.5 36.5q53 0 92 -19t75 -67v280h118v-763h-118v76q-36 -48 -74.5 -67.5t-92.5 -19.5q-73 0 -128.5 36.5zM394 115q35 24 55 67t20 97t-20 97t-55 67t-80 24q-69 0 -110 -53t-41 -135t41 -135t110 -53
q45 0 80 24zM668 529q47 4 74.5 28.5t30.5 64.5l1 12q0 5 -2 17q-14 -23 -47 -23q-25 0 -43.5 19.5t-18.5 50.5q0 34 21.5 55t57.5 21q46 0 71.5 -35t25.5 -92q0 -70 -41.5 -121.5t-129.5 -57.5v61z" />
    <glyph glyph-name="Dcroat" unicode="&#x110;" horiz-adv-x="730" 
d="M290 763q192 0 294 -99t102 -283q0 -183 -102.5 -282t-294.5 -99h-218v336h-67v91h67v336h219zM288 114q127 0 199 60.5t72 206.5q0 138 -71.5 203t-199.5 65h-90v-222h220v-91h-220v-222h90z" />
    <glyph glyph-name="Emacron" unicode="&#x112;" horiz-adv-x="619" 
d="M576 0h-505v763h505v-114h-378v-210h336v-113h-336v-212h378v-114zM474 848h-299v57h299v-57z" />
    <glyph glyph-name="emacron" unicode="&#x113;" horiz-adv-x="637" 
d="M175.5 26.5q-63.5 37.5 -98.5 103t-35 147.5q0 76 31.5 143t94 108t150.5 41q74 0 137.5 -31.5t102 -95.5t38.5 -157v-30h-434q6 -39 19 -62q20 -47 57.5 -74t85.5 -27q51 0 87.5 26.5t52.5 66.5h122q-27 -87 -94 -141.5t-171 -54.5q-82 0 -145.5 37.5zM473 348
q-4 31 -18 53q-20 35 -55 53.5t-78 18.5q-44 0 -78 -18.5t-55 -53.5q-13 -20 -20 -53h304zM468 644h-299v57h299v-57z" />
    <glyph glyph-name="Edotaccent" unicode="&#x116;" horiz-adv-x="619" 
d="M576 0h-505v763h505v-114h-378v-210h336v-113h-336v-212h378v-114zM272 826.5q-21 19.5 -21 49.5t21.5 50t51.5 20t51.5 -20t21.5 -50q0 -29 -21.5 -49t-51.5 -20q-31 0 -52 19.5z" />
    <glyph glyph-name="edotaccent" unicode="&#x117;" horiz-adv-x="637" 
d="M175.5 26.5q-63.5 37.5 -98.5 103t-35 147.5q0 76 31.5 143t94 108t150.5 41q74 0 137.5 -31.5t102 -95.5t38.5 -157v-30h-434q6 -39 19 -62q20 -47 57.5 -74t85.5 -27q51 0 87.5 26.5t52.5 66.5h122q-27 -87 -94 -141.5t-171 -54.5q-82 0 -145.5 37.5zM473 348
q-4 31 -18 53q-20 35 -55 53.5t-78 18.5q-44 0 -78 -18.5t-55 -53.5q-13 -20 -20 -53h304zM263.5 651.5q-22.5 20.5 -22.5 51.5t22.5 51.5t54.5 20.5q33 0 55 -20.5t22 -51.5t-22 -51.5t-55 -20.5q-32 0 -54.5 20.5z" />
    <glyph glyph-name="Eogonek" unicode="&#x118;" horiz-adv-x="619" 
d="M576 0h-505v763h505v-114h-378v-210h336v-113h-336v-212h378v-114zM431.5 -191.5q-29.5 23.5 -29.5 64.5q0 38 24.5 64t78.5 46v17h71q-55 -44 -71.5 -61t-16.5 -40q0 -19 11.5 -29.5t33.5 -10.5t43 9v-74q-35 -9 -63 -9q-52 0 -81.5 23.5z" />
    <glyph glyph-name="eogonek" unicode="&#x119;" horiz-adv-x="637" 
d="M596 255h-434q6 -39 19 -62q20 -47 57.5 -74t85.5 -27q51 0 87.5 26.5t52.5 66.5h122q-29 -96 -104 -149q-47 -37 -62.5 -54t-15.5 -39q0 -19 11.5 -29.5t33.5 -10.5t43 9v-74q-35 -9 -63 -9q-52 0 -81.5 23.5t-29.5 64.5q0 45 35 73q-11 -1 -32 -1q-82 0 -145.5 37.5
t-98.5 103t-35 147.5q0 76 31.5 143t94 108t150.5 41q74 0 137.5 -31.5t102 -95.5t38.5 -157v-30zM473 348q-4 31 -18 53q-20 35 -55 53.5t-78 18.5q-44 0 -78 -18.5t-55 -53.5q-13 -20 -20 -53h304z" />
    <glyph glyph-name="Ecaron" unicode="&#x11a;" horiz-adv-x="619" 
d="M576 0h-505v763h505v-114h-378v-210h336v-113h-336v-212h378v-114zM331 795h-14l-165 173h111l61 -78l61 78h111z" />
    <glyph glyph-name="ecaron" unicode="&#x11b;" horiz-adv-x="637" 
d="M175.5 26.5q-63.5 37.5 -98.5 103t-35 147.5q0 76 31.5 143t94 108t150.5 41q74 0 137.5 -31.5t102 -95.5t38.5 -157v-30h-434q6 -39 19 -62q20 -47 57.5 -74t85.5 -27q51 0 87.5 26.5t52.5 66.5h122q-27 -87 -94 -141.5t-171 -54.5q-82 0 -145.5 37.5zM473 348
q-4 31 -18 53q-20 35 -55 53.5t-78 18.5q-44 0 -78 -18.5t-55 -53.5q-13 -20 -20 -53h304zM325 591h-14l-165 173h111l61 -78l61 78h111z" />
    <glyph glyph-name="Gbreve" unicode="&#x11e;" horiz-adv-x="815" 
d="M206 41q-83 54 -123.5 143.5t-40.5 196.5t40.5 196.5t123.5 143.5t204 54q138 0 224.5 -64.5t114.5 -176.5h-141q-21 61 -71.5 94.5t-127.5 33.5t-130 -37t-79.5 -100.5t-26.5 -141.5q0 -81 28 -145t83 -101t134 -37q98 0 155.5 53t58.5 150h-173v107h299v-410h-116v94
q-38 -55 -99.5 -81t-131.5 -26q-122 0 -205 54zM286 852q-42 40 -47 113h74q4 -40 29.5 -60.5t65.5 -20.5q39 0 64 20.5t29 60.5h75q-4 -72 -47 -112.5t-121 -40.5q-80 0 -122 40z" />
    <glyph glyph-name="gbreve" unicode="&#x11f;" horiz-adv-x="641" 
d="M148.5 -174q-70.5 41 -86.5 139h119q13 -44 46 -64.5t90 -20.5q72 0 106.5 33t34.5 91v80q-35 -49 -74 -68t-92 -19q-73 0 -129 36.5t-87 101.5t-31 147q0 83 31 148.5t87 102t128 36.5q54 0 92.5 -19t74.5 -67v76h118v-528q0 -134 -68.5 -190t-189.5 -56
q-99 0 -169.5 41zM395.5 123q35.5 24 55 65.5t19.5 94.5q0 52 -20 94t-55 66t-80 24q-68 0 -109.5 -52.5t-41.5 -131.5q0 -80 41.5 -132t109.5 -52q45 0 80.5 24zM199 648q-42 40 -47 113h74q4 -40 29.5 -60.5t65.5 -20.5q39 0 64 20.5t29 60.5h75q-4 -72 -47 -112.5
t-121 -40.5q-80 0 -122 40z" />
    <glyph glyph-name="Gdotaccent" unicode="&#x120;" horiz-adv-x="815" 
d="M206 41q-83 54 -123.5 143.5t-40.5 196.5t40.5 196.5t123.5 143.5t204 54q138 0 224.5 -64.5t114.5 -176.5h-141q-21 61 -71.5 94.5t-127.5 33.5t-130 -37t-79.5 -100.5t-26.5 -141.5q0 -81 28 -145t83 -101t134 -37q98 0 155.5 53t58.5 150h-173v107h299v-410h-116v94
q-38 -55 -99.5 -81t-131.5 -26q-122 0 -205 54zM356 826.5q-21 19.5 -21 49.5t21.5 50t51.5 20t51.5 -20t21.5 -50q0 -29 -21.5 -49t-51.5 -20q-31 0 -52 19.5z" />
    <glyph glyph-name="gdotaccent" unicode="&#x121;" horiz-adv-x="641" 
d="M148.5 -174q-70.5 41 -86.5 139h119q13 -44 46 -64.5t90 -20.5q72 0 106.5 33t34.5 91v80q-35 -49 -74 -68t-92 -19q-73 0 -129 36.5t-87 101.5t-31 147q0 83 31 148.5t87 102t128 36.5q54 0 92.5 -19t74.5 -67v76h118v-528q0 -134 -68.5 -190t-189.5 -56
q-99 0 -169.5 41zM395.5 123q35.5 24 55 65.5t19.5 94.5q0 52 -20 94t-55 66t-80 24q-68 0 -109.5 -52.5t-41.5 -131.5q0 -80 41.5 -132t109.5 -52q45 0 80.5 24zM266.5 651.5q-22.5 20.5 -22.5 51.5t22.5 51.5t54.5 20.5q33 0 55 -20.5t22 -51.5t-22 -51.5t-55 -20.5
q-32 0 -54.5 20.5z" />
    <glyph glyph-name="uni0122" unicode="&#x122;" horiz-adv-x="815" 
d="M206 41q-83 54 -123.5 143.5t-40.5 196.5t40.5 196.5t123.5 143.5t204 54q138 0 224.5 -64.5t114.5 -176.5h-141q-21 61 -71.5 94.5t-127.5 33.5t-130 -37t-79.5 -100.5t-26.5 -141.5q0 -81 28 -145t83 -101t134 -37q98 0 155.5 53t58.5 150h-173v107h299v-410h-116v94
q-38 -55 -99.5 -81t-131.5 -26q-122 0 -205 54zM358 -172q66 0 72 36q0 2 0.5 5t-0.5 7h-9q-2 -8 -9.5 -12.5t-18.5 -4.5q-19 0 -31 12.5t-12 33.5q0 23 16 37t41 14q33 0 51.5 -20t18.5 -54q0 -86 -119 -86v32z" />
    <glyph glyph-name="uni0123" unicode="&#x123;" horiz-adv-x="641" 
d="M148.5 -174q-70.5 41 -86.5 139h119q13 -44 46 -64.5t90 -20.5q72 0 106.5 33t34.5 91v80q-35 -49 -74 -68t-92 -19q-73 0 -129 36.5t-87 101.5t-31 147q0 83 31 148.5t87 102t128 36.5q54 0 92.5 -19t74.5 -67v76h118v-528q0 -134 -68.5 -190t-189.5 -56
q-99 0 -169.5 41zM395.5 123q35.5 24 55 65.5t19.5 94.5q0 52 -20 94t-55 66t-80 24q-68 0 -109.5 -52.5t-41.5 -131.5q0 -80 41.5 -132t109.5 -52q45 0 80.5 24zM283.5 621q-20.5 25 -20.5 66q0 49 33.5 86t103.5 42v-44q-37 -3 -59 -20t-25 -46q0 -14 1 -21q11 16 38 16
q20 0 35 -14t15 -36q0 -24 -17.5 -39t-46.5 -15q-37 0 -57.5 25z" />
    <glyph glyph-name="Imacron" unicode="&#x12a;" horiz-adv-x="271" 
d="M198 0h-127v763h127v-763zM285 848h-299v57h299v-57z" />
    <glyph glyph-name="imacron" unicode="&#x12b;" horiz-adv-x="247" 
d="M183 0h-118v559h118v-559zM274 644h-299v57h299v-57z" />
    <glyph glyph-name="Iogonek" unicode="&#x12e;" horiz-adv-x="271" 
d="M198 0h-127v763h127v-763zM53.5 -191.5q-29.5 23.5 -29.5 64.5q0 38 24.5 64t78.5 46v17h71q-55 -44 -71.5 -61t-16.5 -40q0 -19 11.5 -29.5t33.5 -10.5t43 9v-74q-35 -9 -63 -9q-52 0 -81.5 23.5z" />
    <glyph glyph-name="iogonek" unicode="&#x12f;" horiz-adv-x="247" 
d="M183 0h-118v559h118v-559zM69.5 651.5q-22.5 20.5 -22.5 51.5t22.5 51.5t54.5 20.5q33 0 55 -20.5t22 -51.5t-22 -51.5t-55 -20.5q-32 0 -54.5 20.5zM38.5 -191.5q-29.5 23.5 -29.5 64.5q0 38 24.5 64t78.5 46v17h71q-55 -44 -71.5 -61t-16.5 -40q0 -19 11.5 -29.5
t33.5 -10.5t43 9v-74q-35 -9 -63 -9q-52 0 -81.5 23.5z" />
    <glyph glyph-name="Idotaccent" unicode="&#x130;" horiz-adv-x="271" 
d="M198 0h-127v763h127v-763zM83 826.5q-21 19.5 -21 49.5t21.5 50t51.5 20t51.5 -20t21.5 -50q0 -29 -21.5 -49t-51.5 -20q-31 0 -52 19.5z" />
    <glyph glyph-name="dotlessi" unicode="&#x131;" horiz-adv-x="247" 
d="M183 0h-118v559h118v-559z" />
    <glyph glyph-name="uni0136" unicode="&#x136;" horiz-adv-x="657" 
d="M198 0h-127v763h127v-342l285 342h157l-315 -368l327 -395h-160l-294 359v-359zM278 -172q66 0 72 36q0 2 0.5 5t-0.5 7h-9q-2 -8 -9.5 -12.5t-18.5 -4.5q-19 0 -31 12.5t-12 33.5q0 23 16 37t41 14q33 0 51.5 -20t18.5 -54q0 -86 -119 -86v32z" />
    <glyph glyph-name="uni0137" unicode="&#x137;" horiz-adv-x="582" 
d="M183 0h-118v763h118v-417l218 213h154l-256 -244l276 -315h-150l-242 282v-282zM236 -172q66 0 72 36q0 2 0.5 5t-0.5 7h-9q-2 -8 -9.5 -12.5t-18.5 -4.5q-19 0 -31 12.5t-12 33.5q0 23 16 37t41 14q33 0 51.5 -20t18.5 -54q0 -86 -119 -86v32z" />
    <glyph glyph-name="kgreenlandic" unicode="&#x138;" horiz-adv-x="582" 
d="M183 0h-118v559h118v-213l218 213h154l-256 -244l276 -315h-150l-242 282v-282z" />
    <glyph glyph-name="Lacute" unicode="&#x139;" horiz-adv-x="540" 
d="M528 0h-457v763h127v-649h330v-114zM175 818h-95l116 149h127z" />
    <glyph glyph-name="lacute" unicode="&#x13a;" horiz-adv-x="293" 
d="M193 0q-65 0 -98 30t-33 99v634h118v-603q0 -33 11.5 -47t41.5 -14h33v-99h-73zM161 818h-95l116 149h127z" />
    <glyph glyph-name="uni013B" unicode="&#x13b;" horiz-adv-x="540" 
d="M528 0h-457v763h127v-649h330v-114zM249 -172q66 0 72 36q0 2 0.5 5t-0.5 7h-9q-2 -8 -9.5 -12.5t-18.5 -4.5q-19 0 -31 12.5t-12 33.5q0 23 16 37t41 14q33 0 51.5 -20t18.5 -54q0 -86 -119 -86v32z" />
    <glyph glyph-name="uni013C" unicode="&#x13c;" horiz-adv-x="293" 
d="M193 0q-65 0 -98 30t-33 99v634h118v-603q0 -33 11.5 -47t41.5 -14h33v-99h-73zM86 -172q66 0 72 36q0 2 0.5 5t-0.5 7h-9q-2 -8 -9.5 -12.5t-18.5 -4.5q-19 0 -31 12.5t-12 33.5q0 23 16 37t41 14q33 0 51.5 -20t18.5 -54q0 -86 -119 -86v32z" />
    <glyph glyph-name="Lcaron" unicode="&#x13d;" horiz-adv-x="540" 
d="M528 0h-457v763h127v-649h330v-114zM368 529q47 4 74.5 28.5t30.5 64.5l1 12q0 5 -2 17q-14 -23 -47 -23q-25 0 -43.5 19.5t-18.5 50.5q0 34 21.5 55t57.5 21q46 0 71.5 -35t25.5 -92q0 -70 -41.5 -121.5t-129.5 -57.5v61z" />
    <glyph glyph-name="lcaron" unicode="&#x13e;" horiz-adv-x="293" 
d="M193 0q-65 0 -98 30t-33 99v634h118v-603q0 -33 11.5 -47t41.5 -14h33v-99h-73zM259 529q47 4 74.5 28.5t30.5 64.5l1 12q0 5 -2 17q-14 -23 -47 -23q-25 0 -43.5 19.5t-18.5 50.5q0 34 21.5 55t57.5 21q46 0 71.5 -35t25.5 -92q0 -70 -41.5 -121.5t-129.5 -57.5v61z" />
    <glyph glyph-name="Lslash" unicode="&#x141;" horiz-adv-x="579" 
d="M567 0h-457v316l-75 -37v102l75 39v343h127v-278l176 91v-102l-176 -91v-269h330v-114z" />
    <glyph glyph-name="lslash" unicode="&#x142;" horiz-adv-x="293" 
d="M266 99v-99h-73q-65 0 -98 30t-33 99v269l-45 -23v81l45 23v284h118v-223l69 36v-81l-69 -36v-299q0 -33 11.5 -47t41.5 -14h33z" />
    <glyph glyph-name="Nacute" unicode="&#x143;" horiz-adv-x="746" 
d="M198 0h-127v763h154l323 -588v588h126v-763h-153l-323 588v-588zM412 818h-95l116 149h127z" />
    <glyph glyph-name="nacute" unicode="&#x144;" horiz-adv-x="595" 
d="M65 0v559h118v-76q35 48 72 67t84 19q126 0 171 -91q17 -33 21 -67t4 -84v-327h-119v327q0 44 -6.5 72t-21.5 44q-24 27 -76 27q-61 0 -91 -36q-20 -23 -29 -61t-9 -104v-269h-118zM338 614h-95l116 149h127z" />
    <glyph glyph-name="uni0145" unicode="&#x145;" horiz-adv-x="746" 
d="M198 0h-127v763h154l323 -588v588h126v-763h-153l-323 588v-588zM322 -172q66 0 72 36q0 2 0.5 5t-0.5 7h-9q-2 -8 -9.5 -12.5t-18.5 -4.5q-19 0 -31 12.5t-12 33.5q0 23 16 37t41 14q33 0 51.5 -20t18.5 -54q0 -86 -119 -86v32z" />
    <glyph glyph-name="uni0146" unicode="&#x146;" horiz-adv-x="595" 
d="M65 0v559h118v-76q35 48 72 67t84 19q126 0 171 -91q17 -33 21 -67t4 -84v-327h-119v327q0 44 -6.5 72t-21.5 44q-24 27 -76 27q-61 0 -91 -36q-20 -23 -29 -61t-9 -104v-269h-118zM248 -172q66 0 72 36q0 2 0.5 5t-0.5 7h-9q-2 -8 -9.5 -12.5t-18.5 -4.5q-19 0 -31 12.5
t-12 33.5q0 23 16 37t41 14q33 0 51.5 -20t18.5 -54q0 -86 -119 -86v32z" />
    <glyph glyph-name="Ncaron" unicode="&#x147;" horiz-adv-x="746" 
d="M198 0h-127v763h154l323 -588v588h126v-763h-153l-323 588v-588zM380 795h-14l-165 173h111l61 -78l61 78h111z" />
    <glyph glyph-name="ncaron" unicode="&#x148;" horiz-adv-x="595" 
d="M65 0v559h118v-76q35 48 72 67t84 19q126 0 171 -91q17 -33 21 -67t4 -84v-327h-119v327q0 44 -6.5 72t-21.5 44q-24 27 -76 27q-61 0 -91 -36q-20 -23 -29 -61t-9 -104v-269h-118zM305 591h-14l-165 173h111l61 -78l61 78h111z" />
    <glyph glyph-name="Omacron" unicode="&#x14c;" horiz-adv-x="817" 
d="M206 40.5q-82 53.5 -122.5 143t-40.5 198.5t40.5 198t122.5 142t202 53q119 0 201.5 -53t123 -142.5t40.5 -197.5q0 -109 -40.5 -198.5t-123 -143t-201.5 -53.5q-120 0 -202 53.5zM580.5 178q61.5 77 61.5 204q0 126 -61.5 203t-172.5 77q-73 0 -126 -35.5t-80.5 -99
t-27.5 -145.5q0 -83 27.5 -146.5t80.5 -99t126 -35.5q111 0 172.5 77zM557 848h-299v57h299v-57z" />
    <glyph glyph-name="omacron" unicode="&#x14d;" horiz-adv-x="647" 
d="M177 26q-64 37 -99.5 103.5t-35.5 152.5q0 83 35.5 148.5t99.5 102t146 36.5t146 -36.5t100 -102t36 -148.5q0 -85 -35.5 -151.5t-99.5 -104t-147 -37.5q-82 0 -146 37zM406 116.5q37 24.5 57.5 67.5t20.5 98q0 52 -20.5 94.5t-57.5 66.5t-83 24t-83 -23.5t-57.5 -66
t-20.5 -95.5q0 -56 21 -99t57.5 -67t82.5 -24t83 24.5zM473 644h-299v57h299v-57z" />
    <glyph glyph-name="Ohungarumlaut" unicode="&#x150;" horiz-adv-x="817" 
d="M206 40.5q-82 53.5 -122.5 143t-40.5 198.5t40.5 198t122.5 142t202 53q119 0 201.5 -53t123 -142.5t40.5 -197.5q0 -109 -40.5 -198.5t-123 -143t-201.5 -53.5q-120 0 -202 53.5zM580.5 178q61.5 77 61.5 204q0 126 -61.5 203t-172.5 77q-73 0 -126 -35.5t-80.5 -99
t-27.5 -145.5q0 -83 27.5 -146.5t80.5 -99t126 -35.5q111 0 172.5 77zM358 818h-95l117 149h119zM552 818h-96l118 149h127z" />
    <glyph glyph-name="ohungarumlaut" unicode="&#x151;" horiz-adv-x="647" 
d="M177 26q-64 37 -99.5 103.5t-35.5 152.5q0 83 35.5 148.5t99.5 102t146 36.5t146 -36.5t100 -102t36 -148.5q0 -85 -35.5 -151.5t-99.5 -104t-147 -37.5q-82 0 -146 37zM406 116.5q37 24.5 57.5 67.5t20.5 98q0 52 -20.5 94.5t-57.5 66.5t-83 24t-83 -23.5t-57.5 -66
t-20.5 -95.5q0 -56 21 -99t57.5 -67t82.5 -24t83 24.5zM274 614h-95l117 149h119zM468 614h-96l118 149h127z" />
    <glyph glyph-name="OE" unicode="&#x152;" horiz-adv-x="1191" 
d="M204 40.5q-81 53.5 -121 143.5t-40 198t40 197.5t121 142.5t197 53q151 0 242 -109v97h505v-114h-378v-210h336v-113h-336v-212h378v-114h-505v97q-92 -110 -242 -110q-116 0 -197 53.5zM580.5 178q61.5 77 61.5 204q0 126 -61.5 203t-172.5 77q-73 0 -126 -35.5
t-80.5 -99t-27.5 -145.5q0 -83 27.5 -146.5t80.5 -99t126 -35.5q111 0 172.5 77z" />
    <glyph glyph-name="oe" unicode="&#x153;" horiz-adv-x="1080" 
d="M1039 255h-433q3 -34 18 -62q20 -48 58 -74.5t86 -26.5q50 0 86.5 26.5t52.5 66.5h123q-28 -87 -95 -141.5t-170 -54.5q-69 0 -126 27t-94 76q-38 -49 -95 -76t-127 -27q-82 0 -146 37t-99.5 103.5t-35.5 152.5q0 83 35.5 148.5t99.5 102t146 36.5q70 0 127 -26.5
t95 -75.5q36 48 90.5 75t126.5 27q74 0 137 -31.5t101.5 -95.5t38.5 -157v-30zM917 348q-4 31 -18 53q-20 35 -55 53.5t-79 18.5t-78 -18.5t-54 -53.5q-16 -22 -20 -53h304zM406 116.5q37 24.5 57.5 67.5t20.5 98q0 52 -20.5 94.5t-57.5 66.5t-83 24t-83 -23.5t-57.5 -66
t-20.5 -95.5q0 -56 21 -99t57.5 -67t82.5 -24t83 24.5z" />
    <glyph glyph-name="Racute" unicode="&#x154;" horiz-adv-x="679" 
d="M643 0h-137l-126 311h-182v-311h-127v763h315q112 0 176.5 -55.5t64.5 -167.5q0 -75 -32.5 -127.5t-92.5 -79.5zM198 422h171q65 0 99 29.5t34 84.5t-34.5 84t-98.5 29h-171v-227zM369 818h-95l116 149h127z" />
    <glyph glyph-name="racute" unicode="&#x155;" horiz-adv-x="382" 
d="M65 0v559h118v-70q33 44 72.5 62t93.5 18h13v-115h-30q-67 0 -103 -36q-46 -43 -46 -148v-270h-118zM223 614h-95l116 149h127z" />
    <glyph glyph-name="uni0156" unicode="&#x156;" horiz-adv-x="679" 
d="M643 0h-137l-126 311h-182v-311h-127v763h315q112 0 176.5 -55.5t64.5 -167.5q0 -75 -32.5 -127.5t-92.5 -79.5zM198 422h171q65 0 99 29.5t34 84.5t-34.5 84t-98.5 29h-171v-227zM303 -172q66 0 72 36q0 2 0.5 5t-0.5 7h-9q-2 -8 -9.5 -12.5t-18.5 -4.5q-19 0 -31 12.5
t-12 33.5q0 23 16 37t41 14q33 0 51.5 -20t18.5 -54q0 -86 -119 -86v32z" />
    <glyph glyph-name="uni0157" unicode="&#x157;" horiz-adv-x="382" 
d="M65 0v559h118v-70q33 44 72.5 62t93.5 18h13v-115h-30q-67 0 -103 -36q-46 -43 -46 -148v-270h-118zM74 -172q66 0 72 36q0 2 0.5 5t-0.5 7h-9q-2 -8 -9.5 -12.5t-18.5 -4.5q-19 0 -31 12.5t-12 33.5q0 23 16 37t41 14q33 0 51.5 -20t18.5 -54q0 -86 -119 -86v32z" />
    <glyph glyph-name="Rcaron" unicode="&#x158;" horiz-adv-x="679" 
d="M643 0h-137l-126 311h-182v-311h-127v763h315q112 0 176.5 -55.5t64.5 -167.5q0 -75 -32.5 -127.5t-92.5 -79.5zM198 422h171q65 0 99 29.5t34 84.5t-34.5 84t-98.5 29h-171v-227zM336 795h-14l-165 173h111l61 -78l61 78h111z" />
    <glyph glyph-name="rcaron" unicode="&#x159;" horiz-adv-x="382" 
d="M65 0v559h118v-70q33 44 72.5 62t93.5 18h13v-115h-30q-67 0 -103 -36q-46 -43 -46 -148v-270h-118zM191 591h-14l-165 173h111l61 -78l61 78h111z" />
    <glyph glyph-name="Sacute" unicode="&#x15a;" horiz-adv-x="689" 
d="M215.5 13q-70.5 26 -119 83t-58.5 146h129q17 -78 72.5 -112t127.5 -34q69 0 110 29t41 86q0 42 -25.5 67t-63.5 37.5t-105 27.5q-83 18 -135 37t-88.5 61t-36.5 115q0 69 34 118.5t93.5 75t135.5 25.5q114 0 196.5 -59t100.5 -174h-127q-15 63 -61 93.5t-111 30.5
q-62 0 -98 -26t-36 -73q0 -37 23.5 -59t59.5 -33.5t98 -25.5q88 -19 142 -39.5t92.5 -66t38.5 -124.5q0 -107 -73.5 -169.5t-206.5 -62.5q-79 0 -149.5 26zM384 818h-95l116 149h127z" />
    <glyph glyph-name="sacute" unicode="&#x15b;" horiz-adv-x="569" 
d="M123.5 39q-72.5 50 -86.5 146h119q12 -48 49 -74t95 -26q49 0 78.5 18.5t29.5 52.5q0 27 -18.5 43t-46 24.5t-75.5 18.5q-66 13 -107.5 27t-71 46.5t-29.5 89.5q0 80 60 122t152 42q96 0 160 -49t79 -136h-111q-12 45 -46 67.5t-82 22.5q-45 0 -71 -17t-26 -46
q0 -24 17.5 -38.5t44 -22t73.5 -16.5q67 -12 110 -27t74 -48.5t31 -92.5q0 -81 -60 -129t-165 -48q-104 0 -176.5 50zM324 614h-95l116 149h127z" />
    <glyph glyph-name="Scedilla" unicode="&#x15e;" horiz-adv-x="689" 
d="M364 -13q-18 -16 -38 -30l6 -9q12 2 31 2q29 0 45 -8q48 -20 48 -68q0 -43 -35.5 -66t-92.5 -23q-46 0 -94 14v46q53 -19 88 -19q29 0 45.5 12t16.5 33q0 33 -35.5 45.5t-101.5 11.5l52 64q-104 14 -176 75.5t-85 174.5h129q17 -78 72.5 -112t127.5 -34q69 0 110 29
t41 86q0 42 -25.5 67t-63.5 37.5t-105 27.5q-83 18 -135 37t-88.5 61t-36.5 115q0 69 34 118.5t93.5 75t135.5 25.5q114 0 196.5 -59t100.5 -174h-127q-15 63 -61 93.5t-111 30.5q-62 0 -98 -26t-36 -73q0 -37 23.5 -59t59.5 -33.5t98 -25.5q88 -19 142 -39.5t92.5 -66
t38.5 -124.5q0 -107 -73.5 -169.5t-206.5 -62.5h-1z" />
    <glyph glyph-name="scedilla" unicode="&#x15f;" horiz-adv-x="569" 
d="M467 38.5q-58 -48.5 -160 -49.5q-13 -13 -40 -32l6 -9q12 2 31 2q29 0 45 -8q48 -20 48 -68q0 -43 -35.5 -66t-92.5 -23q-46 0 -94 14v46q53 -19 88 -19q29 0 45.5 12t16.5 33q0 33 -35.5 45.5t-101.5 11.5l54 65q-83 13 -138 61.5t-67 130.5h119q12 -48 49 -74t95 -26
q49 0 78.5 18.5t29.5 52.5q0 27 -18.5 43t-46 24.5t-75.5 18.5q-66 13 -107.5 27t-71 46.5t-29.5 89.5q0 80 60 122t152 42q96 0 160 -49t79 -136h-111q-12 45 -46 67.5t-82 22.5q-45 0 -71 -17t-26 -46q0 -24 17.5 -38.5t44 -22t73.5 -16.5q67 -12 110 -27t74 -48.5
t31 -92.5q0 -79 -58 -127.5z" />
    <glyph glyph-name="Scaron" unicode="&#x160;" horiz-adv-x="689" 
d="M215.5 13q-70.5 26 -119 83t-58.5 146h129q17 -78 72.5 -112t127.5 -34q69 0 110 29t41 86q0 42 -25.5 67t-63.5 37.5t-105 27.5q-83 18 -135 37t-88.5 61t-36.5 115q0 69 34 118.5t93.5 75t135.5 25.5q114 0 196.5 -59t100.5 -174h-127q-15 63 -61 93.5t-111 30.5
q-62 0 -98 -26t-36 -73q0 -37 23.5 -59t59.5 -33.5t98 -25.5q88 -19 142 -39.5t92.5 -66t38.5 -124.5q0 -107 -73.5 -169.5t-206.5 -62.5q-79 0 -149.5 26zM351 795h-14l-165 173h111l61 -78l61 78h111z" />
    <glyph glyph-name="scaron" unicode="&#x161;" horiz-adv-x="569" 
d="M123.5 39q-72.5 50 -86.5 146h119q12 -48 49 -74t95 -26q49 0 78.5 18.5t29.5 52.5q0 27 -18.5 43t-46 24.5t-75.5 18.5q-66 13 -107.5 27t-71 46.5t-29.5 89.5q0 80 60 122t152 42q96 0 160 -49t79 -136h-111q-12 45 -46 67.5t-82 22.5q-45 0 -71 -17t-26 -46
q0 -24 17.5 -38.5t44 -22t73.5 -16.5q67 -12 110 -27t74 -48.5t31 -92.5q0 -81 -60 -129t-165 -48q-104 0 -176.5 50zM292 591h-14l-165 173h111l61 -78l61 78h111z" />
    <glyph glyph-name="uni0162" unicode="&#x162;" horiz-adv-x="632" 
d="M350 0q-18 -20 -51 -43l6 -9q12 2 31 2q29 0 45 -8q48 -20 48 -68q0 -43 -35.5 -66t-92.5 -23q-46 0 -94 14v46q53 -19 88 -19q29 0 45.5 12t16.5 33q0 33 -35.5 45.5t-101.5 11.5l59 72h-27v649h-240v114h609v-114h-242v-649h-29z" />
    <glyph glyph-name="uni0163" unicode="&#x163;" horiz-adv-x="376" 
d="M341 461h-114v-299q0 -32 10 -47.5t44 -15.5h59v-99h-93q-18 -20 -51 -43l6 -9q12 2 31 2q29 0 45 -8q48 -20 48 -68q0 -43 -35.5 -66t-92.5 -23q-46 0 -94 14v46q53 -19 88 -19q29 0 45.5 12t16.5 33q0 33 -35.5 45.5t-101.5 11.5l65 79q-36 12 -54.5 41t-18.5 81v332
h-84v98h84v204h118v-204h114v-98z" />
    <glyph glyph-name="Tcaron" unicode="&#x164;" horiz-adv-x="632" 
d="M379 0h-127v649h-240v114h609v-114h-242v-649zM324 795h-14l-165 173h111l61 -78l61 78h111z" />
    <glyph glyph-name="tcaron" unicode="&#x165;" horiz-adv-x="376" 
d="M240 0q-65 0 -98 30t-33 99v332h-84v98h84v204h118v-204h114v-98h-114v-299q0 -32 10 -47.5t44 -15.5h59v-99h-100zM297 687q47 4 74.5 28.5t30.5 64.5l1 12q0 5 -2 17q-14 -23 -47 -23q-25 0 -43.5 19.5t-18.5 50.5q0 34 21.5 55t57.5 21q46 0 71.5 -35t25.5 -92
q0 -70 -41.5 -121.5t-129.5 -57.5v61z" />
    <glyph glyph-name="Umacron" unicode="&#x16a;" horiz-adv-x="728" 
d="M138 62.5q-74 75.5 -74 209.5v491h127v-491q0 -172 173 -172q172 0 172 172v491h127v-491q0 -134 -73.5 -209.5t-225.5 -75.5t-226 75.5zM513 848h-299v57h299v-57z" />
    <glyph glyph-name="umacron" unicode="&#x16b;" horiz-adv-x="596" 
d="M86 81q-13 27 -18.5 60.5t-5.5 90.5v327h118v-328q0 -84 29 -116q24 -27 76 -27q57 0 90 36q21 23 30 61.5t9 103.5v270h118v-559h-118v76q-35 -46 -71.5 -66.5t-85.5 -20.5q-126 0 -171 92zM448 644h-299v57h299v-57z" />
    <glyph glyph-name="Uring" unicode="&#x16e;" horiz-adv-x="728" 
d="M138 62.5q-74 75.5 -74 209.5v491h127v-491q0 -172 173 -172q172 0 172 172v491h127v-491q0 -134 -73.5 -209.5t-225.5 -75.5t-226 75.5zM300.5 797q-28.5 17 -45 46t-16.5 62q0 52 36.5 88t87.5 36t88 -36t37 -88t-36.5 -88.5t-88.5 -36.5q-34 0 -62.5 17zM402 866.5
q15 15.5 15 40.5q0 22 -14.5 37t-39.5 15q-23 0 -38 -15t-15 -37q0 -25 15 -40.5t38 -15.5q24 0 39 15.5z" />
    <glyph glyph-name="uring" unicode="&#x16f;" horiz-adv-x="596" 
d="M86 81q-13 27 -18.5 60.5t-5.5 90.5v327h118v-328q0 -84 29 -116q24 -27 76 -27q57 0 90 36q21 23 30 61.5t9 103.5v270h118v-559h-118v76q-35 -46 -71.5 -66.5t-85.5 -20.5q-126 0 -171 92zM234.5 592q-28.5 17 -45 46t-16.5 62q0 52 36.5 88t87.5 36t88 -36t37 -88
t-36.5 -88.5t-88.5 -36.5q-34 0 -62.5 17zM336 661.5q15 15.5 15 40.5q0 22 -14.5 37t-39.5 15q-23 0 -38 -15t-15 -37q0 -25 15 -40.5t38 -15.5q24 0 39 15.5z" />
    <glyph glyph-name="Uhungarumlaut" unicode="&#x170;" horiz-adv-x="728" 
d="M138 62.5q-74 75.5 -74 209.5v491h127v-491q0 -172 173 -172q172 0 172 172v491h127v-491q0 -134 -73.5 -209.5t-225.5 -75.5t-226 75.5zM314 818h-95l117 149h119zM508 818h-96l118 149h127z" />
    <glyph glyph-name="uhungarumlaut" unicode="&#x171;" horiz-adv-x="596" 
d="M86 81q-13 27 -18.5 60.5t-5.5 90.5v327h118v-328q0 -84 29 -116q24 -27 76 -27q57 0 90 36q21 23 30 61.5t9 103.5v270h118v-559h-118v76q-35 -46 -71.5 -66.5t-85.5 -20.5q-126 0 -171 92zM249 614h-95l117 149h119zM443 614h-96l118 149h127z" />
    <glyph glyph-name="Uogonek" unicode="&#x172;" horiz-adv-x="728" 
d="M536 763h127v-491q0 -112 -51.5 -184t-157.5 -93q-50 -39 -66 -56.5t-16 -39.5q0 -19 11.5 -29.5t33.5 -10.5t43 9v-74q-34 -9 -63 -9q-52 0 -81.5 23.5t-29.5 64.5q0 38 24.5 64t78.5 46v5q-8 -1 -25 -1q-152 0 -226 75.5t-74 209.5v491h127v-491q0 -172 173 -172
q172 0 172 172v491z" />
    <glyph glyph-name="uogonek" unicode="&#x173;" horiz-adv-x="596" 
d="M532 0q-55 -44 -71.5 -61t-16.5 -40q0 -19 11.5 -29.5t33.5 -10.5t43 9v-74q-35 -9 -63 -9q-52 0 -81.5 23.5t-29.5 64.5q0 38 24.5 64t78.5 46v17h-47v76q-35 -46 -71.5 -66.5t-85.5 -20.5q-126 0 -171 92q-13 27 -18.5 60.5t-5.5 90.5v327h118v-328q0 -84 29 -116
q24 -27 76 -27q57 0 90 36q21 23 30 61.5t9 103.5v270h118v-559z" />
    <glyph glyph-name="Wcircumflex" unicode="&#x174;" horiz-adv-x="1100" 
d="M403 0h-178l-209 763h133l168 -633l157 633h151l158 -634l167 634h133l-208 -763h-179l-146 598zM488 822h-111l165 173h14l165 -173h-111l-61 77z" />
    <glyph glyph-name="wcircumflex" unicode="&#x175;" horiz-adv-x="836" 
d="M298 0h-111l-168 559h126l103 -381l117 381h104l118 -381l104 381h126l-171 -559h-111l-117 396zM357 618h-111l165 173h14l165 -173h-111l-61 77z" />
    <glyph glyph-name="Ycircumflex" unicode="&#x176;" horiz-adv-x="692" 
d="M413 0h-133v296l-281 467h148l198 -343l200 343h147l-279 -467v-296zM284 822h-111l165 173h14l165 -173h-111l-61 77z" />
    <glyph glyph-name="ycircumflex" unicode="&#x177;" horiz-adv-x="560" 
d="M70 -204v101h59q31 0 46.5 9.5t28.5 41.5l20 54l-210 557h128l144 -419l130 419h128l-228 -640q-25 -70 -59 -96.5t-97 -26.5h-90zM216 618h-111l165 173h14l165 -173h-111l-61 77z" />
    <glyph glyph-name="Ydieresis" unicode="&#x178;" horiz-adv-x="692" 
d="M413 0h-133v296l-281 467h148l198 -343l200 343h147l-279 -467v-296zM189 826.5q-21 19.5 -21 49.5t21.5 50t51.5 20t51.5 -20t21.5 -50q0 -29 -21.5 -49t-51.5 -20q-31 0 -52 19.5zM396.5 826.5q-21.5 19.5 -21.5 49.5t21.5 50t52.5 20q30 0 51 -20t21 -50t-21 -49.5
t-51 -19.5q-31 0 -52.5 19.5z" />
    <glyph glyph-name="Zacute" unicode="&#x179;" horiz-adv-x="630" 
d="M598 0h-570v89l411 560h-388v114h547v-92l-407 -557h407v-114zM356 818h-95l116 149h127z" />
    <glyph glyph-name="zacute" unicode="&#x17a;" horiz-adv-x="548" 
d="M511 0h-479v84l332 377h-314v98h463v-92l-324 -369h322v-98zM315 614h-95l116 149h127z" />
    <glyph glyph-name="Zdotaccent" unicode="&#x17b;" horiz-adv-x="630" 
d="M598 0h-570v89l411 560h-388v114h547v-92l-407 -557h407v-114zM264 826.5q-21 19.5 -21 49.5t21.5 50t51.5 20t51.5 -20t21.5 -50q0 -29 -21.5 -49t-51.5 -20q-31 0 -52 19.5z" />
    <glyph glyph-name="zdotaccent" unicode="&#x17c;" horiz-adv-x="548" 
d="M511 0h-479v84l332 377h-314v98h463v-92l-324 -369h322v-98zM220.5 651.5q-22.5 20.5 -22.5 51.5t22.5 51.5t54.5 20.5q33 0 55 -20.5t22 -51.5t-22 -51.5t-55 -20.5q-32 0 -54.5 20.5z" />
    <glyph glyph-name="Zcaron" unicode="&#x17d;" horiz-adv-x="630" 
d="M598 0h-570v89l411 560h-388v114h547v-92l-407 -557h407v-114zM323 795h-14l-165 173h111l61 -78l61 78h111z" />
    <glyph glyph-name="zcaron" unicode="&#x17e;" horiz-adv-x="548" 
d="M511 0h-479v84l332 377h-314v98h463v-92l-324 -369h322v-98zM283 591h-14l-165 173h111l61 -78l61 78h111z" />
    <glyph glyph-name="florin" unicode="&#x192;" horiz-adv-x="450" 
d="M60 -204v97h51q29 0 43.5 15.5t14.5 52.5v499h-109v99h109v62q0 70 37 106t108 36h82v-97h-55q-29 0 -43 -13.5t-14 -50.5v-43h112v-99h-112v-522q0 -70 -37 -106t-109 -36h-78z" />
    <glyph glyph-name="AEacute" unicode="&#x1fc;" horiz-adv-x="1054" 
d="M141 0h-132l273 763h490l41 -114h-349l76 -210h349l39 -113h-348l76 -212h349l40 -114h-484l-54 167h-309zM352 628l-117 -350h234zM567 818h-95l116 149h127z" />
    <glyph glyph-name="aeacute" unicode="&#x1fd;" horiz-adv-x="1006" 
d="M965 255h-433q3 -34 18 -62q20 -47 57.5 -74t86.5 -27q50 0 86.5 26.5t52.5 66.5h122q-27 -87 -93.5 -141.5t-170.5 -54.5q-78 0 -139.5 33.5t-97.5 93.5h-7q-22 -58 -76 -91q-57 -36 -143 -36q-85 0 -135.5 43t-50.5 120q0 78 61 123q44 32 130 49l177 33q-1 56 -30 86
q-31 31 -84 31q-43 0 -75 -24.5t-40 -66.5h-118q14 90 80.5 138t153.5 48q50 0 93.5 -14t74.5 -42q9 -8 23 -26q75 82 200 82q74 0 137 -31.5t101.5 -95.5t38.5 -157v-30zM842 348q-2 30 -18 53q-20 35 -55 53.5t-78 18.5q-44 0 -78 -18.5t-54 -53.5q-16 -22 -20 -53h303z
M392.5 165q18.5 39 18.5 103l-149 -29q-58 -12 -82 -34q-20 -20 -20 -50q0 -33 24.5 -51.5t65.5 -18.5t77 17q47 24 65.5 63zM543 614h-95l116 149h127z" />
    <glyph glyph-name="Oslashacute" unicode="&#x1fe;" horiz-adv-x="817" 
d="M707 625q33 -50 49.5 -112.5t16.5 -130.5q0 -109 -40.5 -198.5t-123 -143t-201.5 -53.5q-154 0 -250 91l-56 -56l-55 54l62 62q-33 50 -49.5 112.5t-16.5 131.5q0 109 40.5 198t122.5 142t202 53q154 0 249 -90l57 57l55 -55zM203 232l366 366q-62 64 -161 64
q-73 0 -126 -35.5t-80.5 -99t-27.5 -145.5q0 -86 29 -150zM580.5 178q61.5 77 61.5 204q0 84 -29 150l-366 -366q62 -65 161 -65q111 0 172.5 77zM447 818h-95l116 149h127z" />
    <glyph glyph-name="oslashacute" unicode="&#x1ff;" horiz-adv-x="647" 
d="M554 455q51 -73 51 -173q0 -85 -35.5 -151.5t-99.5 -104t-147 -37.5q-104 0 -178 58l-47 -47l-55 54l50 50q-51 74 -51 178q0 83 35.5 148.5t99.5 102t146 36.5q104 0 178 -58l48 48l54 -55zM180 190l241 242q-41 35 -98 35q-46 0 -83 -23.5t-57.5 -66t-20.5 -95.5
q0 -51 18 -92zM406 116.5q37 24.5 57.5 67.5t20.5 98q0 47 -17 86l-242 -241q43 -35 98 -35q46 0 83 24.5zM363 614h-95l116 149h127z" />
    <glyph glyph-name="uni0218" unicode="&#x218;" horiz-adv-x="689" 
d="M215.5 13q-70.5 26 -119 83t-58.5 146h129q17 -78 72.5 -112t127.5 -34q69 0 110 29t41 86q0 42 -25.5 67t-63.5 37.5t-105 27.5q-83 18 -135 37t-88.5 61t-36.5 115q0 69 34 118.5t93.5 75t135.5 25.5q114 0 196.5 -59t100.5 -174h-127q-15 63 -61 93.5t-111 30.5
q-62 0 -98 -26t-36 -73q0 -37 23.5 -59t59.5 -33.5t98 -25.5q88 -19 142 -39.5t92.5 -66t38.5 -124.5q0 -107 -73.5 -169.5t-206.5 -62.5q-79 0 -149.5 26zM294 -172q66 0 72 36q0 2 0.5 5t-0.5 7h-9q-2 -8 -9.5 -12.5t-18.5 -4.5q-19 0 -31 12.5t-12 33.5q0 23 16 37t41 14
q33 0 51.5 -20t18.5 -54q0 -86 -119 -86v32z" />
    <glyph glyph-name="uni0219" unicode="&#x219;" horiz-adv-x="569" 
d="M123.5 39q-72.5 50 -86.5 146h119q12 -48 49 -74t95 -26q49 0 78.5 18.5t29.5 52.5q0 27 -18.5 43t-46 24.5t-75.5 18.5q-66 13 -107.5 27t-71 46.5t-29.5 89.5q0 80 60 122t152 42q96 0 160 -49t79 -136h-111q-12 45 -46 67.5t-82 22.5q-45 0 -71 -17t-26 -46
q0 -24 17.5 -38.5t44 -22t73.5 -16.5q67 -12 110 -27t74 -48.5t31 -92.5q0 -81 -60 -129t-165 -48q-104 0 -176.5 50zM234 -172q66 0 72 36q0 2 0.5 5t-0.5 7h-9q-2 -8 -9.5 -12.5t-18.5 -4.5q-19 0 -31 12.5t-12 33.5q0 23 16 37t41 14q33 0 51.5 -20t18.5 -54
q0 -86 -119 -86v32z" />
    <glyph glyph-name="uni021A" unicode="&#x21a;" horiz-adv-x="632" 
d="M379 0h-127v649h-240v114h609v-114h-242v-649zM266 -172q66 0 72 36q0 2 0.5 5t-0.5 7h-9q-2 -8 -9.5 -12.5t-18.5 -4.5q-19 0 -31 12.5t-12 33.5q0 23 16 37t41 14q33 0 51.5 -20t18.5 -54q0 -86 -119 -86v32z" />
    <glyph glyph-name="uni021B" unicode="&#x21b;" horiz-adv-x="376" 
d="M240 0q-65 0 -98 30t-33 99v332h-84v98h84v204h118v-204h114v-98h-114v-299q0 -32 10 -47.5t44 -15.5h59v-99h-100zM163 -172q66 0 72 36q0 2 0.5 5t-0.5 7h-9q-2 -8 -9.5 -12.5t-18.5 -4.5q-19 0 -31 12.5t-12 33.5q0 23 16 37t41 14q33 0 51.5 -20t18.5 -54
q0 -86 -119 -86v32z" />
    <glyph glyph-name="uni0237" unicode="&#x237;" horiz-adv-x="248" 
d="M-48 -204v101h52q29 0 45 14t16 51v597h118v-627q0 -67 -35 -101.5t-102 -34.5h-94z" />
    <glyph glyph-name="circumflex" unicode="&#x2c6;" horiz-adv-x="362" 
d="M120 618h-111l165 173h14l165 -173h-111l-61 77z" />
    <glyph glyph-name="caron" unicode="&#x2c7;" horiz-adv-x="362" 
d="M188 591h-14l-165 173h111l61 -78l61 78h111z" />
    <glyph glyph-name="breve" unicode="&#x2d8;" horiz-adv-x="356" 
d="M56 650q-42 40 -47 113h74q4 -40 29.5 -60.5t65.5 -20.5q39 0 64 20.5t29 60.5h75q-4 -72 -47 -112.5t-121 -40.5q-80 0 -122 40z" />
    <glyph glyph-name="dotaccent" unicode="&#x2d9;" horiz-adv-x="172" 
d="M31.5 651.5q-22.5 20.5 -22.5 51.5t22.5 51.5t54.5 20.5q33 0 55 -20.5t22 -51.5t-22 -51.5t-55 -20.5q-32 0 -54.5 20.5z" />
    <glyph glyph-name="ring" unicode="&#x2da;" horiz-adv-x="268" 
d="M70.5 594q-28.5 17 -45 46t-16.5 62q0 52 36.5 88t87.5 36t88 -36t37 -88t-36.5 -88.5t-88.5 -36.5q-34 0 -62.5 17zM172 663.5q15 15.5 15 40.5q0 22 -14.5 37t-39.5 15q-23 0 -38 -15t-15 -37q0 -25 15 -40.5t38 -15.5q24 0 39 15.5z" />
    <glyph glyph-name="ogonek" unicode="&#x2db;" horiz-adv-x="192" 
d="M38.5 -191.5q-29.5 23.5 -29.5 64.5q0 38 24.5 64t78.5 46v17h71q-55 -44 -71.5 -61t-16.5 -40q0 -19 11.5 -29.5t33.5 -10.5t43 9v-74q-35 -9 -63 -9q-52 0 -81.5 23.5z" />
    <glyph glyph-name="tilde" unicode="&#x2dc;" horiz-adv-x="383" 
d="M206 621q-21 13 -43 36q-14 15 -22.5 21.5t-19.5 6.5q-31 0 -36 -74h-76q3 73 34 115t83 42q30 0 49.5 -12.5t43.5 -36.5q14 -14 23.5 -21t19.5 -7q14 0 23 18t10 54h78q-5 -79 -31 -117t-81 -38q-34 0 -55 13z" />
    <glyph glyph-name="hungarumlaut" unicode="&#x2dd;" horiz-adv-x="456" 
d="M104 614h-95l117 149h119zM298 614h-96l118 149h127z" />
    <glyph glyph-name="gravecomb" unicode="&#x300;" 
d="M-126 763l116 -149h-95l-148 149h127z" />
    <glyph glyph-name="acutecomb" unicode="&#x301;" 
d="M-157 614h-95l116 149h127z" />
    <glyph glyph-name="uni0302" unicode="&#x302;" 
d="M-242 618h-111l165 173h14l165 -173h-111l-61 77z" />
    <glyph glyph-name="tildecomb" unicode="&#x303;" 
d="M-177 621q-21 13 -43 36q-14 15 -22.5 21.5t-19.5 6.5q-31 0 -36 -74h-76q3 73 34 115t83 42q30 0 49.5 -12.5t43.5 -36.5q14 -14 23.5 -21t19.5 -7q14 0 23 18t10 54h78q-5 -79 -31 -117t-81 -38q-34 0 -55 13z" />
    <glyph glyph-name="uni0304" unicode="&#x304;" 
d="M-9 644h-299v57h299v-57z" />
    <glyph glyph-name="uni0306" unicode="&#x306;" 
d="M-300 650q-42 40 -47 113h74q4 -40 29.5 -60.5t65.5 -20.5q39 0 64 20.5t29 60.5h75q-4 -72 -47 -112.5t-121 -40.5q-80 0 -122 40z" />
    <glyph glyph-name="uni0307" unicode="&#x307;" 
d="M-140.5 651.5q-22.5 20.5 -22.5 51.5t22.5 51.5t54.5 20.5q33 0 55 -20.5t22 -51.5t-22 -51.5t-55 -20.5q-32 0 -54.5 20.5z" />
    <glyph glyph-name="uni0308" unicode="&#x308;" 
d="M-348.5 651.5q-22.5 20.5 -22.5 51.5t22.5 51.5t54.5 20.5q33 0 55 -20.5t22 -51.5t-22 -51.5t-55 -20.5q-32 0 -54.5 20.5zM-141 651.5q-22 20.5 -22 51.5t22 51.5t55 20.5q32 0 54.5 -20.5t22.5 -51.5t-22.5 -51.5t-54.5 -20.5q-33 0 -55 20.5z" />
    <glyph glyph-name="uni030A" unicode="&#x30a;" 
d="M-197.5 594q-28.5 17 -45 46t-16.5 62q0 52 36.5 88t87.5 36t88 -36t37 -88t-36.5 -88.5t-88.5 -36.5q-34 0 -62.5 17zM-96 663.5q15 15.5 15 40.5q0 22 -14.5 37t-39.5 15q-23 0 -38 -15t-15 -37q0 -25 15 -40.5t38 -15.5q24 0 39 15.5z" />
    <glyph glyph-name="uni030B" unicode="&#x30b;" 
d="M-352 614h-95l117 149h119zM-158 614h-96l118 149h127z" />
    <glyph glyph-name="uni030C" unicode="&#x30c;" 
d="M-174 591h-14l-165 173h111l61 -78l61 78h111z" />
    <glyph glyph-name="uni030F" unicode="&#x30f;" 
d="M-259 593q-13 0 -20 9l-125 141q-5 5 -5 10q0 4 4 7t10 3h71q12 0 19 -10l98 -141q3 -6 3 -10q0 -9 -13 -9h-42zM-66 593q-13 0 -20 9l-117 141q-4 4 -4 10q0 10 13 10h63q12 0 19 -10l99 -141q4 -4 4 -9q0 -10 -14 -10h-43z" />
    <glyph glyph-name="uni0312" unicode="&#x312;" 
d="M-130.5 621q-20.5 25 -20.5 66q0 49 33.5 86t103.5 42v-44q-37 -3 -59 -20t-25 -46q0 -14 1 -21q11 16 38 16q20 0 35 -14t15 -36q0 -24 -17.5 -39t-46.5 -15q-37 0 -57.5 25z" />
    <glyph glyph-name="uni031B" unicode="&#x31b;" 
d="M-167 606q46 0 66 28t20 73v56h72v-49q0 -79 -39 -125t-119 -46v63z" />
    <glyph glyph-name="uni0326" unicode="&#x326;" 
d="M-129 -172q66 0 72 36q0 2 0.5 5t-0.5 7h-9q-2 -8 -9.5 -12.5t-18.5 -4.5q-19 0 -31 12.5t-12 33.5q0 23 16 37t41 14q33 0 51.5 -20t18.5 -54q0 -86 -119 -86v32z" />
    <glyph glyph-name="uni0327" unicode="&#x327;" 
d="M-231 -201v46q53 -19 88 -19q29 0 45.5 12t16.5 33q0 33 -35.5 45.5t-101.5 11.5l74 90h72q-17 -20 -30 -32.5t-37 -28.5l6 -9q12 2 31 2q29 0 45 -8q48 -20 48 -68q0 -43 -35.5 -66t-92.5 -23q-46 0 -94 14z" />
    <glyph glyph-name="uni0328" unicode="&#x328;" 
d="M-153.5 -191.5q-29.5 23.5 -29.5 64.5q0 38 24.5 64t78.5 46v17h71q-55 -44 -71.5 -61t-16.5 -40q0 -19 11.5 -29.5t33.5 -10.5t43 9v-74q-35 -9 -63 -9q-52 0 -81.5 23.5z" />
    <glyph glyph-name="uni0337" unicode="&#x337;" 
d="M-9 397l-232 -120v81l232 120v-81z" />
    <glyph glyph-name="uni0338" unicode="&#x338;" 
d="M-10 521l-505 -504l-55 54l506 505z" />
    <glyph glyph-name="uni0394" unicode="&#x394;" horiz-adv-x="704" 
d="M695 0h-686l273 763h140zM352 627l-176 -514h351z" />
    <glyph glyph-name="pi" unicode="&#x3c0;" horiz-adv-x="605" 
d="M94 0v456h-69v103h545v-103h-94v-293q0 -41 10 -53.5t41 -12.5h43v-97h-69q-70 0 -105 31.5t-35 104.5v320h-152v-456h-115z" />
    <glyph glyph-name="Wgrave" unicode="&#x1e80;" horiz-adv-x="1100" 
d="M403 0h-178l-209 763h133l168 -633l157 633h151l158 -634l167 634h133l-208 -763h-179l-146 598zM488 967l116 -149h-95l-148 149h127z" />
    <glyph glyph-name="wgrave" unicode="&#x1e81;" horiz-adv-x="836" 
d="M298 0h-111l-168 559h126l103 -381l117 381h104l118 -381l104 381h126l-171 -559h-111l-117 396zM357 763l116 -149h-95l-148 149h127z" />
    <glyph glyph-name="Wacute" unicode="&#x1e82;" horiz-adv-x="1100" 
d="M403 0h-178l-209 763h133l168 -633l157 633h151l158 -634l167 634h133l-208 -763h-179l-146 598zM589 818h-95l116 149h127z" />
    <glyph glyph-name="wacute" unicode="&#x1e83;" horiz-adv-x="836" 
d="M298 0h-111l-168 559h126l103 -381l117 381h104l118 -381l104 381h126l-171 -559h-111l-117 396zM457 614h-95l116 149h127z" />
    <glyph glyph-name="Wdieresis" unicode="&#x1e84;" horiz-adv-x="1100" 
d="M403 0h-178l-209 763h133l168 -633l157 633h151l158 -634l167 634h133l-208 -763h-179l-146 598zM393 826.5q-21 19.5 -21 49.5t21.5 50t51.5 20t51.5 -20t21.5 -50q0 -29 -21.5 -49t-51.5 -20q-31 0 -52 19.5zM600.5 826.5q-21.5 19.5 -21.5 49.5t21.5 50t52.5 20
q30 0 51 -20t21 -50t-21 -49.5t-51 -19.5q-31 0 -52.5 19.5z" />
    <glyph glyph-name="wdieresis" unicode="&#x1e85;" horiz-adv-x="836" 
d="M298 0h-111l-168 559h126l103 -381l117 381h104l118 -381l104 381h126l-171 -559h-111l-117 396zM258.5 651.5q-22.5 20.5 -22.5 51.5t22.5 51.5t54.5 20.5q33 0 55 -20.5t22 -51.5t-22 -51.5t-55 -20.5q-32 0 -54.5 20.5zM466 651.5q-22 20.5 -22 51.5t22 51.5t55 20.5
q32 0 54.5 -20.5t22.5 -51.5t-22.5 -51.5t-54.5 -20.5q-33 0 -55 20.5z" />
    <glyph glyph-name="uni1E9E" unicode="&#x1e9e;" horiz-adv-x="695" 
d="M71 484q0 81 19.5 137.5t60.5 92.5q67 61 195 61q75 0 132.5 -24.5t107.5 -71.5v-105l-141 -140q34 -2 61 -9q71 -18 108 -69.5t37 -132.5q0 -130 -85.5 -176.5t-184.5 -46.5h-99v114h96q147 0 147 115q0 68 -40.5 90.5t-96.5 22.5h-55v127l148 146q-26 23 -60.5 35
t-74.5 12q-69 0 -106 -36q-21 -20 -31.5 -53.5t-10.5 -88.5v-484h-127v484z" />
    <glyph glyph-name="Ygrave" unicode="&#x1ef2;" horiz-adv-x="692" 
d="M413 0h-133v296l-281 467h148l198 -343l200 343h147l-279 -467v-296zM284 967l116 -149h-95l-148 149h127z" />
    <glyph glyph-name="ygrave" unicode="&#x1ef3;" horiz-adv-x="560" 
d="M70 -204v101h59q31 0 46.5 9.5t28.5 41.5l20 54l-210 557h128l144 -419l130 419h128l-228 -640q-25 -70 -59 -96.5t-97 -26.5h-90zM216 763l116 -149h-95l-148 149h127z" />
    <glyph glyph-name="endash" unicode="&#x2013;" horiz-adv-x="546" 
d="M523 284h-501v87h501v-87z" />
    <glyph glyph-name="emdash" unicode="&#x2014;" horiz-adv-x="1106" 
d="M1106 284h-1106v87h1106v-87z" />
    <glyph glyph-name="uni2015" unicode="&#x2015;" horiz-adv-x="799" 
d="M732 296h-665v72h665v-72z" />
    <glyph glyph-name="quoteleft" unicode="&#x2018;" horiz-adv-x="303" 
d="M83.5 503q-25.5 35 -25.5 92q0 70 41.5 121.5t129.5 57.5v-61q-48 -4 -75 -28.5t-30 -64.5q-2 -14 0 -29q15 23 48 23q25 0 43.5 -19.5t18.5 -50.5q0 -34 -21.5 -55t-57.5 -21q-46 0 -71.5 35z" />
    <glyph glyph-name="quoteright" unicode="&#x2019;" horiz-adv-x="303" 
d="M74 529q47 4 74.5 28.5t30.5 64.5l1 12q0 5 -2 17q-14 -23 -47 -23q-25 0 -43.5 19.5t-18.5 50.5q0 34 21.5 55t57.5 21q46 0 71.5 -35t25.5 -92q0 -70 -41.5 -121.5t-129.5 -57.5v61z" />
    <glyph glyph-name="quotesinglbase" unicode="&#x201a;" horiz-adv-x="272" 
d="M54 -109q47 4 74 28.5t30 63.5q2 14 0 29q-15 -22 -48 -22q-25 0 -43.5 19t-18.5 51q0 33 21.5 54t57.5 21q46 0 71.5 -34.5t25.5 -92.5q0 -69 -41.5 -120.5t-128.5 -58.5v62z" />
    <glyph glyph-name="quotedblleft" unicode="&#x201c;" horiz-adv-x="519" 
d="M229 712q-48 -4 -75 -28t-30 -64q-2 -14 0 -29q16 23 48 23q25 0 43.5 -19.5t18.5 -51.5q0 -33 -21.5 -54t-57.5 -21q-46 0 -71.5 35t-25.5 92q0 69 41.5 120.5t129.5 58.5v-62zM445 712q-47 -4 -74.5 -28t-30.5 -64l-1 -12q0 -5 2 -17q14 23 47 23q25 0 43.5 -19.5
t18.5 -51.5q0 -33 -21.5 -54t-57.5 -21q-46 0 -71.5 35t-25.5 92q0 69 41.5 120.5t129.5 58.5v-62z" />
    <glyph glyph-name="quotedblright" unicode="&#x201d;" horiz-adv-x="520" 
d="M74 529q47 4 74.5 28.5t30.5 64.5l1 12q0 5 -2 17q-14 -23 -47 -23q-25 0 -43.5 19.5t-18.5 50.5q0 34 21.5 55t57.5 21q46 0 71.5 -35t25.5 -92q0 -70 -41.5 -121.5t-129.5 -57.5v61zM290 529q47 4 74.5 28.5t30.5 64.5l1 12q0 5 -2 17q-14 -23 -47 -23
q-25 0 -43.5 19.5t-18.5 50.5q0 34 21.5 55t57.5 21q46 0 71.5 -35t25.5 -92q0 -70 -41.5 -121.5t-129.5 -57.5v61z" />
    <glyph glyph-name="quotedblbase" unicode="&#x201e;" horiz-adv-x="489" 
d="M53 -110q47 4 74.5 28.5t30.5 64.5l1 12q0 5 -2 17q-14 -23 -47 -23q-25 0 -43.5 19.5t-18.5 50.5q0 34 21.5 55t57.5 21q46 0 71.5 -35t25.5 -92q0 -70 -41.5 -121.5t-129.5 -57.5v61zM269 -110q47 4 74.5 28.5t30.5 64.5l1 12q0 5 -2 17q-14 -23 -47 -23
q-25 0 -43.5 19.5t-18.5 50.5q0 34 21.5 55t57.5 21q46 0 71.5 -35t25.5 -92q0 -70 -41.5 -121.5t-129.5 -57.5v61z" />
    <glyph glyph-name="dagger" unicode="&#x2020;" horiz-adv-x="613" 
d="M352 -204h-91v642h-234v91h234v234h91v-234h234v-91h-234v-642z" />
    <glyph glyph-name="bullet" unicode="&#x2022;" horiz-adv-x="403" 
d="M137.5 149q-29.5 17 -47 46.5t-17.5 64.5t17.5 64.5t47 46.5t63.5 17q35 0 64.5 -17t47 -46.5t17.5 -64.5t-17.5 -64.5t-47 -46.5t-64.5 -17q-34 0 -63.5 17z" />
    <glyph glyph-name="uni2023" unicode="&#x2023;" horiz-adv-x="440" 
d="M420 279l-315 -182v363z" />
    <glyph glyph-name="ellipsis" unicode="&#x2026;" horiz-adv-x="688" 
d="M70 10.5q-22 21.5 -22 51.5t22 51.5t53 21.5q29 0 50 -21.5t21 -51.5t-21 -51.5t-50 -21.5q-31 0 -53 21.5zM292.5 10.5q-21.5 21.5 -21.5 51.5t21.5 51.5t52.5 21.5q30 0 51.5 -21.5t21.5 -51.5t-22 -51.5t-51 -21.5q-31 0 -52.5 21.5zM515.5 10.5
q-21.5 21.5 -21.5 51.5t21.5 51.5t51.5 21.5q29 0 51 -21.5t22 -51.5t-22 -51.5t-51 -21.5q-30 0 -51.5 21.5z" />
    <glyph glyph-name="perthousand" unicode="&#x2030;" horiz-adv-x="1137" 
d="M122.5 444.5q-36.5 22.5 -56.5 63t-20 91.5q0 77 43.5 126.5t112.5 49.5q44 0 80 -23t56 -63.5t20 -89.5t-20 -89.5t-55 -64t-78 -23.5q-46 0 -82.5 22.5zM208 0h-100l461 763h101zM251 537.5q18 24.5 18 61.5q0 38 -19 62.5t-48 24.5q-30 0 -48 -24t-18 -63
q0 -40 18.5 -63t50.5 -23q28 0 46 24.5zM500 9.5q-36 22.5 -56.5 63t-20.5 91.5q0 50 20 90.5t55.5 63t80.5 22.5q44 0 80 -23.5t56.5 -64t20.5 -89.5t-20 -89t-55.5 -63.5t-78.5 -23.5q-46 0 -82 22.5zM855.5 9.5q-36.5 22.5 -57 63t-20.5 91.5q0 50 20 90.5t56 63t81 22.5
q44 0 80 -23.5t56 -64t20 -89.5t-20 -89t-55 -63.5t-78 -23.5q-46 0 -82.5 22.5zM628.5 101q18.5 25 18.5 62q0 39 -19 63t-49 24t-47.5 -23t-17.5 -63q0 -41 18.5 -64.5t49.5 -23.5q28 0 46.5 25zM983.5 101q18.5 25 18.5 62q0 39 -19 63t-48 24q-31 0 -48.5 -23t-17.5 -63
q0 -41 18.5 -64.5t50.5 -23.5q27 0 45.5 25z" />
    <glyph glyph-name="guilsinglleft" unicode="&#x2039;" horiz-adv-x="307" 
d="M236 187v-101l-227 190l227 190v-101l-108 -90z" />
    <glyph glyph-name="guilsinglright" unicode="&#x203a;" horiz-adv-x="307" 
d="M298 276l-227 -190v101l108 88l-108 90v101z" />
    <glyph glyph-name="fraction" unicode="&#x2044;" horiz-adv-x="163" 
d="M-105 0h-67l440 763h67z" />
    <glyph glyph-name="Euro" unicode="&#x20ac;" horiz-adv-x="619" 
d="M335 617.5q-56 -44.5 -80 -121.5h246v-68h-260q-2 -30 -2 -46q0 -15 2 -41h260v-68h-248q23 -80 80 -126t140 -46q38 0 73 11v-119q-34 -6 -73 -6q-146 0 -236 79t-118 207h-74v68h65q-2 28 -2 41q0 16 2 46h-65v68h75q29 126 118.5 202.5t234.5 76.5q35 0 73 -5v-119
q-35 11 -73 11q-82 0 -138 -44.5z" />
    <glyph glyph-name="uni2116" unicode="&#x2116;" horiz-adv-x="1281" 
d="M881.5 322.5q-53.5 30.5 -83 86t-29.5 127.5q0 69 29.5 123.5t83 85t121.5 30.5t121.5 -30.5t83.5 -85t30 -123.5q0 -71 -29.5 -126.5t-83 -86.5t-122.5 -31q-68 0 -121.5 30.5zM198 0h-127v763h154l323 -588v588h126v-763h-153l-323 588v-588zM1099 422q38 45 38 114
q0 67 -37.5 110.5t-96.5 43.5t-96.5 -43.5t-37.5 -110.5q0 -70 38 -114.5t96 -44.5t96 45zM1209 127h-410v88h410v-88z" />
    <glyph glyph-name="trademark" unicode="&#x2122;" horiz-adv-x="820" 
d="M208 381h-63v325h-120v57h305v-57h-122v-325zM435 381h-64v382h107l87 -305l87 305h107v-382h-63v336l-99 -336h-63l-99 334v-334z" />
    <glyph glyph-name="minus" unicode="&#x2212;" horiz-adv-x="653" 
d="M545 294h-438v91h438v-91z" />
    <glyph glyph-name="lozenge" unicode="&#x25ca;" horiz-adv-x="654" 
d="M416 0h-178l-206 382l206 381h178l206 -382zM164 383l163 -325l164 325l-164 322z" />
    <glyph glyph-name="uniF8FF" unicode="&#xf8ff;" horiz-adv-x="906" 
d="M80 0q-9 0 -9 10v743q0 10 9 10h744q10 0 10 -10v-743q0 -10 -10 -10h-744zM247 94q11 11 17 22.5t14 31.5q13 36 33 69t67 82l25 26q4 4 8 4q5 0 9 -3q7 -4 17 -6q10 -3 10 -13v-36q0 -43 -5.5 -67t-15.5 -47q-10 -20 -10 -37q0 -14 11 -25t25 -11q15 0 26 11t11 25
q0 17 -10 37q-10 23 -15.5 47t-5.5 67v36q0 10 10 13q13 4 15 6q5 3 8 3q5 0 9 -4l26 -26q48 -48 68 -81.5t33 -69.5q6 -19 12 -30.5t18 -23.5q17 -15 40 -15q26 0 41 15q17 17 17 42t-16 40q-12 12 -23.5 18t-30.5 12q-37 13 -70 32.5t-81 67.5l-26 26q-4 4 -4 9q0 3 3 7
q6 12 7 18q3 11 12 11h36q44 0 68.5 -6t46.5 -16q2 -1 13 -5.5t24 -4.5q14 0 25 11t11 26q0 14 -11 25.5t-25 11.5q-13 0 -24 -4.5t-13 -5.5q-22 -10 -46.5 -16t-68.5 -6h-36q-9 0 -12 11q-4 10 -7 15t-3 8q0 4 4 8l26 26q48 48 82 68.5t69 31.5q4 2 16 6.5t21 10t16 13.5
q17 19 17 41q0 24 -17 41q-16 16 -41 16t-40 -15q-11 -11 -17 -22.5t-14 -32.5q-13 -37 -32.5 -70t-67.5 -81l-25 -24q-3 -4 -9 -4q-4 0 -7 2q-5 3 -17 7q-10 3 -10 13v36q0 43 5.5 67t15.5 47q10 20 10 37q0 14 -11 25t-25 11q-15 0 -26 -11t-11 -25q0 -17 10 -37
q10 -23 15.5 -47t5.5 -67v-36q0 -10 -10 -13q-2 -1 -7.5 -2.5t-9.5 -4.5q-3 -2 -7 -2q-6 0 -10 4l-25 24q-49 49 -69.5 83t-31.5 69q-7 19 -13 31t-17 23q-16 16 -40 16q-22 0 -40 -16q-17 -17 -17 -42t16 -41q11 -11 22.5 -17t30.5 -13q36 -13 69 -33t82 -67l26 -25
q4 -4 4 -8q0 -3 -3 -8q-2 -3 -7 -16q-3 -11 -12 -11h-36q-44 0 -68.5 6t-46.5 16q-2 1 -13 5.5t-24 4.5q-14 0 -25 -11.5t-11 -25.5q0 -15 11 -26t25 -11q13 0 24 4.5t13 5.5q22 10 46.5 16t68.5 6h36q9 0 12 -11q5 -12 8 -17q2 -6 2 -7q0 -5 -4 -9l-26 -27
q-48 -49 -81.5 -68.5t-69.5 -31.5q-20 -7 -31.5 -13t-22.5 -17q-16 -15 -16 -40q0 -24 16 -41q16 -16 42 -16q25 0 40 15zM414 343.5q-16 16.5 -16 38.5t16 38t38 16t38 -16t16 -38q0 -23 -16 -39t-38 -16t-38 16.5zM484 354l-6 6q-10 -13 -26 -13q-14 0 -24 10.5t-10 24.5
t10.5 24t23.5 10q16 0 27 -13l5 6q-10 15 -32 15q-17 0 -30 -12.5t-13 -29.5t13 -30t30 -13q22 0 32 15z" />
    <glyph glyph-name="i.loclTRK" horiz-adv-x="247" 
d="M183 0h-118v559h118v-559zM69.5 651.5q-22.5 20.5 -22.5 51.5t22.5 51.5t54.5 20.5q33 0 55 -20.5t22 -51.5t-22 -51.5t-55 -20.5q-32 0 -54.5 20.5z" />
    <glyph glyph-name="uni030C.alt" 
d="M-180 529q47 4 74.5 28.5t30.5 64.5l1 12q0 5 -2 17q-14 -23 -47 -23q-25 0 -43.5 19.5t-18.5 50.5q0 34 21.5 55t57.5 21q46 0 71.5 -35t25.5 -92q0 -70 -41.5 -121.5t-129.5 -57.5v61z" />
    <glyph glyph-name="uni0308.case" 
d="M-385 826.5q-21 19.5 -21 49.5t21.5 50t51.5 20t51.5 -20t21.5 -50q0 -29 -21.5 -49t-51.5 -20q-31 0 -52 19.5zM-177.5 826.5q-21.5 19.5 -21.5 49.5t21.5 50t52.5 20q30 0 51 -20t21 -50t-21 -49.5t-51 -19.5q-31 0 -52.5 19.5z" />
    <glyph glyph-name="uni0307.case" 
d="M-177 826.5q-21 19.5 -21 49.5t21.5 50t51.5 20t51.5 -20t21.5 -50q0 -29 -21.5 -49t-51.5 -20q-31 0 -52 19.5z" />
    <glyph glyph-name="uni0328.case" 
d="M-153.5 -191.5q-29.5 23.5 -29.5 64.5q0 38 24.5 64t78.5 46v17h71q-55 -44 -71.5 -61t-16.5 -40q0 -19 11.5 -29.5t33.5 -10.5t43 9v-74q-35 -9 -63 -9q-52 0 -81.5 23.5z" />
    <glyph glyph-name="uni0335.case" 
d="M-73 294h-414v91h414v-91z" />
    <glyph glyph-name="uni0337.case" 
d="M-22 425l-377 -195v93l377 194v-92z" />
    <glyph glyph-name="uni0338.case" 
d="M21 682l-667 -665l-55 54l667 666z" />
    <glyph glyph-name="base_No" horiz-adv-x="491" 
d="M491 0h-491v105h491v-105z" />
    </font>
</defs>
</svg>
