<?xml version="1.0" standalone="no"?>
<!DOCTYPE svg PUBLIC "-//W3C//DTD SVG 1.1//EN" "http://www.w3.org/Graphics/SVG/1.1/DTD/svg11.dtd" >
<svg xmlns="http://www.w3.org/2000/svg" xmlns:xlink="http://www.w3.org/1999/xlink" version="1.1">
<metadata>
Created by FontForge 20170731 at Thu Apr 16 09:54:39 2020
 By Aleksey,,,
Copyright (c) 2020 by Alfredo Marco Pradil. All rights reserved.
</metadata>
<defs>
<font id="OpenSauceOne-ExtraBoldItalic" horiz-adv-x="0" >
  <font-face 
    font-family="Open Sauce One ExtraBold Italic"
    font-weight="800"
    font-style="italic"
    font-stretch="normal"
    units-per-em="1000"
    panose-1="0 0 9 0 0 0 0 0 0 0"
    ascent="763"
    descent="-237"
    x-height="564"
    cap-height="763"
    bbox="-777 -237 1310 1030"
    underline-thickness="50"
    underline-position="-150"
    slope="-10"
    unicode-range="U+0020-FB02"
  />
<missing-glyph horiz-adv-x="588" 
d="M474 0h-460l100 564h460zM147 524l-86 -484h380l86 484h-380z" />
    <glyph glyph-name="fi" unicode="fi" horiz-adv-x="641" 
d="M55 0l79 445h-83l21 119h83l10 56q12 69 59.5 106t124.5 37h88l-21 -118h-52q-41 0 -50 -47l-6 -34h94l-21 -119h-94l-79 -445h-153zM533 0h-152l100 564h151zM511.5 632.5q-21.5 18.5 -21.5 48.5q0 41 31.5 69t72.5 28q33 0 54.5 -18.5t21.5 -48.5q0 -43 -31 -70
t-73 -27q-33 0 -54.5 18.5z" />
    <glyph glyph-name="fl" unicode="fl" horiz-adv-x="683" 
d="M55 0l79 445h-83l21 119h83l10 56q12 69 59.5 106t124.5 37h88l-21 -118h-52q-41 0 -50 -47l-6 -34h94l-21 -119h-94l-79 -445h-153zM509 0q-55 0 -83.5 22.5t-28.5 66.5q0 18 3 29l114 645h151l-106 -596q-1 -5 -1 -14q0 -17 9 -23t24 -6h39l-21 -124h-100z" />
    <glyph glyph-name="s_a_u_c_e_l_o_g_o.liga" unicode="saucelogo" horiz-adv-x="891" 
d="M23 0q-9 0 -7 10l131 743q2 10 11 10h744q10 0 8 -10l-131 -743q-1 -4 -4 -7t-8 -3h-744zM207 94q13 11 22.5 25t17.5 28q19 36 45 69.5t82 82.5l29 26q5 4 9 4q5 0 8 -3q7 -4 16 -6q9 -3 8 -13l-6 -36q-8 -43 -17.5 -66t-23.5 -48q-14 -21 -17 -37q-2 -14 7 -25t23 -11
q15 0 28 11t15 25q1 4 1 12q0 7 -4 25q-7 28 -7 51q0 32 6 63l6 36q1 9 12 13q13 4 16 6q6 3 9 3q5 0 8 -4l22 -26q40 -48 54 -81.5t20 -69.5q4 -20 8 -31.5t13 -22.5q14 -15 37 -15q26 0 44 15q25 22 25 53q0 19 -10 29q-9 12 -19.5 18t-29.5 12q-35 14 -64.5 33t-68.5 67
l-21 26q-3 3 -3 9l4 7q8 12 11 18q5 11 13 11h36q45 0 68.5 -6t42.5 -16q3 -1 13 -5.5t23 -4.5q16 0 29.5 13.5t13.5 30.5q0 12 -8.5 21t-21.5 9t-25 -4.5t-14 -5.5q-22 -10 -48 -16t-71 -6h-36q-8 0 -10 11q-2 10 -4 15q-2 3 -2 8q3 6 6 8l30 26q57 48 94.5 68.5t74.5 31.5
q4 2 16.5 6.5t22.5 10t19 13.5q25 23 25 52q0 19 -10 30q-13 16 -39 16q-24 0 -42 -15q-13 -11 -21 -22.5t-20 -32.5q-19 -37 -44.5 -70t-82.5 -81l-29 -24q-3 -4 -9 -4q-4 0 -7 2q-6 4 -16 7q-9 3 -8 13l7 36q7 44 17 68t24 45q2 3 8 14.5t8 23.5q3 14 -6 25t-23 11
q-15 0 -28 -11t-16 -25q-1 -4 -1 -11q0 -8 4 -26q8 -24 8 -53q0 -22 -6 -61l-7 -36q-1 -9 -12 -13q-2 -1 -8 -2.5t-10 -4.5q-3 -2 -8 -2q-6 0 -9 4l-21 24q-40 48 -54.5 82.5t-19.5 69.5q-3 19 -7 31t-13 23q-13 16 -37 16q-22 0 -43 -16q-26 -23 -26 -52q0 -20 10 -31
q9 -11 19.5 -17t28.5 -13q33 -13 63 -33t70 -67l22 -25q3 -5 2 -8q0 -4 -4 -8q-2 -2 -10 -16q-5 -11 -14 -11h-36q-44 0 -68 6t-43 16q-2 1 -12 5.5t-23 4.5q-16 0 -29.5 -13t-13.5 -29q0 -14 8.5 -23t21.5 -9q12 0 23.5 4.5t15.5 5.5q22 10 47.5 16t70.5 6h36q9 0 11 -11
q2 -12 5 -17v-5q0 -6 -5 -11l-31 -27q-56 -49 -93 -68.5t-76 -31.5q-21 -7 -33.5 -13t-25.5 -17q-11 -9 -17.5 -23t-6.5 -28q0 -17 10 -30q13 -16 39 -16q25 0 43 15zM420.5 340.5q-13.5 13.5 -13.5 32.5q0 24 20.5 43.5t44.5 19.5q20 0 32.5 -13t12.5 -32
q0 -25 -19.5 -44.5t-44.5 -19.5q-19 0 -32.5 13.5zM489 354l-5 6q-11 -13 -28 -13q-12 0 -20 8.5t-8 21.5q0 15 12.5 27t27.5 12t25 -13l6 6q-7 15 -29 15q-19 0 -35.5 -15t-16.5 -34q0 -15 10.5 -25.5t26.5 -10.5q22 0 34 15z" />
    <glyph glyph-name=".notdef" horiz-adv-x="588" 
d="M474 0h-460l100 564h460zM147 524l-86 -484h380l86 484h-380z" />
    <glyph glyph-name=".null" 
 />
    <glyph glyph-name="nonmarkingreturn" horiz-adv-x="333" 
 />
    <glyph glyph-name="space" unicode=" " horiz-adv-x="264" 
 />
    <glyph glyph-name="exclam" unicode="!" horiz-adv-x="284" 
d="M70 235q16 161 31 248l50 280h151l-50 -280q-11 -70 -45 -206l-10 -42h-127zM37 9q-21 21 -21 51q0 40 32 71t73 31q31 0 51.5 -20.5t20.5 -50.5q0 -26 -15 -50t-38.5 -38.5t-49.5 -14.5q-32 0 -53 21z" />
    <glyph glyph-name="quotedbl" unicode="&#x22;" horiz-adv-x="369" 
d="M178 476h-105l51 287h105zM364 476h-105l51 287h105z" />
    <glyph glyph-name="numbersign" unicode="#" horiz-adv-x="746" 
d="M180 0h-114l88 221h-124l18 103h146l48 126h-128l19 107h151l84 206h114l-84 -211h123l81 211h115l-87 -211h124l-18 -102h-145l-51 -126h129l-18 -103h-150l-87 -221h-113l87 221h-124zM355 450l-47 -126h121l49 126h-123z" />
    <glyph glyph-name="dollar" unicode="$" horiz-adv-x="704" 
d="M526 531q-4 44 -28.5 71t-67.5 35l-30 -171l16 -4q75 -17 125 -35.5t85 -56.5t35 -102q0 -85 -44.5 -149.5t-121.5 -99.5t-172 -35h-7l-15 -84h-42l15 86q-119 10 -182.5 74t-63.5 193h167q7 -108 104 -127l35 199q-74 17 -121.5 34.5t-81 53.5t-33.5 96q0 80 42 140.5
t114 94t159 34.5l15 85h42l-15 -86q109 -10 175 -72.5t62 -173.5h-166zM289 506.5q24 -16.5 71 -30.5l29 165q-51 -1 -87.5 -24.5t-36.5 -65.5q0 -28 24 -44.5zM463.5 282.5q-30.5 18.5 -89.5 32.5l-34 -194h7q63 0 105 29.5t42 79.5q0 34 -30.5 52.5z" />
    <glyph glyph-name="percent" unicode="%" horiz-adv-x="775" 
d="M130 456q-39 37 -39 102q0 58 26 108.5t71.5 81t101.5 30.5q61 0 98 -40.5t37 -102.5q0 -54 -26.5 -104t-71.5 -81t-97 -31q-61 0 -100 37zM155 0h-119l613 763h120zM294 557.5q19 25.5 19 59.5q0 23 -12 36.5t-30 13.5q-32 0 -49 -27t-17 -62q0 -24 12 -35t32 -11
q26 0 45 25.5zM422.5 21.5q-38.5 37.5 -38.5 102.5q0 58 26 108t71 80t101 30q61 0 98.5 -40t37.5 -103q0 -54 -27 -104t-72 -80.5t-97 -30.5q-61 0 -99.5 37.5zM586 120q20 25 20 60q0 24 -12.5 37.5t-30.5 13.5q-32 0 -49 -27t-17 -62q0 -24 12 -35.5t32 -11.5q25 0 45 25
z" />
    <glyph glyph-name="ampersand" unicode="&#x26;" horiz-adv-x="753" 
d="M134.5 3q-51.5 19 -82.5 57t-31 91q0 61 28 107.5t73.5 81.5t114.5 74q-31 38 -45 70t-14 68q0 66 34.5 117.5t92.5 80t127 28.5q85 0 133 -37t48 -104q0 -138 -177 -242l85 -141q21 31 34 61.5t23 67.5h140q-37 -142 -127 -241l88 -142h-184l-32 52q-44 -35 -100 -51.5
t-115 -16.5q-62 0 -113.5 19zM439 544.5q26 29.5 26 63.5q0 22 -14 35.5t-40 13.5q-34 0 -58.5 -24t-24.5 -62q0 -19 8.5 -39t26.5 -47q50 30 76 59.5zM342 123q35 10 63 27l-104 170q-60 -34 -94 -65.5t-34 -73.5q0 -32 29 -50t73 -18q32 0 67 10z" />
    <glyph glyph-name="quotesingle" unicode="'" horiz-adv-x="183" 
d="M178 476h-105l51 287h105z" />
    <glyph glyph-name="parenleft" unicode="(" horiz-adv-x="299" 
d="M90 -110q-42 114 -42 263q0 115 21 228q54 298 194 491h129q-80 -104 -129.5 -223t-75.5 -268q-20 -110 -20 -211q0 -152 51 -280h-128z" />
    <glyph glyph-name="parenright" unicode=")" horiz-adv-x="299" 
d="M-57 -110q78 104 128 223.5t76 267.5q20 110 20 211q0 156 -51 280h129q41 -115 41 -263q0 -115 -21 -228q-51 -295 -193 -491h-129z" />
    <glyph glyph-name="asterisk" unicode="*" horiz-adv-x="429" 
d="M100 483q26 25 53.5 45.5t74.5 46.5l-2 13q-34 -2 -46 -2q-38 0 -65 4t-32 5l53 99q35 -18 55.5 -30.5t48.5 -41.5l12 9q-10 53 -10 95l1 37h112q-9 -32 -20.5 -60t-34.5 -71l9 -9q39 29 66.5 43t62.5 28l17 -99q-54 -8 -94 -8q-32 0 -51 1l-6 -13q37 -25 57 -45.5
t38 -46.5l-101 -61q-11 36 -17.5 65t-11.5 67h-14q-30 -61 -76 -132z" />
    <glyph glyph-name="plus" unicode="+" horiz-adv-x="626" 
d="M329 57h-113l40 225h-225l20 111h224l40 225h112l-39 -225h225l-20 -111h-225z" />
    <glyph glyph-name="comma" unicode="," horiz-adv-x="276" 
d="M-23 -92q57 2 92 28.5t42 75.5q-20 -23 -55 -23q-24 0 -41.5 17.5t-17.5 47.5q0 47 32 77.5t80 30.5q44 0 66 -26.5t22 -73.5q0 -64 -30 -115.5t-83 -82.5t-121 -34z" />
    <glyph glyph-name="hyphen" unicode="-" horiz-adv-x="372" 
d="M342 257h-320l22 129h321z" />
    <glyph glyph-name="period" unicode="." horiz-adv-x="246" 
d="M19.5 9q-21.5 21 -21.5 52q0 26 15 49.5t39.5 37.5t51.5 14q30 0 50.5 -21t20.5 -51q0 -25 -14.5 -49t-38.5 -38.5t-49 -14.5q-32 0 -53.5 21z" />
    <glyph glyph-name="slash" unicode="/" horiz-adv-x="480" 
d="M43 -111h-135l508 874h134z" />
    <glyph glyph-name="zero" unicode="0" horiz-adv-x="674" 
d="M56 239q0 64 15 145q36 206 125.5 300t225.5 94q111 0 170 -61.5t59 -193.5q0 -68 -14 -144q-37 -207 -126 -300.5t-225 -93.5q-230 0 -230 254zM409 183q41 54 67 198q13 81 13 123q0 71 -24.5 100t-69.5 29q-39 0 -68.5 -21.5t-53.5 -76.5t-41 -153q-14 -76 -14 -130
q0 -69 22.5 -96t67.5 -27q60 0 101 54z" />
    <glyph glyph-name="one" unicode="1" horiz-adv-x="458" 
d="M287 568q-43 -45 -102.5 -76t-122.5 -38l26 146q77 15 138 57.5t100 105.5h157l-135 -763h-162z" />
    <glyph glyph-name="two" unicode="2" horiz-adv-x="648" 
d="M5 0l23 129l273 212q58 45 92.5 76.5t56.5 67.5t22 76q0 38 -22.5 59t-68.5 21q-59 0 -97 -36.5t-55 -113.5h-146q28 140 111.5 213t212.5 73q99 0 157.5 -50t58.5 -141q0 -73 -32.5 -135t-80 -110.5t-114.5 -102.5l-118 -93h301l-25 -145h-549z" />
    <glyph glyph-name="three" unicode="3" horiz-adv-x="663" 
d="M99.5 43.5q-67.5 58.5 -67.5 160.5q0 21 3 40h162q-1 -6 -1 -20q0 -50 28.5 -76.5t84.5 -26.5q63 0 100.5 38.5t37.5 96.5q0 39 -30 59.5t-90 20.5h-46l23 128h40q54 0 88 31.5t34 79.5q0 31 -20.5 48.5t-60.5 17.5q-91 0 -124 -100h-145q17 71 59.5 125t104 83t132.5 29
q64 0 112 -22.5t73.5 -62t25.5 -90.5q0 -68 -39 -120.5t-102 -65.5q65 -8 97 -47t32 -96q0 -82 -44.5 -148.5t-120 -103.5t-164.5 -37q-115 0 -182.5 58.5z" />
    <glyph glyph-name="four" unicode="4" horiz-adv-x="645" 
d="M469 0h-162l30 168h-322l28 155l404 440h157l-80 -450h91l-26 -145h-91zM406 560l-217 -247h173z" />
    <glyph glyph-name="five" unicode="5" horiz-adv-x="657" 
d="M143.5 14.5q-55.5 29.5 -83.5 84t-23 126.5h161q8 -96 104 -96q42 0 75 23t50.5 60.5t17.5 79.5q0 46 -26 73.5t-70 27.5q-79 0 -131 -74h-154l162 444h432l-26 -145h-315l-52 -141q29 22 67.5 36t75.5 14q93 0 147.5 -55.5t54.5 -148.5q0 -94 -43.5 -171.5t-120.5 -122
t-171 -44.5q-76 0 -131.5 29.5z" />
    <glyph glyph-name="six" unicode="6" horiz-adv-x="664" 
d="M115 50.5q-61 66.5 -61 194.5q0 59 11 118q36 200 132 307.5t237 107.5q114 0 172.5 -62t51.5 -172h-143q-2 48 -29.5 72.5t-75.5 24.5q-148 0 -183 -210q72 77 178 77q95 0 151 -51.5t56 -142.5q0 -24 -5 -57q-14 -80 -59.5 -142t-112.5 -96.5t-145 -34.5
q-114 0 -175 66.5zM399.5 158.5q35.5 37.5 45.5 98.5q4 15 4 33q0 44 -23.5 69t-68.5 25q-54 0 -92 -35t-48 -92q-3 -18 -3 -34q0 -47 25.5 -74.5t71.5 -27.5q53 0 88.5 37.5z" />
    <glyph glyph-name="seven" unicode="7" horiz-adv-x="586" 
d="M209 0h-187l415 618h-348l26 145h524l-25 -141z" />
    <glyph glyph-name="eight" unicode="8" horiz-adv-x="673" 
d="M151.5 9q-56.5 25 -86.5 70t-30 104q0 81 47.5 144t128.5 92q-42 18 -61 49t-19 70q0 69 40.5 124t107.5 85.5t145 30.5q67 0 116.5 -21.5t76.5 -60.5t27 -90q0 -64 -36 -114t-97 -73q56 -22 81.5 -62t25.5 -91q0 -81 -45.5 -145.5t-122.5 -100.5t-166 -36
q-76 0 -132.5 25zM453.5 499q32.5 33 32.5 78q0 33 -22 52.5t-63 19.5q-52 0 -84.5 -31t-32.5 -78q0 -33 22 -53.5t63 -20.5q52 0 84.5 33zM385 140.5q34 19.5 53 52t19 70.5q0 43 -28 69.5t-79 26.5q-43 0 -77 -19t-53 -52t-19 -73q0 -42 28 -68t79 -26q43 0 77 19.5z" />
    <glyph glyph-name="nine" unicode="9" horiz-adv-x="665" 
d="M92.5 46.5q-58.5 62.5 -52.5 171.5h144q1 -48 28.5 -72.5t75.5 -24.5q79 0 122.5 54.5t61.5 155.5q-75 -77 -179 -77q-95 0 -151 51.5t-56 143.5q0 23 5 56q15 80 60.5 142t112.5 96.5t145 34.5q114 0 175 -66.5t61 -194.5q0 -50 -11 -118q-36 -199 -132 -307t-237 -108
q-114 0 -172.5 62.5zM434 413q38 35 48 93q3 17 3 33q0 47 -25.5 74.5t-71.5 27.5q-53 0 -88.5 -37.5t-46.5 -97.5q-3 -18 -3 -34q0 -44 23.5 -69t67.5 -25q55 0 93 35z" />
    <glyph glyph-name="colon" unicode=":" horiz-adv-x="253" 
d="M86 373q-21 21 -21 52q0 26 15 49.5t39.5 38t50.5 14.5q31 0 51 -21t20 -51q0 -26 -14.5 -50t-38 -38.5t-49.5 -14.5q-32 0 -53 21zM22 9q-21 21 -21 51q0 40 32 71t73 31q31 0 51.5 -20.5t20.5 -50.5q0 -26 -15 -50t-38.5 -38.5t-49.5 -14.5q-32 0 -53 21z" />
    <glyph glyph-name="semicolon" unicode=";" horiz-adv-x="276" 
d="M84 373q-21 21 -21 52q0 26 14.5 49.5t38.5 38t50 14.5q31 0 52 -20.5t21 -51.5q0 -26 -15 -50t-39 -38.5t-49 -14.5q-31 0 -52 21zM-23 -92q56 2 91.5 28.5t42.5 75.5q-20 -23 -55 -23q-24 0 -41.5 17.5t-17.5 47.5q0 47 32 77.5t80 30.5q44 0 66 -26.5t22 -73.5
q0 -64 -30 -115.5t-83 -82.5t-121 -34z" />
    <glyph glyph-name="less" unicode="&#x3c;" horiz-adv-x="563" 
d="M62 426l512 172l-27 -151l-336 -107l299 -106l-24 -134l-451 170z" />
    <glyph glyph-name="equal" unicode="=" horiz-adv-x="527" 
d="M514 414h-455l22 125h455zM469 163h-454l23 126h454z" />
    <glyph glyph-name="greater" unicode="&#x3e;" horiz-adv-x="563" 
d="M525 271l-512 -171l27 151l336 107l-299 106l23 134l452 -170z" />
    <glyph glyph-name="question" unicode="?" horiz-adv-x="558" 
d="M205 280q10 55 31 90.5t45 55.5t61 43q46 28 68 53.5t22 66.5q0 34 -24 51t-62 17q-50 0 -87 -32.5t-52 -94.5h-136q18 78 61 134t105 85t133 29q91 0 148 -43t57 -126q0 -76 -29.5 -122.5t-94.5 -89.5q-42 -28 -66.5 -52t-37.5 -66l-16 -46h-134zM167.5 9
q-20.5 21 -20.5 52q0 40 31.5 70.5t71.5 30.5q32 0 52.5 -20.5t20.5 -50.5q0 -27 -15 -51t-39 -38t-49 -14q-32 0 -52.5 21z" />
    <glyph glyph-name="at" unicode="@" horiz-adv-x="1021" 
d="M212.5 -140.5q-89.5 46.5 -138 131t-48.5 195.5q0 46 9 95q24 138 104.5 250t201.5 176.5t260 64.5q118 0 207.5 -47.5t138.5 -133.5t49 -198q0 -45 -9 -95q-17 -97 -61.5 -174t-110 -121t-140.5 -44q-112 0 -112 122q0 20 1 30q-79 -92 -182 -92q-66 0 -106.5 42
t-40.5 119q0 32 5 57q16 87 66.5 165t123 126t151.5 48q43 0 70 -19t42 -65l20 57h94l-10 -26q-72 -186 -101.5 -266.5t-37.5 -127.5q-2 -11 -2 -29q0 -28 12 -40t36 -12q40 0 78.5 32t67.5 89t42 127q7 41 7 82q0 90 -38 158t-108.5 105t-165.5 37q-114 0 -211.5 -52
t-162.5 -142.5t-85 -202.5q-7 -39 -7 -79q0 -89 38.5 -155.5t110 -102.5t169.5 -36q73 0 133 20l-17 -98q-60 -17 -134 -17q-119 0 -208.5 46.5zM508.5 150q49.5 37 84 96t45.5 120q4 28 4 38q0 78 -76 78q-53 0 -102.5 -35t-84 -92t-45.5 -120q-4 -20 -4 -41q0 -81 77 -81
q52 0 101.5 37z" />
    <glyph glyph-name="A" unicode="A" horiz-adv-x="715" 
d="M661 0h-162l-20 147h-273l-72 -147h-179l400 763h176zM419 585l-145 -298h186z" />
    <glyph glyph-name="B" unicode="B" horiz-adv-x="700" 
d="M14 0l135 763h307q146 0 196 -64q28 -34 28 -86q0 -73 -38 -132.5t-103 -79.5q58 -11 88.5 -46.5t30.5 -90.5q0 -58 -29.5 -115t-76.5 -91q-52 -36 -110.5 -47t-106.5 -11h-321zM388 450q57 0 89.5 28t32.5 77q0 24 -17 41q-13 12 -36 17t-62 5h-111l-29 -168h133z
M340 145q38 0 67 5t50 21q19 14 29.5 38.5t10.5 48.5q0 39 -29 51.5t-82 12.5h-153l-32 -177h139z" />
    <glyph glyph-name="C" unicode="C" horiz-adv-x="773" 
d="M182 24q-70 40 -103.5 109t-33.5 158q0 134 58 245.5t161 176.5t234 65q143 0 216.5 -71.5t68.5 -192.5h-177q1 58 -36 88.5t-101 30.5q-77 0 -134.5 -45t-88 -119t-30.5 -158q0 -86 42 -134t122 -48q65 0 112.5 31t68.5 93h176q-38 -124 -137 -196.5t-242 -72.5
q-106 0 -176 40z" />
    <glyph glyph-name="D" unicode="D" horiz-adv-x="727" 
d="M14 0l135 763h227q168 0 255 -73.5t87 -214.5q0 -142 -58.5 -249.5t-166.5 -166.5t-252 -59h-227zM264 145q138 0 213.5 79.5t75.5 216.5q0 88 -53.5 132.5t-151.5 44.5h-64l-83 -473h63z" />
    <glyph glyph-name="E" unicode="E" horiz-adv-x="622" 
d="M529 0h-515l135 763h515l-26 -145h-354l-29 -164h318l-25 -144h-318l-29 -165h354z" />
    <glyph glyph-name="F" unicode="F" horiz-adv-x="605" 
d="M176 0h-162l135 763h515l-26 -145h-354l-29 -164h318l-25 -144h-318z" />
    <glyph glyph-name="G" unicode="G" horiz-adv-x="823" 
d="M181.5 24.5q-70.5 40.5 -104 109.5t-33.5 158q0 134 58.5 245.5t162 176t234.5 64.5q151 0 229.5 -70.5t78.5 -192.5h-177q-12 118 -157 118q-77 0 -135.5 -44.5t-90 -117t-31.5 -155.5q0 -87 46.5 -137t137.5 -50q85 0 139.5 40t71.5 120h-163l23 132h325l-75 -421h-147
l14 79q-84 -95 -229 -95q-107 0 -177.5 40.5z" />
    <glyph glyph-name="H" unicode="H" horiz-adv-x="761" 
d="M176 0h-162l135 763h162l-56 -309h309l55 309h162l-135 -763h-162l55 309h-309z" />
    <glyph glyph-name="I" unicode="I" horiz-adv-x="290" 
d="M176 0h-162l135 763h162z" />
    <glyph glyph-name="J" unicode="J" horiz-adv-x="398" 
d="M-40 0l25 145h98q34 0 54 16t27 52l97 550h162l-98 -552q-14 -81 -44.5 -126.5t-84 -65t-139.5 -19.5h-97z" />
    <glyph glyph-name="K" unicode="K" horiz-adv-x="682" 
d="M176 0h-162l135 763h162l-58 -324l311 324h197l-359 -370l228 -393h-197l-194 359z" />
    <glyph glyph-name="L" unicode="L" horiz-adv-x="552" 
d="M493 0h-479l135 763h162l-110 -618h317z" />
    <glyph glyph-name="M" unicode="M" horiz-adv-x="939" 
d="M176 0h-162l135 763h254l42 -569l241 569h274l-135 -763h-162l112 638l-277 -638h-157l-53 633z" />
    <glyph glyph-name="N" unicode="N" horiz-adv-x="765" 
d="M176 0h-162l135 763h172l214 -505l89 505h162l-135 -763h-173l-213 507z" />
    <glyph glyph-name="O" unicode="O" horiz-adv-x="823" 
d="M182.5 24q-70.5 40 -104 109.5t-33.5 157.5q0 135 58 246.5t161 176t234 64.5q105 0 175.5 -39.5t104.5 -108.5t34 -157q0 -135 -58 -247t-161.5 -177t-233.5 -65q-106 0 -176.5 40zM519.5 174.5q58.5 45.5 89.5 119t31 157.5q0 85 -43 133.5t-124 48.5q-77 0 -135.5 -45
t-90 -118t-31.5 -156q0 -86 43.5 -135.5t124.5 -49.5q77 0 135.5 45.5z" />
    <glyph glyph-name="P" unicode="P" horiz-adv-x="674" 
d="M14 0l135 763h345q96 0 150.5 -41.5t54.5 -128.5q0 -83 -36.5 -150t-101.5 -105t-149 -38h-183l-53 -300h-162zM404 440q58 0 95 30t37 80q0 34 -23.5 51t-67.5 17h-161l-31 -178h151z" />
    <glyph glyph-name="Q" unicode="Q" horiz-adv-x="825" 
d="M766 250.5q-46 -102.5 -129 -169.5l77 -168h-181l-41 91q-63 -20 -133 -20q-106 0 -176.5 40t-104 109.5t-33.5 157.5q0 135 58 246.5t161 176t234 64.5q105 0 175.5 -39.5t104.5 -108.5t34 -157q0 -120 -46 -222.5zM259.5 178.5q43.5 -49.5 124.5 -49.5q77 0 135.5 45.5
t89.5 119t31 157.5q0 85 -43 133.5t-124 48.5q-77 0 -135.5 -45t-90 -118t-31.5 -156q0 -86 43.5 -135.5z" />
    <glyph glyph-name="R" unicode="R" horiz-adv-x="698" 
d="M657.5 433.5q-41.5 -69.5 -113.5 -104.5l76 -329h-162l-70 300h-159l-53 -300h-162l135 763h345q96 0 150.5 -41.5t54.5 -128.5q0 -90 -41.5 -159.5zM284 618l-31 -178h151q58 0 95 30t37 80q0 34 -23.5 51t-67.5 17h-161z" />
    <glyph glyph-name="S" unicode="S" horiz-adv-x="704" 
d="M106 50.5q-78 66.5 -78 202.5h167q5 -72 47 -102t105 -30t105 29.5t42 79.5q0 39 -39 58t-118 36q-75 17 -123 34.5t-82 54t-34 96.5q0 81 43 142t116.5 94t161.5 33q79 0 140.5 -27.5t97 -83t35.5 -136.5h-166q-4 53 -39.5 81.5t-94.5 28.5q-52 0 -89.5 -23.5
t-37.5 -66.5q0 -25 19.5 -41t49.5 -26t82 -22q74 -16 124.5 -34.5t85.5 -57t35 -102.5q0 -85 -44.5 -149.5t-121.5 -99.5t-172 -35q-139 0 -217 66.5z" />
    <glyph glyph-name="T" unicode="T" horiz-adv-x="627" 
d="M345 0h-162l109 618h-224l26 145h609l-26 -145h-224z" />
    <glyph glyph-name="U" unicode="U" horiz-adv-x="745" 
d="M114.5 43q-65.5 59 -65.5 164q0 38 7 74l85 482h163l-86 -482q-4 -30 -4 -43q0 -52 30.5 -80.5t100.5 -28.5q84 0 126.5 40.5t54.5 111.5l85 482h163l-86 -482q-25 -138 -115 -217.5t-253 -79.5q-140 0 -205.5 59z" />
    <glyph glyph-name="V" unicode="V" horiz-adv-x="705" 
d="M391 0h-176l-130 763h162l79 -583l286 583h179z" />
    <glyph glyph-name="W" unicode="W" horiz-adv-x="1125" 
d="M391 0h-237l-56 763h164l35 -634l238 634h215l13 -635l260 635h175l-326 -763h-237l-13 615z" />
    <glyph glyph-name="X" unicode="X" horiz-adv-x="736" 
d="M161 0h-204l317 380l-183 383h179l121 -273l219 273h206l-319 -383l183 -380h-178l-124 259z" />
    <glyph glyph-name="Y" unicode="Y" horiz-adv-x="709" 
d="M390 0h-170l53 301l-193 462h175l117 -306l226 306h202l-357 -462z" />
    <glyph glyph-name="Z" unicode="Z" horiz-adv-x="626" 
d="M545 0h-568l19 110l439 508h-328l26 145h545l-20 -115l-433 -503h345z" />
    <glyph glyph-name="bracketleft" unicode="[" horiz-adv-x="342" 
d="M261 -110h-243l173 982h243l-18 -100h-124l-138 -782h124z" />
    <glyph glyph-name="backslash" unicode="\" horiz-adv-x="480" 
d="M432 -111h-125l-207 874h124z" />
    <glyph glyph-name="bracketright" unicode="]" horiz-adv-x="342" 
d="M187 -110h-243l17 100h123l138 782h-123l18 100h243z" />
    <glyph glyph-name="asciicircum" unicode="^" horiz-adv-x="562" 
d="M181 282h-149l257 481h156l85 -481h-135l-50 321z" />
    <glyph glyph-name="underscore" unicode="_" horiz-adv-x="437" 
d="M381 -110h-464l19 110h464z" />
    <glyph glyph-name="grave" unicode="`" horiz-adv-x="274" 
d="M328 617h-112l-126 146h150z" />
    <glyph glyph-name="a" unicode="a" horiz-adv-x="596" 
d="M54.5 22.5q-43.5 34.5 -43.5 98.5q0 95 62 145t172 69l163 29q1 7 1 21q0 34 -14 51q-18 24 -62 24q-34 0 -64.5 -21.5t-43.5 -58.5h-151q32 96 110.5 146t170.5 50q50 0 93 -14t70 -42q40 -41 40 -116q0 -43 -15 -124l-49 -280h-151l12 73q-21 -35 -55 -54
q-50 -31 -131 -31q-71 0 -114.5 34.5zM300 120q40 18 60.5 49.5t30.5 85.5l-123 -23q-49 -9 -76 -27.5t-27 -52.5q0 -23 18 -35t48 -12q35 0 69 15z" />
    <glyph glyph-name="b" unicode="b" horiz-adv-x="646" 
d="M227 5.5q-33 17.5 -55 60.5l-12 -66h-151l135 763h151l-47 -265q37 44 76.5 61t89.5 17q93 0 147.5 -61t54.5 -162q0 -93 -39.5 -177.5t-109.5 -136t-157 -51.5q-50 0 -83 17.5zM380 147.5q38 29.5 59 77.5t21 99q0 56 -28.5 89t-79.5 33q-49 0 -87.5 -29.5t-59.5 -77
t-21 -98.5q0 -56 29.5 -89.5t80.5 -33.5q48 0 86 29.5z" />
    <glyph glyph-name="c" unicode="c" horiz-adv-x="627" 
d="M95 51q-65 63 -65 169q0 98 45 179.5t124.5 129t177.5 47.5q104 0 167 -53t69 -143h-166q-11 74 -92 74q-51 0 -89.5 -31t-58.5 -81.5t-20 -105.5q0 -59 28.5 -92t79.5 -33q87 0 122 81h165q-38 -95 -121.5 -149.5t-187.5 -54.5q-113 0 -178 63z" />
    <glyph glyph-name="d" unicode="d" horiz-adv-x="646" 
d="M85 49.5q-55 61.5 -55 162.5q0 93 39.5 177t109.5 135.5t157 51.5q50 0 83 -17t55 -61l47 265h152l-135 -763h-152l12 66q-37 -43 -76.5 -60.5t-89.5 -17.5q-92 0 -147 61.5zM381 147.5q38 29.5 59.5 77t21.5 99.5q0 56 -29.5 89t-80.5 33q-48 0 -86 -29.5t-59 -77
t-21 -98.5q0 -56 28.5 -89.5t79.5 -33.5q49 0 87 29.5z" />
    <glyph glyph-name="e" unicode="e" horiz-adv-x="644" 
d="M143 17q-55 29 -84.5 81.5t-29.5 121.5q0 95 45.5 177t124.5 130.5t174 48.5q106 0 174.5 -56.5t68.5 -169.5q-1 -39 -12 -100h-417v-9q0 -58 30.5 -90t86.5 -32q41 0 74.5 20.5t52.5 52.5h154q-43 -90 -122.5 -147t-188.5 -57q-76 0 -131 29zM469 361q-1 14 -3.5 24.5
t-10.5 20.5q-12 26 -37.5 39t-59.5 13q-69 0 -112 -46q-21 -18 -34 -51h257z" />
    <glyph glyph-name="f" unicode="f" horiz-adv-x="373" 
d="M55 0l79 445h-83l21 119h83l10 56q12 69 59.5 106t124.5 37h88l-21 -118h-52q-41 0 -50 -47l-6 -34h94l-21 -119h-94l-79 -445h-153z" />
    <glyph glyph-name="g" unicode="g" horiz-adv-x="647" 
d="M66 -168.5q-65 41.5 -65 143.5h152q7 -38 31 -54t69 -16q60 0 94 27.5t42 72.5l13 77q-38 -43 -77 -60.5t-89 -17.5q-93 0 -147.5 60.5t-54.5 159.5q0 90 39.5 171t109 131t154.5 50q50 0 83 -17.5t55 -60.5l12 66h152l-93 -522q-24 -138 -106.5 -195t-206.5 -57
q-102 0 -167 41.5zM383 161.5q38 27.5 59.5 71.5t21.5 92q0 54 -30 87.5t-81 33.5q-47 0 -84 -27.5t-58 -72t-21 -92.5q0 -54 29 -87t80 -33q46 0 84 27.5z" />
    <glyph glyph-name="h" unicode="h" horiz-adv-x="615" 
d="M9 0l135 763h151l-47 -265q37 43 75.5 60.5t86.5 17.5q170 0 170 -151q0 -21 -4 -48.5t-9 -56.5l-56 -320h-152l57 322q6 35 6 58q0 39 -18 56t-57 17q-61 0 -90.5 -37t-43.5 -114l-53 -302h-151z" />
    <glyph glyph-name="i" unicode="i" horiz-adv-x="268" 
d="M160 0h-152l100 564h151zM138.5 632.5q-21.5 18.5 -21.5 48.5q0 41 31.5 69t72.5 28q33 0 54.5 -18.5t21.5 -48.5q0 -43 -31 -70t-73 -27q-33 0 -54.5 18.5z" />
    <glyph glyph-name="j" unicode="j" horiz-adv-x="268" 
d="M-123 -199l23 125h52q20 0 33.5 9.5t18.5 35.5l104 593h152l-113 -641q-10 -58 -50.5 -90t-104.5 -32h-115zM138.5 632.5q-21.5 18.5 -21.5 48.5q0 41 31.5 69t72.5 28q33 0 54.5 -18.5t21.5 -48.5q0 -43 -31 -70t-73 -27q-33 0 -54.5 18.5z" />
    <glyph glyph-name="k" unicode="k" horiz-adv-x="610" 
d="M160 0h-151l135 763h151l-71 -402l228 203h199l-296 -258l197 -306h-178l-165 275z" />
    <glyph glyph-name="l" unicode="l" horiz-adv-x="310" 
d="M136 0q-55 0 -83.5 22.5t-28.5 66.5q0 18 3 29l114 645h151l-106 -596q-1 -5 -1 -14q0 -17 9 -23t24 -6h39l-21 -124h-100z" />
    <glyph glyph-name="m" unicode="m" horiz-adv-x="904" 
d="M8 0l100 564h151l-11 -66q68 78 162 78q56 0 90 -22t41 -64q34 43 77 64.5t99 21.5q78 0 115.5 -38.5t37.5 -109.5q0 -32 -5 -57l-65 -371h-152l63 355q3 18 3 33q0 34 -16.5 49.5t-49.5 15.5q-50 0 -75.5 -36t-37.5 -105l-55 -312h-151l62 355q3 18 3 32q0 66 -67 66
q-50 0 -75.5 -37.5t-36.5 -103.5l-55 -312h-152z" />
    <glyph glyph-name="n" unicode="n" horiz-adv-x="614" 
d="M8 0l100 564h151l-11 -66q37 43 75.5 60.5t86.5 17.5q170 0 170 -151q0 -21 -4 -48.5t-9 -56.5l-57 -320h-151l57 322q6 35 6 58q0 39 -18 56t-58 17q-60 0 -89.5 -37t-43.5 -114l-53 -302h-152z" />
    <glyph glyph-name="o" unicode="o" horiz-adv-x="656" 
d="M96 51q-66 63 -66 170q0 98 46 179t125.5 128.5t177.5 47.5q76 0 132 -28.5t85.5 -81t29.5 -122.5q0 -97 -46 -178.5t-126 -129.5t-178 -48q-114 0 -180 63zM386 148.5q38 29.5 59.5 77t21.5 99.5q0 55 -29 88t-81 33q-50 0 -88.5 -29t-60 -75.5t-21.5 -99.5
q0 -57 30 -90t82 -33q49 0 87 29.5z" />
    <glyph glyph-name="p" unicode="p" horiz-adv-x="646" 
d="M-27 -199l135 763h151l-11 -66q38 43 77 60.5t89 17.5q92 0 146.5 -61t54.5 -162q0 -94 -39.5 -178t-109 -135.5t-156.5 -51.5q-50 0 -83 17.5t-55 60.5l-48 -265h-151zM380 147.5q38 29.5 59 77t21 99.5q0 55 -29 88.5t-79 33.5q-49 0 -87 -29.5t-59.5 -77t-21.5 -98.5
q0 -56 29.5 -89.5t80.5 -33.5q48 0 86 29.5z" />
    <glyph glyph-name="q" unicode="q" horiz-adv-x="646" 
d="M483 -199q-56 0 -85 23t-29 67q0 11 3 28l26 147q-37 -43 -76.5 -60.5t-89.5 -17.5q-92 0 -147 61.5t-55 161.5q0 93 39.5 177.5t109.5 136t157 51.5q50 0 83 -17.5t55 -60.5l12 66h151l-105 -600q-1 -5 -1 -11q0 -27 33 -27h42l-22 -125h-101zM381.5 147.5
q38.5 29.5 59.5 77t21 98.5q0 56 -29.5 89.5t-80.5 33.5q-48 0 -86 -29.5t-59 -77.5t-21 -99q0 -56 28.5 -89t79.5 -33q49 0 87.5 29.5z" />
    <glyph glyph-name="r" unicode="r" horiz-adv-x="401" 
d="M8 0l100 564h151l-11 -64q37 42 76.5 59t89.5 17h20l-25 -145h-31q-66 0 -104 -32q-27 -22 -43.5 -58t-26.5 -92l-44 -249h-152z" />
    <glyph glyph-name="s" unicode="s" horiz-adv-x="582" 
d="M83.5 36q-67.5 48 -67.5 156h149q5 -43 34.5 -65t74.5 -22q42 0 71.5 18t29.5 48q0 25 -28 37.5t-86 24.5q-57 11 -95 24.5t-65 41.5t-27 75q0 63 34 108.5t92 69.5t129 24q102 0 160.5 -51t58.5 -144h-143q-5 41 -31.5 60t-65.5 19q-38 0 -62.5 -16t-24.5 -41
q0 -24 28 -36t85 -22q59 -11 98 -23.5t67 -41t28 -76.5q0 -65 -36.5 -114t-99 -75.5t-136.5 -26.5q-104 0 -171.5 48z" />
    <glyph glyph-name="t" unicode="t" horiz-adv-x="391" 
d="M184 0q-55 0 -84 22.5t-29 66.5q0 18 3 29l57 326h-80l21 120h80l36 199h151l-35 -199h103l-21 -120h-103l-49 -277q-2 -5 -2 -15q0 -28 34 -28h62l-22 -124h-122z" />
    <glyph glyph-name="u" unicode="u" horiz-adv-x="615" 
d="M42 84q-7 22 -7 53q0 27 13 107l56 320h152l-57 -322q-6 -34 -6 -58q0 -32 12 -50q18 -23 63 -23q56 0 86 32q17 17 28.5 45.5t19.5 73.5l53 302h151l-99 -564h-152l12 66q-36 -41 -74 -59.5t-88 -18.5q-134 0 -163 96z" />
    <glyph glyph-name="v" unicode="v" horiz-adv-x="555" 
d="M287 0h-120l-108 564h152l46 -336l169 336h170z" />
    <glyph glyph-name="w" unicode="w" horiz-adv-x="852" 
d="M280 0h-144l-74 564h157l28 -347l157 347h131l35 -345l154 345h165l-277 -564h-143l-29 359z" />
    <glyph glyph-name="x" unicode="x" horiz-adv-x="593" 
d="M137 0h-176l240 285l-142 279h168l80 -178l147 178h180l-244 -279l144 -285h-169l-82 182z" />
    <glyph glyph-name="y" unicode="y" horiz-adv-x="571" 
d="M-16 -199l23 125h65q26 0 42.5 8.5t33.5 34.5l15 26l-104 569h158l47 -407l177 407h168l-318 -615q-42 -81 -88.5 -114.5t-121.5 -33.5h-97z" />
    <glyph glyph-name="z" unicode="z" horiz-adv-x="563" 
d="M478 0h-498l17 95l367 349h-289l21 120h482l-18 -103l-354 -340h293z" />
    <glyph glyph-name="braceleft" unicode="{" horiz-adv-x="331" 
d="M148 -110q-51 0 -76.5 28.5t-25.5 80.5q0 20 5 48l33 184q2 20 2 26q0 31 -15 46t-43 24l19 108q36 11 58.5 31t31.5 65l32 184q13 74 52 115.5t100 41.5h91l-17 -96h-39q-29 0 -43 -17.5t-19 -46.5l-32 -184q-11 -62 -41 -97t-78 -50q35 -13 53 -38t18 -67q0 -22 -4 -42
l-33 -184q-2 -16 -2 -24q0 -40 41 -40h40l-17 -96h-91z" />
    <glyph glyph-name="bar" unicode="|" horiz-adv-x="338" 
d="M160 -110h-120l173 982h120z" />
    <glyph glyph-name="braceright" unicode="}" horiz-adv-x="331" 
d="M-46 -110l17 96h39q29 0 42.5 17.5t18.5 46.5l32 184q20 115 119 147q-71 26 -71 105q0 22 4 42l33 184q2 16 2 25q0 39 -40 39h-40l17 96h91q51 0 76.5 -28.5t25.5 -80.5q0 -20 -5 -48l-33 -184q-2 -20 -2 -27q0 -31 15 -45.5t42 -23.5l-19 -108q-36 -11 -58.5 -31
t-30.5 -65l-32 -184q-13 -74 -52 -115.5t-100 -41.5h-91z" />
    <glyph glyph-name="asciitilde" unicode="~" horiz-adv-x="527" 
d="M226 215.5q-19 12.5 -39 35.5q-9 12 -16 18t-16 6q-14 0 -25 -18.5t-18 -51.5h-85q16 75 56 118.5t94 43.5q30 0 48.5 -12.5t37.5 -34.5q12 -13 19 -18.5t15 -5.5q24 0 40 67h87q-19 -82 -53.5 -121t-91.5 -39q-34 0 -53 12.5z" />
    <glyph glyph-name="uni00A0" unicode="&#xa0;" horiz-adv-x="240" 
 />
    <glyph glyph-name="exclamdown" unicode="&#xa1;" horiz-adv-x="364" 
d="M162.5 422.5q-20.5 20.5 -20.5 50.5q0 27 14.5 50.5t38.5 38t49 14.5q33 0 53.5 -20.5t20.5 -51.5q0 -40 -31.5 -71t-72.5 -31q-31 0 -51.5 20.5zM82 82q10 54 44 199l12 48h127q-16 -160 -31 -247l-50 -281h-151z" />
    <glyph glyph-name="cent" unicode="&#xa2;" horiz-adv-x="627" 
d="M313 112q72 7 104 80h165q-36 -91 -114 -145t-177 -59l-16 -88h-42l16 89q-102 7 -160.5 69t-58.5 162q0 94 41.5 173t115.5 127.5t166 54.5l16 92h42l-16 -91q96 -5 154 -57.5t64 -138.5h-166q-9 66 -74 73zM209 153q22 -32 62 -40l60 339q-44 -7 -77 -39t-50 -79
t-17 -98t22 -83z" />
    <glyph glyph-name="sterling" unicode="&#xa3;" horiz-adv-x="627" 
d="M23 141q72 5 116.5 39.5t44.5 95.5q0 39 -20 90h-97l17 96h71q-5 20 -5 46q0 75 37.5 136.5t101.5 97.5t140 36q92 0 148.5 -56t56.5 -162h-145q0 45 -22.5 66.5t-57.5 21.5q-59 0 -91 -40t-32 -105q0 -24 4 -41h198l-17 -96h-167q15 -54 15 -93q0 -46 -20 -78.5
t-60 -57.5h316l-24 -137h-533z" />
    <glyph glyph-name="currency" unicode="&#xa4;" horiz-adv-x="721" 
d="M114 55l-64 82l77 65q-20 45 -20 91q0 47 18.5 96t50.5 88l-52 66l91 82l58 -68q66 41 144 41q74 0 130 -39l78 65l67 -79l-78 -66q20 -48 20 -95t-18.5 -95.5t-50.5 -87.5l55 -65l-94 -80l-56 66q-70 -40 -145 -40t-131 40zM401 204.5q29 11.5 54 32.5q30 26 46.5 60
t16.5 68q0 46 -27 77q-18 21 -43 32t-53 11t-56.5 -11.5t-52.5 -32.5q-30 -26 -46.5 -59.5t-16.5 -68.5q0 -43 26 -77q17 -20 42 -31.5t53 -11.5t57 11.5z" />
    <glyph glyph-name="yen" unicode="&#xa5;" horiz-adv-x="709" 
d="M612 763h188l-330 -427h107l-13 -76h-128l-7 -38h128l-14 -76h-127l-26 -146h-170l26 146h-129l14 76h128l7 38h-128l13 76h107l-178 427h188l117 -306z" />
    <glyph glyph-name="brokenbar" unicode="&#xa6;" horiz-adv-x="338" 
d="M257 441h-119l75 431h120zM160 -110h-120l76 430h119z" />
    <glyph glyph-name="section" unicode="&#xa7;" horiz-adv-x="728" 
d="M80 -178q-75 59 -75 184h165q2 -56 41 -82.5t95 -26.5q59 0 100.5 25t41.5 69q0 32 -27.5 52t-66.5 31t-104 23q-76 15 -127 53t-51 107q0 57 29.5 102.5t81.5 72.5q-63 26 -63 100q0 73 44.5 129t117.5 86.5t156 30.5q113 0 182 -59t71 -169h-156q-4 45 -36.5 68.5
t-83.5 23.5t-86.5 -20t-35.5 -54q0 -39 41.5 -57t121.5 -34q94 -19 152.5 -58t58.5 -119q0 -60 -28 -108.5t-79 -71.5q59 -26 59 -96q0 -79 -44.5 -138.5t-119.5 -91t-166 -31.5q-134 0 -209 59zM482.5 223q14.5 19 14.5 45q0 31 -26.5 49.5t-72.5 29.5l-46 14
q-47 -3 -77.5 -23t-30.5 -55q0 -26 26.5 -40.5t91.5 -30.5l81 -19q25 11 39.5 30z" />
    <glyph glyph-name="dieresis" unicode="&#xa8;" horiz-adv-x="402" 
d="M97.5 632.5q-21.5 18.5 -21.5 48.5q0 41 31.5 69t72.5 28q33 0 54.5 -18.5t21.5 -48.5q0 -43 -31 -70t-73 -27q-33 0 -54.5 18.5zM312.5 632.5q-21.5 18.5 -21.5 48.5q0 42 31.5 69.5t73.5 27.5q33 0 54 -18.5t21 -48.5q0 -43 -31 -70t-73 -27q-33 0 -54.5 18.5z" />
    <glyph glyph-name="copyright" unicode="&#xa9;" horiz-adv-x="866" 
d="M213.5 34.5q-74.5 41.5 -116 114t-41.5 162.5q0 119 64.5 225t171.5 170.5t227 64.5q95 0 169 -41t115.5 -114t41.5 -164q0 -120 -65.5 -226t-172.5 -169.5t-225 -63.5q-94 0 -168.5 41.5zM570.5 136.5q80.5 48.5 129 128.5t48.5 170q0 69 -31 124t-87 86.5t-128 31.5
q-91 0 -172 -49t-129.5 -129.5t-48.5 -170.5q0 -68 31.5 -122.5t87.5 -86t128 -31.5q91 0 171.5 48.5zM320.5 189.5q-40.5 22.5 -63 62.5t-22.5 90q0 65 35 123t93.5 93.5t123.5 35.5q46 0 86.5 -20.5t63.5 -55.5l-86 -60q-14 19 -36.5 30t-48.5 11q-36 0 -68.5 -19
t-52.5 -51.5t-20 -69.5q0 -42 28.5 -69.5t71.5 -27.5q26 0 51.5 10.5t46.5 30.5l66 -60q-35 -35 -83 -55.5t-94 -20.5q-51 0 -91.5 22.5z" />
    <glyph glyph-name="ordfeminine" unicode="&#xaa;" horiz-adv-x="443" 
d="M99.5 388q-30.5 24 -30.5 69q0 66 43 101t121 49l114 19q1 6 1 16q0 22 -10 35q-14 17 -43 17q-25 0 -46 -15t-30 -41h-106q23 67 78 102t119 35q35 0 65 -9.5t49 -29.5q28 -31 28 -82q0 -31 -11 -86l-34 -196h-106l9 51q-14 -24 -39 -38q-34 -21 -91 -21q-50 0 -80.5 24
zM271 456q29 12 43 34t21 60l-86 -16q-35 -7 -53.5 -19.5t-18.5 -36.5q0 -16 12.5 -24.5t33.5 -8.5q23 0 48 11z" />
    <glyph glyph-name="guillemotleft" unicode="&#xab;" horiz-adv-x="575" 
d="M220 210l-22 -128l-201 193l269 195l-22 -127l-96 -68zM488 210l-23 -128l-200 193l269 195l-22 -127l-96 -68z" />
    <glyph glyph-name="uni00AD" unicode="&#xad;" horiz-adv-x="398" 
d="M395 267h-397l19 109h398z" />
    <glyph glyph-name="registered" unicode="&#xae;" horiz-adv-x="482" 
d="M168.5 393.5q-38.5 21.5 -60 59.5t-21.5 86q0 62 33.5 117t89.5 88.5t118 33.5q50 0 89 -21.5t60.5 -59.5t21.5 -86q0 -61 -34 -116.5t-90 -89t-118 -33.5q-50 0 -88.5 21.5zM359.5 435q46.5 27 75 72.5t28.5 96.5q0 59 -40 98.5t-101 39.5q-51 0 -97.5 -27.5t-74.5 -73
t-28 -96.5q0 -59 39.5 -98t100.5 -39q51 0 97.5 27zM186 457l41 236h108q30 0 47.5 -13.5t17.5 -40.5q0 -26 -12.5 -48t-35.5 -29l24 -105h-56l-18 92h-48l-16 -92h-52zM301 594q24 0 35 7.5t11 23.5q0 22 -27 22h-49l-9 -53h39z" />
    <glyph glyph-name="macron" unicode="&#xaf;" horiz-adv-x="310" 
d="M366 627h-301l13 71h301z" />
    <glyph glyph-name="degree" unicode="&#xb0;" horiz-adv-x="452" 
d="M162.5 499q-37.5 38 -37.5 94q0 49 27 91.5t70.5 68t90.5 25.5q58 0 95.5 -37t37.5 -93q0 -49 -27 -92t-70.5 -69t-91.5 -26q-57 0 -94.5 38zM330 575.5q25 24.5 25 56.5q0 24 -16 40t-42 16q-33 0 -57.5 -24t-24.5 -57q0 -24 16.5 -40t41.5 -16q32 0 57 24.5z" />
    <glyph glyph-name="plusminus" unicode="&#xb1;" horiz-adv-x="695" 
d="M383 163h-113l26 145h-224l19 111h224l26 145h113l-26 -145h225l-19 -111h-225zM579 0h-562l19 111h563z" />
    <glyph glyph-name="acute" unicode="&#xb4;" horiz-adv-x="274" 
d="M176 617h-113l141 146h151z" />
    <glyph glyph-name="paragraph" unicode="&#xb6;" horiz-adv-x="645" 
d="M279 335q-58 3 -106 25.5t-76 62t-28 91.5q0 70 40 127t106 89.5t140 32.5h107l-154 -873h-107zM512 -110h-108l154 873h108z" />
    <glyph glyph-name="periodcentered" unicode="&#xb7;" horiz-adv-x="315" 
d="M113.5 336.5q-18.5 19.5 -18.5 48.5q0 39 29.5 68t67.5 29q30 0 49.5 -19.5t19.5 -48.5q0 -37 -30 -67t-68 -30q-31 0 -49.5 19.5z" />
    <glyph glyph-name="cedilla" unicode="&#xb8;" horiz-adv-x="238" 
d="M-80 -196l10 56q48 -19 84 -19q27 0 42.5 12t15.5 34q0 26 -32.5 35.5t-88.5 8.5l95 90h91q-14 -12 -33 -26.5t-45 -30.5l4 -9q9 2 23 2q36 0 57 -14.5t21 -43.5q0 -53 -43 -81t-109 -28q-49 0 -92 14z" />
    <glyph glyph-name="ordmasculine" unicode="&#xba;" horiz-adv-x="480" 
d="M129 408q-46 44 -46 119q0 68 32 125t87.5 90t124.5 33q80 0 126.5 -44.5t46.5 -117.5q0 -68 -32.5 -125t-88.5 -90.5t-125 -33.5q-79 0 -125 44zM331 475.5q27 20.5 42 54t15 69.5q0 39 -20.5 62t-56.5 23q-35 0 -62 -20t-41.5 -53t-14.5 -70q0 -40 20.5 -63t56.5 -23
q34 0 61 20.5z" />
    <glyph glyph-name="guillemotright" unicode="&#xbb;" horiz-adv-x="575" 
d="M309 275l-270 -193l23 128l96 65l-73 68l22 127zM577 275l-270 -193l22 128l97 65l-73 68l22 127z" />
    <glyph glyph-name="questiondown" unicode="&#xbf;" horiz-adv-x="513" 
d="M225 422.5q-21 20.5 -21 50.5q0 27 15 51t39 38t50 14q32 0 52.5 -21t20.5 -52q0 -26 -15 -49.5t-38.5 -37.5t-49.5 -14q-32 0 -53 20.5zM9 -170.5q-57 42.5 -57 126.5q0 75 30 121.5t95 90.5q41 26 66 50.5t38 66.5l16 46h134l-8 -47q-10 -54 -31 -90t-45.5 -56.5
t-60.5 -42.5q-46 -28 -68 -53.5t-22 -66.5q0 -34 24 -51t62 -17q50 0 87 32.5t52 94.5h136q-26 -117 -108 -182t-191 -65q-92 0 -149 42.5z" />
    <glyph glyph-name="Agrave" unicode="&#xc0;" horiz-adv-x="715" 
d="M661 0h-162l-20 147h-273l-72 -147h-179l400 763h176zM419 585l-145 -298h186zM516 816h-112l-126 146h150z" />
    <glyph glyph-name="Aacute" unicode="&#xc1;" horiz-adv-x="715" 
d="M661 0h-162l-20 147h-273l-72 -147h-179l400 763h176zM419 585l-145 -298h186zM500 816h-113l141 146h151z" />
    <glyph glyph-name="Acircumflex" unicode="&#xc2;" horiz-adv-x="715" 
d="M661 0h-162l-20 147h-273l-72 -147h-179l400 763h176zM419 585l-145 -298h186zM402 817h-124l198 176h14l137 -176h-125l-37 68z" />
    <glyph glyph-name="Atilde" unicode="&#xc3;" horiz-adv-x="715" 
d="M661 0h-162l-20 147h-273l-72 -147h-179l400 763h176zM419 585l-145 -298h186zM463.5 815q-19.5 13 -37.5 35q-12 13 -18.5 18.5t-15.5 5.5q-27 0 -43 -70h-85q17 75 56.5 118.5t93.5 43.5q30 0 48.5 -12.5t37.5 -34.5q12 -13 19 -18.5t15 -5.5q12 0 22.5 17t18.5 50h87
q-20 -82 -54 -121t-91 -39q-34 0 -53.5 13z" />
    <glyph glyph-name="Adieresis" unicode="&#xc4;" horiz-adv-x="715" 
d="M661 0h-162l-20 147h-273l-72 -147h-179l400 763h176zM419 585l-145 -298h186zM287 821.5q-21 17.5 -21 47.5q0 41 31.5 68.5t72.5 27.5q33 0 53.5 -18t20.5 -48q0 -40 -30.5 -67.5t-72.5 -27.5q-33 0 -54 17.5zM502.5 821.5q-21.5 17.5 -21.5 47.5q0 41 31.5 68.5
t72.5 27.5q33 0 54 -18t21 -48q0 -40 -30.5 -67.5t-73.5 -27.5q-32 0 -53.5 17.5z" />
    <glyph glyph-name="Aring" unicode="&#xc5;" horiz-adv-x="715" 
d="M339 733q-19 23 -19 61q0 40 21.5 75.5t57.5 56.5t75 21q47 0 78.5 -30.5t31.5 -76.5q0 -31 -13 -59t-35 -48l125 -733h-171l-20 147h-273l-72 -147h-170zM486 784q17 18 17 47q0 17 -11 27t-31 10q-26 0 -43.5 -17.5t-17.5 -41.5q0 -19 12 -31t31 -12q26 0 43 18z
M411 585l-145 -298h184z" />
    <glyph glyph-name="AE" unicode="&#xc6;" horiz-adv-x="1037" 
d="M134 0h-179l400 763h497l25 -145h-321l29 -164h321l23 -144h-320l29 -165h321l24 -145h-485l-19 147h-273zM420 585l-145 -298h184z" />
    <glyph glyph-name="Ccedilla" unicode="&#xc7;" horiz-adv-x="773" 
d="M606 514q1 58 -36 88.5t-101 30.5q-77 0 -134.5 -45t-88 -119t-30.5 -158q0 -86 42 -134t122 -48q65 0 112.5 31t68.5 93h176q-38 -124 -137 -196.5t-242 -72.5h-1q-23 -15 -31 -20l4 -9q9 2 23 2q36 0 57 -14.5t21 -43.5q0 -53 -43 -81t-109 -28q-49 0 -92 14l10 56
q48 -19 84 -19q27 0 42.5 12t15.5 34q0 26 -32.5 35.5t-88.5 8.5l63 59q-118 21 -177 102t-59 199q0 134 58 245.5t161 176.5t234 65q143 0 216.5 -71.5t68.5 -192.5h-177z" />
    <glyph glyph-name="Egrave" unicode="&#xc8;" horiz-adv-x="622" 
d="M529 0h-515l135 763h515l-26 -145h-354l-29 -164h318l-25 -144h-318l-29 -165h354zM480 816h-112l-126 146h150z" />
    <glyph glyph-name="Eacute" unicode="&#xc9;" horiz-adv-x="622" 
d="M529 0h-515l135 763h515l-26 -145h-354l-29 -164h318l-25 -144h-318l-29 -165h354zM465 816h-113l141 146h151z" />
    <glyph glyph-name="Ecircumflex" unicode="&#xca;" horiz-adv-x="622" 
d="M529 0h-515l135 763h515l-26 -145h-354l-29 -164h318l-25 -144h-318l-29 -165h354zM366 817h-124l198 176h14l137 -176h-125l-37 68z" />
    <glyph glyph-name="Edieresis" unicode="&#xcb;" horiz-adv-x="622" 
d="M529 0h-515l135 763h515l-26 -145h-354l-29 -164h318l-25 -144h-318l-29 -165h354zM252 821.5q-21 17.5 -21 47.5q0 41 31.5 68.5t72.5 27.5q33 0 53.5 -18t20.5 -48q0 -40 -30.5 -67.5t-72.5 -27.5q-33 0 -54 17.5zM467.5 821.5q-21.5 17.5 -21.5 47.5q0 41 31.5 68.5
t72.5 27.5q33 0 54 -18t21 -48q0 -40 -30.5 -67.5t-73.5 -27.5q-32 0 -53.5 17.5z" />
    <glyph glyph-name="Igrave" unicode="&#xcc;" horiz-adv-x="290" 
d="M176 0h-162l135 763h162zM303 816h-112l-126 146h150z" />
    <glyph glyph-name="Iacute" unicode="&#xcd;" horiz-adv-x="290" 
d="M176 0h-162l135 763h162zM288 816h-113l141 146h151z" />
    <glyph glyph-name="Icircumflex" unicode="&#xce;" horiz-adv-x="290" 
d="M176 0h-162l135 763h162zM189 817h-124l198 176h14l137 -176h-125l-37 68z" />
    <glyph glyph-name="Idieresis" unicode="&#xcf;" horiz-adv-x="290" 
d="M176 0h-162l135 763h162zM75 821.5q-21 17.5 -21 47.5q0 41 31.5 68.5t72.5 27.5q33 0 53.5 -18t20.5 -48q0 -40 -30.5 -67.5t-72.5 -27.5q-33 0 -54 17.5zM290.5 821.5q-21.5 17.5 -21.5 47.5q0 41 31.5 68.5t72.5 27.5q33 0 54 -18t21 -48q0 -40 -30.5 -67.5
t-73.5 -27.5q-32 0 -53.5 17.5z" />
    <glyph glyph-name="Eth" unicode="&#xd0;" horiz-adv-x="727" 
d="M376 763q168 0 255 -73.5t87 -214.5q0 -142 -58.5 -249.5t-166.5 -166.5t-252 -59h-227l58 326h-62l20 111h61l58 326h227zM264 145q138 0 213.5 79.5t75.5 216.5q0 88 -53.5 132.5t-151.5 44.5h-64l-32 -181h196l-20 -111h-195l-32 -181h63z" />
    <glyph glyph-name="Ntilde" unicode="&#xd1;" horiz-adv-x="765" 
d="M176 0h-162l135 763h172l214 -505l89 505h162l-135 -763h-173l-213 507zM487.5 815q-19.5 13 -37.5 35q-12 13 -18.5 18.5t-15.5 5.5q-27 0 -43 -70h-85q17 75 56.5 118.5t93.5 43.5q30 0 48.5 -12.5t37.5 -34.5q12 -13 19 -18.5t15 -5.5q12 0 22.5 17t18.5 50h87
q-20 -82 -54 -121t-91 -39q-34 0 -53.5 13z" />
    <glyph glyph-name="Ograve" unicode="&#xd2;" horiz-adv-x="823" 
d="M182.5 24q-70.5 40 -104 109.5t-33.5 157.5q0 135 58 246.5t161 176t234 64.5q105 0 175.5 -39.5t104.5 -108.5t34 -157q0 -135 -58 -247t-161.5 -177t-233.5 -65q-106 0 -176.5 40zM519.5 174.5q58.5 45.5 89.5 119t31 157.5q0 85 -43 133.5t-124 48.5q-77 0 -135.5 -45
t-90 -118t-31.5 -156q0 -86 43.5 -135.5t124.5 -49.5q77 0 135.5 45.5zM569 816h-112l-126 146h150z" />
    <glyph glyph-name="Oacute" unicode="&#xd3;" horiz-adv-x="823" 
d="M182.5 24q-70.5 40 -104 109.5t-33.5 157.5q0 135 58 246.5t161 176t234 64.5q105 0 175.5 -39.5t104.5 -108.5t34 -157q0 -135 -58 -247t-161.5 -177t-233.5 -65q-106 0 -176.5 40zM519.5 174.5q58.5 45.5 89.5 119t31 157.5q0 85 -43 133.5t-124 48.5q-77 0 -135.5 -45
t-90 -118t-31.5 -156q0 -86 43.5 -135.5t124.5 -49.5q77 0 135.5 45.5zM553 816h-113l141 146h151z" />
    <glyph glyph-name="Ocircumflex" unicode="&#xd4;" horiz-adv-x="823" 
d="M182.5 24q-70.5 40 -104 109.5t-33.5 157.5q0 135 58 246.5t161 176t234 64.5q105 0 175.5 -39.5t104.5 -108.5t34 -157q0 -135 -58 -247t-161.5 -177t-233.5 -65q-106 0 -176.5 40zM519.5 174.5q58.5 45.5 89.5 119t31 157.5q0 85 -43 133.5t-124 48.5q-77 0 -135.5 -45
t-90 -118t-31.5 -156q0 -86 43.5 -135.5t124.5 -49.5q77 0 135.5 45.5zM455 817h-124l198 176h14l137 -176h-125l-37 68z" />
    <glyph glyph-name="Otilde" unicode="&#xd5;" horiz-adv-x="823" 
d="M182.5 24q-70.5 40 -104 109.5t-33.5 157.5q0 135 58 246.5t161 176t234 64.5q105 0 175.5 -39.5t104.5 -108.5t34 -157q0 -135 -58 -247t-161.5 -177t-233.5 -65q-106 0 -176.5 40zM519.5 174.5q58.5 45.5 89.5 119t31 157.5q0 85 -43 133.5t-124 48.5q-77 0 -135.5 -45
t-90 -118t-31.5 -156q0 -86 43.5 -135.5t124.5 -49.5q77 0 135.5 45.5zM516.5 815q-19.5 13 -37.5 35q-12 13 -18.5 18.5t-15.5 5.5q-27 0 -43 -70h-85q17 75 56.5 118.5t93.5 43.5q30 0 48.5 -12.5t37.5 -34.5q12 -13 19 -18.5t15 -5.5q12 0 22.5 17t18.5 50h87
q-20 -82 -54 -121t-91 -39q-34 0 -53.5 13z" />
    <glyph glyph-name="Odieresis" unicode="&#xd6;" horiz-adv-x="823" 
d="M182.5 24q-70.5 40 -104 109.5t-33.5 157.5q0 135 58 246.5t161 176t234 64.5q105 0 175.5 -39.5t104.5 -108.5t34 -157q0 -135 -58 -247t-161.5 -177t-233.5 -65q-106 0 -176.5 40zM519.5 174.5q58.5 45.5 89.5 119t31 157.5q0 85 -43 133.5t-124 48.5q-77 0 -135.5 -45
t-90 -118t-31.5 -156q0 -86 43.5 -135.5t124.5 -49.5q77 0 135.5 45.5zM340 821.5q-21 17.5 -21 47.5q0 41 31.5 68.5t72.5 27.5q33 0 53.5 -18t20.5 -48q0 -40 -30.5 -67.5t-72.5 -27.5q-33 0 -54 17.5zM555.5 821.5q-21.5 17.5 -21.5 47.5q0 41 31.5 68.5t72.5 27.5
q33 0 54 -18t21 -48q0 -40 -30.5 -67.5t-73.5 -27.5q-32 0 -53.5 17.5z" />
    <glyph glyph-name="multiply" unicode="&#xd7;" horiz-adv-x="567" 
d="M280 259l-187 -160l-66 80l187 160l-130 158l92 79l131 -159l187 159l66 -80l-188 -159l132 -159l-92 -79z" />
    <glyph glyph-name="Oslash" unicode="&#xd8;" horiz-adv-x="823" 
d="M849 685l-69 -59q32 -64 32 -153q0 -135 -58 -247t-161.5 -177t-233.5 -65q-153 0 -235 85l-63 -53l-54 62l70 59q-32 65 -32 154q0 135 58 246.5t161 176t234 64.5q152 0 234 -84l64 54zM221 260l379 321q-43 52 -127 52q-77 0 -135.5 -45t-90 -118t-31.5 -156
q0 -26 5 -54zM635 503l-378 -321q44 -53 127 -53q77 0 135.5 45.5t89.5 119t31 157.5q0 25 -5 52z" />
    <glyph glyph-name="Ugrave" unicode="&#xd9;" horiz-adv-x="745" 
d="M114.5 43q-65.5 59 -65.5 164q0 38 7 74l85 482h163l-86 -482q-4 -30 -4 -43q0 -52 30.5 -80.5t100.5 -28.5q84 0 126.5 40.5t54.5 111.5l85 482h163l-86 -482q-25 -138 -115 -217.5t-253 -79.5q-140 0 -205.5 59zM531 816h-112l-126 146h150z" />
    <glyph glyph-name="Uacute" unicode="&#xda;" horiz-adv-x="745" 
d="M114.5 43q-65.5 59 -65.5 164q0 38 7 74l85 482h163l-86 -482q-4 -30 -4 -43q0 -52 30.5 -80.5t100.5 -28.5q84 0 126.5 40.5t54.5 111.5l85 482h163l-86 -482q-25 -138 -115 -217.5t-253 -79.5q-140 0 -205.5 59zM515 816h-113l141 146h151z" />
    <glyph glyph-name="Ucircumflex" unicode="&#xdb;" horiz-adv-x="745" 
d="M114.5 43q-65.5 59 -65.5 164q0 38 7 74l85 482h163l-86 -482q-4 -30 -4 -43q0 -52 30.5 -80.5t100.5 -28.5q84 0 126.5 40.5t54.5 111.5l85 482h163l-86 -482q-25 -138 -115 -217.5t-253 -79.5q-140 0 -205.5 59zM417 817h-124l198 176h14l137 -176h-125l-37 68z" />
    <glyph glyph-name="Udieresis" unicode="&#xdc;" horiz-adv-x="745" 
d="M114.5 43q-65.5 59 -65.5 164q0 38 7 74l85 482h163l-86 -482q-4 -30 -4 -43q0 -52 30.5 -80.5t100.5 -28.5q84 0 126.5 40.5t54.5 111.5l85 482h163l-86 -482q-25 -138 -115 -217.5t-253 -79.5q-140 0 -205.5 59zM302 821.5q-21 17.5 -21 47.5q0 41 31.5 68.5t72.5 27.5
q33 0 53.5 -18t20.5 -48q0 -40 -30.5 -67.5t-72.5 -27.5q-33 0 -54 17.5zM517.5 821.5q-21.5 17.5 -21.5 47.5q0 41 31.5 68.5t72.5 27.5q33 0 54 -18t21 -48q0 -40 -30.5 -67.5t-73.5 -27.5q-32 0 -53.5 17.5z" />
    <glyph glyph-name="Yacute" unicode="&#xdd;" horiz-adv-x="709" 
d="M390 0h-170l53 301l-193 462h175l117 -306l226 306h202l-357 -462zM496 816h-113l141 146h151z" />
    <glyph glyph-name="Thorn" unicode="&#xde;" horiz-adv-x="666" 
d="M14 0l135 763h161l-19 -102h184q97 0 151.5 -41.5t54.5 -127.5q0 -81 -37 -146t-102.5 -102t-147.5 -37h-183l-36 -207h-161zM401 348q54 0 85 28t31 75q0 32 -22 48.5t-64 16.5h-165l-30 -168h165z" />
    <glyph glyph-name="germandbls" unicode="&#xdf;" horiz-adv-x="693" 
d="M105 476q26 147 114.5 223t229.5 76q70 0 122.5 -21.5t81.5 -59.5t29 -88q0 -68 -36.5 -118.5t-102.5 -73.5q60 -16 89 -51t29 -91q0 -81 -43.5 -142.5t-117.5 -95.5t-161 -34h-73l24 135h63q71 0 113.5 31.5t42.5 88.5q0 74 -111 74h-74l22 124h45q62 0 98 30t36 82
q0 35 -26.5 55t-72.5 20q-66 0 -110.5 -40.5t-57.5 -115.5l-85 -484h-152z" />
    <glyph glyph-name="agrave" unicode="&#xe0;" horiz-adv-x="596" 
d="M54.5 22.5q-43.5 34.5 -43.5 98.5q0 95 62 145t172 69l163 29q1 7 1 21q0 34 -14 51q-18 24 -62 24q-34 0 -64.5 -21.5t-43.5 -58.5h-151q32 96 110.5 146t170.5 50q50 0 93 -14t70 -42q40 -41 40 -116q0 -43 -15 -124l-49 -280h-151l12 73q-21 -35 -55 -54
q-50 -31 -131 -31q-71 0 -114.5 34.5zM300 120q40 18 60.5 49.5t30.5 85.5l-123 -23q-49 -9 -76 -27.5t-27 -52.5q0 -23 18 -35t48 -12q35 0 69 15zM428 617h-112l-126 146h150z" />
    <glyph glyph-name="aacute" unicode="&#xe1;" horiz-adv-x="596" 
d="M54.5 22.5q-43.5 34.5 -43.5 98.5q0 95 62 145t172 69l163 29q1 7 1 21q0 34 -14 51q-18 24 -62 24q-34 0 -64.5 -21.5t-43.5 -58.5h-151q32 96 110.5 146t170.5 50q50 0 93 -14t70 -42q40 -41 40 -116q0 -43 -15 -124l-49 -280h-151l12 73q-21 -35 -55 -54
q-50 -31 -131 -31q-71 0 -114.5 34.5zM300 120q40 18 60.5 49.5t30.5 85.5l-123 -23q-49 -9 -76 -27.5t-27 -52.5q0 -23 18 -35t48 -12q35 0 69 15zM412 617h-113l141 146h151z" />
    <glyph glyph-name="acircumflex" unicode="&#xe2;" horiz-adv-x="596" 
d="M54.5 22.5q-43.5 34.5 -43.5 98.5q0 95 62 145t172 69l163 29q1 7 1 21q0 34 -14 51q-18 24 -62 24q-34 0 -64.5 -21.5t-43.5 -58.5h-151q32 96 110.5 146t170.5 50q50 0 93 -14t70 -42q40 -41 40 -116q0 -43 -15 -124l-49 -280h-151l12 73q-21 -35 -55 -54
q-50 -31 -131 -31q-71 0 -114.5 34.5zM300 120q40 18 60.5 49.5t30.5 85.5l-123 -23q-49 -9 -76 -27.5t-27 -52.5q0 -23 18 -35t48 -12q35 0 69 15zM314 618h-124l198 176h14l137 -176h-125l-37 68z" />
    <glyph glyph-name="atilde" unicode="&#xe3;" horiz-adv-x="596" 
d="M54.5 22.5q-43.5 34.5 -43.5 98.5q0 95 62 145t172 69l163 29q1 7 1 21q0 34 -14 51q-18 24 -62 24q-34 0 -64.5 -21.5t-43.5 -58.5h-151q32 96 110.5 146t170.5 50q50 0 93 -14t70 -42q40 -41 40 -116q0 -43 -15 -124l-49 -280h-151l12 73q-21 -35 -55 -54
q-50 -31 -131 -31q-71 0 -114.5 34.5zM300 120q40 18 60.5 49.5t30.5 85.5l-123 -23q-49 -9 -76 -27.5t-27 -52.5q0 -23 18 -35t48 -12q35 0 69 15zM374.5 616q-19.5 13 -37.5 35q-12 13 -18.5 18.5t-15.5 5.5q-27 0 -43 -70h-85q17 75 56.5 118.5t93.5 43.5
q30 0 48.5 -12.5t37.5 -34.5q12 -13 19 -18.5t15 -5.5q12 0 22.5 17t18.5 50h87q-20 -82 -54 -121t-91 -39q-34 0 -53.5 13z" />
    <glyph glyph-name="adieresis" unicode="&#xe4;" horiz-adv-x="596" 
d="M54.5 22.5q-43.5 34.5 -43.5 98.5q0 95 62 145t172 69l163 29q1 7 1 21q0 34 -14 51q-18 24 -62 24q-34 0 -64.5 -21.5t-43.5 -58.5h-151q32 96 110.5 146t170.5 50q50 0 93 -14t70 -42q40 -41 40 -116q0 -43 -15 -124l-49 -280h-151l12 73q-21 -35 -55 -54
q-50 -31 -131 -31q-71 0 -114.5 34.5zM300 120q40 18 60.5 49.5t30.5 85.5l-123 -23q-49 -9 -76 -27.5t-27 -52.5q0 -23 18 -35t48 -12q35 0 69 15zM200.5 632.5q-21.5 18.5 -21.5 48.5q0 41 31.5 69t72.5 28q33 0 54.5 -18.5t21.5 -48.5q0 -43 -31 -70t-73 -27
q-33 0 -54.5 18.5zM415.5 632.5q-21.5 18.5 -21.5 48.5q0 42 31.5 69.5t73.5 27.5q33 0 54 -18.5t21 -48.5q0 -43 -31 -70t-73 -27q-33 0 -54.5 18.5z" />
    <glyph glyph-name="aring" unicode="&#xe5;" horiz-adv-x="596" 
d="M558 404q0 -43 -15 -124l-49 -280h-151l12 73q-21 -35 -55 -54q-50 -31 -131 -31q-71 0 -114.5 34.5t-43.5 98.5q0 95 62 145t172 69l163 29q1 7 1 21q0 34 -14 51q-18 24 -62 24q-34 0 -64.5 -21.5t-43.5 -58.5h-151q29 88 97 137t151 57q-35 10 -56 39t-21 66
q0 40 22 75t58.5 56t75.5 21q47 0 78 -30.5t31 -77.5q0 -52 -35 -94t-86 -55q40 -4 73.5 -17.5t55.5 -36.5q40 -41 40 -116zM344 734q-17 -18 -17 -43q0 -19 11.5 -30t30.5 -11q26 0 43.5 18.5t17.5 43.5q0 18 -11.5 29t-31.5 11q-26 0 -43 -18zM360.5 169.5
q20.5 31.5 30.5 85.5l-123 -23q-49 -9 -76 -27.5t-27 -52.5q0 -23 18 -35t48 -12q35 0 69 15q40 18 60.5 49.5z" />
    <glyph glyph-name="ae" unicode="&#xe6;" horiz-adv-x="1006" 
d="M549 250v-9q0 -58 30 -90t86 -32q41 0 75 20.5t53 52.5h153q-43 -90 -122 -147t-188 -57q-73 0 -127 27t-84 76q-48 -61 -109.5 -82t-130.5 -21q-82 0 -128 34.5t-46 98.5q0 95 62 145t172 69l163 29q1 7 1 21q0 34 -14 51q-18 24 -62 24q-34 0 -64.5 -21.5t-43.5 -58.5
h-151q32 96 110.5 146t170.5 50q50 0 93 -14t70 -42l12 -14q91 70 205 70q105 0 173.5 -56.5t68.5 -169.5q0 -31 -12 -100h-416zM574 361h257q-3 28 -15 45q-12 26 -37.5 39t-58.5 13q-68 0 -113 -46q-24 -22 -33 -51zM360.5 169.5q20.5 31.5 30.5 85.5l-123 -23
q-49 -9 -76 -27.5t-27 -52.5q0 -23 18 -35t48 -12q35 0 69 15q40 18 60.5 49.5z" />
    <glyph glyph-name="ccedilla" unicode="&#xe7;" horiz-adv-x="627" 
d="M417 192h165q-36 -91 -114 -144.5t-176 -58.5q-14 -11 -37 -25l4 -9q9 2 23 2q36 0 57 -14.5t21 -43.5q0 -53 -43 -81t-109 -28q-49 0 -92 14l10 56q48 -19 84 -19q27 0 42.5 12t15.5 34q0 26 -32.5 35.5t-88.5 8.5l66 62q-86 17 -134.5 76.5t-48.5 150.5q0 98 45 179.5
t124.5 129t177.5 47.5q104 0 167 -53t69 -143h-166q-11 74 -92 74q-51 0 -89.5 -31t-58.5 -81.5t-20 -105.5q0 -59 28.5 -92t79.5 -33q87 0 122 81z" />
    <glyph glyph-name="egrave" unicode="&#xe8;" horiz-adv-x="644" 
d="M143 17q-55 29 -84.5 81.5t-29.5 121.5q0 95 45.5 177t124.5 130.5t174 48.5q106 0 174.5 -56.5t68.5 -169.5q-1 -39 -12 -100h-417v-9q0 -58 30.5 -90t86.5 -32q41 0 74.5 20.5t52.5 52.5h154q-43 -90 -122.5 -147t-188.5 -57q-76 0 -131 29zM469 361q-1 14 -3.5 24.5
t-10.5 20.5q-12 26 -37.5 39t-59.5 13q-69 0 -112 -46q-21 -18 -34 -51h257zM446 617h-112l-126 146h150z" />
    <glyph glyph-name="eacute" unicode="&#xe9;" horiz-adv-x="644" 
d="M143 17q-55 29 -84.5 81.5t-29.5 121.5q0 95 45.5 177t124.5 130.5t174 48.5q106 0 174.5 -56.5t68.5 -169.5q-1 -39 -12 -100h-417v-9q0 -58 30.5 -90t86.5 -32q41 0 74.5 20.5t52.5 52.5h154q-43 -90 -122.5 -147t-188.5 -57q-76 0 -131 29zM469 361q-1 14 -3.5 24.5
t-10.5 20.5q-12 26 -37.5 39t-59.5 13q-69 0 -112 -46q-21 -18 -34 -51h257zM430 617h-113l141 146h151z" />
    <glyph glyph-name="ecircumflex" unicode="&#xea;" horiz-adv-x="644" 
d="M143 17q-55 29 -84.5 81.5t-29.5 121.5q0 95 45.5 177t124.5 130.5t174 48.5q106 0 174.5 -56.5t68.5 -169.5q-1 -39 -12 -100h-417v-9q0 -58 30.5 -90t86.5 -32q41 0 74.5 20.5t52.5 52.5h154q-43 -90 -122.5 -147t-188.5 -57q-76 0 -131 29zM469 361q-1 14 -3.5 24.5
t-10.5 20.5q-12 26 -37.5 39t-59.5 13q-69 0 -112 -46q-21 -18 -34 -51h257zM332 618h-124l198 176h14l137 -176h-125l-37 68z" />
    <glyph glyph-name="edieresis" unicode="&#xeb;" horiz-adv-x="644" 
d="M143 17q-55 29 -84.5 81.5t-29.5 121.5q0 95 45.5 177t124.5 130.5t174 48.5q106 0 174.5 -56.5t68.5 -169.5q-1 -39 -12 -100h-417v-9q0 -58 30.5 -90t86.5 -32q41 0 74.5 20.5t52.5 52.5h154q-43 -90 -122.5 -147t-188.5 -57q-76 0 -131 29zM469 361q-1 14 -3.5 24.5
t-10.5 20.5q-12 26 -37.5 39t-59.5 13q-69 0 -112 -46q-21 -18 -34 -51h257zM219.5 632.5q-21.5 18.5 -21.5 48.5q0 41 31.5 69t72.5 28q33 0 54.5 -18.5t21.5 -48.5q0 -43 -31 -70t-73 -27q-33 0 -54.5 18.5zM434.5 632.5q-21.5 18.5 -21.5 48.5q0 42 31.5 69.5t73.5 27.5
q33 0 54 -18.5t21 -48.5q0 -43 -31 -70t-73 -27q-33 0 -54.5 18.5z" />
    <glyph glyph-name="igrave" unicode="&#xec;" horiz-adv-x="268" 
d="M160 0h-152l100 564h151zM257 617h-112l-126 146h150z" />
    <glyph glyph-name="iacute" unicode="&#xed;" horiz-adv-x="268" 
d="M160 0h-152l100 564h151zM241 617h-113l141 146h151z" />
    <glyph glyph-name="icircumflex" unicode="&#xee;" horiz-adv-x="268" 
d="M160 0h-152l100 564h151zM143 618h-124l198 176h14l137 -176h-125l-37 68z" />
    <glyph glyph-name="idieresis" unicode="&#xef;" horiz-adv-x="268" 
d="M160 0h-152l100 564h151zM30.5 632.5q-21.5 18.5 -21.5 48.5q0 41 31.5 69t72.5 28q33 0 54.5 -18.5t21.5 -48.5q0 -43 -31 -70t-73 -27q-33 0 -54.5 18.5zM245.5 632.5q-21.5 18.5 -21.5 48.5q0 42 31.5 69.5t73.5 27.5q33 0 54 -18.5t21 -48.5q0 -43 -31 -70t-73 -27
q-33 0 -54.5 18.5z" />
    <glyph glyph-name="eth" unicode="&#xf0;" horiz-adv-x="617" 
d="M69.5 43.5q-61.5 58.5 -61.5 156.5q0 85 38 155.5t105 111t152 40.5q46 0 87.5 -17t68.5 -54q6 29 6 55q0 70 -43 115l-117 -61l-22 55l76 39q-23 8 -52 8q-41 0 -85 -15l-43 120q77 26 158 26q110 0 177 -56l81 41l22 -55l-61 -32q48 -73 48 -188q0 -133 -43 -248.5
t-127 -185t-200 -69.5q-103 0 -164.5 58.5zM339 146q36 22 57 58t21 76q0 45 -30.5 75t-78.5 30q-40 0 -75 -21t-56 -56.5t-21 -75.5q0 -48 29 -78t76 -30q42 0 78 22z" />
    <glyph glyph-name="ntilde" unicode="&#xf1;" horiz-adv-x="614" 
d="M8 0l100 564h151l-11 -66q37 43 75.5 60.5t86.5 17.5q170 0 170 -151q0 -21 -4 -48.5t-9 -56.5l-57 -320h-151l57 322q6 35 6 58q0 39 -18 56t-58 17q-60 0 -89.5 -37t-43.5 -114l-53 -302h-152zM377.5 616q-19.5 13 -37.5 35q-12 13 -18.5 18.5t-15.5 5.5q-27 0 -43 -70
h-85q17 75 56.5 118.5t93.5 43.5q30 0 48.5 -12.5t37.5 -34.5q12 -13 19 -18.5t15 -5.5q12 0 22.5 17t18.5 50h87q-20 -82 -54 -121t-91 -39q-34 0 -53.5 13z" />
    <glyph glyph-name="ograve" unicode="&#xf2;" horiz-adv-x="656" 
d="M96 51q-66 63 -66 170q0 98 46 179t125.5 128.5t177.5 47.5q76 0 132 -28.5t85.5 -81t29.5 -122.5q0 -97 -46 -178.5t-126 -129.5t-178 -48q-114 0 -180 63zM386 148.5q38 29.5 59.5 77t21.5 99.5q0 55 -29 88t-81 33q-50 0 -88.5 -29t-60 -75.5t-21.5 -99.5
q0 -57 30 -90t82 -33q49 0 87 29.5zM451 617h-112l-126 146h150z" />
    <glyph glyph-name="oacute" unicode="&#xf3;" horiz-adv-x="656" 
d="M96 51q-66 63 -66 170q0 98 46 179t125.5 128.5t177.5 47.5q76 0 132 -28.5t85.5 -81t29.5 -122.5q0 -97 -46 -178.5t-126 -129.5t-178 -48q-114 0 -180 63zM386 148.5q38 29.5 59.5 77t21.5 99.5q0 55 -29 88t-81 33q-50 0 -88.5 -29t-60 -75.5t-21.5 -99.5
q0 -57 30 -90t82 -33q49 0 87 29.5zM435 617h-113l141 146h151z" />
    <glyph glyph-name="ocircumflex" unicode="&#xf4;" horiz-adv-x="656" 
d="M96 51q-66 63 -66 170q0 98 46 179t125.5 128.5t177.5 47.5q76 0 132 -28.5t85.5 -81t29.5 -122.5q0 -97 -46 -178.5t-126 -129.5t-178 -48q-114 0 -180 63zM386 148.5q38 29.5 59.5 77t21.5 99.5q0 55 -29 88t-81 33q-50 0 -88.5 -29t-60 -75.5t-21.5 -99.5
q0 -57 30 -90t82 -33q49 0 87 29.5zM337 618h-124l198 176h14l137 -176h-125l-37 68z" />
    <glyph glyph-name="otilde" unicode="&#xf5;" horiz-adv-x="656" 
d="M96 51q-66 63 -66 170q0 98 46 179t125.5 128.5t177.5 47.5q76 0 132 -28.5t85.5 -81t29.5 -122.5q0 -97 -46 -178.5t-126 -129.5t-178 -48q-114 0 -180 63zM386 148.5q38 29.5 59.5 77t21.5 99.5q0 55 -29 88t-81 33q-50 0 -88.5 -29t-60 -75.5t-21.5 -99.5
q0 -57 30 -90t82 -33q49 0 87 29.5zM398.5 616q-19.5 13 -37.5 35q-12 13 -18.5 18.5t-15.5 5.5q-27 0 -43 -70h-85q17 75 56.5 118.5t93.5 43.5q30 0 48.5 -12.5t37.5 -34.5q12 -13 19 -18.5t15 -5.5q12 0 22.5 17t18.5 50h87q-20 -82 -54 -121t-91 -39q-34 0 -53.5 13z
" />
    <glyph glyph-name="odieresis" unicode="&#xf6;" horiz-adv-x="656" 
d="M96 51q-66 63 -66 170q0 98 46 179t125.5 128.5t177.5 47.5q76 0 132 -28.5t85.5 -81t29.5 -122.5q0 -97 -46 -178.5t-126 -129.5t-178 -48q-114 0 -180 63zM386 148.5q38 29.5 59.5 77t21.5 99.5q0 55 -29 88t-81 33q-50 0 -88.5 -29t-60 -75.5t-21.5 -99.5
q0 -57 30 -90t82 -33q49 0 87 29.5zM224.5 632.5q-21.5 18.5 -21.5 48.5q0 41 31.5 69t72.5 28q33 0 54.5 -18.5t21.5 -48.5q0 -43 -31 -70t-73 -27q-33 0 -54.5 18.5zM439.5 632.5q-21.5 18.5 -21.5 48.5q0 42 31.5 69.5t73.5 27.5q33 0 54 -18.5t21 -48.5q0 -43 -31 -70
t-73 -27q-33 0 -54.5 18.5z" />
    <glyph glyph-name="divide" unicode="&#xf7;" horiz-adv-x="529" 
d="M373 443h-162l27 150h162zM504 284h-479l20 111h479zM309 77h-162l26 150h162z" />
    <glyph glyph-name="oslash" unicode="&#xf8;" horiz-adv-x="656" 
d="M668 517l-68 -58q26 -50 26 -115q0 -97 -46 -178.5t-126 -129.5t-178 -48q-103 0 -168 53l-66 -56l-54 62l68 58q-26 50 -26 116q0 98 46 179t125.5 128.5t177.5 47.5q104 0 169 -53l67 57zM189 218l240 204q-29 24 -72 24q-50 0 -88.5 -29t-60 -75.5t-21.5 -99.5
q0 -10 2 -24zM466 345l-239 -203q29 -23 72 -23q49 0 87 29.5t59.5 77t21.5 99.5q0 14 -1 20z" />
    <glyph glyph-name="ugrave" unicode="&#xf9;" horiz-adv-x="615" 
d="M42 84q-7 22 -7 53q0 27 13 107l56 320h152l-57 -322q-6 -34 -6 -58q0 -32 12 -50q18 -23 63 -23q56 0 86 32q17 17 28.5 45.5t19.5 73.5l53 302h151l-99 -564h-152l12 66q-36 -41 -74 -59.5t-88 -18.5q-134 0 -163 96zM430 617h-112l-126 146h150z" />
    <glyph glyph-name="uacute" unicode="&#xfa;" horiz-adv-x="615" 
d="M42 84q-7 22 -7 53q0 27 13 107l56 320h152l-57 -322q-6 -34 -6 -58q0 -32 12 -50q18 -23 63 -23q56 0 86 32q17 17 28.5 45.5t19.5 73.5l53 302h151l-99 -564h-152l12 66q-36 -41 -74 -59.5t-88 -18.5q-134 0 -163 96zM415 617h-113l141 146h151z" />
    <glyph glyph-name="ucircumflex" unicode="&#xfb;" horiz-adv-x="615" 
d="M42 84q-7 22 -7 53q0 27 13 107l56 320h152l-57 -322q-6 -34 -6 -58q0 -32 12 -50q18 -23 63 -23q56 0 86 32q17 17 28.5 45.5t19.5 73.5l53 302h151l-99 -564h-152l12 66q-36 -41 -74 -59.5t-88 -18.5q-134 0 -163 96zM316 618h-124l198 176h14l137 -176h-125l-37 68z
" />
    <glyph glyph-name="udieresis" unicode="&#xfc;" horiz-adv-x="615" 
d="M42 84q-7 22 -7 53q0 27 13 107l56 320h152l-57 -322q-6 -34 -6 -58q0 -32 12 -50q18 -23 63 -23q56 0 86 32q17 17 28.5 45.5t19.5 73.5l53 302h151l-99 -564h-152l12 66q-36 -41 -74 -59.5t-88 -18.5q-134 0 -163 96zM203.5 632.5q-21.5 18.5 -21.5 48.5q0 41 31.5 69
t72.5 28q33 0 54.5 -18.5t21.5 -48.5q0 -43 -31 -70t-73 -27q-33 0 -54.5 18.5zM418.5 632.5q-21.5 18.5 -21.5 48.5q0 42 31.5 69.5t73.5 27.5q33 0 54 -18.5t21 -48.5q0 -43 -31 -70t-73 -27q-33 0 -54.5 18.5z" />
    <glyph glyph-name="yacute" unicode="&#xfd;" horiz-adv-x="571" 
d="M-16 -199l23 125h65q26 0 42.5 8.5t33.5 34.5l15 26l-104 569h158l47 -407l177 407h168l-318 -615q-42 -81 -88.5 -114.5t-121.5 -33.5h-97zM388 617h-113l141 146h151z" />
    <glyph glyph-name="thorn" unicode="&#xfe;" horiz-adv-x="646" 
d="M-27 -199l170 962h152l-47 -265q38 43 77 60.5t89 17.5q92 0 146.5 -61t54.5 -162q0 -94 -39.5 -178t-109 -135.5t-156.5 -51.5q-50 0 -83 17.5t-55 60.5l-48 -265h-151zM380 147.5q38 29.5 59 77t21 99.5q0 55 -29 88.5t-79 33.5q-49 0 -87 -29.5t-59.5 -77t-21.5 -98.5
q0 -56 29.5 -89.5t80.5 -33.5q48 0 86 29.5z" />
    <glyph glyph-name="ydieresis" unicode="&#xff;" horiz-adv-x="571" 
d="M-16 -199l23 125h65q26 0 42.5 8.5t33.5 34.5l15 26l-104 569h158l47 -407l177 407h168l-318 -615q-42 -81 -88.5 -114.5t-121.5 -33.5h-97zM176.5 632.5q-21.5 18.5 -21.5 48.5q0 41 31.5 69t72.5 28q33 0 54.5 -18.5t21.5 -48.5q0 -43 -31 -70t-73 -27
q-33 0 -54.5 18.5zM391.5 632.5q-21.5 18.5 -21.5 48.5q0 42 31.5 69.5t73.5 27.5q33 0 54 -18.5t21 -48.5q0 -43 -31 -70t-73 -27q-33 0 -54.5 18.5z" />
    <glyph glyph-name="Amacron" unicode="&#x100;" horiz-adv-x="715" 
d="M661 0h-162l-20 147h-273l-72 -147h-179l400 763h176zM419 585l-145 -298h186zM604 826h-301l13 71h301z" />
    <glyph glyph-name="amacron" unicode="&#x101;" horiz-adv-x="596" 
d="M54.5 22.5q-43.5 34.5 -43.5 98.5q0 95 62 145t172 69l163 29q1 7 1 21q0 34 -14 51q-18 24 -62 24q-34 0 -64.5 -21.5t-43.5 -58.5h-151q32 96 110.5 146t170.5 50q50 0 93 -14t70 -42q40 -41 40 -116q0 -43 -15 -124l-49 -280h-151l12 73q-21 -35 -55 -54
q-50 -31 -131 -31q-71 0 -114.5 34.5zM300 120q40 18 60.5 49.5t30.5 85.5l-123 -23q-49 -9 -76 -27.5t-27 -52.5q0 -23 18 -35t48 -12q35 0 69 15zM516 627h-301l13 71h301z" />
    <glyph glyph-name="Abreve" unicode="&#x102;" horiz-adv-x="715" 
d="M661 0h-162l-20 147h-273l-72 -147h-179l400 763h176zM419 585l-145 -298h186zM341.5 838.5q-35.5 33.5 -35.5 93.5q0 9 2 29h85q-2 -36 18 -54t54 -18t59.5 18.5t37.5 53.5h86q-17 -73 -68 -114.5t-130 -41.5q-73 0 -108.5 33.5z" />
    <glyph glyph-name="abreve" unicode="&#x103;" horiz-adv-x="596" 
d="M54.5 22.5q-43.5 34.5 -43.5 98.5q0 95 62 145t172 69l163 29q1 7 1 21q0 34 -14 51q-18 24 -62 24q-34 0 -64.5 -21.5t-43.5 -58.5h-151q32 96 110.5 146t170.5 50q50 0 93 -14t70 -42q40 -41 40 -116q0 -43 -15 -124l-49 -280h-151l12 73q-21 -35 -55 -54
q-50 -31 -131 -31q-71 0 -114.5 34.5zM300 120q40 18 60.5 49.5t30.5 85.5l-123 -23q-49 -9 -76 -27.5t-27 -52.5q0 -23 18 -35t48 -12q35 0 69 15zM253.5 639.5q-35.5 33.5 -35.5 93.5q0 9 2 29h85q-2 -36 18 -54t54 -18t59.5 18.5t37.5 53.5h86q-17 -73 -68 -114.5
t-130 -41.5q-73 0 -108.5 33.5z" />
    <glyph glyph-name="Aogonek" unicode="&#x104;" horiz-adv-x="715" 
d="M661 0h-162l-20 147h-273l-72 -147h-179l400 763h176zM419 585l-145 -298h186zM443 -144q0 48 31.5 76.5t91.5 48.5l4 19h91q-61 -35 -82.5 -53t-21.5 -40q0 -25 34 -25q24 0 51 13l-16 -94q-37 -11 -78 -11q-105 0 -105 66z" />
    <glyph glyph-name="aogonek" unicode="&#x105;" horiz-adv-x="596" 
d="M558 404q0 -43 -15 -124l-49 -280q-61 -35 -82.5 -53t-21.5 -40q0 -25 34 -25q24 0 51 13l-16 -94q-37 -11 -78 -11q-105 0 -105 66q0 48 31.5 76.5t91.5 48.5l4 19h-60l12 73q-21 -35 -55 -54q-50 -31 -131 -31q-71 0 -114.5 34.5t-43.5 98.5q0 95 62 145t172 69l163 29
q1 7 1 21q0 34 -14 51q-18 24 -62 24q-34 0 -64.5 -21.5t-43.5 -58.5h-151q32 96 110.5 146t170.5 50q50 0 93 -14t70 -42q40 -41 40 -116zM360.5 169.5q20.5 31.5 30.5 85.5l-123 -23q-49 -9 -76 -27.5t-27 -52.5q0 -23 18 -35t48 -12q35 0 69 15q40 18 60.5 49.5z" />
    <glyph glyph-name="Cacute" unicode="&#x106;" horiz-adv-x="773" 
d="M182 24q-70 40 -103.5 109t-33.5 158q0 134 58 245.5t161 176.5t234 65q143 0 216.5 -71.5t68.5 -192.5h-177q1 58 -36 88.5t-101 30.5q-77 0 -134.5 -45t-88 -119t-30.5 -158q0 -86 42 -134t122 -48q65 0 112.5 31t68.5 93h176q-38 -124 -137 -196.5t-242 -72.5
q-106 0 -176 40zM528 816h-113l141 146h151z" />
    <glyph glyph-name="cacute" unicode="&#x107;" horiz-adv-x="627" 
d="M95 51q-65 63 -65 169q0 98 45 179.5t124.5 129t177.5 47.5q104 0 167 -53t69 -143h-166q-11 74 -92 74q-51 0 -89.5 -31t-58.5 -81.5t-20 -105.5q0 -59 28.5 -92t79.5 -33q87 0 122 81h165q-38 -95 -121.5 -149.5t-187.5 -54.5q-113 0 -178 63zM421 617h-113l141 146
h151z" />
    <glyph glyph-name="Cdotaccent" unicode="&#x10a;" horiz-adv-x="773" 
d="M182 24q-70 40 -103.5 109t-33.5 158q0 134 58 245.5t161 176.5t234 65q143 0 216.5 -71.5t68.5 -192.5h-177q1 58 -36 88.5t-101 30.5q-77 0 -134.5 -45t-88 -119t-30.5 -158q0 -86 42 -134t122 -48q65 0 112.5 31t68.5 93h176q-38 -124 -137 -196.5t-242 -72.5
q-106 0 -176 40zM423 821.5q-21 17.5 -21 47.5q0 41 31.5 68.5t72.5 27.5q33 0 53.5 -18t20.5 -48q0 -40 -30.5 -67.5t-72.5 -27.5q-33 0 -54 17.5z" />
    <glyph glyph-name="cdotaccent" unicode="&#x10b;" horiz-adv-x="627" 
d="M95 51q-65 63 -65 169q0 98 45 179.5t124.5 129t177.5 47.5q104 0 167 -53t69 -143h-166q-11 74 -92 74q-51 0 -89.5 -31t-58.5 -81.5t-20 -105.5q0 -59 28.5 -92t79.5 -33q87 0 122 81h165q-38 -95 -121.5 -149.5t-187.5 -54.5q-113 0 -178 63zM318.5 632.5
q-21.5 18.5 -21.5 48.5q0 41 31.5 69t72.5 28q33 0 54.5 -18.5t21.5 -48.5q0 -43 -31 -70t-73 -27q-33 0 -54.5 18.5z" />
    <glyph glyph-name="Ccaron" unicode="&#x10c;" horiz-adv-x="773" 
d="M182 24q-70 40 -103.5 109t-33.5 158q0 134 58 245.5t161 176.5t234 65q143 0 216.5 -71.5t68.5 -192.5h-177q1 58 -36 88.5t-101 30.5q-77 0 -134.5 -45t-88 -119t-30.5 -158q0 -86 42 -134t122 -48q65 0 112.5 31t68.5 93h176q-38 -124 -137 -196.5t-242 -72.5
q-106 0 -176 40zM482 787h-14l-136 175h124l37 -68l63 68h125z" />
    <glyph glyph-name="ccaron" unicode="&#x10d;" horiz-adv-x="627" 
d="M95 51q-65 63 -65 169q0 98 45 179.5t124.5 129t177.5 47.5q104 0 167 -53t69 -143h-166q-11 74 -92 74q-51 0 -89.5 -31t-58.5 -81.5t-20 -105.5q0 -59 28.5 -92t79.5 -33q87 0 122 81h165q-38 -95 -121.5 -149.5t-187.5 -54.5q-113 0 -178 63zM375 588h-14l-136 175
h124l37 -68l63 68h125z" />
    <glyph glyph-name="Dcaron" unicode="&#x10e;" horiz-adv-x="727" 
d="M14 0l135 763h227q168 0 255 -73.5t87 -214.5q0 -142 -58.5 -249.5t-166.5 -166.5t-252 -59h-227zM264 145q138 0 213.5 79.5t75.5 216.5q0 88 -53.5 132.5t-151.5 44.5h-64l-83 -473h63zM446 787h-14l-136 175h124l37 -68l63 68h125z" />
    <glyph glyph-name="dcaron" unicode="&#x10f;" horiz-adv-x="646" 
d="M85 49.5q-55 61.5 -55 162.5q0 93 39.5 177t109.5 135.5t157 51.5q50 0 83 -17t55 -61l47 265h152l-135 -763h-152l12 66q-37 -43 -76.5 -60.5t-89.5 -17.5q-92 0 -147 61.5zM381 147.5q38 29.5 59.5 77t21.5 99.5q0 56 -29.5 89t-80.5 33q-48 0 -86 -29.5t-59 -77
t-21 -98.5q0 -56 28.5 -89.5t79.5 -33.5q49 0 87 29.5zM722 520q48 2 81 21.5t46 55.5q8 32 7 27q-22 -23 -55 -23q-24 0 -41.5 18t-17.5 47q0 48 32 78.5t80 30.5q43 0 65 -26.5t22 -72.5q0 -20 -4 -40q-13 -77 -70 -132.5t-159 -61.5z" />
    <glyph glyph-name="Dcroat" unicode="&#x110;" horiz-adv-x="727" 
d="M376 763q168 0 255 -73.5t87 -214.5q0 -142 -58.5 -249.5t-166.5 -166.5t-252 -59h-227l58 326h-62l20 111h61l58 326h227zM264 145q138 0 213.5 79.5t75.5 216.5q0 88 -53.5 132.5t-151.5 44.5h-64l-32 -181h196l-20 -111h-195l-32 -181h63z" />
    <glyph glyph-name="Emacron" unicode="&#x112;" horiz-adv-x="622" 
d="M529 0h-515l135 763h515l-26 -145h-354l-29 -164h318l-25 -144h-318l-29 -165h354zM569 826h-301l13 71h301z" />
    <glyph glyph-name="emacron" unicode="&#x113;" horiz-adv-x="644" 
d="M143 17q-55 29 -84.5 81.5t-29.5 121.5q0 95 45.5 177t124.5 130.5t174 48.5q106 0 174.5 -56.5t68.5 -169.5q-1 -39 -12 -100h-417v-9q0 -58 30.5 -90t86.5 -32q41 0 74.5 20.5t52.5 52.5h154q-43 -90 -122.5 -147t-188.5 -57q-76 0 -131 29zM469 361q-1 14 -3.5 24.5
t-10.5 20.5q-12 26 -37.5 39t-59.5 13q-69 0 -112 -46q-21 -18 -34 -51h257zM534 627h-301l13 71h301z" />
    <glyph glyph-name="Edotaccent" unicode="&#x116;" horiz-adv-x="622" 
d="M529 0h-515l135 763h515l-26 -145h-354l-29 -164h318l-25 -144h-318l-29 -165h354zM360 821.5q-21 17.5 -21 47.5q0 41 31.5 68.5t72.5 27.5q33 0 53.5 -18t20.5 -48q0 -40 -30.5 -67.5t-72.5 -27.5q-33 0 -54 17.5z" />
    <glyph glyph-name="edotaccent" unicode="&#x117;" horiz-adv-x="644" 
d="M143 17q-55 29 -84.5 81.5t-29.5 121.5q0 95 45.5 177t124.5 130.5t174 48.5q106 0 174.5 -56.5t68.5 -169.5q-1 -39 -12 -100h-417v-9q0 -58 30.5 -90t86.5 -32q41 0 74.5 20.5t52.5 52.5h154q-43 -90 -122.5 -147t-188.5 -57q-76 0 -131 29zM469 361q-1 14 -3.5 24.5
t-10.5 20.5q-12 26 -37.5 39t-59.5 13q-69 0 -112 -46q-21 -18 -34 -51h257zM327.5 632.5q-21.5 18.5 -21.5 48.5q0 41 31.5 69t72.5 28q33 0 54.5 -18.5t21.5 -48.5q0 -43 -31 -70t-73 -27q-33 0 -54.5 18.5z" />
    <glyph glyph-name="Eogonek" unicode="&#x118;" horiz-adv-x="622" 
d="M529 0h-515l135 763h515l-26 -145h-354l-29 -164h318l-25 -144h-318l-29 -165h354zM312 -144q0 48 31.5 76.5t91.5 48.5l4 19h91q-61 -35 -82.5 -53t-21.5 -40q0 -25 34 -25q24 0 51 13l-16 -94q-37 -11 -78 -11q-105 0 -105 66z" />
    <glyph glyph-name="eogonek" unicode="&#x119;" horiz-adv-x="644" 
d="M187 250v-9q0 -58 30.5 -90t86.5 -32q41 0 74.5 20.5t52.5 52.5h154q-46 -94 -124 -148q-22 -15 -38 -22q-37 -23 -51.5 -38t-14.5 -33q0 -25 34 -25q24 0 51 13l-16 -94q-37 -11 -78 -11q-105 0 -105 66q0 56 45 88h-14q-76 0 -131 29t-84.5 81.5t-29.5 121.5
q0 95 45.5 177t124.5 130.5t174 48.5q106 0 174.5 -56.5t68.5 -169.5q-1 -39 -12 -100h-417zM212 361h257q-1 14 -3.5 24.5t-10.5 20.5q-12 26 -37.5 39t-59.5 13q-69 0 -112 -46q-21 -18 -34 -51z" />
    <glyph glyph-name="Ecaron" unicode="&#x11a;" horiz-adv-x="622" 
d="M529 0h-515l135 763h515l-26 -145h-354l-29 -164h318l-25 -144h-318l-29 -165h354zM418 787h-14l-136 175h124l37 -68l63 68h125z" />
    <glyph glyph-name="ecaron" unicode="&#x11b;" horiz-adv-x="644" 
d="M143 17q-55 29 -84.5 81.5t-29.5 121.5q0 95 45.5 177t124.5 130.5t174 48.5q106 0 174.5 -56.5t68.5 -169.5q-1 -39 -12 -100h-417v-9q0 -58 30.5 -90t86.5 -32q41 0 74.5 20.5t52.5 52.5h154q-43 -90 -122.5 -147t-188.5 -57q-76 0 -131 29zM469 361q-1 14 -3.5 24.5
t-10.5 20.5q-12 26 -37.5 39t-59.5 13q-69 0 -112 -46q-21 -18 -34 -51h257zM384 588h-14l-136 175h124l37 -68l63 68h125z" />
    <glyph glyph-name="Gbreve" unicode="&#x11e;" horiz-adv-x="823" 
d="M181.5 24.5q-70.5 40.5 -104 109.5t-33.5 158q0 134 58.5 245.5t162 176t234.5 64.5q151 0 229.5 -70.5t78.5 -192.5h-177q-12 118 -157 118q-77 0 -135.5 -44.5t-90 -117t-31.5 -155.5q0 -87 46.5 -137t137.5 -50q85 0 139.5 40t71.5 120h-163l23 132h325l-75 -421h-147
l14 79q-84 -95 -229 -95q-107 0 -177.5 40.5zM396.5 838.5q-35.5 33.5 -35.5 93.5q0 9 2 29h85q-2 -36 18 -54t54 -18t59.5 18.5t37.5 53.5h86q-17 -73 -68 -114.5t-130 -41.5q-73 0 -108.5 33.5z" />
    <glyph glyph-name="gbreve" unicode="&#x11f;" horiz-adv-x="647" 
d="M66 -168.5q-65 41.5 -65 143.5h152q7 -38 31 -54t69 -16q60 0 94 27.5t42 72.5l13 77q-38 -43 -77 -60.5t-89 -17.5q-93 0 -147.5 60.5t-54.5 159.5q0 90 39.5 171t109 131t154.5 50q50 0 83 -17.5t55 -60.5l12 66h152l-93 -522q-24 -138 -106.5 -195t-206.5 -57
q-102 0 -167 41.5zM383 161.5q38 27.5 59.5 71.5t21.5 92q0 54 -30 87.5t-81 33.5q-47 0 -84 -27.5t-58 -72t-21 -92.5q0 -54 29 -87t80 -33q46 0 84 27.5zM272.5 639.5q-35.5 33.5 -35.5 93.5q0 9 2 29h85q-2 -36 18 -54t54 -18t59.5 18.5t37.5 53.5h86q-17 -73 -68 -114.5
t-130 -41.5q-73 0 -108.5 33.5z" />
    <glyph glyph-name="Gdotaccent" unicode="&#x120;" horiz-adv-x="823" 
d="M181.5 24.5q-70.5 40.5 -104 109.5t-33.5 158q0 134 58.5 245.5t162 176t234.5 64.5q151 0 229.5 -70.5t78.5 -192.5h-177q-12 118 -157 118q-77 0 -135.5 -44.5t-90 -117t-31.5 -155.5q0 -87 46.5 -137t137.5 -50q85 0 139.5 40t71.5 120h-163l23 132h325l-75 -421h-147
l14 79q-84 -95 -229 -95q-107 0 -177.5 40.5zM450 821.5q-21 17.5 -21 47.5q0 41 31.5 68.5t72.5 27.5q33 0 53.5 -18t20.5 -48q0 -40 -30.5 -67.5t-72.5 -27.5q-33 0 -54 17.5z" />
    <glyph glyph-name="gdotaccent" unicode="&#x121;" horiz-adv-x="647" 
d="M66 -168.5q-65 41.5 -65 143.5h152q7 -38 31 -54t69 -16q60 0 94 27.5t42 72.5l13 77q-38 -43 -77 -60.5t-89 -17.5q-93 0 -147.5 60.5t-54.5 159.5q0 90 39.5 171t109 131t154.5 50q50 0 83 -17.5t55 -60.5l12 66h152l-93 -522q-24 -138 -106.5 -195t-206.5 -57
q-102 0 -167 41.5zM383 161.5q38 27.5 59.5 71.5t21.5 92q0 54 -30 87.5t-81 33.5q-47 0 -84 -27.5t-58 -72t-21 -92.5q0 -54 29 -87t80 -33q46 0 84 27.5zM327.5 632.5q-21.5 18.5 -21.5 48.5q0 41 31.5 69t72.5 28q33 0 54.5 -18.5t21.5 -48.5q0 -43 -31 -70t-73 -27
q-33 0 -54.5 18.5z" />
    <glyph glyph-name="uni0122" unicode="&#x122;" horiz-adv-x="823" 
d="M181.5 24.5q-70.5 40.5 -104 109.5t-33.5 158q0 134 58.5 245.5t162 176t234.5 64.5q151 0 229.5 -70.5t78.5 -192.5h-177q-12 118 -157 118q-77 0 -135.5 -44.5t-90 -117t-31.5 -155.5q0 -87 46.5 -137t137.5 -50q85 0 139.5 40t71.5 120h-163l23 132h325l-75 -421h-147
l14 79q-84 -95 -229 -95q-107 0 -177.5 40.5zM280 -163q27 0 46.5 7.5t26.5 22.5q2 3 5 14h-8q-11 -15 -34 -15q-16 0 -26 8.5t-10 24.5q0 28 20 46t52 18q30 0 45.5 -15.5t15.5 -40.5q0 -51 -37.5 -78.5t-102.5 -27.5z" />
    <glyph glyph-name="uni0123" unicode="&#x123;" horiz-adv-x="647" 
d="M66 -168.5q-65 41.5 -65 143.5h152q7 -38 31 -54t69 -16q60 0 94 27.5t42 72.5l13 77q-38 -43 -77 -60.5t-89 -17.5q-93 0 -147.5 60.5t-54.5 159.5q0 90 39.5 171t109 131t154.5 50q50 0 83 -17.5t55 -60.5l12 66h152l-93 -522q-24 -138 -106.5 -195t-206.5 -57
q-102 0 -167 41.5zM383 161.5q38 27.5 59.5 71.5t21.5 92q0 54 -30 87.5t-81 33.5q-47 0 -84 -27.5t-58 -72t-21 -92.5q0 -54 29 -87t80 -33q46 0 84 27.5zM341.5 613q-18.5 20 -18.5 54q0 38 19 74.5t60.5 61.5t104.5 28l-10 -56q-39 -1 -65 -15t-36 -40q-2 -7 -4 -20
q14 17 43 17q20 0 34 -13t14 -35q0 -33 -25.5 -54.5t-62.5 -21.5q-35 0 -53.5 20z" />
    <glyph glyph-name="Imacron" unicode="&#x12a;" horiz-adv-x="290" 
d="M176 0h-162l135 763h162zM392 826h-301l13 71h301z" />
    <glyph glyph-name="imacron" unicode="&#x12b;" horiz-adv-x="268" 
d="M160 0h-152l100 564h151zM345 627h-301l13 71h301z" />
    <glyph glyph-name="Iogonek" unicode="&#x12e;" horiz-adv-x="290" 
d="M176 0h-162l135 763h162zM-42 -144q0 48 31.5 76.5t91.5 48.5l4 19h91q-61 -35 -82.5 -53t-21.5 -40q0 -25 34 -25q24 0 51 13l-16 -94q-37 -11 -78 -11q-105 0 -105 66z" />
    <glyph glyph-name="iogonek" unicode="&#x12f;" horiz-adv-x="268" 
d="M160 0h-152l100 564h151zM138.5 632.5q-21.5 18.5 -21.5 48.5q0 41 31.5 69t72.5 28q33 0 54.5 -18.5t21.5 -48.5q0 -43 -31 -70t-73 -27q-33 0 -54.5 18.5zM-58 -144q0 48 31.5 76.5t91.5 48.5l4 19h91q-61 -35 -82.5 -53t-21.5 -40q0 -25 34 -25q24 0 51 13l-16 -94
q-37 -11 -78 -11q-105 0 -105 66z" />
    <glyph glyph-name="Idotaccent" unicode="&#x130;" horiz-adv-x="290" 
d="M176 0h-162l135 763h162zM183 821.5q-21 17.5 -21 47.5q0 41 31.5 68.5t72.5 27.5q33 0 53.5 -18t20.5 -48q0 -40 -30.5 -67.5t-72.5 -27.5q-33 0 -54 17.5z" />
    <glyph glyph-name="dotlessi" unicode="&#x131;" horiz-adv-x="268" 
d="M160 0h-152l100 564h151z" />
    <glyph glyph-name="uni0136" unicode="&#x136;" horiz-adv-x="682" 
d="M176 0h-162l135 763h162l-58 -324l311 324h197l-359 -370l228 -393h-197l-194 359zM210 -163q27 0 46.5 7.5t26.5 22.5q2 3 5 14h-8q-11 -15 -34 -15q-16 0 -26 8.5t-10 24.5q0 28 20 46t52 18q30 0 45.5 -15.5t15.5 -40.5q0 -51 -37.5 -78.5t-102.5 -27.5z" />
    <glyph glyph-name="uni0137" unicode="&#x137;" horiz-adv-x="610" 
d="M160 0h-151l135 763h151l-71 -402l228 203h199l-296 -258l197 -306h-178l-165 275zM169 -163q27 0 46.5 7.5t26.5 22.5q2 3 5 14h-8q-11 -15 -34 -15q-16 0 -26 8.5t-10 24.5q0 28 20 46t52 18q30 0 45.5 -15.5t15.5 -40.5q0 -51 -37.5 -78.5t-102.5 -27.5z" />
    <glyph glyph-name="kgreenlandic" unicode="&#x138;" horiz-adv-x="610" 
d="M160 0h-151l99 564h152l-36 -203l228 203h199l-296 -258l197 -306h-178l-165 275z" />
    <glyph glyph-name="Lacute" unicode="&#x139;" horiz-adv-x="552" 
d="M493 0h-479l135 763h162l-110 -618h317zM288 816h-113l141 146h151z" />
    <glyph glyph-name="lacute" unicode="&#x13a;" horiz-adv-x="310" 
d="M136 0q-55 0 -83.5 22.5t-28.5 66.5q0 18 3 29l114 645h151l-106 -596q-1 -5 -1 -14q0 -17 9 -23t24 -6h39l-21 -124h-100zM274 816h-113l141 146h151z" />
    <glyph glyph-name="uni013B" unicode="&#x13b;" horiz-adv-x="552" 
d="M493 0h-479l135 763h162l-110 -618h317zM171 -163q27 0 46.5 7.5t26.5 22.5q2 3 5 14h-8q-11 -15 -34 -15q-16 0 -26 8.5t-10 24.5q0 28 20 46t52 18q30 0 45.5 -15.5t15.5 -40.5q0 -51 -37.5 -78.5t-102.5 -27.5z" />
    <glyph glyph-name="uni013C" unicode="&#x13c;" horiz-adv-x="310" 
d="M136 0q-55 0 -83.5 22.5t-28.5 66.5q0 18 3 29l114 645h151l-106 -596q-1 -5 -1 -14q0 -17 9 -23t24 -6h39l-21 -124h-100zM16 -163q27 0 46.5 7.5t26.5 22.5q2 3 5 14h-8q-11 -15 -34 -15q-16 0 -26 8.5t-10 24.5q0 28 20 46t52 18q30 0 45.5 -15.5t15.5 -40.5
q0 -51 -37.5 -78.5t-102.5 -27.5z" />
    <glyph glyph-name="Lcaron" unicode="&#x13d;" horiz-adv-x="552" 
d="M493 0h-479l135 763h162l-110 -618h317zM402 520q48 2 81 21.5t46 55.5q8 32 7 27q-22 -23 -55 -23q-24 0 -41.5 18t-17.5 47q0 48 32 78.5t80 30.5q43 0 65 -26.5t22 -72.5q0 -20 -4 -40q-13 -77 -70 -132.5t-159 -61.5z" />
    <glyph glyph-name="lcaron" unicode="&#x13e;" horiz-adv-x="310" 
d="M136 0q-55 0 -83.5 22.5t-28.5 66.5q0 18 3 29l114 645h151l-106 -596q-1 -5 -1 -14q0 -17 9 -23t24 -6h39l-21 -124h-100zM329 520q48 2 81 21.5t46 55.5q8 32 7 27q-22 -23 -55 -23q-24 0 -41.5 18t-17.5 47q0 48 32 78.5t80 30.5q43 0 65 -26.5t22 -72.5q0 -20 -4 -40
q-13 -77 -70 -132.5t-159 -61.5z" />
    <glyph glyph-name="Lslash" unicode="&#x141;" horiz-adv-x="590" 
d="M536 0h-479l51 291l-80 -36l22 126l81 38l61 344h162l-47 -261l167 79l-22 -126l-167 -79l-41 -231h317z" />
    <glyph glyph-name="lslash" unicode="&#x142;" horiz-adv-x="310" 
d="M237 452l-51 -285q-1 -5 -1 -14q0 -17 9 -23t24 -6h39l-21 -124h-100q-55 0 -83.5 22.5t-28.5 66.5q0 18 3 29l45 256l-41 -20l18 102l41 20l51 287h151l-37 -209l59 28l-18 -102z" />
    <glyph glyph-name="Nacute" unicode="&#x143;" horiz-adv-x="765" 
d="M176 0h-162l135 763h172l214 -505l89 505h162l-135 -763h-173l-213 507zM525 816h-113l141 146h151z" />
    <glyph glyph-name="nacute" unicode="&#x144;" horiz-adv-x="614" 
d="M8 0l100 564h151l-11 -66q37 43 75.5 60.5t86.5 17.5q170 0 170 -151q0 -21 -4 -48.5t-9 -56.5l-57 -320h-151l57 322q6 35 6 58q0 39 -18 56t-58 17q-60 0 -89.5 -37t-43.5 -114l-53 -302h-152zM415 617h-113l141 146h151z" />
    <glyph glyph-name="uni0145" unicode="&#x145;" horiz-adv-x="765" 
d="M176 0h-162l135 763h172l214 -505l89 505h162l-135 -763h-173l-213 507zM250 -163q27 0 46.5 7.5t26.5 22.5q2 3 5 14h-8q-11 -15 -34 -15q-16 0 -26 8.5t-10 24.5q0 28 20 46t52 18q30 0 45.5 -15.5t15.5 -40.5q0 -51 -37.5 -78.5t-102.5 -27.5z" />
    <glyph glyph-name="uni0146" unicode="&#x146;" horiz-adv-x="614" 
d="M8 0l100 564h151l-11 -66q37 43 75.5 60.5t86.5 17.5q170 0 170 -151q0 -21 -4 -48.5t-9 -56.5l-57 -320h-151l57 322q6 35 6 58q0 39 -18 56t-58 17q-60 0 -89.5 -37t-43.5 -114l-53 -302h-152zM176 -163q27 0 46.5 7.5t26.5 22.5q2 3 5 14h-8q-11 -15 -34 -15
q-16 0 -26 8.5t-10 24.5q0 28 20 46t52 18q30 0 45.5 -15.5t15.5 -40.5q0 -51 -37.5 -78.5t-102.5 -27.5z" />
    <glyph glyph-name="Ncaron" unicode="&#x147;" horiz-adv-x="765" 
d="M176 0h-162l135 763h172l214 -505l89 505h162l-135 -763h-173l-213 507zM479 787h-14l-136 175h124l37 -68l63 68h125z" />
    <glyph glyph-name="ncaron" unicode="&#x148;" horiz-adv-x="614" 
d="M8 0l100 564h151l-11 -66q37 43 75.5 60.5t86.5 17.5q170 0 170 -151q0 -21 -4 -48.5t-9 -56.5l-57 -320h-151l57 322q6 35 6 58q0 39 -18 56t-58 17q-60 0 -89.5 -37t-43.5 -114l-53 -302h-152zM368 588h-14l-136 175h124l37 -68l63 68h125z" />
    <glyph glyph-name="Omacron" unicode="&#x14c;" horiz-adv-x="823" 
d="M182.5 24q-70.5 40 -104 109.5t-33.5 157.5q0 135 58 246.5t161 176t234 64.5q105 0 175.5 -39.5t104.5 -108.5t34 -157q0 -135 -58 -247t-161.5 -177t-233.5 -65q-106 0 -176.5 40zM519.5 174.5q58.5 45.5 89.5 119t31 157.5q0 85 -43 133.5t-124 48.5q-77 0 -135.5 -45
t-90 -118t-31.5 -156q0 -86 43.5 -135.5t124.5 -49.5q77 0 135.5 45.5zM657 826h-301l13 71h301z" />
    <glyph glyph-name="omacron" unicode="&#x14d;" horiz-adv-x="656" 
d="M96 51q-66 63 -66 170q0 98 46 179t125.5 128.5t177.5 47.5q76 0 132 -28.5t85.5 -81t29.5 -122.5q0 -97 -46 -178.5t-126 -129.5t-178 -48q-114 0 -180 63zM386 148.5q38 29.5 59.5 77t21.5 99.5q0 55 -29 88t-81 33q-50 0 -88.5 -29t-60 -75.5t-21.5 -99.5
q0 -57 30 -90t82 -33q49 0 87 29.5zM539 627h-301l13 71h301z" />
    <glyph glyph-name="Ohungarumlaut" unicode="&#x150;" horiz-adv-x="823" 
d="M182.5 24q-70.5 40 -104 109.5t-33.5 157.5q0 135 58 246.5t161 176t234 64.5q105 0 175.5 -39.5t104.5 -108.5t34 -157q0 -135 -58 -247t-161.5 -177t-233.5 -65q-106 0 -176.5 40zM519.5 174.5q58.5 45.5 89.5 119t31 157.5q0 85 -43 133.5t-124 48.5q-77 0 -135.5 -45
t-90 -118t-31.5 -156q0 -86 43.5 -135.5t124.5 -49.5q77 0 135.5 45.5zM459 816h-113l143 146h134zM663 816h-112l143 146h145z" />
    <glyph glyph-name="ohungarumlaut" unicode="&#x151;" horiz-adv-x="656" 
d="M96 51q-66 63 -66 170q0 98 46 179t125.5 128.5t177.5 47.5q76 0 132 -28.5t85.5 -81t29.5 -122.5q0 -97 -46 -178.5t-126 -129.5t-178 -48q-114 0 -180 63zM386 148.5q38 29.5 59.5 77t21.5 99.5q0 55 -29 88t-81 33q-50 0 -88.5 -29t-60 -75.5t-21.5 -99.5
q0 -57 30 -90t82 -33q49 0 87 29.5zM341 617h-113l143 146h134zM545 617h-112l143 146h145z" />
    <glyph glyph-name="OE" unicode="&#x152;" horiz-adv-x="1178" 
d="M177.5 24q-67.5 40 -100 109.5t-32.5 157.5q0 131 56.5 243t157 178t226.5 66q69 0 123 -25t83 -68l14 78h515l-26 -145h-354l-29 -164h318l-25 -144h-318l-29 -165h354l-26 -145h-515l14 76q-47 -45 -108 -68.5t-131 -23.5q-100 0 -167.5 40zM519.5 174.5
q58.5 45.5 89.5 119t31 157.5q0 85 -43 133.5t-124 48.5q-77 0 -135.5 -45t-90 -118t-31.5 -156q0 -86 43.5 -135.5t124.5 -49.5q77 0 135.5 45.5z" />
    <glyph glyph-name="oe" unicode="&#x153;" horiz-adv-x="1076" 
d="M978.5 519.5q68.5 -56.5 68.5 -169.5q0 -35 -7 -70l-5 -30h-416q-1 -19 2.5 -38t10.5 -31q13 -31 39.5 -46.5t63.5 -15.5q41 0 75 20.5t53 52.5h153q-43 -90 -122 -147t-188 -57q-66 0 -117 22.5t-83 63.5q-46 -41 -105 -63.5t-125 -22.5q-114 0 -180 63t-66 170
q0 98 46 179t125.5 128.5t177.5 47.5q67 0 118.5 -22.5t83.5 -63.5q45 41 102.5 63.5t121.5 22.5q105 0 173.5 -56.5zM901 361q-3 33 -15 51q-29 46 -96 46q-68 0 -113 -46q-24 -22 -33 -51h257zM386 148.5q38 29.5 59.5 77t21.5 99.5q0 55 -29 88t-81 33q-50 0 -88.5 -29
t-60 -75.5t-21.5 -99.5q0 -57 30 -90t82 -33q49 0 87 29.5z" />
    <glyph glyph-name="Racute" unicode="&#x154;" horiz-adv-x="698" 
d="M657.5 433.5q-41.5 -69.5 -113.5 -104.5l76 -329h-162l-70 300h-159l-53 -300h-162l135 763h345q96 0 150.5 -41.5t54.5 -128.5q0 -90 -41.5 -159.5zM284 618l-31 -178h151q58 0 95 30t37 80q0 34 -23.5 51t-67.5 17h-161zM480 816h-113l141 146h151z" />
    <glyph glyph-name="racute" unicode="&#x155;" horiz-adv-x="401" 
d="M8 0l100 564h151l-11 -64q37 42 76.5 59t89.5 17h20l-25 -145h-31q-66 0 -104 -32q-27 -22 -43.5 -58t-26.5 -92l-44 -249h-152zM292 617h-113l141 146h151z" />
    <glyph glyph-name="uni0156" unicode="&#x156;" horiz-adv-x="698" 
d="M657.5 433.5q-41.5 -69.5 -113.5 -104.5l76 -329h-162l-70 300h-159l-53 -300h-162l135 763h345q96 0 150.5 -41.5t54.5 -128.5q0 -90 -41.5 -159.5zM284 618l-31 -178h151q58 0 95 30t37 80q0 34 -23.5 51t-67.5 17h-161zM231 -163q27 0 46.5 7.5t26.5 22.5q2 3 5 14h-8
q-11 -15 -34 -15q-16 0 -26 8.5t-10 24.5q0 28 20 46t52 18q30 0 45.5 -15.5t15.5 -40.5q0 -51 -37.5 -78.5t-102.5 -27.5z" />
    <glyph glyph-name="uni0157" unicode="&#x157;" horiz-adv-x="401" 
d="M8 0l100 564h151l-11 -64q37 42 76.5 59t89.5 17h20l-25 -145h-31q-66 0 -104 -32q-27 -22 -43.5 -58t-26.5 -92l-44 -249h-152zM2 -163q27 0 46.5 7.5t26.5 22.5q2 3 5 14h-8q-11 -15 -34 -15q-16 0 -26 8.5t-10 24.5q0 28 20 46t52 18q30 0 45.5 -15.5t15.5 -40.5
q0 -51 -37.5 -78.5t-102.5 -27.5z" />
    <glyph glyph-name="Rcaron" unicode="&#x158;" horiz-adv-x="698" 
d="M657.5 433.5q-41.5 -69.5 -113.5 -104.5l76 -329h-162l-70 300h-159l-53 -300h-162l135 763h345q96 0 150.5 -41.5t54.5 -128.5q0 -90 -41.5 -159.5zM284 618l-31 -178h151q58 0 95 30t37 80q0 34 -23.5 51t-67.5 17h-161zM434 787h-14l-136 175h124l37 -68l63 68h125z
" />
    <glyph glyph-name="rcaron" unicode="&#x159;" horiz-adv-x="401" 
d="M8 0l100 564h151l-11 -64q37 42 76.5 59t89.5 17h20l-25 -145h-31q-66 0 -104 -32q-27 -22 -43.5 -58t-26.5 -92l-44 -249h-152zM246 588h-14l-136 175h124l37 -68l63 68h125z" />
    <glyph glyph-name="Sacute" unicode="&#x15a;" horiz-adv-x="704" 
d="M106 50.5q-78 66.5 -78 202.5h167q5 -72 47 -102t105 -30t105 29.5t42 79.5q0 39 -39 58t-118 36q-75 17 -123 34.5t-82 54t-34 96.5q0 81 43 142t116.5 94t161.5 33q79 0 140.5 -27.5t97 -83t35.5 -136.5h-166q-4 53 -39.5 81.5t-94.5 28.5q-52 0 -89.5 -23.5
t-37.5 -66.5q0 -25 19.5 -41t49.5 -26t82 -22q74 -16 124.5 -34.5t85.5 -57t35 -102.5q0 -85 -44.5 -149.5t-121.5 -99.5t-172 -35q-139 0 -217 66.5zM495 816h-113l141 146h151z" />
    <glyph glyph-name="sacute" unicode="&#x15b;" horiz-adv-x="582" 
d="M83.5 36q-67.5 48 -67.5 156h149q5 -43 34.5 -65t74.5 -22q42 0 71.5 18t29.5 48q0 25 -28 37.5t-86 24.5q-57 11 -95 24.5t-65 41.5t-27 75q0 63 34 108.5t92 69.5t129 24q102 0 160.5 -51t58.5 -144h-143q-5 41 -31.5 60t-65.5 19q-38 0 -62.5 -16t-24.5 -41
q0 -24 28 -36t85 -22q59 -11 98 -23.5t67 -41t28 -76.5q0 -65 -36.5 -114t-99 -75.5t-136.5 -26.5q-104 0 -171.5 48zM397 617h-113l141 146h151z" />
    <glyph glyph-name="Scedilla" unicode="&#x15e;" horiz-adv-x="704" 
d="M540.5 427.5q50.5 -18.5 85.5 -57t35 -102.5q0 -85 -44 -149.5t-121 -99.5t-172 -35q-23 -15 -31 -20l4 -9q9 2 23 2q36 0 57 -14.5t21 -43.5q0 -53 -43 -81t-109 -28q-49 0 -92 14l10 56q48 -19 84 -19q27 0 42.5 12t15.5 34q0 26 -32.5 35.5t-88.5 8.5l62 59
q-105 16 -162 81.5t-57 181.5h167q5 -72 47 -102t105 -30t105 29.5t42 79.5q0 39 -39 58t-118 36q-75 17 -123 34.5t-82 54t-34 96.5q0 81 43 142t116.5 94t161.5 33q79 0 140.5 -27.5t97 -83t35.5 -136.5h-166q-4 53 -39.5 81.5t-94.5 28.5q-52 0 -89.5 -23.5t-37.5 -66.5
q0 -25 19.5 -41t49.5 -26t82 -22q74 -16 124.5 -34.5z" />
    <glyph glyph-name="scedilla" unicode="&#x15f;" horiz-adv-x="582" 
d="M432 321.5q39 -12.5 67 -41t28 -76.5q0 -63 -34.5 -111t-93.5 -75t-131 -30q-18 -13 -37 -24l4 -9q9 2 23 2q36 0 57 -14.5t21 -43.5q0 -53 -43 -81t-109 -28q-49 0 -92 14l10 56q48 -19 84 -19q27 0 42.5 12t15.5 34q0 26 -32.5 35.5t-88.5 8.5l66 62q-79 13 -126 61
t-47 138h149q5 -43 34.5 -65t74.5 -22q42 0 71.5 18t29.5 48q0 25 -28 37.5t-86 24.5q-57 11 -95 24.5t-65 41.5t-27 75q0 63 34 108.5t92 69.5t129 24q102 0 160.5 -51t58.5 -144h-143q-5 41 -31.5 60t-65.5 19q-38 0 -62.5 -16t-24.5 -41q0 -24 28 -36t85 -22
q59 -11 98 -23.5z" />
    <glyph glyph-name="Scaron" unicode="&#x160;" horiz-adv-x="704" 
d="M106 50.5q-78 66.5 -78 202.5h167q5 -72 47 -102t105 -30t105 29.5t42 79.5q0 39 -39 58t-118 36q-75 17 -123 34.5t-82 54t-34 96.5q0 81 43 142t116.5 94t161.5 33q79 0 140.5 -27.5t97 -83t35.5 -136.5h-166q-4 53 -39.5 81.5t-94.5 28.5q-52 0 -89.5 -23.5
t-37.5 -66.5q0 -25 19.5 -41t49.5 -26t82 -22q74 -16 124.5 -34.5t85.5 -57t35 -102.5q0 -85 -44.5 -149.5t-121.5 -99.5t-172 -35q-139 0 -217 66.5zM448 787h-14l-136 175h124l37 -68l63 68h125z" />
    <glyph glyph-name="scaron" unicode="&#x161;" horiz-adv-x="582" 
d="M83.5 36q-67.5 48 -67.5 156h149q5 -43 34.5 -65t74.5 -22q42 0 71.5 18t29.5 48q0 25 -28 37.5t-86 24.5q-57 11 -95 24.5t-65 41.5t-27 75q0 63 34 108.5t92 69.5t129 24q102 0 160.5 -51t58.5 -144h-143q-5 41 -31.5 60t-65.5 19q-38 0 -62.5 -16t-24.5 -41
q0 -24 28 -36t85 -22q59 -11 98 -23.5t67 -41t28 -76.5q0 -65 -36.5 -114t-99 -75.5t-136.5 -26.5q-104 0 -171.5 48zM351 588h-14l-136 175h124l37 -68l63 68h125z" />
    <glyph glyph-name="uni0162" unicode="&#x162;" horiz-adv-x="627" 
d="M94 763h609l-26 -145h-224l-108 -618h-37q-35 -25 -53 -36l4 -9q9 2 23 2q36 0 57 -14.5t21 -43.5q0 -53 -43 -81t-109 -28q-49 0 -92 14l10 56q48 -19 84 -19q27 0 42.5 12t15.5 34q0 26 -32.5 35.5t-88.5 8.5l73 69h-37l109 618h-224z" />
    <glyph glyph-name="uni0163" unicode="&#x163;" horiz-adv-x="391" 
d="M283 444l-49 -277q-2 -5 -2 -15q0 -28 34 -28h62l-22 -124h-90q-35 -25 -53 -36l4 -9q9 2 23 2q36 0 57 -14.5t21 -43.5q0 -53 -43 -81t-109 -28q-49 0 -92 14l10 56q48 -19 84 -19q27 0 42.5 12t15.5 34q0 26 -32.5 35.5t-88.5 8.5l79 75q-63 17 -63 83q0 18 3 29
l57 326h-80l21 120h80l36 199h151l-35 -199h103l-21 -120h-103z" />
    <glyph glyph-name="Tcaron" unicode="&#x164;" horiz-adv-x="627" 
d="M345 0h-162l109 618h-224l26 145h609l-26 -145h-224zM411 787h-14l-136 175h124l37 -68l63 68h125z" />
    <glyph glyph-name="tcaron" unicode="&#x165;" horiz-adv-x="391" 
d="M184 0q-55 0 -84 22.5t-29 66.5q0 18 3 29l57 326h-80l21 120h80l36 199h151l-35 -199h103l-21 -120h-103l-49 -277q-2 -5 -2 -15q0 -28 34 -28h62l-22 -124h-122zM389 699q48 2 81 21.5t46 55.5q8 32 7 27q-22 -23 -55 -23q-24 0 -41.5 18t-17.5 47q0 48 32 78.5
t80 30.5q43 0 65 -26.5t22 -72.5q0 -20 -4 -40q-13 -77 -70 -132.5t-159 -61.5z" />
    <glyph glyph-name="Umacron" unicode="&#x16a;" horiz-adv-x="745" 
d="M114.5 43q-65.5 59 -65.5 164q0 38 7 74l85 482h163l-86 -482q-4 -30 -4 -43q0 -52 30.5 -80.5t100.5 -28.5q84 0 126.5 40.5t54.5 111.5l85 482h163l-86 -482q-25 -138 -115 -217.5t-253 -79.5q-140 0 -205.5 59zM619 826h-301l13 71h301z" />
    <glyph glyph-name="umacron" unicode="&#x16b;" horiz-adv-x="615" 
d="M42 84q-7 22 -7 53q0 27 13 107l56 320h152l-57 -322q-6 -34 -6 -58q0 -32 12 -50q18 -23 63 -23q56 0 86 32q17 17 28.5 45.5t19.5 73.5l53 302h151l-99 -564h-152l12 66q-36 -41 -74 -59.5t-88 -18.5q-134 0 -163 96zM519 627h-301l13 71h301z" />
    <glyph glyph-name="Uring" unicode="&#x16e;" horiz-adv-x="745" 
d="M114.5 43q-65.5 59 -65.5 164q0 38 7 74l85 482h163l-86 -482q-4 -30 -4 -43q0 -52 30.5 -80.5t100.5 -28.5q84 0 126.5 40.5t54.5 111.5l85 482h163l-86 -482q-25 -138 -115 -217.5t-253 -79.5q-140 0 -205.5 59zM379.5 800.5q-30.5 31.5 -30.5 77.5q0 40 22 75t58.5 56
t75.5 21q47 0 78 -30.5t31 -77.5q0 -40 -21.5 -75.5t-57.5 -56.5t-76 -21q-49 0 -79.5 31.5zM516.5 867.5q17.5 18.5 17.5 43.5q0 18 -11.5 29t-31.5 11q-26 0 -43 -18t-17 -43q0 -19 11.5 -30t30.5 -11q26 0 43.5 18.5z" />
    <glyph glyph-name="uring" unicode="&#x16f;" horiz-adv-x="615" 
d="M42 84q-7 22 -7 53q0 27 13 107l56 320h152l-57 -322q-6 -34 -6 -58q0 -32 12 -50q18 -23 63 -23q56 0 86 32q17 17 28.5 45.5t19.5 73.5l53 302h151l-99 -564h-152l12 66q-36 -41 -74 -59.5t-88 -18.5q-134 0 -163 96zM278.5 601.5q-30.5 31.5 -30.5 77.5q0 40 22 75
t58.5 56t75.5 21q47 0 78 -30.5t31 -77.5q0 -40 -21.5 -75.5t-57.5 -56.5t-76 -21q-49 0 -79.5 31.5zM415.5 668.5q17.5 18.5 17.5 43.5q0 18 -11.5 29t-31.5 11q-26 0 -43 -18t-17 -43q0 -19 11.5 -30t30.5 -11q26 0 43.5 18.5z" />
    <glyph glyph-name="Uhungarumlaut" unicode="&#x170;" horiz-adv-x="745" 
d="M114.5 43q-65.5 59 -65.5 164q0 38 7 74l85 482h163l-86 -482q-4 -30 -4 -43q0 -52 30.5 -80.5t100.5 -28.5q84 0 126.5 40.5t54.5 111.5l85 482h163l-86 -482q-25 -138 -115 -217.5t-253 -79.5q-140 0 -205.5 59zM421 816h-113l143 146h134zM625 816h-112l143 146h145z
" />
    <glyph glyph-name="uhungarumlaut" unicode="&#x171;" horiz-adv-x="615" 
d="M42 84q-7 22 -7 53q0 27 13 107l56 320h152l-57 -322q-6 -34 -6 -58q0 -32 12 -50q18 -23 63 -23q56 0 86 32q17 17 28.5 45.5t19.5 73.5l53 302h151l-99 -564h-152l12 66q-36 -41 -74 -59.5t-88 -18.5q-134 0 -163 96zM320 617h-113l143 146h134zM524 617h-112l143 146
h145z" />
    <glyph glyph-name="Uogonek" unicode="&#x172;" horiz-adv-x="745" 
d="M611 763h163l-86 -482q-20 -115 -85.5 -190t-180.5 -98q-53 -30 -73 -47.5t-20 -38.5q0 -25 34 -25q24 0 51 13l-16 -94q-37 -11 -78 -11q-105 0 -105 66q0 48 31.5 76.5t91.5 48.5l1 3h-19q-140 0 -205.5 59t-65.5 164q0 38 7 74l85 482h163l-86 -482q-4 -30 -4 -43
q0 -52 30.5 -80.5t100.5 -28.5q84 0 126.5 40.5t54.5 111.5z" />
    <glyph glyph-name="uogonek" unicode="&#x173;" horiz-adv-x="615" 
d="M507 0q-61 -35 -82.5 -53t-21.5 -40q0 -25 34 -25q24 0 51 13l-16 -94q-37 -11 -78 -11q-105 0 -105 66q0 48 31.5 76.5t91.5 48.5l4 19h-61l12 66q-36 -41 -74 -59.5t-88 -18.5q-134 0 -163 96q-7 22 -7 53q0 27 13 107l56 320h152l-57 -322q-6 -34 -6 -58q0 -32 12 -50
q18 -23 63 -23q56 0 86 32q17 17 28.5 45.5t19.5 73.5l53 302h151z" />
    <glyph glyph-name="Wcircumflex" unicode="&#x174;" horiz-adv-x="1125" 
d="M391 0h-237l-56 763h164l35 -634l238 634h215l13 -635l260 635h175l-326 -763h-237l-13 615zM607 817h-124l198 176h14l137 -176h-125l-37 68z" />
    <glyph glyph-name="wcircumflex" unicode="&#x175;" horiz-adv-x="852" 
d="M280 0h-144l-74 564h157l28 -347l157 347h131l35 -345l154 345h165l-277 -564h-143l-29 359zM434 618h-124l198 176h14l137 -176h-125l-37 68z" />
    <glyph glyph-name="Ycircumflex" unicode="&#x176;" horiz-adv-x="709" 
d="M390 0h-170l53 301l-193 462h175l117 -306l226 306h202l-357 -462zM397 817h-124l198 176h14l137 -176h-125l-37 68z" />
    <glyph glyph-name="ycircumflex" unicode="&#x177;" horiz-adv-x="571" 
d="M-16 -199l23 125h65q26 0 42.5 8.5t33.5 34.5l15 26l-104 569h158l47 -407l177 407h168l-318 -615q-42 -81 -88.5 -114.5t-121.5 -33.5h-97zM289 618h-124l198 176h14l137 -176h-125l-37 68z" />
    <glyph glyph-name="Ydieresis" unicode="&#x178;" horiz-adv-x="709" 
d="M390 0h-170l53 301l-193 462h175l117 -306l226 306h202l-357 -462zM283 821.5q-21 17.5 -21 47.5q0 41 31.5 68.5t72.5 27.5q33 0 53.5 -18t20.5 -48q0 -40 -30.5 -67.5t-72.5 -27.5q-33 0 -54 17.5zM498.5 821.5q-21.5 17.5 -21.5 47.5q0 41 31.5 68.5t72.5 27.5
q33 0 54 -18t21 -48q0 -40 -30.5 -67.5t-73.5 -27.5q-32 0 -53.5 17.5z" />
    <glyph glyph-name="Zacute" unicode="&#x179;" horiz-adv-x="626" 
d="M545 0h-568l19 110l439 508h-328l26 145h545l-20 -115l-433 -503h345zM457 816h-113l141 146h151z" />
    <glyph glyph-name="zacute" unicode="&#x17a;" horiz-adv-x="563" 
d="M478 0h-498l17 95l367 349h-289l21 120h482l-18 -103l-354 -340h293zM390 617h-113l141 146h151z" />
    <glyph glyph-name="Zdotaccent" unicode="&#x17b;" horiz-adv-x="626" 
d="M545 0h-568l19 110l439 508h-328l26 145h545l-20 -115l-433 -503h345zM352 821.5q-21 17.5 -21 47.5q0 41 31.5 68.5t72.5 27.5q33 0 53.5 -18t20.5 -48q0 -40 -30.5 -67.5t-72.5 -27.5q-33 0 -54 17.5z" />
    <glyph glyph-name="zdotaccent" unicode="&#x17c;" horiz-adv-x="563" 
d="M478 0h-498l17 95l367 349h-289l21 120h482l-18 -103l-354 -340h293zM287.5 632.5q-21.5 18.5 -21.5 48.5q0 41 31.5 69t72.5 28q33 0 54.5 -18.5t21.5 -48.5q0 -43 -31 -70t-73 -27q-33 0 -54.5 18.5z" />
    <glyph glyph-name="Zcaron" unicode="&#x17d;" horiz-adv-x="626" 
d="M545 0h-568l19 110l439 508h-328l26 145h545l-20 -115l-433 -503h345zM411 787h-14l-136 175h124l37 -68l63 68h125z" />
    <glyph glyph-name="zcaron" unicode="&#x17e;" horiz-adv-x="563" 
d="M478 0h-498l17 95l367 349h-289l21 120h482l-18 -103l-354 -340h293zM344 588h-14l-136 175h124l37 -68l63 68h125z" />
    <glyph glyph-name="florin" unicode="&#x192;" horiz-adv-x="447" 
d="M-29 -199l22 120h54q21 0 33 10.5t16 33.5l84 476h-95l21 123h96l11 62q11 67 55.5 102t118.5 35h93l-21 -119h-57q-21 0 -33 -9.5t-16 -33.5l-6 -37h98l-22 -123h-98l-89 -502q-11 -67 -56.5 -102.5t-119.5 -35.5h-89z" />
    <glyph glyph-name="AEacute" unicode="&#x1fc;" horiz-adv-x="1037" 
d="M134 0h-179l400 763h497l25 -145h-321l29 -164h321l23 -144h-320l29 -165h321l24 -145h-485l-19 147h-273zM420 585l-145 -298h184zM661 816h-113l141 146h151z" />
    <glyph glyph-name="aeacute" unicode="&#x1fd;" horiz-adv-x="1006" 
d="M549 250v-9q0 -58 30 -90t86 -32q41 0 75 20.5t53 52.5h153q-43 -90 -122 -147t-188 -57q-73 0 -127 27t-84 76q-48 -61 -109.5 -82t-130.5 -21q-82 0 -128 34.5t-46 98.5q0 95 62 145t172 69l163 29q1 7 1 21q0 34 -14 51q-18 24 -62 24q-34 0 -64.5 -21.5t-43.5 -58.5
h-151q32 96 110.5 146t170.5 50q50 0 93 -14t70 -42l12 -14q91 70 205 70q105 0 173.5 -56.5t68.5 -169.5q0 -31 -12 -100h-416zM574 361h257q-3 28 -15 45q-12 26 -37.5 39t-58.5 13q-68 0 -113 -46q-24 -22 -33 -51zM360.5 169.5q20.5 31.5 30.5 85.5l-123 -23
q-49 -9 -76 -27.5t-27 -52.5q0 -23 18 -35t48 -12q35 0 69 15q40 18 60.5 49.5zM611 617h-113l141 146h151z" />
    <glyph glyph-name="Oslashacute" unicode="&#x1fe;" horiz-adv-x="823" 
d="M849 685l-69 -59q32 -64 32 -153q0 -135 -58 -247t-161.5 -177t-233.5 -65q-153 0 -235 85l-63 -53l-54 62l70 59q-32 65 -32 154q0 135 58 246.5t161 176t234 64.5q152 0 234 -84l64 54zM221 260l379 321q-43 52 -127 52q-77 0 -135.5 -45t-90 -118t-31.5 -156
q0 -26 5 -54zM635 503l-378 -321q44 -53 127 -53q77 0 135.5 45.5t89.5 119t31 157.5q0 25 -5 52zM553 816h-113l141 146h151z" />
    <glyph glyph-name="oslashacute" unicode="&#x1ff;" horiz-adv-x="656" 
d="M668 517l-68 -58q26 -50 26 -115q0 -97 -46 -178.5t-126 -129.5t-178 -48q-103 0 -168 53l-66 -56l-54 62l68 58q-26 50 -26 116q0 98 46 179t125.5 128.5t177.5 47.5q104 0 169 -53l67 57zM189 218l240 204q-29 24 -72 24q-50 0 -88.5 -29t-60 -75.5t-21.5 -99.5
q0 -10 2 -24zM466 345l-239 -203q29 -23 72 -23q49 0 87 29.5t59.5 77t21.5 99.5q0 14 -1 20zM435 617h-113l141 146h151z" />
    <glyph glyph-name="uni0218" unicode="&#x218;" horiz-adv-x="704" 
d="M106 50.5q-78 66.5 -78 202.5h167q5 -72 47 -102t105 -30t105 29.5t42 79.5q0 39 -39 58t-118 36q-75 17 -123 34.5t-82 54t-34 96.5q0 81 43 142t116.5 94t161.5 33q79 0 140.5 -27.5t97 -83t35.5 -136.5h-166q-4 53 -39.5 81.5t-94.5 28.5q-52 0 -89.5 -23.5
t-37.5 -66.5q0 -25 19.5 -41t49.5 -26t82 -22q74 -16 124.5 -34.5t85.5 -57t35 -102.5q0 -85 -44.5 -149.5t-121.5 -99.5t-172 -35q-139 0 -217 66.5zM220 -163q27 0 46.5 7.5t26.5 22.5q2 3 5 14h-8q-11 -15 -34 -15q-16 0 -26 8.5t-10 24.5q0 28 20 46t52 18
q30 0 45.5 -15.5t15.5 -40.5q0 -51 -37.5 -78.5t-102.5 -27.5z" />
    <glyph glyph-name="uni0219" unicode="&#x219;" horiz-adv-x="582" 
d="M83.5 36q-67.5 48 -67.5 156h149q5 -43 34.5 -65t74.5 -22q42 0 71.5 18t29.5 48q0 25 -28 37.5t-86 24.5q-57 11 -95 24.5t-65 41.5t-27 75q0 63 34 108.5t92 69.5t129 24q102 0 160.5 -51t58.5 -144h-143q-5 41 -31.5 60t-65.5 19q-38 0 -62.5 -16t-24.5 -41
q0 -24 28 -36t85 -22q59 -11 98 -23.5t67 -41t28 -76.5q0 -65 -36.5 -114t-99 -75.5t-136.5 -26.5q-104 0 -171.5 48zM158 -163q27 0 46.5 7.5t26.5 22.5q2 3 5 14h-8q-11 -15 -34 -15q-16 0 -26 8.5t-10 24.5q0 28 20 46t52 18q30 0 45.5 -15.5t15.5 -40.5
q0 -51 -37.5 -78.5t-102.5 -27.5z" />
    <glyph glyph-name="uni021A" unicode="&#x21a;" horiz-adv-x="627" 
d="M345 0h-162l109 618h-224l26 145h609l-26 -145h-224zM182 -163q27 0 46.5 7.5t26.5 22.5q2 3 5 14h-8q-11 -15 -34 -15q-16 0 -26 8.5t-10 24.5q0 28 20 46t52 18q30 0 45.5 -15.5t15.5 -40.5q0 -51 -37.5 -78.5t-102.5 -27.5z" />
    <glyph glyph-name="uni021B" unicode="&#x21b;" horiz-adv-x="391" 
d="M184 0q-55 0 -84 22.5t-29 66.5q0 18 3 29l57 326h-80l21 120h80l36 199h151l-35 -199h103l-21 -120h-103l-49 -277q-2 -5 -2 -15q0 -28 34 -28h62l-22 -124h-122zM91 -163q27 0 46.5 7.5t26.5 22.5q2 3 5 14h-8q-11 -15 -34 -15q-16 0 -26 8.5t-10 24.5q0 28 20 46
t52 18q30 0 45.5 -15.5t15.5 -40.5q0 -51 -37.5 -78.5t-102.5 -27.5z" />
    <glyph glyph-name="uni0237" unicode="&#x237;" horiz-adv-x="268" 
d="M-123 -199l23 125h52q20 0 33.5 9.5t18.5 35.5l104 593h152l-113 -641q-10 -58 -50.5 -90t-104.5 -32h-115z" />
    <glyph glyph-name="circumflex" unicode="&#x2c6;" horiz-adv-x="358" 
d="M188 618h-124l198 176h14l137 -176h-125l-37 68z" />
    <glyph glyph-name="caron" unicode="&#x2c7;" horiz-adv-x="358" 
d="M240 588h-14l-136 175h124l37 -68l63 68h125z" />
    <glyph glyph-name="breve" unicode="&#x2d8;" horiz-adv-x="349" 
d="M123.5 640.5q-35.5 33.5 -35.5 93.5q0 9 2 29h85q-2 -36 18 -54t54 -18t59.5 18.5t37.5 53.5h86q-17 -73 -68 -114.5t-130 -41.5q-73 0 -108.5 33.5z" />
    <glyph glyph-name="dotaccent" unicode="&#x2d9;" horiz-adv-x="187" 
d="M97.5 632.5q-21.5 18.5 -21.5 48.5q0 41 31.5 69t72.5 28q33 0 54.5 -18.5t21.5 -48.5q0 -43 -31 -70t-73 -27q-33 0 -54.5 18.5z" />
    <glyph glyph-name="ring" unicode="&#x2da;" horiz-adv-x="270" 
d="M107.5 604.5q-30.5 31.5 -30.5 77.5q0 40 22 75t58.5 56t75.5 21q47 0 78 -30.5t31 -77.5q0 -40 -21.5 -75.5t-57.5 -56.5t-76 -21q-49 0 -79.5 31.5zM244.5 671.5q17.5 18.5 17.5 43.5q0 18 -11.5 29t-31.5 11q-26 0 -43 -18t-17 -43q0 -19 11.5 -30t30.5 -11
q26 0 43.5 18.5z" />
    <glyph glyph-name="ogonek" unicode="&#x2db;" horiz-adv-x="203" 
d="M-69 -144q0 48 31.5 76.5t91.5 48.5l4 19h91q-61 -35 -82.5 -53t-21.5 -40q0 -25 34 -25q24 0 51 13l-16 -94q-37 -11 -78 -11q-105 0 -105 66z" />
    <glyph glyph-name="tilde" unicode="&#x2dc;" horiz-adv-x="378" 
d="M260.5 616q-19.5 13 -37.5 35q-12 13 -18.5 18.5t-15.5 5.5q-27 0 -43 -70h-85q17 75 56.5 118.5t93.5 43.5q30 0 48.5 -12.5t37.5 -34.5q12 -13 19 -18.5t15 -5.5q12 0 22.5 17t18.5 50h87q-20 -82 -54 -121t-91 -39q-34 0 -53.5 13z" />
    <glyph glyph-name="hungarumlaut" unicode="&#x2dd;" horiz-adv-x="475" 
d="M176 617h-113l143 146h134zM380 617h-112l143 146h145z" />
    <glyph glyph-name="gravecomb" unicode="&#x300;" 
d="M54 617h-112l-126 146h150z" />
    <glyph glyph-name="acutecomb" unicode="&#x301;" 
d="M-98 617h-113l141 146h151z" />
    <glyph glyph-name="uni0302" unicode="&#x302;" 
d="M-170 618h-124l198 176h14l137 -176h-125l-37 68z" />
    <glyph glyph-name="tildecomb" unicode="&#x303;" 
d="M-117.5 616q-19.5 13 -37.5 35q-12 13 -18.5 18.5t-15.5 5.5q-27 0 -43 -70h-85q17 75 56.5 118.5t93.5 43.5q30 0 48.5 -12.5t37.5 -34.5q12 -13 19 -18.5t15 -5.5q12 0 22.5 17t18.5 50h87q-20 -82 -54 -121t-91 -39q-34 0 -53.5 13z" />
    <glyph glyph-name="uni0304" unicode="&#x304;" 
d="M56 627h-301l13 71h301z" />
    <glyph glyph-name="uni0306" unicode="&#x306;" 
d="M-225.5 640.5q-35.5 33.5 -35.5 93.5q0 9 2 29h85q-2 -36 18 -54t54 -18t59.5 18.5t37.5 53.5h86q-17 -73 -68 -114.5t-130 -41.5q-73 0 -108.5 33.5z" />
    <glyph glyph-name="uni0307" unicode="&#x307;" 
d="M-89.5 632.5q-21.5 18.5 -21.5 48.5q0 41 31.5 69t72.5 28q33 0 54.5 -18.5t21.5 -48.5q0 -43 -31 -70t-73 -27q-33 0 -54.5 18.5z" />
    <glyph glyph-name="uni0308" unicode="&#x308;" 
d="M-304.5 632.5q-21.5 18.5 -21.5 48.5q0 41 31.5 69t72.5 28q33 0 54.5 -18.5t21.5 -48.5q0 -43 -31 -70t-73 -27q-33 0 -54.5 18.5zM-89.5 632.5q-21.5 18.5 -21.5 48.5q0 42 31.5 69.5t73.5 27.5q33 0 54 -18.5t21 -48.5q0 -43 -31 -70t-73 -27q-33 0 -54.5 18.5z" />
    <glyph glyph-name="uni030A" unicode="&#x30a;" 
d="M-162.5 604.5q-30.5 31.5 -30.5 77.5q0 40 22 75t58.5 56t75.5 21q47 0 78 -30.5t31 -77.5q0 -40 -21.5 -75.5t-57.5 -56.5t-76 -21q-49 0 -79.5 31.5zM-25.5 671.5q17.5 18.5 17.5 43.5q0 18 -11.5 29t-31.5 11q-26 0 -43 -18t-17 -43q0 -19 11.5 -30t30.5 -11
q26 0 43.5 18.5z" />
    <glyph glyph-name="uni030B" unicode="&#x30b;" 
d="M-299 617h-113l143 146h134zM-95 617h-112l143 146h145z" />
    <glyph glyph-name="uni030C" unicode="&#x30c;" 
d="M-118 588h-14l-136 175h124l37 -68l63 68h125z" />
    <glyph glyph-name="uni030F" unicode="&#x30f;" 
d="M-156 588h-97l-130 175h138zM49 588h-98l-122 175h131z" />
    <glyph glyph-name="uni0312" unicode="&#x312;" 
d="M-79.5 613q-18.5 20 -18.5 54q0 38 19 74.5t60.5 61.5t104.5 28l-10 -56q-39 -1 -65 -15t-36 -40q-2 -7 -4 -20q14 17 43 17q20 0 34 -13t14 -35q0 -33 -25.5 -54.5t-62.5 -21.5q-35 0 -53.5 20z" />
    <glyph glyph-name="uni031B" unicode="&#x31b;" 
d="M-111 619q41 0 63 26.5t28 63.5l10 54h91l-8 -45q-14 -79 -64 -128t-134 -49z" />
    <glyph glyph-name="uni0326" unicode="&#x326;" 
d="M-205 -163q27 0 46.5 7.5t26.5 22.5q2 3 5 14h-8q-11 -15 -34 -15q-16 0 -26 8.5t-10 24.5q0 28 20 46t52 18q30 0 45.5 -15.5t15.5 -40.5q0 -51 -37.5 -78.5t-102.5 -27.5z" />
    <glyph glyph-name="uni0327" unicode="&#x327;" 
d="M-318 -196l10 56q48 -19 84 -19q27 0 42.5 12t15.5 34q0 26 -32.5 35.5t-88.5 8.5l95 90h91q-14 -12 -33 -26.5t-45 -30.5l4 -9q9 2 23 2q36 0 57 -14.5t21 -43.5q0 -53 -43 -81t-109 -28q-49 0 -92 14z" />
    <glyph glyph-name="uni0328" unicode="&#x328;" 
d="M-272 -144q0 48 31.5 76.5t91.5 48.5l4 19h91q-61 -35 -82.5 -53t-21.5 -40q0 -25 34 -25q24 0 51 13l-16 -94q-37 -11 -78 -11q-105 0 -105 66z" />
    <glyph glyph-name="uni0337" unicode="&#x337;" 
d="M17 403l-265 -126l18 102l265 126z" />
    <glyph glyph-name="uni0338" unicode="&#x338;" 
d="M41 538l-626 -532l-54 62l627 533z" />
    <glyph glyph-name="uni0394" unicode="&#x394;" horiz-adv-x="715" 
d="M661 0h-706l400 763h176zM410 584l-218 -443h280z" />
    <glyph glyph-name="pi" unicode="&#x3c0;" horiz-adv-x="634" 
d="M40 0l76 433h-61l23 131h566l-23 -131h-86l-47 -270q-2 -14 -2 -18q0 -14 7.5 -19.5t25.5 -5.5h47l-21 -120h-82q-129 0 -129 100q0 9 4 35l52 298h-128l-76 -433h-146z" />
    <glyph glyph-name="Wgrave" unicode="&#x1e80;" horiz-adv-x="1125" 
d="M391 0h-237l-56 763h164l35 -634l238 634h215l13 -635l260 635h175l-326 -763h-237l-13 615zM721 816h-112l-126 146h150z" />
    <glyph glyph-name="wgrave" unicode="&#x1e81;" horiz-adv-x="852" 
d="M280 0h-144l-74 564h157l28 -347l157 347h131l35 -345l154 345h165l-277 -564h-143l-29 359zM548 617h-112l-126 146h150z" />
    <glyph glyph-name="Wacute" unicode="&#x1e82;" horiz-adv-x="1125" 
d="M391 0h-237l-56 763h164l35 -634l238 634h215l13 -635l260 635h175l-326 -763h-237l-13 615zM705 816h-113l141 146h151z" />
    <glyph glyph-name="wacute" unicode="&#x1e83;" horiz-adv-x="852" 
d="M280 0h-144l-74 564h157l28 -347l157 347h131l35 -345l154 345h165l-277 -564h-143l-29 359zM532 617h-113l141 146h151z" />
    <glyph glyph-name="Wdieresis" unicode="&#x1e84;" horiz-adv-x="1125" 
d="M391 0h-237l-56 763h164l35 -634l238 634h215l13 -635l260 635h175l-326 -763h-237l-13 615zM492 821.5q-21 17.5 -21 47.5q0 41 31.5 68.5t72.5 27.5q33 0 53.5 -18t20.5 -48q0 -40 -30.5 -67.5t-72.5 -27.5q-33 0 -54 17.5zM707.5 821.5q-21.5 17.5 -21.5 47.5
q0 41 31.5 68.5t72.5 27.5q33 0 54 -18t21 -48q0 -40 -30.5 -67.5t-73.5 -27.5q-32 0 -53.5 17.5z" />
    <glyph glyph-name="wdieresis" unicode="&#x1e85;" horiz-adv-x="852" 
d="M280 0h-144l-74 564h157l28 -347l157 347h131l35 -345l154 345h165l-277 -564h-143l-29 359zM321.5 632.5q-21.5 18.5 -21.5 48.5q0 41 31.5 69t72.5 28q33 0 54.5 -18.5t21.5 -48.5q0 -43 -31 -70t-73 -27q-33 0 -54.5 18.5zM536.5 632.5q-21.5 18.5 -21.5 48.5
q0 42 31.5 69.5t73.5 27.5q33 0 54 -18.5t21 -48.5q0 -43 -31 -70t-73 -27q-33 0 -54.5 18.5z" />
    <glyph glyph-name="uni1E9E" unicode="&#x1e9e;" horiz-adv-x="701" 
d="M95 461q16 88 44 147t74 97q82 73 229 73q139 0 224 -94l-25 -136l-136 -113q38 -4 69 -19q86 -33 86 -135q0 -91 -43.5 -154t-117.5 -95t-164 -32h-91l25 145h95q62 0 97 29t35 83q0 67 -101 67h-62l24 134l162 136q-41 39 -103 39q-64 0 -101 -36q-20 -20 -34.5 -51
t-23.5 -85l-81 -461h-162z" />
    <glyph glyph-name="Ygrave" unicode="&#x1ef2;" horiz-adv-x="709" 
d="M390 0h-170l53 301l-193 462h175l117 -306l226 306h202l-357 -462zM511 816h-112l-126 146h150z" />
    <glyph glyph-name="ygrave" unicode="&#x1ef3;" horiz-adv-x="571" 
d="M-16 -199l23 125h65q26 0 42.5 8.5t33.5 34.5l15 26l-104 569h158l47 -407l177 407h168l-318 -615q-42 -81 -88.5 -114.5t-121.5 -33.5h-97zM403 617h-112l-126 146h150z" />
    <glyph glyph-name="endash" unicode="&#x2013;" horiz-adv-x="547" 
d="M521 267h-501l20 109h501z" />
    <glyph glyph-name="emdash" unicode="&#x2014;" horiz-adv-x="1106" 
d="M1104 267h-1106l19 109h1106z" />
    <glyph glyph-name="uni2015" unicode="&#x2015;" horiz-adv-x="804" 
d="M739 281h-675l16 91h675z" />
    <glyph glyph-name="quoteleft" unicode="&#x2018;" horiz-adv-x="318" 
d="M121 469.5q-22 26.5 -22 73.5q0 64 30 116t83 83t121 34l-13 -78q-56 -2 -91.5 -28t-42.5 -76q20 23 54 23q25 0 42 -18t17 -47q0 -48 -32 -78.5t-80 -30.5q-44 0 -66 26.5z" />
    <glyph glyph-name="quoteright" unicode="&#x2019;" horiz-adv-x="318" 
d="M113 520q57 2 92 28.5t42 75.5q-20 -23 -54 -23q-25 0 -42 18t-17 47q0 48 32 78.5t80 30.5q43 0 65 -26.5t22 -72.5q0 -65 -29.5 -116.5t-82.5 -82.5t-121 -35z" />
    <glyph glyph-name="quotesinglbase" unicode="&#x201a;" horiz-adv-x="275" 
d="M-23 -92q57 2 92 28.5t42 75.5q-20 -23 -55 -23q-24 0 -41.5 17.5t-17.5 47.5q0 47 32 77.5t80 30.5q44 0 66 -26.5t22 -73.5q0 -64 -30 -115.5t-83 -82.5t-121 -34z" />
    <glyph glyph-name="quotedblleft" unicode="&#x201c;" horiz-adv-x="553" 
d="M121.5 470q-22.5 26 -22.5 72q0 65 29.5 117t83 83t121.5 35l-14 -78q-56 -2 -91.5 -28t-42.5 -77q19 23 55 23q24 0 41.5 -17.5t17.5 -47.5q0 -47 -32 -77.5t-80 -30.5q-43 0 -65.5 26zM357 470q-22 26 -22 72q0 65 29.5 117t82.5 83t121 35l-14 -78q-56 -2 -91 -28.5
t-42 -76.5q11 13 23.5 18t30.5 5q25 0 42 -17.5t17 -47.5q0 -47 -32 -77.5t-80 -30.5q-43 0 -65 26z" />
    <glyph glyph-name="quotedblright" unicode="&#x201d;" horiz-adv-x="553" 
d="M113 520q57 2 92 28.5t42 75.5q-20 -23 -54 -23q-25 0 -42 18t-17 47q0 48 32 78.5t80 30.5q43 0 65 -26.5t22 -72.5q0 -65 -29.5 -116.5t-82.5 -82.5t-121 -35zM349 520q57 2 92 28.5t42 75.5q-20 -23 -55 -23q-24 0 -41.5 18t-17.5 47q0 48 32 78.5t80 30.5
q43 0 65 -26.5t22 -72.5q0 -65 -29.5 -116.5t-82.5 -82.5t-121 -35z" />
    <glyph glyph-name="quotedblbase" unicode="&#x201e;" horiz-adv-x="510" 
d="M-23 -93q56 2 91.5 28.5t42.5 75.5q-20 -23 -55 -23q-24 0 -41.5 17.5t-17.5 47.5q0 48 32 78.5t80 30.5q43 0 65 -26.5t22 -72.5q0 -65 -29.5 -116.5t-82.5 -82.5t-121 -35zM212 -93q56 2 91.5 28.5t42.5 75.5q-20 -23 -55 -23q-24 0 -41 17.5t-17 47.5q0 48 31.5 78.5
t79.5 30.5q44 0 66 -26.5t22 -72.5q0 -65 -29.5 -116.5t-82.5 -82.5t-121 -35z" />
    <glyph glyph-name="dagger" unicode="&#x2020;" horiz-adv-x="594" 
d="M268 -199h-113l111 626h-225l20 111h225l39 225h113l-40 -225h225l-20 -111h-225z" />
    <glyph glyph-name="bullet" unicode="&#x2022;" horiz-adv-x="390" 
d="M91 162q-30 30 -30 75q0 39 21.5 74t57 56t73.5 21q48 0 78 -30t30 -76q0 -40 -21.5 -74.5t-57 -55t-74.5 -20.5q-47 0 -77 30z" />
    <glyph glyph-name="uni2023" unicode="&#x2023;" horiz-adv-x="451" 
d="M445 285l-380 -201l71 401z" />
    <glyph glyph-name="ellipsis" unicode="&#x2026;" horiz-adv-x="690" 
d="M154.5 141.5q19.5 -20.5 19.5 -51.5q0 -26 -14.5 -49.5t-38 -38t-48.5 -14.5q-32 0 -53.5 21t-21.5 52q0 40 32.5 70.5t73.5 30.5q31 0 50.5 -20.5zM554.5 141.5q20.5 -20.5 20.5 -51.5q0 -26 -15 -49.5t-38.5 -38t-49.5 -14.5q-40 0 -61 32q-14 -15 -33 -23.5t-39 -8.5
q-32 0 -52.5 21t-20.5 51q0 26 15 49.5t39 38t50 14.5q19 0 35 -8.5t25 -22.5q33 31 73 31q31 0 51.5 -20.5z" />
    <glyph glyph-name="perthousand" unicode="&#x2030;" horiz-adv-x="1142" 
d="M130 456q-39 37 -39 102q0 58 26 108.5t71.5 81t101.5 30.5q61 0 98 -40.5t37 -102.5q0 -54 -26.5 -104t-71.5 -81t-97 -31q-61 0 -100 37zM155 0h-119l613 763h120zM294 557.5q19 25.5 19 59.5q0 23 -12 36.5t-30 13.5q-32 0 -49 -27t-17 -62q0 -24 12 -35t32 -11
q26 0 45 25.5zM422.5 21.5q-38.5 37.5 -38.5 102.5q0 58 26 108t71 80t101 30q61 0 98.5 -40t37.5 -103q0 -54 -27 -104t-72 -80.5t-97 -30.5q-61 0 -99.5 37.5zM788.5 21.5q-38.5 37.5 -38.5 102.5q0 58 26 108t71.5 80t100.5 30q62 0 99.5 -40t37.5 -103q0 -54 -27 -104
t-72 -80.5t-97 -30.5q-62 0 -100.5 37.5zM586 120q20 25 20 60q0 24 -12.5 37.5t-30.5 13.5q-32 0 -49 -27t-17 -62q0 -24 12 -35.5t32 -11.5q25 0 45 25zM952.5 120.5q19.5 25.5 19.5 59.5q0 25 -12 38t-31 13q-32 0 -49 -27t-17 -62q0 -24 12.5 -35.5t32.5 -11.5
q25 0 44.5 25.5z" />
    <glyph glyph-name="guilsinglleft" unicode="&#x2039;" horiz-adv-x="308" 
d="M220 210l-22 -128l-201 193l269 195l-22 -127l-96 -68z" />
    <glyph glyph-name="guilsinglright" unicode="&#x203a;" horiz-adv-x="308" 
d="M309 275l-270 -193l23 128l96 65l-73 68l22 127z" />
    <glyph glyph-name="fraction" unicode="&#x2044;" horiz-adv-x="172" 
d="M-148 0h-84l588 763h84z" />
    <glyph glyph-name="Euro" unicode="&#x20ac;" horiz-adv-x="604" 
d="M404.5 596q-54.5 -37 -88.5 -100h214l-13 -76h-231q-8 -30 -13 -71h232l-14 -76h-216q10 -68 52.5 -106t112.5 -38q34 0 75 12l-27 -151q-36 -6 -74 -6q-151 0 -229 80t-84 209h-66l14 76h55q3 37 12 71h-55l13 76h66q52 128 161.5 205t252.5 77q34 0 71 -5l-26 -152
q-32 12 -70 12q-70 0 -124.5 -37z" />
    <glyph glyph-name="uni2116" unicode="&#x2116;" horiz-adv-x="1296" 
d="M868 340.5q-55 52.5 -55 142.5q0 81 38.5 148.5t105 107t147.5 39.5q95 0 150.5 -52.5t55.5 -139.5q0 -82 -38.5 -150t-105.5 -108t-148 -40q-95 0 -150 52.5zM176 0h-162l135 763h172l214 -505l89 505h162l-135 -763h-173l-213 507zM1110 421q32 25 50 64.5t18 82.5
q0 46 -25 73.5t-68 27.5q-40 0 -72.5 -24t-50.5 -63t-18 -82q0 -48 25 -76t68 -28q41 0 73 25zM1199 127h-418l20 111h417z" />
    <glyph glyph-name="trademark" unicode="&#x2122;" horiz-adv-x="823" 
d="M232 381h-80l54 310h-112l13 72h305l-13 -72h-113zM462 381h-81l68 382h132l20 -285l121 285h132l-68 -382h-80l56 319l-139 -319h-78l-26 317z" />
    <glyph glyph-name="minus" unicode="&#x2212;" horiz-adv-x="670" 
d="M569 284h-467l20 111h467z" />
    <glyph glyph-name="lozenge" unicode="&#x25ca;" horiz-adv-x="685" 
d="M406 0h-226l-143 382l277 381h226l142 -382zM211 382l95 -301l204 301l-97 300z" />
    <glyph glyph-name="uniF8FF" unicode="&#xf8ff;" horiz-adv-x="891" 
d="M23 0q-9 0 -7 10l131 743q2 10 11 10h744q10 0 8 -10l-131 -743q-1 -4 -4 -7t-8 -3h-744zM207 94q13 11 22.5 25t17.5 28q19 36 45 69.5t82 82.5l29 26q5 4 9 4q5 0 8 -3q7 -4 16 -6q9 -3 8 -13l-6 -36q-8 -43 -17.5 -66t-23.5 -48q-14 -21 -17 -37q-2 -14 7 -25t23 -11
q15 0 28 11t15 25q1 4 1 12q0 7 -4 25q-7 28 -7 51q0 32 6 63l6 36q1 9 12 13q13 4 16 6q6 3 9 3q5 0 8 -4l22 -26q40 -48 54 -81.5t20 -69.5q4 -20 8 -31.5t13 -22.5q14 -15 37 -15q26 0 44 15q25 22 25 53q0 19 -10 29q-9 12 -19.5 18t-29.5 12q-35 14 -64.5 33t-68.5 67
l-21 26q-3 3 -3 9l4 7q8 12 11 18q5 11 13 11h36q45 0 68.5 -6t42.5 -16q3 -1 13 -5.5t23 -4.5q16 0 29.5 13.5t13.5 30.5q0 12 -8.5 21t-21.5 9t-25 -4.5t-14 -5.5q-22 -10 -48 -16t-71 -6h-36q-8 0 -10 11q-2 10 -4 15q-2 3 -2 8q3 6 6 8l30 26q57 48 94.5 68.5t74.5 31.5
q4 2 16.5 6.5t22.5 10t19 13.5q25 23 25 52q0 19 -10 30q-13 16 -39 16q-24 0 -42 -15q-13 -11 -21 -22.5t-20 -32.5q-19 -37 -44.5 -70t-82.5 -81l-29 -24q-3 -4 -9 -4q-4 0 -7 2q-6 4 -16 7q-9 3 -8 13l7 36q7 44 17 68t24 45q2 3 8 14.5t8 23.5q3 14 -6 25t-23 11
q-15 0 -28 -11t-16 -25q-1 -4 -1 -11q0 -8 4 -26q8 -24 8 -53q0 -22 -6 -61l-7 -36q-1 -9 -12 -13q-2 -1 -8 -2.5t-10 -4.5q-3 -2 -8 -2q-6 0 -9 4l-21 24q-40 48 -54.5 82.5t-19.5 69.5q-3 19 -7 31t-13 23q-13 16 -37 16q-22 0 -43 -16q-26 -23 -26 -52q0 -20 10 -31
q9 -11 19.5 -17t28.5 -13q33 -13 63 -33t70 -67l22 -25q3 -5 2 -8q0 -4 -4 -8q-2 -2 -10 -16q-5 -11 -14 -11h-36q-44 0 -68 6t-43 16q-2 1 -12 5.5t-23 4.5q-16 0 -29.5 -13t-13.5 -29q0 -14 8.5 -23t21.5 -9q12 0 23.5 4.5t15.5 5.5q22 10 47.5 16t70.5 6h36q9 0 11 -11
q2 -12 5 -17v-5q0 -6 -5 -11l-31 -27q-56 -49 -93 -68.5t-76 -31.5q-21 -7 -33.5 -13t-25.5 -17q-11 -9 -17.5 -23t-6.5 -28q0 -17 10 -30q13 -16 39 -16q25 0 43 15zM420.5 340.5q-13.5 13.5 -13.5 32.5q0 24 20.5 43.5t44.5 19.5q20 0 32.5 -13t12.5 -32
q0 -25 -19.5 -44.5t-44.5 -19.5q-19 0 -32.5 13.5zM489 354l-5 6q-11 -13 -28 -13q-12 0 -20 8.5t-8 21.5q0 15 12.5 27t27.5 12t25 -13l6 6q-7 15 -29 15q-19 0 -35.5 -15t-16.5 -34q0 -15 10.5 -25.5t26.5 -10.5q22 0 34 15z" />
    <glyph glyph-name="i.loclTRK" horiz-adv-x="268" 
d="M160 0h-152l100 564h151zM138.5 632.5q-21.5 18.5 -21.5 48.5q0 41 31.5 69t72.5 28q33 0 54.5 -18.5t21.5 -48.5q0 -43 -31 -70t-73 -27q-33 0 -54.5 18.5z" />
    <glyph glyph-name="uni030C.alt" 
d="M-158 520q48 2 81 21.5t46 55.5q8 32 7 27q-22 -23 -55 -23q-24 0 -41.5 18t-17.5 47q0 48 32 78.5t80 30.5q43 0 65 -26.5t22 -72.5q0 -20 -4 -40q-13 -77 -70 -132.5t-159 -61.5z" />
    <glyph glyph-name="uni0308.case" 
d="M-270 821.5q-21 17.5 -21 47.5q0 41 31.5 68.5t72.5 27.5q33 0 53.5 -18t20.5 -48q0 -40 -30.5 -67.5t-72.5 -27.5q-33 0 -54 17.5zM-54.5 821.5q-21.5 17.5 -21.5 47.5q0 41 31.5 68.5t72.5 27.5q33 0 54 -18t21 -48q0 -40 -30.5 -67.5t-73.5 -27.5q-32 0 -53.5 17.5z
" />
    <glyph glyph-name="uni0307.case" 
d="M-54 821.5q-21 17.5 -21 47.5q0 41 31.5 68.5t72.5 27.5q33 0 53.5 -18t20.5 -48q0 -40 -30.5 -67.5t-72.5 -27.5q-33 0 -54 17.5z" />
    <glyph glyph-name="uni0328.case" 
d="M-272 -144q0 48 31.5 76.5t91.5 48.5l4 19h91q-61 -35 -82.5 -53t-21.5 -40q0 -25 34 -25q24 0 51 13l-16 -94q-37 -11 -78 -11q-105 0 -105 66z" />
    <glyph glyph-name="uni0335.case" 
d="M-4 284h-418l20 111h418z" />
    <glyph glyph-name="uni0337.case" 
d="M21 424l-424 -201l20 117l424 200z" />
    <glyph glyph-name="uni0338.case" 
d="M65 675l-788 -669l-54 62l789 670z" />
    <glyph glyph-name="base_No" horiz-adv-x="525" 
d="M475 0h-501v134h501v-134z" />
    </font>
</defs>
</svg>
